<svg width="12" height="9" viewBox="0 0 12 9" fill="none" xmlns="http://www.w3.org/2000/svg">
<path fill-rule="evenodd" clip-rule="evenodd" d="M3.68751 0.00905296C1.95938 0.312411 0.132324 1.712 0.132324 4.20782V7.94308C0.132324 8.49536 0.580039 8.94308 1.13232 8.94308H3.86758C4.41986 8.94308 4.86758 8.49536 4.86758 7.94308V5.20782C4.86758 4.65554 4.41987 4.20782 3.86758 4.20782H1.5529C1.5529 2.97625 2.26471 1.74468 3.68833 1.43876C4.07185 1.35635 4.39405 1.04866 4.39405 0.656381C4.39405 0.264099 4.07388 -0.0587715 3.68751 0.00905296Z" fill="white"/>
<path fill-rule="evenodd" clip-rule="evenodd" d="M10.6875 0.00905296C8.95938 0.312411 7.13232 1.712 7.13232 4.20782V7.94308C7.13232 8.49536 7.58004 8.94308 8.13232 8.94308H10.8676C11.4199 8.94308 11.8676 8.49536 11.8676 7.94308V5.20782C11.8676 4.65554 11.4199 4.20782 10.8676 4.20782H8.5529C8.5529 2.97625 9.26471 1.74468 10.6883 1.43876C11.0719 1.35635 11.3941 1.04866 11.3941 0.656381C11.3941 0.264099 11.0739 -0.0587715 10.6875 0.00905296Z" fill="white"/>
</svg>
