<svg width="28" height="28" viewBox="0 0 28 28" fill="none" xmlns="http://www.w3.org/2000/svg">
<g id="user/ic_accountmanagement_fill">
<path id="icon" fill-rule="evenodd" clip-rule="evenodd" d="M14 2.33301C7.55666 2.33301 2.33331 7.55635 2.33331 13.9997C2.33331 20.443 7.55666 25.6663 14 25.6663C20.4433 25.6663 25.6666 20.443 25.6666 13.9997C25.6666 7.55635 20.4433 2.33301 14 2.33301ZM9.94517 10.1897C9.94517 7.95029 11.7605 6.13493 13.9999 6.13493C16.2393 6.13493 18.0546 7.95029 18.0546 10.1897C18.0546 12.429 16.2393 14.2444 13.9999 14.2444C11.7605 14.2444 9.94517 12.429 9.94517 10.1897ZM20.8289 21.1163C20.8289 21.1419 20.8281 21.1672 20.8266 21.1924C19.0486 22.8806 16.6452 23.9163 13.9998 23.9163C11.3546 23.9163 8.95122 22.8806 7.17319 21.1926C7.17166 21.1673 7.17088 21.1419 7.17088 21.1163C7.17088 17.7926 9.86528 15.0982 13.189 15.0982L14.8109 15.0982C18.1346 15.0983 20.8289 17.7926 20.8289 21.1163Z" fill="white"/>
</g>
</svg>
