<svg width="25" height="24" viewBox="0 0 25 24" fill="none" xmlns="http://www.w3.org/2000/svg">
<path fill-rule="evenodd" clip-rule="evenodd" d="M7.02776 3.43975C7.54575 3.1261 8.15046 3 8.75601 3H15.6439C16.2494 3 16.8542 3.1261 17.3721 3.43974C20.2659 5.19196 22.2 8.37012 22.2 12C22.2 17.5228 17.7228 22 12.2 22C6.6771 22 2.19995 17.5228 2.19995 12C2.19995 8.37012 4.13397 5.19196 7.02776 3.43975ZM17.3854 13.7136C18.3401 13.7136 19.114 12.9429 19.114 11.9922C19.114 11.0415 18.3401 10.2708 17.3854 10.2708C16.4308 10.2708 15.6569 11.0415 15.6569 11.9922C15.6569 12.9429 16.4308 13.7136 17.3854 13.7136ZM16.5206 16.2956C16.5206 17.2463 15.7467 18.017 14.792 18.017C13.8373 18.017 13.0634 17.2463 13.0634 16.2956C13.0634 15.3449 13.8373 14.5742 14.792 14.5742C15.7467 14.5742 16.5206 15.3449 16.5206 16.2956ZM14.7924 9.41017C15.5084 9.41017 16.0888 8.83216 16.0888 8.11914C16.0888 7.40613 15.5084 6.82812 14.7924 6.82812C14.0764 6.82812 13.496 7.40613 13.496 8.11914C13.496 8.83216 14.0764 9.41017 14.7924 9.41017ZM10.9019 8.11914C10.9019 8.83216 10.3215 9.41017 9.60552 9.41017C8.88953 9.41017 8.3091 8.83216 8.3091 8.11914C8.3091 7.40613 8.88953 6.82812 9.60552 6.82812C10.3215 6.82812 10.9019 7.40613 10.9019 8.11914ZM12.1986 13.7136C13.1532 13.7136 13.9271 12.9429 13.9271 11.9922C13.9271 11.0415 13.1532 10.2708 12.1986 10.2708C11.2439 10.2708 10.47 11.0415 10.47 11.9922C10.47 12.9429 11.2439 13.7136 12.1986 13.7136ZM8.74204 11.9922C8.74204 12.9429 7.96813 13.7136 7.01347 13.7136C6.05882 13.7136 5.28491 12.9429 5.28491 11.9922C5.28491 11.0415 6.05882 10.2708 7.01347 10.2708C7.96813 10.2708 8.74204 11.0415 8.74204 11.9922ZM9.60691 18.017C10.5616 18.017 11.3355 17.2463 11.3355 16.2956C11.3355 15.3449 10.5616 14.5742 9.60691 14.5742C8.65225 14.5742 7.87835 15.3449 7.87835 16.2956C7.87835 17.2463 8.65225 18.017 9.60691 18.017Z" fill="#697387"/>
</svg>
