<svg width="24" height="24" viewBox="0 0 24 24" fill="none" xmlns="http://www.w3.org/2000/svg">
<path d="M20.7427 5.17004L18.2835 7.62929L17.2228 6.56863L19.6821 4.10938L20.7427 5.17004Z" fill="#4B5468"/>
<path d="M19.022 11.485H22.4999V9.98504H19.022V11.485Z" fill="#4B5468"/>
<path d="M17.2228 14.3105L19.6821 16.7697L20.7427 15.7091L18.2835 13.2498L17.2228 14.3105Z" fill="#4B5468"/>
<path fill-rule="evenodd" clip-rule="evenodd" d="M9.74156 14.1136L13.1168 16.3361C14.0477 16.949 15.2868 16.2813 15.2868 15.1668V5.74439C15.2868 4.62347 14.0351 3.95709 13.1052 4.58289L9.74156 6.84637H4.49982C2.84296 6.84637 1.49982 8.18951 1.49982 9.84637V11.1136C1.49982 12.7704 2.84296 14.1136 4.49981 14.1136H4.82386V17.9535C4.82386 19.0238 5.69157 19.8915 6.76195 19.8915C7.83232 19.8915 8.70004 19.0238 8.70004 17.9535V14.1136H9.74156Z" fill="#4B5468"/>
</svg>
