<svg width="20" height="20" viewBox="0 0 20 20" fill="none" xmlns="http://www.w3.org/2000/svg">
<path fill-rule="evenodd" clip-rule="evenodd" d="M13.9583 3.59578H16.75C17.3916 3.59578 17.9166 4.12069 17.9166 4.76237V6.77083H2.08331V4.76237C2.08331 4.12069 2.60832 3.59578 3.25 3.59578H6.04165V2.23755H7.29165V3.59578H12.7083V2.23755H13.9583V3.59578ZM3.33331 7.60417H16.6666H17.9166V15.2625C17.9166 16.6459 16.8 17.7625 15.4166 17.7625H4.58331C3.19995 17.7625 2.08331 16.6459 2.08331 15.2625V7.60417H3.0083H3.33331ZM7.08331 14.6541C7.31667 14.6541 7.49998 14.471 7.49998 14.2375V13.1624C7.49998 12.9293 7.31667 12.7458 7.08331 12.7458H5.64166C5.4083 12.7458 5.225 12.9293 5.225 13.1624V14.2375C5.225 14.471 5.4083 14.6541 5.64166 14.6541H7.08331ZM7.08331 11.3375C7.31667 11.3375 7.49998 11.1544 7.49998 10.9208V9.84578C7.49998 9.61263 7.31667 9.42912 7.08331 9.42912H5.64166C5.4083 9.42912 5.225 9.61263 5.225 9.84578V10.9208C5.225 11.1544 5.4083 11.3375 5.64166 11.3375H7.08331ZM10.7999 14.6541C11.0333 14.6541 11.2166 14.471 11.2166 14.2375V13.1624C11.2166 12.9293 11.0333 12.7458 10.7999 12.7458H9.3583C9.12494 12.7458 8.94163 12.9293 8.94163 13.1624V14.2375C8.94163 14.471 9.12494 14.6541 9.3583 14.6541H10.7999ZM10.7999 11.3375C11.0333 11.3375 11.2166 11.1544 11.2166 10.9208V9.84578C11.2166 9.61263 11.0333 9.42912 10.7999 9.42912H9.3583C9.12494 9.42912 8.94163 9.61263 8.94163 9.84578V10.9208C8.94163 11.1544 9.12494 11.3375 9.3583 11.3375H10.7999ZM14.8162 14.5296C14.889 14.4548 14.9333 14.3522 14.9333 14.2375V13.1624C14.9333 13.0396 14.8825 12.9305 14.8002 12.8548C14.7262 12.7869 14.6271 12.7458 14.5167 12.7458H13.0749C12.85 12.7458 12.6583 12.9293 12.6583 13.1624V14.2375C12.6583 14.471 12.85 14.6541 13.0749 14.6541H14.5167C14.6352 14.6541 14.7409 14.6069 14.8162 14.5296ZM14.5167 11.3375C14.7499 11.3375 14.9333 11.1544 14.9333 10.9208V9.84578C14.9333 9.61263 14.7499 9.42912 14.5167 9.42912H13.0749C12.85 9.42912 12.6583 9.61263 12.6583 9.84578V10.9208C12.6583 11.1544 12.85 11.3375 13.0749 11.3375H14.5167Z" fill="#354056"/>
</svg>
