<svg width="20" height="20" viewBox="0 0 20 20" fill="none" xmlns="http://www.w3.org/2000/svg">
<path fill-rule="evenodd" clip-rule="evenodd" d="M3.88894 1.66699C3.27529 1.66699 2.77783 2.16445 2.77783 2.7781V17.2225C2.77783 17.8362 3.27529 18.3337 3.88894 18.3337H11.1112C11.5224 18.3337 11.8815 18.1102 12.0736 17.7781H12.2223V10.6253H12.9081C13.0232 10.6253 13.1164 10.7186 13.1164 10.8337V15.417C13.1164 16.2224 13.7694 16.8753 14.5748 16.8753H15.1119C15.9173 16.8753 16.5703 16.2224 16.5703 15.417V7.49059C17.4055 7.40025 18.0556 6.69289 18.0556 5.83367V4.41701C18.0556 4.27894 17.9437 4.16701 17.8056 4.16701H17.2223V2.91701C17.2223 2.68689 17.0358 2.50034 16.8056 2.50034C16.5755 2.50034 16.389 2.68689 16.389 2.91701V4.16701H15.5556V2.91701C15.5556 2.68689 15.3691 2.50034 15.139 2.50034C14.9089 2.50034 14.7223 2.68689 14.7223 2.91701V4.16701H14.139C14.0009 4.16701 13.889 4.27894 13.889 4.41701V5.83367C13.889 6.67425 14.5113 7.36949 15.3203 7.48385V15.417C15.3203 15.5321 15.227 15.6253 15.1119 15.6253H14.5748C14.4597 15.6253 14.3664 15.5321 14.3664 15.417V10.8337C14.3664 10.0283 13.7135 9.37534 12.9081 9.37534H12.2223V2.7781C12.2223 2.16445 11.7248 1.66699 11.1112 1.66699H3.88894ZM10.8334 3.33366H4.16672V6.66699H10.8334V3.33366ZM7.7232 8.51416C7.94948 8.16129 8.49701 8.36617 8.43603 8.78088L8.1711 10.5826H9.33236C9.64635 10.5826 9.83111 10.9352 9.6524 11.1934L6.63851 15.5478C6.38643 15.9119 5.81891 15.6396 5.94535 15.2151L6.65583 12.8299H5.66771C5.35993 12.8299 5.17391 12.4896 5.34006 12.2305L7.7232 8.51416Z" fill="#354056"/>
</svg>
