<svg width="16" height="16" viewBox="0 0 16 16" fill="none" xmlns="http://www.w3.org/2000/svg">
<g id="common/ic_call">
<path id="icon" d="M14.3678 11.8283L12.3087 9.76423C11.8985 9.35481 11.2193 9.36725 10.7949 9.79279L9.75751 10.8323C9.69197 10.7961 9.62413 10.7583 9.5528 10.7182C8.8977 10.3544 8.00108 9.85572 7.05757 8.90938C6.11126 7.96105 5.61329 7.06101 5.24919 6.404C5.21077 6.33439 5.17396 6.26728 5.13761 6.20355L5.83385 5.50677L6.17615 5.16327C6.60123 4.73711 6.61295 4.05656 6.20377 3.64596L4.14465 1.5817C3.73546 1.17167 3.05596 1.18411 2.63088 1.61027L2.05055 2.19526L2.06641 2.21103C1.87181 2.4599 1.7092 2.74692 1.5882 3.05644C1.47665 3.35106 1.4072 3.63221 1.37545 3.91394C1.10355 6.17311 2.13359 8.23782 4.92899 11.0396C8.79309 14.9122 11.907 14.6196 12.0414 14.6053C12.334 14.5703 12.6144 14.5002 12.8993 14.3893C13.2054 14.2694 13.4916 14.1067 13.7398 13.9121L13.7525 13.9234L14.3404 13.3464C14.7646 12.9203 14.7768 12.2395 14.3678 11.8283Z" fill="#354056"/>
</g>
</svg>
