<svg width="25" height="24" viewBox="0 0 25 24" fill="none" xmlns="http://www.w3.org/2000/svg">
<g id="common/ic_card">
<g id="icon">
<path d="M16.875 14C16.3227 14 15.875 14.4477 15.875 15C15.875 15.5523 16.3227 16 16.875 16H17.875C18.4273 16 18.875 15.5523 18.875 15C18.875 14.4477 18.4273 14 17.875 14H16.875Z" fill="#4B5468"/>
<path fill-rule="evenodd" clip-rule="evenodd" d="M2.875 17C2.875 18.6569 4.21815 20 5.875 20H19.875C21.5319 20 22.875 18.6569 22.875 17V7C22.875 5.34315 21.5319 4 19.875 4H5.875C4.21815 4 2.875 5.34315 2.875 7V17ZM19.875 5.5H5.875C5.04657 5.5 4.375 6.17157 4.375 7V8H21.375V7C21.375 6.17157 20.7034 5.5 19.875 5.5ZM21.375 17V10H4.375V17C4.375 17.8284 5.04657 18.5 5.875 18.5H19.875C20.7034 18.5 21.375 17.8284 21.375 17Z" fill="#4B5468"/>
</g>
</g>
</svg>
