<svg width="36" height="36" viewBox="0 0 36 36" fill="none" xmlns="http://www.w3.org/2000/svg">
<rect width="36" height="36" rx="18" fill="#354056"/>
<path d="M18 22C20.2091 22 22 20.2091 22 18C22 15.7909 20.2091 14 18 14C15.7909 14 14 15.7909 14 18C14 20.2091 15.7909 22 18 22Z" fill="white"/>
<path fill-rule="evenodd" clip-rule="evenodd" d="M17.25 7H18.75V10.0347C22.5697 10.3898 25.6102 13.4303 25.9653 17.25H29V18.75H25.9653C25.6102 22.5697 22.5697 25.6102 18.75 25.9653V29H17.25V25.9653C13.4303 25.6102 10.3898 22.5697 10.0347 18.75H7V17.25H10.0347C10.3898 13.4303 13.4303 10.3898 17.25 10.0347V7ZM24.5 18C24.5 21.5899 21.5899 24.5 18 24.5C14.4101 24.5 11.5 21.5899 11.5 18C11.5 14.4101 14.4101 11.5 18 11.5C21.5899 11.5 24.5 14.4101 24.5 18Z" fill="white"/>
</svg>
