<svg width="40" height="40" viewBox="0 0 40 40" fill="none" xmlns="http://www.w3.org/2000/svg">
<path d="M0 8C0 3.58172 3.58172 0 8 0H32C36.4183 0 40 3.58172 40 8V32C40 36.4183 36.4183 40 32 40H8C3.58172 40 0 36.4183 0 32V8Z" fill="#D1FADF"/>
<path d="M28.5965 25.2371L25.8167 22.4507C25.263 21.898 24.346 21.9148 23.7731 22.4893L22.3726 23.8926C22.2841 23.8437 22.1925 23.7927 22.0962 23.7385C21.2118 23.2474 20.0014 22.5742 18.7277 21.2967C17.4502 20.0164 16.7779 18.8014 16.2864 17.9144C16.2345 17.8204 16.1848 17.7298 16.1357 17.6438L17.0756 16.7031L17.5378 16.2394C18.1116 15.6641 18.1274 14.7454 17.575 14.191L14.7952 11.4043C14.2428 10.8508 13.3255 10.8675 12.7516 11.4429L11.9682 12.2326L11.9896 12.2539C11.7269 12.5899 11.5074 12.9773 11.344 13.3952C11.1934 13.7929 11.0997 14.1725 11.0568 14.5528C10.6897 17.6027 12.0803 20.39 15.8541 24.1724C21.0706 29.4004 25.2744 29.0055 25.4558 28.9862C25.8508 28.9389 26.2293 28.8443 26.614 28.6946C27.0273 28.5327 27.4136 28.313 27.7486 28.0503L27.7658 28.0655L28.5594 27.2866C29.1321 26.7114 29.1486 25.7923 28.5965 25.2371Z" fill="#12B76A"/>
</svg>
