<svg width="24" height="25" viewBox="0 0 24 25" fill="none" xmlns="http://www.w3.org/2000/svg">
<g id="device/ic_camera_fill">
<g id="icon">
<path d="M15.5 13.6562C15.5 15.5892 13.933 17.1562 12 17.1562C10.067 17.1562 8.5 15.5892 8.5 13.6562C8.5 11.7233 10.067 10.1562 12 10.1562C13.933 10.1562 15.5 11.7233 15.5 13.6562Z" fill="#4B5468"/>
<path fill-rule="evenodd" clip-rule="evenodd" d="M7.72361 4.70904C7.893 4.37025 8.23926 4.15625 8.61803 4.15625H15.382C15.7607 4.15625 16.107 4.37025 16.2764 4.70904L16.8944 5.9451C16.9282 6.01258 16.954 6.08343 16.9717 6.15625H19C20.6569 6.15625 22 7.4994 22 9.15625V18.1562C22 19.8131 20.6569 21.1562 19 21.1562H5C3.34315 21.1562 2 19.8131 2 18.1562V9.15625C2 7.4994 3.34315 6.15625 5 6.15625H7.02826C7.04595 6.08343 7.07183 6.01258 7.10557 5.9451L7.72361 4.70904ZM17 13.6562C17 16.4177 14.7614 18.6562 12 18.6562C9.23858 18.6562 7 16.4177 7 13.6562C7 10.8948 9.23858 8.65625 12 8.65625C14.7614 8.65625 17 10.8948 17 13.6562Z" fill="#4B5468"/>
</g>
</g>
</svg>
