<svg width="20" height="20" viewBox="0 0 20 20" fill="none" xmlns="http://www.w3.org/2000/svg">
<path fill-rule="evenodd" clip-rule="evenodd" d="M7.08337 0.833008C6.62314 0.833008 6.25004 1.2061 6.25004 1.66634L6.25004 4.99967L5.00004 4.99967C4.07957 4.99967 3.33337 5.74587 3.33337 6.66634L3.33337 8.33301C3.33337 11.7327 5.87811 14.538 9.16671 14.9481V18.333C9.16671 18.7932 9.5398 19.1663 10 19.1663C10.4603 19.1663 10.8334 18.7932 10.8334 18.333V14.9481C14.122 14.538 16.6667 11.7327 16.6667 8.33301V6.66634C16.6667 5.74587 15.9205 4.99967 15 4.99967H13.75V1.66634C13.75 1.2061 13.3769 0.833008 12.9167 0.833008C12.4565 0.833008 12.0834 1.2061 12.0834 1.66634V4.99967L7.91671 4.99967L7.91671 1.66634C7.91671 1.2061 7.54361 0.833008 7.08337 0.833008Z" fill="#354056"/>
</svg>
