<svg width="40" height="40" viewBox="0 0 40 40" fill="none" xmlns="http://www.w3.org/2000/svg">
<path d="M0 8C0 3.58172 3.58172 0 8 0H32C36.4183 0 40 3.58172 40 8V32C40 36.4183 36.4183 40 32 40H8C3.58172 40 0 36.4183 0 32V8Z" fill="#E8EBF0"/>
<path fill-rule="evenodd" clip-rule="evenodd" d="M12 11.5C12 10.6716 12.6716 10 13.5 10H21.5C22.3284 10 23 10.6716 23 11.5V19.25H23.823C24.7895 19.25 25.573 20.0335 25.573 21V26.5C25.573 26.6381 25.6849 26.75 25.823 26.75H26.4676C26.6057 26.75 26.7176 26.6381 26.7176 26.5V16.9802C25.7468 16.843 25 16.0087 25 15V13.3C25 13.1343 25.1344 13 25.3 13H26V11.5C26 11.2239 26.2239 11 26.5 11C26.7762 11 27 11.2239 27 11.5V13H28V11.5C28 11.2239 28.2239 11 28.5 11C28.7762 11 29 11.2239 29 11.5V13H29.7C29.8657 13 30 13.1343 30 13.3V15C30 16.0311 29.2198 16.8799 28.2176 16.9883V26.5C28.2176 27.4665 27.4341 28.25 26.4676 28.25H25.823C24.8565 28.25 24.073 27.4665 24.073 26.5V21C24.073 20.8619 23.9611 20.75 23.823 20.75H23V30H12V11.5ZM14 12H21V18H14V12Z" fill="#4B5468"/>
</svg>
