<svg width="40" height="40" viewBox="0 0 40 40" fill="none" xmlns="http://www.w3.org/2000/svg">
<path d="M0 8C0 3.58172 3.58172 0 8 0H32C36.4183 0 40 3.58172 40 8V32C40 36.4183 36.4183 40 32 40H8C3.58172 40 0 36.4183 0 32V8Z" fill="#E8EBF0"/>
<path d="M23.5 21.6562C23.5 23.5892 21.933 25.1562 20 25.1562C18.067 25.1562 16.5 23.5892 16.5 21.6562C16.5 19.7233 18.067 18.1562 20 18.1562C21.933 18.1562 23.5 19.7233 23.5 21.6562Z" fill="#4B5468"/>
<path fill-rule="evenodd" clip-rule="evenodd" d="M15.7236 12.709C15.893 12.3703 16.2393 12.1562 16.618 12.1562H23.382C23.7607 12.1562 24.107 12.3703 24.2764 12.709L24.8944 13.9451C24.9282 14.0126 24.954 14.0834 24.9717 14.1562H27C28.6569 14.1562 30 15.4994 30 17.1562V26.1562C30 27.8131 28.6569 29.1562 27 29.1562H13C11.3431 29.1562 10 27.8131 10 26.1562V17.1562C10 15.4994 11.3431 14.1562 13 14.1562H15.0283C15.046 14.0834 15.0718 14.0126 15.1056 13.9451L15.7236 12.709ZM25 21.6562C25 24.4177 22.7614 26.6562 20 26.6562C17.2386 26.6562 15 24.4177 15 21.6562C15 18.8948 17.2386 16.6562 20 16.6562C22.7614 16.6562 25 18.8948 25 21.6562Z" fill="#4B5468"/>
</svg>
