<svg width="25" height="24" viewBox="0 0 25 24" fill="none" xmlns="http://www.w3.org/2000/svg">
<path fill-rule="evenodd" clip-rule="evenodd" d="M22.6001 12C22.6001 17.5228 18.1229 22 12.6001 22C7.07725 22 2.6001 17.5228 2.6001 12C2.6001 6.47715 7.07725 2 12.6001 2C18.1229 2 22.6001 6.47715 22.6001 12ZM20.4483 12.0001C20.4483 13.4447 19.2772 14.6158 17.8326 14.6158C16.388 14.6158 15.2169 13.4447 15.2169 12.0001C15.2169 10.5554 16.388 9.38434 17.8326 9.38434C19.2772 9.38434 20.4483 10.5554 20.4483 12.0001ZM7.36844 14.6158C8.81306 14.6158 9.98416 13.4447 9.98416 12.0001C9.98416 10.5554 8.81306 9.38434 7.36844 9.38434C5.92381 9.38434 4.75271 10.5554 4.75271 12.0001C4.75271 13.4447 5.92381 14.6158 7.36844 14.6158ZM14.0144 5.5859C13.8192 5.39064 13.5026 5.39064 13.3073 5.5859L12.6002 6.29301L11.8931 5.5859C11.6978 5.39064 11.3813 5.39064 11.186 5.5859C10.9907 5.78116 10.9907 6.09774 11.186 6.29301L11.8931 7.00011L11.186 7.70722C10.9907 7.90248 10.9907 8.21906 11.186 8.41433C11.3813 8.60959 11.6978 8.60959 11.8931 8.41433L12.6002 7.70722L13.3073 8.41433C13.5026 8.60959 13.8192 8.60959 14.0144 8.41433C14.2097 8.21906 14.2097 7.90248 14.0144 7.70722L13.3073 7.00011L14.0144 6.29301C14.2097 6.09774 14.2097 5.78116 14.0144 5.5859ZM13.3073 15.5859C13.5026 15.3906 13.8192 15.3906 14.0144 15.5859C14.2097 15.7812 14.2097 16.0977 14.0144 16.293L13.3073 17.0001L14.0144 17.7072C14.2097 17.9025 14.2097 18.2191 14.0144 18.4143C13.8192 18.6096 13.5026 18.6096 13.3073 18.4143L12.6002 17.7072L11.8931 18.4143C11.6978 18.6096 11.3813 18.6096 11.186 18.4143C10.9907 18.2191 10.9907 17.9025 11.186 17.7072L11.8931 17.0001L11.186 16.293C10.9907 16.0977 10.9907 15.7812 11.186 15.5859C11.3813 15.3906 11.6978 15.3906 11.8931 15.5859L12.6002 16.293L13.3073 15.5859Z" fill="#697387"/>
</svg>
