<svg width="24" height="24" viewBox="0 0 24 24" fill="none" xmlns="http://www.w3.org/2000/svg">
<g id="common/ic_delete">
<g id="icon">
<path d="M15.142 7.94391H13.642V17.9749H15.142V7.94391Z" fill="#354056"/>
<path d="M20 4.99591H15.809V3.53291C15.809 2.67691 15.116 1.98291 14.26 1.98291H9.72204C8.86604 1.98291 8.17204 2.67691 8.17204 3.53291V4.99591H3.99804V6.49591H20V4.99591ZM9.67104 3.53291C9.67104 3.50591 9.69304 3.48291 9.72104 3.48291H14.259C14.286 3.48291 14.308 3.50491 14.308 3.53291V4.99591H9.67104V3.53291Z" fill="#354056"/>
<path d="M10.359 7.94391H8.85904V17.9749H10.359V7.94391Z" fill="#354056"/>
<path d="M18.539 7.94391V18.7519C18.539 19.7189 17.756 20.5019 16.789 20.5019H7.24304C6.27604 20.5019 5.49304 19.7189 5.49304 18.7519V7.94391H3.99304V18.7519C3.99304 20.5469 5.44804 22.0019 7.24304 22.0019H16.789C18.584 22.0019 20.039 20.5469 20.039 18.7519V7.94391H18.539Z" fill="#354056"/>
</g>
</g>
</svg>
