<svg width="24" height="24" viewBox="0 0 24 24" fill="none" xmlns="http://www.w3.org/2000/svg">
<path fill-rule="evenodd" clip-rule="evenodd" d="M15.6875 15.0891H8.31386C6.406 15.0891 4.85938 16.6361 4.85938 18.5445C4.85938 20.4528 6.406 21.9998 8.31386 21.9998H15.6875C17.5954 21.9998 19.142 20.4528 19.142 18.5445C19.142 16.6361 17.5954 15.0891 15.6875 15.0891ZM15.8495 19.9697C16.6364 19.9697 17.2744 19.3316 17.2744 18.5445C17.2744 17.7574 16.6364 17.1193 15.8495 17.1193C15.0626 17.1193 14.4247 17.7574 14.4247 18.5445C14.4247 19.3316 15.0626 19.9697 15.8495 19.9697ZM9.57569 18.5445C9.57569 19.3316 8.93777 19.9697 8.15086 19.9697C7.36395 19.9697 6.72603 19.3316 6.72603 18.5445C6.72603 17.7574 7.36395 17.1193 8.15086 17.1193C8.93777 17.1193 9.57569 17.7574 9.57569 18.5445Z" fill="#027948"/>
<path fill-rule="evenodd" clip-rule="evenodd" d="M18.142 8.1448C18.142 11.5374 15.3924 14.2876 12.0007 14.2876C8.60893 14.2876 5.85938 11.5374 5.85938 8.1448C5.85938 4.7522 8.60893 2.00195 12.0007 2.00195C15.3924 2.00195 18.142 4.7522 18.142 8.1448ZM9.15233 9.82825C9.15233 10.2218 8.83337 10.5408 8.43992 10.5408C8.04646 10.5408 7.7275 10.2218 7.7275 9.82825C7.7275 9.4347 8.04646 9.11566 8.43992 9.11566C8.83337 9.11566 9.15233 9.4347 9.15233 9.82825ZM15.5633 10.5408C15.9567 10.5408 16.2757 10.2218 16.2757 9.82825C16.2757 9.4347 15.9567 9.11566 15.5633 9.11566C15.1698 9.11566 14.8508 9.4347 14.8508 9.82825C14.8508 10.2218 15.1698 10.5408 15.5633 10.5408ZM10.5772 6.6562C10.5772 7.44331 9.93925 8.08139 9.15233 8.08139C8.36542 8.08139 7.7275 7.44331 7.7275 6.6562C7.7275 5.86909 8.36542 5.23101 9.15233 5.23101C9.93925 5.23101 10.5772 5.86909 10.5772 6.6562ZM14.851 8.08139C15.6379 8.08139 16.2758 7.44331 16.2758 6.6562C16.2758 5.86909 15.6379 5.23101 14.851 5.23101C14.0641 5.23101 13.4262 5.86909 13.4262 6.6562C13.4262 7.44331 14.0641 8.08139 14.851 8.08139ZM13.4265 11.0477C13.4265 11.8348 12.7886 12.4729 12.0017 12.4729C11.2148 12.4729 10.5768 11.8348 10.5768 11.0477C10.5768 10.2606 11.2148 9.6225 12.0017 9.6225C12.7886 9.6225 13.4265 10.2606 13.4265 11.0477Z" fill="#027948"/>
</svg>
