<svg width="24" height="24" viewBox="0 0 24 24" fill="none" xmlns="http://www.w3.org/2000/svg">
<g id="common/ic_edit">
<g id="icon">
<path d="M20.2178 4.13032L19.8378 3.75032C18.6668 2.57932 16.7668 2.57932 15.5948 3.75032L7.15683 12.1883C6.96883 12.3763 6.86483 12.6293 6.86483 12.8953V16.1033C6.86483 16.6563 7.31283 17.1033 7.86483 17.1033H11.0738C11.3388 17.1033 11.5938 16.9983 11.7808 16.8103L20.2188 8.37232C21.3898 7.20132 21.3898 5.30232 20.2178 4.13032ZM10.8658 15.6033H8.36383V13.1023L14.9188 6.54632L17.4208 9.04732L10.8658 15.6033ZM19.1568 7.31232L18.4808 7.98732L15.9788 5.48532L16.6548 4.81032C17.2408 4.22532 18.1908 4.22532 18.7768 4.81032L19.1568 5.19132C19.7428 5.77632 19.7428 6.72632 19.1568 7.31232Z" fill="#354056"/>
<path d="M18.3408 18.1283C18.3408 18.9563 17.6688 19.6283 16.8408 19.6283H5.90283C5.07383 19.6283 4.40283 18.9563 4.40283 18.1283V7.12132C4.40283 6.29232 5.07383 5.62132 5.90283 5.62132H11.9658L13.4658 4.12132H5.90283C4.24583 4.12132 2.90283 5.46432 2.90283 7.12132V18.1283C2.90283 19.7853 4.24583 21.1283 5.90283 21.1283H16.8408C18.4968 21.1283 19.8408 19.7853 19.8408 18.1283V10.4923L18.3408 11.9923V18.1283Z" fill="#354056"/>
</g>
</g>
</svg>
