<svg width="19" height="18" viewBox="0 0 19 18" fill="none" xmlns="http://www.w3.org/2000/svg">
<g id="common/ic_filter_fill">
<g id="icon">
<path fill-rule="evenodd" clip-rule="evenodd" d="M13.7702 5.06251C13.5379 5.71707 12.9121 6.1875 12.1792 6.1875C11.4463 6.1875 10.8206 5.71707 10.5882 5.06251H3.49824V3.93751H10.5882C10.8205 3.28294 11.4463 2.8125 12.1792 2.8125C12.9121 2.8125 13.5379 3.28294 13.7702 3.93751H15.5018V5.06251H13.7702Z" fill="#354056"/>
<path fill-rule="evenodd" clip-rule="evenodd" d="M3.49824 8.43751H4.96322C5.19555 7.78294 5.82132 7.3125 6.55421 7.3125C7.28711 7.3125 7.91287 7.78294 8.1452 8.4375H15.5018V9.5625H8.1452C7.91287 10.2171 7.28711 10.6875 6.55421 10.6875C5.82132 10.6875 5.19556 10.2171 4.96322 9.56251H3.49824V8.43751Z" fill="#354056"/>
<path fill-rule="evenodd" clip-rule="evenodd" d="M8.71322 12.9375H3.49824V14.0625H8.71322C8.94555 14.7171 9.57132 15.1875 10.3042 15.1875C11.0371 15.1875 11.6629 14.7171 11.8952 14.0625H15.5018V12.9375H11.8952C11.6629 12.2829 11.0371 11.8125 10.3042 11.8125C9.57132 11.8125 8.94555 12.2829 8.71322 12.9375Z" fill="#354056"/>
</g>
</g>
</svg>
