<svg width="20" height="20" viewBox="0 0 20 20" fill="none" xmlns="http://www.w3.org/2000/svg">
<path fill-rule="evenodd" clip-rule="evenodd" d="M18.3333 10.0003C18.3333 14.6027 14.6023 18.3337 9.99996 18.3337C5.39759 18.3337 1.66663 14.6027 1.66663 10.0003C1.66663 5.39795 5.39759 1.66699 9.99996 1.66699C14.6023 1.66699 18.3333 5.39795 18.3333 10.0003ZM6.85087 7.32858C6.75604 6.99669 6.41011 6.8045 6.07822 6.89933C5.74632 6.99416 5.55414 7.34009 5.64896 7.67198L5.89754 8.54199H4.99996C4.65478 8.54199 4.37496 8.82181 4.37496 9.16699C4.37496 9.51217 4.65478 9.79199 4.99996 9.79199H6.25468L7.31563 13.5053C7.38947 13.7638 7.62029 13.9461 7.88882 13.958C8.15735 13.9699 8.40343 13.8089 8.49992 13.558L9.99992 9.658L11.4999 13.558C11.5964 13.8089 11.8425 13.9699 12.111 13.958C12.3795 13.9461 12.6104 13.7638 12.6842 13.5053L13.7452 9.79199H15C15.3451 9.79199 15.625 9.51217 15.625 9.16699C15.625 8.82181 15.3451 8.54199 15 8.54199H14.1023L14.3509 7.67198C14.4457 7.34009 14.2535 6.99416 13.9216 6.89933C13.5897 6.8045 13.2438 6.99669 13.149 7.32858L11.9957 11.365L10.5833 7.69259C10.4904 7.45122 10.2585 7.29195 9.99992 7.29195C9.74131 7.29195 9.50941 7.45122 9.41658 7.69259L8.00412 11.365L6.85087 7.32858Z" fill="#354056"/>
</svg>
