<svg width="24" height="24" viewBox="0 0 24 24" fill="none" xmlns="http://www.w3.org/2000/svg">
<g id="common/ic_favorite">
<path id="icon" fill-rule="evenodd" clip-rule="evenodd" d="M14.0278 10.0188L12.0165 3.82861L10.0052 10.0188L3.49641 10.0188L8.7621 13.8446L6.75078 20.0348L12.0165 16.209L17.2822 20.0348L15.2709 13.8446L20.5366 10.0188H14.0278ZM8.91535 8.51881H3.4964C2.04332 8.51881 1.43916 10.3782 2.61473 11.2323L6.99875 14.4175L5.3242 19.5712C4.87517 20.9532 6.45689 22.1024 7.63246 21.2483L12.0165 18.0631L16.4005 21.2483C17.5761 22.1024 19.1578 20.9532 18.7088 19.5712L17.0342 14.4175L21.4182 11.2323C22.5938 10.3782 21.9896 8.51881 20.5366 8.51881H15.1176L13.4431 3.36509C12.994 1.98312 11.0389 1.98312 10.5899 3.36509L8.91535 8.51881Z" fill="#354056"/>
</g>
</svg>
