<svg width="20" height="20" viewBox="0 0 20 20" fill="none" xmlns="http://www.w3.org/2000/svg">
<path d="M7.41564 7.65264H7.77892L7.89117 7.30715L9.28663 3.01238C9.51114 2.32139 10.4887 2.32139 10.7132 3.01238L12.1087 7.30715L12.2209 7.65264H12.5842H17.1C17.8265 7.65264 18.1286 8.58235 17.5408 9.0094L13.8875 11.6637L13.5936 11.8772L13.7058 12.2227L15.1013 16.5175C15.3258 17.2085 14.5349 17.7831 13.9472 17.356L10.2938 14.7017L9.99992 14.4882L9.70603 14.7017L6.05268 17.356C5.46489 17.7831 4.67403 17.2085 4.89855 16.5175L6.294 12.2227L6.40626 11.8772L6.11237 11.6637L2.45902 9.0094C1.87123 8.58235 2.17331 7.65264 2.89986 7.65264H7.41564Z" fill="#32D583" stroke="#03A864"/>
</svg>
