<svg width="24" height="24" viewBox="0 0 24 24" fill="none" xmlns="http://www.w3.org/2000/svg">
<path d="M8.89875 9.08375H9.26202L9.37428 8.73826L11.0488 3.58454C11.3482 2.66323 12.6516 2.66323 12.9509 3.58454L14.6255 8.73826L14.7377 9.08375H15.101H20.52C21.4887 9.08375 21.8915 10.3234 21.1077 10.8928L16.7237 14.0779L16.4298 14.2915L16.5421 14.637L18.2166 19.7907C18.516 20.712 17.4615 21.4781 16.6778 20.9087L12.2938 17.7235L11.9999 17.51L11.706 17.7235L7.32197 20.9087C6.53825 21.4781 5.48377 20.712 5.78313 19.7907L7.45767 14.637L7.56993 14.2915L7.27604 14.0779L2.89202 10.8928C2.1083 10.3234 2.51108 9.08375 3.4798 9.08375H8.89875Z" fill="#32D583" stroke="#03A864"/>
</svg>
