<svg width="40" height="40" viewBox="0 0 40 40" fill="none" xmlns="http://www.w3.org/2000/svg">
<path d="M0 8C0 3.58172 3.58172 0 8 0H32C36.4183 0 40 3.58172 40 8V32C40 36.4183 36.4183 40 32 40H8C3.58172 40 0 36.4183 0 32V8Z" fill="#E8EBF0"/>
<path fill-rule="evenodd" clip-rule="evenodd" d="M28.0281 18.1942C28.0281 20.7886 27.4068 22.1422 25.4844 24.6032C24.762 25.419 22.5098 28.0243 21.1264 29.6268C20.5306 30.317 19.4646 30.321 18.8646 29.6345C17.4677 28.0358 15.1872 25.421 14.4251 24.5175C12.5826 22.1398 11.9717 20.7013 11.9717 18.1942C11.9717 13.7604 15.566 10.166 19.9999 10.166C24.4337 10.166 28.0281 13.7604 28.0281 18.1942ZM22.814 18.2256C22.814 19.781 21.553 21.042 19.9976 21.042C18.4421 21.042 17.1812 19.781 17.1812 18.2256C17.1812 16.6701 18.4421 15.4092 19.9976 15.4092C21.553 15.4092 22.814 16.6701 22.814 18.2256Z" fill="#4B5468"/>
</svg>
