<svg width="25" height="24" viewBox="0 0 25 24" fill="none" xmlns="http://www.w3.org/2000/svg">
<g id="common/ic_history">
<g id="icon">
<path d="M12.875 20.5C17.5694 20.5 21.375 16.6944 21.375 12C21.375 7.30558 17.5694 3.5 12.875 3.5C8.51889 3.5 4.92813 6.77683 4.4332 11H5.50095C6.00695 11 6.30185 11.5881 6.00876 12.0127L4.13281 14.7302C3.88447 15.0899 3.36553 15.0899 3.11719 14.7302L1.24124 12.0127C0.948151 11.5881 1.24305 11 1.74905 11H2.92438C3.4261 5.94668 7.68965 2 12.875 2C18.3978 2 22.875 6.47715 22.875 12C22.875 17.5228 18.3978 22 12.875 22C10.5001 22 8.31861 21.1721 6.6033 19.7893L7.7197 18.7587C9.14968 19.8511 10.9366 20.5 12.875 20.5Z" fill="#4B5468"/>
<path d="M12.625 8V12C12.625 12.1381 12.7369 12.25 12.875 12.25H16.875V13.75H12.875C11.9085 13.75 11.125 12.9665 11.125 12V8H12.625Z" fill="#4B5468"/>
</g>
</g>
</svg>
