<svg width="25" height="24" viewBox="0 0 25 24" fill="none" xmlns="http://www.w3.org/2000/svg">
<path d="M22.764 10.9917L13.428 3.20271C12.891 2.75471 12.111 2.75371 11.573 3.20171L2.20099 10.9917L3.15999 12.1447L4.49599 11.0347V17.9997C4.49599 19.6567 5.83899 20.9997 7.49599 20.9997H17.508C19.165 21.0007 20.508 19.6587 20.508 18.0027V11.0637L21.803 12.1447L22.764 10.9917ZM14.005 19.5997H10.983V13.3707H14.005V19.5997ZM19.108 18.0017C19.108 18.8837 18.393 19.5997 17.507 19.5997H15.404V13.3707C15.404 12.5977 14.777 11.9707 14.004 11.9707H10.982C10.209 11.9707 9.58199 12.5977 9.58199 13.3707V19.5997H7.49599C6.61299 19.5997 5.89599 18.8827 5.89599 17.9987V9.86971L12.5 4.38171L19.109 9.89571L19.108 18.0017Z" fill="#697387"/>
</svg>
