<svg width="20" height="20" viewBox="0 0 20 20" fill="none" xmlns="http://www.w3.org/2000/svg">
<path fill-rule="evenodd" clip-rule="evenodd" d="M10.0001 17.0827C13.9121 17.0827 17.0834 13.9114 17.0834 9.99935C17.0834 6.08733 13.9121 2.91602 10.0001 2.91602C6.08806 2.91602 2.91675 6.08733 2.91675 9.99935C2.91675 13.9114 6.08806 17.0827 10.0001 17.0827ZM10.0001 18.3327C14.6025 18.3327 18.3334 14.6017 18.3334 9.99935C18.3334 5.39698 14.6025 1.66602 10.0001 1.66602C5.39771 1.66602 1.66675 5.39698 1.66675 9.99935C1.66675 14.6017 5.39771 18.3327 10.0001 18.3327Z" fill="#697387"/>
<path fill-rule="evenodd" clip-rule="evenodd" d="M9.37508 14.1657V8.14714H10.6251V14.1657H9.37508Z" fill="#697387"/>
<path fill-rule="evenodd" clip-rule="evenodd" d="M9.37508 7.22116V5.83228H10.6251V7.22116H9.37508Z" fill="#697387"/>
</svg>
