<svg width="48" height="48" viewBox="0 0 48 48" fill="none" xmlns="http://www.w3.org/2000/svg">
<path d="M11.695 44.6055C16.2624 47.333 21.6066 48.4657 26.8878 47.8256C32.169 47.1855 37.0879 44.8089 40.8714 41.0691C44.655 37.3294 47.0888 32.4386 47.7904 27.1652C48.492 21.8918 47.4216 16.5348 44.7475 11.9359C42.0733 7.33702 37.947 3.75694 33.0169 1.75825C28.0868 -0.240439 22.6323 -0.544455 17.5107 0.893975C12.389 2.33241 7.89035 5.43175 4.72171 9.70498C1.55307 13.9782 -0.105984 19.1831 0.0052466 24.5018L4.29442 24.4121C4.20307 20.0442 5.56557 15.7697 8.16779 12.2603C10.77 8.75091 14.4645 6.20559 18.6707 5.02429C22.8768 3.84298 27.3563 4.09265 31.4051 5.73407C35.4539 7.37548 38.8427 10.3156 41.0388 14.0924C43.2349 17.8692 44.1139 22.2687 43.5377 26.5994C42.9615 30.9302 40.9628 34.9467 37.8556 38.018C34.7483 41.0892 30.7088 43.041 26.3716 43.5667C22.0344 44.0924 17.6455 43.1621 13.8946 40.9222L11.695 44.6055Z" fill="#12B76A"/>
</svg>
