<svg width="20" height="20" viewBox="0 0 20 20" fill="none" xmlns="http://www.w3.org/2000/svg">
<path fill-rule="evenodd" clip-rule="evenodd" d="M16.6901 8.36497C16.6901 10.527 16.1724 11.6549 14.5704 13.7058C13.9685 14.3856 12.0916 16.5567 10.9387 17.8922C10.4422 18.4673 9.55389 18.4706 9.05395 17.8985C7.88985 16.5663 5.98945 14.3873 5.35437 13.6344C3.81891 11.6529 3.30981 10.4542 3.30981 8.36497C3.30981 4.67009 6.3051 1.6748 9.99998 1.6748C13.6949 1.6748 16.6901 4.67009 16.6901 8.36497ZM12.3451 8.39111C12.3451 9.68733 11.2943 10.7381 9.99805 10.7381C8.70183 10.7381 7.65104 9.68733 7.65104 8.39111C7.65104 7.0949 8.70183 6.04411 9.99805 6.04411C11.2943 6.04411 12.3451 7.0949 12.3451 8.39111Z" fill="#354056"/>
</svg>
