<svg width="20" height="20" viewBox="0 0 20 20" fill="none" xmlns="http://www.w3.org/2000/svg">
<path d="M4.87292 18.5856C6.77601 19.7221 9.00276 20.1941 11.2033 19.9273C13.4038 19.6606 15.4533 18.6704 17.0298 17.1121C18.6062 15.5539 19.6203 13.5161 19.9127 11.3188C20.205 9.1216 19.759 6.8895 18.6448 4.9733C17.5306 3.05709 15.8113 1.56539 13.757 0.732605C11.7028 -0.100183 9.43014 -0.226856 7.29611 0.37249C5.16207 0.971836 3.28764 2.26323 1.96738 4.04374C0.647113 5.82426 -0.04416 7.99297 0.00218608 10.2091L1.78934 10.1717C1.75128 8.35173 2.31899 6.57069 3.40325 5.10845C4.48751 3.64621 6.02687 2.58566 7.77944 2.09345C9.53201 1.60124 11.3984 1.70527 13.0855 2.3892C14.7725 3.07312 16.1844 4.29817 17.0995 5.87184C18.0145 7.44552 18.3808 9.27862 18.1407 11.0831C17.9006 12.8876 17.0678 14.5611 15.7732 15.8408C14.4785 17.1205 12.7953 17.9337 10.9882 18.1528C9.18102 18.3718 7.35231 17.9842 5.78941 17.0509L4.87292 18.5856Z" fill="white"/>
</svg>
