<svg width="40" height="41" viewBox="0 0 40 41" fill="none" xmlns="http://www.w3.org/2000/svg">
<g filter="url(#filter0_d_465_15392)">
<path d="M28.4714 19.9175C28.8136 18.9763 29 17.9616 29 16.9039C29 11.9864 24.9706 8 20 8C15.0294 8 11 11.9864 11 16.9039C11 17.9616 11.1864 18.9763 11.5286 19.9175C12.2301 21.9582 13.9816 24.2983 15.8273 26.7644C16.979 28.3031 18.1674 29.8908 19.1604 31.4855C19.1604 31.4855 19.4718 32 20.0023 32C20.5327 32 20.8442 31.4855 20.8442 31.4855C21.8305 29.9052 22.9945 28.3429 24.1264 26.8237C25.7999 24.5774 27.4033 22.4253 28.2587 20.4482C28.3351 20.2742 28.4062 20.097 28.4714 19.9175Z" fill="#9DA3B2"/>
<path d="M28.9413 20.0883L28.9413 20.0883C28.8725 20.2776 28.7976 20.4645 28.7171 20.648C28.7169 20.6484 28.7167 20.6488 28.7165 20.6492L28.2587 20.4482C27.4033 22.4253 25.7999 24.5774 24.1264 26.8237L24.1264 26.8237C22.9945 28.3429 21.8305 29.9052 20.8442 31.4855L28.9413 20.0883ZM28.9413 20.0883C29.3031 19.0932 29.5 18.0208 29.5 16.9039C29.5 11.7052 25.2416 7.5 20 7.5C14.7584 7.5 10.5 11.7052 10.5 16.9039C10.5 18.0192 10.6964 19.0902 11.0572 20.0842C11.7852 22.1984 13.5728 24.5866 15.3833 27.0055L15.4271 27.064C16.5813 28.6061 17.7563 30.1765 18.7359 31.7498L18.7367 31.7511L18.7428 31.7608C18.7476 31.7682 18.7537 31.7775 18.7612 31.7885C18.7761 31.8105 18.7966 31.8393 18.8226 31.8728C18.874 31.939 18.9499 32.0269 19.0496 32.1159C19.2442 32.2895 19.5685 32.5 20.0023 32.5C20.4361 32.5 20.7604 32.2895 20.955 32.1159C21.0547 32.0269 21.1306 31.939 21.182 31.8728C21.208 31.8393 21.2285 31.8105 21.2434 31.7885C21.2509 31.7775 21.257 31.7682 21.2618 31.7608L21.2679 31.7511L21.2684 31.7503C21.2685 31.75 21.2687 31.7497 21.2689 31.7494L28.9413 20.0883Z" stroke="white"/>
</g>
<circle cx="20" cy="17" r="3.5" fill="#F5F6FA"/>
<defs>
<filter id="filter0_d_465_15392" x="4" y="3" width="32" height="38" filterUnits="userSpaceOnUse" color-interpolation-filters="sRGB">
<feFlood flood-opacity="0" result="BackgroundImageFix"/>
<feColorMatrix in="SourceAlpha" type="matrix" values="0 0 0 0 0 0 0 0 0 0 0 0 0 0 0 0 0 0 127 0" result="hardAlpha"/>
<feOffset dy="2"/>
<feGaussianBlur stdDeviation="3"/>
<feComposite in2="hardAlpha" operator="out"/>
<feColorMatrix type="matrix" values="0 0 0 0 0 0 0 0 0 0 0 0 0 0 0 0 0 0 0.25 0"/>
<feBlend mode="normal" in2="BackgroundImageFix" result="effect1_dropShadow_465_15392"/>
<feBlend mode="normal" in="SourceGraphic" in2="effect1_dropShadow_465_15392" result="shape"/>
</filter>
</defs>
</svg>
