<svg width="24" height="24" viewBox="0 0 24 24" fill="none" xmlns="http://www.w3.org/2000/svg">
<path d="M13.0013 12.0088C13.0013 12.5638 12.5514 13.0137 11.9965 13.0137C11.4415 13.0137 10.9916 12.5638 10.9916 12.0088C10.9916 11.4538 11.4415 11.0039 11.9965 11.0039C12.5514 11.0039 13.0013 11.4538 13.0013 12.0088Z" fill="#4B5468"/>
<path d="M13.0116 7.00879C13.0116 7.56377 12.5617 8.01367 12.0067 8.01367C11.4517 8.01367 11.0018 7.56377 11.0018 7.00879C11.0018 6.45381 11.4517 6.00391 12.0067 6.00391C12.5617 6.00391 13.0116 6.45381 13.0116 7.00879Z" fill="#4B5468"/>
<path d="M13.0049 17.0088C13.0049 17.5638 12.555 18.0137 12 18.0137C11.445 18.0137 10.9951 17.5638 10.9951 17.0088C10.9951 16.4538 11.445 16.0039 12 16.0039C12.555 16.0039 13.0049 16.4538 13.0049 17.0088Z" fill="#4B5468"/>
</svg>
