<svg width="40" height="40" viewBox="0 0 40 40" fill="none" xmlns="http://www.w3.org/2000/svg">
<path d="M0 8C0 3.58172 3.58172 0 8 0H32C36.4183 0 40 3.58172 40 8V32C40 36.4183 36.4183 40 32 40H8C3.58172 40 0 36.4183 0 32V8Z" fill="#E8EBF0"/>
<path d="M13.0694 17.3053C13.0694 13.467 16.167 10.3555 19.9882 10.3555C23.8094 10.3555 26.907 13.467 26.907 17.3053V21.4193L28.1242 23.4331C28.7284 24.4328 28.0086 25.6055 26.8405 25.6055H13.1468C11.9814 25.6055 11.2611 24.438 11.86 23.4382L13.0694 21.4193V17.3053Z" fill="#4B5468"/>
<path d="M20.0002 29.8555C21.9017 29.8555 23.4727 28.4401 23.7171 26.6055H16.2832C16.5276 28.4401 18.0986 29.8555 20.0002 29.8555Z" fill="#4B5468"/>
</svg>
