<svg width="25" height="24" viewBox="0 0 25 24" fill="none" xmlns="http://www.w3.org/2000/svg">
<path d="M9.02487 8.51884C9.02487 9.30784 8.36787 9.94784 7.55587 9.94784C6.74487 9.94784 6.08687 9.30784 6.08687 8.51884C6.08687 7.72984 6.74487 7.08984 7.55587 7.08984C8.36687 7.08984 9.02487 7.72984 9.02487 8.51884Z" fill="#697387"/>
<path d="M19.519 8.51884C19.519 9.30784 18.861 9.94784 18.05 9.94784C17.239 9.94784 16.581 9.30784 16.581 8.51884C16.581 7.72984 17.239 7.08984 18.05 7.08984C18.861 7.08984 19.519 7.72984 19.519 8.51884Z" fill="#697387"/>
<path d="M22.7978 8.52221C22.7978 8.54121 22.7978 8.50221 22.7978 8.52221C22.7978 5.97021 20.6708 3.90122 18.0478 3.90122C17.9618 3.90022 17.8838 3.89622 17.7998 3.90022H7.79976C7.71576 3.89622 7.63776 3.90022 7.55376 3.90022C4.93076 3.90022 2.80376 5.96922 2.80376 8.52122L2.80095 9.10022C2.79495 9.12522 2.80576 9.07422 2.79976 9.10022V12.4882C3.67876 16.8282 7.61276 20.1002 12.3308 20.1002H13.2698C17.9868 20.1002 21.9198 16.8282 22.7988 12.4882V9.10122C22.8048 9.12222 22.7948 9.08022 22.7988 9.10122L22.7978 8.52221ZM18.0478 5.84622C19.5658 5.84622 20.7978 7.04422 20.7978 8.52122C20.7978 9.99822 19.5678 11.1962 18.0478 11.1962C16.5278 11.1962 15.2978 9.99822 15.2978 8.52122C15.2978 7.04422 16.5288 5.84622 18.0478 5.84622ZM4.81176 8.60522C4.81176 8.57722 4.80376 8.55022 4.80376 8.52122C4.80376 7.04322 6.03376 5.84622 7.55376 5.84622C7.72376 5.84622 7.88776 5.86622 8.04976 5.89522C8.04976 5.89522 8.04976 5.89522 8.05176 5.89522C9.33076 6.12322 10.3038 7.21022 10.3038 8.52122C10.3038 9.99922 9.07176 11.1962 7.55376 11.1962C6.06376 11.1962 4.85876 10.0432 4.81176 8.60522ZM12.7508 17.9892C11.8838 17.9892 11.1808 17.3052 11.1808 16.4632C11.1808 15.6192 11.8838 14.9362 12.7508 14.9362C13.6158 14.9362 14.3188 15.6202 14.3188 16.4632C14.3198 17.3052 13.6158 17.9892 12.7508 17.9892ZM18.5748 16.0972C17.3308 14.1382 15.1798 12.8452 12.7388 12.8452C10.3268 12.8452 8.19976 14.1072 6.94776 16.0262C5.89376 15.0272 5.13176 13.7362 4.79976 12.2872V12.2752C5.57876 12.8162 6.52476 13.1422 7.55376 13.1422C10.1768 13.1422 12.3038 11.0732 12.3038 8.52122C12.3038 7.52122 11.9698 6.60222 11.4148 5.84622H14.1858C13.6308 6.60222 13.2968 7.52122 13.2968 8.52122C13.2968 11.0732 15.4238 13.1422 18.0468 13.1422C19.0758 13.1422 20.0218 12.8162 20.7988 12.2752V12.2872C20.4618 13.7692 19.6708 15.0882 18.5748 16.0972Z" fill="#697387"/>
</svg>
