<svg width="24" height="24" viewBox="0 0 24 24" fill="none" xmlns="http://www.w3.org/2000/svg">
<path fill-rule="evenodd" clip-rule="evenodd" d="M20.1271 15.8249L18.9071 13.8149V9.70488C18.9071 5.86488 15.8071 2.75488 11.9871 2.75488C8.16707 2.75488 5.06707 5.85488 5.06707 9.69488V13.8049L3.86707 15.8249C3.26707 16.8249 3.98707 18.0949 5.15707 18.0949H8.31707C8.60707 19.8749 10.1371 21.2449 12.0071 21.2449C13.8771 21.2449 15.4071 19.8849 15.6971 18.0949H18.8471C20.0171 18.0949 20.7371 16.8149 20.1271 15.8149V15.8249ZM12.0071 19.7449C10.9771 19.7449 10.1171 19.0449 9.84707 18.0949H14.1671C13.8971 19.0449 13.0371 19.7449 12.0071 19.7449ZM5.15707 16.5949L6.57707 14.2249V9.69488C6.57707 6.67488 9.00707 4.24488 11.9971 4.24488C14.9871 4.24488 17.4171 6.67488 17.4171 9.69488V14.2249L18.8471 16.5949H5.14707H5.15707Z" fill="#354056"/>
</svg>
