<svg width="24" height="24" viewBox="0 0 24 24" fill="none" xmlns="http://www.w3.org/2000/svg">
<g id="common/ic_password">
<path id="icon" fill-rule="evenodd" clip-rule="evenodd" d="M12 2.25C9.65279 2.25 7.75 4.15279 7.75 6.5V10H7C5.34315 10 4 11.3431 4 13V18C4 19.6569 5.34315 21 7 21H17C18.6569 21 20 19.6569 20 18V13C20 11.3431 18.6569 10 17 10H9.25V6.5C9.25 4.98122 10.4812 3.75 12 3.75C13.5188 3.75 14.75 4.98122 14.75 6.5V8H16.25V6.5C16.25 4.15279 14.3472 2.25 12 2.25ZM5.5 13C5.5 12.1716 6.17157 11.5 7 11.5H17C17.8284 11.5 18.5 12.1716 18.5 13V18C18.5 18.8284 17.8284 19.5 17 19.5H7C6.17157 19.5 5.5 18.8284 5.5 18V13Z" fill="#354056"/>
</g>
</svg>
