<svg width="24" height="24" viewBox="0 0 24 24" fill="none" xmlns="http://www.w3.org/2000/svg">
<g id="user/ic_profile">
<g id="icon">
<path fill-rule="evenodd" clip-rule="evenodd" d="M4 20.0502C4 16.1566 7.15641 13.0002 11.05 13.0002L12.95 13.0003C16.8436 13.0003 20 16.1567 20 20.0503V21.5002H18.5V20.0503C18.5 16.9851 16.0152 14.5003 12.95 14.5003L11.05 14.5002C7.98483 14.5002 5.5 16.9851 5.5 20.0502V21.5002H4V20.0502Z" fill="#354056"/>
<path fill-rule="evenodd" clip-rule="evenodd" d="M12 4C10.2051 4 8.75 5.45507 8.75 7.25C8.75 9.04493 10.2051 10.5 12 10.5C13.7949 10.5 15.25 9.04493 15.25 7.25C15.25 5.45507 13.7949 4 12 4ZM7.25 7.25C7.25 4.62665 9.37665 2.5 12 2.5C14.6234 2.5 16.75 4.62665 16.75 7.25C16.75 9.87335 14.6234 12 12 12C9.37665 12 7.25 9.87335 7.25 7.25Z" fill="#354056"/>
</g>
</g>
</svg>
