<svg width="20" height="20" viewBox="0 0 20 20" fill="none" xmlns="http://www.w3.org/2000/svg">
<g id="common/ic_question">
<path id="icon" fill-rule="evenodd" clip-rule="evenodd" d="M13.2547 15.6927C12.3067 16.3107 11.1923 16.6668 10 16.6668C6.54822 16.6668 3.75 13.6821 3.75 10.0002C3.75 6.31826 6.54822 3.3335 10 3.3335C13.4518 3.3335 16.25 6.31826 16.25 10.0002C16.25 11.9424 15.4714 13.6906 14.2289 14.9091L15.4215 16.3303L14.4639 17.1338L13.2547 15.6927ZM12.442 14.7242C11.7126 15.1671 10.8761 15.4168 10 15.4168C7.31334 15.4168 5 13.0689 5 10.0002C5 6.9314 7.31334 4.5835 10 4.5835C12.6867 4.5835 15 6.9314 15 10.0002C15 11.5817 14.3856 12.9718 13.4222 13.9477L12.2076 12.5001L11.25 13.3036L12.442 14.7242Z" fill="#354056"/>
</g>
</svg>
