<svg width="16" height="16" viewBox="0 0 16 16" fill="none" xmlns="http://www.w3.org/2000/svg">
<g id="common/ic_refresh">
<path id="icon" fill-rule="evenodd" clip-rule="evenodd" d="M13.6661 2.44634V4.48634C12.4922 2.59301 10.3912 1.33301 8.00332 1.33301C4.32147 1.33301 1.33331 4.31967 1.33331 7.99967C1.33331 11.6797 4.32147 14.6663 8.00332 14.6663C10.618 14.6663 12.8791 13.1663 13.973 10.9797L13.2193 10.2263C12.3522 12.253 10.3445 13.6663 8.00332 13.6663C4.87508 13.6663 2.33381 11.1263 2.33381 7.99967C2.33381 4.87301 4.86841 2.33301 8.00332 2.33301C10.091 2.33301 11.9053 3.46634 12.8858 5.14634H10.9648V6.14634H13.6661C14.2198 6.14634 14.6666 5.69967 14.6666 5.14634V2.44634H13.6661Z" fill="#4B5468"/>
</g>
</svg>
