<svg width="24" height="24" viewBox="0 0 24 24" fill="none" xmlns="http://www.w3.org/2000/svg">
<g id="EV/ic_route">
<g id="icon">
<path d="M12.2777 9.06066L13.4974 10.2804H11.25C9.73122 10.2804 8.5 11.5116 8.5 13.0304V16.0304H10V13.0304C10 12.34 10.5596 11.7804 11.25 11.7804H13.6133L12.2777 13.116L13.3383 14.1767L15.8964 11.6187C16.1892 11.3258 16.1892 10.8509 15.8964 10.558L13.3383 8L12.2777 9.06066Z" fill="#354056"/>
<path fill-rule="evenodd" clip-rule="evenodd" d="M22 12C22 17.5228 17.5228 22 12 22C6.47715 22 2 17.5228 2 12C2 6.47715 6.47715 2 12 2C17.5228 2 22 6.47715 22 12ZM20.5 12C20.5 16.6944 16.6944 20.5 12 20.5C7.30558 20.5 3.5 16.6944 3.5 12C3.5 7.30558 7.30558 3.5 12 3.5C16.6944 3.5 20.5 7.30558 20.5 12Z" fill="#354056"/>
</g>
</g>
</svg>
