<svg width="24" height="24" viewBox="0 0 24 24" fill="none" xmlns="http://www.w3.org/2000/svg">
<g id="EV/ic_route_fill">
<path id="icon" fill-rule="evenodd" clip-rule="evenodd" d="M12 22C17.5228 22 22 17.5228 22 12C22 6.47715 17.5228 2 12 2C6.47715 2 2 6.47715 2 12C2 17.5228 6.47715 22 12 22ZM12.2777 9.06066L13.4974 10.2804H11.25C9.73122 10.2804 8.5 11.5116 8.5 13.0304V16.0304H10V13.0304C10 12.34 10.5596 11.7804 11.25 11.7804H13.6133L12.2777 13.116L13.3383 14.1767L15.8964 11.6187C16.1892 11.3258 16.1892 10.8509 15.8964 10.558L13.3383 8L12.2777 9.06066Z" fill="#697387"/>
</g>
</svg>
