<svg width="25" height="24" viewBox="0 0 25 24" fill="none" xmlns="http://www.w3.org/2000/svg">
<g id="common/ic_search">
<path id="icon" fill-rule="evenodd" clip-rule="evenodd" d="M17.68 16.1303L22.56 21.0103V21.0203L21.5 22.0803L16.62 17.2003C15.24 18.3603 13.46 19.0503 11.52 19.0503C7.11003 19.0503 3.53003 15.4703 3.53003 11.0603C3.53003 6.65031 7.11003 3.07031 11.52 3.07031C15.93 3.07031 19.5 6.65031 19.5 11.0503C19.5 12.9803 18.82 14.7503 17.68 16.1303ZM11.52 4.57031C7.93003 4.57031 5.03003 7.47031 5.03003 11.0603C5.03003 14.6403 7.93003 17.5503 11.52 17.5503C15.11 17.5503 18.01 14.6503 18.01 11.0603C18.01 7.47031 15.11 4.57031 11.52 4.57031Z" fill="#697387"/>
</g>
</svg>
