<svg width="25" height="24" viewBox="0 0 25 24" fill="none" xmlns="http://www.w3.org/2000/svg">
<path fill-rule="evenodd" clip-rule="evenodd" d="M22.3999 12C22.3999 17.5228 17.9227 22 12.3999 22C6.87706 22 2.3999 17.5228 2.3999 12C2.3999 6.47715 6.87706 2 12.3999 2C17.9227 2 22.3999 6.47715 22.3999 12ZM10.6148 8.21655C10.6148 9.41937 9.63969 10.3944 8.43687 10.3944C7.23405 10.3944 6.25897 9.41937 6.25897 8.21655C6.25897 7.01373 7.23405 6.03865 8.43687 6.03865C9.63969 6.03865 10.6148 7.01373 10.6148 8.21655ZM7.30626 15.1682C8.11837 15.1682 8.77672 14.5098 8.77672 13.6977C8.77672 12.8856 8.11837 12.2272 7.30626 12.2272C6.49415 12.2272 5.8358 12.8856 5.8358 13.6977C5.8358 14.5098 6.49415 15.1682 7.30626 15.1682ZM18.9628 13.6977C18.9628 14.5098 18.3044 15.1682 17.4923 15.1682C16.6802 15.1682 16.0218 14.5098 16.0218 13.6977C16.0218 12.8856 16.6802 12.2272 17.4923 12.2272C18.3044 12.2272 18.9628 12.8856 18.9628 13.6977ZM16.3628 10.3944C17.5657 10.3944 18.5407 9.41937 18.5407 8.21655C18.5407 7.01373 17.5657 6.03865 16.3628 6.03865C15.16 6.03865 14.1849 7.01373 14.1849 8.21655C14.1849 9.41937 15.16 10.3944 16.3628 10.3944ZM14.5768 17.2548C14.5768 18.4576 13.6017 19.4327 12.3989 19.4327C11.1961 19.4327 10.221 18.4576 10.221 17.2548C10.221 16.052 11.1961 15.0769 12.3989 15.0769C13.6017 15.0769 14.5768 16.052 14.5768 17.2548Z" fill="#027948"/>
</svg>
