<svg width="40" height="40" viewBox="0 0 40 40" fill="none" xmlns="http://www.w3.org/2000/svg">
<path d="M0 8C0 3.58172 3.58172 0 8 0H32C36.4183 0 40 3.58172 40 8V32C40 36.4183 36.4183 40 32 40H8C3.58172 40 0 36.4183 0 32V8Z" fill="#D1FADF"/>
<path d="M24 23.5V22H16V23.5H24Z" fill="#12B76A"/>
<path d="M22 24.5H16V26H22V24.5Z" fill="#12B76A"/>
<path fill-rule="evenodd" clip-rule="evenodd" d="M11 12.5C11 11.6716 11.6716 11 12.5 11H24.3787C24.7765 11 25.1581 11.158 25.4393 11.4395L28.5607 14.5605C28.8419 14.842 29 15.2234 29 15.6213V27.5C29 28.3284 28.3284 29 27.5 29H12.5C11.6716 29 11 28.3284 11 27.5V12.5ZM24 12H16V16C16.5 16 16.6716 16 17.5 16H22.5C23.3284 16 23 16 24 16V12ZM15.5 20C14.6716 20 15 20 14 20V28H26V20C25.4393 20 25.3284 20 24.5 20H15.5Z" fill="#12B76A"/>
</svg>
