<svg width="25" height="24" viewBox="0 0 25 24" fill="none" xmlns="http://www.w3.org/2000/svg">
<g id="common/ic_settings">
<g id="icon">
<path fill-rule="evenodd" clip-rule="evenodd" d="M9.51117 2.67146C9.55136 2.28976 9.87323 2 10.257 2H14.9915C15.3749 2 15.6967 2.28926 15.7373 2.67057L15.9733 4.88705C16.3716 5.07509 16.7522 5.29567 17.1124 5.54625L19.1477 4.63956C19.4984 4.48333 19.9104 4.61716 20.1024 4.94964L22.4696 9.04957C22.6616 9.38198 22.5715 9.80565 22.261 10.0313L20.4586 11.3411C20.481 11.5691 20.4927 11.7862 20.4927 12.0008C20.4927 12.2132 20.4809 12.4292 20.4584 12.6572L22.261 13.9672C22.5716 14.1929 22.6616 14.6167 22.4695 14.9491L20.1008 19.049C19.9089 19.3811 19.4975 19.5149 19.147 19.3593L17.1103 18.4551C16.7512 18.7049 16.3696 18.9252 15.9691 19.1135L15.7358 21.3256C15.6956 21.7071 15.374 21.9967 14.9904 21.997L10.2575 22C9.87358 22.0002 9.55145 21.7105 9.51118 21.3287L9.27777 19.1157C8.87846 18.9273 8.4976 18.7067 8.1377 18.4566L6.10368 19.362C5.75309 19.5181 5.34125 19.3843 5.14927 19.0521L2.78053 14.9521C2.58847 14.6197 2.67846 14.1959 2.98904 13.9702L4.79318 12.6592C4.77221 12.4331 4.76193 12.2181 4.76193 12.0038C4.76193 11.7883 4.77215 11.5723 4.79308 11.3464L2.98848 10.0324C2.67832 9.80659 2.5886 9.38311 2.78053 9.05091L5.14927 4.95098C5.34129 4.61863 5.75326 4.48489 6.10388 4.64109L8.13874 5.5476C8.49977 5.29599 8.88036 5.07524 9.27778 4.88801L9.51117 2.67146ZM10.9322 3.5L10.6764 5.92929L10.2565 6.09728C9.6991 6.32022 9.1754 6.62401 8.69638 7.00039L8.34084 7.27974L6.11029 6.28606L4.41692 9.217L6.39648 10.6583L6.33206 11.1056C6.28297 11.4464 6.26193 11.7306 6.26193 12.0038C6.26193 12.2736 6.2829 12.5564 6.33218 12.9014L6.39607 13.3486L4.41724 14.7866L6.11038 17.7172L8.33889 16.7252L8.69418 17.0037C9.16844 17.3754 9.69291 17.68 10.2585 17.9081L10.6765 18.0767L10.9321 20.4996L14.3149 20.4974L14.5706 18.0728L14.9897 17.9046C15.5584 17.6763 16.0833 17.372 16.5514 17.0033L16.9066 16.7234L19.1393 17.7147L20.8328 14.7835L18.8535 13.3452L18.918 12.8975C18.9695 12.5395 18.9927 12.2566 18.9927 12.0008C18.9927 11.7399 18.9694 11.4555 18.9181 11.1018L18.8531 10.6536L20.833 9.21482L19.1411 6.28461L16.9111 7.27806L16.5556 6.99921C16.0798 6.62589 15.5554 6.32151 14.9934 6.09505L14.5756 5.92672L14.3171 3.5H10.9322Z" fill="#4B5468"/>
<path fill-rule="evenodd" clip-rule="evenodd" d="M12.625 10.0093C11.5255 10.0093 10.6342 10.9006 10.6342 12.0001C10.6342 13.0996 11.5255 13.9909 12.625 13.9909C13.7245 13.9909 14.6158 13.0996 14.6158 12.0001C14.6158 10.9006 13.7245 10.0093 12.625 10.0093ZM9.13423 12.0001C9.13423 10.0722 10.6971 8.50928 12.625 8.50928C14.5529 8.50928 16.1158 10.0722 16.1158 12.0001C16.1158 13.928 14.5529 15.4909 12.625 15.4909C10.6971 15.4909 9.13423 13.928 9.13423 12.0001Z" fill="#4B5468"/>
</g>
</g>
</svg>
