<svg width="24" height="24" viewBox="0 0 24 24" fill="none" xmlns="http://www.w3.org/2000/svg">
<g id="common/ic_settings_fill">
<path id="icon" fill-rule="evenodd" clip-rule="evenodd" d="M9.6321 2C9.24829 2 8.92642 2.28976 8.88623 2.67146L8.65284 4.88801C8.25542 5.07524 7.87483 5.29599 7.51381 5.5476L5.47894 4.64109C5.12832 4.48489 4.71636 4.61863 4.52433 4.95098L2.15559 9.05091C1.96366 9.38311 2.05338 9.80659 2.36354 10.0324L4.16814 11.3464C4.14721 11.5723 4.13699 11.7883 4.13699 12.0038C4.13699 12.2181 4.14727 12.4331 4.16824 12.6592L2.3641 13.9702C2.05352 14.1959 1.96353 14.6197 2.15559 14.9521L4.52433 19.0521C4.71631 19.3843 5.12815 19.5181 5.47874 19.362L7.51276 18.4566C7.87266 18.7067 8.25353 18.9273 8.65283 19.1157L8.88624 21.3287C8.92652 21.7105 9.24864 22.0002 9.63259 22L14.3655 21.997C14.7491 21.9967 15.0706 21.7071 15.1109 21.3256L15.3442 19.1135C15.7447 18.9252 16.1263 18.7049 16.4854 18.4551L18.5221 19.3593C18.8726 19.5149 19.284 19.3811 19.4758 19.049L21.8446 14.9491C22.0366 14.6167 21.9467 14.1929 21.6361 13.9672L19.8335 12.6572C19.8559 12.4292 19.8678 12.2132 19.8678 12.0008C19.8678 11.7862 19.856 11.5691 19.8336 11.3411L21.6361 10.0313C21.9466 9.80565 22.0366 9.38198 21.8447 9.04957L19.4775 4.94964C19.2855 4.61716 18.8734 4.48333 18.5228 4.63956L16.4875 5.54625C16.1273 5.29567 15.7466 5.07509 15.3484 4.88705L15.1123 2.67057C15.0717 2.28926 14.75 2 14.3665 2H9.6321ZM10.0093 12.0001C10.0093 10.9006 10.9006 10.0093 12.0001 10.0093C13.0996 10.0093 13.9909 10.9006 13.9909 12.0001C13.9909 13.0996 13.0996 13.9909 12.0001 13.9909C10.9006 13.9909 10.0093 13.0996 10.0093 12.0001Z" fill="#354056"/>
</g>
</svg>
