<svg width="21" height="20" viewBox="0 0 21 20" fill="none" xmlns="http://www.w3.org/2000/svg">
<g id="common/ic_time">
<g id="icon">
<path fill-rule="evenodd" clip-rule="evenodd" d="M10.5 17.0837C14.412 17.0837 17.5833 13.9123 17.5833 10.0003C17.5833 6.08831 14.412 2.91699 10.5 2.91699C6.58794 2.91699 3.41663 6.08831 3.41663 10.0003C3.41663 13.9123 6.58794 17.0837 10.5 17.0837ZM10.5 18.3337C15.1023 18.3337 18.8333 14.6027 18.8333 10.0003C18.8333 5.39795 15.1023 1.66699 10.5 1.66699C5.89759 1.66699 2.16663 5.39795 2.16663 10.0003C2.16663 14.6027 5.89759 18.3337 10.5 18.3337Z" fill="#697387"/>
<path fill-rule="evenodd" clip-rule="evenodd" d="M10.9888 9.4674V4.49388H9.82209V9.4674C9.82209 10.1117 10.3444 10.6341 10.9888 10.6341H15.3978V9.4674L10.9888 9.4674Z" fill="#697387"/>
</g>
</g>
</svg>
