<svg width="16" height="16" viewBox="0 0 16 16" fill="none" xmlns="http://www.w3.org/2000/svg">
<g id="common/ic_time">
<g id="icon">
<path fill-rule="evenodd" clip-rule="evenodd" d="M8.00004 13.6663C11.1297 13.6663 13.6667 11.1293 13.6667 7.99967C13.6667 4.87006 11.1297 2.33301 8.00004 2.33301C4.87043 2.33301 2.33337 4.87006 2.33337 7.99967C2.33337 11.1293 4.87043 13.6663 8.00004 13.6663ZM8.00004 14.6663C11.6819 14.6663 14.6667 11.6816 14.6667 7.99967C14.6667 4.31778 11.6819 1.33301 8.00004 1.33301C4.31814 1.33301 1.33337 4.31778 1.33337 7.99967C1.33337 11.6816 4.31814 14.6663 8.00004 14.6663Z" fill="#BEC2CB"/>
<path fill-rule="evenodd" clip-rule="evenodd" d="M8.39108 7.57333V3.59452H7.45775V7.57333C7.45775 8.08879 7.87562 8.50666 8.39108 8.50666H11.9184V7.57333L8.39108 7.57333Z" fill="#BEC2CB"/>
</g>
</g>
</svg>
