<svg width="81" height="80" viewBox="0 0 81 80" fill="none" xmlns="http://www.w3.org/2000/svg">
<g id="img_alarm_null">
<path id="Union" fill-rule="evenodd" clip-rule="evenodd" d="M21.066 20.8932L12.9795 12.8358L16.0337 10.2329L23.6704 17.8422L26.5121 20.6737L56.0962 50.1515L64.1982 58.2244L70.0201 64.0254L66.9659 66.6283L60.0803 59.7674H50.5252C49.5015 65.5003 44.281 69.7674 38.1373 69.7674C31.9937 69.7674 26.7731 65.5003 25.7495 59.7674H15.0288C13.4684 59.7674 12.5024 58.077 13.301 56.7439L17.1223 50.3641V33.3909C17.1223 28.7268 18.5827 24.4174 21.066 20.8932ZM23.9614 23.7783C22.1814 26.5343 21.1445 29.8312 21.1445 33.3909V51.4652L18.5676 55.7674H56.0658L23.9614 23.7783ZM29.8743 59.7674C30.8331 63.1785 34.1143 65.7674 38.1373 65.7674C42.1604 65.7674 45.4415 63.1785 46.4003 59.7674H29.8743ZM29.5582 18.3144L26.652 15.4187C30.0745 13.1109 34.1926 11.7671 38.6203 11.7671C50.4799 11.7671 60.1183 21.4084 60.1183 33.3906V48.7648L56.0961 44.757V33.3906C56.0961 23.581 48.2219 15.7671 38.6203 15.7671C35.3103 15.7671 32.2057 16.6957 29.5582 18.3144Z" fill="#BEC2CB"/>
</g>
</svg>
