<svg width="48" height="48" viewBox="0 0 48 48" fill="none" xmlns="http://www.w3.org/2000/svg">
<rect y="8" width="48" height="32" rx="4" fill="url(#paint0_linear_1742_9539)"/>
<rect opacity="0.3" y="13" width="48" height="4" fill="white"/>
<path d="M17.8383 29.5725C16.7327 29.5725 16.1211 28.7433 16.1211 27.7024C16.1211 26.6614 16.7621 25.8264 17.9089 25.8264C19.0557 25.8264 19.6967 26.5968 19.6967 27.7377V28.114H16.9856C17.0444 28.5845 17.4149 28.8785 17.8618 28.8785H19.4615L19.1086 29.5784H17.8383V29.5725ZM18.8381 27.4142C18.791 26.8438 18.4852 26.5262 17.9089 26.5262C17.362 26.5262 16.9856 26.9084 16.9679 27.4142H18.8381Z" fill="white"/>
<path d="M22.343 28.1317H20.1553L20.5316 27.4142H22.7017L22.3371 28.1317H22.343Z" fill="white"/>
<path d="M25.4189 24.5854H27.0362L26.6539 25.35H25.5895C24.525 25.35 23.9722 25.9792 23.9722 27.0848C23.9722 28.1904 24.525 28.8197 25.5895 28.8197H27.0362L26.6539 29.5842H25.4248C24.131 29.5666 23.0901 28.6844 23.0901 27.0907C23.0901 25.497 24.1251 24.5972 25.4189 24.5854Z" fill="white"/>
<path d="M28.9532 29.5725C27.8417 29.5725 27.236 28.7433 27.236 27.7024C27.236 26.6614 27.877 25.8264 29.0238 25.8264C30.1706 25.8264 30.8116 26.5968 30.8116 27.7377V28.114H28.1005C28.1593 28.5845 28.5298 28.8785 28.9768 28.8785H30.5764L30.2235 29.5784H28.9532V29.5725ZM29.953 27.4142C29.9059 26.8438 29.6001 26.5262 29.0238 26.5262C28.4769 26.5262 28.1005 26.9084 28.0829 27.4142H29.953Z" fill="white"/>
<path d="M33.7403 27.1554C33.7403 26.8143 33.5992 26.6379 33.2698 26.6379H32.1936V29.5725H31.3644V25.9263H33.4345C34.1814 25.9263 34.5813 26.3086 34.5813 27.1378V29.5784H33.7403V27.1554Z" fill="white"/>
<path d="M36.569 29.5724C35.7516 29.5724 35.3458 29.1666 35.3458 28.3609V24.8147H36.175V25.9262H37.6041L37.2512 26.6496H36.175V28.3668C36.175 28.6961 36.3456 28.8667 36.6396 28.8667H37.6394L37.2748 29.5724H36.569Z" fill="white"/>
<path d="M37.9982 29.5725V27.1789C37.9982 26.4732 38.4628 25.9263 39.2744 25.9263H40.2917L39.9271 26.6497H39.3743C39.0332 26.6497 38.8274 26.8673 38.8274 27.2025V29.5725H37.9982Z" fill="white"/>
<path d="M40.6622 25.3147V24.5854H41.4914V25.3147H40.6622ZM40.6622 25.9263H41.4914V29.5783H40.6622V25.9263Z" fill="white"/>
<path d="M43.8496 29.5725C42.8263 29.5725 42.0559 28.9315 42.0559 27.7553C42.0559 26.5791 42.8322 25.9205 43.8496 25.9205H45.0964L44.7317 26.6438H43.9319C43.2674 26.6438 42.9145 27.0966 42.9145 27.7553C42.9145 28.414 43.2674 28.8492 43.9319 28.8492H45.1081L44.7435 29.5725H43.8437H43.8496Z" fill="white"/>
<path d="M11.0927 27.6671H12.0336V28.5434C11.8631 28.6081 11.522 28.6786 11.1985 28.6786C10.1576 28.6786 9.81063 28.1493 9.81063 27.079C9.81063 26.0087 10.14 25.45 11.1809 25.45C11.7631 25.45 12.0924 25.6323 12.3629 25.9793L13.0804 25.3206C12.6452 24.6914 11.8807 24.5032 11.1574 24.5032C9.54011 24.5032 8.68738 25.3853 8.68738 27.0731C8.68738 28.761 9.4519 29.6549 11.1456 29.6549C11.9219 29.6549 12.6805 29.4549 13.0922 29.1667V26.7379H11.0868V27.673L11.0927 27.6671Z" fill="white"/>
<path d="M6.15854 24.5738H5V29.5726H8.54619V28.6022H6.15854V24.5738Z" fill="white"/>
<defs>
<linearGradient id="paint0_linear_1742_9539" x1="17.6152" y1="7.99975" x2="33.1999" y2="39.545" gradientUnits="userSpaceOnUse">
<stop stop-color="#15C8A7"/>
<stop offset="1" stop-color="#71EAB6"/>
</linearGradient>
</defs>
</svg>
