<svg width="210" height="210" viewBox="0 0 210 210" fill="none" xmlns="http://www.w3.org/2000/svg">
<g filter="url(#filter0_iii_2085_10710)">
<rect x="132" y="198" width="94" height="185" rx="14" transform="rotate(-180 132 198)" fill="url(#paint0_linear_2085_10710)"/>
</g>
<g opacity="0.75" filter="url(#filter1_f_2085_10710)">
<path fill-rule="evenodd" clip-rule="evenodd" d="M118.248 195.263C124.875 195.263 130.248 189.891 130.248 183.263L130.248 27.7368C130.248 21.1094 124.875 15.7368 118.248 15.7368L75.5224 15.7368C75.5216 15.7368 75.5208 15.7368 75.52 15.7368L116.636 15.7368C123.263 15.7368 128.636 21.1094 128.636 27.7368L128.636 183.263C128.636 189.89 123.265 195.261 116.639 195.263H118.248Z" fill="white"/>
</g>
<g opacity="0.8" filter="url(#filter2_f_2085_10710)">
<path fill-rule="evenodd" clip-rule="evenodd" d="M51.6749 15.7366C45.0475 15.7366 39.6749 21.1092 39.6749 27.7366L39.6749 183.263C39.6749 189.891 45.0475 195.263 51.6749 195.263L53.3103 195.263L95.3297 195.263C95.3305 195.263 95.3312 195.263 95.332 195.263L53.3103 195.263C46.6829 195.263 41.3103 189.891 41.3103 183.263L41.3103 27.7366C41.3103 21.1104 46.6809 15.7386 53.3066 15.7366L51.6749 15.7366Z" fill="white"/>
</g>
<circle cx="52.8746" cy="47.3432" r="5.28325" transform="rotate(90 52.8746 47.3432)" fill="#4C4F58" stroke="#ADB3B7" stroke-width="0.8"/>
<circle cx="52.8745" cy="47.3423" r="2.62944" transform="rotate(90 52.8745 47.3423)" fill="#3A4144"/>
<circle cx="52.8746" cy="33.2582" r="5.28325" transform="rotate(90 52.8746 33.2582)" fill="#4C4F58" stroke="#ADB3B7" stroke-width="0.8"/>
<circle cx="52.8745" cy="33.2574" r="2.62944" transform="rotate(90 52.8745 33.2574)" fill="#3A4144"/>
<circle opacity="0.3" cx="76" cy="105" r="28" fill="#71EAB6"/>
<circle opacity="0.4" cx="76" cy="105" r="18" fill="#71EAB6"/>
<g filter="url(#filter3_d_2085_10710)">
<rect x="70" y="72" width="112" height="66" rx="6" fill="url(#paint1_linear_2085_10710)"/>
</g>
<rect opacity="0.4" x="70" y="84.3374" width="112" height="11.8072" fill="white"/>
<defs>
<filter id="filter0_iii_2085_10710" x="38" y="11" width="94" height="189" filterUnits="userSpaceOnUse" color-interpolation-filters="sRGB">
<feFlood flood-opacity="0" result="BackgroundImageFix"/>
<feBlend mode="normal" in="SourceGraphic" in2="BackgroundImageFix" result="shape"/>
<feColorMatrix in="SourceAlpha" type="matrix" values="0 0 0 0 0 0 0 0 0 0 0 0 0 0 0 0 0 0 127 0" result="hardAlpha"/>
<feOffset dy="-2"/>
<feGaussianBlur stdDeviation="3"/>
<feComposite in2="hardAlpha" operator="arithmetic" k2="-1" k3="1"/>
<feColorMatrix type="matrix" values="0 0 0 0 0.105882 0 0 0 0 0.129412 0 0 0 0 0.192157 0 0 0 0.15 0"/>
<feBlend mode="normal" in2="shape" result="effect1_innerShadow_2085_10710"/>
<feColorMatrix in="SourceAlpha" type="matrix" values="0 0 0 0 0 0 0 0 0 0 0 0 0 0 0 0 0 0 127 0" result="hardAlpha"/>
<feOffset/>
<feGaussianBlur stdDeviation="2.5"/>
<feComposite in2="hardAlpha" operator="arithmetic" k2="-1" k3="1"/>
<feColorMatrix type="matrix" values="0 0 0 0 0.105882 0 0 0 0 0.129412 0 0 0 0 0.192157 0 0 0 0.08 0"/>
<feBlend mode="normal" in2="effect1_innerShadow_2085_10710" result="effect2_innerShadow_2085_10710"/>
<feColorMatrix in="SourceAlpha" type="matrix" values="0 0 0 0 0 0 0 0 0 0 0 0 0 0 0 0 0 0 127 0" result="hardAlpha"/>
<feOffset dy="2"/>
<feGaussianBlur stdDeviation="1"/>
<feComposite in2="hardAlpha" operator="arithmetic" k2="-1" k3="1"/>
<feColorMatrix type="matrix" values="0 0 0 0 0.105882 0 0 0 0 0.129412 0 0 0 0 0.192157 0 0 0 0.1 0"/>
<feBlend mode="normal" in2="effect2_innerShadow_2085_10710" result="effect3_innerShadow_2085_10710"/>
</filter>
<filter id="filter1_f_2085_10710" x="74.3543" y="14.5711" width="57.0594" height="181.858" filterUnits="userSpaceOnUse" color-interpolation-filters="sRGB">
<feFlood flood-opacity="0" result="BackgroundImageFix"/>
<feBlend mode="normal" in="SourceGraphic" in2="BackgroundImageFix" result="shape"/>
<feGaussianBlur stdDeviation="0.58284" result="effect1_foregroundBlur_2085_10710"/>
</filter>
<filter id="filter2_f_2085_10710" x="38.5091" y="14.5706" width="57.9886" height="181.858" filterUnits="userSpaceOnUse" color-interpolation-filters="sRGB">
<feFlood flood-opacity="0" result="BackgroundImageFix"/>
<feBlend mode="normal" in="SourceGraphic" in2="BackgroundImageFix" result="shape"/>
<feGaussianBlur stdDeviation="0.58284" result="effect1_foregroundBlur_2085_10710"/>
</filter>
<filter id="filter3_d_2085_10710" x="59.0334" y="66.5167" width="133.933" height="87.9332" filterUnits="userSpaceOnUse" color-interpolation-filters="sRGB">
<feFlood flood-opacity="0" result="BackgroundImageFix"/>
<feColorMatrix in="SourceAlpha" type="matrix" values="0 0 0 0 0 0 0 0 0 0 0 0 0 0 0 0 0 0 127 0" result="hardAlpha"/>
<feOffset dy="5.4833"/>
<feGaussianBlur stdDeviation="5.4833"/>
<feComposite in2="hardAlpha" operator="out"/>
<feColorMatrix type="matrix" values="0 0 0 0 0 0 0 0 0 0 0 0 0 0 0 0 0 0 0.08 0"/>
<feBlend mode="normal" in2="BackgroundImageFix" result="effect1_dropShadow_2085_10710"/>
<feBlend mode="normal" in="SourceGraphic" in2="effect1_dropShadow_2085_10710" result="shape"/>
</filter>
<linearGradient id="paint0_linear_2085_10710" x1="120.901" y1="265.596" x2="236.494" y2="265.614" gradientUnits="userSpaceOnUse">
<stop stop-color="#E2E4E9"/>
<stop offset="0.475249" stop-color="#F4F7FA"/>
<stop offset="0.589146" stop-color="#F4F7FA"/>
<stop offset="1" stop-color="#E2E4E9"/>
</linearGradient>
<linearGradient id="paint1_linear_2085_10710" x1="111.102" y1="71.9995" x2="140.788" y2="139.978" gradientUnits="userSpaceOnUse">
<stop stop-color="#15C8A7"/>
<stop offset="1" stop-color="#71EAB6"/>
</linearGradient>
</defs>
</svg>
