<svg width="81" height="80" viewBox="0 0 81 80" fill="none" xmlns="http://www.w3.org/2000/svg">
<g id="img_search_null">
<path id="icon" fill-rule="evenodd" clip-rule="evenodd" d="M39.792 14.4227C35.5244 13.5739 31.1009 14.0095 27.081 15.6747C23.061 17.3398 19.6251 20.1596 17.2077 23.7775C14.7903 27.3953 13.5 31.6488 13.5 36H9.5C9.5 30.8577 11.0249 25.8309 13.8818 21.5552C16.7387 17.2795 20.7994 13.947 25.5502 11.9791C30.3011 10.0113 35.5288 9.49638 40.5723 10.4996C45.6159 11.5028 50.2486 13.9791 53.8848 17.6152C57.5209 21.2514 59.9972 25.8842 61.0004 30.9277C62.0036 35.9712 61.4887 41.1989 59.5209 45.9498C58.4202 48.6069 56.8927 51.0482 55.0121 53.1837L71.8284 70L69 72.8284L52.1451 55.9735C51.4434 56.5583 50.7092 57.1075 49.9448 57.6182C45.6691 60.4751 40.6423 62 35.5 62L35.5 58C39.8512 58 44.1046 56.7097 47.7225 54.2923C51.3404 51.8749 54.1602 48.439 55.8253 44.419C57.4905 40.3991 57.9261 35.9756 57.0773 31.708C56.2284 27.4404 54.1331 23.5204 51.0563 20.4437C47.9796 17.3669 44.0596 15.2716 39.792 14.4227ZM12.9143 39.8848L20.75 47.7205L28.5857 39.8848L31.4141 42.7132L23.5784 50.5489L31.4142 58.3847L28.5858 61.2131L20.75 53.3773L12.9142 61.2131L10.0858 58.3847L17.9215 50.5489L10.0858 42.7132L12.9143 39.8848Z" fill="#BEC2CB"/>
</g>
</svg>
