<svg width="56" height="56" viewBox="0 0 56 56" fill="none" xmlns="http://www.w3.org/2000/svg">
<path d="M24 45.144L32 45.144V49.644C32 51.577 30.433 53.144 28.5 53.144H27.5C25.567 53.144 24 51.577 24 49.644V45.144Z" fill="#9D9D9D"/>
<path d="M21.998 39.1489L33.998 39.1489V47.6489C33.998 49.5819 32.431 51.1489 30.498 51.1489H25.498C23.5651 51.1489 21.998 49.5819 21.998 47.6489V39.1489Z" fill="#5E5E5E"/>
<path d="M44 19.144C44 24.6656 41.2031 29.5338 36.9488 32.4094C34.9166 33.783 34 39.144 34 39.144C34 39.144 34 41.144 28 41.144C22 41.144 22 39.144 22 39.144C22 39.144 21.0834 33.783 19.0512 32.4094C14.7969 29.5338 12 24.6656 12 19.144C12 10.3075 19.1634 3.14404 28 3.14404C36.8366 3.14404 44 10.3075 44 19.144Z" fill="#FFE769"/>
<g opacity="0.72" filter="url(#filter0_f_1463_40608)">
<circle cx="28" cy="18.6479" r="7" fill="white"/>
</g>
<defs>
<filter id="filter0_f_1463_40608" x="10.5" y="1.14795" width="35" height="35" filterUnits="userSpaceOnUse" color-interpolation-filters="sRGB">
<feFlood flood-opacity="0" result="BackgroundImageFix"/>
<feBlend mode="normal" in="SourceGraphic" in2="BackgroundImageFix" result="shape"/>
<feGaussianBlur stdDeviation="5.25" result="effect1_foregroundBlur_1463_40608"/>
</filter>
</defs>
</svg>
