<svg width="212" height="56" viewBox="0 0 212 56" fill="none" xmlns="http://www.w3.org/2000/svg">
<g clip-path="url(#clip0_5319_64061)">
<g clip-path="url(#clip1_5319_64061)">
<path d="M118.218 38.1003V24.6828L117.974 24.6309L112.522 38.0483H108.741L103.289 24.6309L103.045 24.6828V38.1003H99.8571V17.9326H103.45L110.632 34.5901L117.813 17.9326H121.406V38.1003H118.218Z" fill="#0072CE"/>
<path d="M137.035 25.3526C137.155 25.9913 137.217 26.8948 137.217 28.0527V38.1002H127.715C126.713 38.1002 125.923 37.9808 125.352 37.7368C124.766 37.4927 124.324 37.1552 124.028 36.7138C123.732 36.2725 123.561 35.7376 123.509 35.1145C123.441 34.507 123.405 33.8164 123.405 33.0375C123.405 32.1548 123.457 31.4123 123.561 30.8048C123.665 30.1661 123.893 29.6468 124.251 29.2574C124.605 28.868 125.113 28.5772 125.768 28.3902C126.406 28.1981 127.284 28.1047 128.39 28.1047H134.05V27.5335C134.05 26.8585 134.008 26.3911 133.92 26.1315C133.832 25.8719 133.671 25.6746 133.427 25.5344C133.235 25.4149 132.788 25.3111 132.077 25.2228H131.973C131.365 25.1345 130.581 25.093 129.61 25.093C128.712 25.093 127.725 25.1709 126.65 25.3267C126.271 25.3786 125.648 25.4928 124.781 25.6642L124.314 25.7421V23.0939L124.392 23.0679C125.949 22.7719 127.419 22.6006 128.805 22.5487C129.153 22.5331 129.506 22.5227 129.87 22.5227C131.672 22.5227 133.115 22.6369 134.206 22.8602C135.088 23.0523 135.753 23.3483 136.194 23.7533C136.636 24.1583 136.916 24.6932 137.035 25.3526ZM132.414 35.4521H134.05V30.7788H128.156C127.741 30.7788 127.419 30.8151 127.196 30.8826C126.972 30.9346 126.806 31.0488 126.702 31.2202C126.583 31.3915 126.505 31.62 126.469 31.8952C126.432 32.1704 126.417 32.5183 126.417 32.9337C126.417 33.4529 126.443 33.8787 126.495 34.2059C126.547 34.533 126.624 34.7926 126.728 34.9847C126.832 35.1561 126.988 35.2807 127.196 35.3482C127.419 35.4157 127.725 35.4521 128.104 35.4521H132.414Z" fill="#0072CE"/>
<path d="M151.678 23.8831C152.094 24.2882 152.395 24.7607 152.587 25.2955C152.779 25.8511 152.873 26.4275 152.873 27.035V38.095H149.861V27.2167C149.845 26.6611 149.669 26.2042 149.342 25.8407C148.942 25.3578 148.417 25.1138 147.758 25.1138H142.176V38.095H139.242V22.5227H147.602C148.589 22.5227 149.42 22.6525 150.095 22.9121C150.733 23.1562 151.263 23.4781 151.678 23.8883V23.8831Z" fill="#0072CE"/>
<path d="M168.424 25.3526C168.544 25.9913 168.606 26.8948 168.606 28.0527V38.1002H159.104C158.101 38.1002 157.312 37.9808 156.741 37.7368C156.154 37.4927 155.713 37.1552 155.417 36.7138C155.121 36.2725 154.95 35.7376 154.898 35.1145C154.83 34.507 154.794 33.8164 154.794 33.0375C154.794 32.1548 154.846 31.4123 154.95 30.8048C155.053 30.1661 155.282 29.6468 155.64 29.2574C155.993 28.868 156.502 28.5772 157.156 28.3902C157.795 28.1981 158.673 28.1047 159.779 28.1047H165.438V27.5335C165.438 26.8585 165.397 26.3911 165.309 26.1315C165.22 25.8719 165.059 25.6746 164.815 25.5344C164.623 25.4149 164.177 25.3111 163.465 25.2228H163.361C162.754 25.1345 161.97 25.093 160.999 25.093C160.101 25.093 159.114 25.1709 158.039 25.3267C157.66 25.3786 157.037 25.4928 156.17 25.6642L155.703 25.7421V23.0939L155.78 23.0679C157.338 22.7719 158.808 22.6006 160.194 22.5487C160.542 22.5331 160.895 22.5227 161.259 22.5227C163.06 22.5227 164.504 22.6369 165.594 22.8602C166.477 23.0523 167.136 23.3483 167.583 23.7533C168.024 24.1583 168.305 24.6932 168.424 25.3526ZM163.803 35.4521H165.438V30.7788H159.545C159.13 30.7788 158.808 30.8151 158.584 30.8826C158.361 30.9346 158.195 31.0488 158.091 31.2202C157.972 31.3915 157.894 31.62 157.857 31.8952C157.821 32.1704 157.805 32.5183 157.805 32.9337C157.805 33.4529 157.831 33.8787 157.883 34.2059C157.935 34.533 158.013 34.7926 158.117 34.9847C158.221 35.1561 158.377 35.2807 158.584 35.3482C158.808 35.4157 159.114 35.4521 159.493 35.4521H163.803Z" fill="#0072CE"/>
<path d="M183.586 38.0743C183.55 39.253 183.498 40.037 183.431 40.4369C183.311 41.0963 183.02 41.6311 182.563 42.0465C182.106 42.4619 181.437 42.7631 180.549 42.9552C179.474 43.1785 178.046 43.2927 176.265 43.2927C175.901 43.2927 175.548 43.2824 175.2 43.2668C173.835 43.2149 172.37 43.0435 170.813 42.7475L170.709 42.7216V39.9955L171.176 40.0734C172.059 40.2655 172.692 40.3849 173.071 40.4369C174.126 40.5771 175.107 40.6446 176.005 40.6446C176.955 40.6446 177.734 40.603 178.342 40.5148H178.446C179.136 40.4265 179.578 40.3226 179.77 40.2032C179.993 40.0838 180.149 39.902 180.237 39.658C180.325 39.3828 180.367 38.8947 180.367 38.2041V38.0743H175.849C174.878 38.0743 174.058 37.9548 173.383 37.7108C172.724 37.4667 172.194 37.1396 171.784 36.7242C171.379 36.3088 171.078 35.8311 170.891 35.2963C170.683 34.7407 170.579 34.1643 170.579 33.5568V27.0402C170.579 26.4327 170.683 25.8563 170.891 25.3007C171.083 24.7659 171.379 24.2934 171.784 23.8883C172.189 23.4833 172.724 23.1562 173.383 22.9121C174.058 22.6525 174.878 22.5227 175.849 22.5227H183.586V38.0743ZM177.381 35.504H180.419V25.119H175.694C175.055 25.119 174.525 25.3526 174.11 25.8199C173.783 26.199 173.606 26.6663 173.591 27.2219V33.401C173.606 33.9358 173.783 34.398 174.11 34.777C174.525 35.2599 175.055 35.504 175.694 35.504H177.381Z" fill="#0072CE"/>
<path d="M197.694 23.8572C198.811 24.7503 199.366 26.0744 199.366 27.8398V28.437C199.366 29.112 199.294 29.6676 199.148 30.0986C199.003 30.5296 198.764 30.8723 198.432 31.1267C198.104 31.3759 197.674 31.5525 197.144 31.6459C196.614 31.7394 195.981 31.7861 195.238 31.7861H188.618V32.1237C188.633 32.7831 188.758 33.3283 188.981 33.7593C189.241 34.2266 189.578 34.6005 189.994 34.8757C190.409 35.1509 190.902 35.343 191.474 35.4469C192.029 35.5663 192.798 35.6286 193.784 35.6286C194.028 35.6286 194.356 35.613 194.771 35.5767C195.171 35.5611 195.602 35.5144 196.069 35.4469C196.521 35.3949 196.978 35.3326 197.445 35.2651C197.912 35.1769 198.328 35.0938 198.691 35.0055V37.4979C198.343 37.5862 197.949 37.6641 197.497 37.7316C197.045 37.7991 196.599 37.8614 196.147 37.9133C195.695 37.9808 195.264 38.0275 194.849 38.0535C194.433 38.0795 194.106 38.095 193.862 38.095C192.424 38.095 191.224 37.986 190.264 37.7731C189.303 37.555 188.478 37.2019 187.787 36.7086C187.096 36.2154 186.551 35.5767 186.151 34.7874C185.752 33.9982 185.554 33.0272 185.554 31.8692V28.3124C185.554 27.4816 185.7 26.7131 185.996 26.0121C186.292 25.3111 186.723 24.7036 187.294 24.1843C187.88 23.6651 188.618 23.26 189.501 22.9641C190.383 22.6681 191.422 22.5227 192.616 22.5227C194.885 22.5227 196.573 22.9693 197.694 23.8624V23.8572ZM196.355 28.1825V28.0008C196.355 27.0506 196.038 26.308 195.404 25.7836C194.771 25.2592 193.815 24.9891 192.533 24.9891C191.25 24.9891 190.321 25.2903 189.641 25.8978C188.955 26.5054 188.613 27.3258 188.613 28.3643V29.3249H190.274C190.793 29.3405 191.339 29.3509 191.91 29.3509H195.311C195.742 29.3509 196.027 29.2782 196.152 29.1276C196.282 28.9822 196.349 28.6654 196.349 28.1825H196.355Z" fill="#0072CE"/>
<path d="M211.081 22.5227V25.119H206.355C205.696 25.119 205.172 25.3526 204.772 25.8199C204.445 26.199 204.268 26.6663 204.252 27.2219V38.1002H201.241V27.0402C201.241 26.4327 201.345 25.8563 201.552 25.3007C201.744 24.7659 202.04 24.2934 202.445 23.8883C202.85 23.4833 203.385 23.1562 204.045 22.9121C204.704 22.6525 205.525 22.5227 206.511 22.5227H211.081Z" fill="#0072CE"/>
<path d="M0 38.1003V17.9326H7.91338C8.92073 17.9326 9.76711 18.0572 10.4525 18.3117C11.1172 18.5661 11.6572 18.8984 12.0726 19.3086C12.488 19.724 12.7943 20.2017 12.9917 20.7418C13.189 21.3181 13.2876 21.9101 13.2876 22.5228V24.6569C13.2876 25.2696 13.189 25.8564 12.9917 26.412C12.7943 26.952 12.488 27.4297 12.0726 27.8451C12.0518 27.8659 12.0362 27.8815 12.0207 27.897C11.9999 27.9178 11.9843 27.923 11.9687 27.923L11.8857 28.0061L11.9687 28.1151C11.9687 28.1151 12.0051 28.1255 12.0207 28.1411C12.0362 28.1619 12.057 28.1774 12.0726 28.193C12.488 28.6084 12.7943 29.0861 12.9917 29.6262C13.189 30.1869 13.2876 30.7685 13.2876 31.3812V33.5153C13.2876 34.1281 13.189 34.72 12.9917 35.2964C12.7943 35.8364 12.488 36.3141 12.0726 36.7295C11.6572 37.1449 11.1172 37.4772 10.4525 37.7265C9.76711 37.9809 8.92073 38.1055 7.91338 38.1055H0V38.1003ZM3.0532 26.7599H8.07435C8.79611 26.7599 9.37767 26.5003 9.82942 25.9758C10.1877 25.5604 10.3798 25.0567 10.3954 24.4648V22.6838C10.3746 22.0918 10.1877 21.5881 9.82942 21.1727C9.37767 20.6483 8.79611 20.3887 8.07435 20.3887H3.0532V26.7599ZM3.0532 35.6443H8.07435C8.79611 35.6443 9.37767 35.3846 9.82942 34.8602C10.1877 34.4448 10.3798 33.9411 10.3954 33.3492V31.5681C10.3746 30.9762 10.1877 30.4725 9.82942 30.0571C9.37767 29.5379 8.79611 29.2731 8.07435 29.2731H3.0532V35.6443Z" fill="#0072CE"/>
<path d="M16.5381 36.6672C16.1175 36.2362 15.806 35.7377 15.6087 35.1821C15.3906 34.6057 15.2867 34.0034 15.2867 33.3751V21.8997H18.4178V33.2141C18.4542 33.7749 18.6411 34.2474 18.9838 34.6473C19.3992 35.1509 19.9444 35.4054 20.6298 35.4054H26.461V21.8997H29.5142V38.1003H20.7908C19.7627 38.1003 18.9007 37.9653 18.1997 37.6953C17.5143 37.446 16.9639 37.1033 16.5381 36.6672Z" fill="#0072CE"/>
<path d="M31.5393 16.4995H35.1014V19.1477H31.5393V16.4995ZM31.7834 38.1003V21.8997H34.8625V38.1003H31.7834Z" fill="#0072CE"/>
<path d="M37.1005 38.1003V16.4995H40.1796V38.1003H37.1005Z" fill="#0072CE"/>
<path d="M52.4911 16.4995H55.8143V38.1003H47.7659C46.7378 38.1003 45.8758 37.9653 45.1748 37.6953C44.4894 37.4461 43.939 37.1086 43.5132 36.6828C43.0926 36.2622 42.7811 35.7689 42.5838 35.2133C42.3657 34.6214 42.2618 34.019 42.2618 33.4063V26.6041C42.2618 25.9758 42.3709 25.3735 42.5838 24.7971C42.7811 24.2415 43.0926 23.7431 43.5132 23.3121C43.9338 22.8811 44.4894 22.5384 45.1748 22.284C45.8758 22.0295 46.743 21.9049 47.7659 21.9049H52.4911V16.4995ZM50.897 35.4002H52.4911V24.5998H47.579C46.9143 24.5998 46.3639 24.8439 45.9329 25.3268C45.5902 25.7214 45.4085 26.2095 45.3929 26.7859V33.2142C45.4085 33.775 45.5902 34.2475 45.9329 34.6473C46.3639 35.151 46.9143 35.4054 47.579 35.4054H50.9022L50.897 35.4002Z" fill="#0072CE"/>
<path d="M57.8341 16.4995H61.3962V19.1477H57.8341V16.4995ZM58.0782 38.1003V21.8997H61.1573V38.1003H58.0782Z" fill="#0072CE"/>
<path d="M76.3039 23.3172C76.7349 23.7378 77.0516 24.2311 77.249 24.7867C77.4463 25.3631 77.5449 25.9654 77.5449 26.5937V38.0951H74.4138V26.7806C74.3931 26.2042 74.2165 25.7265 73.8738 25.3475C73.4584 24.8438 72.9132 24.5894 72.2278 24.5894H66.4226V38.0899H63.3694V21.8997H72.0616C73.0898 21.8997 73.9517 22.0347 74.6527 22.3047C75.3174 22.5591 75.8678 22.8966 76.2987 23.3172H76.3039Z" fill="#0072CE"/>
<path d="M93.1277 38.0743C93.0913 39.2997 93.0394 40.1149 92.9667 40.5303C92.8421 41.2157 92.5409 41.7713 92.0632 42.2023C91.5855 42.6333 90.8897 42.95 89.9706 43.1473C88.8542 43.381 87.3692 43.5004 85.5155 43.5004C85.1364 43.5004 84.7677 43.49 84.4094 43.4745C82.9867 43.4225 81.4653 43.2408 79.8452 42.9344L79.7362 42.9085V40.0734L80.2243 40.1564C81.1434 40.3538 81.7976 40.4784 82.1974 40.5355C83.2931 40.6809 84.3108 40.7536 85.2506 40.7536C86.2424 40.7536 87.0524 40.7069 87.6807 40.6186H87.7898C88.5115 40.5303 88.9685 40.4213 89.1658 40.2966C89.3994 40.172 89.5604 39.9799 89.6539 39.7307C89.7422 39.4451 89.7889 38.9362 89.7889 38.2196V38.0846H85.0897C84.0823 38.0846 83.2256 37.96 82.5246 37.7056C81.8392 37.4563 81.2887 37.1136 80.863 36.6775C80.4372 36.2413 80.1308 35.748 79.9335 35.1924C79.7154 34.616 79.6116 34.0137 79.6116 33.3854V26.6092C79.6116 25.9809 79.7206 25.3786 79.9335 24.8022C80.1308 24.2466 80.4424 23.7533 80.863 23.3327C81.2836 22.9121 81.8392 22.5746 82.5246 22.3202C83.2256 22.0502 84.0823 21.9152 85.0897 21.9152H93.1381V38.0898L93.1277 38.0743ZM86.6734 35.4001H89.8304V24.5997H84.9183C84.2537 24.5997 83.7033 24.8437 83.2723 25.3266C82.9296 25.7213 82.7478 26.2094 82.7323 26.7857V33.2141C82.7478 33.7749 82.9296 34.2474 83.2723 34.6472C83.7033 35.1509 84.2537 35.4053 84.9183 35.4053H86.6734V35.4001Z" fill="#0072CE"/>
</g>
</g>
<defs>
<clipPath id="clip0_5319_64061">
<rect width="211.081" height="56" fill="white"/>
</clipPath>
<clipPath id="clip1_5319_64061">
<rect width="211.081" height="27.001" fill="white" transform="translate(0 16.4995)"/>
</clipPath>
</defs>
</svg>
