<svg width="24" height="24" viewBox="0 0 24 24" fill="none" xmlns="http://www.w3.org/2000/svg">
<g id="ic_attached" clip-path="url(#clip0_823_35097)">
<g id="Layer 2">
<g id="line + container">
<path id="Vector" d="M18.0995 11.6908L11.7995 18.0008C11.155 18.6466 10.2804 19.0099 9.368 19.0109C8.45564 19.0118 7.58027 18.6503 6.93446 18.0058C6.28866 17.3613 5.92533 16.4867 5.92439 15.5743C5.92345 14.662 6.28499 13.7866 6.92946 13.1408L14.4395 5.6308C14.8456 5.249 15.382 5.03645 15.9395 5.03645C16.4969 5.03645 17.0333 5.249 17.4395 5.6308C17.8375 6.03245 18.0604 6.57532 18.0595 7.1408C18.0608 7.41945 18.0067 7.69559 17.9002 7.95312C17.7938 8.21064 17.6372 8.44441 17.4395 8.6408L9.99946 16.0808C9.84488 16.2293 9.63883 16.3122 9.42446 16.3122C9.2101 16.3122 9.00405 16.2293 8.84946 16.0808C8.69752 15.9257 8.61151 15.7179 8.60946 15.5008C8.60964 15.3946 8.63095 15.2895 8.67215 15.1917C8.71336 15.0938 8.77363 15.0051 8.84946 14.9308L15.0795 8.7008L14.3695 8.0008L8.14946 14.2208C7.97893 14.3875 7.84342 14.5866 7.75091 14.8064C7.6584 15.0262 7.61074 15.2623 7.61074 15.5008C7.61074 15.7393 7.6584 15.9754 7.75091 16.1952C7.84342 16.415 7.97893 16.6141 8.14946 16.7808C8.31687 16.9501 8.5162 17.0845 8.73591 17.1763C8.95563 17.268 9.19137 17.3153 9.42946 17.3153C9.66756 17.3153 9.9033 17.268 10.123 17.1763C10.3427 17.0845 10.5421 16.9501 10.7095 16.7808L18.1495 9.3408C18.4415 9.05162 18.6734 8.70741 18.8316 8.32808C18.9898 7.94874 19.0713 7.54181 19.0713 7.1308C19.0713 6.71979 18.9898 6.31285 18.8316 5.93352C18.6734 5.55418 18.4415 5.20998 18.1495 4.9208C17.5565 4.34769 16.7641 4.02734 15.9395 4.02734C15.1148 4.02734 14.3224 4.34769 13.7295 4.9208L6.21946 12.4308C5.38801 13.2649 4.92196 14.3951 4.92383 15.5729C4.92571 16.7506 5.39536 17.8793 6.22946 18.7108C7.06357 19.5422 8.19381 20.0083 9.37154 20.0064C10.5493 20.0046 11.678 19.5349 12.5095 18.7008L18.8095 12.4008L18.0995 11.6908Z" fill="#262626"/>
</g>
</g>
</g>
<defs>
<clipPath id="clip0_823_35097">
<rect width="24" height="24" fill="white"/>
</clipPath>
</defs>
</svg>
