<svg width="32" height="33" viewBox="0 0 32 33" fill="none" xmlns="http://www.w3.org/2000/svg">
<g id="ic_building_inspection_g_nor" clip-path="url(#clip0_1763_127867)">
<g id="Layer 2">
<g id="solid+contailner">
<path id="Vector" d="M5.01349 14.3177C4.55109 16.1015 4.55109 17.9738 5.01349 19.7577H7.77349C8.15161 20.8514 8.74558 21.8579 9.52016 22.7177L8.18682 25.1177C8.84106 25.7592 9.57085 26.3189 10.3602 26.7843C11.156 27.2363 12.0017 27.5943 12.8802 27.851L14.2135 25.4643C14.8013 25.5863 15.3999 25.6488 16.0002 25.651C16.6005 25.6504 17.1993 25.5878 17.7868 25.4643L19.1868 27.851C20.0653 27.5943 20.911 27.2363 21.7068 26.7843C22.4961 26.3189 23.2259 25.7592 23.8802 25.1177L22.4802 22.7177C23.2672 21.8265 23.8618 20.7825 24.2268 19.651H26.9868C27.2061 18.7787 27.3224 17.8837 27.3335 16.9843C27.3224 16.085 27.2061 15.19 26.9868 14.3177H24.2268C23.8618 13.1862 23.2672 12.1422 22.4802 11.251L23.8802 8.85101C23.2259 8.20944 22.4961 7.64978 21.7068 7.18434C20.911 6.73237 20.0653 6.37441 19.1868 6.11768L17.8535 8.50434C16.6664 8.25549 15.4406 8.25549 14.2535 8.50434L12.9202 6.11768C12.0417 6.37441 11.196 6.73237 10.4002 7.18434C9.57349 7.64242 8.80751 8.20235 8.12016 8.85101L9.45349 11.251C8.69033 12.148 8.11862 13.1916 7.77349 14.3177H5.01349ZM16.0002 14.3177C16.5276 14.3177 17.0431 14.4741 17.4817 14.7671C17.9202 15.0601 18.262 15.4766 18.4638 15.9639C18.6657 16.4511 18.7185 16.9873 18.6156 17.5046C18.5127 18.0219 18.2587 18.497 17.8858 18.87C17.5128 19.2429 17.0377 19.4969 16.5204 19.5998C16.0031 19.7027 15.4669 19.6499 14.9797 19.448C14.4924 19.2462 14.0759 18.9044 13.7829 18.4659C13.4899 18.0273 13.3335 17.5118 13.3335 16.9843C13.3335 16.2771 13.6144 15.5988 14.1145 15.0987C14.6146 14.5986 15.2929 14.3177 16.0002 14.3177Z" fill="#C4C4C4"/>
</g>
</g>
</g>
<defs>
<clipPath id="clip0_1763_127867">
<rect width="32" height="32" fill="white" transform="translate(0 0.984375)"/>
</clipPath>
</defs>
</svg>
