<svg width="32" height="33" viewBox="0 0 32 33" fill="none" xmlns="http://www.w3.org/2000/svg">
<g clip-path="url(#clip0_2096_87436)">
<path d="M5.01343 13.8177C4.55103 15.6015 4.55103 17.4738 5.01343 19.2577H7.77343C8.15155 20.3514 8.74552 21.3579 9.52009 22.2177L8.18676 24.6177C8.84099 25.2592 9.57079 25.8189 10.3601 26.2843C11.1559 26.7363 12.0016 27.0943 12.8801 27.351L14.2134 24.9643C14.8012 25.0863 15.3998 25.1488 16.0001 25.151C16.6005 25.1504 17.1992 25.0878 17.7868 24.9643L19.1868 27.351C20.0652 27.0943 20.9109 26.7363 21.7068 26.2843C22.4961 25.8189 23.2259 25.2592 23.8801 24.6177L22.4801 22.2177C23.2671 21.3265 23.8617 20.2825 24.2268 19.151H26.9868C27.206 18.2787 27.3224 17.3837 27.3334 16.4843C27.3224 15.585 27.206 14.69 26.9868 13.8177H24.2268C23.8617 12.6862 23.2671 11.6422 22.4801 10.751L23.8801 8.35101C23.2259 7.70944 22.4961 7.14978 21.7068 6.68434C20.9109 6.23237 20.0652 5.87441 19.1868 5.61768L17.8534 8.00434C16.6663 7.75549 15.4405 7.75549 14.2534 8.00434L12.9201 5.61768C12.0416 5.87441 11.1959 6.23237 10.4001 6.68434C9.57343 7.14242 8.80745 7.70235 8.1201 8.35101L9.45343 10.751C8.69027 11.648 8.11856 12.6916 7.77343 13.8177H5.01343ZM16.0001 13.8177C16.5275 13.8177 17.0431 13.9741 17.4816 14.2671C17.9201 14.5601 18.2619 14.9766 18.4638 15.4639C18.6656 15.9511 18.7184 16.4873 18.6155 17.0046C18.5126 17.5219 18.2587 17.997 17.8857 18.37C17.5128 18.7429 17.0376 18.9969 16.5203 19.0998C16.0031 19.2027 15.4669 19.1499 14.9796 18.948C14.4923 18.7462 14.0759 18.4044 13.7828 17.9659C13.4898 17.5273 13.3334 17.0118 13.3334 16.4843C13.3334 15.7771 13.6144 15.0988 14.1145 14.5987C14.6146 14.0986 15.2929 13.8177 16.0001 13.8177Z" fill="#1D6CEB"/>
</g>
<defs>
<clipPath id="clip0_2096_87436">
<rect width="32" height="32" fill="white" transform="translate(0 0.484375)"/>
</clipPath>
</defs>
</svg>
