<svg width="49" height="48" viewBox="0 0 49 48" fill="none" xmlns="http://www.w3.org/2000/svg">
<rect x="7.3" y="14.8" width="34.4" height="22.4" rx="1.2" stroke="#646464" stroke-width="1.6"/>
<path d="M11.3 33.0466V12.1413C11.8715 11.9598 12.8402 11.6678 13.9412 11.402C15.2997 11.074 16.8036 10.8 18 10.8C19.1964 10.8 20.7003 11.074 22.0588 11.402C23.1598 11.6678 24.1285 11.9598 24.7 12.1413V33.0466C23.1753 32.6087 20.2177 31.8489 18 31.8489C15.7823 31.8489 12.8247 32.6087 11.3 33.0466Z" fill="white" stroke="#646464" stroke-width="1.6"/>
<path d="M24.3 33.0496V12.1415C24.8722 11.9597 25.8427 11.6671 26.9454 11.401C28.3029 11.0734 29.8049 10.8 31 10.8C32.1951 10.8 33.6971 11.0734 35.0546 11.401C36.1573 11.6671 37.1278 11.9597 37.7 12.1415V33.0496C36.1758 32.6118 33.218 31.8518 31 31.8518C28.782 31.8518 25.8242 32.6118 24.3 33.0496Z" fill="white" stroke="#646464" stroke-width="1.6"/>
<rect width="2" height="1" rx="0.5" transform="matrix(1 0 0 -1 23.5 34)" fill="#646464"/>
<rect x="30" y="17" width="2" height="2" fill="#646464"/>
<rect x="30" y="20" width="2" height="6" fill="#646464"/>
</svg>
