<svg width="32" height="32" viewBox="0 0 32 32" fill="none" xmlns="http://www.w3.org/2000/svg">
<g clip-path="url(#clip0_741_34517)">
<path d="M15.9999 27.3069C17.8419 27.2977 19.6501 26.8117 21.2485 25.8961C22.8469 24.9806 24.1809 23.6667 25.1207 22.0825C26.0605 20.4983 26.5741 18.6976 26.6113 16.856C26.6485 15.0144 26.2082 13.1945 25.3333 11.5735C25.8955 10.6919 26.111 9.63309 25.938 8.60181C25.7651 7.57053 25.216 6.63997 24.3969 5.98998C23.5777 5.33999 22.5467 5.01671 21.5031 5.08263C20.4595 5.14855 19.4774 5.59898 18.7466 6.34687C17.851 6.10437 16.9278 5.97889 15.9999 5.97353C15.063 5.97424 14.1303 6.09979 13.2266 6.34687C12.6359 5.74472 11.8789 5.33245 11.0527 5.1628C10.2264 4.99314 9.36824 5.07381 8.58804 5.39448C7.80784 5.71515 7.14101 6.26125 6.67285 6.96294C6.20469 7.66463 5.95646 8.49001 5.95992 9.33353C5.97796 10.128 6.22318 10.9007 6.66659 11.5602C5.80034 13.1138 5.34164 14.8614 5.33325 16.6402C5.33325 19.4692 6.45706 22.1823 8.45745 24.1827C10.4578 26.1831 13.1709 27.3069 15.9999 27.3069ZM21.7999 6.41353C22.2597 6.41975 22.7114 6.536 23.1171 6.75254C23.5228 6.96908 23.8707 7.27963 24.1318 7.6582C24.3929 8.03677 24.5595 8.47236 24.6178 8.92853C24.676 9.38469 24.6242 9.84818 24.4666 10.2802C23.3612 8.78946 21.8859 7.61294 20.1866 6.86687C20.6695 6.5635 21.2297 6.40608 21.7999 6.41353ZM10.1999 6.41353C10.7434 6.41833 11.2746 6.57538 11.7333 6.86687C10.037 7.60549 8.56208 8.77258 7.45325 10.2535C7.35286 9.95694 7.29889 9.64661 7.29325 9.33353C7.29324 8.56141 7.59906 7.82071 8.14378 7.27348C8.68851 6.72626 9.4278 6.41706 10.1999 6.41353ZM7.53325 12.6269C7.72641 12.2199 7.94923 11.8278 8.19992 11.4535C9.29618 9.82545 10.8778 8.58441 12.7199 7.90687C13.1531 7.74187 13.599 7.61255 14.0533 7.5202C14.6921 7.37667 15.3451 7.30511 15.9999 7.30687C16.6677 7.30973 17.3334 7.38122 17.9866 7.5202C18.4407 7.61323 18.8865 7.74253 19.3199 7.90687C21.1295 8.60477 22.6768 9.84908 23.7466 11.4669C24.0001 11.8394 24.223 12.2318 24.4133 12.6402C25.0208 13.9053 25.3352 15.2911 25.3332 16.6946C25.3311 18.098 25.0125 19.4829 24.4012 20.7462C23.7899 22.0095 22.9015 23.1187 21.8022 23.9912C20.703 24.8636 19.4211 25.477 18.052 25.7856C16.6829 26.0942 15.2619 26.09 13.8946 25.7735C12.5274 25.4569 11.2491 24.8361 10.1549 23.9572C9.06076 23.0783 8.17889 21.964 7.57494 20.6972C6.97098 19.4303 6.6605 18.0436 6.66659 16.6402C6.66149 15.2511 6.97149 13.8789 7.57325 12.6269H7.53325Z" fill="#262626"/>
<path d="M16.8799 18.3333C17.0675 18.146 17.173 17.8918 17.1732 17.6267V10.3467H15.1732V17.2133L11.8799 20.52L13.3332 21.9333L16.8799 18.3333Z" fill="#262626"/>
</g>
<defs>
<clipPath id="clip0_741_34517">
<rect width="32" height="32" fill="white"/>
</clipPath>
</defs>
</svg>
