<svg width="60" height="60" viewBox="0 0 60 60" fill="none" xmlns="http://www.w3.org/2000/svg">
<circle cx="30.0014" cy="21.4086" r="15.9545" fill="#95DEB2"/>
<path d="M18.6251 31.7795C18.2139 30.9633 18.8071 30 19.7211 30H40.2814C41.1953 30 41.7886 30.9633 41.3774 31.7795L39.258 35.9858C39.2077 36.0857 39.1713 36.192 39.1497 36.3018L38.1729 41.2817C38.06 41.8574 37.5553 42.2727 36.9686 42.2727H23.0339C22.4472 42.2727 21.9425 41.8574 21.8296 41.2817L20.8527 36.3018C20.8312 36.192 20.7948 36.0857 20.7444 35.9858L18.6251 31.7795Z" fill="#95DEB2"/>
<path d="M19.5703 23.8622L20.0305 21.3973C20.7976 18.9531 23.1467 16.7724 26.2628 18.9451C26.6783 19.3538 27.6339 20.6959 28.1325 21.6767C28.4441 22.2898 28.7749 23.2486 28.7749 25.0895C28.7749 25.7031 27.2044 27.9024 25.0163 26.581C22.1661 24.8597 25.8473 19.9668 28.1325 17.719C29.3789 16.493 31.8303 15.167 33.326 19.0905C34.4702 22.0918 34.9112 23.1756 34.9112 25.0895C34.9112 25.9069 34.2976 27.544 32.495 27.1941C30.3133 26.7705 31.6641 23.1072 32.495 21.6767C33.1183 20.655 34.3647 18.3321 36.2344 18.3321C38.104 18.3321 39.8203 18.9531 39.9737 22.6234V24.2992" stroke="#1D6CEB" stroke-width="1.84091"/>
<rect x="21.4102" y="42.2725" width="17.1818" height="7.36364" rx="1.22727" fill="#8E9CC1"/>
<path d="M22.6387 49.6357H37.3659V53.3176C37.3659 53.9954 36.8165 54.5448 36.1387 54.5448H23.8659C23.1881 54.5448 22.6387 53.9954 22.6387 53.3176V49.6357Z" fill="#5E6A8B"/>
</svg>
