<svg width="24" height="24" viewBox="0 0 24 24" fill="none" xmlns="http://www.w3.org/2000/svg">
<g clip-path="url(#clip0_928_38845)">
<path d="M12 20.4801C13.3815 20.4733 14.7377 20.1088 15.9364 19.4221C17.1352 18.7354 18.1358 17.75 18.8406 16.5619C19.5455 15.3737 19.9306 14.0232 19.9585 12.642C19.9865 11.2608 19.6562 9.89585 19 8.68015C19.4217 8.01891 19.5833 7.22482 19.4536 6.45136C19.3239 5.6779 18.912 4.97998 18.2977 4.49249C17.6834 4.00499 16.9101 3.76254 16.1274 3.81197C15.3447 3.86141 14.6081 4.19923 14.06 4.76015C13.3883 4.57828 12.6959 4.48416 12 4.48015C11.2973 4.48068 10.5978 4.57484 9.92 4.76015C9.47695 4.30854 8.90927 3.99934 8.28955 3.8721C7.66983 3.74486 7.02624 3.80536 6.44109 4.04586C5.85594 4.28636 5.35582 4.69594 5.0047 5.2222C4.65358 5.74847 4.46741 6.36751 4.47 7.00015C4.48353 7.59601 4.66745 8.17553 5 8.67015C4.35032 9.83534 4.00629 11.1461 4 12.4801C4 14.6019 4.84285 16.6367 6.34315 18.137C7.84344 19.6373 9.87827 20.4801 12 20.4801V20.4801ZM16.35 4.81015C16.6949 4.81482 17.0336 4.902 17.3379 5.06441C17.6422 5.22681 17.9031 5.45972 18.0989 5.74365C18.2947 6.02758 18.4197 6.35427 18.4634 6.69639C18.5071 7.03852 18.4682 7.38613 18.35 7.71015C17.5209 6.5921 16.4145 5.7097 15.14 5.15015C15.5022 4.92263 15.9223 4.80456 16.35 4.81015V4.81015ZM7.65 4.81015C8.05758 4.81375 8.45599 4.93154 8.8 5.15015C7.52783 5.70411 6.42162 6.57943 5.59 7.69015C5.5147 7.4677 5.47423 7.23496 5.47 7.00015C5.46999 6.42105 5.69935 5.86553 6.1079 5.45511C6.51644 5.04469 7.07091 4.8128 7.65 4.81015V4.81015ZM5.65 9.47015C5.79487 9.16496 5.96198 8.87083 6.15 8.59015C6.9722 7.36909 8.15842 6.43831 9.54 5.93015C9.86488 5.8064 10.1993 5.70941 10.54 5.64015C11.0192 5.5325 11.5089 5.47883 12 5.48015C12.5008 5.4823 13.0001 5.53591 13.49 5.64015C13.8306 5.70992 14.165 5.8069 14.49 5.93015C15.8472 6.45357 17.0076 7.38681 17.81 8.60015C18.0001 8.87953 18.1673 9.17382 18.31 9.48015C18.7657 10.429 19.0015 11.4684 18.9999 12.5209C18.9984 13.5735 18.7594 14.6122 18.3009 15.5596C17.8425 16.5071 17.1762 17.339 16.3517 17.9934C15.5273 18.6477 14.5659 19.1078 13.5391 19.3392C12.5123 19.5706 11.4465 19.5675 10.421 19.3301C9.39558 19.0927 8.43687 18.6271 7.61625 17.9679C6.79563 17.3088 6.13423 16.473 5.68126 15.5229C5.2283 14.5728 4.99544 13.5327 5 12.4801C4.99618 11.4383 5.22868 10.4092 5.68 9.47015H5.65Z" fill="#BFBFBF"/>
<path d="M12.6599 13.7498C12.8006 13.6092 12.8797 13.4186 12.8799 13.2198V7.75977H11.3799V12.9098L8.90991 15.3898L9.99991 16.4498L12.6599 13.7498Z" fill="#BFBFBF"/>
</g>
<defs>
<clipPath id="clip0_928_38845">
<rect width="24" height="24" fill="white"/>
</clipPath>
</defs>
</svg>
