<svg width="24" height="24" viewBox="0 0 24 24" fill="none" xmlns="http://www.w3.org/2000/svg">
<g clip-path="url(#clip0_1446_75126)">
<path d="M17.3024 17.3034V17.3034C17.4488 17.157 17.4488 16.9195 17.3024 16.7731L7.2261 6.69681C7.07966 6.55036 6.84222 6.55036 6.69577 6.69681V6.69681C6.54933 6.84325 6.54933 7.08069 6.69577 7.22714L16.772 17.3034C16.9185 17.4499 17.1559 17.4499 17.3024 17.3034V17.3034Z" fill="black"/>
<path d="M17.3034 6.69763V6.69763C17.157 6.55118 16.9195 6.55118 16.7731 6.69763L6.69681 16.7739C6.55036 16.9203 6.55036 17.1578 6.69681 17.3042V17.3042C6.84325 17.4507 7.08069 17.4507 7.22714 17.3042L17.3034 7.22796C17.4499 7.08151 17.4499 6.84407 17.3034 6.69763V6.69763Z" fill="black"/>
</g>
<defs>
<clipPath id="clip0_1446_75126">
<rect width="24" height="24" fill="white"/>
</clipPath>
</defs>
</svg>
