<svg width="60" height="60" viewBox="0 0 60 60" fill="none" xmlns="http://www.w3.org/2000/svg">
<path d="M25.2408 27.6793C25.1613 26.9529 25.7301 26.3184 26.4608 26.3184H51.95C52.6807 26.3184 53.2496 26.9529 53.17 27.6792L50.6161 50.9974C50.548 51.6198 50.0222 52.0911 49.3961 52.0911H29.0147C28.3886 52.0911 27.8629 51.6198 27.7947 50.9974L25.2408 27.6793Z" fill="#1D6CEB"/>
<rect x="23.8633" y="22.6367" width="30.6818" height="6.13636" rx="1.22727" fill="#5496FF"/>
<rect x="31.2285" y="9.13672" width="9.81818" height="9.81818" rx="4.90909" fill="#95DEB2"/>
<rect x="42.2734" y="7.90918" width="4.90909" height="4.90909" rx="2.45455" fill="#95DEB2"/>
<rect x="15.2734" y="6.68164" width="4.90909" height="39.2727" rx="2.45455" fill="#D0D7EA"/>
<path d="M5.45508 39.8178C5.45508 38.4622 6.55402 37.3633 7.90962 37.3633H27.546C28.9016 37.3633 30.0005 38.4622 30.0005 39.8178V54.5451H12.8187C8.75188 54.5451 5.45508 51.2483 5.45508 47.1815V39.8178Z" fill="#95DEB2"/>
<path d="M5.45508 38.5913C5.45508 37.2357 6.55402 36.1367 7.90962 36.1367H27.546C28.9016 36.1367 30.0005 37.2357 30.0005 38.5913V42.2731H5.45508V38.5913Z" fill="#5ABF83"/>
<rect x="15.2734" y="30" width="4.90909" height="6.13636" fill="#5ABF83"/>
<path d="M20.1816 50.863C20.1816 50.1852 20.7311 49.6357 21.4089 49.6357H33.6816C35.0373 49.6357 36.1362 50.7347 36.1362 52.0903V53.3176C36.1362 53.9954 35.5867 54.5448 34.9089 54.5448H23.8635C21.83 54.5448 20.1816 52.8964 20.1816 50.863Z" fill="#95DEB2"/>
</svg>
