<svg width="49" height="48" viewBox="0 0 49 48" fill="none" xmlns="http://www.w3.org/2000/svg">
<mask id="path-1-inside-1_1840_111659" fill="white">
<path fill-rule="evenodd" clip-rule="evenodd" d="M19.6237 11.5357C19.0655 10.8214 17.67 10.8214 17.1118 11.5357L7.39132 23.9743C7.17495 24.2512 6.97737 24.5667 7.0021 24.9172C7.03964 25.4494 7.38816 26 8.32019 26H12.8678V37H24.3678V26H28.4154C29.1218 26 29.5793 25.4498 29.6884 24.9179C29.7589 24.5737 29.5606 24.2512 29.3443 23.9744L19.6237 11.5357Z"/>
</mask>
<path d="M17.1118 11.5357L18.5301 12.6441V12.6441L17.1118 11.5357ZM19.6237 11.5357L21.042 10.4274L21.042 10.4274L19.6237 11.5357ZM7.39132 23.9743L8.80961 25.0827L8.80961 25.0827L7.39132 23.9743ZM7.0021 24.9172L5.20656 25.0439V25.0439L7.0021 24.9172ZM12.8678 26H14.6678V24.2H12.8678V26ZM12.8678 37H11.0678V38.8H12.8678V37ZM24.3678 37V38.8H26.1678V37H24.3678ZM24.3678 26V24.2H22.5678V26H24.3678ZM29.6884 24.9179L31.4517 25.2793V25.2793L29.6884 24.9179ZM29.3443 23.9744L27.926 25.0828V25.0828L29.3443 23.9744ZM18.5301 12.6441C18.4442 12.754 18.3616 12.7922 18.3434 12.7997C18.3258 12.8069 18.3359 12.8 18.3678 12.8C18.3997 12.8 18.4098 12.8069 18.3922 12.7997C18.3739 12.7922 18.2913 12.754 18.2054 12.6441L21.042 10.4274C20.322 9.506 19.225 9.2 18.3678 9.2C17.5106 9.2 16.4136 9.50601 15.6935 10.4274L18.5301 12.6441ZM8.80961 25.0827L18.5301 12.6441L15.6935 10.4274L5.97304 22.866L8.80961 25.0827ZM8.79764 24.7905C8.81248 25.0009 8.75434 25.1431 8.73766 25.1789C8.72951 25.1963 8.72766 25.1965 8.74057 25.1768C8.75346 25.1572 8.77469 25.1274 8.80961 25.0827L5.97304 22.8659C5.74344 23.1597 5.12987 23.9568 5.20656 25.0439L8.79764 24.7905ZM8.32019 24.2C8.26372 24.2 8.28031 24.1917 8.3431 24.2146C8.41038 24.2392 8.49987 24.2886 8.58564 24.3726C8.75977 24.5433 8.79292 24.7237 8.79764 24.7905L5.20656 25.0439C5.24882 25.6428 5.475 26.3647 6.06579 26.9437C6.67752 27.5432 7.48591 27.8 8.32019 27.8V24.2ZM12.8678 24.2H8.32019V27.8H12.8678V24.2ZM14.6678 37V26H11.0678V37H14.6678ZM24.3678 35.2H12.8678V38.8H24.3678V35.2ZM22.5678 26V37H26.1678V26H22.5678ZM28.4154 24.2H24.3678V27.8H28.4154V24.2ZM27.925 24.5564C27.9413 24.4772 27.975 24.4111 28.0408 24.349C28.0791 24.3129 28.1338 24.2737 28.2055 24.2438C28.2797 24.213 28.3535 24.2 28.4154 24.2V27.8C30.1893 27.8 31.2177 26.4211 31.4517 25.2793L27.925 24.5564ZM27.926 25.0828C28.0019 25.1798 27.9931 25.1852 27.9694 25.1297C27.9381 25.0567 27.8664 24.8424 27.925 24.5564L31.4517 25.2793C31.7028 24.0544 30.9684 23.1294 30.7626 22.8661L27.926 25.0828ZM18.2054 12.6441L27.926 25.0828L30.7626 22.8661L21.042 10.4274L18.2054 12.6441Z" fill="#646464" mask="url(#path-1-inside-1_1840_111659)"/>
<path d="M29.4671 17.203C29.7024 16.799 30.2976 16.799 30.5329 17.203L41.0173 35.203C41.2433 35.5911 40.9689 36.1 40.4844 36.1H19.5156C19.0311 36.1 18.7567 35.5911 18.9827 35.203L29.4671 17.203Z" fill="white" stroke="#646464" stroke-width="1.8"/>
<rect x="31" y="33" width="2" height="2" transform="rotate(180 31 33)" fill="#646464"/>
<rect x="31" y="30" width="2" height="6" transform="rotate(180 31 30)" fill="#646464"/>
</svg>
