<svg width="92" height="92" viewBox="0 0 92 92" fill="none" xmlns="http://www.w3.org/2000/svg">
<path d="M46 76C62.5685 76 76 62.5685 76 46C76 29.4315 62.5685 16 46 16C29.4315 16 16 29.4315 16 46C16 62.5685 29.4315 76 46 76Z" fill="#F2F2F2"/>
<path d="M30.2411 45.5576C29.7322 45.5576 29.2676 45.5281 28.8694 45.4691C28.2647 45.388 27.837 44.8275 27.9181 44.2228C27.9992 43.6181 28.5523 43.1904 29.157 43.2715C29.4225 43.301 35.6614 44.0532 37.9771 38.9278C38.2278 38.3747 38.8842 38.124 39.4446 38.3747C39.9977 38.6255 40.2485 39.2818 39.9977 39.8349C37.9402 44.3924 33.2868 45.5503 30.2411 45.5503V45.5576Z" fill="#CCCCCC"/>
<path d="M61.7603 45.4399C58.7146 45.4399 54.0612 44.2821 52.0036 39.7246C51.7529 39.1715 52.0036 38.5151 52.5567 38.2644C53.1172 38.0137 53.7662 38.2644 54.0243 38.8175C56.3399 43.9429 62.5789 43.198 62.8444 43.1611C63.4565 43.08 64.0022 43.5077 64.0833 44.1125C64.1644 44.7172 63.7441 45.2703 63.132 45.3514C62.7337 45.403 62.2691 45.4399 61.7603 45.4399Z" fill="#CCCCCC"/>
<path d="M54.4815 62.8214C54.1791 62.8214 53.8694 62.7256 53.6113 62.5338C45.6172 56.6562 38.7588 62.2315 38.4711 62.4748C37.8443 62.9984 36.9151 62.9173 36.3915 62.2905C35.8679 61.6636 35.949 60.7418 36.5685 60.2182C36.657 60.1444 45.4549 52.8804 55.3591 60.1518C56.0154 60.6312 56.1555 61.5604 55.6762 62.2167C55.3886 62.6076 54.9387 62.8214 54.4889 62.8214H54.4815Z" fill="#666666"/>
<path d="M36.1546 52.6148C31.8995 52.6148 29.9157 49.8862 29.8346 49.7682C29.4216 49.1856 29.5544 48.3817 30.137 47.9688C30.7122 47.5558 31.516 47.6885 31.929 48.2637C31.9954 48.3522 33.2933 50.0337 36.1546 50.0337C39.016 50.0337 40.0632 48.249 40.0706 48.2342C40.4098 47.6074 41.1841 47.364 41.8184 47.7033C42.4452 48.0425 42.6812 48.8242 42.3493 49.4511C42.283 49.5838 40.6089 52.6148 36.1546 52.6148Z" fill="#666666"/>
<path d="M56.0448 52.6151C51.974 52.6151 49.9017 49.916 49.8132 49.798C49.3855 49.2301 49.5035 48.4189 50.0713 47.9912C50.6392 47.5635 51.443 47.6814 51.8707 48.2419C51.9445 48.3378 53.3161 50.034 56.0374 50.034C56.0595 50.034 56.0743 50.034 56.0964 50.034C58.6849 50.0118 60.0566 48.1682 60.1155 48.0871C60.5359 47.5118 61.3397 47.3791 61.915 47.7921C62.4902 48.205 62.6303 49.0015 62.2173 49.5767C62.1288 49.7021 60.0566 52.5708 56.1185 52.6077C56.089 52.6077 56.0595 52.6077 56.03 52.6077L56.0448 52.6151Z" fill="#666666"/>
</svg>
