<svg width="60" height="60" viewBox="0 0 60 60" fill="none" xmlns="http://www.w3.org/2000/svg">
<rect x="46.4648" y="52.6885" width="34.2071" height="11.4987" rx="1.22727" transform="rotate(-140.019 46.4648 52.6885)" fill="#95DEB2"/>
<rect x="43.5" y="45.1104" width="3.51506" height="3.51506" rx="1.75753" transform="rotate(-50.0194 43.5 45.1104)" fill="#5ABF83"/>
<path fill-rule="evenodd" clip-rule="evenodd" d="M7.73401 26.3183C6.8774 26.3183 6.28937 27.1749 6.70531 27.9237C7.39576 29.1668 8.32132 30.3068 9.47594 31.275C14.534 35.5163 22.0727 34.8542 26.314 29.7961C30.5553 24.738 29.8932 17.1994 24.8351 12.9581C19.777 8.71675 12.2384 9.37887 7.99704 14.4369C7.55157 14.9682 7.16019 15.5268 6.82232 16.1061C6.38605 16.8541 6.97312 17.7274 7.83904 17.7274L15.9836 17.7274C16.3449 17.7274 16.6879 17.8866 16.9211 18.1627L19.5129 21.2309C19.8992 21.6882 19.8992 22.3575 19.5129 22.8148L16.9211 25.883C16.6879 26.159 16.3449 26.3183 15.9836 26.3183L7.73401 26.3183Z" fill="#95DEB2"/>
<path d="M45.1386 13.1417C46.6941 11.4897 49.2944 11.4114 50.9464 12.9669C52.5985 14.5224 52.6768 17.1227 51.1213 18.7748L34.1636 36.7851L28.1809 31.1521L45.1386 13.1417Z" fill="#1D6CEB"/>
<rect x="29.6914" y="32.4736" width="4.20698" height="9.61791" transform="rotate(43.2757 29.6914 32.4736)" fill="#8E9CC1"/>
<path d="M23.5775 39.0998L26.623 41.9673L26.1183 45.5544L18.6023 53.537L12.5112 47.8019L20.0272 39.8193L23.5775 39.0998Z" fill="#8E9CC1"/>
</svg>
