<svg width="24" height="24" viewBox="0 0 24 24" fill="none" xmlns="http://www.w3.org/2000/svg">
<g id="ic_setting" clip-path="url(#clip0_1901_128827)">
<g id="Layer 2">
<g id="line + container">
<path id="Vector" d="M5.82003 17.64V19.51H6.82003V17.64C7.33556 17.5257 7.79668 17.2389 8.1272 16.8271C8.45772 16.4153 8.63786 15.903 8.63786 15.375C8.63786 14.8469 8.45772 14.3347 8.1272 13.9229C7.79668 13.511 7.33556 13.2243 6.82003 13.11V4.50999H5.82003V13.11C5.30449 13.2243 4.84337 13.511 4.51286 13.9229C4.18234 14.3347 4.0022 14.8469 4.0022 15.375C4.0022 15.903 4.18234 16.4153 4.51286 16.8271C4.84337 17.2389 5.30449 17.5257 5.82003 17.64ZM6.32003 14.05C6.5811 14.05 6.83631 14.1274 7.05338 14.2725C7.27045 14.4175 7.43964 14.6237 7.53955 14.8649C7.63946 15.1061 7.6656 15.3715 7.61466 15.6275C7.56373 15.8836 7.43801 16.1188 7.25341 16.3034C7.0688 16.488 6.8336 16.6137 6.57755 16.6646C6.32149 16.7156 6.05608 16.6894 5.81489 16.5895C5.57369 16.4896 5.36753 16.3204 5.22249 16.1033C5.07744 15.8863 5.00003 15.6311 5.00003 15.37C5.00003 15.0199 5.1391 14.6842 5.38665 14.4366C5.63419 14.1891 5.96994 14.05 6.32003 14.05Z" fill="#262626"/>
<path id="Vector_2" d="M11.44 10.92V19.51H12.44V10.92C12.9556 10.8057 13.4167 10.5189 13.7472 10.1071C14.0777 9.6953 14.2579 9.18305 14.2579 8.65499C14.2579 8.12694 14.0777 7.61469 13.7472 7.20286C13.4167 6.79104 12.9556 6.50429 12.44 6.38999V4.50999H11.44V6.38999C10.9245 6.50429 10.4634 6.79104 10.1329 7.20286C9.80233 7.61469 9.62219 8.12694 9.62219 8.65499C9.62219 9.18305 9.80233 9.6953 10.1329 10.1071C10.4634 10.5189 10.9245 10.8057 11.44 10.92ZM11.94 7.32999C12.2011 7.32999 12.4563 7.40741 12.6734 7.55245C12.8904 7.6975 13.0596 7.90365 13.1595 8.14485C13.2595 8.38605 13.2856 8.65146 13.2347 8.90751C13.1837 9.16357 13.058 9.39877 12.8734 9.58337C12.6888 9.76798 12.4536 9.8937 12.1975 9.94463C11.9415 9.99556 11.6761 9.96942 11.4349 9.86952C11.1937 9.76961 10.9875 9.60042 10.8425 9.38335C10.6974 9.16627 10.62 8.91107 10.62 8.64999C10.6226 8.30072 10.7625 7.96649 11.0095 7.7195C11.2565 7.47252 11.5907 7.33261 11.94 7.32999Z" fill="#262626"/>
<path id="Vector_3" d="M17.18 17.64V19.51H18.18V17.64C18.6955 17.5257 19.1567 17.2389 19.4872 16.8271C19.8177 16.4153 19.9978 15.903 19.9978 15.375C19.9978 14.8469 19.8177 14.3347 19.4872 13.9229C19.1567 13.511 18.6955 13.2243 18.18 13.11V4.50999H17.18V13.11C16.6645 13.2243 16.2034 13.511 15.8728 13.9229C15.5423 14.3347 15.3622 14.8469 15.3622 15.375C15.3622 15.903 15.5423 16.4153 15.8728 16.8271C16.2034 17.2389 16.6645 17.5257 17.18 17.64ZM17.68 14.05C17.9411 14.05 18.1963 14.1274 18.4134 14.2725C18.6304 14.4175 18.7996 14.6237 18.8995 14.8649C18.9994 15.1061 19.0256 15.3715 18.9746 15.6275C18.9237 15.8836 18.798 16.1188 18.6134 16.3034C18.4288 16.488 18.1936 16.6137 17.9375 16.6646C17.6815 16.7156 17.4161 16.6894 17.1749 16.5895C16.9337 16.4896 16.7275 16.3204 16.5825 16.1033C16.4374 15.8863 16.36 15.6311 16.36 15.37C16.36 15.0199 16.4991 14.6842 16.7466 14.4366C16.9942 14.1891 17.3299 14.05 17.68 14.05Z" fill="#262626"/>
</g>
</g>
</g>
<defs>
<clipPath id="clip0_1901_128827">
<rect width="24" height="24" fill="white"/>
</clipPath>
</defs>
</svg>
