<svg width="16" height="16" viewBox="0 0 16 16" fill="none" xmlns="http://www.w3.org/2000/svg">
<g id="Group 34027">
<circle id="Ellipse 16" cx="8" cy="8" r="6.5" stroke="#1D6CEB"/>
<path id="?" d="M7.21292 9.496C7.21499 9.14379 7.24711 8.85891 7.30926 8.64137C7.37142 8.42383 7.45947 8.2498 7.57342 8.11927C7.68737 7.98667 7.84172 7.85926 8.03647 7.73702C8.25194 7.60028 8.41769 7.45939 8.53371 7.31437C8.6518 7.16934 8.71085 7.00152 8.71085 6.81091C8.71085 6.67003 8.67667 6.54468 8.6083 6.43488C8.53993 6.32507 8.44669 6.24013 8.3286 6.18004C8.21258 6.11996 8.08309 6.08992 7.94013 6.08992C7.80132 6.08992 7.67183 6.121 7.55167 6.18315C7.4315 6.24323 7.33309 6.33336 7.25643 6.45352C7.17977 6.57162 7.13834 6.7125 7.13212 6.87618H5.88281C5.8911 6.47839 5.9864 6.14275 6.16872 5.86927C6.35312 5.59372 6.59966 5.38861 6.90837 5.25394C7.21914 5.1172 7.56617 5.04883 7.94946 5.04883C8.35968 5.04883 8.72225 5.1172 9.03716 5.25394C9.35415 5.39068 9.6007 5.58957 9.7768 5.85062C9.95498 6.1096 10.0441 6.41623 10.0441 6.77051C10.0441 7.11651 9.96223 7.41278 9.79856 7.65933C9.63488 7.9038 9.3987 8.11823 9.08999 8.30263C8.91803 8.40622 8.78129 8.51084 8.67977 8.61651C8.57825 8.7201 8.5016 8.84234 8.4498 8.98322C8.40008 9.1241 8.37522 9.29503 8.37522 9.496V9.59544H7.21292V9.496ZM7.81893 11.5782C7.68426 11.5782 7.55995 11.545 7.446 11.4787C7.33412 11.4124 7.24504 11.3233 7.17874 11.2115C7.11244 11.0975 7.08033 10.9742 7.0824 10.8416C7.08033 10.709 7.11244 10.5868 7.17874 10.4749C7.24504 10.3631 7.33516 10.274 7.44911 10.2077C7.56306 10.1414 7.68633 10.1082 7.81893 10.1082C7.94946 10.1082 8.07066 10.1414 8.18254 10.2077C8.29649 10.274 8.38765 10.3631 8.45602 10.4749C8.52439 10.5868 8.55857 10.709 8.55857 10.8416C8.55857 10.9742 8.52439 11.0975 8.45602 11.2115C8.38765 11.3233 8.29649 11.4124 8.18254 11.4787C8.07066 11.545 7.94946 11.5782 7.81893 11.5782Z" fill="#1D6CEB"/>
</g>
</svg>
