<svg width="19" height="19" viewBox="0 0 19 19" fill="none" xmlns="http://www.w3.org/2000/svg">
<g clip-path="url(#clip0_1672_108650)">
<path d="M3.80046 14.9801C3.86876 14.0444 4.26716 13.1635 4.92462 12.4942C5.1902 12.235 5.50487 12.0315 5.85017 11.8956C6.19548 11.7596 6.56445 11.694 6.93546 11.7026H12.0417C12.4139 11.6938 12.7841 11.7593 13.1308 11.8953C13.4774 12.0312 13.7934 12.2348 14.0605 12.4942C14.7104 13.1638 15.103 14.0414 15.1688 14.9722H15.9605C15.9015 13.8331 15.4285 12.7549 14.6305 11.9401C14.2933 11.5967 13.8901 11.3249 13.4452 11.1413C13.0004 10.9576 12.523 10.8658 12.0417 10.8713H6.93546C6.45496 10.8679 5.97871 10.9615 5.53525 11.1465C5.09178 11.3315 4.69022 11.6041 4.35462 11.948C3.55012 12.76 3.07129 13.8388 3.00879 14.9801H3.80046Z" fill="#262626"/>
<path d="M6.17481 6.59432C6.17325 7.25038 6.36626 7.89216 6.72945 8.43852C7.09263 8.98488 7.60967 9.41127 8.21519 9.66378C8.82071 9.91629 9.4875 9.98357 10.1313 9.85711C10.775 9.73066 11.3668 9.41615 11.8318 8.95335C12.2968 8.49056 12.6142 7.90027 12.7437 7.25713C12.8732 6.61398 12.8091 5.94687 12.5595 5.34016C12.3099 4.73344 11.886 4.21437 11.3413 3.84859C10.7967 3.4828 10.1559 3.28672 9.49981 3.28516C8.62071 3.28515 7.77737 3.63328 7.15426 4.25342C6.53116 4.87356 6.179 5.71522 6.17481 6.59432ZM12.0173 6.59432C12.0189 7.09447 11.8719 7.58383 11.595 8.00034C11.3181 8.41685 10.9238 8.74177 10.462 8.93389C10.0002 9.12602 9.49178 9.17669 9.00116 9.0795C8.51054 8.98231 8.05983 8.74163 7.70617 8.38797C7.35251 8.0343 7.11182 7.58359 7.01463 7.09297C6.91744 6.60235 6.96812 6.09392 7.16024 5.63214C7.35237 5.17036 7.67728 4.77603 8.0938 4.49913C8.51031 4.22224 8.99966 4.07526 9.49981 4.07682C10.1669 4.07891 10.806 4.34482 11.2776 4.81649C11.7493 5.28816 12.0152 5.92728 12.0173 6.59432Z" fill="#262626"/>
</g>
<defs>
<clipPath id="clip0_1672_108650">
<rect width="19" height="19" fill="white"/>
</clipPath>
</defs>
</svg>
