<svg width="30" height="30" viewBox="0 0 30 30" fill="none" xmlns="http://www.w3.org/2000/svg">
<g clip-path="url(#clip0_1298_74599)">
<path d="M15 25.625C17.1014 25.625 19.1557 25.0019 20.9029 23.8344C22.6502 22.6669 24.012 21.0075 24.8162 19.066C25.6204 17.1246 25.8308 14.9882 25.4208 12.9272C25.0109 10.8661 23.9989 8.97293 22.513 7.487C21.0271 6.00106 19.1339 4.98913 17.0728 4.57916C15.0118 4.16919 12.8755 4.3796 10.934 5.18378C8.99252 5.98797 7.33313 7.3498 6.16564 9.09707C4.99815 10.8443 4.375 12.8986 4.375 15C4.37831 17.8169 5.49879 20.5175 7.49064 22.5094C9.4825 24.5012 12.1831 25.6217 15 25.625ZM16.25 20.225H13.75V13.975H16.25V20.225ZM15 9.625C15.2804 9.62253 15.5552 9.70359 15.7894 9.85784C16.0236 10.0121 16.2066 10.2326 16.315 10.4912C16.4235 10.7498 16.4525 11.0348 16.3984 11.31C16.3443 11.5851 16.2095 11.8379 16.0112 12.0362C15.8129 12.2345 15.5601 12.3693 15.285 12.4234C15.0098 12.4775 14.7248 12.4485 14.4662 12.34C14.2076 12.2316 13.9871 12.0486 13.8328 11.8144C13.6786 11.5802 13.5975 11.3054 13.6 11.025C13.6 10.6537 13.7475 10.2976 14.01 10.0351C14.2726 9.7725 14.6287 9.625 15 9.625Z" fill="#1D6CEB"/>
</g>
<defs>
<clipPath id="clip0_1298_74599">
<rect width="30" height="30" fill="white"/>
</clipPath>
</defs>
</svg>
