<svg width="32" height="33" viewBox="0 0 32 33" fill="none" xmlns="http://www.w3.org/2000/svg">
<g id="ic_list_info_nor">
<g id="Layer 2">
<g id="solid+contailner">
<path id="Vector" d="M15.9994 27.4961C18.1008 27.4961 20.1551 26.873 21.9023 25.7055C23.6496 24.538 25.0114 22.8786 25.8156 20.9371C26.6198 18.9956 26.8302 16.8593 26.4202 14.7983C26.0103 12.7372 24.9983 10.844 23.5124 9.35809C22.0265 7.87216 20.1333 6.86022 18.0722 6.45025C16.0112 6.04029 13.8748 6.2507 11.9334 7.05488C9.99191 7.85906 8.33252 9.22089 7.16503 10.9682C5.99754 12.7154 5.37439 14.7697 5.37439 16.8711C5.3777 19.688 6.49818 22.3886 8.49003 24.3805C10.4819 26.3723 13.1825 27.4928 15.9994 27.4961ZM17.2494 22.0961H14.7494V15.8461H17.2494V22.0961ZM15.9994 11.4961C16.2798 11.4936 16.5546 11.5747 16.7888 11.7289C17.023 11.8832 17.206 12.1037 17.3144 12.3623C17.4229 12.6209 17.4519 12.9059 17.3978 13.1811C17.3437 13.4562 17.2089 13.709 17.0106 13.9073C16.8123 14.1056 16.5595 14.2404 16.2843 14.2945C16.0092 14.3486 15.7242 14.3196 15.4656 14.2111C15.2069 14.1027 14.9865 13.9197 14.8322 13.6855C14.678 13.4513 14.5969 13.1765 14.5994 12.8961C14.5994 12.5248 14.7469 12.1687 15.0094 11.9061C15.272 11.6436 15.6281 11.4961 15.9994 11.4961Z" fill="#C4C4C4"/>
</g>
</g>
</g>
</svg>
