<svg width="28" height="28" viewBox="0 0 28 28" fill="none" xmlns="http://www.w3.org/2000/svg">
<circle cx="14" cy="14" r="13" stroke="black" stroke-width="2"/>
<path d="M12.4266 16.991C12.4307 16.2866 12.4949 15.7169 12.6192 15.2818C12.7436 14.8467 12.9197 14.4986 13.1476 14.2376C13.3755 13.9724 13.6842 13.7175 14.0737 13.4731C14.5046 13.1996 14.8361 12.9178 15.0681 12.6278C15.3043 12.3377 15.4224 12.0021 15.4224 11.6209C15.4224 11.3391 15.354 11.0884 15.2173 10.8688C15.0806 10.6492 14.8941 10.4793 14.6579 10.3591C14.4259 10.2389 14.1669 10.1789 13.881 10.1789C13.6034 10.1789 13.3444 10.241 13.104 10.3653C12.8637 10.4855 12.6669 10.6657 12.5136 10.9061C12.3603 11.1423 12.2774 11.424 12.265 11.7514H9.76634C9.78292 10.9558 9.97352 10.2845 10.3382 9.73757C10.707 9.18646 11.2 8.77624 11.8174 8.50691C12.439 8.23342 13.1331 8.09668 13.8996 8.09668C14.7201 8.09668 15.4452 8.23342 16.075 8.50691C16.709 8.78039 17.2021 9.17818 17.5543 9.70028C17.9107 10.2182 18.0889 10.8315 18.0889 11.5401C18.0889 12.232 17.9252 12.8246 17.5978 13.3177C17.2705 13.8066 16.7981 14.2355 16.1807 14.6043C15.8368 14.8115 15.5633 15.0207 15.3603 15.232C15.1572 15.4392 15.0039 15.6837 14.9003 15.9655C14.8009 16.2472 14.7511 16.5891 14.7511 16.991V17.1899H12.4266V16.991ZM13.6386 21.1554C13.3692 21.1554 13.1206 21.0891 12.8927 20.9565C12.669 20.8239 12.4908 20.6457 12.3582 20.422C12.2256 20.1941 12.1614 19.9475 12.1655 19.6823C12.1614 19.4171 12.2256 19.1727 12.3582 18.9489C12.4908 18.7251 12.671 18.547 12.8989 18.4144C13.1268 18.2818 13.3734 18.2155 13.6386 18.2155C13.8996 18.2155 14.142 18.2818 14.3658 18.4144C14.5937 18.547 14.776 18.7251 14.9128 18.9489C15.0495 19.1727 15.1179 19.4171 15.1179 19.6823C15.1179 19.9475 15.0495 20.1941 14.9128 20.422C14.776 20.6457 14.5937 20.8239 14.3658 20.9565C14.142 21.0891 13.8996 21.1554 13.6386 21.1554Z" fill="black"/>
</svg>
