<svg width="24" height="24" viewBox="0 0 24 24" fill="none" xmlns="http://www.w3.org/2000/svg">
<g clip-path="url(#clip0_1503_106744)">
<path d="M18.0696 9.87891L17.3496 10.5689C17.7723 11.0163 18.0077 11.6084 18.0077 12.2239C18.0077 12.8394 17.7723 13.4315 17.3496 13.8789L18.0696 14.5689C18.6718 13.9367 19.0077 13.097 19.0077 12.2239C19.0077 11.3508 18.6718 10.5111 18.0696 9.87891Z" fill="#1D6CEB"/>
<path d="M18.5498 8.56891C19.4883 9.55438 20.0117 10.8631 20.0117 12.2239C20.0117 13.5847 19.4883 14.8934 18.5498 15.8789L19.2698 16.5689C20.3856 15.3975 21.0079 13.8417 21.0079 12.2239C21.0079 10.6061 20.3856 9.05036 19.2698 7.87891L18.5498 8.56891Z" fill="#1D6CEB"/>
<path d="M7.99975 18.3966V15.8466L14.8297 18.8466C14.8957 18.8772 14.9671 18.8942 15.0397 18.8966C15.137 18.8959 15.2315 18.8644 15.3097 18.8066C15.3788 18.7623 15.4358 18.7018 15.4759 18.6303C15.516 18.5588 15.538 18.4785 15.5397 18.3966V6.04658C15.5396 5.96292 15.5185 5.88063 15.4783 5.80725C15.4381 5.73387 15.3802 5.67175 15.3097 5.62658C15.2352 5.58957 15.153 5.57031 15.0697 5.57031C14.9865 5.57031 14.9043 5.58957 14.8297 5.62658L4.33975 10.2066C3.95335 10.379 3.62516 10.6596 3.39486 11.0145C3.16455 11.3694 3.04199 11.7835 3.04199 12.2066C3.04199 12.6297 3.16455 13.0437 3.39486 13.3987C3.62516 13.7536 3.95335 14.0342 4.33975 14.2066L6.99975 15.4066V18.4066L7.99975 18.3966Z" fill="#1D6CEB"/>
</g>
<defs>
<clipPath id="clip0_1503_106744">
<rect width="24" height="24" fill="white" transform="translate(0 0.207031)"/>
</clipPath>
</defs>
</svg>
