<svg width="65" height="65" viewBox="0 0 65 65" fill="none" xmlns="http://www.w3.org/2000/svg">
<g id="ic_no_list" opacity="0.4" clip-path="url(#clip0_563_27942)">
<g id="Layer 2">
<g id="line + container">
<path id="Vector" d="M32.4993 55.5208C37.0524 55.5208 41.5033 54.1707 45.289 51.6411C49.0748 49.1115 52.0254 45.5162 53.7678 41.3097C55.5102 37.1032 55.9661 32.4744 55.0778 28.0088C54.1896 23.5432 51.9971 19.4413 48.7775 16.2218C45.558 13.0023 41.4561 10.8097 36.9905 9.92148C32.5249 9.03321 27.8962 9.4891 23.6897 11.2315C19.4831 12.9739 15.8878 15.9245 13.3582 19.7103C10.8287 23.496 9.47852 27.9469 9.47852 32.5C9.48568 38.6033 11.9134 44.4545 16.2291 48.7702C20.5448 53.0859 26.396 55.5136 32.4993 55.5208ZM32.4993 12.1875C36.5168 12.1875 40.444 13.3788 43.7844 15.6107C47.1247 17.8427 49.7282 21.0151 51.2657 24.7267C52.8031 28.4383 53.2053 32.5225 52.4216 36.4627C51.6378 40.403 49.7032 44.0223 46.8625 46.8631C44.0217 49.7038 40.4024 51.6384 36.4621 52.4222C32.5219 53.2059 28.4377 52.8037 24.7261 51.2663C21.0145 49.7289 17.8421 47.1254 15.6101 43.785C13.3782 40.4446 12.1868 36.5174 12.1868 32.5C12.1868 27.1128 14.3269 21.9462 18.1362 18.1369C21.9456 14.3275 27.1121 12.1875 32.4993 12.1875Z" fill="#C4C4C4"/>
<path id="Vector_2" d="M35.2077 38.4042H29.791V43.8208H35.2077V38.4042Z" fill="#C4C4C4"/>
<path id="Vector_3" d="M35.2077 21.1792H29.791V34.775H35.2077V21.1792Z" fill="#C4C4C4"/>
</g>
</g>
</g>
<defs>
<clipPath id="clip0_563_27942">
<rect width="65" height="65" fill="white"/>
</clipPath>
</defs>
</svg>
