<svg width="24" height="24" viewBox="0 0 24 24" fill="none" xmlns="http://www.w3.org/2000/svg">
<g id="ic_nfc">
<g id="Group 34258">
<g id="NFC">
<path d="M8.62064 15.8256H9.67146V20.2998H8.77575L6.96249 17.6716H6.93191V20.2998H5.87891V15.8256H6.78991L8.5835 18.4494H8.62064V15.8256Z" fill="#262626"/>
<path d="M11.3989 20.2998H10.3459V15.8256H13.3804V16.6864H11.3989V17.6323H13.186V18.4909H11.3989V20.2998Z" fill="#262626"/>
<path d="M17.9543 17.4379H16.8882C16.8314 16.9791 16.4993 16.6907 16.0012 16.6907C15.3415 16.6907 14.9373 17.1932 14.9373 18.0627C14.9373 18.965 15.3502 19.4347 15.9947 19.4347C16.4775 19.4347 16.8096 19.1747 16.8882 18.7356L17.9543 18.7421C17.8691 19.5395 17.1875 20.361 15.975 20.361C14.7647 20.361 13.8603 19.533 13.8603 18.0627C13.8603 16.5881 14.7844 15.7645 15.975 15.7645C17.0477 15.7645 17.8407 16.3718 17.9543 17.4379Z" fill="#262626"/>
</g>
<g id="Intersect">
<path d="M5.73684 9.45765C9.19589 5.99861 14.8041 5.99861 18.2632 9.45765L17.3684 10.3524C14.4035 7.38749 9.59648 7.38749 6.63158 10.3524L5.73684 9.45765Z" fill="#262626"/>
<path d="M16.0263 11.6945C13.8026 9.47082 10.1974 9.47082 7.97368 11.6945L8.86842 12.5892C10.5979 10.8597 13.4021 10.8597 15.1316 12.5892L16.0263 11.6945Z" fill="#262626"/>
<path d="M19.6053 8.11555L20.5 7.22081C15.8056 2.52639 8.19442 2.52639 3.5 7.22081L4.39474 8.11555C8.59501 3.91528 15.405 3.91528 19.6053 8.11555Z" fill="#262626"/>
</g>
</g>
</g>
</svg>
