<svg width="19" height="19" viewBox="0 0 19 19" fill="none" xmlns="http://www.w3.org/2000/svg">
<g clip-path="url(#clip0_1672_108663)">
<path d="M4.35384 16.625H14.6455C14.7505 16.625 14.8512 16.5833 14.9254 16.5091C14.9996 16.4348 15.0413 16.3341 15.0413 16.2292V8.70833C15.0413 8.60335 14.9996 8.50267 14.9254 8.42844C14.8512 8.3542 14.7505 8.3125 14.6455 8.3125H13.458V6.48375C13.4771 5.41424 13.071 4.38086 12.3288 3.61051C11.5867 2.84016 10.5692 2.3958 9.49967 2.375C8.43019 2.3958 7.41268 2.84016 6.67053 3.61051C5.92838 4.38086 5.52226 5.41424 5.54134 6.48375H6.33301C6.31598 5.62478 6.63938 4.79393 7.23263 4.1725C7.82588 3.55107 8.64084 3.18949 9.49967 3.16667C10.3592 3.18742 11.1754 3.54836 11.7691 4.17025C12.3628 4.79214 12.6855 5.62418 12.6663 6.48375V8.3125H4.35384C4.24886 8.3125 4.14818 8.3542 4.07394 8.42844C3.99971 8.50267 3.95801 8.60335 3.95801 8.70833V16.2292C3.95801 16.3341 3.99971 16.4348 4.07394 16.5091C4.14818 16.5833 4.24886 16.625 4.35384 16.625ZM4.74967 9.10417H14.2497V15.8333H4.74967V9.10417Z" fill="#262626"/>
<path d="M9.50033 10.293C9.06974 10.293 8.64882 10.4207 8.2908 10.6599C7.93278 10.8991 7.65374 11.2391 7.48896 11.6369C7.32419 12.0347 7.28107 12.4725 7.36508 12.8948C7.44908 13.3171 7.65643 13.705 7.9609 14.0095C8.26537 14.314 8.65329 14.5213 9.0756 14.6053C9.49791 14.6893 9.93565 14.6462 10.3335 14.4814C10.7313 14.3166 11.0713 14.0376 11.3105 13.6796C11.5497 13.3216 11.6774 12.9006 11.6774 12.4701C11.6774 11.8927 11.448 11.3389 11.0398 10.9306C10.6315 10.5223 10.0777 10.293 9.50033 10.293ZM9.50033 13.8555C9.22632 13.8555 8.95846 13.7742 8.73063 13.622C8.5028 13.4698 8.32523 13.2534 8.22037 13.0002C8.11551 12.7471 8.08807 12.4685 8.14153 12.1998C8.19499 11.931 8.32693 11.6842 8.52069 11.4904C8.71444 11.2967 8.9613 11.1647 9.23005 11.1113C9.49879 11.0578 9.77735 11.0852 10.0305 11.1901C10.2837 11.295 10.5 11.4725 10.6523 11.7004C10.8045 11.9282 10.8857 12.196 10.8857 12.4701C10.8857 12.8375 10.7398 13.1899 10.48 13.4497C10.2201 13.7095 9.86776 13.8555 9.50033 13.8555Z" fill="#262626"/>
</g>
<defs>
<clipPath id="clip0_1672_108663">
<rect width="19" height="19" fill="white"/>
</clipPath>
</defs>
</svg>
