<svg width="24" height="24" viewBox="0 0 24 24" fill="none" xmlns="http://www.w3.org/2000/svg">
<g id="ic_phone_call" clip-path="url(#clip0_1519_140991)">
<g id="Layer 2">
<g id="solid+contailner">
<path id="Vector" d="M9.68069 7.91015L7.75069 4.91015C7.67754 4.79751 7.57985 4.70289 7.46494 4.63338C7.35003 4.56386 7.22087 4.52126 7.08715 4.50875C6.95343 4.49624 6.81862 4.51416 6.69281 4.56116C6.567 4.60817 6.45346 4.68303 6.36069 4.78015L5.61069 5.54015C5.22822 5.91248 4.93232 6.36437 4.74396 6.8638C4.55559 7.36323 4.47937 7.89798 4.52069 8.43015C4.67069 10.0602 5.52069 12.5701 8.43069 15.5701C11.3407 18.5701 13.9407 19.3201 15.5607 19.4701C16.0969 19.5159 16.6365 19.4428 17.1413 19.2561C17.646 19.0694 18.1033 18.7738 18.4807 18.3901L19.2307 17.6301C19.3278 17.5374 19.4027 17.4238 19.4497 17.298C19.4967 17.1722 19.5146 17.0374 19.5021 16.9037C19.4896 16.77 19.447 16.6408 19.3775 16.5259C19.3079 16.411 19.2133 16.3133 19.1007 16.2401L16.1007 14.3201C15.9335 14.2087 15.7332 14.1579 15.533 14.1761C15.3329 14.1943 15.1451 14.2804 15.0007 14.4201C13.8407 15.6401 11.7107 14.6401 10.5507 13.4701C9.39069 12.3002 8.37069 10.1701 9.55069 9.01015C9.69348 8.86847 9.78406 8.6826 9.80767 8.48284C9.83127 8.28308 9.78652 8.08121 9.68069 7.91015V7.91015Z" fill="#262626"/>
</g>
</g>
</g>
<defs>
<clipPath id="clip0_1519_140991">
<rect width="24" height="24" fill="white"/>
</clipPath>
</defs>
</svg>
