<svg width="24" height="24" viewBox="0 0 24 24" fill="none" xmlns="http://www.w3.org/2000/svg">
<g clip-path="url(#clip0_618_28267)">
<path d="M16.61 9.35C16.7739 9.34624 16.936 9.31584 17.09 9.26C17.3619 9.17968 17.6071 9.0277 17.8 8.82C18.0734 8.51844 18.2264 8.12698 18.23 7.72C18.23 7.29035 18.0594 6.87829 17.7556 6.57449C17.4517 6.27068 17.0397 6.1 16.61 6.1C16.3404 6.09854 16.0749 6.16748 15.84 6.3C15.5843 6.43806 15.3709 6.6432 15.2229 6.89338C15.0749 7.14356 14.9979 7.42933 15 7.72C15 8.14886 15.169 8.56045 15.4704 8.86557C15.7717 9.17068 16.1812 9.34474 16.61 9.35Z" fill="#FF4555"/>
<path d="M12.0004 19.5C12.4586 19.498 12.9001 19.3279 13.2411 19.0219C13.5821 18.7159 13.7989 18.2953 13.8504 17.84H10.1504C10.2018 18.2953 10.4187 18.7159 10.7597 19.0219C11.1007 19.3279 11.5422 19.498 12.0004 19.5Z" fill="#353535"/>
<path d="M12.5101 4.52L12.0001 4.5C11.6643 4.49967 11.3292 4.53317 11.0001 4.6H10.9001C10.6062 4.66069 10.3184 4.7477 10.0401 4.86H9.92011C9.65463 4.97285 9.40021 5.11011 9.16011 5.27L9.05011 5.35C8.82142 5.54454 8.61363 5.76238 8.43011 6L8.33011 6.1C8.13348 6.30585 7.95295 6.5265 7.79011 6.76L7.72011 6.87C7.55487 7.11207 7.41418 7.37002 7.30011 7.64C7.29613 7.67322 7.29613 7.70679 7.30011 7.74C7.17242 8.00933 7.07192 8.29072 7.00011 8.58C7.00011 8.58 7.00011 8.63 7.00011 8.65C6.93823 8.97969 6.90809 9.31456 6.91011 9.65V13.16L4.60011 16.35C4.547 16.4191 4.51463 16.5019 4.50676 16.5887C4.49889 16.6756 4.51586 16.7628 4.55568 16.8404C4.5955 16.9179 4.65654 16.9826 4.73169 17.0268C4.80683 17.071 4.89298 17.0929 4.98011 17.09H19.0001C19.0882 17.0896 19.1746 17.0654 19.2501 17.02C19.304 16.9857 19.3503 16.9408 19.3863 16.888C19.4223 16.8352 19.4471 16.7757 19.4592 16.713C19.4714 16.6503 19.4707 16.5857 19.4571 16.5233C19.4435 16.4609 19.4173 16.402 19.3801 16.35L17.1001 13.14V10C16.9267 10.0436 16.7489 10.0671 16.5701 10.07C15.9397 10.0674 15.3359 9.81578 14.8901 9.37001C14.4443 8.92424 14.1927 8.32041 14.1901 7.69C14.185 7.29451 14.2795 6.9041 14.4647 6.55463C14.6499 6.20516 14.92 5.90784 15.2501 5.69C14.966 5.43566 14.654 5.21426 14.3201 5.03C13.7561 4.74282 13.1411 4.56952 12.5101 4.52Z" fill="#353535"/>
</g>
<defs>
<clipPath id="clip0_618_28267">
<rect width="24" height="24" fill="white"/>
</clipPath>
</defs>
</svg>
