<svg width="24" height="24" viewBox="0 0 24 24" fill="none" xmlns="http://www.w3.org/2000/svg">
<g clip-path="url(#clip0_4904_35580)">
<path d="M17.4408 15.3207C18.7545 14.526 19.8156 13.3747 20.5008 12.0007C19.6783 10.4777 18.4467 9.21476 16.9449 8.35428C15.443 7.4938 13.7306 7.07002 12.0008 7.13071C11.1754 7.13745 10.3534 7.2381 9.55078 7.43071L11.0708 9.00071C11.3667 8.87881 11.6812 8.80781 12.0008 8.79071C12.8521 8.79071 13.6686 9.12891 14.2706 9.7309C14.8726 10.3329 15.2108 11.1494 15.2108 12.0007C15.2048 12.317 15.1508 12.6306 15.0508 12.9307L17.4408 15.3207Z" fill="#C4C4C4"/>
<path d="M12 16.8697C12.8254 16.8629 13.6474 16.7623 14.45 16.5697L12.93 15.0497C12.6311 15.1545 12.3168 15.2086 12 15.2097C11.1487 15.2097 10.3322 14.8715 9.73019 14.2695C9.1282 13.6675 8.79 12.851 8.79 11.9997C8.80709 11.6801 8.87809 11.3656 9 11.0697L6.56 8.67969C5.2463 9.47439 4.18517 10.6257 3.5 11.9997C4.32246 13.5227 5.55406 14.7856 7.05592 15.6461C8.55778 16.5066 10.2702 16.9304 12 16.8697Z" fill="#C4C4C4"/>
<path d="M5.2393 4.53125L4.5293 5.24125L7.4693 8.18125L9.4093 10.1212L13.8793 14.5912L15.5393 16.2412L18.7593 19.4712L19.4693 18.7612L16.5293 15.8212L14.5893 13.8813L10.1193 9.41125L8.4593 7.76125L5.2393 4.53125Z" fill="#C4C4C4"/>
</g>
<defs>
<clipPath id="clip0_4904_35580">
<rect width="24" height="24" fill="white"/>
</clipPath>
</defs>
</svg>
