<svg width="60" height="62" viewBox="0 0 60 62" fill="none" xmlns="http://www.w3.org/2000/svg">
<rect x="10.0547" y="55.6221" width="9.11431" height="39.9218" rx="2.45455" transform="rotate(-135 10.0547 55.6221)" fill="#1D6CEB"/>
<rect x="18.4961" y="47.1592" width="9.08454" height="10.788" transform="rotate(-135 18.4961 47.1592)" fill="#5496FF"/>
<rect x="33.4023" y="47.0086" width="29.9537" height="29.9537" rx="14.9768" transform="rotate(-135 33.4023 47.0086)" fill="white" stroke="#95DEB2" stroke-width="6.13636"/>
<path d="M31.6755 29.1219C31.68 28.3534 31.7501 27.7319 31.8857 27.2572C32.0213 26.7826 32.2134 26.4029 32.462 26.1181C32.7107 25.8288 33.0474 25.5508 33.4723 25.2841C33.9424 24.9857 34.3041 24.6784 34.5572 24.3619C34.8149 24.0455 34.9437 23.6794 34.9437 23.2635C34.9437 22.9561 34.8691 22.6826 34.7199 22.4431C34.5708 22.2035 34.3674 22.0181 34.1097 21.8871C33.8566 21.756 33.574 21.6904 33.2621 21.6904C32.9593 21.6904 32.6768 21.7582 32.4146 21.8938C32.1524 22.0249 31.9377 22.2216 31.7704 22.4837C31.6032 22.7414 31.5128 23.0488 31.4992 23.4059H28.7734C28.7915 22.538 28.9995 21.8057 29.3972 21.209C29.7996 20.6078 30.3375 20.1603 31.011 19.8665C31.6891 19.5681 32.4462 19.4189 33.2825 19.4189C34.1775 19.4189 34.9686 19.5681 35.6557 19.8665C36.3473 20.1648 36.8852 20.5988 37.2694 21.1683C37.6582 21.7334 37.8525 22.4024 37.8525 23.1753C37.8525 23.9302 37.674 24.5767 37.3169 25.1146C36.9598 25.648 36.4445 26.1158 35.7709 26.5181C35.3957 26.7442 35.0974 26.9724 34.8759 27.203C34.6544 27.429 34.4871 27.6957 34.3741 28.0031C34.2657 28.3105 34.2114 28.6834 34.2114 29.1219V29.3388H31.6755V29.1219Z" fill="#1D6CEB"/>
<path d="M34.3741 33.4953L31.551 33.4953L31.551 31.0407H33.0011H34.3741L34.3741 33.4953Z" fill="#1D6CEB"/>
</svg>
