<svg width="24" height="24" viewBox="0 0 24 24" fill="none" xmlns="http://www.w3.org/2000/svg">
<g clip-path="url(#clip0_5013_35475)">
<path d="M12 7.13071C10.2702 7.07002 8.55778 7.4938 7.05592 8.35428C5.55406 9.21476 4.32246 10.4777 3.5 12.0007C4.32246 13.5237 5.55406 14.7867 7.05592 15.6471C8.55778 16.5076 10.2702 16.9314 12 16.8707C13.7298 16.9314 15.4422 16.5076 16.9441 15.6471C18.4459 14.7867 19.6775 13.5237 20.5 12.0007C19.6775 10.4777 18.4459 9.21476 16.9441 8.35428C15.4422 7.4938 13.7298 7.07002 12 7.13071ZM12 15.2107C11.3651 15.2107 10.7445 15.0225 10.2166 14.6697C9.68874 14.317 9.2773 13.8157 9.03435 13.2291C8.79139 12.6426 8.72782 11.9972 8.85168 11.3745C8.97554 10.7518 9.28126 10.1798 9.73019 9.7309C10.1791 9.28198 10.7511 8.97625 11.3738 8.85239C11.9964 8.72853 12.6419 8.7921 13.2284 9.03506C13.815 9.27802 14.3163 9.68945 14.669 10.2173C15.0217 10.7452 15.21 11.3658 15.21 12.0007C15.21 12.8521 14.8718 13.6685 14.2698 14.2705C13.6678 14.8725 12.8513 15.2107 12 15.2107Z" fill="#C4C4C4"/>
</g>
<defs>
<clipPath id="clip0_5013_35475">
<rect width="24" height="24" fill="white"/>
</clipPath>
</defs>
</svg>
