<svg width="24" height="24" viewBox="0 0 24 24" fill="none" xmlns="http://www.w3.org/2000/svg">
<path d="M12.0004 19.5C12.4586 19.498 12.9001 19.3279 13.2411 19.0219C13.5821 18.7159 13.7989 18.2953 13.8504 17.84H10.1504C10.2018 18.2953 10.4187 18.7159 10.7597 19.0219C11.1007 19.3279 11.5422 19.498 12.0004 19.5Z" fill="#353535"/>
<path d="M16.6601 7.65C16.4589 7.1517 16.1786 6.6891 15.8301 6.28C15.4181 5.79566 14.9196 5.39214 14.3601 5.09C13.7883 4.77685 13.159 4.58294 12.5101 4.52L12.0001 4.5C11.6643 4.49967 11.3292 4.53317 11.0001 4.6H10.9001C10.6062 4.66069 10.3184 4.7477 10.0401 4.86H9.92011C9.65463 4.97285 9.40021 5.11011 9.16011 5.27L9.05011 5.35C8.82142 5.54454 8.61363 5.76238 8.43011 6L8.33011 6.1C8.13112 6.30376 7.95042 6.52461 7.79011 6.76L7.72011 6.87C7.55487 7.11207 7.41418 7.37002 7.30011 7.64C7.29613 7.67322 7.29613 7.70679 7.30011 7.74C7.17242 8.00933 7.07192 8.29072 7.00011 8.58C6.99543 8.59973 6.99543 8.62028 7.00011 8.64C6.93151 8.96886 6.89799 9.30407 6.90011 9.64V13.15L4.60011 16.35C4.547 16.4191 4.51463 16.5019 4.50676 16.5887C4.49889 16.6756 4.51586 16.7628 4.55568 16.8404C4.5955 16.9179 4.65654 16.9826 4.73169 17.0268C4.80683 17.071 4.89298 17.0929 4.98011 17.09H19.0001C19.0857 17.0891 19.1695 17.0649 19.2424 17.0199C19.3152 16.9749 19.3744 16.9109 19.4135 16.8347C19.4526 16.7586 19.4702 16.6731 19.4643 16.5877C19.4584 16.5023 19.4293 16.4201 19.3801 16.35L17.1001 13.14V9.85C17.107 9.09415 16.9572 8.34506 16.6601 7.65Z" fill="#353535"/>
</svg>
