<svg width="24" height="24" viewBox="0 0 24 24" fill="none" xmlns="http://www.w3.org/2000/svg">
<g id="QR code" clip-path="url(#clip0_1901_128844)">
<g id="Layer 2">
<g id="line + container">
<path id="Vector" d="M7.70999 6.24H6.23999V7.71H7.70999V6.24Z" fill="#262626"/>
<path id="Vector_2" d="M4.46997 9.48H9.46997V4.48H4.46997V9.48ZM5.46997 5.48H8.46997V8.48H5.46997V5.48Z" fill="#262626"/>
<path id="Vector_3" d="M7.70999 16.28H6.23999V17.75H7.70999V16.28Z" fill="#262626"/>
<path id="Vector_4" d="M5.5 10.47H4.5V11.49V12.5V13.51H5.5V12.5V11.49H6.5V10.47H5.5Z" fill="#262626"/>
<path id="Vector_5" d="M9.5 11.49H8.5V10.47H7.5V11.49H6.5V12.5V13.51H7.5H8.5H9.5V12.5H10.5V11.49H9.5Z" fill="#262626"/>
<path id="Vector_6" d="M11.5 8.45V7.44H12.5V6.42H11.5V5.41H10.5V6.42V7.44V8.45V9.46V10.47H11.5V9.46V8.45Z" fill="#262626"/>
<path id="Vector_7" d="M13.5 5.41V4.4H12.5H11.5V5.41H12.5H13.5Z" fill="#262626"/>
<path id="Vector_8" d="M12.5 9.46H13.5V8.45V7.44H12.5V8.45V9.46Z" fill="#262626"/>
<path id="Vector_9" d="M16.5 11.49V10.47H15.5H14.5V11.49H15.5H16.5Z" fill="#262626"/>
<path id="Vector_10" d="M19.5 10.47H18.5V11.48H19.5V10.47Z" fill="#262626"/>
<path id="Vector_11" d="M11.5 15.45H10.5V16.46H11.5V15.45Z" fill="#262626"/>
<path id="Vector_12" d="M11.5 16.46V17.47H10.5V18.48H11.5V19.5H12.5H13.5H14.5V18.48H13.5H12.5V17.47H13.5V16.46H12.5H11.5Z" fill="#262626"/>
<path id="Vector_13" d="M14.5 15.45H13.5V16.46H14.5H15.5V15.45H14.5Z" fill="#262626"/>
<path id="Vector_14" d="M18.5 13.51V12.5H17.5H16.5H15.5V13.51H16.5H17.5V14.53H16.5H15.5V13.51H14.5V12.5H13.5V13.51H12.5V12.5H13.5V11.49V10.47H12.5H11.5V11.49V12.5H10.5V13.51V14.52H11.5V15.45H12.5H13.5V14.52H14.5H15.5V15.45H16.5V16.22V16.46H15.5V17.47H16.5V17.52V18.48V19.5H17.5V18.48H18.5V17.47V16.46H17.5V16.22V15.45V14.52H18.5V15.45V16.46H19.5V15.45V14.52V14.43V13.51H18.5Z" fill="#262626"/>
<path id="Vector_15" d="M19.5 18.48H18.5V19.49H19.5V18.48Z" fill="#262626"/>
<path id="Vector_16" d="M4.46997 19.53H9.46997V14.53H4.46997V19.53ZM5.46997 15.53H8.46997V18.53H5.46997V15.53Z" fill="#262626"/>
<path id="Vector_17" d="M17.76 6.24H16.29V7.71H17.76V6.24Z" fill="#262626"/>
<path id="Vector_18" d="M19.53 4.47H14.53V9.47H19.53V4.47ZM18.53 8.47H15.53V5.47H18.53V8.47Z" fill="#262626"/>
</g>
</g>
</g>
<defs>
<clipPath id="clip0_1901_128844">
<rect width="24" height="24" fill="white"/>
</clipPath>
</defs>
</svg>
