<svg width="20" height="20" viewBox="0 0 20 20" fill="none" xmlns="http://www.w3.org/2000/svg">
<g id="refresh" clip-path="url(#clip0_441_30922)">
<g id="Layer 2">
<g id="line + container">
<path id="Vector" d="M6.99089 13.333H4.49089C4.38038 13.333 4.2744 13.3769 4.19626 13.455C4.11812 13.5332 4.07422 13.6392 4.07422 13.7497V16.2497H4.90755V14.9163C5.88637 15.9344 7.14745 16.6361 8.52849 16.9314C9.90952 17.2266 11.3473 17.1018 12.6568 16.573C13.9663 16.0442 15.0876 15.1356 15.8763 13.9641C16.6651 12.7926 17.0852 11.4119 17.0826 9.99967C17.0778 9.3952 16.9994 8.79355 16.8492 8.20801L16.0159 8.41634C16.162 8.93176 16.2405 9.46401 16.2492 9.99967C16.2328 11.2489 15.8424 12.4646 15.1284 13.4898C14.4144 14.515 13.4095 15.3027 12.2434 15.7511C11.0773 16.1996 9.80357 16.2884 8.58657 16.0059C7.36957 15.7234 6.26517 15.0826 5.41589 14.1663H6.99089V13.333Z" fill="#262626"/>
<path id="Vector_2" d="M3.14941 11.7913L3.98275 11.583C3.84062 11.0667 3.76226 10.535 3.74941 9.99965C3.75686 8.74129 4.14399 7.51449 4.86014 6.47976C5.57628 5.44504 6.5881 4.65059 7.76318 4.20037C8.93826 3.75014 10.2219 3.66512 11.4461 3.95641C12.6703 4.24771 13.778 4.90176 14.6244 5.83298H13.0161V6.66632H15.5161C15.6266 6.66632 15.7326 6.62242 15.8107 6.54428C15.8888 6.46614 15.9327 6.36016 15.9327 6.24965V3.74965H15.0994V5.07465C14.1206 4.05316 12.8581 3.34858 11.4748 3.05188C10.0915 2.75517 8.65108 2.87999 7.33946 3.4102C6.02785 3.94041 4.90531 4.85166 4.1168 6.02628C3.3283 7.2009 2.91006 8.58493 2.91608 9.99965C2.92088 10.6041 2.99924 11.2058 3.14941 11.7913Z" fill="#262626"/>
</g>
</g>
</g>
<defs>
<clipPath id="clip0_441_30922">
<rect width="20" height="20" fill="white"/>
</clipPath>
</defs>
</svg>
