<svg width="24" height="24" viewBox="0 0 24 24" fill="none" xmlns="http://www.w3.org/2000/svg">
<g id="ic_smartphone_nor" clip-path="url(#clip0_823_39456)">
<g id="Layer 2">
<g id="solid+contailner">
<path id="Vector" d="M16.3707 20.51C16.5102 20.5241 16.6511 20.5086 16.7842 20.4647C16.9173 20.4207 17.0397 20.3493 17.1434 20.255C17.2471 20.1607 17.3299 20.0456 17.3863 19.9173C17.4426 19.789 17.4714 19.6502 17.4707 19.51V4.51004C17.4643 4.3721 17.4307 4.23678 17.372 4.11182C17.3132 3.98687 17.2303 3.87474 17.1282 3.78185C17.026 3.68896 16.9065 3.61714 16.7765 3.5705C16.6465 3.52386 16.5086 3.50331 16.3707 3.51003H7.57072C7.43279 3.50331 7.29489 3.52386 7.16492 3.5705C7.03495 3.61714 6.91545 3.68896 6.81328 3.78185C6.7111 3.87474 6.62825 3.98687 6.56947 4.11182C6.51069 4.23678 6.47713 4.3721 6.47072 4.51004V19.51C6.47001 19.6502 6.49879 19.789 6.55518 19.9173C6.61157 20.0456 6.69431 20.1607 6.79803 20.255C6.90175 20.3493 7.02414 20.4207 7.15726 20.4647C7.29037 20.5086 7.43124 20.5241 7.57072 20.51H16.3707ZM13.3207 18.88H10.6207V17.88H13.3207V18.88ZM8.00072 5.61003H15.9407V16.29H8.00072V5.61003Z" fill="#353535"/>
</g>
</g>
</g>
<defs>
<clipPath id="clip0_823_39456">
<rect width="24" height="24" fill="white"/>
</clipPath>
</defs>
</svg>
