<svg width="49" height="48" viewBox="0 0 49 48" fill="none" xmlns="http://www.w3.org/2000/svg">
<path d="M40.575 24C40.575 32.878 33.378 40.075 24.5 40.075C15.622 40.075 8.425 32.878 8.425 24C8.425 15.122 15.622 7.925 24.5 7.925C33.378 7.925 40.575 15.122 40.575 24Z" stroke="#646464" stroke-width="1.6"/>
<path d="M19.327 23.7962C20.5 23.7962 21.4509 22.6819 21.4509 21.3073C21.4509 19.9327 20.5 18.8184 19.327 18.8184C18.154 18.8184 17.2031 19.9327 17.2031 21.3073C17.2031 22.6819 18.154 23.7962 19.327 23.7962Z" fill="#646464"/>
<path d="M32.5641 23.9789C32.4272 23.9789 32.2903 23.9415 32.17 23.8627C29.9881 22.444 27.4203 22.1785 27.3954 22.1744C27.1133 22.1454 26.8727 21.9587 26.7815 21.6891C26.6902 21.4194 26.7607 21.1249 26.964 20.9258C28.3702 19.5735 30.7762 18.5488 30.8758 18.5074C31.245 18.3497 31.6722 18.524 31.8257 18.8931C31.9834 19.2623 31.8091 19.6896 31.4399 19.8431C31.4233 19.8514 30.2826 20.3367 29.1916 21.0378C30.2452 21.3033 31.6473 21.7886 32.9623 22.6431C33.2983 22.863 33.3938 23.311 33.1739 23.647C33.037 23.8627 32.8006 23.9789 32.5641 23.9789Z" fill="#646464"/>
<path d="M29.6466 28.0579C30.3955 27.7378 31.3138 28.2866 31.0609 29.0608C30.2292 31.6067 27.7502 33.4489 24.5018 33.4489C21.2354 33.4489 18.7469 31.5834 17.929 29.0167C17.6844 28.2493 18.5837 27.7067 19.3251 28.0217C20.5544 28.544 22.3826 29.1057 24.5599 29.1057C26.6869 29.1057 28.4491 28.5696 29.6466 28.0579Z" stroke="#646464" stroke-width="1.6"/>
</svg>
