<svg width="24" height="24" viewBox="0 0 24 24" fill="none" xmlns="http://www.w3.org/2000/svg">
<g clip-path="url(#clip0_536_29603)">
<path d="M10.5695 18C12.3574 17.9971 14.0838 17.347 15.4295 16.17L19.9995 20.68L20.7095 19.97L16.1695 15.43C17.2692 14.1519 17.8988 12.5362 17.9538 10.8511C18.0088 9.16593 17.4859 7.51263 16.4719 6.16557C15.4579 4.81851 14.0138 3.8587 12.3792 3.44542C10.7445 3.03214 9.01775 3.19025 7.48536 3.8935C5.95298 4.59676 4.70714 5.80287 3.95463 7.31168C3.20211 8.82048 2.98816 10.5412 3.34828 12.1884C3.7084 13.8355 4.62093 15.31 5.93444 16.3671C7.24795 17.4242 8.88345 18.0004 10.5695 18ZM10.5695 4.20998C11.8362 4.208 13.0749 4.58192 14.1289 5.2844C15.1829 5.98688 16.0048 6.98632 16.4904 8.15618C16.976 9.32603 17.1036 10.6137 16.857 11.8561C16.6104 13.0985 16.0006 14.2398 15.105 15.1355C14.2093 16.0311 13.068 16.6409 11.8256 16.8875C10.5832 17.1341 9.29556 17.0065 8.12571 16.5209C6.95585 16.0352 5.95641 15.2134 5.25393 14.1594C4.55145 13.1054 4.17752 11.8666 4.1795 10.6C4.17687 9.75868 4.34014 8.92511 4.65997 8.14697C4.97979 7.36883 5.4499 6.66138 6.0434 6.0651C6.6369 5.46881 7.34214 4.99539 8.11877 4.67193C8.89541 4.34846 9.7282 4.18129 10.5695 4.17998V4.20998Z" fill="#262626"/>
</g>
<defs>
<clipPath id="clip0_536_29603">
<rect width="24" height="24" fill="white"/>
</clipPath>
</defs>
</svg>
