<svg width="24" height="24" viewBox="0 0 24 24" fill="none" xmlns="http://www.w3.org/2000/svg">
<g clip-path="url(#clip0_777_33446)">
<path d="M10.57 17.9997C12.3579 17.9969 14.0843 17.3468 15.43 16.1697L20 20.6797L20.71 19.9697L16.17 15.4297C17.2697 14.1517 17.8993 12.536 17.9543 10.8508C18.0093 9.16569 17.4864 7.51239 16.4724 6.16533C15.4584 4.81827 14.0143 3.85845 12.3796 3.44517C10.745 3.03189 9.01823 3.19 7.48585 3.89326C5.95346 4.59651 4.70763 5.80263 3.95511 7.31143C3.2026 8.82024 2.98864 10.541 3.34876 12.1881C3.70888 13.8353 4.62142 15.3098 5.93493 16.3669C7.24844 17.424 8.88394 18.0001 10.57 17.9997ZM10.57 4.20973C11.8366 4.20775 13.0754 4.58168 14.1294 5.28416C15.1834 5.98664 16.0053 6.98608 16.4909 8.15594C16.9765 9.32579 17.1041 10.6134 16.8575 11.8559C16.6109 13.0983 16.0011 14.2395 15.1055 15.1352C14.2098 16.0309 13.0685 16.6406 11.8261 16.8872C10.5837 17.1339 9.29605 17.0063 8.12619 16.5206C6.95634 16.035 5.9569 15.2131 5.25442 14.1591C4.55194 13.1051 4.17801 11.8664 4.17999 10.5997C4.17736 9.75843 4.34063 8.92487 4.66046 8.14673C4.98028 7.36858 5.45039 6.66114 6.04389 6.06485C6.63739 5.46857 7.34263 4.99515 8.11926 4.67168C8.8959 4.34821 9.72869 4.18104 10.57 4.17973V4.20973Z" fill="#BFBFBF"/>
</g>
<defs>
<clipPath id="clip0_777_33446">
<rect width="24" height="24" fill="white"/>
</clipPath>
</defs>
</svg>
