<svg width="12" height="12" viewBox="0 0 12 12" fill="none" xmlns="http://www.w3.org/2000/svg">
<path fill-rule="evenodd" clip-rule="evenodd" d="M10.4727 2.66058L9.65704 3.561C9.958 4.00868 10.1784 4.51419 10.2979 5.05718L11.5277 5.12551C11.7927 5.14023 12 5.35937 12 5.62474V6.37572C12 6.64109 11.7927 6.86023 11.5277 6.87495L10.2976 6.9433C10.1781 7.48605 9.95756 7.99135 9.65662 8.43883L10.4726 9.33958C10.6515 9.53713 10.644 9.84034 10.4556 10.0288L10.0287 10.4557C9.84021 10.6442 9.53701 10.6517 9.33946 10.4727L8.43585 9.65413C7.98895 9.95215 7.4844 10.1716 6.94228 10.2925L6.87366 11.5277C6.85894 11.7927 6.6398 12 6.37443 12H5.62348C5.35812 12 5.13897 11.7927 5.12425 11.5277L5.05644 10.3071C4.50472 10.193 3.99062 9.97719 3.53495 9.68033L2.66042 10.4726C2.46287 10.6515 2.15967 10.644 1.97119 10.4556L1.54431 10.0287C1.35583 9.84019 1.34835 9.53698 1.52731 9.33943L2.30392 8.48211C1.98707 8.02284 1.75569 7.50094 1.63252 6.93896L0.472264 6.8745C0.207306 6.85978 0 6.64063 0 6.37527V5.62428C0 5.35891 0.207306 5.13977 0.472265 5.12505L1.63245 5.0606C1.75557 4.49861 1.98691 3.97668 2.30372 3.5174L1.52743 2.66043C1.34847 2.46288 1.35595 2.15967 1.54443 1.97118L1.97131 1.5443C2.15979 1.35581 2.46299 1.34833 2.66054 1.52729L3.53462 2.31911C3.99096 2.02175 4.50593 1.80569 5.05859 1.69172L5.12634 0.472267C5.14106 0.207309 5.3602 0 5.62557 0H6.37652C6.64188 0 6.86103 0.207309 6.87575 0.472268L6.94435 1.70716C7.48595 1.82825 7.99002 2.04767 8.43651 2.34553L9.33958 1.52744C9.53713 1.34848 9.84033 1.35596 10.0288 1.54445L10.4557 1.97133C10.6442 2.15982 10.6517 2.46303 10.4727 2.66058ZM5.96598 7.60039C6.85652 7.60039 7.57845 6.88405 7.57845 6.00039C7.57845 5.11673 6.85652 4.40039 5.96598 4.40039C5.07544 4.40039 4.35352 5.11673 4.35352 6.00039C4.35352 6.88405 5.07544 7.60039 5.96598 7.60039Z" fill="#7F7F7F"/>
</svg>
