<svg width="20" height="20" viewBox="0 0 20 20" fill="none" xmlns="http://www.w3.org/2000/svg">
<circle cx="10" cy="10" r="8.5" stroke="#7F7F7F"/>
<path d="M9.2279 11.7828C9.23066 11.2883 9.27901 10.8892 9.37293 10.5853C9.46961 10.2787 9.60359 10.0328 9.77486 9.84774C9.94613 9.66266 10.1754 9.48172 10.4627 9.30492C11.0456 8.94305 11.337 8.49001 11.337 7.94581C11.337 7.70824 11.2804 7.49968 11.1671 7.32012C11.0539 7.1378 10.9006 6.99829 10.7072 6.90161C10.5138 6.80216 10.2997 6.75244 10.0649 6.75244C9.84668 6.75244 9.64227 6.7994 9.45166 6.89332C9.26105 6.98448 9.10359 7.12398 8.97928 7.31183C8.85497 7.49968 8.78453 7.73172 8.76796 8.00796H7.5C7.51657 7.52454 7.6395 7.10879 7.86878 6.76072C8.09807 6.41266 8.4047 6.14885 8.78867 5.96929C9.17265 5.78973 9.59945 5.69995 10.0691 5.69995C10.5718 5.69995 11.0152 5.79526 11.3992 5.98586C11.7859 6.17371 12.0843 6.4389 12.2942 6.78144C12.5069 7.12122 12.6133 7.51349 12.6133 7.95824C12.6133 8.40851 12.5111 8.79802 12.3066 9.12675C12.1022 9.45548 11.8052 9.73863 11.4157 9.97619C11.1727 10.1226 10.9807 10.2745 10.8398 10.432C10.7017 10.5867 10.5994 10.7718 10.5331 10.9872C10.4669 11.2 10.4309 11.4651 10.4254 11.7828V11.8574H9.2279V11.7828ZM9.86188 14.3809C9.71271 14.3809 9.5732 14.3436 9.44337 14.269C9.3163 14.1944 9.21547 14.0936 9.14088 13.9665C9.0663 13.8395 9.03039 13.7013 9.03315 13.5522C9.03039 13.403 9.0663 13.2649 9.14088 13.1378C9.21547 13.0107 9.3163 12.9099 9.44337 12.8353C9.5732 12.7607 9.71271 12.7234 9.86188 12.7234C10.011 12.7234 10.1492 12.7607 10.2762 12.8353C10.4033 12.9099 10.5041 13.0107 10.5787 13.1378C10.6561 13.2649 10.6948 13.403 10.6948 13.5522C10.6948 13.7013 10.6561 13.8395 10.5787 13.9665C10.5041 14.0936 10.4033 14.1944 10.2762 14.269C10.1492 14.3436 10.011 14.3809 9.86188 14.3809Z" fill="#7F7F7F"/>
</svg>
