<svg width="24" height="24" viewBox="0 0 24 24" fill="none" xmlns="http://www.w3.org/2000/svg">
<g id="ic_things_none_b" opacity="0.2" clip-path="url(#clip0_1443_74610)">
<g id="Layer 2">
<g id="solid+contailner">
<path id="Vector" d="M12 20C13.5823 20 15.129 19.5308 16.4446 18.6518C17.7602 17.7727 18.7855 16.5233 19.391 15.0615C19.9965 13.5997 20.155 11.9911 19.8463 10.4393C19.5376 8.88743 18.7757 7.46197 17.6569 6.34315C16.538 5.22433 15.1126 4.4624 13.5607 4.15372C12.0089 3.84504 10.4003 4.00347 8.93853 4.60897C7.47672 5.21447 6.22729 6.23985 5.34824 7.55544C4.46919 8.87103 4 10.4178 4 12C4 14.1217 4.84285 16.1566 6.34315 17.6569C7.84344 19.1571 9.87827 20 12 20ZM11 7.82H13V12.82H11V7.82ZM11 14.18H13V16.18H11V14.18Z" fill="#1D6CEB"/>
</g>
</g>
</g>
<defs>
<clipPath id="clip0_1443_74610">
<rect width="24" height="24" fill="white"/>
</clipPath>
</defs>
</svg>
