<svg width="20" height="20" viewBox="0 0 20 20" fill="none" xmlns="http://www.w3.org/2000/svg">
<g id="spatial layout" clip-path="url(#clip0_1477_79444)">
<g id="Layer 2">
<g id="solid+contailner">
<path id="Vector" d="M10.3165 8.07454C10.3151 8.13946 10.3296 8.20373 10.3586 8.26181C10.3877 8.31988 10.4304 8.37002 10.4832 8.40788L11.9332 9.47454C12.0045 9.52303 12.0886 9.54915 12.1748 9.54955C12.2638 9.5503 12.351 9.52416 12.4248 9.47454L14.2832 8.10788C14.3344 8.06863 14.3761 8.01821 14.405 7.96045C14.4339 7.9027 14.4492 7.83912 14.4498 7.77454C14.4495 7.70902 14.4335 7.64452 14.403 7.58651C14.3726 7.52849 14.3286 7.47865 14.2748 7.44121L12.8332 6.37454C12.7604 6.32582 12.6749 6.2998 12.5873 6.2998C12.4998 6.2998 12.4142 6.32582 12.3415 6.37454L10.4832 7.74121C10.4304 7.77907 10.3877 7.82921 10.3586 7.88728C10.3296 7.94536 10.3151 8.00963 10.3165 8.07454ZM12.5832 7.24121L13.3248 7.78288L12.1748 8.61621L11.4332 8.07454L12.5832 7.24121Z" fill="#1D6CEB"/>
<path id="Vector_2" d="M6.66667 6.71665L2.66667 9.66665C2.61492 9.70546 2.57292 9.75579 2.54399 9.81364C2.51506 9.8715 2.5 9.9353 2.5 9.99998C2.5 10.0647 2.51506 10.1285 2.54399 10.1863C2.57292 10.2442 2.61492 10.2945 2.66667 10.3333L6.66667 13.2833C6.73498 13.3385 6.8205 13.368 6.90833 13.3666C6.99879 13.3686 7.08713 13.3391 7.15833 13.2833L11.1833 10.3333C11.2351 10.2945 11.2771 10.2442 11.306 10.1863C11.3349 10.1285 11.35 10.0647 11.35 9.99998C11.35 9.9353 11.3349 9.8715 11.306 9.81364C11.2771 9.75579 11.2351 9.70546 11.1833 9.66665L7.19167 6.71665C7.11812 6.65493 7.02518 6.62109 6.92917 6.62109C6.83315 6.62109 6.74021 6.65493 6.66667 6.71665Z" fill="#1D6CEB"/>
<path id="Vector_3" d="M10.2493 4.47486C10.1767 4.42202 10.0891 4.39355 9.99931 4.39355C9.90947 4.39355 9.82195 4.42202 9.74931 4.47486L7.86597 5.83319C7.81322 5.87106 7.77049 5.92119 7.74145 5.97927C7.71241 6.03734 7.69795 6.10161 7.69931 6.16653C7.70047 6.23219 7.716 6.2968 7.74479 6.35583C7.77358 6.41485 7.81494 6.46686 7.86597 6.50819L9.31597 7.56653C9.38912 7.61863 9.47619 7.64765 9.56597 7.64986C9.65317 7.64754 9.73755 7.61845 9.80764 7.56653L11.666 6.20819C11.7193 6.16957 11.7628 6.11884 11.7927 6.06017C11.8227 6.0015 11.8383 5.93657 11.8383 5.87069C11.8383 5.80482 11.8227 5.73989 11.7927 5.68122C11.7628 5.62255 11.7193 5.57182 11.666 5.53319L10.2493 4.47486Z" fill="#1D6CEB"/>
<path id="Vector_4" d="M15.5575 8.3332C15.4857 8.28225 15.3998 8.25488 15.3117 8.25488C15.2236 8.25488 15.1377 8.28225 15.0658 8.3332L7.99084 13.5582C7.93753 13.5959 7.89405 13.6459 7.86403 13.7039C7.83402 13.7619 7.81836 13.8262 7.81836 13.8915C7.81836 13.9568 7.83402 14.0212 7.86403 14.0792C7.89405 14.1372 7.93753 14.1871 7.99084 14.2249L9.75751 15.5249C9.82616 15.5795 9.91146 15.6089 9.99918 15.6082C10.0882 15.609 10.1753 15.5828 10.2492 15.5332L17.3325 10.3332C17.3843 10.2944 17.4263 10.2441 17.4552 10.1862C17.4841 10.1283 17.4992 10.0645 17.4992 9.99986C17.4992 9.93518 17.4841 9.87138 17.4552 9.81352C17.4263 9.75567 17.3843 9.70534 17.3325 9.66653L15.5575 8.3332Z" fill="#1D6CEB"/>
</g>
</g>
</g>
<defs>
<clipPath id="clip0_1477_79444">
<rect width="20" height="20" fill="white"/>
</clipPath>
</defs>
</svg>
