<svg width="92" height="92" viewBox="0 0 92 92" fill="none" xmlns="http://www.w3.org/2000/svg">
<g clip-path="url(#clip0_1263_42246)">
<path d="M46 76C62.5685 76 76 62.5685 76 46C76 29.4315 62.5685 16 46 16C29.4315 16 16 29.4315 16 46C16 62.5685 29.4315 76 46 76Z" fill="#FFD93B"/>
<path d="M45.9892 59.3154C39.8535 59.3154 34.4479 56.4835 32.5526 52.2652C32.2208 51.5204 32.5526 50.6502 33.2901 50.311C34.0349 49.9791 34.9051 50.311 35.2444 51.0484C36.6529 54.1753 41.0703 56.3581 45.9966 56.3581C50.9228 56.3581 55.355 54.1679 56.7562 51.0337C57.088 50.2888 57.9582 49.957 58.7031 50.2888C59.4479 50.6207 59.7798 51.4909 59.4479 52.2357C57.56 56.4688 52.1544 59.308 45.9966 59.308L45.9892 59.3154Z" fill="#3E4347"/>
<path d="M37.52 44.9902C39.6053 44.9902 41.2958 43.0091 41.2958 40.5654C41.2958 38.1217 39.6053 36.1406 37.52 36.1406C35.4346 36.1406 33.7441 38.1217 33.7441 40.5654C33.7441 43.0091 35.4346 44.9902 37.52 44.9902Z" fill="#3E4347"/>
<path d="M54.8051 44.9902C56.8904 44.9902 58.5809 43.0091 58.5809 40.5654C58.5809 38.1217 56.8904 36.1406 54.8051 36.1406C52.7198 36.1406 51.0293 38.1217 51.0293 40.5654C51.0293 43.0091 52.7198 44.9902 54.8051 44.9902Z" fill="#3E4347"/>
</g>
<defs>
<clipPath id="clip0_1263_42246">
<rect width="92" height="92" fill="white"/>
</clipPath>
</defs>
</svg>
