<svg width="92" height="92" viewBox="0 0 92 92" fill="none" xmlns="http://www.w3.org/2000/svg">
<path d="M46 76C62.5685 76 76 62.5685 76 46C76 29.4315 62.5685 16 46 16C29.4315 16 16 29.4315 16 46C16 62.5685 29.4315 76 46 76Z" fill="#FFD93B"/>
<path d="M61.4485 50.6324C59.3984 57.24 53.2553 62.0336 45.9913 62.0336C38.7273 62.0336 32.6064 57.2548 30.5488 50.6692L61.4485 50.625V50.6324Z" fill="#3E4347"/>
<path d="M45.9908 62.7702C38.5572 62.7702 32.0675 57.9988 29.8478 50.8897C29.774 50.6684 29.8183 50.4251 29.9584 50.2333C30.0985 50.0416 30.3198 49.931 30.5557 49.931L61.4554 49.8867C61.6914 49.8867 61.9127 49.9973 62.0454 50.1891C62.1855 50.3808 62.2224 50.6242 62.156 50.8454C59.9436 57.9767 53.4466 62.7702 45.9982 62.7702H45.9908ZM31.5882 51.4059C33.8817 57.3646 39.5454 61.2953 45.9908 61.2953C52.4363 61.2953 58.1295 57.3425 60.4083 51.369L31.5808 51.4059H31.5882Z" fill="#3E4347"/>
<path d="M37.5199 44.9902C39.6053 44.9902 41.2958 43.0091 41.2958 40.5654C41.2958 38.1217 39.6053 36.1406 37.5199 36.1406C35.4346 36.1406 33.7441 38.1217 33.7441 40.5654C33.7441 43.0091 35.4346 44.9902 37.5199 44.9902Z" fill="#3E4347"/>
<path d="M54.8129 44.9902C56.8982 44.9902 58.5887 43.0091 58.5887 40.5654C58.5887 38.1217 56.8982 36.1406 54.8129 36.1406C52.7276 36.1406 51.0371 38.1217 51.0371 40.5654C51.0371 43.0091 52.7276 44.9902 54.8129 44.9902Z" fill="#3E4347"/>
<path d="M45.8454 49.9088L31.8926 49.9236C31.8926 49.9236 32.7849 52.6743 35.2849 52.8734C37.4088 53.0431 43.9059 53.0283 45.8454 53.0209C47.7775 53.0209 54.282 53.0357 56.4059 52.8734C58.9059 52.6743 59.8572 49.8867 59.8572 49.8867L45.8454 49.9088Z" fill="white"/>
<path d="M37.8809 60.7854C40.2924 62.0834 43.0283 62.8135 45.9192 62.8135C48.8101 62.8135 51.5534 62.0834 53.9649 60.7854C53.1758 57.5627 49.8794 56.3164 45.9266 56.3164C41.9738 56.3164 38.6699 57.5701 37.8882 60.7928L37.8809 60.7854Z" fill="#E55C5C"/>
</svg>
