<svg width="42" height="16" viewBox="0 0 42 16" fill="none" xmlns="http://www.w3.org/2000/svg">
<path fill-rule="evenodd" clip-rule="evenodd" d="M36.9635 3.44056C36.9635 2.35827 36.0057 1.57214 34.8239 1.57214C33.6424 1.57214 32.6846 2.36276 32.6846 3.44056C32.6846 4.51873 33.6424 5.30897 34.8239 5.30897C36.0057 5.30897 36.9635 4.51052 36.9635 3.44056ZM38.9252 3.41752C38.9252 5.69077 37.0911 6.83505 34.8285 6.83505C32.5659 6.83505 30.7315 5.69077 30.7315 3.41752C30.7315 1.17938 32.5659 0 34.8285 0C37.0911 0 38.9252 1.17938 38.9252 3.41752ZM28.1918 11.0653C28.1918 11.0653 24.3618 10.5712 22.0599 6.69545C19.7544 10.5712 15.9281 11.0653 15.9281 11.0653V9.30108C19.6377 8.21356 21.0287 4.89912 21.0287 2.46902V0.551305H23.0908V2.46902C23.0908 4.89912 24.4819 8.20535 28.1918 9.30108V11.0653ZM28.5595 15.2304H15.5598V13.5808H28.5595V15.2304ZM33.1591 14.3259V10.2459H31.1755V16.0001H42.0014V14.3259H33.1591ZM11.5611 15.9906H13.3883V0.173438H11.5611V15.9906ZM2.30587 6.7335C2.30587 10.0733 3.14397 11.0552 4.17777 11.0552C5.21194 11.0552 6.04967 10.0733 6.04967 6.7335C6.04967 3.4127 5.21194 2.41183 4.17777 2.41183C3.14397 2.41183 2.30587 3.4127 2.30587 6.7335ZM7.81903 5.42663H8.79827V0.173178H10.6189V15.9903H8.79827V7.07844H7.8696C7.7812 11.1559 6.16466 13.0123 4.17744 13.0123C2.13348 13.0123 0.476562 11.0554 0.476562 6.73037C0.476562 2.41206 2.13348 0.448044 4.17744 0.448044C6.00242 0.448044 7.51493 2.01881 7.81903 5.42663ZM39.3445 7.32868H30.2079V8.87928H33.8572V12.1889H35.8156V8.87928H39.3445V7.32868ZM39.9363 9.64515V0.182813H41.7653V13.0556H39.9363V11.2835H36.9349V9.64515H39.9363Z" fill="#C4C4C4"/>
</svg>
