<svg width="92" height="92" viewBox="0 0 92 92" fill="none" xmlns="http://www.w3.org/2000/svg">
<path d="M46 76C62.5685 76 76 62.5685 76 46C76 29.4315 62.5685 16 46 16C29.4315 16 16 29.4315 16 46C16 62.5685 29.4315 76 46 76Z" fill="#F2F2F2"/>
<path d="M41.5771 34.9125C41.3005 34.9125 41.0238 34.8003 40.8291 34.586C40.3066 34.0247 39.1897 33.0655 37.581 32.8818C36.1875 32.7288 35.0911 33.2594 34.5685 33.5859C34.0869 33.8819 33.4516 33.739 33.1545 33.2594C32.8573 32.7798 33.0008 32.1471 33.4824 31.8512C34.7837 31.0451 36.3207 30.6879 37.8064 30.8512C40.0709 31.1063 41.6079 32.4227 42.3251 33.188C42.7145 33.5961 42.6837 34.2492 42.2739 34.6268C42.0792 34.8105 41.823 34.9023 41.5771 34.9023V34.9125Z" fill="#CCCCCC"/>
<path d="M51.1583 30.8C50.8916 30.8 50.6351 30.6994 50.4299 30.4981C50.0299 30.1057 50.0299 29.4617 50.4299 29.0793C51.5481 27.9926 52.974 27.2781 54.4409 27.0668C56.708 26.7448 58.4519 27.6605 59.293 28.2341C59.7547 28.5561 59.8675 29.1799 59.5495 29.6328C59.2212 30.0856 58.5852 30.1963 58.1236 29.8843C57.5286 29.4818 56.3079 28.8378 54.7281 29.0592C53.333 29.2504 52.338 30.0453 51.8661 30.5082C51.6609 30.6994 51.4045 30.8 51.148 30.8H51.1583Z" fill="#CCCCCC"/>
<path d="M37.8 45C39.8987 45 41.6 43.2091 41.6 41C41.6 38.7909 39.8987 37 37.8 37C35.7013 37 34 38.7909 34 41C34 43.2091 35.7013 45 37.8 45Z" fill="#666666"/>
<path d="M54.9155 44.6777C57.0008 44.6777 58.6913 42.6966 58.6913 40.2529C58.6913 37.8092 57.0008 35.8281 54.9155 35.8281C52.8302 35.8281 51.1396 37.8092 51.1396 40.2529C51.1396 42.6966 52.8302 44.6777 54.9155 44.6777Z" fill="#666666"/>
<path d="M51.4624 57.2017C51.172 57.1705 50.8922 57.0405 50.6831 56.8181C50.0179 56.127 48.5894 54.9042 46.4091 54.5498C43.7222 54.101 41.655 55.2377 40.8914 55.7451C40.3128 56.1325 39.5291 55.9783 39.1448 55.4074C38.7605 54.8365 38.9045 54.0625 39.482 53.685C40.4972 53.0047 43.2521 51.5024 46.8249 52.0964C49.731 52.5788 51.6441 54.1935 52.5173 55.1168C52.9902 55.6173 52.9664 56.4042 52.4705 56.8704C52.1893 57.13 51.8229 57.2405 51.4724 57.2028L51.4624 57.2017Z" fill="#666666"/>
<path d="M27.7531 57.7487C27.7764 60.2531 27.7628 61.0627 27.2645 65.8111C27.0215 68.0969 27.0273 69.9774 27.8113 72.0849C28.426 73.7335 29.8704 74.7537 31.3976 75.2726C31.9344 75.4584 32.5759 75.5064 33.8493 75.6207C35.5316 75.7699 35.3102 75.6545 39.2747 75.7115C40.5217 75.7323 41.2289 75.7441 41.8424 75.2424C42.3238 74.8409 42.5559 74.3235 42.6853 73.823C42.8643 73.1371 42.9134 71.872 42.9345 71.1649C42.9932 69.3228 43.0146 69.1556 43.067 67.695C43.1896 67.0454 43.5051 65.9895 44.3592 65.5663C44.763 65.359 45.7514 65.2545 46.1051 65.2604C46.8685 65.2545 46.9243 65.2555 48.9836 65.1317C49.7757 65.0797 50.4037 64.8203 50.8416 64.2412C50.9367 64.1217 51.3936 63.515 51.1726 62.8132C51.0048 62.2705 50.4902 61.8709 49.859 61.7673L39.1833 61.6912C37.3964 61.6706 35.8803 61.5987 34.6995 61.5138C33.184 61.4047 32.4782 61.3091 32.05 60.7527C31.6674 60.253 31.6237 59.5262 31.5741 58.5945C31.5741 58.5945 31.6543 57.6929 31.598 57.1614C31.372 55.0911 30.4675 54.0706 29.286 54.0322C28.7276 54.0229 28.3122 54.3697 28.2555 54.4246C27.4616 55.1374 27.7511 57.3111 27.7531 57.7487Z" fill="#C7C7C7"/>
</svg>
