<svg width="92" height="92" viewBox="0 0 92 92" fill="none" xmlns="http://www.w3.org/2000/svg">
<g clip-path="url(#clip0_1263_43213)">
<path d="M24 67H43.6187V58.0334H47.65V67H67C66.3664 63.2872 64.6249 59.8154 61.9744 56.9814C60.9576 56.0211 59.7431 55.2622 58.4038 54.75C57.0646 54.2378 55.6281 53.983 54.1806 54.0009H36.8194C35.3719 53.983 33.9354 54.2378 32.5962 54.75C31.2569 55.2622 30.0425 56.0211 29.0256 56.9814C26.3751 59.8154 24.6336 63.2872 24 67Z" fill="#353535"/>
<path d="M45.5 50C47.9723 50 50.389 49.2669 52.4446 47.8934C54.5002 46.5199 56.1024 44.5676 57.0485 42.2835C57.9946 39.9995 58.2421 37.4861 57.7598 35.0614C57.2775 32.6366 56.087 30.4093 54.3388 28.6612C52.5907 26.913 50.3634 25.7225 47.9386 25.2402C45.5139 24.7579 43.0005 25.0054 40.7165 25.9515C38.4324 26.8976 36.4801 28.4998 35.1066 30.5554C33.7331 32.611 33 35.0277 33 37.5C33.0073 40.813 34.3267 43.9881 36.6693 46.3307C39.0119 48.6733 42.187 49.9927 45.5 50ZM40.2222 40.0556C41.9095 40.0159 43.5647 39.5866 45.0585 38.8011C46.5524 38.0156 47.8443 36.8953 48.8333 35.5278C51.31 36.0758 53.4965 37.5203 54.9722 39.5833C54.4987 41.7691 53.284 43.7239 51.534 45.1164C49.784 46.509 47.6063 47.2537 45.37 47.2242C43.1338 47.1948 40.9765 46.3931 39.2637 44.955C37.5509 43.5169 36.3881 41.5308 35.9722 39.3333C37.3387 39.8094 38.7752 40.0535 40.2222 40.0556Z" fill="#353535"/>
<circle cx="65" cy="27" r="13" fill="#1D6CEB"/>
<path d="M63.458 30.1692C63.4627 29.3951 63.5396 28.7679 63.6888 28.2874C63.838 27.807 64.0478 27.4221 64.3182 27.133C64.5932 26.8438 64.9615 26.5613 65.4231 26.2855C65.8939 26.0052 66.2599 25.6983 66.521 25.3646C66.7867 25.031 66.9196 24.6439 66.9196 24.2035C66.9196 23.8565 66.8333 23.5518 66.6608 23.2893C66.493 23.0269 66.2599 22.8244 65.9615 22.6821C65.6678 22.5397 65.3415 22.4685 64.9825 22.4685C64.6422 22.4685 64.3228 22.5375 64.0245 22.6754C63.7308 22.8133 63.4883 23.0224 63.2972 23.3027C63.1061 23.5829 62.9988 23.9233 62.9755 24.3236H60.5C60.5233 23.5051 60.7354 22.8089 61.1364 22.235C61.5373 21.6611 62.0734 21.2296 62.7448 20.9404C63.4161 20.6468 64.1667 20.5 64.9965 20.5C65.8823 20.5 66.6655 20.6513 67.3462 20.9538C68.0268 21.2518 68.5559 21.6767 68.9336 22.2283C69.3112 22.7799 69.5 23.425 69.5 24.1635C69.5 24.8975 69.3205 25.5292 68.9615 26.0586C68.6072 26.588 68.0921 27.0462 67.4161 27.4333C67.0198 27.6602 66.7051 27.8937 66.472 28.1339C66.2389 28.3742 66.0641 28.6567 65.9476 28.9814C65.8357 29.3017 65.7774 29.6976 65.7727 30.1692V30.3427H63.458V30.1692ZM64.6748 34.5C64.3951 34.5 64.1364 34.4355 63.8986 34.3065C63.6655 34.173 63.479 33.9951 63.3392 33.7726C63.204 33.5458 63.1387 33.3011 63.1434 33.0386C63.1387 32.7761 63.204 32.5337 63.3392 32.3112C63.479 32.0888 63.6655 31.9131 63.8986 31.7841C64.1364 31.6551 64.3951 31.5906 64.6748 31.5906C64.9452 31.5906 65.197 31.6551 65.4301 31.7841C65.6678 31.9131 65.8566 32.0888 65.9965 32.3112C66.1364 32.5337 66.2063 32.7761 66.2063 33.0386C66.2063 33.3011 66.1364 33.5458 65.9965 33.7726C65.8566 33.9951 65.6678 34.173 65.4301 34.3065C65.197 34.4355 64.9452 34.5 64.6748 34.5Z" fill="white"/>
</g>
<defs>
<clipPath id="clip0_1263_43213">
<rect width="92" height="92" fill="white"/>
</clipPath>
</defs>
</svg>
