<svg width="42" height="16" viewBox="0 0 42 16" fill="none" xmlns="http://www.w3.org/2000/svg">
<path fill-rule="evenodd" clip-rule="evenodd" d="M36.4857 3.44082C36.4857 2.35853 35.5279 1.5724 34.3461 1.5724C33.1646 1.5724 32.2068 2.36302 32.2068 3.44082C32.2068 4.51899 33.1646 5.30923 34.3461 5.30923C35.5279 5.30923 36.4857 4.51078 36.4857 3.44082ZM38.4484 3.41752C38.4484 5.69077 36.6143 6.83505 34.3517 6.83505C32.0891 6.83505 30.2547 5.69077 30.2547 3.41752C30.2547 1.17938 32.0891 0 34.3517 0C36.6143 0 38.4484 1.17938 38.4484 3.41752ZM27.7159 11.065C27.7159 11.065 23.8859 10.571 21.584 6.69519C19.2785 10.571 15.4522 11.065 15.4522 11.065V9.30082C19.1618 8.2133 20.5528 4.89885 20.5528 2.46876V0.551044H22.6149V2.46876C22.6149 4.89885 24.0059 8.20509 27.7159 9.30082V11.065ZM28.083 15.2304H15.0834V13.5808H28.083V15.2304ZM32.6816 14.3259V10.2459H30.6981V16.0001H41.5239V14.3259H32.6816ZM11.0855 15.9906H12.9126V0.173438H11.0855V15.9906ZM1.82917 6.73379C1.82917 10.0736 2.66727 11.0555 3.70108 11.0555C4.73524 11.0555 5.57298 10.0736 5.57298 6.73379C5.57298 3.41299 4.73524 2.41212 3.70108 2.41212C2.66727 2.41212 1.82917 3.41299 1.82917 6.73379ZM7.34247 5.4265H8.32171V0.173048H10.1423V15.9902H8.32171V7.07831H7.39303C7.30464 11.1557 5.6881 13.0122 3.70088 13.0122C1.65692 13.0122 0 11.0553 0 6.73024C0 2.41194 1.65692 0.447914 3.70088 0.447914C5.52586 0.447914 7.03837 2.01868 7.34247 5.4265ZM38.8679 7.32868H29.7314V8.87928H33.3806V12.1889H35.3391V8.87928H38.8679V7.32868ZM39.4599 9.64515V0.182813H41.2888V13.0556H39.4599V11.2835H36.4585V9.64515H39.4599Z" fill="#004098"/>
</svg>
