<svg width="78" height="31" viewBox="0 0 78 31" fill="none" xmlns="http://www.w3.org/2000/svg">
<path fill-rule="evenodd" clip-rule="evenodd" d="M68.4828 6.95124C68.4828 4.92197 66.687 3.44798 64.471 3.44798C62.2557 3.44798 60.4599 4.93037 60.4599 6.95124C60.4599 8.97282 62.2557 10.4545 64.471 10.4545C66.687 10.4545 68.4828 8.95741 68.4828 6.95124ZM72.1611 6.90783C72.1611 11.1701 68.7222 13.3157 64.4799 13.3157C60.2376 13.3157 56.798 11.1701 56.798 6.90783C56.798 2.71133 60.2376 0.5 64.4799 0.5C68.7222 0.5 72.1611 2.71133 72.1611 6.90783ZM52.0361 21.2473C52.0361 21.2473 44.8549 20.3209 40.5389 13.0539C36.2161 20.3209 29.0417 21.2473 29.0417 21.2473V17.9394C35.9972 15.9004 38.6053 9.68579 38.6053 5.12938V1.53368H42.4718V5.12938C42.4718 9.68579 45.0799 15.885 52.0361 17.9394V21.2473ZM52.7256 29.057H28.3514V25.964H52.7256V29.057ZM61.3498 27.3609V19.7108H57.6307V30.5H77.929V27.3609H61.3498ZM20.8536 30.4819H24.2796V0.824978H20.8536V30.4819ZM3.50032 13.1259C3.50032 19.3881 5.07175 21.229 7.01012 21.229C8.94917 21.229 10.5199 19.3881 10.5199 13.1259C10.5199 6.89943 8.94917 5.0228 7.01012 5.0228C5.07175 5.0228 3.50032 6.89943 3.50032 13.1259ZM13.8374 10.6751H15.6735V0.824908H19.0871V30.4819H15.6735V13.7722H13.9322C13.7665 21.4174 10.7354 24.8982 7.00944 24.8982C3.17703 24.8982 0.0703125 21.229 0.0703125 13.1196C0.0703125 5.0228 3.17703 1.34028 7.00944 1.34028C10.4313 1.34028 13.2672 4.28546 13.8374 10.6751ZM72.9473 14.2411H55.8164V17.1485H62.6587V23.3539H66.3308V17.1485H72.9473V14.2411ZM74.057 18.5848V0.842974H77.4863V24.9793H74.057V21.6567H68.4294V18.5848H74.057Z" fill="#004098"/>
</svg>
