<svg width="78" height="30" viewBox="0 0 78 30" fill="none" xmlns="http://www.w3.org/2000/svg">
<path fill-rule="evenodd" clip-rule="evenodd" d="M68.4828 6.45124C68.4828 4.42197 66.687 2.94798 64.471 2.94798C62.2557 2.94798 60.4599 4.43037 60.4599 6.45124C60.4599 8.47282 62.2557 9.95451 64.471 9.95451C66.687 9.95451 68.4828 8.45741 68.4828 6.45124ZM72.1611 6.40783C72.1611 10.6701 68.7222 12.8157 64.4799 12.8157C60.2376 12.8157 56.798 10.6701 56.798 6.40783C56.798 2.21133 60.2376 0 64.4799 0C68.7222 0 72.1611 2.21133 72.1611 6.40783ZM52.0361 20.7473C52.0361 20.7473 44.8549 19.8209 40.5389 12.5539C36.2161 19.8209 29.0417 20.7473 29.0417 20.7473V17.4394C35.9972 15.4004 38.6053 9.18579 38.6053 4.62938V1.03368H42.4718V4.62938C42.4718 9.18579 45.0799 15.385 52.0361 17.4394V20.7473ZM52.7256 28.557H28.3514V25.464H52.7256V28.557ZM61.3498 26.8609V19.2108H57.6307V30H77.929V26.8609H61.3498ZM20.8536 29.9819H24.2796V0.324978H20.8536V29.9819ZM3.50032 12.6259C3.50032 18.8881 5.07175 20.729 7.01012 20.729C8.94917 20.729 10.5199 18.8881 10.5199 12.6259C10.5199 6.39943 8.94917 4.5228 7.01012 4.5228C5.07175 4.5228 3.50032 6.39943 3.50032 12.6259ZM13.8374 10.1751H15.6735V0.324908H19.0871V29.9819H15.6735V13.2722H13.9322C13.7665 20.9174 10.7354 24.3982 7.00944 24.3982C3.17703 24.3982 0.0703125 20.729 0.0703125 12.6196C0.0703125 4.5228 3.17703 0.840279 7.00944 0.840279C10.4313 0.840279 13.2672 3.78546 13.8374 10.1751ZM72.9473 13.7411H55.8164V16.6485H62.6587V22.8539H66.3308V16.6485H72.9473V13.7411ZM74.057 18.0848V0.342974H77.4863V24.4793H74.057V21.1567H68.4294V18.0848H74.057Z" fill="#004098"/>
</svg>
