<svg width="25" height="24" viewBox="0 0 25 24" fill="none" xmlns="http://www.w3.org/2000/svg">
<g id="ic_AC3">
<path id="icon" fill-rule="evenodd" clip-rule="evenodd" d="M6.9279 3.43975C7.44589 3.1261 8.05061 3 8.65616 3H15.544C16.1496 3 16.7543 3.1261 17.2723 3.43974C20.1661 5.19196 22.1001 8.37012 22.1001 12C22.1001 17.5228 17.6229 22 12.1001 22C6.57725 22 2.1001 17.5228 2.1001 12C2.1001 8.37012 4.03411 5.19196 6.9279 3.43975ZM17.2856 13.7136C18.2402 13.7136 19.0141 12.9429 19.0141 11.9922C19.0141 11.0415 18.2402 10.2708 17.2856 10.2708C16.3309 10.2708 15.557 11.0415 15.557 11.9922C15.557 12.9429 16.3309 13.7136 17.2856 13.7136ZM16.4207 16.2956C16.4207 17.2463 15.6468 18.017 14.6921 18.017C13.7375 18.017 12.9636 17.2463 12.9636 16.2956C12.9636 15.3449 13.7375 14.5742 14.6921 14.5742C15.6468 14.5742 16.4207 15.3449 16.4207 16.2956ZM14.6925 9.41017C15.4085 9.41017 15.989 8.83216 15.989 8.11914C15.989 7.40613 15.4085 6.82812 14.6925 6.82812C13.9766 6.82812 13.3961 7.40613 13.3961 8.11914C13.3961 8.83216 13.9766 9.41017 14.6925 9.41017ZM10.8021 8.11914C10.8021 8.83216 10.2217 9.41017 9.50567 9.41017C8.78968 9.41017 8.20925 8.83216 8.20925 8.11914C8.20925 7.40613 8.78968 6.82812 9.50567 6.82812C10.2217 6.82812 10.8021 7.40613 10.8021 8.11914ZM12.0987 13.7136C13.0534 13.7136 13.8273 12.9429 13.8273 11.9922C13.8273 11.0415 13.0534 10.2708 12.0987 10.2708C11.1441 10.2708 10.3701 11.0415 10.3701 11.9922C10.3701 12.9429 11.1441 13.7136 12.0987 13.7136ZM8.64218 11.9922C8.64218 12.9429 7.86828 13.7136 6.91362 13.7136C5.95896 13.7136 5.18506 12.9429 5.18506 11.9922C5.18506 11.0415 5.95896 10.2708 6.91362 10.2708C7.86828 10.2708 8.64218 11.0415 8.64218 11.9922ZM9.50706 18.017C10.4617 18.017 11.2356 17.2463 11.2356 16.2956C11.2356 15.3449 10.4617 14.5742 9.50706 14.5742C8.5524 14.5742 7.7785 15.3449 7.7785 16.2956C7.7785 17.2463 8.5524 18.017 9.50706 18.017Z" fill="#697387"/>
</g>
</svg>
