<svg width="33" height="32" viewBox="0 0 33 32" fill="none" xmlns="http://www.w3.org/2000/svg">
<g id="hotel/ic_car_fill">
<path id="icon" fill-rule="evenodd" clip-rule="evenodd" d="M11.1621 5.33301H21.8515C24.0595 5.33301 25.8515 7.12367 25.8515 9.33301L26.3983 14.4635H27.8334C28.5698 14.4635 29.1667 15.0605 29.1667 15.7969C29.1667 16.5333 28.5698 17.1302 27.8334 17.1302H26.6826L27.1848 20.509C27.1848 21.9663 26.3968 23.2303 25.2315 23.929V25.593C25.2315 26.6983 24.3355 27.593 23.2315 27.593H23.1875C22.0821 27.593 21.1875 26.6983 21.1875 25.593V24.509L11.8728 24.5103V25.5943C11.8728 26.6997 10.9768 27.5943 9.87282 27.5943H9.82748C8.72215 27.5943 7.82748 26.6997 7.82748 25.5943V23.9557C6.63682 23.2623 5.82882 21.9863 5.82882 20.5117L6.33125 17.1302H5.16671C4.43033 17.1302 3.83337 16.5333 3.83337 15.7969C3.83337 15.0605 4.43033 14.4635 5.16671 14.4635H6.61542L7.16215 9.33301C7.16215 7.12367 8.95282 5.33301 11.1621 5.33301ZM21.8515 7.33301H11.1621C10.0568 7.33301 9.16215 8.22901 9.16215 9.33301V14.4677H23.8515V9.33301C23.8515 8.22767 22.9555 7.33301 21.8515 7.33301ZM11.7928 18.5424C11.7928 19.2582 11.2125 19.8384 10.4968 19.8384C9.78102 19.8384 9.20078 19.2582 9.20078 18.5424C9.20078 17.8267 9.78102 17.2464 10.4968 17.2464C11.2125 17.2464 11.7928 17.8267 11.7928 18.5424ZM23.8248 18.5424C23.8248 19.2582 23.2445 19.8384 22.5288 19.8384C21.813 19.8384 21.2328 19.2582 21.2328 18.5424C21.2328 17.8267 21.813 17.2464 22.5288 17.2464C23.2445 17.2464 23.8248 17.8267 23.8248 18.5424Z" fill="#354056"/>
</g>
</svg>
