<svg width="25" height="24" viewBox="0 0 25 24" fill="none" xmlns="http://www.w3.org/2000/svg">
<g id="ic_DCchina">
<path id="icon" fill-rule="evenodd" clip-rule="evenodd" d="M22.9 12C22.9 17.5228 18.4229 22 12.9 22C7.37718 22 2.90002 17.5228 2.90002 12C2.90002 6.47715 7.37718 2 12.9 2C18.4229 2 22.9 6.47715 22.9 12ZM20.7482 12.0001C20.7482 13.4447 19.5771 14.6158 18.1325 14.6158C16.6879 14.6158 15.5168 13.4447 15.5168 12.0001C15.5168 10.5554 16.6879 9.38434 18.1325 9.38434C19.5771 9.38434 20.7482 10.5554 20.7482 12.0001ZM7.66836 14.6158C9.11299 14.6158 10.2841 13.4447 10.2841 12.0001C10.2841 10.5554 9.11299 9.38434 7.66836 9.38434C6.22374 9.38434 5.05264 10.5554 5.05264 12.0001C5.05264 13.4447 6.22374 14.6158 7.66836 14.6158ZM14.3144 5.5859C14.1191 5.39064 13.8025 5.39064 13.6072 5.5859L12.9001 6.29301L12.193 5.5859C11.9978 5.39064 11.6812 5.39064 11.4859 5.5859C11.2907 5.78116 11.2907 6.09774 11.4859 6.29301L12.193 7.00011L11.4859 7.70722C11.2907 7.90248 11.2907 8.21906 11.4859 8.41433C11.6812 8.60959 11.9978 8.60959 12.193 8.41433L12.9001 7.70722L13.6072 8.41433C13.8025 8.60959 14.1191 8.60959 14.3144 8.41433C14.5096 8.21906 14.5096 7.90248 14.3144 7.70722L13.6072 7.00011L14.3144 6.29301C14.5096 6.09774 14.5096 5.78116 14.3144 5.5859ZM13.6072 15.5859C13.8025 15.3906 14.1191 15.3906 14.3144 15.5859C14.5096 15.7812 14.5096 16.0977 14.3144 16.293L13.6072 17.0001L14.3144 17.7072C14.5096 17.9025 14.5096 18.2191 14.3144 18.4143C14.1191 18.6096 13.8025 18.6096 13.6072 18.4143L12.9001 17.7072L12.193 18.4143C11.9978 18.6096 11.6812 18.6096 11.4859 18.4143C11.2907 18.2191 11.2907 17.9025 11.4859 17.7072L12.193 17.0001L11.4859 16.293C11.2907 16.0977 11.2907 15.7812 11.4859 15.5859C11.6812 15.3906 11.9978 15.3906 12.193 15.5859L12.9001 16.293L13.6072 15.5859Z" fill="#697387"/>
</g>
</svg>
