<svg width="25" height="24" viewBox="0 0 25 24" fill="none" xmlns="http://www.w3.org/2000/svg">
<g id="ic_nacs">
<g id="icon">
<path d="M8.32492 8.51884C8.32492 9.30784 7.66792 9.94784 6.85592 9.94784C6.04492 9.94784 5.38692 9.30784 5.38692 8.51884C5.38692 7.72984 6.04492 7.08984 6.85592 7.08984C7.66692 7.08984 8.32492 7.72984 8.32492 8.51884Z" fill="#697387"/>
<path d="M18.8191 8.51884C18.8191 9.30784 18.1611 9.94784 17.3501 9.94784C16.5391 9.94784 15.8811 9.30784 15.8811 8.51884C15.8811 7.72984 16.5391 7.08984 17.3501 7.08984C18.1611 7.08984 18.8191 7.72984 18.8191 8.51884Z" fill="#697387"/>
<path d="M22.0978 8.52221C22.0978 8.50221 22.0978 8.54121 22.0978 8.52221C22.0978 5.97021 19.9708 3.90122 17.3478 3.90122C17.2618 3.90022 17.1838 3.89622 17.0998 3.90022H7.09981C7.01581 3.89622 6.93781 3.90022 6.85381 3.90022C4.23081 3.90022 2.10381 5.96922 2.10381 8.52122L2.101 9.10022C2.095 9.12522 2.10581 9.07422 2.09981 9.10022V12.4882C2.97881 16.8282 6.91281 20.1002 11.6308 20.1002H12.5698C17.2868 20.1002 21.2198 16.8282 22.0988 12.4882V9.10122C22.0948 9.08022 22.1048 9.12222 22.0988 9.10122L22.0978 8.52221ZM17.3478 5.84622C18.8658 5.84622 20.0978 7.04422 20.0978 8.52122C20.0978 9.99822 18.8678 11.1962 17.3478 11.1962C15.8278 11.1962 14.5978 9.99822 14.5978 8.52122C14.5978 7.04422 15.8288 5.84622 17.3478 5.84622ZM4.11181 8.60522C4.11181 8.57722 4.10381 8.55022 4.10381 8.52122C4.10381 7.04322 5.33381 5.84622 6.85381 5.84622C7.02381 5.84622 7.18781 5.86622 7.34981 5.89522C7.34981 5.89522 7.34981 5.89522 7.35181 5.89522C8.63081 6.12322 9.60381 7.21022 9.60381 8.52122C9.60381 9.99922 8.37181 11.1962 6.85381 11.1962C5.36381 11.1962 4.15881 10.0432 4.11181 8.60522ZM12.0508 17.9892C11.1838 17.9892 10.4808 17.3052 10.4808 16.4632C10.4808 15.6192 11.1838 14.9362 12.0508 14.9362C12.9158 14.9362 13.6188 15.6202 13.6188 16.4632C13.6198 17.3052 12.9158 17.9892 12.0508 17.9892ZM17.8748 16.0972C16.6308 14.1382 14.4798 12.8452 12.0388 12.8452C9.62681 12.8452 7.49981 14.1072 6.24781 16.0262C5.19381 15.0272 4.43181 13.7362 4.09981 12.2872V12.2752C4.87881 12.8162 5.82481 13.1422 6.85381 13.1422C9.47681 13.1422 11.6038 11.0732 11.6038 8.52122C11.6038 7.52122 11.2698 6.60222 10.7148 5.84622H13.4858C12.9308 6.60222 12.5968 7.52122 12.5968 8.52122C12.5968 11.0732 14.7238 13.1422 17.3468 13.1422C18.3758 13.1422 19.3218 12.8162 20.0988 12.2752V12.2872C19.7618 13.7692 18.9708 15.0882 17.8748 16.0972Z" fill="#697387"/>
</g>
</g>
</svg>
