<svg width="20" height="20" viewBox="0 0 20 20" fill="none" xmlns="http://www.w3.org/2000/svg">
<g id="common/ic_nfc">
<g id="icon">
<path d="M12.2618 8.38481L11.4136 9.30301C11.0422 8.95975 10.5456 8.75 9.99999 8.75C9.45437 8.75 8.95775 8.95975 8.58634 9.30301L7.73814 8.38481C8.3324 7.83559 9.127 7.5 9.99999 7.5C10.873 7.5 11.6676 7.83559 12.2618 8.38481Z" fill="#F6FEF9"/>
<path d="M13.9582 6.54842L13.11 7.46661C12.2929 6.71144 11.2004 6.25 9.99999 6.25C8.79963 6.25 7.70705 6.71144 6.88995 7.46661L6.04176 6.54842C7.0817 5.58729 8.47226 5 9.99999 5C11.5277 5 12.9183 5.58729 13.9582 6.54842Z" fill="#F6FEF9"/>
<path d="M15.6546 4.71203L14.8064 5.63022C13.5436 4.46314 11.8551 3.75 9.99999 3.75C8.14489 3.75 6.45635 4.46314 5.19357 5.63022L4.34537 4.71203C5.831 3.33899 7.81752 2.5 9.99999 2.5C12.1825 2.5 14.169 3.33899 15.6546 4.71203Z" fill="#F6FEF9"/>
<path d="M15.2905 13.366C15.5633 12.9805 15.9577 12.7877 16.4738 12.7877C16.7051 12.7877 16.9394 12.8292 17.1766 12.9123C17.4198 12.9953 17.6601 13.0932 17.8973 13.2059L18.3333 12.1115C18.0426 11.9751 17.7372 11.8683 17.4169 11.7912C17.1025 11.7082 16.7881 11.6667 16.4738 11.6667C15.8332 11.6667 15.2905 11.8061 14.8456 12.0848C14.4067 12.3636 14.0716 12.7491 13.8402 13.2415C13.6089 13.7338 13.4932 14.3002 13.4932 14.9408C13.4932 15.5933 13.5941 16.1656 13.7957 16.6579C13.9974 17.1443 14.3088 17.5239 14.7299 17.7968C15.1511 18.0637 15.6908 18.1971 16.3492 18.1971C16.6873 18.1971 16.9928 18.1705 17.2656 18.1171C17.5385 18.0637 17.8143 17.9806 18.093 17.8679V16.738C17.7905 16.8448 17.5088 16.9278 17.2478 16.9871C16.9868 17.0464 16.7288 17.0761 16.4738 17.0761C15.9162 17.0761 15.5099 16.8922 15.2549 16.5245C15.0058 16.1508 14.8812 15.6259 14.8812 14.9497C14.8812 14.2794 15.0176 13.7516 15.2905 13.366Z" fill="#F6FEF9"/>
<path d="M8.89496 18.1083H10.2206V15.5993H12.3737V14.4961H10.2206V12.859H12.5339V11.7558H8.89496V18.1083Z" fill="#F6FEF9"/>
<path d="M5.58103 18.1083H7.28928V11.7558H6.07927V14.763C6.0852 15.0596 6.0941 15.3532 6.10596 15.6438L6.14155 16.5157H6.11486L3.35676 11.7558H1.65741V18.1083H2.85852V15.1189C2.84666 14.8164 2.83183 14.5139 2.81403 14.2114L2.77844 13.3039H2.81403L5.58103 18.1083Z" fill="#F6FEF9"/>
</g>
</g>
</svg>
