<svg width="33" height="32" viewBox="0 0 33 32" fill="none" xmlns="http://www.w3.org/2000/svg">
<g id="common/ic_qr_fill">
<g id="icon">
<path fill-rule="evenodd" clip-rule="evenodd" d="M10.5 7.99967C9.39543 7.99967 8.5 8.8951 8.5 9.99967V12.9997C8.5 14.1042 9.39543 14.9997 10.5 14.9997H13.5C14.6046 14.9997 15.5 14.1042 15.5 12.9997V9.99967C15.5 8.8951 14.6046 7.99967 13.5 7.99967H10.5Z" fill="#DADDE2"/>
<path fill-rule="evenodd" clip-rule="evenodd" d="M10.5 16.9997C9.39543 16.9997 8.5 17.8951 8.5 18.9997V21.9997C8.5 23.1042 9.39543 23.9997 10.5 23.9997H13.5C14.6046 23.9997 15.5 23.1042 15.5 21.9997V18.9997C15.5 17.8951 14.6046 16.9997 13.5 16.9997H10.5Z" fill="#DADDE2"/>
<path fill-rule="evenodd" clip-rule="evenodd" d="M19.5 7.99967C18.3954 7.99967 17.5 8.8951 17.5 9.99967V12.9997C17.5 14.1042 18.3954 14.9997 19.5 14.9997H22.5C23.6046 14.9997 24.5 14.1042 24.5 12.9997V9.99967C24.5 8.8951 23.6046 7.99967 22.5 7.99967H19.5Z" fill="#DADDE2"/>
<path fill-rule="evenodd" clip-rule="evenodd" d="M8.5 5.99707H10.5V5.99967H12.5V3.99707H8.5C6.29086 3.99707 4.5 5.78793 4.5 7.99707V11.9971H6.5V7.99707C6.5 6.8925 7.39543 5.99707 8.5 5.99707Z" fill="#DADDE2"/>
<path fill-rule="evenodd" clip-rule="evenodd" d="M8.5 25.9997H10.5V25.9971H12.5V27.9997H8.5C6.29086 27.9997 4.5 26.2088 4.5 23.9997V19.9997H6.5V23.9997C6.5 25.1042 7.39543 25.9997 8.5 25.9997Z" fill="#DADDE2"/>
<path fill-rule="evenodd" clip-rule="evenodd" d="M24.5 5.99707H22.5V5.99967H20.5V3.99707H24.5C26.7091 3.99707 28.5 5.78793 28.5 7.99707V11.9971H26.5V7.99707C26.5 6.8925 25.6046 5.99707 24.5 5.99707Z" fill="#DADDE2"/>
<path fill-rule="evenodd" clip-rule="evenodd" d="M24.5 25.9997H22.5V25.9971H20.5V27.9997H24.5C26.7091 27.9997 28.5 26.2088 28.5 23.9997V19.9997H26.5V23.9997C26.5 25.1042 25.6046 25.9997 24.5 25.9997Z" fill="#DADDE2"/>
<path fill-rule="evenodd" clip-rule="evenodd" d="M21.1667 16.9997H19.5C18.3954 16.9997 17.5 17.8951 17.5 18.9997V20.6663H19.5V18.9997H21.1667V16.9997Z" fill="#DADDE2"/>
<path fill-rule="evenodd" clip-rule="evenodd" d="M20.8333 23.9997H22.5C23.6046 23.9997 24.5 23.1042 24.5 21.9997V20.333H22.5V21.9997H20.8333L20.8333 23.9997Z" fill="#DADDE2"/>
<path d="M22.5 16.9997H24.5V18.9997H22.5V16.9997Z" fill="#DADDE2"/>
<path d="M17.5 21.9997H19.5V23.9997H17.5V21.9997Z" fill="#DADDE2"/>
</g>
</g>
</svg>
