<svg width="29" height="28" viewBox="0 0 29 28" fill="none" xmlns="http://www.w3.org/2000/svg">
<path fill-rule="evenodd" clip-rule="evenodd" d="M11.875 8.75033H9.25V11.3753H11.875V8.75033ZM9.25 7.00033C8.2835 7.00033 7.5 7.78383 7.5 8.75033V11.3753C7.5 12.3418 8.2835 13.1253 9.25 13.1253H11.875C12.8415 13.1253 13.625 12.3418 13.625 11.3753V8.75033C13.625 7.78383 12.8415 7.00033 11.875 7.00033H9.25Z" fill="#BEC2CB"/>
<path fill-rule="evenodd" clip-rule="evenodd" d="M11.875 16.6253H9.25V19.2503H11.875V16.6253ZM9.25 14.8753C8.2835 14.8753 7.5 15.6588 7.5 16.6253V19.2503C7.5 20.2168 8.2835 21.0003 9.25 21.0003H11.875C12.8415 21.0003 13.625 20.2168 13.625 19.2503V16.6253C13.625 15.6588 12.8415 14.8753 11.875 14.8753H9.25Z" fill="#BEC2CB"/>
<path fill-rule="evenodd" clip-rule="evenodd" d="M19.75 8.75033H17.125V11.3753H19.75V8.75033ZM17.125 7.00033C16.1585 7.00033 15.375 7.78383 15.375 8.75033V11.3753C15.375 12.3418 16.1585 13.1253 17.125 13.1253H19.75C20.7165 13.1253 21.5 12.3418 21.5 11.3753V8.75033C21.5 7.78383 20.7165 7.00033 19.75 7.00033H17.125Z" fill="#BEC2CB"/>
<path fill-rule="evenodd" clip-rule="evenodd" d="M7.5 5.24805H9.25V5.25033H11V3.49805H7.5C5.567 3.49805 4 5.06505 4 6.99805V10.498H5.75V6.99805C5.75 6.03155 6.5335 5.24805 7.5 5.24805Z" fill="#BEC2CB"/>
<path fill-rule="evenodd" clip-rule="evenodd" d="M7.5 22.7503H9.25V22.748H11V24.5003H7.5C5.567 24.5003 4 22.9333 4 21.0003V17.5003H5.75V21.0003C5.75 21.9668 6.5335 22.7503 7.5 22.7503Z" fill="#BEC2CB"/>
<path fill-rule="evenodd" clip-rule="evenodd" d="M21.5 5.24805H19.75V5.25033H18V3.49805H21.5C23.433 3.49805 25 5.06505 25 6.99805V10.498H23.25V6.99805C23.25 6.03155 22.4665 5.24805 21.5 5.24805Z" fill="#BEC2CB"/>
<path fill-rule="evenodd" clip-rule="evenodd" d="M21.5 22.7503H19.75V22.748H18V24.5003H21.5C23.433 24.5003 25 22.9333 25 21.0003V17.5003H23.25V21.0003C23.25 21.9668 22.4665 22.7503 21.5 22.7503Z" fill="#BEC2CB"/>
<path fill-rule="evenodd" clip-rule="evenodd" d="M18.5833 14.8753H17.125C16.1585 14.8753 15.375 15.6588 15.375 16.6253V18.0837H17.125V16.6253H18.5833V14.8753Z" fill="#BEC2CB"/>
<path fill-rule="evenodd" clip-rule="evenodd" d="M18.2917 21.0003H19.75C20.7165 21.0003 21.5 20.2168 21.5 19.2503V17.792H19.75V19.2503H18.2917L18.2917 21.0003Z" fill="#BEC2CB"/>
<path d="M19.75 14.8753H21.5V16.6253H19.75V14.8753Z" fill="#BEC2CB"/>
<path d="M15.375 19.2503H17.125V21.0003H15.375V19.2503Z" fill="#BEC2CB"/>
</svg>
