<svg width="29" height="28" viewBox="0 0 29 28" fill="none" xmlns="http://www.w3.org/2000/svg">
<path d="M23.3694 7.73215L18.4541 2.78085C18.1473 2.47168 17.7308 2.29785 17.2945 2.29785H6.80597C5.90412 2.29785 5.17261 3.02935 5.17261 3.93117V22.1346C5.17261 24.0677 6.73946 25.6345 8.67266 25.6345H20.3418C22.2739 25.6345 23.8419 24.0677 23.8419 22.1346V8.88248C23.843 8.45198 23.6715 8.03898 23.3694 7.73215ZM17.3901 4.19251L21.981 8.81715H17.4473C17.4158 8.81715 17.3901 8.79265 17.3901 8.75881V4.19251ZM22.093 22.1346C22.093 23.1017 21.309 23.8846 20.343 23.8846H8.67266C7.70548 23.8846 6.92263 23.1006 6.92263 22.1346V4.04784H15.6389V8.75998C15.6389 9.75747 16.4451 10.5683 17.4461 10.5683H22.0919L22.093 22.1346Z" fill="#BEC2CB"/>
<path d="M19.1751 19.2552H9.79618V21.0052H19.1751V19.2552Z" fill="#BEC2CB"/>
<path d="M19.1751 15.7319H9.79618V17.4819H19.1751V15.7319Z" fill="#BEC2CB"/>
</svg>
