<svg width="25" height="24" viewBox="0 0 25 24" fill="none" xmlns="http://www.w3.org/2000/svg">
<g id="ic_slow">
<path id="icon" fill-rule="evenodd" clip-rule="evenodd" d="M22.7001 12C22.7001 17.5228 18.2229 22 12.7001 22C7.17723 22 2.70007 17.5228 2.70007 12C2.70007 6.47715 7.17723 2 12.7001 2C18.2229 2 22.7001 6.47715 22.7001 12ZM10.9149 8.21655C10.9149 9.41937 9.93986 10.3944 8.73704 10.3944C7.53422 10.3944 6.55914 9.41937 6.55914 8.21655C6.55914 7.01373 7.53422 6.03865 8.73704 6.03865C9.93986 6.03865 10.9149 7.01373 10.9149 8.21655ZM7.60643 15.1682C8.41855 15.1682 9.07689 14.5098 9.07689 13.6977C9.07689 12.8856 8.41855 12.2272 7.60643 12.2272C6.79432 12.2272 6.13597 12.8856 6.13597 13.6977C6.13597 14.5098 6.79432 15.1682 7.60643 15.1682ZM19.2629 13.6977C19.2629 14.5098 18.6046 15.1682 17.7924 15.1682C16.9803 15.1682 16.322 14.5098 16.322 13.6977C16.322 12.8856 16.9803 12.2272 17.7924 12.2272C18.6046 12.2272 19.2629 12.8856 19.2629 13.6977ZM16.663 10.3944C17.8658 10.3944 18.8409 9.41937 18.8409 8.21655C18.8409 7.01373 17.8658 6.03865 16.663 6.03865C15.4602 6.03865 14.4851 7.01373 14.4851 8.21655C14.4851 9.41937 15.4602 10.3944 16.663 10.3944ZM14.877 17.2548C14.877 18.4576 13.9019 19.4327 12.6991 19.4327C11.4963 19.4327 10.5212 18.4576 10.5212 17.2548C10.5212 16.052 11.4963 15.0769 12.6991 15.0769C13.9019 15.0769 14.877 16.052 14.877 17.2548Z" fill="#697387"/>
</g>
</svg>
