<svg width="40" height="40" viewBox="0 0 40 40" fill="none" xmlns="http://www.w3.org/2000/svg">
<path d="M0 8C0 3.58172 3.58172 0 8 0H32C36.4183 0 40 3.58172 40 8V32C40 36.4183 36.4183 40 32 40H8C3.58172 40 0 36.4183 0 32V8Z" fill="#D1FADF"/>
<path fill-rule="evenodd" clip-rule="evenodd" d="M12 11.6562C12 10.8278 12.6716 10.1562 13.5 10.1562H21.5C22.3284 10.1562 23 10.8278 23 11.6562V19.4062H23.823C24.7895 19.4062 25.573 20.1898 25.573 21.1562V26.6562C25.573 26.7943 25.6849 26.9062 25.823 26.9062H26.4676C26.6057 26.9062 26.7176 26.7943 26.7176 26.6562V17.1365C25.7468 16.9992 25 16.1649 25 15.1562V13.4562C25 13.2906 25.1344 13.1562 25.3 13.1562H26V11.6562C26 11.3801 26.2239 11.1562 26.5 11.1562C26.7762 11.1562 27 11.3801 27 11.6562V13.1562H28V11.6562C28 11.3801 28.2239 11.1562 28.5 11.1562C28.7762 11.1562 29 11.3801 29 11.6562V13.1562H29.7C29.8657 13.1562 30 13.2906 30 13.4562V15.1562C30 16.1873 29.2198 17.0361 28.2176 17.1446V26.6562C28.2176 27.6227 27.4341 28.4062 26.4676 28.4062H25.823C24.8565 28.4062 24.073 27.6227 24.073 26.6562V21.1562C24.073 21.0182 23.9611 20.9062 23.823 20.9062H23V30.1562H12V11.6562ZM14 12.1562H21V18.1562H14V12.1562Z" fill="#12B76A"/>
</svg>
