<svg width="40" height="40" viewBox="0 0 40 40" fill="none" xmlns="http://www.w3.org/2000/svg">
<path d="M0 8C0 3.58172 3.58172 0 8 0H32C36.4183 0 40 3.58172 40 8V32C40 36.4183 36.4183 40 32 40H8C3.58172 40 0 36.4183 0 32V8Z" fill="#E8EBF0"/>
<path fill-rule="evenodd" clip-rule="evenodd" d="M11 15.6562C11 12.6187 13.4624 10.1562 16.5 10.1562C19.5376 10.1562 22 12.6187 22 15.6562V19.4062H22.823C23.7895 19.4062 24.573 20.1898 24.573 21.1562V26.6562C24.573 26.7943 24.6849 26.9062 24.823 26.9062H25.4676C25.6057 26.9062 25.7176 26.7943 25.7176 26.6562V17.1365C24.7468 16.9992 24 16.1649 24 15.1562V13.4562C24 13.2906 24.1344 13.1562 24.3 13.1562H25V11.6562C25 11.3801 25.2239 11.1562 25.5 11.1562C25.7762 11.1562 26 11.3801 26 11.6562V13.1562H27V11.6562C27 11.3801 27.2239 11.1562 27.5 11.1562C27.7762 11.1562 28 11.3801 28 11.6562V13.1562H28.7C28.8657 13.1562 29 13.2906 29 13.4562V15.1562C29 16.1873 28.2198 17.0361 27.2176 17.1446V26.6562C27.2176 27.6227 26.4341 28.4062 25.4676 28.4062H24.823C23.8565 28.4062 23.073 27.6227 23.073 26.6562V21.1562C23.073 21.0182 22.9611 20.9062 22.823 20.9062H22V27.6562C22 29.037 20.8807 30.1562 19.5 30.1562H13.5C12.1193 30.1562 11 29.037 11 27.6562V15.6562ZM20 15.1562V21.1562H13V15.1562H20Z" fill="#4B5468"/>
</svg>
