<svg width="290" height="210" viewBox="0 0 290 210" fill="none" xmlns="http://www.w3.org/2000/svg">
<g filter="url(#filter0_d_1331_17)">
<rect x="20" y="10" width="228" height="140" rx="16" fill="url(#paint0_linear_1331_17)"/>
<rect x="21" y="11" width="226" height="138" rx="15" stroke="white" stroke-opacity="0.3" stroke-width="2"/>
</g>
<rect opacity="0.4" x="20" y="38" width="228" height="23" fill="white"/>
<g filter="url(#filter1_bd_1331_17)">
<rect x="47" y="50" width="228" height="140" rx="16" fill="white" fill-opacity="0.8" shape-rendering="crispEdges"/>
<rect x="48" y="51" width="226" height="138" rx="15" stroke="white" stroke-width="2" shape-rendering="crispEdges"/>
</g>
<path fill-rule="evenodd" clip-rule="evenodd" d="M105 130C110.523 130 115 125.523 115 120C115 114.477 110.523 110 105 110C99.4772 110 95 114.477 95 120C95 125.523 99.4772 130 105 130ZM105.755 119.245H111.085V120.745H105.755V126.085H104.255V120.745H98.915V119.245H104.255V113.915H105.755V119.245Z" fill="#354056"/>
<path d="M126.728 113.554H134.342C134.342 118.666 133.136 122.932 126.962 126.082L125.702 124.246C128.42 122.896 130.022 121.348 130.958 119.53L126.152 119.998L125.846 117.982L131.642 117.64C131.804 116.956 131.93 116.236 131.984 115.444H126.728V113.554ZM141.074 118.288V120.25H138.752V128.512H136.376V111.952H138.752V118.288H141.074ZM155.743 119.62V121.51H144.079V113.338H155.617V115.264H146.455V119.62H155.743ZM142.333 124.624H157.345V126.568H142.333V124.624ZM164.87 121.042L164.042 119.17C167.498 118.792 169.262 117.19 169.532 115.75H164.636V113.86H169.568V112.006H171.944V113.86H176.912V115.75H171.998C172.286 117.154 174.086 118.792 177.488 119.17L176.642 121.042C173.834 120.7 171.836 119.566 170.774 118.072C169.712 119.566 167.714 120.7 164.87 121.042ZM178.28 121.888V123.814H171.944V128.584H169.568V123.814H163.304V121.888H178.28ZM180.6 113.662H188.412C188.412 118.63 186.522 122.896 181.014 125.686L179.682 123.868C183.534 121.888 185.586 119.26 186.018 115.588H180.6V113.662ZM195.144 118.288V120.25H192.822V128.512H190.446V111.952H192.822V118.288H195.144ZM201.191 123.22C202.307 123.22 203.117 122.464 203.117 121.186C203.117 119.944 202.307 119.17 201.191 119.17C200.075 119.17 199.247 119.944 199.247 121.204C199.247 122.464 200.075 123.22 201.191 123.22ZM201.191 117.244C203.585 117.244 205.367 118.882 205.367 121.186C205.367 123.526 203.585 125.164 201.191 125.164C198.779 125.164 196.979 123.526 196.979 121.186C196.979 118.882 198.779 117.244 201.191 117.244ZM202.361 112.258V114.418H205.961V116.308H196.313V114.418H199.985V112.258H202.361ZM211.793 118.45V120.412H209.417V128.548H207.041V111.97H209.417V118.45H211.793ZM213.88 113.68H221.836C221.836 118.756 220.126 122.896 214.24 125.74L212.998 123.868C217.228 121.834 219.064 119.242 219.406 115.57H213.88V113.68ZM224.374 111.952H226.768V128.53H224.374V111.952Z" fill="#354056"/>
<defs>
<filter id="filter0_d_1331_17" x="0" y="5.96046e-08" width="268" height="180" filterUnits="userSpaceOnUse" color-interpolation-filters="sRGB">
<feFlood flood-opacity="0" result="BackgroundImageFix"/>
<feColorMatrix in="SourceAlpha" type="matrix" values="0 0 0 0 0 0 0 0 0 0 0 0 0 0 0 0 0 0 127 0" result="hardAlpha"/>
<feOffset dy="10"/>
<feGaussianBlur stdDeviation="10"/>
<feComposite in2="hardAlpha" operator="out"/>
<feColorMatrix type="matrix" values="0 0 0 0 0 0 0 0 0 0 0 0 0 0 0 0 0 0 0.08 0"/>
<feBlend mode="normal" in2="BackgroundImageFix" result="effect1_dropShadow_1331_17"/>
<feBlend mode="normal" in="SourceGraphic" in2="effect1_dropShadow_1331_17" result="shape"/>
</filter>
<filter id="filter1_bd_1331_17" x="7" y="10" width="308" height="220" filterUnits="userSpaceOnUse" color-interpolation-filters="sRGB">
<feFlood flood-opacity="0" result="BackgroundImageFix"/>
<feGaussianBlur in="BackgroundImageFix" stdDeviation="20"/>
<feComposite in2="SourceAlpha" operator="in" result="effect1_backgroundBlur_1331_17"/>
<feColorMatrix in="SourceAlpha" type="matrix" values="0 0 0 0 0 0 0 0 0 0 0 0 0 0 0 0 0 0 127 0" result="hardAlpha"/>
<feOffset dy="5"/>
<feGaussianBlur stdDeviation="7.5"/>
<feComposite in2="hardAlpha" operator="out"/>
<feColorMatrix type="matrix" values="0 0 0 0 0 0 0 0 0 0 0 0 0 0 0 0 0 0 0.05 0"/>
<feBlend mode="normal" in2="effect1_backgroundBlur_1331_17" result="effect2_dropShadow_1331_17"/>
<feBlend mode="normal" in="SourceGraphic" in2="effect2_dropShadow_1331_17" result="shape"/>
</filter>
<linearGradient id="paint0_linear_1331_17" x1="103.672" y1="9.99889" x2="168.398" y2="152.242" gradientUnits="userSpaceOnUse">
<stop stop-color="#15C8A7"/>
<stop offset="1" stop-color="#71EAB6"/>
</linearGradient>
</defs>
</svg>
