<svg width="211" height="210" viewBox="0 0 211 210" fill="none" xmlns="http://www.w3.org/2000/svg">
<circle opacity="0.2" cx="101.515" cy="97.0002" r="65.0148" fill="#71EAB6"/>
<g filter="url(#filter0_i_2085_9756)">
<path d="M76.2117 121.975L114.334 84.4364L155.502 134.269C166.555 147.648 164.812 167.366 151.609 178.274L145.659 183.189C132.458 194.095 112.765 192.089 101.711 178.708L78.0817 155.301L76.2117 121.975Z" fill="url(#paint0_linear_2085_9756)"/>
</g>
<rect x="137.5" y="167" width="71.75" height="140" rx="10" transform="rotate(-180 137.5 167)" fill="#4B546B"/>
<g filter="url(#filter1_i_2085_9756)">
<rect x="68.5" y="29.8398" width="66.3209" height="134.319" rx="8" fill="white"/>
</g>
<g filter="url(#filter2_i_2085_9756)">
<circle cx="101.25" cy="34.3096" r="1.75" fill="#495369"/>
</g>
<rect x="75.5" y="149.221" width="52" height="10" rx="1" fill="#697387"/>
<g filter="url(#filter3_dii_2085_9756)">
<path fill-rule="evenodd" clip-rule="evenodd" d="M152.037 137.14C153.16 138.212 154.175 139.434 155.051 140.798C160.996 150.061 158.297 162.397 149.021 168.351C139.746 174.304 127.407 171.621 121.461 162.358C120.591 161.002 119.906 159.58 119.399 158.122C117.484 153.911 117.256 148.948 119.145 144.192L119.423 143.594L113.702 146.062C107.105 148.909 99.4492 145.868 96.6027 139.27L95.0865 135.756C94.4645 134.315 95.1306 132.643 96.5697 132.022L127.877 118.514C131.119 117.115 134.893 117.949 137.246 120.582L152.037 137.14Z" fill="#F3F5F9"/>
</g>
<path fill-rule="evenodd" clip-rule="evenodd" d="M117.585 83.0375H118.125C121.991 83.0375 125.125 86.1715 125.125 90.0375V95.0375C125.125 96.142 124.23 97.0375 123.125 97.0375H118.505C118.04 99.317 116.024 101.032 113.606 101.032C111.189 101.032 109.173 99.317 108.708 97.0375H94.5424C94.0771 99.317 92.0606 101.032 89.6436 101.032C87.2265 101.032 85.21 99.317 84.7447 97.0375H80.125C79.0204 97.0375 78.125 96.142 78.125 95.0375V90.0375C78.125 86.1715 81.259 83.0375 85.125 83.0375H85.6653C86.1459 77.4061 90.8692 72.9854 96.625 72.9854H106.625C112.381 72.9854 117.104 77.4061 117.585 83.0375Z" fill="url(#paint1_linear_2085_9756)"/>
<path d="M101.984 78.2917C102.347 77.6641 103.226 78.0285 103.128 78.7661L102.703 81.9705H104.568C105.072 81.9705 105.369 82.5977 105.082 83.0569L100.242 90.8011C99.8369 91.4489 98.9255 90.9645 99.1286 90.2095L100.27 85.9674L98.6827 85.9674C98.1885 85.9674 97.8898 85.3621 98.1566 84.9013L101.984 78.2917Z" fill="white"/>
<defs>
<filter id="filter0_i_2085_9756" x="76.2119" y="81.4365" width="86.562" height="108.781" filterUnits="userSpaceOnUse" color-interpolation-filters="sRGB">
<feFlood flood-opacity="0" result="BackgroundImageFix"/>
<feBlend mode="normal" in="SourceGraphic" in2="BackgroundImageFix" result="shape"/>
<feColorMatrix in="SourceAlpha" type="matrix" values="0 0 0 0 0 0 0 0 0 0 0 0 0 0 0 0 0 0 127 0" result="hardAlpha"/>
<feOffset dy="-3"/>
<feGaussianBlur stdDeviation="3"/>
<feComposite in2="hardAlpha" operator="arithmetic" k2="-1" k3="1"/>
<feColorMatrix type="matrix" values="0 0 0 0 0.105882 0 0 0 0 0.129412 0 0 0 0 0.192157 0 0 0 0.05 0"/>
<feBlend mode="normal" in2="shape" result="effect1_innerShadow_2085_9756"/>
</filter>
<filter id="filter1_i_2085_9756" x="68.5" y="29.8398" width="66.3208" height="134.318" filterUnits="userSpaceOnUse" color-interpolation-filters="sRGB">
<feFlood flood-opacity="0" result="BackgroundImageFix"/>
<feBlend mode="normal" in="SourceGraphic" in2="BackgroundImageFix" result="shape"/>
<feColorMatrix in="SourceAlpha" type="matrix" values="0 0 0 0 0 0 0 0 0 0 0 0 0 0 0 0 0 0 127 0" result="hardAlpha"/>
<feOffset/>
<feGaussianBlur stdDeviation="1"/>
<feComposite in2="hardAlpha" operator="arithmetic" k2="-1" k3="1"/>
<feColorMatrix type="matrix" values="0 0 0 0 0.333385 0 0 0 0 0.397943 0 0 0 0 0.4625 0 0 0 0.15 0"/>
<feBlend mode="normal" in2="shape" result="effect1_innerShadow_2085_9756"/>
</filter>
<filter id="filter2_i_2085_9756" x="99.5" y="32.5596" width="3.5" height="3.5" filterUnits="userSpaceOnUse" color-interpolation-filters="sRGB">
<feFlood flood-opacity="0" result="BackgroundImageFix"/>
<feBlend mode="normal" in="SourceGraphic" in2="BackgroundImageFix" result="shape"/>
<feColorMatrix in="SourceAlpha" type="matrix" values="0 0 0 0 0 0 0 0 0 0 0 0 0 0 0 0 0 0 127 0" result="hardAlpha"/>
<feOffset/>
<feGaussianBlur stdDeviation="0.1"/>
<feComposite in2="hardAlpha" operator="arithmetic" k2="-1" k3="1"/>
<feColorMatrix type="matrix" values="0 0 0 0 0 0 0 0 0 0 0 0 0 0 0 0 0 0 0.4 0"/>
<feBlend mode="normal" in2="shape" result="effect1_innerShadow_2085_9756"/>
</filter>
<filter id="filter3_dii_2085_9756" x="85.8535" y="113.843" width="75.354" height="65.6758" filterUnits="userSpaceOnUse" color-interpolation-filters="sRGB">
<feFlood flood-opacity="0" result="BackgroundImageFix"/>
<feColorMatrix in="SourceAlpha" type="matrix" values="0 0 0 0 0 0 0 0 0 0 0 0 0 0 0 0 0 0 127 0" result="hardAlpha"/>
<feOffset dx="-3" dy="2"/>
<feGaussianBlur stdDeviation="3"/>
<feComposite in2="hardAlpha" operator="out"/>
<feColorMatrix type="matrix" values="0 0 0 0 0.105882 0 0 0 0 0.129412 0 0 0 0 0.192157 0 0 0 0.1 0"/>
<feBlend mode="normal" in2="BackgroundImageFix" result="effect1_dropShadow_2085_9756"/>
<feBlend mode="normal" in="SourceGraphic" in2="effect1_dropShadow_2085_9756" result="shape"/>
<feColorMatrix in="SourceAlpha" type="matrix" values="0 0 0 0 0 0 0 0 0 0 0 0 0 0 0 0 0 0 127 0" result="hardAlpha"/>
<feOffset dx="3" dy="-2"/>
<feGaussianBlur stdDeviation="2"/>
<feComposite in2="hardAlpha" operator="arithmetic" k2="-1" k3="1"/>
<feColorMatrix type="matrix" values="0 0 0 0 0.105882 0 0 0 0 0.129412 0 0 0 0 0.192157 0 0 0 0.06 0"/>
<feBlend mode="normal" in2="shape" result="effect2_innerShadow_2085_9756"/>
<feColorMatrix in="SourceAlpha" type="matrix" values="0 0 0 0 0 0 0 0 0 0 0 0 0 0 0 0 0 0 127 0" result="hardAlpha"/>
<feOffset/>
<feGaussianBlur stdDeviation="3"/>
<feComposite in2="hardAlpha" operator="arithmetic" k2="-1" k3="1"/>
<feColorMatrix type="matrix" values="0 0 0 0 0.105882 0 0 0 0 0.129412 0 0 0 0 0.192157 0 0 0 0.1 0"/>
<feBlend mode="normal" in2="effect2_innerShadow_2085_9756" result="effect3_innerShadow_2085_9756"/>
</filter>
<linearGradient id="paint0_linear_2085_9756" x1="102.149" y1="127.126" x2="148.457" y2="192.53" gradientUnits="userSpaceOnUse">
<stop offset="0.430783" stop-color="#ECEFF3"/>
<stop offset="0.93" stop-color="#E8EBF0"/>
</linearGradient>
<linearGradient id="paint1_linear_2085_9756" x1="95.3732" y1="72.9851" x2="108.096" y2="101.755" gradientUnits="userSpaceOnUse">
<stop stop-color="#15C8A7"/>
<stop offset="1" stop-color="#71EAB6"/>
</linearGradient>
</defs>
</svg>
