<svg width="32" height="32" viewBox="0 0 32 32" fill="none" xmlns="http://www.w3.org/2000/svg">
<path d="M20.0003 2.66602H12.0003C11.2639 2.66602 10.667 3.26297 10.667 3.99935V6.66602C10.667 7.4024 11.2639 7.99935 12.0003 7.99935H20.0003C20.7367 7.99935 21.3337 7.4024 21.3337 6.66602V3.99935C21.3337 3.26297 20.7367 2.66602 20.0003 2.66602Z" stroke="black" stroke-width="2" stroke-linecap="round" stroke-linejoin="round"/>
<path d="M21.333 5.33398H23.9997C24.7069 5.33398 25.3852 5.61494 25.8853 6.11503C26.3854 6.61513 26.6663 7.29341 26.6663 8.00065V26.6673C26.6663 27.3746 26.3854 28.0528 25.8853 28.5529C25.3852 29.053 24.7069 29.334 23.9997 29.334H7.99967C7.29243 29.334 6.61415 29.053 6.11406 28.5529C5.61396 28.0528 5.33301 27.3746 5.33301 26.6673V8.00065C5.33301 7.29341 5.61396 6.61513 6.11406 6.11503C6.61415 5.61494 7.29243 5.33398 7.99967 5.33398H10.6663" stroke="black" stroke-width="2" stroke-linecap="round" stroke-linejoin="round"/>
<path d="M12 18.6667L14.6667 21.3333L20 16" stroke="black" stroke-width="2" stroke-linecap="round" stroke-linejoin="round"/>
</svg>
