<svg width="100" height="100" viewBox="0 0 100 100" fill="none" xmlns="http://www.w3.org/2000/svg">
<path d="M10 48.0578C10 45.8868 11.7599 44.127 13.9308 44.127H17.51C20.0748 44.127 22.1539 46.2061 22.1539 48.7708C22.1539 52.0816 18.7884 54.3289 15.7304 53.0601L12.4244 51.6884C10.9567 51.0795 10 49.6468 10 48.0578Z" fill="#7196F8"/>
<path d="M89 48.0578C89 45.8868 87.2401 44.127 85.0692 44.127H81.49C78.9252 44.127 76.8461 46.2061 76.8461 48.7708C76.8461 52.0816 80.2116 54.3289 83.2696 53.0601L86.5756 51.6884C88.0433 51.0795 89 49.6468 89 48.0578Z" fill="#7196F8"/>
<rect x="15.0645" y="69.8633" width="11.1411" height="16.1368" rx="4" fill="#7196F8"/>
<rect x="71.7822" y="69.8633" width="11.1411" height="16.1368" rx="4" fill="#7196F8"/>
<path d="M24.9563 33.4008C26.0378 30.7401 28.6235 29 31.4956 29H66.4926C69.3647 29 71.9504 30.7401 73.0319 33.4008L81.3982 53.9831C82.4056 56.4614 82.9203 59.1123 82.9136 61.7874L82.8849 73.2207C82.8784 75.8151 80.7735 77.9148 78.1791 77.9148H19.8091C17.2147 77.9148 15.1098 75.8151 15.1033 73.2207L15.0746 61.7874C15.0679 59.1123 15.5826 56.4614 16.59 53.9831L24.9563 33.4008Z" fill="url(#paint0_linear_254_9815)"/>
<path d="M20.1289 61.7896C20.1289 59.2035 22.5334 57.2889 25.0538 57.868L32.908 59.6729C34.3203 59.9975 35.3213 61.2545 35.3213 62.7036C35.3213 64.421 33.929 65.8133 32.2116 65.8133H24.1526C21.9304 65.8133 20.1289 64.0118 20.1289 61.7896Z" fill="#F3F9FF"/>
<path d="M77.8584 61.7896C77.8584 59.2035 75.4539 57.2889 72.9335 57.868L65.0793 59.6729C63.667 59.9975 62.666 61.2545 62.666 62.7036C62.666 64.421 64.0583 65.8133 65.7757 65.8133H73.8347C76.0569 65.8133 77.8584 64.0118 77.8584 61.7896Z" fill="#F3F9FF"/>
<rect x="38.8643" y="68.8398" width="20.2565" height="5.04276" rx="1.76471" fill="#A5C3F9"/>
<path d="M66.1774 32.0234H31.8114C30.1426 32.0234 28.6388 33.0307 28.0037 34.5739L22.4686 48.0225C21.3532 50.7325 23.3458 53.7073 26.2764 53.7073H71.7125C74.6431 53.7073 76.6356 50.7325 75.5202 48.0225L69.9852 34.5739C69.35 33.0307 67.8462 32.0234 66.1774 32.0234Z" fill="#F3F9FF"/>
<path fill-rule="evenodd" clip-rule="evenodd" d="M66.176 28.3139C65.6135 28.3139 65.0565 28.2023 64.5368 27.9855C64.0171 27.7688 63.5449 27.451 63.1471 27.0505C62.7493 26.6499 62.4338 26.1744 62.2185 25.6511C62.0033 25.1277 61.8925 24.5668 61.8925 24.0004C61.8925 23.4339 62.0033 22.873 62.2185 22.3496C62.4338 21.8263 62.7493 21.3508 63.1471 20.9502C63.5449 20.5497 64.0171 20.232 64.5368 20.0152C65.0565 19.7984 65.6135 19.6868 66.176 19.6868C67.3121 19.6868 68.4016 20.1413 69.2049 20.9502C70.0082 21.7592 70.4595 22.8563 70.4595 24.0004C70.4595 25.1444 70.0082 26.2415 69.2049 27.0505C68.4016 27.8594 67.3121 28.3139 66.176 28.3139ZM76.7292 26.2962C76.1415 25.6834 75.8135 24.8646 75.8144 24.0127V23.988C75.8135 23.1361 76.1415 22.3173 76.7292 21.7045L77.8262 20.5633C78.2772 20.0927 78.3636 19.3774 78.04 18.8115L76.5703 16.2492C76.4126 15.9734 76.1698 15.7568 75.8789 15.6324C75.588 15.508 75.2647 15.4825 74.958 15.5598L73.4217 15.9457C72.5968 16.1537 71.7237 16.0282 70.9894 15.5962L70.9683 15.5845C70.2451 15.1612 69.7129 14.4722 69.4834 13.6621L69.0442 12.1221C68.9576 11.8159 68.7742 11.5464 68.5218 11.3545C68.2695 11.1626 67.9619 11.0587 67.6457 11.0586H64.7063C64.0579 11.0586 63.4854 11.4927 63.3079 12.1221L62.8347 13.7798C62.627 14.5206 62.1386 15.1497 61.4748 15.5315C61.4062 15.5701 61.3385 15.6102 61.2715 15.6515C60.6055 16.0509 59.8095 16.1685 59.0576 15.9786L57.3928 15.5598C57.0863 15.4826 56.7632 15.508 56.4723 15.6322C56.1814 15.7564 55.9386 15.9725 55.7806 16.248L54.312 18.8115C54.1541 19.0873 54.0895 19.4074 54.1281 19.7234C54.1666 20.0394 54.3062 20.3342 54.5258 20.5633L55.6228 21.7045C56.2105 22.3174 56.5388 23.1362 56.5388 23.9868V24.0127C56.5388 24.8645 56.2105 25.6833 55.6228 26.2962L55.0352 26.908C54.6687 27.2896 54.4356 27.7809 54.3711 28.3078C54.3066 28.8346 54.4142 29.3682 54.6777 29.828L55.7817 31.7515C56.1065 32.3186 56.7631 32.5998 57.394 32.4409L59.0588 32.0221C59.8107 31.8322 60.6067 31.9498 61.2727 32.3492C61.3393 32.3904 61.4071 32.4304 61.476 32.4692C62.1407 32.848 62.6256 33.4798 62.8359 34.2209L63.3079 35.8786C63.4854 36.508 64.0579 36.9409 64.7063 36.9409H67.6457C68.2941 36.9409 68.8666 36.508 69.0442 35.8786L69.5162 34.2209C69.7264 33.4798 70.2113 32.848 70.876 32.4692C70.945 32.4304 71.0127 32.3904 71.0793 32.3492C71.7454 31.9498 72.5413 31.8322 73.2932 32.0221L74.958 32.4409C75.2645 32.5181 75.5877 32.4927 75.8785 32.3685C76.1694 32.2444 76.4122 32.0282 76.5703 31.7527L78.04 29.1892C78.198 28.9134 78.2625 28.5933 78.224 28.2773C78.1854 27.9613 78.0458 27.6665 77.8262 27.4374L76.728 26.2962H76.7292Z" fill="#7196F8"/>
<path fill-rule="evenodd" clip-rule="evenodd" d="M87.0588 31.2549C86.7295 31.2549 86.4035 31.189 86.0993 31.0609C85.7951 30.9328 85.5186 30.745 85.2858 30.5083C85.053 30.2717 84.8683 29.9907 84.7423 29.6814C84.6162 29.3722 84.5514 29.0407 84.5514 28.706C84.5514 28.3713 84.6162 28.0398 84.7423 27.7306C84.8683 27.4213 85.053 27.1403 85.2858 26.9037C85.5186 26.667 85.7951 26.4792 86.0993 26.3511C86.4035 26.223 86.7295 26.1571 87.0588 26.1571C87.7238 26.1571 88.3616 26.4256 88.8318 26.9037C89.3021 27.3817 89.5663 28.03 89.5663 28.706C89.5663 29.382 89.3021 30.0303 88.8318 30.5083C88.3616 30.9864 87.7238 31.2549 87.0588 31.2549ZM93.2363 30.0627C92.8923 29.7005 92.7003 29.2167 92.7008 28.7133V28.6987C92.7003 28.1953 92.8923 27.7115 93.2363 27.3493L93.8784 26.675C94.1424 26.3969 94.193 25.9743 94.0036 25.6399L93.1433 24.1258C93.0509 23.9628 92.9089 23.8348 92.7386 23.7613C92.5683 23.6878 92.379 23.6727 92.1995 23.7184L91.3002 23.9464C90.8173 24.0693 90.3062 23.9952 89.8764 23.7399L89.8641 23.733C89.4407 23.4829 89.1292 23.0757 88.9949 22.597L88.7377 21.687C88.687 21.5061 88.5797 21.3468 88.432 21.2334C88.2843 21.12 88.1042 21.0587 87.9191 21.0586H86.1985C85.819 21.0586 85.4839 21.3151 85.3799 21.687L85.1029 22.6666C84.9813 23.1043 84.6955 23.4761 84.3069 23.7017C84.2668 23.7245 84.2271 23.7481 84.1879 23.7726C83.798 24.0086 83.3321 24.0781 82.892 23.9659L81.9174 23.7184C81.738 23.6728 81.5489 23.6878 81.3786 23.7612C81.2083 23.8345 81.0662 23.9623 80.9737 24.1251L80.1141 25.6399C80.0216 25.8029 79.9838 25.992 80.0064 26.1787C80.0289 26.3654 80.1107 26.5396 80.2392 26.675L80.8814 27.3493C81.2254 27.7115 81.4175 28.1954 81.4175 28.698V28.7133C81.4175 29.2166 81.2254 29.7005 80.8814 30.0627L80.5374 30.4242C80.3229 30.6496 80.1864 30.94 80.1486 31.2513C80.1109 31.5626 80.1739 31.8779 80.3281 32.1496L80.9744 33.2862C81.1645 33.6213 81.5488 33.7875 81.9181 33.6936L82.8926 33.4461C83.3328 33.3339 83.7987 33.4034 84.1886 33.6394C84.2276 33.6637 84.2672 33.6874 84.3076 33.7103C84.6967 33.9342 84.9805 34.3075 85.1036 34.7454L85.3799 35.725C85.4839 36.0969 85.819 36.3527 86.1985 36.3527H87.9191C88.2987 36.3527 88.6338 36.0969 88.7377 35.725L89.014 34.7454C89.1371 34.3075 89.4209 33.9342 89.8101 33.7103C89.8504 33.6874 89.8901 33.6637 89.9291 33.6394C90.3189 33.4034 90.7849 33.3339 91.225 33.4461L92.1995 33.6936C92.3789 33.7392 92.5681 33.7242 92.7384 33.6508C92.9086 33.5775 93.0508 33.4497 93.1433 33.2869L94.0036 31.7721C94.0961 31.6091 94.1339 31.42 94.1113 31.2333C94.0887 31.0466 94.007 30.8724 93.8784 30.737L93.2356 30.0627H93.2363Z" fill="#7196F8"/>
<defs>
<linearGradient id="paint0_linear_254_9815" x1="35.7252" y1="22.3193" x2="79.5032" y2="72.6578" gradientUnits="userSpaceOnUse">
<stop stop-color="#E3EBFD"/>
<stop offset="1" stop-color="#B9D0FF"/>
</linearGradient>
</defs>
</svg>
