<svg width="96" height="96" viewBox="0 0 96 96" fill="none" xmlns="http://www.w3.org/2000/svg">
<rect width="96" height="96" rx="20" fill="#E8EBF4"/>
<path d="M48.7973 24.1546L67.0985 31.5441C67.8845 31.8615 68.3981 32.6159 68.396 33.4507V50.631C68.396 58.4575 58.3283 66.0696 48.9378 70.7774C48.3487 71.0742 47.6528 71.0742 47.0617 70.7774C37.6711 66.0696 27.6035 58.4575 27.6035 50.631V33.4507C27.6035 32.6138 28.1171 31.8615 28.9031 31.5441L47.2043 24.1546C47.7157 23.9485 48.288 23.9485 48.7973 24.1546Z" fill="#4094F9"/>
<path d="M47.9997 24C47.7297 24.0002 47.4594 24.0518 47.2043 24.1546L28.9031 31.5441C28.1171 31.8615 27.6035 32.6138 27.6035 33.4507V50.631C27.6035 58.4575 37.6711 66.0696 47.0617 70.7774C47.357 70.9257 47.6785 70.9999 47.9997 71V24Z" fill="#A5CEFF"/>
<circle cx="47.9992" cy="47.1984" r="10.798" fill="white"/>
<path d="M42.6787 46.55L47.2804 50.604L53.3202 45.2832" stroke="#4094F9" stroke-width="3" stroke-linecap="round" stroke-linejoin="round"/>
</svg>
