<svg width="100" height="100" viewBox="0 0 100 100" fill="none" xmlns="http://www.w3.org/2000/svg">
<path d="M16.3975 66.8705C16.3975 65.8685 17.032 64.9764 17.9786 64.6477L26.085 61.833C27.6138 61.3022 29.2097 62.4374 29.2097 64.0558V79.7489C29.2097 81.0484 28.1563 82.1019 26.8568 82.1019H18.7504C17.4509 82.1019 16.3975 81.0484 16.3975 79.7489V66.8705Z" fill="#E4EBFD"/>
<path d="M34.5479 60.4184C34.5479 59.4132 35.1864 58.5191 36.1371 58.1928L44.2435 55.4112C45.7708 54.8871 47.3601 56.0221 47.3601 57.6368V81.8842C47.3601 83.1837 46.3067 84.2371 45.0072 84.2371H36.9008C35.6013 84.2371 34.5479 83.1837 34.5479 81.8842V60.4184Z" fill="#E4EBFD"/>
<path d="M52.6992 52.569C52.6992 51.6765 53.2042 50.8608 54.0031 50.4629L62.1095 46.425C63.6737 45.6459 65.5115 46.7836 65.5115 48.5312V81.8821C65.5115 83.1816 64.4581 84.235 63.1586 84.235H55.0522C53.7527 84.235 52.6992 83.1816 52.6992 81.8821V52.569Z" fill="#BED4FB"/>
<path d="M70.8496 42.1995C70.8496 41.4101 71.2455 40.6733 71.9037 40.2375L80.0101 34.8708C81.5742 33.8352 83.6619 34.9569 83.6619 36.8327V81.3493C83.6619 82.6488 82.6084 83.7023 81.309 83.7023H73.2026C71.9031 83.7023 70.8496 82.6488 70.8496 81.3493V42.1995Z" fill="#7196F8"/>
<rect x="11.0586" y="79.9648" width="77.9414" height="4.27076" rx="2.13538" fill="#D6E2FC"/>
<path d="M81.2594 21.2422C63.6425 41.7952 35.3487 53.2729 17.4648 56.476" stroke="#678FF7" stroke-width="5.88235" stroke-linecap="round"/>
<path d="M76.1875 16.4375H85.2629V25.5129" stroke="#678FF7" stroke-width="5.88235" stroke-linecap="round" stroke-linejoin="round"/>
</svg>
