<svg width="100" height="100" viewBox="0 0 100 100" fill="none" xmlns="http://www.w3.org/2000/svg">
<path d="M19 16C19 13.7909 20.7909 12 23 12H77C79.2091 12 81 13.7909 81 16V88C81 90.2091 79.2091 92 77 92H34C25.7157 92 19 85.2843 19 77V16Z" fill="#E7EEFD"/>
<rect x="29" y="21" width="13.0952" height="4" rx="2" fill="url(#paint0_linear_254_9860)"/>
<rect x="29" y="31" width="33" height="4" rx="2" fill="url(#paint1_linear_254_9860)"/>
<rect x="29" y="38" width="22.619" height="4" rx="2" fill="url(#paint2_linear_254_9860)"/>
<rect x="29" y="52" width="12.619" height="4" rx="2" fill="url(#paint3_linear_254_9860)"/>
<rect x="29" y="45" width="28" height="4" rx="2" fill="url(#paint4_linear_254_9860)"/>
<path fill-rule="evenodd" clip-rule="evenodd" d="M31 68C37.6274 68 43 73.3726 43 80C43 86.6274 37.6274 92 31 92L78 92C84.6274 92 90 86.6274 90 80C90 73.3726 84.6274 68 78 68L31 68Z" fill="url(#paint5_linear_254_9860)"/>
<defs>
<linearGradient id="paint0_linear_254_9860" x1="29.3968" y1="23.2286" x2="43.4841" y2="23.2286" gradientUnits="userSpaceOnUse">
<stop stop-color="#A5C3FA"/>
<stop offset="1" stop-color="#C2D7FB"/>
</linearGradient>
<linearGradient id="paint1_linear_254_9860" x1="30" y1="33.2286" x2="65.5" y2="33.2286" gradientUnits="userSpaceOnUse">
<stop stop-color="#A5C3FA"/>
<stop offset="1" stop-color="#C2D7FB"/>
</linearGradient>
<linearGradient id="paint2_linear_254_9860" x1="29.6854" y1="40.2286" x2="54.018" y2="40.2286" gradientUnits="userSpaceOnUse">
<stop stop-color="#A5C3FA"/>
<stop offset="1" stop-color="#C2D7FB"/>
</linearGradient>
<linearGradient id="paint3_linear_254_9860" x1="29.3824" y1="54.2286" x2="42.9574" y2="54.2286" gradientUnits="userSpaceOnUse">
<stop stop-color="#A5C3FA"/>
<stop offset="1" stop-color="#C2D7FB"/>
</linearGradient>
<linearGradient id="paint4_linear_254_9860" x1="29.8485" y1="47.2286" x2="59.9697" y2="47.2286" gradientUnits="userSpaceOnUse">
<stop stop-color="#A5C3FA"/>
<stop offset="1" stop-color="#C2D7FB"/>
</linearGradient>
<linearGradient id="paint5_linear_254_9860" x1="64" y1="78" x2="64" y2="92" gradientUnits="userSpaceOnUse">
<stop stop-color="#D0DFFC"/>
<stop offset="1" stop-color="#7196F8"/>
</linearGradient>
</defs>
</svg>
