<svg width="96" height="96" viewBox="0 0 96 96" fill="none" xmlns="http://www.w3.org/2000/svg">
<rect width="96" height="96" rx="20" fill="#E8EBF4"/>
<path fill-rule="evenodd" clip-rule="evenodd" d="M38.6858 46.1696C38.6034 46.0872 38.484 46.0522 38.3709 46.0805C35.6894 46.7521 32.7323 46.0394 30.6354 43.9425C27.4588 40.7659 27.4588 35.6156 30.6354 32.4391C33.8119 29.2625 38.9622 29.2625 42.1388 32.4391C44.2357 34.536 44.9484 37.4931 44.2768 40.1746C44.2485 40.2877 44.2835 40.4071 44.3659 40.4895L63.2511 59.3747C64.8196 60.9433 64.8196 63.4863 63.2511 65.0548C61.6826 66.6233 59.1395 66.6233 57.571 65.0548L38.6858 46.1696ZM35.3352 34.0228C35.0326 33.9904 34.7317 34.0975 34.5177 34.3138L32.395 36.4592C32.181 36.6755 32.0771 36.9775 32.1128 37.2798L32.4667 40.277C32.5024 40.5792 32.6737 40.8487 32.9323 41.0093L35.4962 42.6013C35.7547 42.7618 36.0723 42.7959 36.359 42.6939L39.2023 41.6819C39.489 41.5799 39.7137 41.3528 39.8126 41.0651L40.7942 38.2111C40.8932 37.9234 40.8558 37.6062 40.6925 37.3494L39.0732 34.8025C38.91 34.5457 38.6386 34.3772 38.336 34.3448L35.3352 34.0228Z" fill="#4094F9"/>
<path d="M62.7315 30.7131C59.7348 29.368 56.0918 29.9258 53.6311 32.3865C51.5306 34.487 50.8167 37.4491 51.4894 40.1352C51.5178 40.2484 51.4827 40.3681 51.4002 40.4506L32.7946 59.0563C31.2234 60.6274 31.2234 63.1748 32.7946 64.746C34.3658 66.3172 36.9132 66.3172 38.4843 64.746L57.0899 46.1403C57.1725 46.0578 57.2921 46.0228 57.4053 46.0511C60.0915 46.7239 63.0535 46.0099 65.1541 43.9094C67.6104 41.4531 68.1706 37.8185 66.8345 34.8248C66.7361 34.6044 66.4487 34.5598 66.2779 34.7305L61.7088 39.2996C60.7542 40.2542 59.2065 40.2542 58.2519 39.2996C57.2973 38.345 57.2973 36.7973 58.2519 35.8427L62.8252 31.2694C62.9958 31.0989 62.9515 30.8119 62.7315 30.7131Z" fill="#A5CEFF"/>
</svg>
