<svg width="96" height="96" viewBox="0 0 96 96" fill="none" xmlns="http://www.w3.org/2000/svg">
<rect width="96" height="96" rx="20" fill="#E8EBF4"/>
<rect x="25" y="30" width="45.8806" height="35.597" rx="6" fill="white"/>
<path d="M25 36C25 32.6863 27.6863 30 31 30H64.8806C68.1943 30 70.8806 32.6863 70.8806 36V38.7015H25V36Z" fill="#4094F9"/>
<rect x="30.5371" y="43.4473" width="6.32836" height="6.32836" rx="2" fill="#95C1F5"/>
<rect x="30.5371" y="52.9395" width="6.32836" height="6.32836" rx="2" fill="#95C1F5"/>
<rect x="40.0303" y="43.4473" width="6.32836" height="6.32836" rx="2" fill="#95C1F5"/>
<rect x="40.0303" y="52.9395" width="6.32836" height="6.32836" rx="2" fill="#95C1F5"/>
<rect x="49.5225" y="43.4473" width="6.32836" height="6.32836" rx="2" fill="#95C1F5"/>
<rect x="49.5225" y="52.9395" width="6.32836" height="6.32836" rx="2" fill="#95C1F5"/>
<rect x="59.0146" y="43.4473" width="6.32836" height="6.32836" rx="2" fill="#95C1F5"/>
<rect x="59.0146" y="52.9395" width="6.32836" height="6.32836" rx="2" fill="#95C1F5"/>
<circle cx="68.1127" cy="62.0365" r="11.3881" fill="#4094F9" stroke="#E8EBF4" stroke-width="3"/>
<path d="M64.5527 61.7913L67.9735 64.8048L72.4632 60.8496" stroke="white" stroke-width="2" stroke-linecap="round" stroke-linejoin="round"/>
</svg>
