<svg width="96" height="96" viewBox="0 0 96 96" fill="none" xmlns="http://www.w3.org/2000/svg">
<rect width="96" height="96" rx="20" fill="#E8EBF4"/>
<rect x="27.4287" y="23" width="40.7103" height="50.105" rx="10" fill="white"/>
<rect x="33.6914" y="54.3164" width="28.1841" height="2.34867" rx="1.17434" fill="#D9D9D9"/>
<rect x="33.6914" y="59.7949" width="28.1841" height="2.34867" rx="1.17434" fill="#D9D9D9"/>
<rect x="33.6914" y="65.2754" width="28.1841" height="2.34867" rx="1.17434" fill="#D9D9D9"/>
<circle cx="47.7837" cy="38.6577" r="10.9605" fill="#E8EBF4"/>
<path fill-rule="evenodd" clip-rule="evenodd" d="M47.7839 38.786C48.5108 38.786 49.208 38.4906 49.7219 37.9647C50.2359 37.4388 50.5247 36.7256 50.5247 35.9819C50.5247 35.2382 50.2359 34.5249 49.7219 33.999C49.208 33.4732 48.5108 33.1777 47.7839 33.1777C47.0571 33.1777 46.3599 33.4732 45.8459 33.999C45.332 34.5249 45.0432 35.2382 45.0432 35.9819C45.0432 36.7256 45.332 37.4388 45.8459 37.9647C46.3599 38.4906 47.0571 38.786 47.7839 38.786ZM47.7839 39.6439C43.8377 39.6439 42.3037 42.2129 42.3037 43.4083C42.3037 44.6029 45.5701 44.9211 47.7839 44.9211C49.9978 44.9211 53.2642 44.6029 53.2642 43.4076C53.2642 42.2129 51.7301 39.6439 47.7839 39.6439Z" fill="#589FF3"/>
<path fill-rule="evenodd" clip-rule="evenodd" d="M78.1734 48.7696C76.7385 47.9412 74.9038 48.4328 74.0753 49.8677L63.6154 67.9849C63.6049 68.0026 63.5946 68.0204 63.5845 68.0383L63.2662 68.5897C62.9843 69.0779 62.9317 69.6356 63.0749 70.1381L62.5063 73.811C62.2846 75.2428 63.4189 75.8978 64.5481 74.9898L67.4441 72.6613C67.9512 72.5342 68.4082 72.2097 68.6902 71.7212L79.4994 52.9993C80.3278 51.5644 79.8362 49.7296 78.4013 48.9012L78.1734 48.7696Z" fill="#D9D9D9"/>
<mask id="mask0_254_9680" style="mask-type:alpha" maskUnits="userSpaceOnUse" x="62" y="48" width="18" height="28">
<path fill-rule="evenodd" clip-rule="evenodd" d="M78.1734 48.7696C76.7385 47.9412 74.9038 48.4328 74.0753 49.8677L63.6154 67.9849C63.6049 68.0026 63.5946 68.0204 63.5845 68.0383L63.2662 68.5897C62.9843 69.0779 62.9317 69.6356 63.0749 70.1381L62.5063 73.811C62.2846 75.2428 63.4189 75.8978 64.5481 74.9898L67.4441 72.6613C67.9512 72.5342 68.4082 72.2097 68.6902 71.7212L79.4994 52.9993C80.3278 51.5644 79.8362 49.7296 78.4013 48.9012L78.1734 48.7696Z" fill="#D9D9D9"/>
</mask>
<g mask="url(#mask0_254_9680)">
<rect x="62.1826" y="71.584" width="7.04602" height="3.91445" transform="rotate(30 62.1826 71.584)" fill="#577AA4"/>
<rect x="78.3369" y="42.0391" width="7.82891" height="32.0985" transform="rotate(30 78.3369 42.0391)" fill="#A5CEFF"/>
<rect x="75.416" y="43.9668" width="10.9605" height="7.04602" transform="rotate(30 75.416 43.9668)" fill="#4094F9"/>
</g>
</svg>
