<svg width="118" height="118" viewBox="0 0 118 118" fill="none" xmlns="http://www.w3.org/2000/svg">
<path d="M99.2328 25.2117L60.201 9.33221C59.1147 8.88926 57.8942 8.88926 56.8034 9.33221L17.7717 25.2117C16.0953 25.8939 15 27.5106 15 29.309V66.2283C15 83.0469 36.4717 99.4048 56.4995 109.522C57.7601 110.159 59.2443 110.159 60.5005 109.522C80.5283 99.4048 102 83.0469 102 66.2283V29.309C102.004 27.515 100.909 25.8939 99.2328 25.2117ZM58.5022 35.1248C63.9428 35.1248 68.3507 39.4922 68.3507 44.8829C68.3507 50.2735 63.9428 54.6365 58.5022 54.6365C53.0617 54.6365 48.6538 50.2691 48.6538 44.8784C48.6538 39.4878 53.0617 35.1248 58.5022 35.1248ZM58.5022 79.4458C49.6641 79.4458 36.6192 78.2144 36.6192 73.5945C36.6192 68.9746 42.7483 59.0393 58.5022 59.0393C74.2562 59.0393 80.3852 68.9746 80.3852 73.5945C80.3852 78.2144 67.3404 79.4458 58.5022 79.4458Z" fill="url(#paint0_linear_306_10300)"/>
<path d="M58.5 9C57.924 9.00047 57.3476 9.11127 56.8034 9.33226L17.7717 25.2117C16.0953 25.8938 15 27.5107 15 29.309V66.2283C15 83.0469 36.4717 99.4048 56.4994 109.522C57.1292 109.84 57.8148 110 58.5 110V79.4457C49.6618 79.4457 36.6192 78.2139 36.6192 73.5945C36.6192 68.9747 42.7476 59.0402 58.5 59.0393V54.6366C53.0604 54.6353 48.6537 50.2683 48.6537 44.8785C48.6537 39.4886 53.0604 35.126 58.5 35.1247V9Z" fill="#C5C5DF"/>
<defs>
<linearGradient id="paint0_linear_306_10300" x1="58.5" y1="9" x2="58.5" y2="110" gradientUnits="userSpaceOnUse">
<stop stop-color="#9595C0"/>
<stop offset="1" stop-color="#686689"/>
</linearGradient>
</defs>
</svg>
