<svg width="118" height="118" viewBox="0 0 118 118" fill="none" xmlns="http://www.w3.org/2000/svg">
<path fill-rule="evenodd" clip-rule="evenodd" d="M67.6614 8.15341C67.6614 5.85954 65.8019 4 63.508 4H54.492C52.1981 4 50.3386 5.85954 50.3386 8.15341C50.3386 12.785 47.016 16.6658 42.7177 18.3908C42.4106 18.5141 42.1053 18.6407 41.8017 18.7706C37.5425 20.5938 32.4479 20.1987 29.1719 16.9226C27.5492 15.2999 24.9183 15.2999 23.2956 16.9226L16.9228 23.2954C15.3001 24.9181 15.3001 27.549 16.9228 29.1717C20.1988 32.4477 20.594 37.5423 18.7707 41.8014C18.6408 42.1051 18.5141 42.4105 18.3908 42.7177C16.6658 47.016 12.785 50.3386 8.15341 50.3386C5.85954 50.3386 4 52.1981 4 54.492V63.508C4 65.8019 5.85954 67.6614 8.15341 67.6614C12.785 67.6614 16.6658 70.984 18.3908 75.2823C18.5141 75.5895 18.6407 75.8949 18.7707 76.1985C20.5939 80.4576 20.1987 85.552 16.9228 88.828C15.3001 90.4506 15.3001 93.0815 16.9228 94.7042L23.2957 101.077C24.9184 102.7 27.5492 102.7 29.1718 101.077C32.4478 97.8012 37.5422 97.406 41.8013 99.2292C42.105 99.3592 42.4105 99.4859 42.7177 99.6092C47.016 101.334 50.3386 105.215 50.3386 109.847C50.3386 112.14 52.1981 114 54.492 114H63.508C65.8019 114 67.6614 112.14 67.6614 109.847C67.6614 105.215 70.984 101.334 75.2823 99.6092C75.5895 99.4859 75.8949 99.3592 76.1986 99.2292C80.4577 97.406 85.5523 97.8012 88.8283 101.077C90.4509 102.7 93.0818 102.7 94.7045 101.077L101.077 94.7044C102.7 93.0817 102.7 90.4508 101.077 88.8281C97.8013 85.5521 97.4062 80.4575 99.2293 76.1984C99.3593 75.8948 99.4859 75.5894 99.6092 75.2823C101.334 70.984 105.215 67.6614 109.847 67.6614C112.14 67.6614 114 65.8019 114 63.508V54.492C114 52.1981 112.14 50.3386 109.847 50.3386C105.215 50.3386 101.334 47.016 99.6092 42.7177C99.4859 42.4106 99.3593 42.1052 99.2293 41.8016C97.4061 37.5423 97.8013 32.4477 101.077 29.1716C102.7 27.5489 102.7 24.9179 101.077 23.2952L94.7046 16.9225C93.0819 15.2998 90.451 15.2998 88.8283 16.9225C85.5523 20.1986 80.4577 20.5938 76.1985 18.7707C75.8949 18.6407 75.5895 18.5141 75.2823 18.3908C70.984 16.6658 67.6614 12.785 67.6614 8.15341ZM59 90.1811C76.2208 90.1811 90.1811 76.2208 90.1811 59C90.1811 41.7792 76.2208 27.8189 59 27.8189C41.7792 27.8189 27.8189 41.7792 27.8189 59C27.8189 76.2208 41.7792 90.1811 59 90.1811Z" fill="url(#paint0_linear_306_10310)"/>
<path d="M51.4472 42.7572C57.8053 39.9032 65.5347 41.0867 70.7555 46.3075C75.2122 50.7642 76.7269 57.0488 75.2996 62.7479C75.2394 62.9881 75.3137 63.242 75.4888 63.4171L95.2266 83.1548L83.1547 95.2267L63.417 75.489C63.2418 75.3139 62.988 75.2395 62.7478 75.2997C57.0486 76.727 50.764 75.2123 46.3074 70.7557C41.0957 65.544 39.9073 57.8327 42.742 51.481C42.9508 51.0132 43.5606 50.9186 43.9229 51.2808L53.6171 60.9751C55.6425 63.0004 58.9262 63.0004 60.9516 60.9751C62.9769 58.9497 62.9769 55.666 60.9516 53.6406L51.2484 43.9375C50.8866 43.5757 50.9804 42.9667 51.4472 42.7572Z" fill="url(#paint1_linear_306_10310)"/>
<defs>
<linearGradient id="paint0_linear_306_10310" x1="39.2953" y1="32.3661" x2="88.6654" y2="87.3661" gradientUnits="userSpaceOnUse">
<stop stop-color="#9090BA"/>
<stop offset="1" stop-color="#6C6C97"/>
</linearGradient>
<linearGradient id="paint1_linear_306_10310" x1="56.4014" y1="59.8662" x2="83.2518" y2="86.7166" gradientUnits="userSpaceOnUse">
<stop stop-color="#C5C5DF"/>
<stop offset="1" stop-color="#6B6B96"/>
</linearGradient>
</defs>
</svg>
