<svg width="118" height="118" viewBox="0 0 118 118" fill="none" xmlns="http://www.w3.org/2000/svg">
<path d="M60.3311 18.3251C72.6609 5.99531 92.6515 5.99529 104.981 18.3251C117.739 31.0832 117.23 51.9197 103.864 64.0393L59.4708 104.293L17.1948 61.4614L60.3311 18.3251Z" fill="#6B6B96"/>
<path fill-rule="evenodd" clip-rule="evenodd" d="M13.8132 64.6042C1.24025 52.0313 1.24027 31.6465 13.8132 19.0735C26.3862 6.5005 46.771 6.5005 59.344 19.0735L98.6661 58.3955L98.618 58.4436L104.365 64.1907C107.566 67.3911 107.566 72.58 104.365 75.7804C101.197 78.9485 96.0802 78.9804 92.8728 75.8761L93.6034 76.6067C96.8038 79.8071 96.8038 84.996 93.6034 88.1964C90.403 91.3968 85.2142 91.3968 82.0138 88.1964L75.4395 81.6221L75.4383 81.6233L81.1854 87.3704C84.3858 90.5708 84.3858 95.7597 81.1854 98.9601C77.9851 102.16 72.7962 102.16 69.5958 98.96L68.4344 97.7987C71.3261 100.776 71.2995 105.535 68.3545 108.479C65.3827 111.451 60.5645 111.451 57.5927 108.479L24.8933 75.7801L24.9412 75.7322L13.8132 64.6042Z" fill="#C5C5DF"/>
<g opacity="0.5" filter="url(#filter0_f_306_10315)">
<mask id="mask0_306_10315" style="mask-type:alpha" maskUnits="userSpaceOnUse" x="4" y="9" width="103" height="102">
<path fill-rule="evenodd" clip-rule="evenodd" d="M13.8132 64.6023C1.24025 52.0293 1.24027 31.6445 13.8132 19.0715C26.3862 6.49854 46.771 6.49854 59.344 19.0715L98.6661 58.3936L98.618 58.4416L104.365 64.1888C107.566 67.3892 107.566 72.578 104.365 75.7784C101.197 78.9466 96.0802 78.9785 92.8728 75.8741L93.6034 76.6048C96.8038 79.8052 96.8038 84.994 93.6034 88.1944C90.403 91.3948 85.2142 91.3948 82.0138 88.1944L75.4395 81.6201L75.4383 81.6213L81.1854 87.3684C84.3858 90.5688 84.3858 95.7577 81.1854 98.9581C77.9851 102.158 72.7962 102.158 69.5958 98.9581L68.4344 97.7967C71.3261 100.774 71.2995 105.533 68.3545 108.477C65.3827 111.449 60.5645 111.449 57.5927 108.477L24.8933 75.7781L24.9412 75.7303L13.8132 64.6023Z" fill="#B8B8CA"/>
</mask>
<g mask="url(#mask0_306_10315)">
</g>
<mask id="mask1_306_10315" style="mask-type:alpha" maskUnits="userSpaceOnUse" x="60" y="31" width="47" height="48">
<path d="M92.7755 75.7813C95.9759 78.9817 101.165 78.9817 104.365 75.7813L-nan -nanL104.365 75.7813C107.566 72.581 107.566 67.3921 104.365 64.1917L72.0797 31.9062L60.49 43.4959L92.7755 75.7813Z" fill="#B8B8CA"/>
</mask>
<g mask="url(#mask1_306_10315)">
<path d="M91.9912 88.4023L107.71 72.6835L-nan -nanL107.71 72.6835C103.902 73.9398 99.7119 72.9437 96.8768 70.1086L70.4676 43.6994C67.7244 40.9562 63.2768 40.9562 60.5336 43.6994L53.9109 50.3221L91.9912 88.4023Z" fill="#696994"/>
</g>
<mask id="mask2_306_10315" style="mask-type:alpha" maskUnits="userSpaceOnUse" x="49" y="44" width="48" height="47">
<path d="M82.0138 88.1974C85.2142 91.3978 90.403 91.3978 93.6034 88.1974L-nan -nanL93.6034 88.1974C96.8038 84.997 96.8038 79.8081 93.6034 76.6077L61.318 44.3222L49.7283 55.9119L82.0138 88.1974Z" fill="#B8B8CA"/>
</mask>
<g mask="url(#mask2_306_10315)">
<path d="M80.8691 101.311L96.588 85.5917L-nan -nanL96.588 85.5917C92.7725 86.8419 88.5783 85.8404 85.7392 83.0013L59.1501 56.4122C56.4069 53.669 51.9593 53.669 49.2161 56.4122L42.5935 63.0349L80.8691 101.311Z" fill="#696994"/>
</g>
<mask id="mask3_306_10315" style="mask-type:alpha" maskUnits="userSpaceOnUse" x="37" y="55" width="47" height="47">
<path d="M69.5958 98.9591C72.7962 102.159 77.9851 102.159 81.1855 98.9591L-nan -nanL81.1855 98.9591C84.3858 95.7587 84.3858 90.5698 81.1855 87.3694L48.9 55.084L37.3103 66.6736L69.5958 98.9591Z" fill="#B8B8CA"/>
</mask>
<g mask="url(#mask3_306_10315)">
<path d="M69.9424 113.213L85.6612 97.494L-nan -nanL85.6612 97.494C81.8458 98.7442 77.6515 97.7427 74.8125 94.9037L48.2234 68.3146C45.4802 65.5714 41.0326 65.5714 38.2894 68.3146L31.6667 74.9372L69.9424 113.213Z" fill="#696994"/>
</g>
<mask id="mask4_306_10315" style="mask-type:alpha" maskUnits="userSpaceOnUse" x="4" y="9" width="95" height="102">
<path fill-rule="evenodd" clip-rule="evenodd" d="M13.8135 19.0743C1.24054 31.6472 1.24055 52.0321 13.8135 64.6051L24.9412 75.7327L24.8929 75.781L57.5923 108.48C60.5641 111.452 65.3823 111.452 68.3541 108.48C71.3259 105.509 71.3259 100.69 68.3541 97.7185L63.8491 93.2135L98.6663 58.3963L59.3443 19.0743C46.7713 6.50129 26.3865 6.50128 13.8135 19.0743Z" fill="#FF3030"/>
</mask>
<g mask="url(#mask4_306_10315)">
<path d="M57.0645 123.164L72.7833 107.445L-nan -nanL72.7833 107.445C68.9679 108.695 64.7736 107.694 61.9345 104.855L2.54187 45.4622L-9.04779 57.0518L57.0645 123.164Z" fill="#696994"/>
</g>
</g>
<path d="M42.921 35.7363C39.9492 38.7081 39.9492 43.5263 42.9209 46.4981C45.8927 49.4699 50.711 49.4699 53.6828 46.4981L72.309 27.8719L61.5472 17.11L42.921 35.7363Z" fill="#6B6B96"/>
<mask id="mask5_306_10315" style="mask-type:alpha" maskUnits="userSpaceOnUse" x="40" y="9" width="75" height="64">
<path fill-rule="evenodd" clip-rule="evenodd" d="M60.3754 18.2799L61.5465 17.1088L61.5767 17.1391C73.9469 5.98694 93.0249 6.36722 104.938 18.2799C117.32 30.6625 117.231 50.7658 104.74 63.0384L95.2474 72.3644L61.7414 38.4375L53.6821 46.4969C50.7103 49.4687 45.892 49.4687 42.9203 46.4969C39.9485 43.5251 39.9485 38.7069 42.9203 35.7351L51.0468 27.6086L60.3754 18.2799Z" fill="#48465F"/>
</mask>
<g mask="url(#mask5_306_10315)">
<g opacity="0.2" filter="url(#filter1_f_306_10315)">
<path d="M113.032 58.9248L103.959 63.9004L70.3008 29.9492L113.032 58.9248Z" fill="#444164"/>
</g>
<g opacity="0.2" filter="url(#filter2_f_306_10315)">
<path d="M58.4324 29.2312L52.6754 34.9883C48.7107 38.953 47.0746 44.684 48.3486 50.1443H36.3486V35.2175L62.3974 0.680878L88.1535 -8.09961L107.178 19.998L106.134 19.5737C89.7375 12.9128 70.9465 16.7171 58.4324 29.2312Z" fill="#444164"/>
</g>
</g>
<defs>
<filter id="filter0_f_306_10315" x="2.6695" y="39.9283" width="105.81" height="72.495" filterUnits="userSpaceOnUse" color-interpolation-filters="sRGB">
<feFlood flood-opacity="0" result="BackgroundImageFix"/>
<feBlend mode="normal" in="SourceGraphic" in2="BackgroundImageFix" result="shape"/>
<feGaussianBlur stdDeviation="0.857143" result="effect1_foregroundBlur_306_10315"/>
</filter>
<filter id="filter1_f_306_10315" x="67.9593" y="27.6078" width="47.4144" height="38.6341" filterUnits="userSpaceOnUse" color-interpolation-filters="sRGB">
<feFlood flood-opacity="0" result="BackgroundImageFix"/>
<feBlend mode="normal" in="SourceGraphic" in2="BackgroundImageFix" result="shape"/>
<feGaussianBlur stdDeviation="1.17073" result="effect1_foregroundBlur_306_10315"/>
</filter>
<filter id="filter2_f_306_10315" x="34.0072" y="-10.4411" width="75.512" height="62.9271" filterUnits="userSpaceOnUse" color-interpolation-filters="sRGB">
<feFlood flood-opacity="0" result="BackgroundImageFix"/>
<feBlend mode="normal" in="SourceGraphic" in2="BackgroundImageFix" result="shape"/>
<feGaussianBlur stdDeviation="1.17073" result="effect1_foregroundBlur_306_10315"/>
</filter>
</defs>
</svg>
