<svg width="100" height="100" viewBox="0 0 100 100" fill="none" xmlns="http://www.w3.org/2000/svg">
<circle cx="50" cy="50" r="50" fill="#F7F8FB"/>
<path d="M29 28C29 24.6863 31.6863 22 35 22H65C68.3137 22 71 24.6863 71 28V69L62 78H35C31.6863 78 29 75.3137 29 72V28Z" fill="url(#paint0_linear_334_10231)"/>
<path d="M29 28C29 24.6863 31.6863 22 35 22H65C68.3137 22 71 24.6863 71 28V69L62 78H35C31.6863 78 29 75.3137 29 72V28Z" fill="#C9DBFC"/>
<path d="M64 69H71L62 78V71C62 69.8954 62.8954 69 64 69Z" fill="#BECFEF"/>
<g clip-path="url(#clip0_334_10231)">
<path d="M50.0004 48.5242C55.2604 48.5242 59.5242 44.2604 59.5242 39.0004C59.5242 33.7404 55.2604 29.4766 50.0004 29.4766C44.7404 29.4766 40.4766 33.7404 40.4766 39.0004C40.4766 44.2604 44.7404 48.5242 50.0004 48.5242Z" fill="#8AAAFA"/>
<path d="M47.1426 38.9985L49.0473 40.9033L52.8569 37.0938" stroke="white" stroke-width="2" stroke-linecap="round" stroke-linejoin="round"/>
</g>
<rect x="40" y="56" width="20" height="3" rx="1.5" fill="#8AAAFA"/>
<rect x="40" y="63" width="20" height="3" rx="1.5" fill="#8AAAFA"/>
<defs>
<linearGradient id="paint0_linear_334_10231" x1="53.7059" y1="80" x2="28.3559" y2="28.2279" gradientUnits="userSpaceOnUse">
<stop stop-color="#D0DFFC"/>
<stop offset="1" stop-color="#7196F8"/>
</linearGradient>
<clipPath id="clip0_334_10231">
<rect width="20" height="20" fill="white" transform="translate(40 29)"/>
</clipPath>
</defs>
</svg>
