<svg width="130" height="130" viewBox="0 0 130 130" fill="none" xmlns="http://www.w3.org/2000/svg">
<path d="M96.3183 62.6345C96.3183 68.1172 85.5243 72.5618 72.2092 72.5618C58.8941 72.5618 48.1001 68.1172 48.1001 62.6345C48.1001 57.1518 58.8941 52.7072 72.2092 52.7072C85.5243 52.7072 96.3183 57.1518 96.3183 62.6345Z" fill="url(#paint0_linear_250_8213)"/>
<path d="M48.1001 51.2891H96.3183V62.6345H48.1001V51.2891Z" fill="url(#paint1_linear_250_8213)"/>
<ellipse cx="72.2092" cy="51.2908" rx="24.1091" ry="11.3455" fill="#CCDFFF"/>
<path d="M96.3183 52.7048C96.3183 58.1875 85.5243 62.6321 72.2092 62.6321C58.8941 62.6321 48.1001 58.1875 48.1001 52.7048C48.1001 47.2221 58.8941 42.7776 72.2092 42.7776C85.5243 42.7776 96.3183 47.2221 96.3183 52.7048Z" fill="#C9DBFC"/>
<path d="M48.1001 41.3594H96.3183V52.7048H48.1001V41.3594Z" fill="#C9DBFC"/>
<ellipse cx="72.2092" cy="41.3611" rx="24.1091" ry="11.3455" fill="#CCDFFF"/>
<path d="M96.3183 42.7771C96.3183 48.2598 85.5243 52.7044 72.2092 52.7044C58.8941 52.7044 48.1001 48.2598 48.1001 42.7771C48.1001 37.2944 58.8941 32.8498 72.2092 32.8498C85.5243 32.8498 96.3183 37.2944 96.3183 42.7771Z" fill="#8FB8FF"/>
<path d="M48.1001 31.4316H96.3183V42.7771H48.1001V31.4316Z" fill="#8FB8FF"/>
<ellipse cx="72.2092" cy="31.4333" rx="24.1091" ry="11.3455" fill="#CCDFFF"/>
<path d="M117 81.072C117 86.5547 106.206 90.9993 92.8911 90.9993C79.576 90.9993 68.782 86.5547 68.782 81.072C68.782 75.5893 79.576 71.1447 92.8911 71.1447C106.206 71.1447 117 75.5893 117 81.072Z" fill="#8FB8FF"/>
<path d="M68.782 69.7266H117V81.072H68.782V69.7266Z" fill="#8FB8FF"/>
<ellipse cx="92.8911" cy="69.7283" rx="24.1091" ry="11.3455" fill="#CCDFFF"/>
<path d="M96.3183 32.855C96.3183 38.3377 85.5243 42.7823 72.2092 42.7823C58.8941 42.7823 48.1001 38.3377 48.1001 32.855C48.1001 27.3723 58.8941 22.9277 72.2092 22.9277C85.5243 22.9277 96.3183 27.3723 96.3183 32.855Z" fill="#C9DBFC"/>
<path d="M48.1001 22.9277H96.3183V32.855H48.1001V22.9277Z" fill="#C9DBFC"/>
<ellipse cx="72.2094" cy="22.9273" rx="24.1091" ry="9.92727" fill="#E6EDFD"/>
<path d="M117 71.1441C117 76.6268 106.206 81.0713 92.8911 81.0713C79.576 81.0713 68.782 76.6268 68.782 71.1441C68.782 65.6614 79.576 61.2168 92.8911 61.2168C106.206 61.2168 117 65.6614 117 71.1441Z" fill="#C9DBFC"/>
<path d="M68.782 61.2168H117V71.1441H68.782V61.2168Z" fill="#C9DBFC"/>
<ellipse cx="92.8911" cy="61.2163" rx="24.1091" ry="9.92727" fill="#E6EDFD"/>
<circle cx="43.5" cy="83.5" r="30" fill="url(#paint2_linear_250_8213)"/>
<circle cx="43.5" cy="83.5" r="30" stroke="#D5E0FE" stroke-width="5"/>
<circle cx="43.5" cy="83.5" r="30" stroke="url(#paint3_linear_250_8213)" stroke-width="5"/>
<rect x="26.1035" y="71.7246" width="6" height="28" rx="3" transform="rotate(-16.7007 26.1035 71.7246)" fill="white"/>
<rect x="40" y="71.7246" width="6" height="28" rx="3" transform="rotate(-16.7007 40 71.7246)" fill="white"/>
<rect width="6" height="28" rx="3" transform="matrix(-0.957819 -0.287373 -0.287373 0.957819 46.793 71.7246)" fill="white"/>
<rect width="6" height="28" rx="3" transform="matrix(-0.957819 -0.287373 -0.287373 0.957819 60.6895 71.7246)" fill="white"/>
<rect x="23" y="82" width="12" height="6" rx="3" fill="white"/>
<rect x="51" y="82" width="12" height="6" rx="3" fill="white"/>
<defs>
<linearGradient id="paint0_linear_250_8213" x1="76.4637" y1="73.2709" x2="76.4637" y2="58.38" gradientUnits="userSpaceOnUse">
<stop stop-color="#6589E6"/>
<stop offset="1" stop-color="#7196F8"/>
</linearGradient>
<linearGradient id="paint1_linear_250_8213" x1="76.4637" y1="73.2709" x2="76.4637" y2="58.38" gradientUnits="userSpaceOnUse">
<stop stop-color="#6589E6"/>
<stop offset="1" stop-color="#7196F8"/>
</linearGradient>
<linearGradient id="paint2_linear_250_8213" x1="49.2353" y1="118.321" x2="43.6302" y2="51.3893" gradientUnits="userSpaceOnUse">
<stop stop-color="#D0DFFC"/>
<stop offset="1" stop-color="#7196F8"/>
</linearGradient>
<linearGradient id="paint3_linear_250_8213" x1="21" y1="62" x2="64.0433" y2="113.01" gradientUnits="userSpaceOnUse">
<stop stop-color="#D0DFFC"/>
<stop offset="1" stop-color="#7196F8"/>
</linearGradient>
</defs>
</svg>
