<svg width="200" height="200" viewBox="0 0 200 200" fill="none" xmlns="http://www.w3.org/2000/svg">
<g filter="url(#filter0_i_250_8607)">
<path d="M91.4049 49.8936C95.2593 43.2554 104.846 43.2554 108.701 49.8936L163.331 143.979C167.202 150.645 162.392 159 154.683 159H45.4227C37.7137 159 32.9039 150.645 36.7748 143.979L91.4049 49.8936Z" fill="#E7E9EC"/>
</g>
<path d="M101.028 83C103.847 83 106.109 85.3287 106.026 88.1462L105.061 121.119C104.983 123.809 102.779 125.949 100.088 125.949C97.3973 125.949 95.1941 123.809 95.1154 121.119L94.1506 88.1462C94.0681 85.3287 96.3297 83 99.1484 83H101.028Z" fill="#BBC1CB"/>
<circle cx="100.5" cy="135.5" r="5.5" fill="#BBC1CB"/>
<defs>
<filter id="filter0_i_250_8607" x="35.4082" y="42.9141" width="129.289" height="116.086" filterUnits="userSpaceOnUse" color-interpolation-filters="sRGB">
<feFlood flood-opacity="0" result="BackgroundImageFix"/>
<feBlend mode="normal" in="SourceGraphic" in2="BackgroundImageFix" result="shape"/>
<feColorMatrix in="SourceAlpha" type="matrix" values="0 0 0 0 0 0 0 0 0 0 0 0 0 0 0 0 0 0 127 0" result="hardAlpha"/>
<feOffset dy="-2"/>
<feGaussianBlur stdDeviation="4"/>
<feComposite in2="hardAlpha" operator="arithmetic" k2="-1" k3="1"/>
<feColorMatrix type="matrix" values="0 0 0 0 0.845833 0 0 0 0 0.845833 0 0 0 0 0.845833 0 0 0 0.74 0"/>
<feBlend mode="normal" in2="shape" result="effect1_innerShadow_250_8607"/>
</filter>
</defs>
</svg>
