<svg width="142" height="28" viewBox="0 0 142 28" fill="none" xmlns="http://www.w3.org/2000/svg">
<path d="M17.7803 13.9113C17.75 10.6053 20.4865 8.99768 20.6117 8.92295C19.0607 6.66305 16.6594 6.35406 15.8153 6.32982C13.7977 6.11979 11.8407 7.53753 10.8128 7.53753C9.76462 7.53753 8.18127 6.35204 6.47877 6.38839C4.28349 6.42272 2.22959 7.69304 1.10267 9.66414C-1.21984 13.6871 0.512953 19.6004 2.74054 22.8519C3.85333 24.4454 5.15393 26.2246 6.85845 26.162C8.5246 26.0934 9.14865 25.0997 11.1601 25.0997C13.1514 25.0997 13.7351 26.162 15.4739 26.1216C17.2633 26.0934 18.3882 24.5221 19.4626 22.9146C20.7511 21.0909 21.2681 19.2914 21.2863 19.1985C21.2439 19.1844 17.8126 17.8757 17.7803 13.9133V13.9113Z" fill="black"/>
<path d="M14.4989 4.19263C15.3935 3.07177 16.0075 1.54699 15.8378 0C14.5393 0.056548 12.9175 0.896689 11.9845 1.99332C11.1585 2.96069 10.4193 4.54404 10.6092 6.03246C12.0673 6.14152 13.5618 5.29734 14.4989 4.19263Z" fill="black"/>
<path d="M46.8277 21.8359H43.6894L41.9677 16.4284H35.9854L34.3454 21.8359H31.2861L37.214 3.42578H40.8753L46.8304 21.8359H46.8277ZM41.4474 14.1591L39.8919 9.35363C39.7284 8.86055 39.4151 7.70549 38.9602 5.88573H38.9084C38.7259 6.66757 38.4344 7.82535 38.034 9.35363L36.5057 14.1591H41.4501H41.4474Z" fill="black"/>
<path d="M62.0708 15.0342C62.0708 17.2925 61.4578 19.0769 60.2401 20.3899C59.1477 21.5559 57.7911 22.1389 56.1702 22.1389C54.4212 22.1389 53.1654 21.5123 52.3999 20.2537H52.3454V27.2467H49.3978V12.9338C49.3978 11.5145 49.3597 10.0571 49.2861 8.5642H51.8823L52.0457 10.6673H52.1002C53.0837 9.0818 54.5765 8.28906 56.5788 8.28906C58.1452 8.28906 59.4528 8.90745 60.4962 10.147C61.545 11.3865 62.068 13.0183 62.068 15.0369L62.0708 15.0342ZM59.066 15.1431C59.066 13.8519 58.7772 12.7867 58.1942 11.9477C57.5568 11.0732 56.6987 10.6373 55.6281 10.6373C54.898 10.6373 54.2387 10.8798 53.6476 11.3619C53.0564 11.8469 52.6696 12.4789 52.4871 13.2607C52.3972 13.6258 52.3481 13.9254 52.3481 14.1597V16.3717C52.3481 17.3361 52.6451 18.1534 53.2362 18.8153C53.8301 19.4801 54.5983 19.8124 55.5463 19.8124C56.6551 19.8124 57.5241 19.3847 58.1398 18.5293C58.7582 17.6739 59.0687 16.5434 59.0687 15.1404L59.066 15.1431Z" fill="black"/>
<path d="M77.3386 15.0342C77.3386 17.2925 76.7283 19.0769 75.5079 20.3899C74.4155 21.5559 73.0589 22.1389 71.438 22.1389C69.689 22.1389 68.4359 21.5123 67.6677 20.2537H67.6159V27.2467H64.6656V12.9338C64.6656 11.5145 64.6275 10.0571 64.5566 8.5642H67.1501L67.3135 10.6673H67.3707C68.3514 9.0818 69.8443 8.28906 71.8493 8.28906C73.413 8.28906 74.7233 8.90745 75.7694 10.147C76.8155 11.3865 77.3386 13.0183 77.3386 15.0369V15.0342ZM74.3365 15.1431C74.3365 13.8519 74.045 12.7867 73.462 11.9477C72.8246 11.0732 71.9692 10.6373 70.8958 10.6373C70.1658 10.6373 69.5065 10.8798 68.9126 11.3619C68.3215 11.8469 67.9374 12.4789 67.7521 13.2607C67.6622 13.6258 67.6159 13.9254 67.6159 14.1597V16.3717C67.6159 17.3361 67.9101 18.1534 68.5013 18.8153C69.0924 19.4801 69.8634 19.8124 70.8114 19.8124C71.9229 19.8124 72.7892 19.3847 73.4048 18.5293C74.0232 17.6739 74.3365 16.5434 74.3365 15.1404V15.1431Z" fill="black"/>
<path d="M94.4069 16.6776C94.4069 18.2413 93.8648 19.5162 92.7724 20.4997C91.5738 21.5757 89.9011 22.1124 87.7572 22.1124C85.7767 22.1124 84.1857 21.7283 82.9844 20.9628L83.6681 18.5056C84.9649 19.2901 86.3842 19.6824 87.9315 19.6824C89.0403 19.6824 89.9066 19.4291 90.5277 18.9305C91.1433 18.4293 91.4539 17.7564 91.4539 16.9201C91.4539 16.1736 91.2006 15.5416 90.6911 15.0322C90.1844 14.5255 89.3345 14.0488 88.1494 13.6102C84.924 12.4088 83.3167 10.6463 83.3167 8.33069C83.3167 6.81603 83.8806 5.5738 85.0112 4.60943C86.1363 3.64507 87.64 3.16016 89.517 3.16016C91.1924 3.16016 92.5844 3.44893 93.6932 4.03191L92.9577 6.43737C91.9197 5.87346 90.7456 5.59014 89.4353 5.59014C88.3973 5.59014 87.5855 5.84621 87.0026 6.35291C86.5122 6.80786 86.2643 7.36359 86.2643 8.02012C86.2643 8.74748 86.5476 9.34681 87.1115 9.82082C87.6046 10.2594 88.4954 10.7307 89.7894 11.2429C91.3722 11.8803 92.5381 12.6267 93.2846 13.4821C94.0283 14.3375 94.4015 15.4054 94.4015 16.6803L94.4069 16.6776Z" fill="black"/>
<path d="M104.165 10.7759H100.915V17.2213C100.915 18.8613 101.487 19.6785 102.636 19.6785C103.162 19.6785 103.601 19.6322 103.947 19.5423L104.026 21.7816C103.445 21.9968 102.68 22.1085 101.732 22.1085C100.566 22.1085 99.656 21.7516 98.9994 21.0406C98.3456 20.3296 98.016 19.1391 98.016 17.461V10.7704H96.0791V8.55836H98.016V6.12565L100.912 5.25391V8.55836H104.162V10.7704L104.165 10.7759Z" fill="black"/>
<path d="M118.832 15.0914C118.832 17.1318 118.249 18.8045 117.083 20.1175C115.862 21.466 114.239 22.1389 112.22 22.1389C110.27 22.1389 108.719 21.4932 107.564 20.1992C106.407 18.9052 105.829 17.2762 105.829 15.3093C105.829 13.2525 106.423 11.5663 107.616 10.2587C108.809 8.94832 110.414 8.28906 112.438 8.28906C114.386 8.28906 115.952 8.93469 117.137 10.2314C118.268 11.4873 118.832 13.1082 118.832 15.0914ZM115.77 15.1867C115.77 13.9636 115.508 12.912 114.98 12.0376C114.361 10.9751 113.476 10.4466 112.329 10.4466C111.144 10.4466 110.242 10.9751 109.627 12.0376C109.098 12.912 108.834 13.9799 108.834 15.2439C108.834 16.4671 109.098 17.5159 109.627 18.3904C110.261 19.4528 111.155 19.9813 112.302 19.9813C113.43 19.9813 114.312 19.4419 114.952 18.3631C115.497 17.4696 115.77 16.4072 115.77 15.1867Z" fill="black"/>
<path d="M128.419 11.1549C128.128 11.1004 127.814 11.0732 127.487 11.0732C126.45 11.0732 125.649 11.4682 125.082 12.25C124.592 12.942 124.346 13.8165 124.346 14.8734V21.8392H121.399L121.426 12.7431C121.426 11.2121 121.388 9.82005 121.314 8.5642H123.883L123.992 11.1059H124.071C124.382 10.2341 124.875 9.53129 125.548 9.00007C126.204 8.52606 126.915 8.28906 127.678 8.28906C127.953 8.28906 128.196 8.30813 128.416 8.34627V11.1576L128.419 11.1549Z" fill="black"/>
<path d="M141.611 14.571C141.611 15.0967 141.576 15.5462 141.505 15.9085H132.654C132.689 17.2189 133.117 18.2214 133.94 18.916C134.683 19.5344 135.65 19.8423 136.833 19.8423C138.14 19.8423 139.336 19.6352 140.41 19.213L140.873 21.2616C139.617 21.8091 138.132 22.0816 136.421 22.0816C134.362 22.0816 132.746 21.4768 131.572 20.2645C130.398 19.055 129.812 17.4286 129.812 15.3909C129.812 13.3887 130.357 11.7187 131.452 10.392C132.599 8.97274 134.147 8.26172 136.094 8.26172C138.007 8.26172 139.456 8.97274 140.44 10.392C141.221 11.5199 141.614 12.9146 141.614 14.571H141.611ZM138.8 13.8055C138.819 12.9337 138.628 12.1764 138.228 11.5389C137.718 10.7189 136.931 10.3103 135.877 10.3103C134.912 10.3103 134.128 10.708 133.528 11.5117C133.038 12.1491 132.746 12.9146 132.657 13.8055H138.802H138.8Z" fill="black"/>
</svg>
