<svg width="58" height="24" viewBox="0 0 58 24" fill="none" xmlns="http://www.w3.org/2000/svg">
<path d="M33.6097 17.4019C33.6097 17.5129 33.6431 17.5761 33.7074 17.5761C33.751 17.5761 33.7946 17.5551 33.8487 17.5208L51.9027 5.47531C52.2191 5.26168 52.5095 5.15072 52.9439 5.15072H56.9131C57.5223 5.15072 57.931 5.56795 57.931 6.19674V13.9811C57.931 14.9217 57.7282 15.4658 56.9131 15.9677L52.1008 18.9392C52.0366 18.9789 51.9852 19 51.9389 19C51.8797 19 51.8256 18.9551 51.8256 18.786V9.69916C51.8256 9.60168 51.7921 9.52494 51.7279 9.52494C51.6843 9.52494 51.6407 9.54602 51.5893 9.57783L38.3913 18.3871C38.0211 18.6329 37.7175 18.7069 37.3784 18.7069H28.6276C28.0157 18.7069 27.6094 18.2893 27.6094 17.6608V6.43975C27.6094 6.35783 27.5735 6.28109 27.5117 6.28109C27.4681 6.28109 27.4245 6.30217 27.3704 6.33674L18.6635 11.7093C18.576 11.7622 18.553 11.8071 18.553 11.8493C18.553 11.889 18.5682 11.9233 18.6301 11.9869L24.8487 18.3767C24.9309 18.4611 24.9873 18.5271 24.9873 18.5931C24.9873 18.6699 24.8974 18.7041 24.7896 18.7041H19.1622C18.7227 18.7041 18.3806 18.6353 18.1443 18.3899L14.3728 14.5148C14.337 14.4778 14.3035 14.454 14.265 14.454C14.2315 14.454 14.1879 14.4699 14.1493 14.4961L7.84073 18.3899C7.46007 18.6249 7.19536 18.7017 6.82281 18.7017H1.01791C0.406015 18.7041 0 18.2841 0 17.6581V10.0161C0 9.0759 0.205543 8.53422 1.01791 8.0323L5.85865 5.04217C5.90767 5.01314 5.95128 5 5.99219 5C6.0669 5 6.10544 5.07916 6.10544 5.25096V15.4682C6.10544 15.5767 6.13384 15.6269 6.20314 15.6269C6.24675 15.6269 6.29307 15.6002 6.34716 15.566L22.7071 5.45975C23.0979 5.21674 23.3369 5.14519 23.7869 5.14519H32.5914C33.201 5.14519 33.6097 5.56277 33.6097 6.19121V17.4019Z" fill="#05141F"/>
</svg>
