<svg width="139" height="19" viewBox="0 0 139 19" fill="none" xmlns="http://www.w3.org/2000/svg">
<mask id="mask0_4066_28568" style="mask-type:luminance" maskUnits="userSpaceOnUse" x="0" y="0" width="139" height="19">
<path d="M138.201 0H0V19H138.201V0Z" fill="white"/>
</mask>
<g mask="url(#mask0_4066_28568)">
<path d="M53.0858 2.69092V7.88638H47.1957V2.69092H43.9412V16.3267H47.1957V10.8405H53.0858V16.3267H56.3309V2.69092H56.1715H53.0858Z" fill="#053266"/>
<path d="M68.2331 2.69092L64.8379 8.0927L61.4426 2.69092H57.616L63.2153 11.6001V16.3267H66.4604V11.6001L72.0691 2.69092H71.769H68.2331Z" fill="#053266"/>
<path d="M82.5172 2.69092V12.688C82.5172 13.0725 82.2264 13.3726 81.8231 13.3726H76.6177V2.69092H73.3726V16.336H82.9674C83.8209 16.336 84.5055 16.0828 85.012 15.5858C85.5091 15.0887 85.7623 14.4042 85.7623 13.5507V2.7003H82.5172V2.69092Z" fill="#053266"/>
<path d="M98.3678 2.69092H88.7729V16.336H92.0181V5.64502H97.2235C97.6456 5.64502 97.9082 5.97325 97.9082 6.32962V16.336H101.153V5.48559C101.153 4.63218 100.9 3.94758 100.403 3.45054C99.8965 2.94413 99.2119 2.7003 98.3584 2.7003" fill="#053266"/>
<path d="M113.768 2.69092H104.173V16.336H113.768C114.622 16.336 115.306 16.0828 115.803 15.5858C116.3 15.0887 116.554 14.4042 116.554 13.5507V5.48559C116.554 4.63218 116.3 3.94758 115.803 3.45054C115.306 2.95351 114.622 2.7003 113.768 2.7003M113.309 6.35775V12.6786C113.309 13.0443 113.037 13.3819 112.615 13.3819H107.409V5.64502H112.596C113.018 5.64502 113.309 5.94512 113.309 6.34837" fill="#053266"/>
<path d="M122.211 2.68174C121.357 2.68174 120.673 2.93495 120.176 3.43199C119.669 3.92903 119.425 4.61363 119.425 5.46703V16.3175H122.661V12.0973H128.561V16.3175H131.806V2.67236H122.211V2.68174ZM128.561 5.63584V9.15262H122.661V6.32982C122.661 5.99221 122.924 5.63584 123.355 5.63584H128.561Z" fill="#053266"/>
<path d="M138.21 2.69092H134.965V16.336H138.21V2.69092Z" fill="#053266"/>
<path d="M18.5612 19.0088C28.8126 19.0088 37.1224 14.7511 37.1224 9.50879C37.1224 4.26644 28.8126 0.00878906 18.5612 0.00878906C8.30987 0.00878906 0 4.26644 0 9.50879C0 14.7511 8.30987 19.0088 18.5612 19.0088ZM22.0502 14.3479C21.7407 15.07 21.2061 16.5986 19.9868 17.2082C19.6211 17.3958 19.1615 17.4802 18.7488 17.4895C18.655 17.4895 18.5893 17.4895 18.5612 17.4895C15.1378 17.4895 11.949 17.0113 9.27592 16.2047C9.25716 16.2047 9.19151 16.1766 9.17275 16.1672C8.92889 16.0828 8.79758 15.9703 8.79758 15.8296C8.79758 15.7077 8.86324 15.6139 8.94765 15.5295C8.98517 15.492 9.04144 15.4451 9.11647 15.3795C9.73549 14.8637 11.5926 13.5226 15.0816 12.1815C16.3102 11.7126 17.839 11.1312 19.4522 10.7936C20.3901 10.5966 23.8885 10.0621 22.0409 14.3479M31.4199 4.77286C31.4856 4.66032 31.5794 4.55716 31.7295 4.54778C31.8139 4.54778 31.9358 4.56654 32.114 4.6697C34.2899 6.01077 35.5843 7.68944 35.5843 9.49941C35.5843 12.7817 31.373 15.5952 25.3423 16.8237C24.9578 16.8987 24.6951 16.8987 24.6107 16.8049C24.5545 16.7393 24.5357 16.6361 24.6107 16.5142C24.6482 16.4486 24.6951 16.3829 24.7702 16.2891C28.0529 12.4254 30.5477 6.71412 31.2605 5.07296C31.3168 4.96042 31.3637 4.84788 31.4106 4.77286M15.1003 4.65094C15.4098 3.93821 15.9445 2.4002 17.1637 1.79063C17.5389 1.60307 17.9891 1.51866 18.4018 1.50928C18.4956 1.50928 18.5612 1.50928 18.5893 1.50928C22.0127 1.50928 25.2016 1.98757 27.8746 2.79408C27.8934 2.79408 27.9591 2.82222 27.9778 2.83159C28.2217 2.916 28.353 3.02854 28.353 3.16921C28.353 3.29112 28.2873 3.3849 28.2029 3.46931C28.1654 3.50682 28.1091 3.55371 28.0341 3.61935C27.4151 4.13515 25.558 5.47621 22.069 6.81728C20.8403 7.28619 19.3115 7.86762 17.7077 8.21461C16.7604 8.41155 13.2714 8.9461 15.1191 4.66032M11.752 2.19388C12.1365 2.11886 12.3992 2.11886 12.4836 2.22202C12.5398 2.28766 12.5586 2.38145 12.4836 2.51274C12.4367 2.57839 12.3992 2.64403 12.3241 2.73781C9.04144 6.60158 6.5466 12.3128 5.83379 13.9634C5.77752 14.0759 5.73062 14.1885 5.68373 14.2635C5.61807 14.376 5.53366 14.4792 5.37422 14.4886C5.28981 14.4886 5.16788 14.4698 4.98968 14.3666C2.81373 13.0256 1.51941 11.3469 1.51941 9.53692C1.51941 6.26397 5.73062 3.44117 11.7614 2.21264" fill="#053266"/>
</g>
</svg>
