<svg width="25" height="25" viewBox="0 0 25 25" fill="none" xmlns="http://www.w3.org/2000/svg">
<g clip-path="url(#clip0_2523_17692)">
<mask id="mask0_2523_17692" style="mask-type:luminance" maskUnits="userSpaceOnUse" x="0" y="0" width="25" height="25">
<path d="M0.199219 0.167969H24.1992V24.168H0.199219V0.167969Z" fill="white"/>
</mask>
<g mask="url(#mask0_2523_17692)">
<path fill-rule="evenodd" clip-rule="evenodd" d="M18.5576 9.2423C17.8382 7.99621 16.7654 6.99145 15.475 6.35505C14.1845 5.71866 12.7343 5.47923 11.3077 5.66704C9.88118 5.85485 8.54236 6.46146 7.46057 7.41017C6.37878 8.35887 5.60261 9.60706 5.2302 10.9969C4.8578 12.3867 4.90589 13.8558 5.36839 15.2183C5.8309 16.5808 6.68705 17.7755 7.82857 18.6514C8.9701 19.5274 10.3457 20.0451 11.7815 20.1392C13.2173 20.2333 14.6487 19.8996 15.8948 19.1801C16.1818 19.0145 16.5487 19.1128 16.7144 19.3998C16.8801 19.6867 16.7818 20.0537 16.4948 20.2194C15.0432 21.0575 13.3756 21.4463 11.703 21.3367C10.0304 21.227 8.42788 20.6239 7.09806 19.6035C5.76824 18.5831 4.77087 17.1912 4.23208 15.604C3.69328 14.0168 3.63726 12.3054 4.07109 10.6863C4.50492 9.06723 5.40912 7.61315 6.66936 6.50796C7.92959 5.40277 9.48925 4.6961 11.1511 4.47731C12.813 4.25852 14.5024 4.53744 16.0057 5.27881C17.509 6.02017 18.7588 7.19067 19.5969 8.6423C19.7626 8.92928 19.6642 9.29623 19.3773 9.46192C19.0903 9.6276 18.7233 9.52928 18.5576 9.2423Z" fill="white"/>
<path fill-rule="evenodd" clip-rule="evenodd" d="M16.7166 6.36094C16.551 6.64798 16.1841 6.74646 15.8971 6.5809C14.6508 5.86208 13.2195 5.52891 11.7839 5.6235C10.3483 5.71808 8.97304 6.23619 7.8319 7.11231C6.69076 7.98842 5.83501 9.18322 5.37283 10.5456C4.91065 11.908 4.86279 13.3769 5.23532 14.7665C5.60784 16.1561 6.38402 17.4041 7.46572 18.3526C8.54741 19.3011 9.88606 19.9077 11.3124 20.0955C12.7388 20.2833 14.1888 20.044 15.4792 19.4078C16.7696 18.7717 17.8423 17.7672 18.5619 16.5214C18.7276 16.2344 19.0946 16.1362 19.3815 16.3019C19.6685 16.4676 19.7668 16.8346 19.601 17.1215C18.7628 18.5728 17.513 19.743 16.0098 20.4841C14.5066 21.2252 12.8174 21.504 11.1558 21.2852C9.49412 21.0664 7.93467 20.3599 6.67454 19.2549C5.41442 18.1499 4.51022 16.6961 4.07625 15.0772C3.64227 13.4584 3.69802 11.7473 4.23643 10.1601C4.77485 8.57298 5.77176 7.18111 7.10113 6.16048C8.4305 5.13985 10.0326 4.53628 11.705 4.42609C13.3773 4.3159 15.0448 4.70403 16.4966 5.54141C16.7837 5.70698 16.8821 6.07389 16.7166 6.36094Z" fill="white"/>
<path fill-rule="evenodd" clip-rule="evenodd" d="M19.7891 4.31884C20.1205 4.31872 20.3892 4.58726 20.3894 4.91863L20.3909 9.36916C20.391 9.70053 20.1225 9.96925 19.7911 9.96937C19.4598 9.96949 19.191 9.70095 19.1909 9.36958L19.1894 4.91905C19.1892 4.58768 19.4578 4.31896 19.7891 4.31884Z" fill="white"/>
<path fill-rule="evenodd" clip-rule="evenodd" d="M20.3927 9.36773C20.3929 9.6991 20.1243 9.96782 19.793 9.96794L15.3424 9.96949C15.0111 9.96961 14.7423 9.70107 14.7422 9.3697C14.7421 9.03833 15.0106 8.76961 15.342 8.76949L19.7925 8.76794C20.1239 8.76782 20.3926 9.03636 20.3927 9.36773Z" fill="white"/>
</g>
</g>
<defs>
<clipPath id="clip0_2523_17692">
<rect width="24" height="24" fill="white" transform="translate(0.199219 0.167969)"/>
</clipPath>
</defs>
</svg>
