<svg width="20" height="20" viewBox="0 0 20 20" fill="none" xmlns="http://www.w3.org/2000/svg">
<circle cx="10" cy="10" r="8" stroke="white" stroke-width="1.5" stroke-linecap="round" stroke-linejoin="round"/>
<path d="M6.74294 12.1674C7.00427 12.1674 7.26294 12.1327 7.51894 12.0634C7.77494 11.9887 8.02294 11.8874 8.26294 11.7594L8.52694 12.5914C8.27094 12.73 7.98827 12.8367 7.67894 12.9114C7.3696 12.986 7.05494 13.0234 6.73494 13.0234C5.8336 13.0234 5.16694 12.7834 4.73494 12.3034C4.30827 11.8234 4.09494 11.1407 4.09494 10.2554C4.09494 9.30603 4.3056 8.60736 4.72694 8.15936C5.14827 7.71136 5.7776 7.48736 6.61494 7.48736C7.01494 7.48736 7.3776 7.55669 7.70294 7.69536C8.0336 7.83403 8.30027 8.01536 8.50294 8.23936L7.91894 8.89536C7.75894 8.71936 7.5696 8.58336 7.35094 8.48736C7.1376 8.39136 6.89227 8.34336 6.61494 8.34336C6.1296 8.34336 5.76427 8.49803 5.51894 8.80736C5.2736 9.11136 5.15094 9.59403 5.15094 10.2554C5.15094 10.8847 5.27894 11.362 5.53494 11.6874C5.79094 12.0074 6.1936 12.1674 6.74294 12.1674ZM11.2789 13.0234C10.8523 13.0234 10.4869 12.9594 10.1829 12.8314C9.87894 12.698 9.62827 12.5114 9.43094 12.2714C9.2336 12.0314 9.08694 11.7407 8.99094 11.3994C8.90027 11.058 8.85494 10.6767 8.85494 10.2554C8.85494 9.32203 9.06294 8.62869 9.47894 8.17536C9.90027 7.71669 10.5003 7.48736 11.2789 7.48736C12.0736 7.48736 12.6736 7.71669 13.0789 8.17536C13.4896 8.62869 13.6949 9.32203 13.6949 10.2554C13.6949 11.1994 13.4923 11.898 13.0869 12.3514C12.6869 12.7994 12.0843 13.0234 11.2789 13.0234ZM12.6389 10.2554C12.6389 9.56736 12.5243 9.07669 12.2949 8.78336C12.0656 8.49003 11.7269 8.34336 11.2789 8.34336C10.8309 8.34336 10.4896 8.49003 10.2549 8.78336C10.0256 9.07669 9.91094 9.56736 9.91094 10.2554C9.91094 10.602 9.94027 10.898 9.99894 11.1434C10.0576 11.3834 10.1429 11.5807 10.2549 11.7354C10.3723 11.8847 10.5163 11.994 10.6869 12.0634C10.8576 12.1327 11.0549 12.1674 11.2789 12.1674C11.5029 12.1674 11.7003 12.1327 11.8709 12.0634C12.0416 11.994 12.1829 11.8847 12.2949 11.7354C12.4069 11.5807 12.4923 11.3834 12.5509 11.1434C12.6096 10.898 12.6389 10.602 12.6389 10.2554Z" fill="white"/>
<path d="M15.9413 12.6836H14.0755V12.3986L14.9723 11.5512C15.0483 11.4803 15.1129 11.4169 15.1661 11.3612C15.2218 11.3029 15.2674 11.2485 15.3029 11.1978C15.3383 11.1471 15.3637 11.0965 15.3789 11.0458C15.3966 10.9951 15.4055 10.9407 15.4055 10.8824C15.4055 10.8241 15.3941 10.7709 15.3713 10.7228C15.3485 10.6721 15.3181 10.6303 15.2801 10.5974C15.2421 10.5619 15.1977 10.5353 15.1471 10.5176C15.0964 10.4973 15.0432 10.4872 14.9875 10.4872C14.8583 10.4872 14.743 10.5163 14.6417 10.5746C14.5429 10.6303 14.4567 10.7114 14.3833 10.8178L14.0869 10.51C14.1933 10.3808 14.325 10.2795 14.4821 10.206C14.6417 10.13 14.8127 10.092 14.9951 10.092C15.1344 10.092 15.2598 10.111 15.3713 10.149C15.4827 10.187 15.5777 10.2402 15.6563 10.3086C15.7373 10.377 15.7994 10.4581 15.8425 10.5518C15.8855 10.643 15.9071 10.7431 15.9071 10.852C15.9071 11.0116 15.8615 11.1636 15.7703 11.308C15.6791 11.4499 15.5359 11.6082 15.3409 11.783L14.7785 12.2846H15.9413V12.6836Z" fill="white"/>
</svg>
