<svg width="20" height="20" viewBox="0 0 20 20" fill="none" xmlns="http://www.w3.org/2000/svg">
<path d="M14.25 12.0833C14.25 14.7067 12.1234 16.8333 9.5 16.8333C6.87665 16.8333 4.75 14.7067 4.75 12.0833C4.75 10.864 5.31988 9.37038 6.15517 7.86627C6.97844 6.3838 8.00505 4.98618 8.80434 3.98347C9.17119 3.52324 9.82881 3.52324 10.1957 3.98347C10.9949 4.98618 12.0216 6.3838 12.8448 7.86627C13.6801 9.37038 14.25 10.864 14.25 12.0833Z" stroke="white" stroke-width="1.5" stroke-linejoin="round"/>
<path d="M4.91406 10.25H14.0807V12.0833C14.0807 14.6146 12.0287 16.6667 9.4974 16.6667C6.96609 16.6667 4.91406 14.6146 4.91406 12.0833V10.25Z" fill="white"/>
</svg>
