<svg width="42" height="42" viewBox="0 0 42 42" fill="none" xmlns="http://www.w3.org/2000/svg">
<rect width="42" height="42" rx="12.6" fill="#333333"/>
<path fill-rule="evenodd" clip-rule="evenodd" d="M18.1156 11.5508H23.8906L26.7781 15.0945H30.2431C30.8558 15.0945 31.4433 15.3434 31.8765 15.7865C32.3097 16.2295 32.5531 16.8305 32.5531 17.457V28.0883C32.5531 28.7149 32.3097 29.3158 31.8765 29.7588C31.4433 30.2019 30.8558 30.4508 30.2431 30.4508H11.7631C11.1505 30.4508 10.5629 30.2019 10.1297 29.7588C9.6965 29.3158 9.45312 28.7149 9.45312 28.0883V17.457C9.45312 16.8305 9.6965 16.2295 10.1297 15.7865C10.5629 15.3434 11.1505 15.0945 11.7631 15.0945H15.2281L18.1156 11.5508ZM18.9094 22.0523C18.9094 20.8925 19.8496 19.9523 21.0094 19.9523C22.1692 19.9523 23.1094 20.8925 23.1094 22.0523C23.1094 23.2121 22.1692 24.1523 21.0094 24.1523C19.8496 24.1523 18.9094 23.2121 18.9094 22.0523ZM21.0094 17.8523C18.6898 17.8523 16.8094 19.7327 16.8094 22.0523C16.8094 24.3719 18.6898 26.2523 21.0094 26.2523C23.329 26.2523 25.2094 24.3719 25.2094 22.0523C25.2094 19.7327 23.329 17.8523 21.0094 17.8523Z" fill="white"/>
</svg>
