<svg width="20" height="20" viewBox="0 0 20 20" fill="none" xmlns="http://www.w3.org/2000/svg">
<path d="M8.28613 10.5276L8.60787 11.2051L9.03613 11.0017V10.5276H8.28613ZM11.7147 10.528H10.9647V11.002L11.3928 11.2054L11.7147 10.528ZM9.03613 3.71428C9.03613 3.18172 9.46786 2.75 10.0004 2.75V1.25C8.63943 1.25 7.53613 2.3533 7.53613 3.71428H9.03613ZM9.03613 10.5276V3.71428H7.53613V10.5276H9.03613ZM6.75 14.1429C6.75 12.8474 7.50794 11.7274 8.60787 11.2051L7.96439 9.85011C6.36108 10.6115 5.25 12.2467 5.25 14.1429H6.75ZM10 17.3929C8.20507 17.3929 6.75 15.9378 6.75 14.1429H5.25C5.25 16.7662 7.37665 18.8929 10 18.8929V17.3929ZM13.25 14.1429C13.25 15.9378 11.7949 17.3929 10 17.3929V18.8929C12.6234 18.8929 14.75 16.7662 14.75 14.1429H13.25ZM11.3928 11.2054C12.4924 11.7279 13.25 12.8476 13.25 14.1429H14.75C14.75 12.2471 13.6394 10.6122 12.0366 9.85058L11.3928 11.2054ZM10.9647 3.71429V10.528H12.4647V3.71429H10.9647ZM10.0004 2.75C10.533 2.75 10.9647 3.18173 10.9647 3.71429H12.4647C12.4647 2.3533 11.3614 1.25 10.0004 1.25V2.75Z" fill="white"/>
<circle cx="10" cy="14.0713" r="2" fill="white"/>
</svg>
