<svg width="20" height="20" viewBox="0 0 20 20" fill="none" xmlns="http://www.w3.org/2000/svg">
<path d="M8.71875 16.0352H11.4263H8.71875Z" fill="#D9D9D9" stroke="white" stroke-linecap="round" stroke-linejoin="round"/>
<mask id="path-2-inside-1_3327_35345" fill="white">
<path fill-rule="evenodd" clip-rule="evenodd" d="M13.6234 11.1096C13.6578 11.0508 13.6996 10.9971 13.7453 10.9466C14.526 10.0822 15 8.9386 15 7.66797C15 4.90654 12.7614 2.66797 10 2.66797C7.23858 2.66797 5 4.90654 5 7.66797C5 8.97175 5.49901 10.1418 6.31646 11.0137C6.31716 11.0144 6.31663 11.0156 6.31562 11.0156C6.31454 11.0156 6.31382 11.0168 6.31462 11.0175C6.35131 11.0501 6.85851 11.5139 7.36972 12.681C7.52726 13.0406 7.68 13.5155 7.79588 13.9106C7.92535 14.352 8.32522 14.666 8.78526 14.666H11.3002C11.7213 14.666 12.0969 14.4022 12.249 14.0094C12.408 13.5988 12.6195 13.075 12.8082 12.681C13.2274 11.8057 13.5098 11.3038 13.6234 11.1096Z"/>
</mask>
<path d="M7.36972 12.681L8.74369 12.0791L8.74369 12.0791L7.36972 12.681ZM12.8082 12.681L11.4553 12.0331H11.4553L12.8082 12.681ZM6.31462 11.0175L5.31829 12.1388L6.31462 11.0175ZM6.31646 11.0137L5.22217 12.0396L6.31646 11.0137ZM13.7453 10.9466L14.8584 11.952L13.7453 10.9466ZM13.6234 11.1096L14.9179 11.8675L13.6234 11.1096ZM13.5 7.66797C13.5 8.55573 13.1716 9.34385 12.6321 9.94116L14.8584 11.952C15.8805 10.8205 16.5 9.32147 16.5 7.66797H13.5ZM10 4.16797C11.933 4.16797 13.5 5.73497 13.5 7.66797H16.5C16.5 4.07812 13.5899 1.16797 10 1.16797V4.16797ZM6.5 7.66797C6.5 5.73497 8.067 4.16797 10 4.16797V1.16797C6.41015 1.16797 3.5 4.07812 3.5 7.66797H6.5ZM7.41075 9.98775C6.84555 9.38487 6.5 8.57853 6.5 7.66797H3.5C3.5 9.36496 4.15248 10.8986 5.22217 12.0396L7.41075 9.98775ZM8.74369 12.0791C8.14164 10.7047 7.50205 10.066 7.31095 9.89618L5.31829 12.1388C5.20057 12.0342 5.57537 12.3231 5.99575 13.2828L8.74369 12.0791ZM9.23525 13.4884C9.1157 13.0808 8.94129 12.5303 8.74369 12.0791L5.99575 13.2828C6.11323 13.551 6.2443 13.9502 6.35651 14.3328L9.23525 13.4884ZM11.3002 13.166H8.78526V16.166H11.3002V13.166ZM11.4553 12.0331C11.2402 12.4824 11.0115 13.0514 10.8502 13.4677L13.6478 14.5511C13.8046 14.1463 13.9988 13.6677 14.1611 13.3288L11.4553 12.0331ZM12.329 10.3517C12.1931 10.5838 11.8913 11.1227 11.4553 12.0331L14.1611 13.3288C14.5634 12.4887 14.8265 12.0237 14.9179 11.8675L12.329 10.3517ZM11.3002 16.166C12.3568 16.166 13.2778 15.5063 13.6478 14.5511L10.8502 13.4677C10.916 13.298 11.0859 13.166 11.3002 13.166V16.166ZM6.35651 14.3328C6.66397 15.3811 7.62658 16.166 8.78526 16.166V13.166C9.02385 13.166 9.18672 13.323 9.23525 13.4884L6.35651 14.3328ZM6.31562 9.51562C5.784 9.51562 5.28367 9.798 5.0129 10.2706C4.87219 10.5162 4.77799 10.8454 4.82753 11.2158C4.87909 11.6012 5.07201 11.92 5.31829 12.1388L7.31095 9.89618C7.55682 10.1147 7.74954 10.433 7.80104 10.818C7.85053 11.1879 7.75643 11.5168 7.61593 11.762C7.34559 12.2338 6.84617 12.5156 6.31562 12.5156V9.51562ZM5.22217 12.0396C4.32535 11.083 5.00254 9.51562 6.31562 9.51562V12.5156C7.63073 12.5156 8.30896 10.9458 7.41075 9.98775L5.22217 12.0396ZM12.6321 9.94116C12.5386 10.0447 12.4289 10.1811 12.329 10.3517L14.9179 11.8675C14.8868 11.9206 14.8606 11.9496 14.8584 11.952L12.6321 9.94116Z" fill="white" mask="url(#path-2-inside-1_3327_35345)"/>
<rect x="9.51562" y="16.4258" width="1.11719" height="0.476562" fill="white"/>
</svg>
