<svg width="21" height="20" viewBox="0 0 21 20" fill="none" xmlns="http://www.w3.org/2000/svg">
<path d="M5.72121 8.86311C5.75042 8.76087 5.84386 8.69039 5.95019 8.69039H15.0485C15.1548 8.69039 15.2483 8.76087 15.2775 8.86311L16.8082 14.2205C16.8516 14.3726 16.7374 14.524 16.5792 14.524H4.41951C4.26129 14.524 4.14707 14.3726 4.19053 14.2205L5.72121 8.86311Z" stroke="white" stroke-width="1.66667"/>
<path fill-rule="evenodd" clip-rule="evenodd" d="M11.6538 8.58914C11.587 8.57919 11.5229 8.5548 11.457 8.54034C11.4194 8.5321 11.3808 8.52335 11.3412 8.51438C11.0929 8.45805 10.8061 8.39301 10.5007 8.39301C10.1952 8.39301 9.90844 8.45805 9.66007 8.51438C9.58836 8.53064 9.5296 8.57943 9.48352 8.63673C9.24127 8.93791 8.74508 8.93407 8.15404 8.9295C8.08015 8.92893 8.00477 8.92834 7.92823 8.92834C7.85168 8.92834 7.77631 8.92893 7.70242 8.9295C6.86232 8.936 6.21387 8.94101 6.21387 8.07074C6.21387 7.12393 6.98141 6.35638 7.92823 6.35638C8.16233 6.35638 8.38547 6.40331 8.58876 6.48826C8.67793 6.52552 8.7863 6.45353 8.7863 6.35688C8.7863 5.41006 9.55384 4.64252 10.5007 4.64252C11.4475 4.64252 12.215 5.41006 12.215 6.35688C12.215 6.45337 12.3232 6.52525 12.4122 6.48807C12.6154 6.40323 12.8383 6.35638 13.0723 6.35638C14.0191 6.35638 14.7866 7.12393 14.7866 8.07074C14.7866 8.71212 14.4344 8.63225 13.9129 8.51397C13.6645 8.45764 13.3777 8.39261 13.0723 8.39261C12.7668 8.39261 12.4801 8.45764 12.2317 8.51397C12.1947 8.52235 12.1587 8.53053 12.1235 8.53828C12.0546 8.55346 11.9877 8.57953 11.9179 8.58973C11.8765 8.59577 11.8315 8.59667 11.7829 8.59369C11.7366 8.59619 11.6935 8.59504 11.6538 8.58914Z" fill="white"/>
</svg>
