<svg width="34" height="34" viewBox="0 0 34 34" fill="none" xmlns="http://www.w3.org/2000/svg">
<g id="Icon">
<path id="Vector 650" d="M17 27.1125C16.1302 27.1125 15.425 27.8177 15.425 28.6875C15.425 29.5573 16.1302 30.2625 17 30.2625V27.1125ZM23.925 24.4375C23.925 24.5044 23.5043 27.1125 17 27.1125V30.2625C24.0957 30.2625 27.075 27.2039 27.075 24.4375H23.925Z" fill="#EB008B"/>
<path id="Vector 647" d="M23.9062 26.031V13.8123C26.5625 13.4581 31.875 14.131 31.875 19.656C31.875 25.181 26.5625 26.2081 23.9062 26.031Z" fill="#EB008B"/>
<path id="Vector 649" d="M7.4375 14.875C7.4375 11.3333 9.24375 5.3125 16.4687 5.3125C23.6937 5.3125 25.5 11.3333 25.5 14.875" stroke="#EB008B" stroke-width="3.15"/>
<path id="Vector 648" d="M9.03125 25.0487V13.8123C6.375 13.4581 1.0625 14.131 1.0625 19.656C1.0625 24.5626 5.25237 25.9218 8.05072 26.0406C8.60301 26.064 9.03125 25.6015 9.03125 25.0487Z" fill="#EB008B"/>
</g>
</svg>
