<svg width="22" height="22" viewBox="0 0 22 22" fill="none" xmlns="http://www.w3.org/2000/svg">
<g id="solar:phone-bold">
<path id="Vector" d="M14.1123 13.6996L13.7141 14.0844C13.7141 14.0844 12.7665 14.9982 10.1809 12.503C7.59525 10.0079 8.54287 9.09404 8.54287 9.09404L8.79312 8.85115C9.41175 8.25496 9.47037 7.29698 8.9305 6.59718L7.828 5.16786C7.1595 4.3016 5.86887 4.18695 5.10325 4.92581L3.7295 6.25068C3.35062 6.61756 3.09687 7.09146 3.1275 7.618C3.20625 8.9658 3.8345 11.8644 7.338 15.2462C11.0541 18.8318 14.541 18.9745 15.9664 18.8454C16.4179 18.8046 16.8099 18.5821 17.1258 18.2764L18.3683 17.0772C19.2083 16.2678 18.972 14.8793 17.8975 14.3128L16.2263 13.4304C15.521 13.0584 14.6635 13.168 14.1123 13.6996Z" fill="#F8F8F8"/>
</g>
</svg>
