<svg width="32" height="32" viewBox="0 0 32 32" fill="none" xmlns="http://www.w3.org/2000/svg">
<path fill-rule="evenodd" clip-rule="evenodd" d="M8.50195 8H15.63C16.5242 8.00132 17.3814 8.35749 18.0132 8.99028C18.6451 9.62307 19 10.4808 19 11.375V20.75C19.7956 20.75 20.5587 20.4339 21.1213 19.8713C21.6839 19.3087 22 18.5456 22 17.75V8.108C22 6.603 20.875 5.297 19.336 5.168C19.1117 5.14979 18.8874 5.13312 18.663 5.118C18.4098 4.63029 18.0276 4.22147 17.558 3.93614C17.0884 3.65082 16.5494 3.49995 16 3.5H14.5C13.9505 3.49995 13.4115 3.65082 12.9419 3.93614C12.4723 4.22147 12.0901 4.63029 11.837 5.118C11.612 5.133 11.387 5.15 11.164 5.168C9.66195 5.295 8.55395 6.542 8.50195 8ZM14.5 5C14.1021 5 13.7206 5.15804 13.4393 5.43934C13.158 5.72064 13 6.10218 13 6.5H17.5C17.5 6.10218 17.3419 5.72064 17.0606 5.43934C16.7793 5.15804 16.3978 5 16 5H14.5Z" fill="white"/>
<path fill-rule="evenodd" clip-rule="evenodd" d="M4 11.375C4 10.339 4.84 9.5 5.875 9.5H15.625C16.661 9.5 17.5 10.34 17.5 11.375V22.625C17.5 23.66 16.66 24.5 15.625 24.5H5.875C5.37772 24.5 4.90081 24.3025 4.54917 23.9508C4.19754 23.5992 4 23.1223 4 22.625V11.375ZM13.586 15.969C13.7104 15.8136 13.7679 15.6151 13.746 15.4173C13.7241 15.2194 13.6244 15.0384 13.469 14.914C13.3136 14.7896 13.1151 14.7321 12.9173 14.754C12.7194 14.7759 12.5384 14.8756 12.414 15.031L9.938 18.127L9.03 17.22C8.88783 17.0875 8.69978 17.0154 8.50548 17.0188C8.31118 17.0223 8.12579 17.101 7.98838 17.2384C7.85097 17.3758 7.77225 17.5612 7.76883 17.7555C7.7654 17.9498 7.83752 18.1378 7.97 18.28L9.47 19.78C9.5446 19.8546 9.63409 19.9126 9.73263 19.9502C9.83117 19.9879 9.93654 20.0043 10.0419 19.9984C10.1472 19.9926 10.2501 19.9646 10.3438 19.9163C10.4376 19.8679 10.5201 19.8004 10.586 19.718L13.586 15.969Z" fill="white"/>
<path d="M27.9875 16.8455C27.6593 16.5173 27.2142 16.333 26.7502 16.333C26.2861 16.333 25.841 16.5173 25.5128 16.8455L24.7415 17.6168L27.2162 20.0915L27.9875 19.3201C28.3156 18.992 28.5 18.5469 28.5 18.0828C28.5 17.6187 28.3156 17.1736 27.9875 16.8455ZM26.5088 20.7988L24.0342 18.3241L18.4342 23.9241C18.0227 24.3354 17.7203 24.8426 17.5542 25.4001L17.0208 27.1901C16.9951 27.2765 16.9932 27.3682 17.0153 27.4556C17.0374 27.543 17.0827 27.6228 17.1464 27.6865C17.2102 27.7503 17.29 27.7956 17.3773 27.8177C17.4647 27.8398 17.5565 27.8379 17.6428 27.8121L19.4328 27.2788C19.9903 27.1127 20.4976 26.8102 20.9088 26.3988L26.5088 20.7988Z" fill="white"/>
</svg>
