<svg width="200" height="200" viewBox="0 0 200 200" fill="none" xmlns="http://www.w3.org/2000/svg">
<g filter="url(#filter0_di_250_8592)">
<path fill-rule="evenodd" clip-rule="evenodd" d="M72.5089 44.8928C69.8417 40.5835 65.3809 37.9999 60.6077 38L33.3504 38.0003C25.4249 38.0004 19 44.9948 19 53.6228L19 64.0031C19 64.2014 19.0034 64.3989 19.0102 64.5955C19.0034 64.7804 19 64.9661 19 65.1526V147C19 155.284 25.7157 162 34 162H150C158.284 162 165 155.284 165 147V65.1526C165 56.8683 158.284 50.1526 150 50.1526H75.7644L72.5089 44.8928Z" fill="#E0E4EA"/>
</g>
<g filter="url(#filter1_di_250_8592)">
<path d="M37.0175 82.0359C37.9535 77.3631 42.057 74 46.8227 74H168.798C175.11 74 179.843 79.7753 178.604 85.9641L164.983 153.964C164.047 158.637 159.943 162 155.177 162H33.2017C26.89 162 22.1568 156.225 23.3965 150.036L37.0175 82.0359Z" fill="#E7E9EC"/>
</g>
<defs>
<filter id="filter0_di_250_8592" x="5" y="24" width="166" height="144" filterUnits="userSpaceOnUse" color-interpolation-filters="sRGB">
<feFlood flood-opacity="0" result="BackgroundImageFix"/>
<feColorMatrix in="SourceAlpha" type="matrix" values="0 0 0 0 0 0 0 0 0 0 0 0 0 0 0 0 0 0 127 0" result="hardAlpha"/>
<feOffset dx="-4" dy="-4"/>
<feGaussianBlur stdDeviation="5"/>
<feComposite in2="hardAlpha" operator="out"/>
<feColorMatrix type="matrix" values="0 0 0 0 0 0 0 0 0 0 0 0 0 0 0 0 0 0 0.02 0"/>
<feBlend mode="normal" in2="BackgroundImageFix" result="effect1_dropShadow_250_8592"/>
<feBlend mode="normal" in="SourceGraphic" in2="effect1_dropShadow_250_8592" result="shape"/>
<feColorMatrix in="SourceAlpha" type="matrix" values="0 0 0 0 0 0 0 0 0 0 0 0 0 0 0 0 0 0 127 0" result="hardAlpha"/>
<feOffset dx="4" dy="4"/>
<feGaussianBlur stdDeviation="2"/>
<feComposite in2="hardAlpha" operator="arithmetic" k2="-1" k3="1"/>
<feColorMatrix type="matrix" values="0 0 0 0 1 0 0 0 0 1 0 0 0 0 1 0 0 0 0.25 0"/>
<feBlend mode="normal" in2="shape" result="effect2_innerShadow_250_8592"/>
</filter>
<filter id="filter1_di_250_8592" x="5.19922" y="60" width="176.602" height="108" filterUnits="userSpaceOnUse" color-interpolation-filters="sRGB">
<feFlood flood-opacity="0" result="BackgroundImageFix"/>
<feColorMatrix in="SourceAlpha" type="matrix" values="0 0 0 0 0 0 0 0 0 0 0 0 0 0 0 0 0 0 127 0" result="hardAlpha"/>
<feOffset dx="-8" dy="-4"/>
<feGaussianBlur stdDeviation="5"/>
<feComposite in2="hardAlpha" operator="out"/>
<feColorMatrix type="matrix" values="0 0 0 0 0 0 0 0 0 0 0 0 0 0 0 0 0 0 0.08 0"/>
<feBlend mode="normal" in2="BackgroundImageFix" result="effect1_dropShadow_250_8592"/>
<feBlend mode="normal" in="SourceGraphic" in2="effect1_dropShadow_250_8592" result="shape"/>
<feColorMatrix in="SourceAlpha" type="matrix" values="0 0 0 0 0 0 0 0 0 0 0 0 0 0 0 0 0 0 127 0" result="hardAlpha"/>
<feOffset dx="4" dy="4"/>
<feGaussianBlur stdDeviation="1.5"/>
<feComposite in2="hardAlpha" operator="arithmetic" k2="-1" k3="1"/>
<feColorMatrix type="matrix" values="0 0 0 0 1 0 0 0 0 1 0 0 0 0 1 0 0 0 0.25 0"/>
<feBlend mode="normal" in2="shape" result="effect2_innerShadow_250_8592"/>
</filter>
</defs>
</svg>
