<svg width="145" height="56" viewBox="0 0 145 56" fill="none" xmlns="http://www.w3.org/2000/svg">
<g clip-path="url(#clip0_376_10013)">
<path d="M115.406 29.1378L121.478 12.6421C121.52 12.5263 121.533 12.4021 121.517 12.28C121.5 12.158 121.454 12.0416 121.383 11.9409C121.311 11.8401 121.216 11.758 121.105 11.7013C120.995 11.6446 120.872 11.6151 120.747 11.6152H112.328L106.513 19.1973H112.148L92.6799 32.9545L101.867 22.1685H96.9586L103.982 11.6152H94.4039C94.2452 11.6155 94.0904 11.6639 93.9604 11.7538C93.8304 11.8438 93.7315 11.9711 93.6769 12.1184L87.4043 29.1378C85.7312 33.6768 87.1851 35.9462 91.7661 35.9462H106.028C110.609 35.9462 113.735 33.6768 115.406 29.1378Z" fill="url(#paint0_linear_376_10013)"/>
<path d="M139.963 20.9688H121.412C121.253 20.9685 121.097 21.0171 120.966 21.1078C120.835 21.1984 120.736 21.3268 120.682 21.4754L112.287 44.2763C112.245 44.3921 112.232 44.5163 112.248 44.6384C112.265 44.7604 112.311 44.8768 112.382 44.9775C112.454 45.0783 112.549 45.1604 112.66 45.2171C112.77 45.2738 112.893 45.3033 113.018 45.3032H121.876C122.036 45.3034 122.192 45.2548 122.322 45.1641C122.453 45.0735 122.552 44.9451 122.607 44.7966L125.563 36.7593H134.137C138.718 36.7593 141.843 34.4932 143.512 29.9611L144.318 27.7669C145.996 23.2348 144.544 20.9688 139.963 20.9688ZM133.417 28.8657C132.76 30.6571 131.285 31.5517 128.993 31.5494H127.484L129.454 26.1855H130.963C133.255 26.1855 134.073 27.0789 133.417 28.8657Z" fill="url(#paint1_linear_376_10013)"/>
<path d="M50.2258 31.8486C48.0311 37.8161 42.6574 40.7987 34.1047 40.7964C25.552 40.7941 22.3731 37.8115 24.5678 31.8486L25.1424 30.2842C27.3371 24.3281 32.7097 21.3512 41.26 21.3535C49.8104 21.3558 52.9905 24.3361 50.8004 30.2945L50.2258 31.8486ZM38.9926 33.8168L41.0177 28.2989C41.7285 26.3728 41.3108 25.4098 39.7646 25.4098C38.2184 25.4098 37.091 26.3728 36.3825 28.2989L34.3505 33.8168C33.6397 35.7406 34.0586 36.7036 35.6071 36.7059C37.1556 36.7082 38.2841 35.7451 38.9926 33.8168Z" fill="#FBBD00"/>
<path d="M57.8139 40.6289H50.6724C50.5479 40.629 50.4251 40.5995 50.3145 40.5428C50.204 40.4861 50.1088 40.4039 50.0372 40.3032C49.9655 40.2025 49.9195 40.0861 49.9029 39.9641C49.8863 39.842 49.8997 39.7178 49.942 39.6019L58.3262 16.7976C58.3808 16.6494 58.4801 16.5213 58.6108 16.4307C58.7414 16.3401 58.897 16.2913 59.0566 16.291H66.1981C66.3226 16.2909 66.4454 16.3204 66.556 16.3771C66.6665 16.4337 66.7617 16.5159 66.8333 16.6167C66.905 16.7174 66.951 16.8337 66.9676 16.9558C66.9842 17.0779 66.9708 17.2021 66.9285 17.3179L58.5339 40.1188C58.4813 40.2666 58.384 40.3949 58.2552 40.4861C58.1264 40.5774 57.9723 40.6272 57.8139 40.6289Z" fill="#FBBD00"/>
<path d="M0.775698 40.6274H14.4701C14.5969 40.6257 14.7213 40.5936 14.8328 40.534C14.9444 40.4744 15.0396 40.389 15.1106 40.2851L31.0343 17.4842C31.1155 17.369 31.1631 17.2339 31.1719 17.0937C31.1807 16.9535 31.1504 16.8137 31.0844 16.6893C31.0183 16.565 30.9189 16.461 30.7972 16.3887C30.6754 16.3164 30.5359 16.2786 30.3939 16.2793H21.3935C21.2604 16.2793 21.1296 16.3134 21.0138 16.3782C20.8979 16.443 20.801 16.5362 20.7323 16.649L9.57531 34.7432L11.7112 17.159C11.7239 17.0512 11.7134 16.942 11.6804 16.8385C11.6474 16.735 11.5927 16.6396 11.5198 16.5585C11.4469 16.4774 11.3575 16.4124 11.2574 16.3678C11.1574 16.3232 11.049 16.3001 10.9392 16.2998H1.63766C1.43697 16.3006 1.24432 16.3779 1.09985 16.5156C0.955387 16.6534 0.870267 16.8409 0.86224 17.0392L0.000278199 39.8401C-0.00249683 39.9425 0.0155126 40.0444 0.0532367 40.1399C0.0909608 40.2353 0.147637 40.3222 0.219919 40.3956C0.292202 40.469 0.378621 40.5273 0.474079 40.5672C0.569537 40.607 0.672097 40.6275 0.775698 40.6274Z" fill="#FBBD00"/>
<path d="M83.728 21.52H80.5432L82.0906 17.3199C82.1328 17.204 82.1462 17.0798 82.1297 16.9577C82.1131 16.8357 82.0671 16.7194 81.9954 16.6186C81.9237 16.5179 81.8286 16.4357 81.718 16.379C81.6075 16.3223 81.4847 16.2928 81.3602 16.293H74.2187C74.0591 16.2933 73.9035 16.342 73.7729 16.4326C73.6422 16.5232 73.5429 16.6513 73.4883 16.7996L71.7574 21.5234H67.998C67.8388 21.5234 67.6835 21.5721 67.5534 21.6628C67.4232 21.7535 67.3246 21.8817 67.2711 22.03L65.9176 25.7063C65.8754 25.8219 65.862 25.9458 65.8784 26.0676C65.8947 26.1894 65.9405 26.3055 66.0118 26.4062C66.083 26.5069 66.1777 26.5891 66.2878 26.646C66.3979 26.7029 66.5203 26.7329 66.6445 26.7333H69.8293L66.8072 34.9486C66.8072 34.9486 65.7168 38.2518 68.6973 39.775C68.8287 39.8502 68.9639 39.9188 69.1023 39.9804L69.3308 40.1002L69.1023 39.9804C69.4328 40.1367 69.7816 40.2517 70.1408 40.3227C71.0664 40.5379 72.0149 40.6413 72.9656 40.6308C74.2245 40.6204 75.4797 40.4932 76.7146 40.2508C77.0701 40.1841 77.4022 40.0282 77.6793 39.798C77.9563 39.5679 78.1689 39.2712 78.2966 38.9364L79.6535 35.373C79.688 35.2818 79.6984 35.1834 79.6839 35.0871C79.6693 34.9908 79.6303 34.8997 79.5705 34.8224C79.5106 34.7451 79.4319 34.6841 79.3417 34.6451C79.2515 34.6061 79.1527 34.5904 79.0547 34.5994L77.4173 34.7569C75.4995 34.9383 76.2542 33.1891 76.2542 33.1891L78.75 26.7333H82.3883C82.5473 26.7327 82.7024 26.6843 82.8329 26.5944C82.9634 26.5045 83.0631 26.3774 83.1187 26.2301L84.4722 22.5503C84.5156 22.4332 84.5294 22.3073 84.5125 22.1837C84.4956 22.0601 84.4484 21.9424 84.3751 21.8409C84.3018 21.7394 84.2045 21.6571 84.0917 21.6012C83.979 21.5452 83.8541 21.5174 83.728 21.52Z" fill="#FBBD00"/>
</g>
<defs>
<linearGradient id="paint0_linear_376_10013" x1="99.2606" y1="24.3421" x2="144.474" y2="9.88229" gradientUnits="userSpaceOnUse">
<stop stop-color="#EB008B"/>
<stop offset="1" stop-color="#AC00BB"/>
</linearGradient>
<linearGradient id="paint1_linear_376_10013" x1="103.851" y1="38.7001" x2="149.068" y2="24.2403" gradientUnits="userSpaceOnUse">
<stop stop-color="#EB008B"/>
<stop offset="1" stop-color="#AC00BB"/>
</linearGradient>
<clipPath id="clip0_376_10013">
<rect width="145" height="35.8025" fill="white" transform="translate(0 10)"/>
</clipPath>
</defs>
</svg>
