<svg width="188" height="35" viewBox="0 0 188 35" fill="none" xmlns="http://www.w3.org/2000/svg">
<path d="M16.5517 34.0404C19.8229 34.0381 23.0199 33.0657 25.7385 31.2464C28.4571 29.4271 30.5752 26.8425 31.8249 23.8194C33.0746 20.7964 33.3998 17.4706 32.7594 14.2627C32.119 11.0548 30.5418 8.10892 28.2271 5.79742C25.9125 3.48591 22.9644 1.91264 19.7556 1.2766C16.5469 0.640566 13.2216 0.970303 10.2002 2.22411C7.17886 3.47793 4.59714 5.59952 2.78152 8.32058C0.965904 11.0416 -0.002069 14.24 3.3205e-06 17.5112C0.0013794 19.6833 0.4306 21.8339 1.26316 23.8402C2.09573 25.8464 3.31532 27.6691 4.85231 29.204C6.3893 30.7389 8.21358 31.956 10.221 32.7858C12.2284 33.6157 14.3796 34.042 16.5517 34.0404Z" fill="#AF0030"/>
<path d="M15.8867 10.2437V24.7543H20.499V23.4485H17.2165V10.2422L15.8867 10.2437Z" fill="white"/>
<path d="M11.2663 14.2066C11.659 14.2072 12.0431 14.0913 12.3698 13.8735C12.6966 13.6557 12.9513 13.3458 13.1019 12.9831C13.2524 12.6205 13.292 12.2212 13.2155 11.8361C13.139 11.4509 12.95 11.0971 12.6723 10.8194C12.3947 10.5418 12.0408 10.3527 11.6557 10.2763C11.2705 10.1998 10.8713 10.2394 10.5086 10.3899C10.1459 10.5405 9.83609 10.7952 9.6183 11.122C9.4005 11.4487 9.28457 11.8328 9.28516 12.2254C9.28595 12.7506 9.49493 13.2541 9.8663 13.6255C10.2377 13.9969 10.7411 14.2058 11.2663 14.2066Z" fill="white"/>
<path d="M17.2159 3.664C17.0422 3.65651 16.7142 3.64453 16.557 3.64453C13.8168 3.64364 11.1379 4.45544 8.85914 5.97718C6.58036 7.49892 4.80405 9.66225 3.75489 12.1936C2.70573 14.725 2.43083 17.5106 2.96497 20.1982C3.49912 22.8858 4.81831 25.3547 6.75569 27.2925C8.69307 29.2303 11.1616 30.55 13.8491 31.0847C16.5366 31.6194 19.3223 31.3451 21.8539 30.2965C24.3855 29.2479 26.5492 27.4721 28.0714 25.1936C29.5937 22.9152 30.406 20.2364 30.4057 17.4963V16.8838H20.5118V18.1582H29.0864V18.3574C28.9192 20.7982 28.0425 23.1371 26.564 25.0864C25.0855 27.0357 23.0696 28.5106 20.7642 29.3297C18.4588 30.1488 15.9643 30.2765 13.5873 29.697C11.2103 29.1175 9.05443 27.8562 7.38463 26.068C5.71483 24.2798 4.60389 22.0427 4.18835 19.6317C3.77281 17.2206 4.07079 14.7407 5.04565 12.4967C6.02052 10.2527 7.62978 8.34245 9.67566 7.00071C11.7215 5.65898 14.1149 4.94425 16.5615 4.94437C16.7112 4.94437 17.0586 4.94439 17.2204 4.95337L17.2159 3.664Z" fill="white"/>
<path d="M45.5576 6.54883H40.5859V28.0812H55.8603V23.8882H45.5576V6.54883ZM66.8009 19.8765H70.8442V23.6411C69.6842 24.0214 68.4709 24.2135 67.2502 24.2102C62.7742 24.2102 61.2842 21.9355 61.2842 17.3217C61.2842 12.9161 62.7038 10.321 67.1798 10.321C68.1495 10.2397 69.124 10.4058 70.0121 10.8037C70.9001 11.2015 71.6728 11.818 72.2578 12.5957L75.3486 9.75046C73.4648 7.05499 70.1613 6.23438 67.072 6.23438C60.1087 6.23438 56.4518 10.038 56.4518 17.2843C56.4518 24.4962 59.7538 28.4046 67.0375 28.4046C69.9732 28.4974 72.8768 27.7715 75.4235 26.3082V15.8617H66.8009V19.8765Z" fill="white"/>
<path d="M97.0864 6.53516V18.9733C97.0864 22.4175 95.3793 24.1021 92.4922 24.1021C89.605 24.1021 87.8979 22.4115 87.8979 18.9733V6.53516H83.0176V19.0496C83.0176 25.8392 86.6295 28.388 92.317 28.388H92.6659C98.3563 28.388 101.967 25.8422 101.967 19.0496V6.53662L97.0864 6.53516Z" fill="white"/>
<path d="M114.675 6.50982V1.08594H110.672V6.50982H105.383V10.3359H110.672V15.6969H114.675V10.3359H120V6.50982H114.675Z" fill="white"/>
<path d="M169.221 12.0337C169.221 11.3238 169.315 10.6534 169.505 10.0224C169.71 9.3914 170.041 8.83928 170.498 8.36603C170.956 7.89278 171.555 7.52206 172.297 7.25389C173.038 6.96994 173.953 6.82796 175.042 6.82796C175.957 6.82796 176.745 6.9305 177.408 7.13558C178.086 7.32488 178.654 7.59305 179.112 7.9401C179.569 8.27138 179.932 8.67364 180.2 9.14689C180.468 9.62014 180.658 10.1328 180.768 10.685H183.773V6.02344H187.039V17.9967H183.773V13.3588H180.792C180.681 13.9267 180.492 14.4552 180.224 14.9442C179.956 15.4175 179.593 15.8276 179.135 16.1747C178.678 16.5217 178.11 16.7978 177.432 17.0028C176.753 17.1922 175.957 17.2868 175.042 17.2868C173.953 17.2868 173.038 17.1527 172.297 16.8845C171.555 16.6006 170.956 16.222 170.498 15.7487C170.041 15.2755 169.71 14.7234 169.505 14.0924C169.315 13.4456 169.221 12.7594 169.221 12.0337ZM174.001 19.2745H177.266V21.5461H183.773V19.2745H187.039V28.8104H175.61C175.057 28.8104 174.647 28.6842 174.379 28.4318C174.127 28.1794 174.001 27.7535 174.001 27.1541V19.2745ZM175.065 9.31253C174.166 9.31253 173.504 9.54915 173.078 10.0224C172.652 10.4799 172.439 11.1503 172.439 12.0337C172.439 13.8794 173.314 14.8022 175.065 14.8022C175.965 14.8022 176.627 14.5735 177.053 14.116C177.479 13.6585 177.692 12.9644 177.692 12.0337C177.692 11.1503 177.479 10.4799 177.053 10.0224C176.627 9.54915 175.965 9.31253 175.065 9.31253ZM177.621 26.1366H183.773V24.1963H177.266V25.8053C177.266 25.9 177.29 25.9788 177.337 26.0419C177.384 26.105 177.479 26.1366 177.621 26.1366Z" fill="white"/>
<path d="M150.19 6.78125H164.246V9.38413H153.432V11.3481H163.749V13.951H153.432V15.56C153.432 15.7493 153.456 15.8755 153.503 15.9386C153.566 16.0017 153.692 16.0333 153.882 16.0333H164.27V18.5889H152.131C151.515 18.5889 151.034 18.4627 150.687 18.2102C150.356 17.9578 150.19 17.453 150.19 16.6958V6.78125ZM147.422 21.3337H166.943V24.0076H147.422V21.3337Z" fill="white"/>
<path d="M134.116 15.6306V14.1636H130.803C130.251 14.1636 129.857 14.0374 129.62 13.785C129.384 13.5168 129.265 13.0988 129.265 12.5309V6H132.531V7.65638H139.014V6H142.28V14.1636H137.453V15.6306H145.522V18.2572H126V15.6306H134.116ZM142.138 19.322V22.3271C142.138 22.9266 142.098 23.5024 142.02 24.0545C141.941 24.6066 141.791 25.0483 141.57 25.3796H132.46V26.1131C132.46 26.2867 132.476 26.3892 132.507 26.4208C132.555 26.4681 132.657 26.4917 132.815 26.4917H143.084V29H130.685C130.133 29 129.747 28.8659 129.526 28.5977C129.305 28.3453 129.194 27.9904 129.194 27.5329V22.966H138.849V21.8539H129.194V19.322H142.138ZM139.014 11.5844V10.1173H132.531V11.2294C132.531 11.3714 132.555 11.466 132.602 11.5134C132.665 11.5607 132.767 11.5844 132.909 11.5844H139.014Z" fill="white"/>
</svg>
