<svg width="95" height="27" viewBox="0 0 95 27" fill="none" xmlns="http://www.w3.org/2000/svg">
<path d="M14.0247 26.0098C16.6006 26.0076 19.118 25.2433 21.2586 23.8133C23.3992 22.3833 25.067 20.3519 26.051 17.976C27.035 15.6 27.2911 12.9862 26.7869 10.465C26.2827 7.94385 25.0408 5.62849 23.2183 3.8117C21.3957 1.9949 19.0744 0.758257 16.5478 0.258125C14.0211 -0.242008 11.4026 0.0168317 9.02339 1.00191C6.64413 1.98699 4.61093 3.65407 3.18086 5.79238C1.75079 7.93069 0.988074 10.4442 0.989137 13.0151C0.990196 14.7227 1.32821 16.4133 1.98388 17.9904C2.63956 19.5676 3.60005 21.0004 4.81052 22.2071C6.02099 23.4137 7.45773 24.3706 9.03871 25.0231C10.6197 25.6756 12.3139 26.0108 14.0247 26.0098Z" fill="#C30036"/>
<path d="M13.5112 7.29688V18.7027H17.1439V17.6776H14.5572V7.29688H13.5112Z" fill="white"/>
<path d="M9.87327 10.4095C10.1824 10.4095 10.4845 10.318 10.7415 10.1465C10.9984 9.9751 11.1987 9.73141 11.3168 9.44634C11.435 9.16127 11.4658 8.84762 11.4053 8.54509C11.3448 8.24255 11.1957 7.96472 10.977 7.74676C10.7582 7.52881 10.4796 7.38051 10.1764 7.32065C9.87317 7.26079 9.55897 7.29205 9.27356 7.41048C8.98815 7.52891 8.74435 7.72918 8.57301 7.98595C8.40168 8.24272 8.31051 8.54445 8.31104 8.85295C8.31175 9.26603 8.47666 9.66193 8.76955 9.95377C9.06245 10.2456 9.4594 10.4095 9.87327 10.4095Z" fill="white"/>
<path d="M14.5627 2.12548C14.4256 2.12548 14.1674 2.10938 14.0437 2.10938C11.8863 2.10938 9.77733 2.74787 7.98345 3.94413C6.18958 5.14039 4.79139 6.84069 3.96565 8.83004C3.13992 10.8194 2.92373 13.0084 3.34443 15.1204C3.76512 17.2324 4.80381 19.1724 6.32916 20.6952C7.8545 22.218 9.798 23.2552 11.9139 23.6756C14.0298 24.0961 16.2231 23.8808 18.2165 23.0572C20.2098 22.2335 21.9137 20.8384 23.1127 19.0482C24.3117 17.2581 24.9519 15.1533 24.9525 13V12.5169H17.1548V13.5179H23.9065C23.9065 13.5421 23.9065 13.6467 23.9065 13.6736C23.7783 15.5663 23.1063 17.382 21.9711 18.9035C20.8358 20.425 19.2854 21.5877 17.5052 22.2525C15.7251 22.9174 13.7907 23.0561 11.9337 22.6522C10.0766 22.2483 8.37544 21.3188 7.03387 19.975C5.6508 18.5953 4.70883 16.8371 4.32714 14.9229C3.94545 13.0087 4.1412 11.0246 4.88962 9.22146C5.63803 7.41835 6.90548 5.87731 8.53161 4.79334C10.1577 3.70936 12.0695 3.13116 14.0249 3.13188C14.1378 3.13188 14.4175 3.13188 14.5439 3.13188L14.5627 2.12548Z" fill="white"/>
<path d="M90.8054 4.575V0.310547H87.6514V4.575H83.4863V7.58078H87.6514V11.7942H90.8054V7.58078H95V4.575H90.8054Z" fill="#727171"/>
<path d="M76.9443 4.54102V14.2025C76.9443 16.905 75.5999 18.2281 73.3251 18.2281C71.0503 18.2281 69.7086 16.8862 69.7086 14.2025V4.54102H65.8635V14.2481C65.8635 19.5833 68.7083 21.5881 73.188 21.5881H73.4569C77.9392 21.5881 80.784 19.5833 80.784 14.2481V4.54102H76.9443Z" fill="#727171"/>
<path d="M37.6761 21.3419H44.8123V18.0704H36.7565V4.53906H32.8657V21.3419H37.6761Z" fill="#727171"/>
<path d="M53.3711 14.9371H56.5385V17.8758C55.6324 18.1718 54.6848 18.3213 53.7314 18.3186C50.2358 18.3186 49.0635 16.5447 49.0635 12.9512C49.0635 9.51332 50.1767 7.4871 53.6749 7.4871C55.6216 7.4871 56.7321 8.09631 57.649 9.26105L60.069 7.04428C58.5955 4.93755 56.0115 4.29883 53.5942 4.29883C48.1493 4.29883 45.2883 7.26435 45.2883 12.9217C45.2883 18.579 47.8723 21.6035 53.5673 21.6035C56.1782 21.6035 58.7353 20.938 60.1255 19.9665V11.8025H53.3711V14.9371Z" fill="#727171"/>
</svg>
