<svg width="120" height="34" viewBox="0 0 120 34" fill="none" xmlns="http://www.w3.org/2000/svg">
<path d="M16.5517 33.5397C19.8229 33.5374 23.0199 32.565 25.7385 30.7457C28.4571 28.9264 30.5752 26.3418 31.8249 23.3187C33.0746 20.2957 33.3998 16.9699 32.7594 13.762C32.119 10.5541 30.5418 7.60822 28.2271 5.29671C25.9125 2.98521 22.9644 1.41193 19.7556 0.775899C16.5469 0.139864 13.2216 0.469601 10.2002 1.72341C7.17886 2.97722 4.59714 5.09882 2.78152 7.81988C0.965904 10.5409 -0.002069 13.7393 3.3205e-06 17.0104C0.0013794 19.1826 0.4306 21.3332 1.26316 23.3395C2.09573 25.3457 3.31532 27.1684 4.85231 28.7033C6.3893 30.2382 8.21358 31.4553 10.221 32.2851C12.2284 33.115 14.3796 33.5413 16.5517 33.5397Z" fill="#AF0030"/>
<path d="M15.8867 9.74299V24.2536H20.499V22.9478H17.2165V9.74149L15.8867 9.74299Z" fill="white"/>
<path d="M11.2663 13.7059C11.659 13.7065 12.0431 13.5906 12.3698 13.3728C12.6966 13.155 12.9513 12.8451 13.1019 12.4824C13.2524 12.1198 13.292 11.7205 13.2155 11.3354C13.139 10.9502 12.95 10.5964 12.6723 10.3187C12.3947 10.0411 12.0408 9.85202 11.6557 9.77555C11.2705 9.69909 10.8713 9.73866 10.5086 9.88921C10.1459 10.0398 9.83609 10.2945 9.6183 10.6213C9.4005 10.948 9.28457 11.332 9.28516 11.7247C9.28595 12.2499 9.49493 12.7534 9.8663 13.1248C10.2377 13.4962 10.7411 13.7051 11.2663 13.7059Z" fill="white"/>
<path d="M17.2159 3.1633C17.0422 3.15581 16.7142 3.14383 16.557 3.14383C13.8168 3.14294 11.1379 3.95474 8.85914 5.47648C6.58036 6.99822 4.80405 9.16155 3.75489 11.6929C2.70573 14.2243 2.43083 17.0099 2.96497 19.6975C3.49912 22.3851 4.81831 24.854 6.75569 26.7918C8.69307 28.7296 11.1616 30.0493 13.8491 30.584C16.5366 31.1187 19.3223 30.8444 21.8539 29.7958C24.3855 28.7472 26.5492 26.9714 28.0714 24.6929C29.5937 22.4145 30.406 19.7357 30.4057 16.9956V16.3831H20.5118V17.6575H29.0864V17.8567C28.9192 20.2975 28.0425 22.6364 26.564 24.5857C25.0855 26.535 23.0696 28.0099 20.7642 28.829C18.4588 29.6481 15.9643 29.7757 13.5873 29.1963C11.2103 28.6168 9.05443 27.3555 7.38463 25.5673C5.71483 23.7791 4.60389 21.542 4.18835 19.131C3.77281 16.7199 4.07079 14.24 5.04565 11.996C6.02052 9.752 7.62978 7.84174 9.67566 6.50001C11.7215 5.15828 14.1149 4.44355 16.5615 4.44367C16.7112 4.44367 17.0586 4.44368 17.2204 4.45267L17.2159 3.1633Z" fill="white"/>
<path d="M45.5576 6.04813H40.5859V27.5805H55.8603V23.3875H45.5576V6.04813ZM66.8009 19.3757H70.8442V23.1404C69.6842 23.5207 68.4709 23.7128 67.2502 23.7095C62.7742 23.7095 61.2842 21.4348 61.2842 16.821C61.2842 12.4154 62.7038 9.82027 67.1798 9.82027C68.1495 9.73905 69.124 9.90514 70.0121 10.303C70.9001 10.7008 71.6728 11.3173 72.2578 12.095L75.3486 9.24976C73.4648 6.55428 70.1613 5.73367 67.072 5.73367C60.1087 5.73367 56.4518 9.53728 56.4518 16.7836C56.4518 23.9955 59.7538 27.9039 67.0375 27.9039C69.9732 27.9967 72.8768 27.2708 75.4235 25.8075V15.361H66.8009V19.3757Z" fill="white"/>
<path d="M97.0845 6.03445V18.4726C97.0845 21.9168 95.3774 23.6014 92.4902 23.6014C89.6031 23.6014 87.8959 21.9108 87.8959 18.4726V6.03445H83.0156V18.5489C83.0156 25.3385 86.6275 27.8873 92.315 27.8873H92.6639C98.3544 27.8873 101.965 25.3415 101.965 18.5489V6.03592L97.0845 6.03445Z" fill="white"/>
<path d="M114.675 6.00912V0.585236H110.672V6.00912H105.383V9.83523H110.672V15.1962H114.675V9.83523H120V6.00912H114.675Z" fill="white"/>
</svg>
