<svg width="24" height="24" viewBox="0 0 24 24" fill="none" xmlns="http://www.w3.org/2000/svg">
<path fill-rule="evenodd" clip-rule="evenodd" d="M12.0004 3.10039C7.08506 3.10039 3.10039 7.08506 3.10039 12.0004C3.10039 16.9157 7.08506 20.9004 12.0004 20.9004C16.9157 20.9004 20.9004 16.9157 20.9004 12.0004C20.9004 7.08506 16.9157 3.10039 12.0004 3.10039ZM1.90039 12.0004C1.90039 6.42232 6.42232 1.90039 12.0004 1.90039C17.5785 1.90039 22.1004 6.42232 22.1004 12.0004C22.1004 17.5785 17.5785 22.1004 12.0004 22.1004C6.42232 22.1004 1.90039 17.5785 1.90039 12.0004Z" fill="#0F0F0F"/>
<path fill-rule="evenodd" clip-rule="evenodd" d="M17.4222 9.07373C17.6579 9.30672 17.66 9.68661 17.427 9.92225L11.4945 15.9222C11.2621 16.1574 10.8832 16.1601 10.6474 15.9284L7.57988 12.9144C7.34351 12.6821 7.34017 12.3022 7.57241 12.0659C7.80466 11.8295 8.18454 11.8262 8.42091 12.0584L11.0618 14.6532L16.5737 9.07853C16.8067 8.8429 17.1866 8.84075 17.4222 9.07373Z" fill="#0F0F0F"/>
</svg>
