<svg width="120" height="120" viewBox="0 0 120 120" fill="none" xmlns="http://www.w3.org/2000/svg">
<path d="M10.998 70.6211C10.998 62.7306 18.2735 56.8491 25.9888 58.5023L30.9889 59.5738C36.7033 60.7983 40.7859 65.8484 40.7859 71.6925V75.066C40.7859 82.9565 33.5105 88.8381 25.7951 87.1848L20.795 86.1134C15.0806 84.8888 10.998 79.8388 10.998 73.9946V70.6211Z" stroke="#38A7E5" stroke-width="5.20844" stroke-linecap="round" stroke-linejoin="round"/>
<path d="M111 70.6211C111 62.7306 103.725 56.8491 96.0093 58.5023L91.0092 59.5738C85.2947 60.7983 81.2122 65.8484 81.2122 71.6925V75.066C81.2122 82.9565 88.4876 88.8381 96.2029 87.1848L101.203 86.1134C106.917 84.8888 111 79.8388 111 73.9946V70.6211Z" stroke="#38A7E5" stroke-width="5.20844" stroke-linecap="round" stroke-linejoin="round"/>
<path d="M24.8286 59.5359C24.8286 56.7265 26.3591 54.1399 28.8612 52.8622C36.3112 49.0578 52.2218 41.46 60.4676 41.46C68.7134 41.46 84.624 49.0578 92.074 52.8622C94.5761 54.1399 96.1066 56.7265 96.1066 59.5359V85.7242C96.1066 88.4992 94.6217 91.0547 92.1397 92.2958C85.2404 95.7458 70.7052 102.259 59.5876 102.096C49.0297 101.942 35.356 95.6775 28.7472 92.3087C26.293 91.0576 24.8286 88.5167 24.8286 85.762V59.5359Z" fill="url(#paint0_linear_3952_110740)"/>
<path d="M83.3413 77.0552C83.3413 78.109 82.6033 79.0165 81.5683 79.2146C77.5351 79.9867 67.4804 81.7656 60.4685 81.7656C53.4566 81.7656 43.402 79.9867 39.3687 79.2146C38.3337 79.0165 37.5957 78.109 37.5957 77.0552C37.5957 75.6438 38.8884 74.5821 40.276 74.8405C44.7605 75.6758 53.9353 77.2202 60.4685 77.2202C67.0018 77.2202 76.1765 75.6758 80.6611 74.8405C82.0486 74.5821 83.3413 75.6438 83.3413 77.0552Z" fill="#F6FCFF"/>
<path d="M83.3413 65.1987C83.3413 64.1449 82.6033 63.2374 81.5683 63.0393C77.5351 62.2672 67.4804 60.4883 60.4685 60.4883C53.4566 60.4883 43.402 62.2672 39.3687 63.0393C38.3337 63.2374 37.5957 64.1449 37.5957 65.1987C37.5957 66.6101 38.8884 67.6718 40.276 67.4134C44.7605 66.5781 53.9353 65.0337 60.4685 65.0337C67.0018 65.0337 76.1765 66.5781 80.6611 67.4134C82.0486 67.6718 83.3413 66.6101 83.3413 65.1987Z" fill="#F6FCFF"/>
<g opacity="0.6" filter="url(#filter0_i_3952_110740)">
<path d="M103.799 29.909C104.375 28.8395 105.91 28.8395 106.486 29.909C106.83 30.5465 107.574 30.8547 108.267 30.6469C109.431 30.2982 110.516 31.383 110.167 32.5468C109.96 33.2405 110.268 33.9848 110.905 34.3283C111.975 34.9047 111.975 36.4389 110.905 37.0153C110.268 37.3588 109.96 38.1031 110.167 38.7968C110.516 39.9606 109.431 41.0455 108.267 40.6967C107.574 40.4889 106.83 40.7972 106.486 41.4347C105.91 42.5042 104.375 42.5042 103.799 41.4347C103.455 40.7972 102.711 40.4889 102.018 40.6967C100.854 41.0454 99.7689 39.9606 100.118 38.7968C100.325 38.1031 100.017 37.3588 99.3797 37.0153C98.3102 36.4389 98.3102 34.9047 99.3797 34.3283C100.017 33.9848 100.325 33.2405 100.118 32.5468C99.7689 31.383 100.854 30.2982 102.018 30.6469C102.711 30.8547 103.455 30.5465 103.799 29.909Z" fill="#777777"/>
</g>
<g opacity="0.6" filter="url(#filter1_i_3952_110740)">
<path d="M11.097 27.5356C11.5452 26.7038 12.7385 26.7038 13.1868 27.5356C13.454 28.0315 14.0329 28.2712 14.5724 28.1096C15.4776 27.8384 16.3214 28.6821 16.0502 29.5873C15.8885 30.1269 16.1283 30.7057 16.6241 30.9729C17.4559 31.4212 17.4559 32.6145 16.6241 33.0628C16.1283 33.33 15.8885 33.9088 16.0502 34.4484C16.3214 35.3536 15.4776 36.1973 14.5724 35.9261C14.0329 35.7645 13.454 36.0042 13.1868 36.5001C12.7385 37.3319 11.5452 37.3319 11.097 36.5001C10.8298 36.0042 10.2509 35.7645 9.71135 35.9261C8.80616 36.1973 7.96239 35.3536 8.2336 34.4484C8.39526 33.9088 8.15549 33.33 7.65966 33.0628C6.82782 32.6145 6.82782 31.4212 7.65966 30.9729C8.15549 30.7057 8.39526 30.1269 8.2336 29.5873C7.96239 28.6821 8.80616 27.8384 9.71135 28.1096C10.2509 28.2712 10.8298 28.0315 11.097 27.5356Z" fill="#777777"/>
</g>
<g opacity="0.9" filter="url(#filter2_i_3952_110740)">
<path d="M22.4539 12.9988C23.1468 11.7131 24.9911 11.7131 25.684 12.9988L25.7228 13.0709C26.1358 13.8372 27.0305 14.2078 27.8644 13.958L27.9429 13.9345C29.3419 13.5153 30.646 14.8194 30.2268 16.2185L30.2033 16.2969C29.9535 17.1308 30.3241 18.0255 31.0904 18.4385L31.1625 18.4773C32.4482 19.1702 32.4482 21.0145 31.1625 21.7074L31.0904 21.7463C30.3241 22.1592 29.9535 23.0539 30.2033 23.8878L30.2269 23.9663C30.646 25.3653 29.3419 26.6695 27.9429 26.2503L27.8644 26.2268C27.0305 25.9769 26.1358 26.3475 25.7228 27.1139L25.684 27.1859C24.9911 28.4716 23.1468 28.4716 22.4539 27.1859L22.4151 27.1139C22.0021 26.3475 21.1074 25.9769 20.2735 26.2268L20.195 26.2503C18.796 26.6695 17.4918 25.3653 17.911 23.9663L17.9345 23.8878C18.1844 23.0539 17.8138 22.1592 17.0475 21.7463L16.9754 21.7074C15.6897 21.0145 15.6897 19.1702 16.9754 18.4773L17.0475 18.4385C17.8138 18.0255 18.1844 17.1308 17.9345 16.2969L17.911 16.2185C17.4918 14.8194 18.796 13.5153 20.195 13.9345L20.2735 13.958C21.1074 14.2078 22.0021 13.8372 22.4151 13.0709L22.4539 12.9988Z" fill="#777777"/>
</g>
<defs>
<filter id="filter0_i_3952_110740" x="98.5776" y="29.1064" width="13.1299" height="13.1299" filterUnits="userSpaceOnUse" color-interpolation-filters="sRGB">
<feFlood flood-opacity="0" result="BackgroundImageFix"/>
<feBlend mode="normal" in="SourceGraphic" in2="BackgroundImageFix" result="shape"/>
<feColorMatrix in="SourceAlpha" type="matrix" values="0 0 0 0 0 0 0 0 0 0 0 0 0 0 0 0 0 0 127 0" result="hardAlpha"/>
<feOffset/>
<feGaussianBlur stdDeviation="3.21059"/>
<feComposite in2="hardAlpha" operator="arithmetic" k2="-1" k3="1"/>
<feColorMatrix type="matrix" values="0 0 0 0 0 0 0 0 0 0 0 0 0 0 0 0 0 0 0.55 0"/>
<feBlend mode="normal" in2="shape" result="effect1_innerShadow_3952_110740"/>
</filter>
<filter id="filter1_i_3952_110740" x="7.03564" y="26.9121" width="10.2124" height="10.2119" filterUnits="userSpaceOnUse" color-interpolation-filters="sRGB">
<feFlood flood-opacity="0" result="BackgroundImageFix"/>
<feBlend mode="normal" in="SourceGraphic" in2="BackgroundImageFix" result="shape"/>
<feColorMatrix in="SourceAlpha" type="matrix" values="0 0 0 0 0 0 0 0 0 0 0 0 0 0 0 0 0 0 127 0" result="hardAlpha"/>
<feOffset/>
<feGaussianBlur stdDeviation="3.21059"/>
<feComposite in2="hardAlpha" operator="arithmetic" k2="-1" k3="1"/>
<feColorMatrix type="matrix" values="0 0 0 0 0 0 0 0 0 0 0 0 0 0 0 0 0 0 0.55 0"/>
<feBlend mode="normal" in2="shape" result="effect1_innerShadow_3952_110740"/>
</filter>
<filter id="filter2_i_3952_110740" x="16.0112" y="12.0342" width="16.1157" height="16.1162" filterUnits="userSpaceOnUse" color-interpolation-filters="sRGB">
<feFlood flood-opacity="0" result="BackgroundImageFix"/>
<feBlend mode="normal" in="SourceGraphic" in2="BackgroundImageFix" result="shape"/>
<feColorMatrix in="SourceAlpha" type="matrix" values="0 0 0 0 0 0 0 0 0 0 0 0 0 0 0 0 0 0 127 0" result="hardAlpha"/>
<feOffset/>
<feGaussianBlur stdDeviation="3.21059"/>
<feComposite in2="hardAlpha" operator="arithmetic" k2="-1" k3="1"/>
<feColorMatrix type="matrix" values="0 0 0 0 0 0 0 0 0 0 0 0 0 0 0 0 0 0 0.55 0"/>
<feBlend mode="normal" in2="shape" result="effect1_innerShadow_3952_110740"/>
</filter>
<linearGradient id="paint0_linear_3952_110740" x1="45.5908" y1="50.0435" x2="72.8731" y2="102.308" gradientUnits="userSpaceOnUse">
<stop offset="0.565984" stop-color="#47B0EB"/>
<stop offset="1" stop-color="#4797C5"/>
</linearGradient>
</defs>
</svg>
