<svg width="100" height="100" viewBox="0 0 100 100" fill="none" xmlns="http://www.w3.org/2000/svg">
<path d="M75.2602 46.0047C76.1089 48.1266 90.5656 71.7436 98.6065 84.7789C99.0622 85.5176 98.5261 86.4623 97.6582 86.4623H52.9099C52.3729 86.4623 51.9135 86.0799 51.8193 85.5513C49.9204 74.8957 46.3162 54.3152 45.8855 50.4385C45.3313 45.4506 45.0672 44.1713 32.0334 43.7879C17.6474 43.3648 16.9229 33.8227 18.4924 28.4561C18.6239 28.0065 19.045 27.7156 19.5134 27.7156H35.8617C36.4928 27.7156 36.9892 27.1874 37.0263 26.5575C37.694 15.2446 56.2949 19.4025 61.4048 19.4024C66.6815 19.4023 74.977 26.4863 78.0299 33.8121C80.801 43.7879 74.8129 44.8866 75.2602 46.0047Z" fill="url(#paint0_linear_3952_110693)"/>
<rect x="41.791" y="24.626" width="1.49254" height="4.47761" rx="0.746269" fill="#565050"/>
<path fill-rule="evenodd" clip-rule="evenodd" d="M17.9839 31.0635C18.079 30.132 18.2607 29.2486 18.4924 28.4563C18.6239 28.0067 19.045 27.7158 19.5135 27.7158H24.0072V28.2708C23.8234 29.7406 22.3608 32.3431 17.9839 31.0635Z" fill="#565050"/>
<path d="M60.5894 46.0051C55.433 41.2784 59.9244 27.4937 63.0652 20.594C63.2429 20.2037 63.634 19.9539 64.0501 20.0576C67.6795 20.9618 77.8447 27.8846 78.877 37.6919C79.9855 48.222 67.24 52.1015 60.5894 46.0051Z" fill="url(#paint1_linear_3952_110693)"/>
<path d="M21.6418 46.7262C21.9998 46.3815 22.4365 46.1292 22.9139 45.9913C23.3913 45.8533 23.8952 45.8338 24.3819 45.9345C24.8686 46.0351 25.3234 46.2529 25.7069 46.5689C26.0905 46.8849 26.3912 47.2896 26.5831 47.7481C26.775 48.2065 26.8523 48.7048 26.8082 49.1998C26.7642 49.6948 26.6001 50.1716 26.3303 50.589C26.0604 51.0063 25.6929 51.3516 25.2596 51.5949C24.8263 51.8382 24.3401 51.9722 23.8433 51.9853H2.43994" stroke="#53B3B3" stroke-opacity="0.701961" stroke-width="2.98507" stroke-linecap="round" stroke-linejoin="round"/>
<path d="M11.7368 42.9309C12.0201 42.6419 12.3708 42.4277 12.7572 42.3075C13.1437 42.1874 13.554 42.165 13.9513 42.2424C14.3485 42.3198 14.7204 42.4946 15.0335 42.7511C15.3466 43.0076 15.5911 43.3378 15.7452 43.712C15.8993 44.0863 15.9582 44.4929 15.9165 44.8955C15.8747 45.2981 15.7338 45.684 15.5062 46.0187C15.2786 46.3534 14.9716 46.6264 14.6125 46.8133C14.2535 47.0001 13.8537 47.0949 13.449 47.0892H5.22998" stroke="#53B3B3" stroke-opacity="0.701961" stroke-width="2.98507" stroke-linecap="round" stroke-linejoin="round"/>
<path d="M15.4046 61.0375C15.688 61.3265 16.0386 61.5407 16.4251 61.6608C16.8116 61.781 17.2219 61.8034 17.6192 61.7259C18.0164 61.6485 18.3883 61.4737 18.7014 61.2173C19.0145 60.9608 19.259 60.6306 19.4131 60.2564C19.5672 59.8821 19.6261 59.4755 19.5844 59.0729C19.5426 58.6703 19.4017 58.2844 19.1741 57.9497C18.9465 57.615 18.6395 57.342 18.2804 57.1551C17.9214 56.9683 17.5216 56.8735 17.1169 56.8791L5.50391 56.8791" stroke="#53B3B3" stroke-opacity="0.701961" stroke-width="2.98507" stroke-linecap="round" stroke-linejoin="round"/>
<path d="M46.1515 41.4763C61.7793 48.6357 63.8865 73.446 62.9296 85.8199C62.8998 86.2051 62.5776 86.4905 62.1912 86.4905H36.9409C36.5288 86.4905 36.1948 86.1569 36.2107 85.745C36.3677 81.6859 37.5267 74.7143 32.9447 74.2978C26.8484 73.7436 22.9702 74.2978 22.416 66.5388C22.0166 60.9468 26.0852 60.0327 28.7866 60.3117C29.2331 60.3578 29.6535 60.0447 29.7173 59.6003C30.9746 50.8444 39.3042 50.3478 44.1914 51.3512C44.6724 51.45 45.1388 51.0923 45.1388 50.6012V42.1418C45.1388 41.6153 45.6728 41.257 46.1515 41.4763Z" fill="url(#paint2_linear_3952_110693)"/>
<rect x="35.0752" y="56.7158" width="1.49254" height="4.47761" rx="0.746269" fill="#EFF0F7"/>
<path fill-rule="evenodd" clip-rule="evenodd" d="M45.1387 51.479V43.3359C47.2865 44.9512 50.3695 47.6219 51.1213 49.6265C52.1757 52.4383 47.271 53.2636 45.1387 51.479Z" fill="#3F3C37"/>
<path fill-rule="evenodd" clip-rule="evenodd" d="M22.5493 64.1724C22.9508 62.3064 24.0587 61.2654 25.3488 60.7363C25.8303 61.1927 26.3429 61.9628 26.0179 62.7875C25.7104 63.5678 23.9263 64.2544 22.5493 64.1724Z" fill="#9E9990"/>
<defs>
<linearGradient id="paint0_linear_3952_110693" x1="58.7781" y1="18.6562" x2="58.7781" y2="86.4623" gradientUnits="userSpaceOnUse">
<stop stop-color="#A1886F"/>
<stop offset="1" stop-color="#90765C"/>
</linearGradient>
<linearGradient id="paint1_linear_3952_110693" x1="68.593" y1="19.957" x2="68.593" y2="48.9022" gradientUnits="userSpaceOnUse">
<stop stop-color="#7A6958"/>
<stop offset="1" stop-color="#5C4D3D"/>
</linearGradient>
<linearGradient id="paint2_linear_3952_110693" x1="38.8066" y1="51.4927" x2="51.8663" y2="83.9554" gradientUnits="userSpaceOnUse">
<stop stop-color="#59554E"/>
<stop offset="1" stop-color="#48443E"/>
</linearGradient>
</defs>
</svg>
