<svg width="100" height="100" viewBox="0 0 100 100" fill="none" xmlns="http://www.w3.org/2000/svg">
<g filter="url(#filter0_i_3952_110715)">
<rect x="23.3335" y="16.667" width="55.8333" height="63.3333" rx="5.65866" fill="#3B7474"/>
</g>
<path d="M61.2129 12.7539C62.3633 10.6111 64.7542 9.44304 67.1515 9.85264L69.1765 10.1986C71.8862 10.6616 73.8711 13.005 73.882 15.754L74.1405 80.9138C74.1543 84.3787 71.0789 87.0422 67.6514 86.5337L32.9629 81.3871C29.0865 80.8119 26.9541 76.5658 28.8078 73.113L61.2129 12.7539Z" fill="#4ABDBD"/>
<path d="M23.3335 21.2929C23.3335 18.4921 25.3825 16.1126 28.1524 15.6969L65.1684 10.1422C68.5898 9.62875 71.6668 12.2785 71.6668 15.7382V80.9291C71.6668 84.3888 68.5898 87.0386 65.1684 86.5251L28.1524 80.9704C25.3825 80.5547 23.3335 78.1753 23.3335 75.3744V21.2929Z" fill="url(#paint0_linear_3952_110715)"/>
<path d="M64.8446 48.4506C64.8446 50.413 63.3865 52.0038 61.5877 52.0038C59.789 52.0038 58.1455 50.413 58.1455 48.4506C58.1455 46.4883 59.789 44.8975 61.5877 44.8975C63.3865 44.8975 64.8446 46.4883 64.8446 48.4506Z" fill="#2E2E2E"/>
<ellipse cx="61.3281" cy="48.2514" rx="3.18262" ry="3.35396" fill="url(#paint1_linear_3952_110715)"/>
<ellipse cx="61.7645" cy="48.3328" rx="1.94668" ry="1.90022" fill="#353535"/>
<g filter="url(#filter1_di_3952_110715)">
<path d="M60.2163 48.3328C60.2163 47.3648 60.9644 46.5614 61.9299 46.4924L69.6717 45.9395C71.0607 45.8402 72.2422 46.9403 72.2422 48.3328C72.2422 49.7253 71.0607 50.8254 69.6717 50.7262L61.9299 50.1732C60.9644 50.1042 60.2163 49.3008 60.2163 48.3328Z" fill="#434343"/>
</g>
<circle cx="78.7303" cy="74.9999" r="17.5373" fill="#55B18F" stroke="#ECF5EA" stroke-width="2.98507"/>
<path d="M77.8145 81.4293C76.4287 81.4337 75.092 80.8907 74.0694 79.908C73.0468 78.9254 72.4131 77.5748 72.2939 76.1242C72.1747 74.6736 72.5788 73.2289 73.4259 72.0767C74.2731 70.9244 75.5015 70.1488 76.8674 69.9036C79.6815 69.333 81.1984 68.9506 82.3262 68.2408C83.3004 67.6277 84.7351 67.7322 85.0853 68.8287C85.4508 69.9734 85.7063 71.3353 85.7063 73.1374C85.7063 77.6979 81.934 81.4293 77.8145 81.4293Z" fill="white"/>
<path d="M70.7808 82.9217C70.7808 80.4341 72.2869 78.4772 74.9164 77.9465C76.8866 77.5485 78.9219 76.2882 79.736 75.459" stroke="#55B18F" stroke-width="1.49254" stroke-linecap="round" stroke-linejoin="round"/>
<path d="M70.0347 82.1756C70.0347 79.688 71.5408 77.7311 74.1704 77.2005C76.1405 76.8024 78.1758 75.5421 78.9899 74.7129" stroke="white" stroke-width="1.49254" stroke-linecap="round" stroke-linejoin="round"/>
<defs>
<filter id="filter0_i_3952_110715" x="20.8335" y="16.667" width="58.3335" height="66.6663" filterUnits="userSpaceOnUse" color-interpolation-filters="sRGB">
<feFlood flood-opacity="0" result="BackgroundImageFix"/>
<feBlend mode="normal" in="SourceGraphic" in2="BackgroundImageFix" result="shape"/>
<feColorMatrix in="SourceAlpha" type="matrix" values="0 0 0 0 0 0 0 0 0 0 0 0 0 0 0 0 0 0 127 0" result="hardAlpha"/>
<feOffset dx="-2.5" dy="3.33333"/>
<feGaussianBlur stdDeviation="1.66667"/>
<feComposite in2="hardAlpha" operator="arithmetic" k2="-1" k3="1"/>
<feColorMatrix type="matrix" values="0 0 0 0 0 0 0 0 0 0 0 0 0 0 0 0 0 0 0.15 0"/>
<feBlend mode="normal" in2="shape" result="effect1_innerShadow_3952_110715"/>
</filter>
<filter id="filter1_di_3952_110715" x="57.7163" y="45.1003" width="17.0259" height="9.79883" filterUnits="userSpaceOnUse" color-interpolation-filters="sRGB">
<feFlood flood-opacity="0" result="BackgroundImageFix"/>
<feColorMatrix in="SourceAlpha" type="matrix" values="0 0 0 0 0 0 0 0 0 0 0 0 0 0 0 0 0 0 127 0" result="hardAlpha"/>
<feOffset dy="1.66667"/>
<feGaussianBlur stdDeviation="1.25"/>
<feComposite in2="hardAlpha" operator="out"/>
<feColorMatrix type="matrix" values="0 0 0 0 0 0 0 0 0 0 0 0 0 0 0 0 0 0 0.25 0"/>
<feBlend mode="normal" in2="BackgroundImageFix" result="effect1_dropShadow_3952_110715"/>
<feBlend mode="normal" in="SourceGraphic" in2="effect1_dropShadow_3952_110715" result="shape"/>
<feColorMatrix in="SourceAlpha" type="matrix" values="0 0 0 0 0 0 0 0 0 0 0 0 0 0 0 0 0 0 127 0" result="hardAlpha"/>
<feOffset dy="-0.833333"/>
<feGaussianBlur stdDeviation="1.25"/>
<feComposite in2="hardAlpha" operator="arithmetic" k2="-1" k3="1"/>
<feColorMatrix type="matrix" values="0 0 0 0 0 0 0 0 0 0 0 0 0 0 0 0 0 0 0.25 0"/>
<feBlend mode="normal" in2="shape" result="effect2_innerShadow_3952_110715"/>
</filter>
<linearGradient id="paint0_linear_3952_110715" x1="37.4122" y1="25.4548" x2="46.1415" y2="75.9592" gradientUnits="userSpaceOnUse">
<stop offset="0.565984" stop-color="#5FC8C8"/>
<stop offset="1" stop-color="#54BBBB"/>
</linearGradient>
<linearGradient id="paint1_linear_3952_110715" x1="60.5325" y1="44.8975" x2="63.1435" y2="51.0917" gradientUnits="userSpaceOnUse">
<stop stop-color="#434343"/>
<stop offset="1" stop-color="#373737"/>
</linearGradient>
</defs>
</svg>
