<svg width="120" height="120" viewBox="0 0 120 120" fill="none" xmlns="http://www.w3.org/2000/svg">
<path d="M23.2852 51.9706C23.2852 49.8058 24.3174 47.7707 26.0641 46.4918L56.1964 24.4293C58.5849 22.6806 61.831 22.6806 64.2194 24.4293L94.3518 46.4918C96.0985 47.7707 97.1307 49.8058 97.1307 51.9706V91.0089C97.1307 93.0574 96.2663 95.0221 94.7275 96.4706C93.1888 97.9192 91.1018 98.7329 88.9257 98.7329H31.4902C29.3141 98.7329 27.2271 97.9192 25.6884 96.4706C24.1496 95.0221 23.2852 93.0574 23.2852 91.0089V51.9706Z" fill="url(#paint0_linear_2318_108042)"/>
<path d="M73.291 58.6906C73.915 58.0898 74.676 57.6501 75.5082 57.4096C76.3404 57.1692 77.2187 57.1352 78.067 57.3106C78.9153 57.4861 79.708 57.8656 80.3766 58.4165C81.0451 58.9673 81.5693 59.6728 81.9038 60.4718C82.2383 61.2709 82.373 62.1394 82.2962 63.0022C82.2194 63.8651 81.9334 64.6962 81.4631 65.4236C80.9927 66.151 80.3522 66.7528 79.5968 67.1769C78.8415 67.601 77.9942 67.8346 77.1282 67.8575H39.8213" stroke="white" stroke-width="3.37344" stroke-linecap="round" stroke-linejoin="round"/>
<path d="M56.0232 52.0756C56.5171 51.5718 57.1282 51.1985 57.8019 50.9891C58.4756 50.7796 59.1907 50.7407 59.8832 50.8756C60.5756 51.0105 61.2237 51.3152 61.7695 51.7623C62.3152 52.2093 62.7415 52.7848 63.0101 53.4371C63.2787 54.0895 63.3813 54.7983 63.3086 55.5C63.2358 56.2017 62.9901 56.8744 62.5935 57.4578C62.1968 58.0412 61.6616 58.5171 61.0358 58.8427C60.41 59.1684 59.7131 59.3337 59.0077 59.3238H39.8213" stroke="white" stroke-width="3.37344" stroke-linecap="round" stroke-linejoin="round"/>
<path d="M62.4186 83.6353C62.9125 84.1391 63.5237 84.5124 64.1974 84.7218C64.8711 84.9313 65.5862 84.9702 66.2786 84.8353C66.9711 84.7004 67.6192 84.3957 68.165 83.9486C68.7107 83.5016 69.137 82.9261 69.4056 82.2738C69.6742 81.6214 69.7767 80.9126 69.704 80.2109C69.6313 79.5092 69.3856 78.8365 68.989 78.2531C68.5923 77.6697 68.0571 77.1938 67.4313 76.8682C66.8054 76.5425 66.1086 76.3772 65.4032 76.3871H39.8213" stroke="white" stroke-width="3.37344" stroke-linecap="round" stroke-linejoin="round"/>
<circle cx="94.4764" cy="89.9998" r="21.0448" fill="#42C494" stroke="#EAF5F2" stroke-width="3.58209"/>
<path d="M93.3768 97.7151C91.7139 97.7204 90.1098 97.0688 88.8827 95.8897C87.6556 94.7105 86.8951 93.0898 86.7521 91.3491C86.6091 89.6083 87.0939 87.8747 88.1105 86.492C89.1271 85.1093 90.6012 84.1785 92.2403 83.8843C95.6172 83.1996 97.4375 82.7407 98.7909 81.889C99.9599 81.1533 101.682 81.2787 102.102 82.5944C102.54 83.9681 102.847 85.6024 102.847 87.7649C102.847 93.2375 98.3202 97.7151 93.3768 97.7151Z" fill="white"/>
<path d="M84.9365 99.506C84.9365 96.5209 86.7439 94.1727 89.8993 93.5359C92.2635 93.0582 94.7059 91.5458 95.6828 90.5508" stroke="#42C494" stroke-width="1.79104" stroke-linecap="round" stroke-linejoin="round"/>
<path d="M84.041 98.6105C84.041 95.6254 85.8483 93.2772 89.0038 92.6403C91.368 92.1627 93.8104 90.6503 94.7873 89.6553" stroke="white" stroke-width="1.79104" stroke-linecap="round" stroke-linejoin="round"/>
<defs>
<linearGradient id="paint0_linear_2318_108042" x1="44.7952" y1="32.4256" x2="83.3026" y2="92.4256" gradientUnits="userSpaceOnUse">
<stop offset="0.565984" stop-color="#3ED39E"/>
<stop offset="1" stop-color="#35C491"/>
</linearGradient>
</defs>
</svg>
