<svg width="100" height="100" viewBox="0 0 100 100" fill="none" xmlns="http://www.w3.org/2000/svg">
<g filter="url(#filter0_i_3952_110711)">
<path d="M45.9644 22.4012L22.6593 40.4292C21.1896 41.5662 20.3291 43.3197 20.3291 45.1779V78.8749C20.3291 80.4165 21.5788 81.6662 23.1204 81.6662L76.1553 81.6662C77.6969 81.6662 78.9466 80.4165 78.9466 78.8749V45.1779C78.9466 43.3197 78.0861 41.5662 76.6163 40.4292L53.3113 22.4012C51.1481 20.7279 48.1275 20.7279 45.9644 22.4012Z" fill="url(#paint0_linear_3952_110711)"/>
</g>
<g filter="url(#filter1_i_3952_110711)">
<path d="M38.4731 65.2477C38.4731 61.5976 41.4321 58.6387 45.0822 58.6387H54.1946C57.8446 58.6387 60.8036 61.5976 60.8036 65.2477V81.667H38.4731V65.2477Z" fill="#5C402A"/>
</g>
<g filter="url(#filter2_i_3952_110711)">
<path fill-rule="evenodd" clip-rule="evenodd" d="M62.5255 45.2678C62.5255 46.2706 62.1244 47.1797 61.4739 47.8434C62.1245 48.5071 62.5256 49.4162 62.5256 50.419C62.5256 52.4514 60.878 54.099 58.8456 54.099C57.0656 54.099 55.5807 52.8351 55.2395 51.1558H43.3184C42.9772 52.8352 41.4924 54.0991 39.7122 54.0991C37.6799 54.0991 36.0323 52.4516 36.0323 50.4192C36.0323 49.4164 36.4334 48.5074 37.0839 47.8436C36.4333 47.1799 36.0322 46.2708 36.0322 45.268C36.0322 43.2356 37.6798 41.5881 39.7122 41.5881C41.7445 41.5881 43.3921 43.2356 43.3921 45.2679H55.1656C55.1656 45.2679 55.1656 45.2679 55.1656 45.2678C55.1656 43.2355 56.8132 41.5879 58.8455 41.5879C60.8779 41.5879 62.5255 43.2355 62.5255 45.2678Z" fill="white"/>
</g>
<g filter="url(#filter3_i_3952_110711)">
<path d="M18.585 41.948L46.3673 19.7812C48.2884 18.2485 51.0122 18.2415 52.9411 19.7643L81.0405 41.948" stroke="#E79161" stroke-width="9.76958" stroke-linecap="round" stroke-linejoin="round"/>
</g>
<path fill-rule="evenodd" clip-rule="evenodd" d="M91.7916 74.627H65.6722L64.2506 82.8011C64.2037 82.9353 64.1797 83.0713 64.1797 83.209V83.209M91.7916 74.627L93.2132 82.8011L91.7916 74.627ZM93.2132 82.8011C93.2601 82.9353 93.2842 83.0713 93.2842 83.209L93.2132 82.8011Z" fill="url(#paint1_linear_3952_110711)"/>
<ellipse cx="78.7316" cy="74.6265" rx="13.0597" ry="2.23881" fill="#4DC9C9"/>
<g filter="url(#filter4_i_3952_110711)">
<ellipse cx="78.732" cy="74.6263" rx="10.8209" ry="1.49254" fill="#3B9696"/>
</g>
<g filter="url(#filter5_i_3952_110711)">
<ellipse cx="78.7315" cy="74.6263" rx="10.8209" ry="1.49254" fill="#3B9696"/>
</g>
<g filter="url(#filter6_i_3952_110711)">
<path fill-rule="evenodd" clip-rule="evenodd" d="M68.4255 73.8286L68.4995 73.6065C68.5978 73.3115 68.8335 73.0777 69.1398 73.0241C69.5673 72.9492 70.0614 72.9269 70.2267 73.1356C70.4335 73.3969 71.0763 72.9149 71.4837 72.5403C71.5867 72.4456 71.6415 72.3106 71.6415 72.1707C71.6415 71.8792 71.8777 71.6429 72.1692 71.6429H73.1341C73.341 71.6429 73.5511 71.6666 73.7581 71.6898C74.306 71.7514 74.8322 71.8105 75.2193 71.4234L75.3729 71.2698C75.4447 71.198 75.5166 71.1123 75.5911 71.0234C75.9036 70.6508 76.2629 70.2223 76.8654 70.5235C77.2684 70.725 78.1261 70.884 78.4865 70.6137L78.8173 70.3656C78.9988 70.2294 79.2319 70.1823 79.452 70.2373L80.0495 70.3867C80.4017 70.4748 80.7083 70.6909 80.9097 70.993C81.1804 71.3991 81.6361 71.6429 82.1241 71.6429L82.5565 71.6429C82.7418 71.6429 82.9261 71.6185 83.1076 71.5813C83.6271 71.4748 84.3281 71.3924 84.3281 71.6429C84.3281 71.7538 84.4311 71.9024 84.5796 72.0582C85.0834 72.5865 85.837 72.7623 86.5669 72.7623H87.1254C88.1751 72.7623 89.552 73.2052 89.552 74.255C89.552 74.4368 89.531 74.6154 89.4908 74.7878C88.9124 75.5369 84.3159 76.1204 78.7312 76.1204C73.1046 76.1204 68.481 75.5281 67.9593 74.7708C67.9213 74.6394 67.9027 74.5114 67.924 74.3979C67.9498 74.2607 68.0615 74.181 68.1748 74.1004C68.2791 74.026 68.3847 73.9508 68.4255 73.8286Z" fill="url(#paint2_linear_3952_110711)"/>
</g>
<defs>
<filter id="filter0_i_3952_110711" x="20.3291" y="21.1465" width="58.6177" height="63.3108" filterUnits="userSpaceOnUse" color-interpolation-filters="sRGB">
<feFlood flood-opacity="0" result="BackgroundImageFix"/>
<feBlend mode="normal" in="SourceGraphic" in2="BackgroundImageFix" result="shape"/>
<feColorMatrix in="SourceAlpha" type="matrix" values="0 0 0 0 0 0 0 0 0 0 0 0 0 0 0 0 0 0 127 0" result="hardAlpha"/>
<feOffset dy="5.58262"/>
<feGaussianBlur stdDeviation="1.39565"/>
<feComposite in2="hardAlpha" operator="arithmetic" k2="-1" k3="1"/>
<feColorMatrix type="matrix" values="0 0 0 0 0.0958496 0 0 0 0 0.0958496 0 0 0 0 0.0958496 0 0 0 0.04 0"/>
<feBlend mode="normal" in2="shape" result="effect1_innerShadow_3952_110711"/>
</filter>
<filter id="filter1_i_3952_110711" x="38.4731" y="58.6387" width="24.424" height="24.424" filterUnits="userSpaceOnUse" color-interpolation-filters="sRGB">
<feFlood flood-opacity="0" result="BackgroundImageFix"/>
<feBlend mode="normal" in="SourceGraphic" in2="BackgroundImageFix" result="shape"/>
<feColorMatrix in="SourceAlpha" type="matrix" values="0 0 0 0 0 0 0 0 0 0 0 0 0 0 0 0 0 0 127 0" result="hardAlpha"/>
<feOffset dx="2.09348" dy="1.39565"/>
<feGaussianBlur stdDeviation="1.39565"/>
<feComposite in2="hardAlpha" operator="arithmetic" k2="-1" k3="1"/>
<feColorMatrix type="matrix" values="0 0 0 0 0 0 0 0 0 0 0 0 0 0 0 0 0 0 0.25 0"/>
<feBlend mode="normal" in2="shape" result="effect1_innerShadow_3952_110711"/>
</filter>
<filter id="filter2_i_3952_110711" x="36.0322" y="40.1922" width="26.4932" height="13.9074" filterUnits="userSpaceOnUse" color-interpolation-filters="sRGB">
<feFlood flood-opacity="0" result="BackgroundImageFix"/>
<feBlend mode="normal" in="SourceGraphic" in2="BackgroundImageFix" result="shape"/>
<feColorMatrix in="SourceAlpha" type="matrix" values="0 0 0 0 0 0 0 0 0 0 0 0 0 0 0 0 0 0 127 0" result="hardAlpha"/>
<feOffset dy="-1.39565"/>
<feGaussianBlur stdDeviation="1.39565"/>
<feComposite in2="hardAlpha" operator="arithmetic" k2="-1" k3="1"/>
<feColorMatrix type="matrix" values="0 0 0 0 0 0 0 0 0 0 0 0 0 0 0 0 0 0 0.16 0"/>
<feBlend mode="normal" in2="shape" result="effect1_innerShadow_3952_110711"/>
</filter>
<filter id="filter3_i_3952_110711" x="13.7002" y="11.6487" width="72.9229" height="35.1843" filterUnits="userSpaceOnUse" color-interpolation-filters="sRGB">
<feFlood flood-opacity="0" result="BackgroundImageFix"/>
<feBlend mode="normal" in="SourceGraphic" in2="BackgroundImageFix" result="shape"/>
<feColorMatrix in="SourceAlpha" type="matrix" values="0 0 0 0 0 0 0 0 0 0 0 0 0 0 0 0 0 0 127 0" result="hardAlpha"/>
<feOffset dx="0.697827" dy="-2.09348"/>
<feGaussianBlur stdDeviation="1.39565"/>
<feComposite in2="hardAlpha" operator="arithmetic" k2="-1" k3="1"/>
<feColorMatrix type="matrix" values="0 0 0 0 0.871018 0 0 0 0 0.473522 0 0 0 0 0.248709 0 0 0 1 0"/>
<feBlend mode="normal" in2="shape" result="effect1_innerShadow_3952_110711"/>
</filter>
<filter id="filter4_i_3952_110711" x="67.9111" y="73.1338" width="21.6416" height="5.97043" filterUnits="userSpaceOnUse" color-interpolation-filters="sRGB">
<feFlood flood-opacity="0" result="BackgroundImageFix"/>
<feBlend mode="normal" in="SourceGraphic" in2="BackgroundImageFix" result="shape"/>
<feColorMatrix in="SourceAlpha" type="matrix" values="0 0 0 0 0 0 0 0 0 0 0 0 0 0 0 0 0 0 127 0" result="hardAlpha"/>
<feOffset dy="2.98507"/>
<feGaussianBlur stdDeviation="1.49254"/>
<feComposite in2="hardAlpha" operator="arithmetic" k2="-1" k3="1"/>
<feColorMatrix type="matrix" values="0 0 0 0 0 0 0 0 0 0 0 0 0 0 0 0 0 0 0.06 0"/>
<feBlend mode="normal" in2="shape" result="effect1_innerShadow_3952_110711"/>
</filter>
<filter id="filter5_i_3952_110711" x="67.9106" y="73.1338" width="21.6416" height="5.97043" filterUnits="userSpaceOnUse" color-interpolation-filters="sRGB">
<feFlood flood-opacity="0" result="BackgroundImageFix"/>
<feBlend mode="normal" in="SourceGraphic" in2="BackgroundImageFix" result="shape"/>
<feColorMatrix in="SourceAlpha" type="matrix" values="0 0 0 0 0 0 0 0 0 0 0 0 0 0 0 0 0 0 127 0" result="hardAlpha"/>
<feOffset dy="2.98507"/>
<feGaussianBlur stdDeviation="1.49254"/>
<feComposite in2="hardAlpha" operator="arithmetic" k2="-1" k3="1"/>
<feColorMatrix type="matrix" values="0 0 0 0 0 0 0 0 0 0 0 0 0 0 0 0 0 0 0.06 0"/>
<feBlend mode="normal" in2="shape" result="effect1_innerShadow_3952_110711"/>
</filter>
<filter id="filter6_i_3952_110711" x="67.915" y="67.2298" width="21.6367" height="8.89035" filterUnits="userSpaceOnUse" color-interpolation-filters="sRGB">
<feFlood flood-opacity="0" result="BackgroundImageFix"/>
<feBlend mode="normal" in="SourceGraphic" in2="BackgroundImageFix" result="shape"/>
<feColorMatrix in="SourceAlpha" type="matrix" values="0 0 0 0 0 0 0 0 0 0 0 0 0 0 0 0 0 0 127 0" result="hardAlpha"/>
<feOffset dy="-2.98507"/>
<feGaussianBlur stdDeviation="1.49254"/>
<feComposite in2="hardAlpha" operator="arithmetic" k2="-1" k3="1"/>
<feColorMatrix type="matrix" values="0 0 0 0 0 0 0 0 0 0 0 0 0 0 0 0 0 0 0.25 0"/>
<feBlend mode="normal" in2="shape" result="effect1_innerShadow_3952_110711"/>
</filter>
<linearGradient id="paint0_linear_3952_110711" x1="38.8215" y1="32.1668" x2="70.2237" y2="81.3636" gradientUnits="userSpaceOnUse">
<stop offset="0.330013" stop-color="#ECB87A"/>
<stop offset="0.722514" stop-color="#E3906E"/>
</linearGradient>
<linearGradient id="paint1_linear_3952_110711" x1="70.523" y1="76.6463" x2="90.9182" y2="78.839" gradientUnits="userSpaceOnUse">
<stop stop-color="#44B7B7"/>
<stop offset="1" stop-color="#3DACAC"/>
</linearGradient>
<linearGradient id="paint2_linear_3952_110711" x1="67.915" y1="73.1676" x2="89.552" y2="73.1676" gradientUnits="userSpaceOnUse">
<stop stop-color="#705036"/>
<stop offset="1" stop-color="#593D27"/>
</linearGradient>
</defs>
</svg>
