<svg width="120" height="120" viewBox="0 0 120 120" fill="none" xmlns="http://www.w3.org/2000/svg">
<g filter="url(#filter0_i_3952_110733)">
<rect x="19" y="20" width="67" height="76" rx="6.7904" fill="#3E6E5A"/>
</g>
<path d="M64.2867 15.6224C65.6194 13.1402 68.3463 11.7388 71.1403 12.1001L73.74 12.4364C77.1152 12.8729 79.6459 15.7405 79.6594 19.1437L79.9686 97.0962C79.9851 101.254 76.2946 104.45 72.1817 103.84L30.5557 97.6641C25.9039 96.9739 23.3451 91.8785 25.5696 87.7352L64.2867 15.6224Z" fill="#4AC792"/>
<path d="M19 25.5511C19 22.1901 21.4588 19.3347 24.7827 18.8359L69.2019 12.1702C73.3075 11.5541 77 14.7338 77 18.8854V97.1146C77 101.266 73.3075 104.446 69.2019 103.83L24.7827 97.1641C21.4588 96.6653 19 93.8099 19 90.4489V25.5511Z" fill="url(#paint0_linear_3952_110733)"/>
<path d="M68.8133 58.1408C68.8133 60.4956 67.0636 62.4046 64.9051 62.4046C62.7466 62.4046 60.7744 60.4956 60.7744 58.1408C60.7744 55.7859 62.7466 53.877 64.9051 53.877C67.0636 53.877 68.8133 55.7859 68.8133 58.1408Z" fill="#2E2E2E"/>
<ellipse cx="64.5936" cy="57.9017" rx="3.81915" ry="4.02475" fill="url(#paint1_linear_3952_110733)"/>
<ellipse cx="65.1178" cy="58" rx="2.33601" ry="2.28026" fill="#353535"/>
<g filter="url(#filter1_di_3952_110733)">
<path d="M63.2598 57.9996C63.2598 56.838 64.1575 55.8739 65.3161 55.7911L74.6063 55.1275C76.273 55.0085 77.6908 56.3286 77.6908 57.9996C77.6908 59.6706 76.273 60.9907 74.6063 60.8716L65.3161 60.208C64.1575 60.1253 63.2598 59.1612 63.2598 57.9996Z" fill="#434343"/>
</g>
<circle cx="94.2537" cy="90.2537" r="21.0448" fill="#E96868" stroke="#F1F6F9" stroke-width="3.58209"/>
<path d="M94.2502 82.667V88.182M99.5836 85.5003C100.631 86.5479 101.344 87.8821 101.634 89.3347C101.924 90.7873 101.777 92.2932 101.213 93.6626C100.648 95.0319 99.6901 96.2033 98.4604 97.0291C97.2307 97.8548 95.784 98.298 94.3028 98.3026C92.8216 98.3073 91.3721 97.8732 90.1373 97.0551C88.9024 96.2371 87.9374 95.0717 87.364 93.7059C86.7906 92.3402 86.6345 90.8352 86.9153 89.3808C87.1961 87.9265 87.9013 86.5878 88.9419 85.5337" stroke="#F1F6F9" stroke-width="2.5" stroke-linecap="round" stroke-linejoin="round"/>
<defs>
<filter id="filter0_i_3952_110733" x="16" y="20" width="70" height="80" filterUnits="userSpaceOnUse" color-interpolation-filters="sRGB">
<feFlood flood-opacity="0" result="BackgroundImageFix"/>
<feBlend mode="normal" in="SourceGraphic" in2="BackgroundImageFix" result="shape"/>
<feColorMatrix in="SourceAlpha" type="matrix" values="0 0 0 0 0 0 0 0 0 0 0 0 0 0 0 0 0 0 127 0" result="hardAlpha"/>
<feOffset dx="-3" dy="4"/>
<feGaussianBlur stdDeviation="2"/>
<feComposite in2="hardAlpha" operator="arithmetic" k2="-1" k3="1"/>
<feColorMatrix type="matrix" values="0 0 0 0 0 0 0 0 0 0 0 0 0 0 0 0 0 0 0.15 0"/>
<feBlend mode="normal" in2="shape" result="effect1_innerShadow_3952_110733"/>
</filter>
<filter id="filter1_di_3952_110733" x="60.2598" y="54.1201" width="20.4312" height="11.7588" filterUnits="userSpaceOnUse" color-interpolation-filters="sRGB">
<feFlood flood-opacity="0" result="BackgroundImageFix"/>
<feColorMatrix in="SourceAlpha" type="matrix" values="0 0 0 0 0 0 0 0 0 0 0 0 0 0 0 0 0 0 127 0" result="hardAlpha"/>
<feOffset dy="2"/>
<feGaussianBlur stdDeviation="1.5"/>
<feComposite in2="hardAlpha" operator="out"/>
<feColorMatrix type="matrix" values="0 0 0 0 0 0 0 0 0 0 0 0 0 0 0 0 0 0 0.25 0"/>
<feBlend mode="normal" in2="BackgroundImageFix" result="effect1_dropShadow_3952_110733"/>
<feBlend mode="normal" in="SourceGraphic" in2="effect1_dropShadow_3952_110733" result="shape"/>
<feColorMatrix in="SourceAlpha" type="matrix" values="0 0 0 0 0 0 0 0 0 0 0 0 0 0 0 0 0 0 127 0" result="hardAlpha"/>
<feOffset dy="-1"/>
<feGaussianBlur stdDeviation="1.5"/>
<feComposite in2="hardAlpha" operator="arithmetic" k2="-1" k3="1"/>
<feColorMatrix type="matrix" values="0 0 0 0 0 0 0 0 0 0 0 0 0 0 0 0 0 0 0.25 0"/>
<feBlend mode="normal" in2="shape" result="effect2_innerShadow_3952_110733"/>
</filter>
<linearGradient id="paint0_linear_3952_110733" x1="35.8945" y1="30.5454" x2="46.3696" y2="91.1507" gradientUnits="userSpaceOnUse">
<stop offset="0.565984" stop-color="#61C69B"/>
<stop offset="1" stop-color="#4AC0A3"/>
</linearGradient>
<linearGradient id="paint1_linear_3952_110733" x1="63.6388" y1="53.877" x2="66.7721" y2="61.31" gradientUnits="userSpaceOnUse">
<stop stop-color="#434343"/>
<stop offset="1" stop-color="#373737"/>
</linearGradient>
</defs>
</svg>
