<svg width="120" height="120" viewBox="0 0 120 120" fill="none" xmlns="http://www.w3.org/2000/svg">
<path d="M23.2842 51.9706C23.2842 49.8058 24.3164 47.7707 26.0631 46.4918L56.1955 24.4293C58.5839 22.6806 61.83 22.6806 64.2185 24.4293L94.3508 46.4918C96.0975 47.7707 97.1297 49.8058 97.1297 51.9706V91.0089C97.1297 93.0574 96.2653 95.0221 94.7265 96.4706C93.1878 97.9192 91.1008 98.7329 88.9247 98.7329H31.4892C29.3131 98.7329 27.2261 97.9192 25.6874 96.4706C24.1486 95.0221 23.2842 93.0574 23.2842 91.0089V51.9706Z" fill="url(#paint0_linear_3952_121207)"/>
<path fill-rule="evenodd" clip-rule="evenodd" d="M63.224 72.1982C66.2706 71.1599 68.4619 68.2737 68.4619 64.8757C68.4619 60.6043 64.9992 57.1416 60.7278 57.1416C56.4563 57.1416 52.9937 60.6043 52.9937 64.8757C52.9937 68.3995 55.3502 71.3728 58.5732 72.3058L57.2593 80.1892C57.0498 81.4463 58.0193 82.5907 59.2937 82.5907H62.5214C63.7959 82.5907 64.7653 81.4463 64.5558 80.1892L63.224 72.1982Z" fill="#434343"/>
<path d="M96.7095 105.617L96.7167 105.614L96.7239 105.612C100.379 104.37 103.921 102.624 106.564 99.9798C109.259 97.2846 110.942 93.7298 110.942 89.1048V77.5207C110.942 76.5918 110.563 75.7105 109.904 75.068C109.247 74.427 108.364 74.0747 107.454 74.0747C104.622 74.0747 100.792 72.3618 98.0225 70.0014L98.0147 69.9948L98.0069 69.9883C97.3217 69.4176 96.4575 69.1093 95.5705 69.1093C94.6836 69.1093 93.8193 69.4176 93.1341 69.9883L93.1266 69.9945L93.1191 70.0009C90.3649 72.3464 86.5179 74.0747 83.6873 74.0747C82.7766 74.0747 81.8943 74.427 81.2367 75.068C80.5776 75.7105 80.1987 76.5918 80.1987 77.5207V89.1048C80.1987 93.7297 81.8819 97.2851 84.58 99.9789C87.2224 102.617 90.7632 104.358 94.4221 105.591C95.16 105.853 95.9658 105.862 96.7095 105.617Z" fill="#53B3B3" stroke="#F1F6F9" stroke-width="3.58209"/>
<rect x="89.6299" y="86.1787" width="11.8832" height="2.5464" rx="1.2732" fill="white"/>
<rect x="96.8428" y="81.5098" width="11.8832" height="2.5464" rx="1.2732" transform="rotate(90 96.8428 81.5098)" fill="white"/>
<defs>
<linearGradient id="paint0_linear_3952_121207" x1="44.7942" y1="32.4256" x2="83.3017" y2="92.4256" gradientUnits="userSpaceOnUse">
<stop offset="0.565984" stop-color="#7CCBAF"/>
<stop offset="1" stop-color="#42B78D"/>
</linearGradient>
</defs>
</svg>
