<svg width="100" height="100" viewBox="0 0 100 100" fill="none" xmlns="http://www.w3.org/2000/svg">
<path d="M22.0557 75.9629V24.284C22.0557 21.9997 22.9631 19.8089 24.5784 18.1936C26.1937 16.5784 28.3845 15.6709 30.6688 15.6709H71.1511C74.4807 15.6709 77.1798 18.37 77.1798 21.6995V78.5474C77.1798 81.8769 74.4807 84.576 71.1511 84.576H30.6688C28.3845 84.576 26.1937 83.6686 24.5784 82.0533C22.9631 80.438 22.0557 78.2472 22.0557 75.9629C22.0557 73.6785 22.9631 71.4877 24.5784 69.8725C26.1937 68.2572 28.3845 67.3497 30.6688 67.3497H77.1798" fill="url(#paint0_linear_3952_110724)"/>
<path fill-rule="evenodd" clip-rule="evenodd" d="M28.1545 16.0469C26.8171 16.4553 25.5867 17.1872 24.5799 18.194C22.9646 19.8093 22.0571 22.0001 22.0571 24.2844V75.9633C22.0571 78.2476 22.9646 80.4384 24.5799 82.0537C26.1951 83.669 28.3859 84.5764 30.6703 84.5764H71.1526C74.4821 84.5764 77.1812 81.8773 77.1812 78.5478V67.6153H75.4844H28.5496H28.1545V16.0469Z" fill="url(#paint1_linear_3952_110724)"/>
<g filter="url(#filter0_i_3952_110724)">
<rect x="24.9746" y="70.7949" width="53.269" height="11.1308" rx="5.56541" fill="#F6F6F6"/>
</g>
<rect x="35.604" y="26.2988" width="28.0292" height="4.20438" rx="2.10219" fill="white"/>
<rect x="35.604" y="33.3057" width="17.5183" height="4.20438" rx="2.10219" fill="white"/>
<circle cx="73.5072" cy="74.2538" r="17.5373" fill="#55B18F" stroke="#F1F6F9" stroke-width="2.98507"/>
<path d="M72.9556 80.7212C71.5698 80.7257 70.2331 80.1827 69.2105 79.2C68.1879 78.2174 67.5542 76.8668 67.435 75.4162C67.3158 73.9656 67.7199 72.5209 68.567 71.3686C69.4142 70.2164 70.6426 69.4408 72.0086 69.1956C74.8226 68.625 76.3395 68.2426 77.4673 67.5328C78.4415 66.9197 79.8762 67.0242 80.2264 68.1207C80.5919 69.2654 80.8474 70.6273 80.8474 72.4294C80.8474 76.9899 77.0751 80.7212 72.9556 80.7212Z" fill="white"/>
<path d="M65.9219 82.2137C65.9219 79.7261 67.428 77.7692 70.0576 77.2385C72.0277 76.8405 74.063 75.5802 74.8771 74.751" stroke="#55B18F" stroke-width="1.49254" stroke-linecap="round" stroke-linejoin="round"/>
<path d="M65.1758 81.4676C65.1758 78.98 66.6819 77.0231 69.3115 76.4924C71.2816 76.0944 73.3169 74.8341 74.131 74.0049" stroke="white" stroke-width="1.49254" stroke-linecap="round" stroke-linejoin="round"/>
<defs>
<filter id="filter0_i_3952_110724" x="24.9746" y="70.7949" width="53.269" height="12.721" filterUnits="userSpaceOnUse" color-interpolation-filters="sRGB">
<feFlood flood-opacity="0" result="BackgroundImageFix"/>
<feBlend mode="normal" in="SourceGraphic" in2="BackgroundImageFix" result="shape"/>
<feColorMatrix in="SourceAlpha" type="matrix" values="0 0 0 0 0 0 0 0 0 0 0 0 0 0 0 0 0 0 127 0" result="hardAlpha"/>
<feOffset dy="1.59012"/>
<feGaussianBlur stdDeviation="0.795059"/>
<feComposite in2="hardAlpha" operator="arithmetic" k2="-1" k3="1"/>
<feColorMatrix type="matrix" values="0 0 0 0 0 0 0 0 0 0 0 0 0 0 0 0 0 0 0.09 0"/>
<feBlend mode="normal" in2="shape" result="effect1_innerShadow_3952_110724"/>
</filter>
<linearGradient id="paint0_linear_3952_110724" x1="38.1124" y1="25.4244" x2="74.6064" y2="73.0061" gradientUnits="userSpaceOnUse">
<stop offset="0.565984" stop-color="#47B0EB"/>
<stop offset="1" stop-color="#4797C5"/>
</linearGradient>
<linearGradient id="paint1_linear_3952_110724" x1="49.6183" y1="15.7875" x2="49.6192" y2="84.5765" gradientUnits="userSpaceOnUse">
<stop offset="0.754091" stop-color="#43A4DA"/>
<stop offset="1" stop-color="#3D99CB"/>
</linearGradient>
</defs>
</svg>
