<svg width="100" height="109" viewBox="0 0 100 109" fill="none" xmlns="http://www.w3.org/2000/svg">
<g opacity="0.1" filter="url(#filter0_f_3952_110685)">
<path d="M18.188 76.4766H80.2964L89.1142 91.812H9.37012L18.188 76.4766Z" fill="black"/>
</g>
<path d="M18.1997 39.6946C18.1997 36.5954 20.7121 34.083 23.8113 34.083H76.186C79.2852 34.083 81.7976 36.5954 81.7976 39.6946V69.623C81.7976 72.7222 79.2852 75.2346 76.186 75.2346H23.8113C20.7121 75.2346 18.1997 72.7222 18.1997 69.623V39.6946Z" fill="url(#paint0_linear_3952_110685)"/>
<path d="M18.1997 34.083H81.7976H18.1997ZM81.7976 69.623C81.7976 72.9339 79.1136 75.618 75.8026 75.618H24.1947C20.8837 75.618 18.1997 72.9339 18.1997 69.623V69.623C18.1997 72.5105 20.7121 74.8512 23.8113 74.8512H76.186C79.2852 74.8512 81.7976 72.5105 81.7976 69.623V69.623ZM18.1997 75.2346V34.083V75.2346ZM81.7976 34.083V75.2346V34.083Z" fill="#E7AB75"/>
<g filter="url(#filter1_i_3952_110685)">
<rect x="19.1353" y="63.0762" width="4.67631" height="26.1874" rx="2.30031" fill="url(#paint1_linear_3952_110685)"/>
</g>
<rect x="75.251" y="63.0762" width="4.67631" height="26.1874" rx="2.30031" fill="url(#paint2_linear_3952_110685)"/>
<rect x="12.5889" y="68.6875" width="73.8858" height="13.0937" rx="5.61158" fill="url(#paint3_linear_3952_110685)"/>
<g filter="url(#filter2_d_3952_110685)">
<path d="M24.7466 64.9464C24.7466 63.3968 26.0028 62.1406 27.5524 62.1406H71.5097C73.0593 62.1406 74.3155 63.3968 74.3155 64.9464V70.558C74.3155 72.1076 73.0593 73.3638 71.5097 73.3638H27.5524C26.0028 73.3638 24.7466 72.1076 24.7466 70.558V64.9464Z" fill="url(#paint4_linear_3952_110685)"/>
<path d="M24.7466 62.1406H74.3155H24.7466ZM74.3155 70.558C74.3155 72.3193 72.8877 73.7472 71.1263 73.7472H27.9358C26.1744 73.7472 24.7466 72.3193 24.7466 70.558C24.7466 71.8958 26.0028 72.9804 27.5524 72.9804H71.5097C73.0593 72.9804 74.3155 71.8958 74.3155 70.558ZM24.7466 73.3638V62.1406V73.3638ZM74.3155 62.1406V73.3638V62.1406Z" fill="#E7AB75"/>
</g>
<rect x="12.5889" y="49.0469" width="12.1584" height="32.7342" rx="5.61158" fill="url(#paint5_linear_3952_110685)"/>
<rect width="12.1584" height="32.7342" rx="5.61158" transform="matrix(-1 0 0 1 86.4741 49.0469)" fill="url(#paint6_linear_3952_110685)"/>
<g filter="url(#filter3_i_3952_110685)">
<path d="M33.6338 41.5664V46.2427" stroke="#955D32" stroke-width="1.87053" stroke-linecap="round"/>
<path d="M35.9722 43.9043L31.2959 43.9043" stroke="#955D32" stroke-width="1.87053" stroke-linecap="round"/>
<path d="M33.6338 52.7891V57.4654" stroke="#955D32" stroke-width="1.87053" stroke-linecap="round"/>
<path d="M35.9722 55.127L31.2959 55.127" stroke="#955D32" stroke-width="1.87053" stroke-linecap="round"/>
</g>
<g filter="url(#filter4_i_3952_110685)">
<path d="M49.5327 41.5664V46.2427" stroke="#955D32" stroke-width="1.87053" stroke-linecap="round"/>
<path d="M51.8706 43.9043L47.1943 43.9043" stroke="#955D32" stroke-width="1.87053" stroke-linecap="round"/>
<path d="M49.5327 52.7891V57.4654" stroke="#955D32" stroke-width="1.87053" stroke-linecap="round"/>
<path d="M51.8706 55.127L47.1943 55.127" stroke="#955D32" stroke-width="1.87053" stroke-linecap="round"/>
</g>
<g filter="url(#filter5_i_3952_110685)">
<path d="M65.4312 41.5664V46.2427" stroke="#955D32" stroke-width="1.87053" stroke-linecap="round"/>
<path d="M67.7695 43.9043L63.0932 43.9043" stroke="#955D32" stroke-width="1.87053" stroke-linecap="round"/>
<path d="M65.4312 52.7891V57.4654" stroke="#955D32" stroke-width="1.87053" stroke-linecap="round"/>
<path d="M67.7695 55.127L63.0932 55.127" stroke="#955D32" stroke-width="1.87053" stroke-linecap="round"/>
</g>
<path d="M24.02 17.824C24.02 13.9444 20.875 10.7993 16.9953 10.7993C13.1157 10.7993 9.9707 13.9444 9.9707 17.824C9.9707 21.7036 13.1157 24.8486 16.9953 24.8486C20.875 24.8486 24.02 21.7036 24.02 17.824Z" fill="#EAB361"/>
<path d="M5.29639 17.8252L6.46716 17.8252" stroke="#EAB361" stroke-width="1.67253" stroke-linecap="round" stroke-linejoin="round"/>
<path d="M27.5391 17.8252L28.7098 17.8252" stroke="#EAB361" stroke-width="1.67253" stroke-linecap="round" stroke-linejoin="round"/>
<path d="M16.9956 29.5293L16.9956 28.3585" stroke="#EAB361" stroke-width="1.67253" stroke-linecap="round" stroke-linejoin="round"/>
<path d="M16.9956 7.28809L16.9956 6.11731" stroke="#EAB361" stroke-width="1.67253" stroke-linecap="round" stroke-linejoin="round"/>
<path d="M8.72412 9.53613L9.55198 10.364" stroke="#EAB361" stroke-width="1.67253" stroke-linecap="round" stroke-linejoin="round"/>
<path d="M24.4531 25.2754L25.281 26.1033" stroke="#EAB361" stroke-width="1.67253" stroke-linecap="round" stroke-linejoin="round"/>
<path d="M8.72412 26.0986L9.55198 25.2708" stroke="#EAB361" stroke-width="1.67253" stroke-linecap="round" stroke-linejoin="round"/>
<path d="M24.4531 10.376L25.281 9.54811" stroke="#EAB361" stroke-width="1.67253" stroke-linecap="round" stroke-linejoin="round"/>
<path opacity="0.4" fill-rule="evenodd" clip-rule="evenodd" d="M17.001 10.7945L17.001 24.8438C20.8781 24.8408 24.0202 21.6969 24.0202 17.8191C24.0202 13.9413 20.8781 10.7974 17.001 10.7945Z" fill="white"/>
<defs>
<filter id="filter0_f_3952_110685" x="4.00273" y="71.1092" width="90.4789" height="26.0697" filterUnits="userSpaceOnUse" color-interpolation-filters="sRGB">
<feFlood flood-opacity="0" result="BackgroundImageFix"/>
<feBlend mode="normal" in="SourceGraphic" in2="BackgroundImageFix" result="shape"/>
<feGaussianBlur stdDeviation="2.6837" result="effect1_foregroundBlur_3952_110685"/>
</filter>
<filter id="filter1_i_3952_110685" x="18.3685" y="63.0762" width="5.44304" height="26.1875" filterUnits="userSpaceOnUse" color-interpolation-filters="sRGB">
<feFlood flood-opacity="0" result="BackgroundImageFix"/>
<feBlend mode="normal" in="SourceGraphic" in2="BackgroundImageFix" result="shape"/>
<feColorMatrix in="SourceAlpha" type="matrix" values="0 0 0 0 0 0 0 0 0 0 0 0 0 0 0 0 0 0 127 0" result="hardAlpha"/>
<feOffset dx="-0.76677"/>
<feGaussianBlur stdDeviation="1.53354"/>
<feComposite in2="hardAlpha" operator="arithmetic" k2="-1" k3="1"/>
<feColorMatrix type="matrix" values="0 0 0 0 0.433919 0 0 0 0 0.371331 0 0 0 0 0.246156 0 0 0 0.8 0"/>
<feBlend mode="normal" in2="shape" result="effect1_innerShadow_3952_110685"/>
</filter>
<filter id="filter2_d_3952_110685" x="18.1997" y="57.4643" width="62.6625" height="24.7001" filterUnits="userSpaceOnUse" color-interpolation-filters="sRGB">
<feFlood flood-opacity="0" result="BackgroundImageFix"/>
<feColorMatrix in="SourceAlpha" type="matrix" values="0 0 0 0 0 0 0 0 0 0 0 0 0 0 0 0 0 0 127 0" result="hardAlpha"/>
<feOffset dy="1.87053"/>
<feGaussianBlur stdDeviation="3.27342"/>
<feComposite in2="hardAlpha" operator="out"/>
<feColorMatrix type="matrix" values="0 0 0 0 0.889258 0 0 0 0 0.516864 0 0 0 0 0.172844 0 0 0 1 0"/>
<feBlend mode="normal" in2="BackgroundImageFix" result="effect1_dropShadow_3952_110685"/>
<feBlend mode="normal" in="SourceGraphic" in2="effect1_dropShadow_3952_110685" result="shape"/>
</filter>
<filter id="filter3_i_3952_110685" x="30.3604" y="40.6309" width="6.54688" height="18.7048" filterUnits="userSpaceOnUse" color-interpolation-filters="sRGB">
<feFlood flood-opacity="0" result="BackgroundImageFix"/>
<feBlend mode="normal" in="SourceGraphic" in2="BackgroundImageFix" result="shape"/>
<feColorMatrix in="SourceAlpha" type="matrix" values="0 0 0 0 0 0 0 0 0 0 0 0 0 0 0 0 0 0 127 0" result="hardAlpha"/>
<feOffset dy="0.935263"/>
<feGaussianBlur stdDeviation="0.467632"/>
<feComposite in2="hardAlpha" operator="arithmetic" k2="-1" k3="1"/>
<feColorMatrix type="matrix" values="0 0 0 0 0 0 0 0 0 0 0 0 0 0 0 0 0 0 0.1 0"/>
<feBlend mode="normal" in2="shape" result="effect1_innerShadow_3952_110685"/>
</filter>
<filter id="filter4_i_3952_110685" x="46.2588" y="40.6309" width="6.54688" height="18.7048" filterUnits="userSpaceOnUse" color-interpolation-filters="sRGB">
<feFlood flood-opacity="0" result="BackgroundImageFix"/>
<feBlend mode="normal" in="SourceGraphic" in2="BackgroundImageFix" result="shape"/>
<feColorMatrix in="SourceAlpha" type="matrix" values="0 0 0 0 0 0 0 0 0 0 0 0 0 0 0 0 0 0 127 0" result="hardAlpha"/>
<feOffset dy="0.935263"/>
<feGaussianBlur stdDeviation="0.467632"/>
<feComposite in2="hardAlpha" operator="arithmetic" k2="-1" k3="1"/>
<feColorMatrix type="matrix" values="0 0 0 0 0 0 0 0 0 0 0 0 0 0 0 0 0 0 0.1 0"/>
<feBlend mode="normal" in2="shape" result="effect1_innerShadow_3952_110685"/>
</filter>
<filter id="filter5_i_3952_110685" x="62.1577" y="40.6309" width="6.54688" height="18.7048" filterUnits="userSpaceOnUse" color-interpolation-filters="sRGB">
<feFlood flood-opacity="0" result="BackgroundImageFix"/>
<feBlend mode="normal" in="SourceGraphic" in2="BackgroundImageFix" result="shape"/>
<feColorMatrix in="SourceAlpha" type="matrix" values="0 0 0 0 0 0 0 0 0 0 0 0 0 0 0 0 0 0 127 0" result="hardAlpha"/>
<feOffset dy="0.935263"/>
<feGaussianBlur stdDeviation="0.467632"/>
<feComposite in2="hardAlpha" operator="arithmetic" k2="-1" k3="1"/>
<feColorMatrix type="matrix" values="0 0 0 0 0 0 0 0 0 0 0 0 0 0 0 0 0 0 0.1 0"/>
<feBlend mode="normal" in2="shape" result="effect1_innerShadow_3952_110685"/>
</filter>
<linearGradient id="paint0_linear_3952_110685" x1="38.7755" y1="41.1089" x2="58.3572" y2="55.2095" gradientUnits="userSpaceOnUse">
<stop stop-color="#FFBF73"/>
<stop offset="0.785" stop-color="#EEA765"/>
</linearGradient>
<linearGradient id="paint1_linear_3952_110685" x1="21.4734" y1="63.0762" x2="21.4734" y2="89.2635" gradientUnits="userSpaceOnUse">
<stop stop-color="#201B11"/>
<stop offset="1" stop-color="#867149"/>
</linearGradient>
<linearGradient id="paint2_linear_3952_110685" x1="77.5891" y1="63.0762" x2="77.5891" y2="89.2635" gradientUnits="userSpaceOnUse">
<stop stop-color="#201B11"/>
<stop offset="1" stop-color="#867149"/>
</linearGradient>
<linearGradient id="paint3_linear_3952_110685" x1="49.9994" y1="69.5059" x2="49.1209" y2="81.2977" gradientUnits="userSpaceOnUse">
<stop stop-color="#EC9D53"/>
<stop offset="1" stop-color="#E58A37"/>
</linearGradient>
<linearGradient id="paint4_linear_3952_110685" x1="49.9123" y1="62.6083" x2="49.9492" y2="72.5571" gradientUnits="userSpaceOnUse">
<stop stop-color="#F7DCC2"/>
<stop offset="1" stop-color="#EEBC8F"/>
</linearGradient>
<linearGradient id="paint5_linear_3952_110685" x1="15.8623" y1="51.385" x2="25.9742" y2="53.612" gradientUnits="userSpaceOnUse">
<stop stop-color="#FBBC81"/>
<stop offset="0.947036" stop-color="#E58A37"/>
</linearGradient>
<linearGradient id="paint6_linear_3952_110685" x1="3.27342" y1="2.33815" x2="13.3853" y2="4.56513" gradientUnits="userSpaceOnUse">
<stop stop-color="#FBBC81"/>
<stop offset="0.947036" stop-color="#E58A37"/>
</linearGradient>
</defs>
</svg>
