<svg width="120" height="120" viewBox="0 0 120 120" fill="none" xmlns="http://www.w3.org/2000/svg">
<g opacity="0.1" filter="url(#filter0_f_2318_107986)">
<path d="M26.7334 89.2373H93.1408L102.569 105.634H17.3052L26.7334 89.2373Z" fill="black"/>
</g>
<rect x="25.5049" y="38.4062" width="70.5066" height="23.7755" rx="1.63969" fill="url(#paint0_linear_2318_107986)"/>
<rect x="32.8823" y="38.4062" width="1.63969" height="23.7755" rx="0.819844" fill="#F1F1E7"/>
<rect x="41.9004" y="38.4062" width="1.63969" height="23.7755" rx="0.819844" fill="#F1F1E7"/>
<rect x="50.9189" y="38.4062" width="1.63969" height="23.7755" rx="0.819844" fill="#F1F1E7"/>
<rect x="59.937" y="38.4062" width="1.63969" height="23.7755" rx="0.819844" fill="#F1F1E7"/>
<rect x="68.9556" y="38.4062" width="1.63969" height="23.7755" rx="0.819844" fill="#F1F1E7"/>
<rect x="77.9736" y="38.4062" width="1.63969" height="23.7755" rx="0.819844" fill="#F1F1E7"/>
<rect x="86.9922" y="38.4062" width="1.63969" height="23.7755" rx="0.819844" fill="#F1F1E7"/>
<g filter="url(#filter1_i_2318_107986)">
<rect x="17.3052" y="76.1191" width="5.73891" height="29.5144" rx="2.45953" fill="url(#paint1_linear_2318_107986)"/>
</g>
<rect x="97.6504" y="76.1191" width="5.73891" height="29.5144" rx="2.45953" fill="url(#paint2_linear_2318_107986)"/>
<rect x="23.8643" y="35.9473" width="73.786" height="4.91907" rx="1.63969" fill="#7F6C47"/>
<path d="M23.8643 39.2266H97.6503C97.6503 40.1321 96.9161 40.8663 96.0106 40.8663H25.5039C24.5984 40.8663 23.8643 40.1321 23.8643 39.2266Z" fill="#73613F"/>
<rect x="16.4868" y="59.7217" width="87.7234" height="35.2533" rx="4.09922" fill="url(#paint3_linear_2318_107986)"/>
<path d="M16.4868 63.8209C16.4868 61.557 18.3221 59.7217 20.586 59.7217H100.111C102.375 59.7217 104.21 61.557 104.21 63.8209V71.1995H16.4868V63.8209Z" fill="url(#paint4_linear_2318_107986)"/>
<path d="M16.4868 59.7217H104.21H16.4868ZM104.21 71.6094H16.4868V70.7896H104.21V71.6094ZM16.4868 71.1995V59.7217V71.1995ZM104.21 59.7217V71.1995V59.7217Z" fill="#FCAA60"/>
<path d="M30.7485 58.2671C30.7485 55.5642 32.9397 53.373 35.6426 53.373H54.9515C57.6544 53.373 59.8456 55.5642 59.8456 58.2671C59.8456 59.0795 59.187 59.738 58.3747 59.738H32.2194C31.4071 59.738 30.7485 59.0795 30.7485 58.2671Z" fill="url(#paint5_linear_2318_107986)"/>
<path d="M61.5776 58.2661C61.5776 55.5632 63.7688 53.3721 66.4717 53.3721H85.7806C88.4835 53.3721 90.6747 55.5632 90.6747 58.2661C90.6747 59.0785 90.0161 59.737 89.2038 59.737H63.0485C62.2362 59.737 61.5776 59.0785 61.5776 58.2661Z" fill="url(#paint6_linear_2318_107986)"/>
<path d="M27.511 19.7491C27.511 15.0936 23.737 11.3196 19.0814 11.3196C14.4259 11.3196 10.6519 15.0936 10.6519 19.7491C10.6519 24.4047 14.4259 28.1787 19.0814 28.1787C23.737 28.1787 27.511 24.4047 27.511 19.7491Z" fill="#EE9B1E"/>
<path d="M5.04443 19.751L6.44936 19.751" stroke="#EE9B1E" stroke-width="2.00704" stroke-linecap="round" stroke-linejoin="round"/>
<path d="M31.7349 19.751L33.1398 19.751" stroke="#EE9B1E" stroke-width="2.00704" stroke-linecap="round" stroke-linejoin="round"/>
<path d="M19.0825 33.7959L19.0825 32.391" stroke="#EE9B1E" stroke-width="2.00704" stroke-linecap="round" stroke-linejoin="round"/>
<path d="M19.0825 7.10547L19.0825 5.70054" stroke="#EE9B1E" stroke-width="2.00704" stroke-linecap="round" stroke-linejoin="round"/>
<path d="M9.1582 9.80566L10.1516 10.7991" stroke="#EE9B1E" stroke-width="2.00704" stroke-linecap="round" stroke-linejoin="round"/>
<path d="M28.0308 28.6904L29.0242 29.6839" stroke="#EE9B1E" stroke-width="2.00704" stroke-linecap="round" stroke-linejoin="round"/>
<path d="M9.1582 29.6797L10.1516 28.6863" stroke="#EE9B1E" stroke-width="2.00704" stroke-linecap="round" stroke-linejoin="round"/>
<path d="M28.0308 10.8115L29.0242 9.81809" stroke="#EE9B1E" stroke-width="2.00704" stroke-linecap="round" stroke-linejoin="round"/>
<path opacity="0.4" fill-rule="evenodd" clip-rule="evenodd" d="M19.0913 11.3147L19.0913 28.1738C23.744 28.1705 27.5148 24.3978 27.5148 19.7443C27.5148 15.0908 23.744 11.318 19.0913 11.3147Z" fill="white"/>
<defs>
<filter id="filter0_f_2318_107986" x="11.5663" y="83.4984" width="96.7415" height="27.8743" filterUnits="userSpaceOnUse" color-interpolation-filters="sRGB">
<feFlood flood-opacity="0" result="BackgroundImageFix"/>
<feBlend mode="normal" in="SourceGraphic" in2="BackgroundImageFix" result="shape"/>
<feGaussianBlur stdDeviation="2.86946" result="effect1_foregroundBlur_2318_107986"/>
</filter>
<filter id="filter1_i_2318_107986" x="16.4853" y="76.1191" width="6.55861" height="29.5146" filterUnits="userSpaceOnUse" color-interpolation-filters="sRGB">
<feFlood flood-opacity="0" result="BackgroundImageFix"/>
<feBlend mode="normal" in="SourceGraphic" in2="BackgroundImageFix" result="shape"/>
<feColorMatrix in="SourceAlpha" type="matrix" values="0 0 0 0 0 0 0 0 0 0 0 0 0 0 0 0 0 0 127 0" result="hardAlpha"/>
<feOffset dx="-0.819844"/>
<feGaussianBlur stdDeviation="1.63969"/>
<feComposite in2="hardAlpha" operator="arithmetic" k2="-1" k3="1"/>
<feColorMatrix type="matrix" values="0 0 0 0 0.433919 0 0 0 0 0.371331 0 0 0 0 0.246156 0 0 0 0.8 0"/>
<feBlend mode="normal" in2="shape" result="effect1_innerShadow_2318_107986"/>
</filter>
<linearGradient id="paint0_linear_2318_107986" x1="60.7582" y1="41.6856" x2="60.7582" y2="62.1817" gradientUnits="userSpaceOnUse">
<stop stop-color="#857148"/>
<stop offset="0.3" stop-color="#9E875B"/>
</linearGradient>
<linearGradient id="paint1_linear_2318_107986" x1="20.1746" y1="76.1191" x2="20.1746" y2="105.634" gradientUnits="userSpaceOnUse">
<stop stop-color="#201B11"/>
<stop offset="1" stop-color="#867149"/>
</linearGradient>
<linearGradient id="paint2_linear_2318_107986" x1="100.52" y1="76.1191" x2="100.52" y2="105.634" gradientUnits="userSpaceOnUse">
<stop stop-color="#201B11"/>
<stop offset="1" stop-color="#867149"/>
</linearGradient>
<linearGradient id="paint3_linear_2318_107986" x1="38.5076" y1="78.3576" x2="74.6958" y2="92.5155" gradientUnits="userSpaceOnUse">
<stop stop-color="#F89C48"/>
<stop offset="1" stop-color="#FC8F2C"/>
</linearGradient>
<linearGradient id="paint4_linear_2318_107986" x1="16.4868" y1="65.4606" x2="101.751" y2="75.7086" gradientUnits="userSpaceOnUse">
<stop stop-color="#FFBF83"/>
<stop offset="1" stop-color="#FBB675"/>
</linearGradient>
<linearGradient id="paint5_linear_2318_107986" x1="35.7509" y1="53.9843" x2="35.7509" y2="60.1332" gradientUnits="userSpaceOnUse">
<stop offset="0.65" stop-color="#F7EDD2"/>
<stop offset="1.0001" stop-color="#E2D8BD"/>
</linearGradient>
<linearGradient id="paint6_linear_2318_107986" x1="66.58" y1="53.9834" x2="66.58" y2="60.1322" gradientUnits="userSpaceOnUse">
<stop offset="0.65" stop-color="#F7EDD2"/>
<stop offset="1.0001" stop-color="#E2D8BD"/>
</linearGradient>
</defs>
</svg>
