<svg width="100" height="100" viewBox="0 0 100 100" fill="none" xmlns="http://www.w3.org/2000/svg">
<path d="M19.4033 42.9042C19.4033 41.3545 20.1422 39.8977 21.3926 38.9822L47.3007 20.0127C49.0104 18.7609 51.3342 18.7609 53.0439 20.0127L78.952 38.9822C80.2024 39.8977 80.9413 41.3545 80.9413 42.9042V75.8407C80.9413 77.5478 80.2209 79.1851 78.9386 80.3922C77.6563 81.5993 75.9172 82.2775 74.1037 82.2775H26.2409C24.4274 82.2775 22.6883 81.5993 21.406 80.3922C20.1237 79.1851 19.4033 77.5478 19.4033 75.8407V42.9042Z" fill="url(#paint0_linear_3952_110667)"/>
<g opacity="0.6" filter="url(#filter0_i_3952_110667)">
<path d="M10.3435 23.3128C10.7082 22.636 11.679 22.636 12.0437 23.3128C12.2611 23.7161 12.732 23.9112 13.1709 23.7797C13.9073 23.5591 14.5938 24.2455 14.3731 24.9819C14.2416 25.4208 14.4367 25.8918 14.8401 26.1091C15.5168 26.4738 15.5168 27.4446 14.8401 27.8093C14.4367 28.0267 14.2416 28.4976 14.3731 28.9366C14.5938 29.673 13.9073 30.3594 13.1709 30.1388C12.732 30.0073 12.2611 30.2023 12.0437 30.6057C11.679 31.2824 10.7082 31.2824 10.3435 30.6057C10.1261 30.2023 9.65521 30.0073 9.21627 30.1388C8.47987 30.3594 7.79343 29.673 8.01407 28.9366C8.14558 28.4976 7.95052 28.0267 7.54715 27.8093C6.87041 27.4446 6.87041 26.4738 7.54715 26.1091C7.95052 25.8918 8.14558 25.4208 8.01407 24.9819C7.79343 24.2455 8.47987 23.5591 9.21627 23.7797C9.65521 23.9112 10.1261 23.7161 10.3435 23.3128Z" fill="#777777"/>
</g>
<g opacity="0.9" filter="url(#filter1_i_3952_110667)">
<path d="M19.5811 11.4869C20.1448 10.4409 21.6452 10.4409 22.2089 11.4869L22.2405 11.5455C22.5765 12.169 23.3043 12.4705 23.9828 12.2672L24.0466 12.2481C25.1848 11.9071 26.2457 12.968 25.9047 14.1062L25.8856 14.17C25.6823 14.8484 25.9838 15.5763 26.6072 15.9123L26.6659 15.9439C27.7118 16.5076 27.7118 18.008 26.6659 18.5717L26.6072 18.6033C25.9838 18.9393 25.6823 19.6671 25.8856 20.3455L25.9047 20.4094C26.2457 21.5475 25.1848 22.6085 24.0466 22.2675L23.9828 22.2484C23.3043 22.0451 22.5765 22.3466 22.2405 22.97L22.2089 23.0287C21.6452 24.0746 20.1448 24.0746 19.5811 23.0287L19.5495 22.97C19.2135 22.3466 18.4856 22.0451 17.8072 22.2484L17.7434 22.2675C16.6052 22.6085 15.5443 21.5475 15.8853 20.4094L15.9044 20.3455C16.1077 19.6671 15.8062 18.9393 15.1827 18.6033L15.1241 18.5717C14.0781 18.008 14.0781 16.5076 15.1241 15.9439L15.1827 15.9123C15.8062 15.5763 16.1077 14.8484 15.9044 14.17L15.8853 14.1062C15.5443 12.968 16.6052 11.9071 17.7434 12.2481L17.8072 12.2672C18.4856 12.4705 19.2135 12.169 19.5495 11.5455L19.5811 11.4869Z" fill="#777777"/>
</g>
<path d="M62.1053 47.8038C62.5894 47.3376 63.1799 46.9965 63.8255 46.81C64.4712 46.6234 65.1526 46.597 65.8107 46.7331C66.4689 46.8693 67.0839 47.1637 67.6026 47.5911C68.1213 48.0184 68.528 48.5658 68.7875 49.1857C69.047 49.8057 69.1515 50.4795 69.0919 51.1489C69.0324 51.8183 68.8105 52.4632 68.4456 53.0275C68.0807 53.5919 67.5837 54.0588 66.9977 54.3878C66.4117 54.7168 65.7543 54.8981 65.0824 54.9158H36.1382" stroke="white" stroke-width="2.61725" stroke-linecap="round" stroke-linejoin="round"/>
<path d="M48.7083 42.6717C49.0915 42.2809 49.5656 41.9913 50.0883 41.8288C50.611 41.6663 51.1658 41.6361 51.703 41.7408C52.2402 41.8455 52.7431 42.0818 53.1665 42.4287C53.5899 42.7755 53.9206 43.222 54.129 43.7281C54.3374 44.2342 54.417 44.7841 54.3606 45.3286C54.3041 45.873 54.1135 46.3949 53.8058 46.8475C53.498 47.3001 53.0828 47.6693 52.5973 47.922C52.1117 48.1746 51.5711 48.3029 51.0238 48.2952H36.1382" stroke="white" stroke-width="2.61725" stroke-linecap="round" stroke-linejoin="round"/>
<path d="M53.6701 67.158C54.0533 67.5488 54.5275 67.8384 55.0502 68.0009C55.5728 68.1634 56.1276 68.1936 56.6649 68.0889C57.2021 67.9842 57.705 67.7479 58.1284 67.401C58.5518 67.0542 58.8825 66.6077 59.0909 66.1016C59.2993 65.5955 59.3788 65.0456 59.3224 64.5011C59.266 63.9567 59.0754 63.4348 58.7676 62.9822C58.4599 62.5296 58.0447 62.1604 57.5591 61.9077C57.0736 61.6551 56.533 61.5268 55.9857 61.5345H36.1382" stroke="white" stroke-width="2.61725" stroke-linecap="round" stroke-linejoin="round"/>
<circle cx="77.9451" cy="74.7698" r="15.7051" fill="#E96868" stroke="#F4F8F2" stroke-width="2.6732"/>
<path d="M77.9446 82.232C82.0661 82.232 85.4073 78.8909 85.4073 74.7693C85.4073 70.6478 82.0661 67.3066 77.9446 67.3066C73.8231 67.3066 70.4819 70.6478 70.4819 74.7693C70.4819 78.8909 73.8231 82.232 77.9446 82.232Z" fill="white"/>
<path d="M77.9446 70.2917V74.7693L80.9297 73.2768" fill="white"/>
<path d="M77.9448 70.9443V75.4219L80.9299 73.9294" stroke="#E96868" stroke-width="1.49254" stroke-linecap="round" stroke-linejoin="round"/>
<defs>
<filter id="filter0_i_3952_110667" x="7.03955" y="22.8057" width="8.30811" height="8.30762" filterUnits="userSpaceOnUse" color-interpolation-filters="sRGB">
<feFlood flood-opacity="0" result="BackgroundImageFix"/>
<feBlend mode="normal" in="SourceGraphic" in2="BackgroundImageFix" result="shape"/>
<feColorMatrix in="SourceAlpha" type="matrix" values="0 0 0 0 0 0 0 0 0 0 0 0 0 0 0 0 0 0 127 0" result="hardAlpha"/>
<feOffset/>
<feGaussianBlur stdDeviation="2.61194"/>
<feComposite in2="hardAlpha" operator="arithmetic" k2="-1" k3="1"/>
<feColorMatrix type="matrix" values="0 0 0 0 0 0 0 0 0 0 0 0 0 0 0 0 0 0 0.55 0"/>
<feBlend mode="normal" in2="shape" result="effect1_innerShadow_3952_110667"/>
</filter>
<filter id="filter1_i_3952_110667" x="14.3398" y="10.7021" width="13.1104" height="13.1113" filterUnits="userSpaceOnUse" color-interpolation-filters="sRGB">
<feFlood flood-opacity="0" result="BackgroundImageFix"/>
<feBlend mode="normal" in="SourceGraphic" in2="BackgroundImageFix" result="shape"/>
<feColorMatrix in="SourceAlpha" type="matrix" values="0 0 0 0 0 0 0 0 0 0 0 0 0 0 0 0 0 0 127 0" result="hardAlpha"/>
<feOffset/>
<feGaussianBlur stdDeviation="2.61194"/>
<feComposite in2="hardAlpha" operator="arithmetic" k2="-1" k3="1"/>
<feColorMatrix type="matrix" values="0 0 0 0 0 0 0 0 0 0 0 0 0 0 0 0 0 0 0.55 0"/>
<feBlend mode="normal" in2="shape" result="effect1_innerShadow_3952_110667"/>
</filter>
<linearGradient id="paint0_linear_3952_110667" x1="37.3283" y1="27.0213" x2="69.4179" y2="77.0213" gradientUnits="userSpaceOnUse">
<stop offset="0.565984" stop-color="#61C6C6"/>
<stop offset="1" stop-color="#56B8B8"/>
</linearGradient>
</defs>
</svg>
