<svg width="100" height="100" viewBox="0 0 100 100" fill="none" xmlns="http://www.w3.org/2000/svg">
<path d="M19.4033 43.3088C19.4033 41.5048 20.2635 39.8089 21.7191 38.7432L46.8294 20.3578C48.8198 18.9005 51.5248 18.9005 53.5152 20.3578L78.6255 38.7432C80.0811 39.8089 80.9413 41.5048 80.9413 43.3088V75.8407C80.9413 77.5478 80.2209 79.1851 78.9386 80.3922C77.6563 81.5993 75.9172 82.2775 74.1037 82.2775H26.2409C24.4274 82.2775 22.6883 81.5993 21.406 80.3922C20.1237 79.1851 19.4033 77.5478 19.4033 75.8407V43.3088Z" fill="url(#paint0_linear_3952_110643)"/>
<path fill-rule="evenodd" clip-rule="evenodd" d="M52.6868 60.1654C55.2257 59.3002 57.0519 56.895 57.0519 54.0633C57.0519 50.5037 54.1663 47.6182 50.6067 47.6182C47.0472 47.6182 44.1616 50.5037 44.1616 54.0633C44.1616 56.9997 46.1253 59.4774 48.8111 60.2549L47.7162 66.8242C47.5416 67.8718 48.3495 68.8255 49.4115 68.8255H52.1013C53.1633 68.8255 53.9712 67.8718 53.7966 66.8242L52.6868 60.1654Z" fill="#434343"/>
<circle cx="78.5448" cy="75.2108" r="17.5373" fill="#5580EE" stroke="#F1F6F9" stroke-width="2.98507"/>
<path d="M72.2573 75.4464L76.9795 80L84.7573 72.5" stroke="white" stroke-width="3.33333" stroke-linecap="round" stroke-linejoin="round"/>
<defs>
<linearGradient id="paint0_linear_3952_110643" x1="37.3283" y1="27.0213" x2="69.4179" y2="77.0213" gradientUnits="userSpaceOnUse">
<stop offset="0.565984" stop-color="#7CCBAF"/>
<stop offset="1" stop-color="#42B78D"/>
</linearGradient>
</defs>
</svg>
