<svg width="105" height="100" viewBox="0 0 105 100" fill="none" xmlns="http://www.w3.org/2000/svg">
<rect x="23.593" y="26.7541" width="57.7957" height="34.5547" rx="1.38393" fill="white" stroke="url(#paint0_linear_3952_110671)" stroke-width="1.84524"/>
<mask id="mask0_3952_110671" style="mask-type:alpha" maskUnits="userSpaceOnUse" x="24" y="27" width="57" height="34">
<rect x="24.5156" y="27.6768" width="55.9505" height="32.7095" rx="0.46131" fill="#262729"/>
</mask>
<g mask="url(#mask0_3952_110671)">
<g opacity="0.7" filter="url(#filter0_f_3952_110671)">
<circle cx="76.2035" cy="36.2284" r="16.327" fill="#EF52C3"/>
</g>
<g opacity="0.7" filter="url(#filter1_f_3952_110671)">
<circle cx="61.0985" cy="59.9559" r="18.5067" fill="#6512ED"/>
</g>
<g opacity="0.7" filter="url(#filter2_f_3952_110671)">
<circle cx="32.6927" cy="47.0438" r="18.5067" fill="#13B8EC"/>
</g>
<g opacity="0.3" filter="url(#filter3_f_3952_110671)">
<circle cx="44.7435" cy="34.1327" r="18.5067" fill="#0EF15B"/>
</g>
</g>
<rect x="22.7944" y="68.1328" width="59.3936" height="6.02544" rx="0.922619" fill="#343434"/>
<mask id="mask1_3952_110671" style="mask-type:alpha" maskUnits="userSpaceOnUse" x="22" y="68" width="61" height="7">
<rect x="22.7939" y="68.1328" width="59.3936" height="6.02544" rx="0.922619" fill="#343434"/>
</mask>
<g mask="url(#mask1_3952_110671)">
<rect x="38.9209" y="38.8984" width="0.860777" height="42.1698" transform="rotate(30 38.9209 38.8984)" fill="#3B3B3B"/>
<rect x="40.4116" y="39.7578" width="0.860777" height="42.1698" transform="rotate(30 40.4116 39.7578)" fill="#3B3B3B"/>
<rect x="41.9028" y="40.6191" width="0.860777" height="42.1698" transform="rotate(30 41.9028 40.6191)" fill="#3B3B3B"/>
<rect x="43.3945" y="41.4795" width="0.860777" height="42.1698" transform="rotate(30 43.3945 41.4795)" fill="#3B3B3B"/>
<rect x="44.8853" y="42.3398" width="0.860777" height="42.1698" transform="rotate(30 44.8853 42.3398)" fill="#3B3B3B"/>
<rect x="46.3755" y="43.2021" width="0.860777" height="42.1698" transform="rotate(30 46.3755 43.2021)" fill="#3B3B3B"/>
<rect x="47.8652" y="44.0635" width="0.860777" height="42.1698" transform="rotate(30 47.8652 44.0635)" fill="#3B3B3B"/>
<rect x="49.3579" y="44.9229" width="0.860777" height="42.1698" transform="rotate(30 49.3579 44.9229)" fill="#3B3B3B"/>
<rect x="50.8486" y="45.7832" width="0.860777" height="42.1698" transform="rotate(30 50.8486 45.7832)" fill="#3B3B3B"/>
<rect x="52.3389" y="46.6445" width="0.860777" height="42.1698" transform="rotate(30 52.3389 46.6445)" fill="#3B3B3B"/>
<rect x="53.8296" y="47.5049" width="0.860777" height="42.1698" transform="rotate(30 53.8296 47.5049)" fill="#3B3B3B"/>
<rect x="55.3208" y="48.3652" width="0.860777" height="42.1698" transform="rotate(30 55.3208 48.3652)" fill="#3B3B3B"/>
<rect x="56.813" y="49.2256" width="0.860777" height="42.1698" transform="rotate(30 56.813 49.2256)" fill="#3B3B3B"/>
<rect x="58.3022" y="50.0889" width="0.860777" height="42.1698" transform="rotate(30 58.3022 50.0889)" fill="#3B3B3B"/>
<rect x="59.7935" y="50.9482" width="0.860777" height="42.1698" transform="rotate(30 59.7935 50.9482)" fill="#3B3B3B"/>
<rect x="61.2842" y="51.8096" width="0.860777" height="42.1698" transform="rotate(30 61.2842 51.8096)" fill="#3B3B3B"/>
<rect x="62.7744" y="52.6709" width="0.860777" height="42.1698" transform="rotate(30 62.7744 52.6709)" fill="#3B3B3B"/>
<rect x="64.2666" y="53.5303" width="0.860777" height="42.1698" transform="rotate(30 64.2666 53.5303)" fill="#3B3B3B"/>
<rect x="65.7578" y="54.3906" width="0.860777" height="42.1698" transform="rotate(30 65.7578 54.3906)" fill="#3B3B3B"/>
<rect x="67.2476" y="55.252" width="0.860777" height="42.1698" transform="rotate(30 67.2476 55.252)" fill="#3B3B3B"/>
<rect x="68.7402" y="56.1123" width="0.860777" height="42.1698" transform="rotate(30 68.7402 56.1123)" fill="#3B3B3B"/>
<rect x="70.2295" y="56.9736" width="0.860777" height="42.1698" transform="rotate(30 70.2295 56.9736)" fill="#3B3B3B"/>
<rect x="71.7212" y="57.835" width="0.860777" height="42.1698" transform="rotate(30 71.7212 57.835)" fill="#3B3B3B"/>
<rect x="73.2119" y="58.6963" width="0.860777" height="42.1698" transform="rotate(30 73.2119 58.6963)" fill="#3B3B3B"/>
<rect x="74.7031" y="59.5566" width="0.860777" height="42.1698" transform="rotate(30 74.7031 59.5566)" fill="#3B3B3B"/>
<rect x="76.1938" y="60.417" width="0.860777" height="42.1698" transform="rotate(30 76.1938 60.417)" fill="#3B3B3B"/>
<rect x="77.6855" y="61.2773" width="0.860777" height="42.1698" transform="rotate(30 77.6855 61.2773)" fill="#3B3B3B"/>
<rect x="79.1763" y="62.1377" width="0.860777" height="42.1698" transform="rotate(30 79.1763 62.1377)" fill="#3B3B3B"/>
<rect x="80.6675" y="62.999" width="0.860777" height="42.1698" transform="rotate(30 80.6675 62.999)" fill="#3B3B3B"/>
<rect x="82.1567" y="63.8613" width="0.860777" height="42.1698" transform="rotate(30 82.1567 63.8613)" fill="#3B3B3B"/>
<rect x="83.6475" y="64.7217" width="0.860777" height="42.1698" transform="rotate(30 83.6475 64.7217)" fill="#3B3B3B"/>
<rect x="85.1401" y="65.582" width="0.860777" height="42.1698" transform="rotate(30 85.1401 65.582)" fill="#3B3B3B"/>
<rect x="86.6299" y="66.4424" width="0.860777" height="42.1698" transform="rotate(30 86.6299 66.4424)" fill="#3B3B3B"/>
<rect x="88.1216" y="67.3027" width="0.860777" height="42.1698" transform="rotate(30 88.1216 67.3027)" fill="#3B3B3B"/>
<rect x="12.292" y="71.2979" width="0.860777" height="58.4594" transform="rotate(-45 12.292 71.2979)" fill="#3B3B3B"/>
<rect x="13.5093" y="70.0811" width="0.860777" height="58.4594" transform="rotate(-45 13.5093 70.0811)" fill="#3B3B3B"/>
<rect x="14.7266" y="68.8633" width="0.860777" height="58.4594" transform="rotate(-45 14.7266 68.8633)" fill="#3B3B3B"/>
<rect x="15.9443" y="67.6445" width="0.860777" height="58.4594" transform="rotate(-45 15.9443 67.6445)" fill="#3B3B3B"/>
<rect x="17.1606" y="66.4268" width="0.860777" height="58.4594" transform="rotate(-45 17.1606 66.4268)" fill="#3B3B3B"/>
<rect x="18.3809" y="65.2119" width="0.860777" height="58.4594" transform="rotate(-45 18.3809 65.2119)" fill="#3B3B3B"/>
<rect x="19.5972" y="63.9941" width="0.860777" height="58.4594" transform="rotate(-45 19.5972 63.9941)" fill="#3B3B3B"/>
<rect x="20.813" y="62.7764" width="0.860777" height="58.4594" transform="rotate(-45 20.813 62.7764)" fill="#3B3B3B"/>
<rect x="22.0308" y="61.5586" width="0.860777" height="58.4594" transform="rotate(-45 22.0308 61.5586)" fill="#3B3B3B"/>
<rect x="23.248" y="60.3418" width="0.860777" height="58.4594" transform="rotate(-45 23.248 60.3418)" fill="#3B3B3B"/>
<rect x="24.4648" y="59.125" width="0.860777" height="58.4594" transform="rotate(-45 24.4648 59.125)" fill="#3B3B3B"/>
<rect x="25.6821" y="57.9072" width="0.860777" height="58.4594" transform="rotate(-45 25.6821 57.9072)" fill="#3B3B3B"/>
<rect x="26.8994" y="56.6885" width="0.860777" height="58.4594" transform="rotate(-45 26.8994 56.6885)" fill="#3B3B3B"/>
<rect x="28.1196" y="55.4736" width="0.860777" height="58.4594" transform="rotate(-45 28.1196 55.4736)" fill="#3B3B3B"/>
<rect x="29.3359" y="54.2559" width="0.860777" height="58.4594" transform="rotate(-45 29.3359 54.2559)" fill="#3B3B3B"/>
<rect x="30.5537" y="53.0381" width="0.860777" height="58.4594" transform="rotate(-45 30.5537 53.0381)" fill="#3B3B3B"/>
<rect x="31.771" y="51.8223" width="0.860777" height="58.4594" transform="rotate(-45 31.771 51.8223)" fill="#3B3B3B"/>
<rect x="32.9868" y="50.6025" width="0.860777" height="58.4594" transform="rotate(-45 32.9868 50.6025)" fill="#3B3B3B"/>
<rect x="34.2041" y="49.3857" width="0.860777" height="58.4594" transform="rotate(-45 34.2041 49.3857)" fill="#3B3B3B"/>
<rect x="35.4209" y="48.1689" width="0.860777" height="58.4594" transform="rotate(-45 35.4209 48.1689)" fill="#3B3B3B"/>
<rect x="36.6382" y="46.9521" width="0.860777" height="58.4594" transform="rotate(-45 36.6382 46.9521)" fill="#3B3B3B"/>
<rect x="37.8574" y="45.7344" width="0.860777" height="58.4594" transform="rotate(-45 37.8574 45.7344)" fill="#3B3B3B"/>
<rect x="39.0747" y="44.5176" width="0.860777" height="58.4594" transform="rotate(-45 39.0747 44.5176)" fill="#3B3B3B"/>
<rect x="40.2915" y="43.2998" width="0.860777" height="58.4594" transform="rotate(-45 40.2915 43.2998)" fill="#3B3B3B"/>
<rect x="41.5088" y="42.082" width="0.860777" height="58.4594" transform="rotate(-45 41.5088 42.082)" fill="#3B3B3B"/>
<rect x="42.7256" y="40.8652" width="0.860777" height="58.4594" transform="rotate(-45 42.7256 40.8652)" fill="#3B3B3B"/>
<rect x="43.9424" y="39.6455" width="0.860777" height="58.4594" transform="rotate(-45 43.9424 39.6455)" fill="#3B3B3B"/>
<rect x="45.1597" y="38.4287" width="0.860777" height="58.4594" transform="rotate(-45 45.1597 38.4287)" fill="#3B3B3B"/>
<rect x="46.377" y="37.2119" width="0.860777" height="58.4594" transform="rotate(-45 46.377 37.2119)" fill="#3B3B3B"/>
<rect x="47.5952" y="35.9971" width="0.860777" height="58.4594" transform="rotate(-45 47.5952 35.9971)" fill="#3B3B3B"/>
<rect x="48.813" y="34.7803" width="0.860777" height="58.4594" transform="rotate(-45 48.813 34.7803)" fill="#3B3B3B"/>
<rect x="50.0293" y="33.5605" width="0.860777" height="58.4594" transform="rotate(-45 50.0293 33.5605)" fill="#3B3B3B"/>
<rect x="51.2461" y="32.3438" width="0.860777" height="58.4594" transform="rotate(-45 51.2461 32.3438)" fill="#3B3B3B"/>
<rect x="52.4644" y="31.126" width="0.860777" height="58.4594" transform="rotate(-45 52.4644 31.126)" fill="#3B3B3B"/>
</g>
<rect x="8.05029" y="55.2207" width="12.0509" height="20.6586" rx="1.84524" fill="url(#paint1_linear_3952_110671)"/>
<g filter="url(#filter4_i_3952_110671)">
<circle cx="14.0754" cy="61.2458" r="3.44311" fill="#262626"/>
</g>
<circle cx="14.0754" cy="61.2458" r="3.21245" stroke="url(#paint2_linear_3952_110671)" stroke-width="0.46131"/>
<g filter="url(#filter5_i_3952_110671)">
<circle cx="14.0754" cy="69.8542" r="3.44311" fill="#262626"/>
</g>
<circle cx="14.0754" cy="69.8542" r="3.21245" stroke="url(#paint3_linear_3952_110671)" stroke-width="0.46131"/>
<rect x="49.4785" y="68.9941" width="5.16466" height="1.72155" rx="0.860777" fill="#8A8A8A"/>
<g opacity="0.2" filter="url(#filter6_f_3952_110671)">
<path d="M16.2041 75.1025H86.446L96.4186 78.9899H6.23145L16.2041 75.1025Z" fill="black"/>
</g>
<circle cx="85.6214" cy="72.4256" r="17.5373" fill="#EB984B" stroke="#F1F8F9" stroke-width="2.98507"/>
<path d="M90.287 65.5479H80.5337C79.6264 65.5481 78.7515 65.8977 78.0779 66.5292C77.4044 67.1608 76.9801 68.0293 76.8872 68.9669C76.8817 69.0164 76.878 69.0631 76.8716 69.1117C76.7973 69.7536 76.2437 74.5536 76.2437 76.024C76.2437 76.7818 76.5334 77.5085 77.0491 78.0443C77.5648 78.5802 78.2643 78.8812 78.9937 78.8812C79.9103 78.8812 80.3687 78.405 80.827 77.9288L82.1232 76.5821C82.4669 76.2249 82.9331 76.0241 83.4193 76.024H87.4013C87.8875 76.0241 88.3537 76.2249 88.6975 76.5821L89.9937 77.9288C90.452 78.405 90.9103 78.8812 91.827 78.8812C92.5563 78.8812 93.2558 78.5802 93.7715 78.0443C94.2873 77.5085 94.577 76.7818 94.577 76.024C94.577 74.5526 94.0233 69.7536 93.9491 69.1117C93.9427 69.064 93.939 69.0164 93.9335 68.9679C93.8407 68.0301 93.4165 67.1613 92.743 66.5296C92.0694 65.8979 91.1944 65.5481 90.287 65.5479Z" fill="white"/>
<path fill-rule="evenodd" clip-rule="evenodd" d="M82.5918 69.0723C82.5918 68.7271 82.312 68.4473 81.9668 68.4473C81.6216 68.4473 81.3418 68.7271 81.3418 69.0723L81.3418 70.2661H80.0698C79.7246 70.2661 79.4448 70.5459 79.4448 70.8911C79.4448 71.2363 79.7246 71.5161 80.0698 71.5161H81.3418L81.3418 72.8223C81.3418 73.1674 81.6216 73.4473 81.9668 73.4473C82.312 73.4473 82.5918 73.1674 82.5918 72.8223V71.5161H83.8198C84.165 71.5161 84.4448 71.2363 84.4448 70.8911C84.4448 70.5459 84.165 70.2661 83.8198 70.2661H82.5918V69.0723Z" fill="#EB984B"/>
<circle cx="89.7931" cy="72.1471" r="1.05042" fill="#EB984B"/>
<circle cx="89.7931" cy="69.4977" r="1.05042" fill="#EB984B"/>
<defs>
<filter id="filter0_f_3952_110671" x="46.9598" y="6.9847" width="58.4871" height="58.4876" filterUnits="userSpaceOnUse" color-interpolation-filters="sRGB">
<feFlood flood-opacity="0" result="BackgroundImageFix"/>
<feBlend mode="normal" in="SourceGraphic" in2="BackgroundImageFix" result="shape"/>
<feGaussianBlur stdDeviation="6.45833" result="effect1_foregroundBlur_3952_110671"/>
</filter>
<filter id="filter1_f_3952_110671" x="29.6751" y="28.5326" width="62.8465" height="62.847" filterUnits="userSpaceOnUse" color-interpolation-filters="sRGB">
<feFlood flood-opacity="0" result="BackgroundImageFix"/>
<feBlend mode="normal" in="SourceGraphic" in2="BackgroundImageFix" result="shape"/>
<feGaussianBlur stdDeviation="6.45833" result="effect1_foregroundBlur_3952_110671"/>
</filter>
<filter id="filter2_f_3952_110671" x="1.26937" y="15.6204" width="62.8465" height="62.847" filterUnits="userSpaceOnUse" color-interpolation-filters="sRGB">
<feFlood flood-opacity="0" result="BackgroundImageFix"/>
<feBlend mode="normal" in="SourceGraphic" in2="BackgroundImageFix" result="shape"/>
<feGaussianBlur stdDeviation="6.45833" result="effect1_foregroundBlur_3952_110671"/>
</filter>
<filter id="filter3_f_3952_110671" x="13.3201" y="2.70931" width="62.8465" height="62.847" filterUnits="userSpaceOnUse" color-interpolation-filters="sRGB">
<feFlood flood-opacity="0" result="BackgroundImageFix"/>
<feBlend mode="normal" in="SourceGraphic" in2="BackgroundImageFix" result="shape"/>
<feGaussianBlur stdDeviation="6.45833" result="effect1_foregroundBlur_3952_110671"/>
</filter>
<filter id="filter4_i_3952_110671" x="10.6323" y="57.8027" width="10.5767" height="10.5762" filterUnits="userSpaceOnUse" color-interpolation-filters="sRGB">
<feFlood flood-opacity="0" result="BackgroundImageFix"/>
<feBlend mode="normal" in="SourceGraphic" in2="BackgroundImageFix" result="shape"/>
<feColorMatrix in="SourceAlpha" type="matrix" values="0 0 0 0 0 0 0 0 0 0 0 0 0 0 0 0 0 0 127 0" result="hardAlpha"/>
<feOffset dx="3.69048" dy="3.69048"/>
<feGaussianBlur stdDeviation="1.84524"/>
<feComposite in2="hardAlpha" operator="arithmetic" k2="-1" k3="1"/>
<feColorMatrix type="matrix" values="0 0 0 0 0 0 0 0 0 0 0 0 0 0 0 0 0 0 0.45 0"/>
<feBlend mode="normal" in2="shape" result="effect1_innerShadow_3952_110671"/>
</filter>
<filter id="filter5_i_3952_110671" x="10.6323" y="66.4111" width="10.5767" height="10.5762" filterUnits="userSpaceOnUse" color-interpolation-filters="sRGB">
<feFlood flood-opacity="0" result="BackgroundImageFix"/>
<feBlend mode="normal" in="SourceGraphic" in2="BackgroundImageFix" result="shape"/>
<feColorMatrix in="SourceAlpha" type="matrix" values="0 0 0 0 0 0 0 0 0 0 0 0 0 0 0 0 0 0 127 0" result="hardAlpha"/>
<feOffset dx="3.69048" dy="3.69048"/>
<feGaussianBlur stdDeviation="1.84524"/>
<feComposite in2="hardAlpha" operator="arithmetic" k2="-1" k3="1"/>
<feColorMatrix type="matrix" values="0 0 0 0 0 0 0 0 0 0 0 0 0 0 0 0 0 0 0.45 0"/>
<feBlend mode="normal" in2="shape" result="effect1_innerShadow_3952_110671"/>
</filter>
<filter id="filter6_f_3952_110671" x="0.611073" y="69.4822" width="101.428" height="15.1284" filterUnits="userSpaceOnUse" color-interpolation-filters="sRGB">
<feFlood flood-opacity="0" result="BackgroundImageFix"/>
<feBlend mode="normal" in="SourceGraphic" in2="BackgroundImageFix" result="shape"/>
<feGaussianBlur stdDeviation="2.81019" result="effect1_foregroundBlur_3952_110671"/>
</filter>
<linearGradient id="paint0_linear_3952_110671" x1="36.5297" y1="27.6768" x2="65.8711" y2="64.023" gradientUnits="userSpaceOnUse">
<stop stop-color="#343434"/>
<stop offset="1" stop-color="#242424"/>
</linearGradient>
<linearGradient id="paint1_linear_3952_110671" x1="11.063" y1="56.9423" x2="18.3796" y2="74.5882" gradientUnits="userSpaceOnUse">
<stop stop-color="#343434"/>
<stop offset="1" stop-color="#2C2C2C"/>
</linearGradient>
<linearGradient id="paint2_linear_3952_110671" x1="11.9235" y1="59.0939" x2="16.2274" y2="64.2586" gradientUnits="userSpaceOnUse">
<stop stop-color="#444444"/>
<stop offset="1" stop-color="#323232"/>
</linearGradient>
<linearGradient id="paint3_linear_3952_110671" x1="11.9235" y1="67.7023" x2="16.2274" y2="72.867" gradientUnits="userSpaceOnUse">
<stop stop-color="#444444"/>
<stop offset="1" stop-color="#323232"/>
</linearGradient>
</defs>
</svg>
