<svg width="129" height="120" viewBox="0 0 129 120" fill="none" xmlns="http://www.w3.org/2000/svg">
<g opacity="0.1" filter="url(#filter0_f_2318_108011)">
<path d="M20.2988 95.3203H108.847L121.419 100.138H7.72705L20.2988 95.3203Z" fill="black"/>
</g>
<rect x="13.5112" y="65.4531" width="100.203" height="19.2698" fill="url(#paint0_linear_2318_108011)"/>
<rect x="27.936" y="47.1465" width="4.81746" height="44.3206" rx="1.92698" fill="url(#paint1_linear_2318_108011)"/>
<rect x="44.3423" y="47.1465" width="4.81746" height="44.3206" rx="1.92698" fill="url(#paint2_linear_2318_108011)"/>
<rect x="61.6826" y="47.1465" width="4.81746" height="44.3206" rx="1.92698" fill="url(#paint3_linear_2318_108011)"/>
<rect x="79.0278" y="47.1465" width="4.81746" height="44.3206" rx="1.92698" fill="url(#paint4_linear_2318_108011)"/>
<rect x="95.4292" y="47.1465" width="4.81746" height="44.3206" rx="1.92698" fill="url(#paint5_linear_2318_108011)"/>
<g filter="url(#filter1_i_2318_108011)">
<rect x="15.4355" y="46.1836" width="96.3492" height="8.67143" fill="url(#paint6_linear_2318_108011)"/>
</g>
<g filter="url(#filter2_i_2318_108011)">
<rect x="15.4355" y="84.7227" width="96.3492" height="8.67143" fill="url(#paint7_linear_2318_108011)"/>
</g>
<g filter="url(#filter3_i_2318_108011)">
<rect x="13.459" y="35.585" width="6.74445" height="64.554" rx="1.87852" fill="url(#paint8_linear_2318_108011)"/>
</g>
<g filter="url(#filter4_i_2318_108011)">
<rect x="107.979" y="35.585" width="6.74445" height="64.554" rx="1.87852" fill="url(#paint9_linear_2318_108011)"/>
</g>
<path d="M23.6685 23.9681C23.6685 22.9744 24.3737 22.1206 25.3495 21.9329L34.7957 20.1164C36.5071 19.7872 38.2655 19.7872 39.9769 20.1164L49.423 21.9329C50.3988 22.1206 51.1041 22.9744 51.1041 23.9681C51.1041 25.2697 49.9184 26.2491 48.6403 26.0033L39.2666 24.2006C38.0244 23.9618 36.7481 23.9618 35.5059 24.2006L26.1323 26.0033C24.8542 26.2491 23.6685 25.2697 23.6685 23.9681Z" fill="#3B4F82"/>
<path d="M27.8887 25.4219V34.9188" stroke="#3B4F82" stroke-width="1.05522"/>
<path d="M37.3843 23.3115V32.8085" stroke="#3B4F82" stroke-width="1.05522"/>
<path d="M46.8838 25.4219V34.9188" stroke="#3B4F82" stroke-width="1.05522"/>
<path d="M49.0994 37.2051C49.5711 36.6915 50.0491 36.076 50.0491 35.2705C50.0491 34.7574 49.8656 34.2654 49.5391 33.9026C49.2126 33.5398 48.7697 33.3359 48.308 33.3359C47.9253 33.3359 47.6202 33.4189 47.3128 33.6419C47.0592 33.8258 46.7076 33.8258 46.454 33.6419C46.1466 33.4189 45.8416 33.3359 45.4589 33.3359C44.9971 33.3359 44.5543 33.5398 44.2277 33.9026C43.9012 34.2654 43.7178 34.7574 43.7178 35.2705C43.7178 36.0795 44.1926 36.695 44.6675 37.2051L46.4913 39.2315C46.7008 39.4644 47.066 39.4644 47.2756 39.2315L49.0994 37.2051Z" fill="#E9A3B0"/>
<circle cx="27.8877" cy="29.6421" r="1.05522" fill="#FFD233"/>
<circle cx="37.3848" cy="27.5328" r="1.05522" fill="#61AFD0"/>
<circle cx="46.8843" cy="29.6421" r="1.05522" fill="#E9A3B0"/>
<path d="M26.8849 33.7855C27.2008 32.8134 28.5761 32.8134 28.892 33.7855L29.0731 34.3428C29.2144 34.7776 29.6195 35.0719 30.0766 35.0719L30.6627 35.072C31.6848 35.072 32.1098 36.38 31.2829 36.9808L30.8088 37.3253C30.439 37.594 30.2842 38.0703 30.4255 38.505L30.6066 39.0624C30.9224 40.0345 29.8097 40.8429 28.9828 40.2421L28.5086 39.8977C28.1388 39.629 27.638 39.629 27.2682 39.8977L26.7941 40.2421C25.9671 40.8429 24.8545 40.0345 25.1703 39.0624L25.3514 38.505C25.4926 38.0703 25.3379 37.594 24.9681 37.3253L24.494 36.9808C23.667 36.38 24.092 35.072 25.1142 35.072L25.7002 35.0719C26.1574 35.0719 26.5625 34.7776 26.7038 34.3428L26.8849 33.7855Z" fill="#FEDD68"/>
<path d="M37.718 30.9148C38.1604 30.7558 38.4545 31.3286 38.3166 31.778C38.2412 32.024 38.2018 32.2819 38.2018 32.5439C38.2018 33.2365 38.4769 33.9008 38.9667 34.3905C39.4565 34.8803 40.1207 35.1554 40.8133 35.1554C41.0753 35.1554 41.3332 35.1161 41.5792 35.0406C42.0286 34.9027 42.6014 35.1968 42.4425 35.6392C42.3412 35.921 42.2056 36.1908 42.0375 36.4424C41.6317 37.0497 41.0549 37.5231 40.38 37.8026C39.7052 38.0822 38.9626 38.1553 38.2462 38.0128C37.5298 37.8703 36.8717 37.5186 36.3552 37.0021C35.8387 36.4855 35.4869 35.8275 35.3444 35.111C35.2019 34.3946 35.275 33.652 35.5546 32.9772C35.8341 32.3023 36.3075 31.7255 36.9148 31.3197C37.1664 31.1516 37.4363 31.016 37.718 30.9148Z" fill="#61AFD0"/>
<circle cx="99.4779" cy="89.9998" r="21.0448" fill="#42C494" stroke="#EAF5F2" stroke-width="3.58209"/>
<path d="M98.3787 97.7151C96.7158 97.7204 95.1117 97.0688 93.8847 95.8897C92.6576 94.7105 91.8971 93.0898 91.7541 91.3491C91.611 89.6083 92.0959 87.8747 93.1125 86.492C94.1291 85.1093 95.6031 84.1785 97.2423 83.8843C100.619 83.1996 102.439 82.7407 103.793 81.889C104.962 81.1533 106.683 81.2787 107.104 82.5944C107.542 83.9681 107.849 85.6024 107.849 87.7649C107.849 93.2375 103.322 97.7151 98.3787 97.7151Z" fill="white"/>
<path d="M89.9385 99.506C89.9385 96.5209 91.7458 94.1727 94.9013 93.5359C97.2655 93.0582 99.7078 91.5458 100.685 90.5508" stroke="#42C494" stroke-width="1.79104" stroke-linecap="round" stroke-linejoin="round"/>
<path d="M89.043 98.6105C89.043 95.6254 90.8503 93.2772 94.0058 92.6403C96.37 92.1627 98.8123 90.6503 99.7892 89.6553" stroke="white" stroke-width="1.79104" stroke-linecap="round" stroke-linejoin="round"/>
<defs>
<filter id="filter0_f_2318_108011" x="0.982605" y="88.5759" width="127.181" height="18.3063" filterUnits="userSpaceOnUse" color-interpolation-filters="sRGB">
<feFlood flood-opacity="0" result="BackgroundImageFix"/>
<feBlend mode="normal" in="SourceGraphic" in2="BackgroundImageFix" result="shape"/>
<feGaussianBlur stdDeviation="3.37222" result="effect1_foregroundBlur_2318_108011"/>
</filter>
<filter id="filter1_i_2318_108011" x="15.4355" y="44.2566" width="96.3491" height="10.5989" filterUnits="userSpaceOnUse" color-interpolation-filters="sRGB">
<feFlood flood-opacity="0" result="BackgroundImageFix"/>
<feBlend mode="normal" in="SourceGraphic" in2="BackgroundImageFix" result="shape"/>
<feColorMatrix in="SourceAlpha" type="matrix" values="0 0 0 0 0 0 0 0 0 0 0 0 0 0 0 0 0 0 127 0" result="hardAlpha"/>
<feOffset dy="-1.92698"/>
<feGaussianBlur stdDeviation="0.963492"/>
<feComposite in2="hardAlpha" operator="arithmetic" k2="-1" k3="1"/>
<feColorMatrix type="matrix" values="0 0 0 0 0.299973 0 0 0 0 0.684863 0 0 0 0 0.635428 0 0 0 0.9 0"/>
<feBlend mode="normal" in2="shape" result="effect1_innerShadow_2318_108011"/>
</filter>
<filter id="filter2_i_2318_108011" x="15.4355" y="82.7957" width="96.3491" height="10.5989" filterUnits="userSpaceOnUse" color-interpolation-filters="sRGB">
<feFlood flood-opacity="0" result="BackgroundImageFix"/>
<feBlend mode="normal" in="SourceGraphic" in2="BackgroundImageFix" result="shape"/>
<feColorMatrix in="SourceAlpha" type="matrix" values="0 0 0 0 0 0 0 0 0 0 0 0 0 0 0 0 0 0 127 0" result="hardAlpha"/>
<feOffset dy="-1.92698"/>
<feGaussianBlur stdDeviation="0.963492"/>
<feComposite in2="hardAlpha" operator="arithmetic" k2="-1" k3="1"/>
<feColorMatrix type="matrix" values="0 0 0 0 0.299973 0 0 0 0 0.684863 0 0 0 0 0.635428 0 0 0 0.9 0"/>
<feBlend mode="normal" in2="shape" result="effect1_innerShadow_2318_108011"/>
</filter>
<filter id="filter3_i_2318_108011" x="13.459" y="33.658" width="6.74463" height="66.4807" filterUnits="userSpaceOnUse" color-interpolation-filters="sRGB">
<feFlood flood-opacity="0" result="BackgroundImageFix"/>
<feBlend mode="normal" in="SourceGraphic" in2="BackgroundImageFix" result="shape"/>
<feColorMatrix in="SourceAlpha" type="matrix" values="0 0 0 0 0 0 0 0 0 0 0 0 0 0 0 0 0 0 127 0" result="hardAlpha"/>
<feOffset dy="-1.92698"/>
<feGaussianBlur stdDeviation="0.963492"/>
<feComposite in2="hardAlpha" operator="arithmetic" k2="-1" k3="1"/>
<feColorMatrix type="matrix" values="0 0 0 0 0 0 0 0 0 0 0 0 0 0 0 0 0 0 0.11 0"/>
<feBlend mode="normal" in2="shape" result="effect1_innerShadow_2318_108011"/>
</filter>
<filter id="filter4_i_2318_108011" x="107.979" y="33.658" width="6.74463" height="66.4807" filterUnits="userSpaceOnUse" color-interpolation-filters="sRGB">
<feFlood flood-opacity="0" result="BackgroundImageFix"/>
<feBlend mode="normal" in="SourceGraphic" in2="BackgroundImageFix" result="shape"/>
<feColorMatrix in="SourceAlpha" type="matrix" values="0 0 0 0 0 0 0 0 0 0 0 0 0 0 0 0 0 0 127 0" result="hardAlpha"/>
<feOffset dy="-1.92698"/>
<feGaussianBlur stdDeviation="0.963492"/>
<feComposite in2="hardAlpha" operator="arithmetic" k2="-1" k3="1"/>
<feColorMatrix type="matrix" values="0 0 0 0 0 0 0 0 0 0 0 0 0 0 0 0 0 0 0.11 0"/>
<feBlend mode="normal" in2="shape" result="effect1_innerShadow_2318_108011"/>
</filter>
<linearGradient id="paint0_linear_2318_108011" x1="60.2406" y1="64.1964" x2="60.2406" y2="89.331" gradientUnits="userSpaceOnUse">
<stop stop-color="white"/>
<stop offset="1" stop-color="#D9D9D9"/>
</linearGradient>
<linearGradient id="paint1_linear_2318_108011" x1="27.8448" y1="64.0828" x2="32.8476" y2="64.0828" gradientUnits="userSpaceOnUse">
<stop stop-color="#5AC8BA"/>
<stop offset="1" stop-color="#4CB1A5"/>
</linearGradient>
<linearGradient id="paint2_linear_2318_108011" x1="44.2511" y1="64.0828" x2="49.2538" y2="64.0828" gradientUnits="userSpaceOnUse">
<stop stop-color="#5AC8BA"/>
<stop offset="1" stop-color="#4CB1A5"/>
</linearGradient>
<linearGradient id="paint3_linear_2318_108011" x1="61.5914" y1="64.0828" x2="66.5942" y2="64.0828" gradientUnits="userSpaceOnUse">
<stop stop-color="#5AC8BA"/>
<stop offset="1" stop-color="#4CB1A5"/>
</linearGradient>
<linearGradient id="paint4_linear_2318_108011" x1="78.9366" y1="64.0828" x2="83.9394" y2="64.0828" gradientUnits="userSpaceOnUse">
<stop stop-color="#5AC8BA"/>
<stop offset="1" stop-color="#4CB1A5"/>
</linearGradient>
<linearGradient id="paint5_linear_2318_108011" x1="95.338" y1="64.0828" x2="100.341" y2="64.0828" gradientUnits="userSpaceOnUse">
<stop stop-color="#5AC8BA"/>
<stop offset="1" stop-color="#4CB1A5"/>
</linearGradient>
<linearGradient id="paint6_linear_2318_108011" x1="15.4355" y1="50.5193" x2="111.785" y2="50.5193" gradientUnits="userSpaceOnUse">
<stop stop-color="#61D0C2"/>
<stop offset="1" stop-color="#56C2B4"/>
</linearGradient>
<linearGradient id="paint7_linear_2318_108011" x1="15.4355" y1="89.0584" x2="111.785" y2="89.0584" gradientUnits="userSpaceOnUse">
<stop stop-color="#61D0C2"/>
<stop offset="1" stop-color="#56C2B4"/>
</linearGradient>
<linearGradient id="paint8_linear_2318_108011" x1="13.459" y1="67.862" x2="20.2034" y2="67.862" gradientUnits="userSpaceOnUse">
<stop stop-color="#61D0C2"/>
<stop offset="1" stop-color="#56C2B4"/>
</linearGradient>
<linearGradient id="paint9_linear_2318_108011" x1="107.979" y1="67.862" x2="114.723" y2="67.862" gradientUnits="userSpaceOnUse">
<stop stop-color="#61D0C2"/>
<stop offset="1" stop-color="#56C2B4"/>
</linearGradient>
</defs>
</svg>
