<svg width="100" height="100" viewBox="0 0 100 100" fill="none" xmlns="http://www.w3.org/2000/svg">
<path d="M49.4307 16.3672L49.4307 40.6081" stroke="#5B5B5B" stroke-width="1.91819" stroke-linecap="round" stroke-linejoin="round"/>
<circle cx="50.4659" cy="69.6974" r="11.4278" fill="url(#paint0_radial_3952_110638)"/>
<g filter="url(#filter0_i_3952_110638)">
<path d="M8.59894 62.7534L48.4257 38.5053C49.0321 38.1361 49.7928 38.132 50.4031 38.4946L91.1767 62.721C92.6943 63.6227 92.2888 65.8749 90.545 66.1493C82.6671 67.3893 66.4638 69.5555 49.4112 69.5555C32.406 69.5555 16.8084 67.4013 9.23078 66.1597C7.50779 65.8774 7.10763 63.6613 8.59894 62.7534Z" fill="url(#paint1_linear_3952_110638)"/>
</g>
<path d="M44.6934 30.232C44.6934 27.5835 46.8404 25.4365 49.4888 25.4365C52.1373 25.4365 54.2843 27.5835 54.2843 30.232V40.7821H44.6934V30.232Z" fill="url(#paint2_linear_3952_110638)"/>
<rect x="43.7329" y="39.8232" width="11.5092" height="1.91819" rx="0.959097" fill="url(#paint3_linear_3952_110638)"/>
<mask id="path-6-outside-1_3952_110638" maskUnits="userSpaceOnUse" x="74.3857" y="51.4609" width="20" height="33" fill="black">
<rect fill="white" x="74.3857" y="51.4609" width="20" height="33"/>
<path fill-rule="evenodd" clip-rule="evenodd" d="M92.3815 54.8461C92.3815 54.0811 91.7614 53.4609 90.9963 53.4609H77.7709C77.0059 53.4609 76.3857 54.0811 76.3857 54.8461V74.7424C76.3857 74.7425 76.3858 74.7425 76.3858 74.7425H76.3858C76.3859 74.7425 76.3859 74.7425 76.3859 74.7426C76.3859 78.8909 79.9667 82.2537 84.3838 82.2537C88.8009 82.2537 92.3817 78.8909 92.3817 74.7426C92.3817 74.7265 92.3816 74.7104 92.3815 74.6944V54.8461Z"/>
</mask>
<g filter="url(#filter1_ii_3952_110638)">
<path fill-rule="evenodd" clip-rule="evenodd" d="M92.3815 54.8461C92.3815 54.0811 91.7614 53.4609 90.9963 53.4609H77.7709C77.0059 53.4609 76.3857 54.0811 76.3857 54.8461V74.7424C76.3857 74.7425 76.3858 74.7425 76.3858 74.7425H76.3858C76.3859 74.7425 76.3859 74.7425 76.3859 74.7426C76.3859 78.8909 79.9667 82.2537 84.3838 82.2537C88.8009 82.2537 92.3817 78.8909 92.3817 74.7426C92.3817 74.7265 92.3816 74.7104 92.3815 74.6944V54.8461Z" fill="#F2F2F2"/>
</g>
<path d="M92.3815 74.6944H90.9963L90.9964 74.7037L92.3815 74.6944ZM77.7709 54.8461H90.9963V52.0757H77.7709V54.8461ZM77.7709 74.7424V54.8461H75.0005V74.7424H77.7709ZM76.3858 73.3573H76.3858V76.1277H76.3858V73.3573ZM84.3838 80.8685C80.6485 80.8685 77.7711 78.0452 77.7711 74.7426H75.0007C75.0007 79.7365 79.2849 83.6389 84.3838 83.6389V80.8685ZM90.9965 74.7426C90.9965 78.0452 88.1191 80.8685 84.3838 80.8685V83.6389C89.4827 83.6389 93.7669 79.7365 93.7669 74.7426H90.9965ZM90.9964 74.7037C90.9965 74.7166 90.9965 74.7296 90.9965 74.7426H93.7669C93.7669 74.7234 93.7668 74.7043 93.7667 74.6851L90.9964 74.7037ZM90.9963 54.8461V74.6944H93.7667V54.8461H90.9963ZM76.3858 76.1277C75.6208 76.1277 75.0007 75.5076 75.0007 74.7426H77.7711C77.7711 73.9775 77.1509 73.3573 76.3858 73.3573V76.1277ZM75.0005 74.7424C75.0005 75.5075 75.6208 76.1277 76.3858 76.1277V73.3573C77.1508 73.3573 77.7709 73.9775 77.7709 74.7424H75.0005ZM90.9963 54.8461H90.9963H93.7667C93.7667 53.3161 92.5264 52.0757 90.9963 52.0757V54.8461ZM77.7709 52.0757C76.2409 52.0757 75.0005 53.3161 75.0005 54.8461H77.7709V54.8461V52.0757Z" fill="#F7F5F4" mask="url(#path-6-outside-1_3952_110638)"/>
<path d="M75.7456 42.24C78.1677 40.0736 81.3032 38.876 84.5527 38.876C87.8022 38.876 90.9378 40.0736 93.3598 42.24" stroke="#E45A5A" stroke-width="2.07779" stroke-linecap="round" stroke-linejoin="round"/>
<path opacity="0.7" d="M78.3066 44.917C79.9529 43.3033 82.1663 42.3994 84.4716 42.3994C86.7769 42.3994 88.9903 43.3033 90.6366 44.917" stroke="#E45A5A" stroke-width="1.73149" stroke-linecap="round" stroke-linejoin="round"/>
<path opacity="0.3" d="M81.5015 48.0615C82.3246 47.2547 83.4313 46.8027 84.5839 46.8027C85.7366 46.8027 86.8433 47.2547 87.6664 48.0615" stroke="#E45A5A" stroke-width="1.38519" stroke-linecap="round" stroke-linejoin="round"/>
<g filter="url(#filter2_i_3952_110638)">
<circle cx="84.3835" cy="62.9757" r="2.23941" fill="#E45A5A"/>
</g>
<defs>
<filter id="filter0_i_3952_110638" x="7.67871" y="36.0489" width="84.436" height="33.5068" filterUnits="userSpaceOnUse" color-interpolation-filters="sRGB">
<feFlood flood-opacity="0" result="BackgroundImageFix"/>
<feBlend mode="normal" in="SourceGraphic" in2="BackgroundImageFix" result="shape"/>
<feColorMatrix in="SourceAlpha" type="matrix" values="0 0 0 0 0 0 0 0 0 0 0 0 0 0 0 0 0 0 127 0" result="hardAlpha"/>
<feOffset dy="-2.17673"/>
<feGaussianBlur stdDeviation="1.45116"/>
<feComposite in2="hardAlpha" operator="arithmetic" k2="-1" k3="1"/>
<feColorMatrix type="matrix" values="0 0 0 0 0 0 0 0 0 0 0 0 0 0 0 0 0 0 0.25 0"/>
<feBlend mode="normal" in2="shape" result="effect1_innerShadow_3952_110638"/>
</filter>
<filter id="filter1_ii_3952_110638" x="75.0005" y="47.2056" width="18.7666" height="38.3812" filterUnits="userSpaceOnUse" color-interpolation-filters="sRGB">
<feFlood flood-opacity="0" result="BackgroundImageFix"/>
<feBlend mode="normal" in="SourceGraphic" in2="BackgroundImageFix" result="shape"/>
<feColorMatrix in="SourceAlpha" type="matrix" values="0 0 0 0 0 0 0 0 0 0 0 0 0 0 0 0 0 0 127 0" result="hardAlpha"/>
<feOffset dy="-4.87052"/>
<feGaussianBlur stdDeviation="2.92231"/>
<feComposite in2="hardAlpha" operator="arithmetic" k2="-1" k3="1"/>
<feColorMatrix type="matrix" values="0 0 0 0 0 0 0 0 0 0 0 0 0 0 0 0 0 0 0.12 0"/>
<feBlend mode="normal" in2="shape" result="effect1_innerShadow_3952_110638"/>
<feColorMatrix in="SourceAlpha" type="matrix" values="0 0 0 0 0 0 0 0 0 0 0 0 0 0 0 0 0 0 127 0" result="hardAlpha"/>
<feOffset dy="1.94821"/>
<feGaussianBlur stdDeviation="1.94821"/>
<feComposite in2="hardAlpha" operator="arithmetic" k2="-1" k3="1"/>
<feColorMatrix type="matrix" values="0 0 0 0 0 0 0 0 0 0 0 0 0 0 0 0 0 0 0.08 0"/>
<feBlend mode="normal" in2="effect1_innerShadow_3952_110638" result="effect2_innerShadow_3952_110638"/>
</filter>
<filter id="filter2_i_3952_110638" x="81.4514" y="60.0437" width="5.1716" height="5.17111" filterUnits="userSpaceOnUse" color-interpolation-filters="sRGB">
<feFlood flood-opacity="0" result="BackgroundImageFix"/>
<feBlend mode="normal" in="SourceGraphic" in2="BackgroundImageFix" result="shape"/>
<feColorMatrix in="SourceAlpha" type="matrix" values="0 0 0 0 0 0 0 0 0 0 0 0 0 0 0 0 0 0 127 0" result="hardAlpha"/>
<feOffset dx="-0.692597" dy="-0.692597"/>
<feGaussianBlur stdDeviation="0.346298"/>
<feComposite in2="hardAlpha" operator="arithmetic" k2="-1" k3="1"/>
<feColorMatrix type="matrix" values="0 0 0 0 0.738867 0 0 0 0 0.220434 0 0 0 0 0.220434 0 0 0 1 0"/>
<feBlend mode="normal" in2="shape" result="effect1_innerShadow_3952_110638"/>
</filter>
<radialGradient id="paint0_radial_3952_110638" cx="0" cy="0" r="1" gradientUnits="userSpaceOnUse" gradientTransform="translate(50.4659 69.6974) rotate(90) scale(11.4278)">
<stop stop-color="#FCF1C9"/>
<stop offset="1" stop-color="#ECD17B"/>
</radialGradient>
<linearGradient id="paint1_linear_3952_110638" x1="27.9909" y1="58.8301" x2="72.9768" y2="57.7417" gradientUnits="userSpaceOnUse">
<stop stop-color="#767676"/>
<stop offset="1" stop-color="#585858"/>
</linearGradient>
<linearGradient id="paint2_linear_3952_110638" x1="45.042" y1="34.1601" x2="54.1117" y2="34.1601" gradientUnits="userSpaceOnUse">
<stop stop-color="#6A6A6A"/>
<stop offset="1" stop-color="#575757"/>
</linearGradient>
<linearGradient id="paint3_linear_3952_110638" x1="43.7329" y1="40.7823" x2="55.2421" y2="40.7823" gradientUnits="userSpaceOnUse">
<stop stop-color="#8B8B8B"/>
<stop offset="1" stop-color="#6A6A6A"/>
</linearGradient>
</defs>
</svg>
