<svg width="100" height="100" viewBox="0 0 100 100" fill="none" xmlns="http://www.w3.org/2000/svg">
<g filter="url(#filter0_i_3952_110652)">
<rect x="10.1367" y="18.2607" width="79.0839" height="55.7366" rx="6.60357" fill="#43505C"/>
</g>
<rect x="8.0731" y="16.1971" width="83.2112" height="59.8638" rx="8.66719" stroke="url(#paint0_linear_3952_110652)" stroke-width="4.12723"/>
<mask id="mask0_3952_110652" style="mask-type:alpha" maskUnits="userSpaceOnUse" x="10" y="18" width="80" height="56">
<rect x="10.1367" y="18.2607" width="79.0839" height="55.7366" rx="6.60357" fill="#1E3A4E"/>
</mask>
<g mask="url(#mask0_3952_110652)">
<rect opacity="0.2" x="9.38477" y="62.2188" width="84.0875" height="12.2197" fill="black"/>
</g>
<g opacity="0.7" filter="url(#filter1_f_3952_110652)">
<path d="M30.4767 65.1426H69.0516L74.5283 67.5011H25L30.4767 65.1426Z" fill="black"/>
</g>
<g filter="url(#filter2_i_3952_110652)">
<path d="M47.6204 29.1455L33.1066 40.3729C32.1696 41.0977 31.6211 42.2156 31.6211 43.4002V64.4203C31.6211 65.403 32.4178 66.1997 33.4006 66.1997L66.5239 66.1997C67.5067 66.1997 68.3034 65.403 68.3034 64.4203V43.4002C68.3034 42.2156 67.7548 41.0977 66.8179 40.3729L52.304 29.1455C50.9251 28.0788 48.9994 28.0788 47.6204 29.1455Z" fill="url(#paint1_linear_3952_110652)"/>
</g>
<g filter="url(#filter3_i_3952_110652)">
<path d="M42.9751 56.0023C42.9751 53.6754 44.8614 51.7891 47.1884 51.7891H52.736C55.063 51.7891 56.9493 53.6754 56.9493 56.0023V66.2H42.9751V56.0023Z" fill="#5C402A"/>
</g>
<g filter="url(#filter4_i_3952_110652)">
<path fill-rule="evenodd" clip-rule="evenodd" d="M46.0511 43.422L46.0511 43.4235H53.4211C53.4211 43.423 53.4211 43.4225 53.4211 43.422C53.4211 42.1502 54.4521 41.1191 55.7239 41.1191C56.9958 41.1191 58.0268 42.1502 58.0268 43.422C58.0268 44.0497 57.7757 44.6188 57.3684 45.0342C57.7757 45.4495 58.0268 46.0186 58.0268 46.6463C58.0268 47.9181 56.9958 48.9492 55.7239 48.9492C54.6103 48.9492 53.6812 48.1586 53.4674 47.1081H46.0047C45.7909 48.1586 44.8619 48.9492 43.7482 48.9492C42.4763 48.9492 41.4453 47.9181 41.4453 46.6463C41.4453 46.0186 41.6965 45.4495 42.1037 45.0342C41.6965 44.6188 41.4453 44.0497 41.4453 43.422C41.4453 42.1502 42.4763 41.1191 43.7482 41.1191C45.02 41.1191 46.0511 42.1502 46.0511 43.422Z" fill="white"/>
</g>
<g filter="url(#filter5_i_3952_110652)">
<path d="M30.5273 41.3445L47.8749 27.5034C49.0995 26.5263 50.836 26.5218 52.0657 27.4926L69.6114 41.3445" stroke="#EA8146" stroke-width="6.22811" stroke-linecap="round" stroke-linejoin="round"/>
</g>
<rect x="10.1367" y="18.2607" width="79.0839" height="55.7366" rx="6.60357" fill="#664B16" fill-opacity="0.4"/>
<rect x="9.724" y="17.848" width="79.9094" height="56.562" rx="7.01629" stroke="black" stroke-opacity="0.2" stroke-width="0.825446"/>
<circle cx="77.9663" cy="70.894" r="18.979" fill="#EAF0F5"/>
<circle cx="77.9706" cy="70.8949" r="15.9623" fill="#5DAAAA"/>
<g filter="url(#filter6_d_3952_110652)">
<g filter="url(#filter7_i_3952_110652)">
<rect x="76.7183" y="75.0537" width="3.08603" height="3.85754" fill="#EAEAEA"/>
</g>
<g filter="url(#filter8_i_3952_110652)">
<circle cx="78.2614" cy="68.882" r="6.94357" fill="white"/>
</g>
<circle cx="78.2613" cy="68.8819" r="3.08603" fill="#1F303F"/>
<path fill-rule="evenodd" clip-rule="evenodd" d="M75.9629 70.9374C76.528 71.5696 77.3498 71.9676 78.2645 71.9676C79.9688 71.9676 81.3505 70.5859 81.3505 68.8816C81.3505 67.9929 80.9749 67.192 80.3738 66.6289L76.2459 71.1933L75.9629 70.9374Z" fill="white" fill-opacity="0.1"/>
<circle cx="78.2613" cy="68.8819" r="2.7129" stroke="#CDD8E2" stroke-width="0.746269"/>
<rect x="72.8608" y="77.3945" width="10.8011" height="1.54302" rx="0.771508" fill="#FDFDFD"/>
</g>
<defs>
<filter id="filter0_i_3952_110652" x="6.00928" y="12.5432" width="87.3384" height="65.5818" filterUnits="userSpaceOnUse" color-interpolation-filters="sRGB">
<feFlood flood-opacity="0" result="BackgroundImageFix"/>
<feBlend mode="normal" in="SourceGraphic" in2="BackgroundImageFix" result="shape"/>
<feColorMatrix in="SourceAlpha" type="matrix" values="0 0 0 0 0 0 0 0 0 0 0 0 0 0 0 0 0 0 127 0" result="hardAlpha"/>
<feOffset dy="-1.59062"/>
<feGaussianBlur stdDeviation="0.795311"/>
<feComposite in2="hardAlpha" operator="arithmetic" k2="-1" k3="1"/>
<feColorMatrix type="matrix" values="0 0 0 0 0.299973 0 0 0 0 0.684863 0 0 0 0 0.635428 0 0 0 0.9 0"/>
<feBlend mode="normal" in2="shape" result="effect1_innerShadow_3952_110652"/>
</filter>
<filter id="filter1_f_3952_110652" x="21.5645" y="61.707" width="56.3994" height="9.22949" filterUnits="userSpaceOnUse" color-interpolation-filters="sRGB">
<feFlood flood-opacity="0" result="BackgroundImageFix"/>
<feBlend mode="normal" in="SourceGraphic" in2="BackgroundImageFix" result="shape"/>
<feGaussianBlur stdDeviation="1.71777" result="effect1_foregroundBlur_3952_110652"/>
</filter>
<filter id="filter2_i_3952_110652" x="31.6211" y="28.3457" width="36.6821" height="39.634" filterUnits="userSpaceOnUse" color-interpolation-filters="sRGB">
<feFlood flood-opacity="0" result="BackgroundImageFix"/>
<feBlend mode="normal" in="SourceGraphic" in2="BackgroundImageFix" result="shape"/>
<feColorMatrix in="SourceAlpha" type="matrix" values="0 0 0 0 0 0 0 0 0 0 0 0 0 0 0 0 0 0 127 0" result="hardAlpha"/>
<feOffset dy="3.55892"/>
<feGaussianBlur stdDeviation="0.88973"/>
<feComposite in2="hardAlpha" operator="arithmetic" k2="-1" k3="1"/>
<feColorMatrix type="matrix" values="0 0 0 0 0.0958496 0 0 0 0 0.0958496 0 0 0 0 0.0958496 0 0 0 0.04 0"/>
<feBlend mode="normal" in2="shape" result="effect1_innerShadow_3952_110652"/>
</filter>
<filter id="filter3_i_3952_110652" x="42.9751" y="51.7891" width="15.3087" height="15.3009" filterUnits="userSpaceOnUse" color-interpolation-filters="sRGB">
<feFlood flood-opacity="0" result="BackgroundImageFix"/>
<feBlend mode="normal" in="SourceGraphic" in2="BackgroundImageFix" result="shape"/>
<feColorMatrix in="SourceAlpha" type="matrix" values="0 0 0 0 0 0 0 0 0 0 0 0 0 0 0 0 0 0 127 0" result="hardAlpha"/>
<feOffset dx="1.33459" dy="0.88973"/>
<feGaussianBlur stdDeviation="0.88973"/>
<feComposite in2="hardAlpha" operator="arithmetic" k2="-1" k3="1"/>
<feColorMatrix type="matrix" values="0 0 0 0 0 0 0 0 0 0 0 0 0 0 0 0 0 0 0.25 0"/>
<feBlend mode="normal" in2="shape" result="effect1_innerShadow_3952_110652"/>
</filter>
<filter id="filter4_i_3952_110652" x="41.4453" y="40.2294" width="16.5815" height="8.71981" filterUnits="userSpaceOnUse" color-interpolation-filters="sRGB">
<feFlood flood-opacity="0" result="BackgroundImageFix"/>
<feBlend mode="normal" in="SourceGraphic" in2="BackgroundImageFix" result="shape"/>
<feColorMatrix in="SourceAlpha" type="matrix" values="0 0 0 0 0 0 0 0 0 0 0 0 0 0 0 0 0 0 127 0" result="hardAlpha"/>
<feOffset dy="-0.88973"/>
<feGaussianBlur stdDeviation="0.88973"/>
<feComposite in2="hardAlpha" operator="arithmetic" k2="-1" k3="1"/>
<feColorMatrix type="matrix" values="0 0 0 0 0 0 0 0 0 0 0 0 0 0 0 0 0 0 0.16 0"/>
<feBlend mode="normal" in2="shape" result="effect1_innerShadow_3952_110652"/>
</filter>
<filter id="filter5_i_3952_110652" x="27.4131" y="22.3187" width="45.7574" height="22.1403" filterUnits="userSpaceOnUse" color-interpolation-filters="sRGB">
<feFlood flood-opacity="0" result="BackgroundImageFix"/>
<feBlend mode="normal" in="SourceGraphic" in2="BackgroundImageFix" result="shape"/>
<feColorMatrix in="SourceAlpha" type="matrix" values="0 0 0 0 0 0 0 0 0 0 0 0 0 0 0 0 0 0 127 0" result="hardAlpha"/>
<feOffset dx="0.444865" dy="-1.33459"/>
<feGaussianBlur stdDeviation="0.88973"/>
<feComposite in2="hardAlpha" operator="arithmetic" k2="-1" k3="1"/>
<feColorMatrix type="matrix" values="0 0 0 0 0.794124 0 0 0 0 0.368525 0 0 0 0 0.127817 0 0 0 1 0"/>
<feBlend mode="normal" in2="shape" result="effect1_innerShadow_3952_110652"/>
</filter>
<filter id="filter6_d_3952_110652" x="69.334" y="59.9546" width="17.855" height="20.9668" filterUnits="userSpaceOnUse" color-interpolation-filters="sRGB">
<feFlood flood-opacity="0" result="BackgroundImageFix"/>
<feColorMatrix in="SourceAlpha" type="matrix" values="0 0 0 0 0 0 0 0 0 0 0 0 0 0 0 0 0 0 127 0" result="hardAlpha"/>
<feOffset/>
<feGaussianBlur stdDeviation="0.991938"/>
<feComposite in2="hardAlpha" operator="out"/>
<feColorMatrix type="matrix" values="0 0 0 0 0 0 0 0 0 0 0 0 0 0 0 0 0 0 0.08 0"/>
<feBlend mode="normal" in2="BackgroundImageFix" result="effect1_dropShadow_3952_110652"/>
<feBlend mode="normal" in="SourceGraphic" in2="effect1_dropShadow_3952_110652" result="shape"/>
</filter>
<filter id="filter7_i_3952_110652" x="75.9468" y="75.0537" width="3.85745" height="3.85742" filterUnits="userSpaceOnUse" color-interpolation-filters="sRGB">
<feFlood flood-opacity="0" result="BackgroundImageFix"/>
<feBlend mode="normal" in="SourceGraphic" in2="BackgroundImageFix" result="shape"/>
<feColorMatrix in="SourceAlpha" type="matrix" values="0 0 0 0 0 0 0 0 0 0 0 0 0 0 0 0 0 0 127 0" result="hardAlpha"/>
<feOffset dx="-0.771508"/>
<feGaussianBlur stdDeviation="0.385754"/>
<feComposite in2="hardAlpha" operator="arithmetic" k2="-1" k3="1"/>
<feColorMatrix type="matrix" values="0 0 0 0 0 0 0 0 0 0 0 0 0 0 0 0 0 0 0.12 0"/>
<feBlend mode="normal" in2="shape" result="effect1_innerShadow_3952_110652"/>
</filter>
<filter id="filter8_i_3952_110652" x="70.5464" y="61.167" width="14.6587" height="14.6582" filterUnits="userSpaceOnUse" color-interpolation-filters="sRGB">
<feFlood flood-opacity="0" result="BackgroundImageFix"/>
<feBlend mode="normal" in="SourceGraphic" in2="BackgroundImageFix" result="shape"/>
<feColorMatrix in="SourceAlpha" type="matrix" values="0 0 0 0 0 0 0 0 0 0 0 0 0 0 0 0 0 0 127 0" result="hardAlpha"/>
<feOffset dx="-0.771508" dy="-0.771508"/>
<feGaussianBlur stdDeviation="1.54302"/>
<feComposite in2="hardAlpha" operator="arithmetic" k2="-1" k3="1"/>
<feColorMatrix type="matrix" values="0 0 0 0 0 0 0 0 0 0 0 0 0 0 0 0 0 0 0.2 0"/>
<feBlend mode="normal" in2="shape" result="effect1_innerShadow_3952_110652"/>
</filter>
<linearGradient id="paint0_linear_3952_110652" x1="27.1181" y1="18.2607" x2="78.2469" y2="70.7973" gradientUnits="userSpaceOnUse">
<stop stop-color="#4A4A4A"/>
<stop offset="1" stop-color="#333333"/>
</linearGradient>
<linearGradient id="paint1_linear_3952_110652" x1="43.1935" y1="35.2235" x2="62.8447" y2="66.0104" gradientUnits="userSpaceOnUse">
<stop offset="0.330013" stop-color="#EB9A3B"/>
<stop offset="0.722514" stop-color="#E28440"/>
</linearGradient>
</defs>
</svg>
