<?xml version="1.0" encoding="utf-8"?>
<!-- Generator: Adobe Illustrator 26.4.1, SVG Export Plug-In . SVG Version: 6.00 Build 0)  -->
<svg version="1.1" id="Layer_1" xmlns="http://www.w3.org/2000/svg" xmlns:xlink="http://www.w3.org/1999/xlink" x="0px" y="0px"
	 viewBox="0 0 20 20" enable-background="new 0 0 20 20" xml:space="preserve">
<path d="M18.4,5.8c-0.2-0.8-0.8-1.3-1.6-1.6C15.5,3.8,10,3.8,10,3.8s-5.5,0-6.9,0.4C2.4,4.4,1.8,5,1.6,5.8C1.2,7.1,1.2,10,1.2,10
	s0,2.9,0.4,4.2c0.2,0.8,0.8,1.3,1.6,1.6c1.4,0.4,6.9,0.4,6.9,0.4s5.5,0,6.9-0.4c0.8-0.2,1.3-0.8,1.6-1.6c0.4-1.4,0.4-4.2,0.4-4.2
	S18.8,7.1,18.4,5.8z M8.2,12.6V7.4l4.6,2.6L8.2,12.6z"/>
</svg>
