<?xml version="1.0" encoding="utf-8"?>
<!-- Generator: Adobe Illustrator 26.4.1, SVG Export Plug-In . SVG Version: 6.00 Build 0)  -->
<svg version="1.1" id="Layer_1" xmlns="http://www.w3.org/2000/svg" xmlns:xlink="http://www.w3.org/1999/xlink" x="0px" y="0px"
	 viewBox="0 0 20 20" enable-background="new 0 0 20 20" xml:space="preserve">
<path d="M13.5,7.3c-1.7,0.1-3.1,0.6-4.3,1.8s-1.7,2.7-1.6,4.5c-0.7-0.1-1.2-0.2-1.8-0.2c-0.2,0-0.5,0-0.6,0.1
	c-0.6,0.3-1.1,0.7-1.8,1.1C3.5,14,3.5,13.5,3.7,13c0.1-0.3,0.1-0.5-0.3-0.8c-2-1.5-2.9-3.6-2.2-5.9c0.6-2.1,2-3.3,4-4
	c2.7-0.9,5.7,0,7.3,2.2C13.1,5.3,13.4,6.2,13.5,7.3z M5.8,6.6c0-0.4-0.3-0.8-0.7-0.8c-0.4,0-0.8,0.3-0.8,0.7c0,0.4,0.3,0.8,0.7,0.8
	C5.4,7.3,5.8,7,5.8,6.6z M9.8,5.8C9.4,5.8,9,6.2,9,6.6s0.3,0.8,0.8,0.8c0.4,0,0.7-0.3,0.7-0.8C10.6,6.1,10.2,5.8,9.8,5.8z"/>
<path d="M17.3,18c-0.5-0.2-1-0.6-1.5-0.7s-1.1,0.3-1.6,0.3c-1.6,0.2-3.1-0.3-4.3-1.5c-2.3-2.2-2-5.6,0.7-7.4
	c2.4-1.6,5.8-1.1,7.5,1.2c1.5,1.9,1.3,4.5-0.5,6.1c-0.5,0.5-0.7,0.9-0.4,1.5C17.2,17.7,17.2,17.9,17.3,18z M11.2,12
	c0.3,0,0.6-0.3,0.6-0.6c0-0.4-0.3-0.7-0.6-0.7s-0.6,0.3-0.6,0.7C10.6,11.7,10.9,12,11.2,12z M15.1,10.7c-0.3,0-0.6,0.3-0.6,0.6
	c0,0.4,0.3,0.7,0.6,0.7s0.6-0.3,0.6-0.6C15.7,11,15.5,10.7,15.1,10.7z"/>
</svg>
