<?xml version="1.0" encoding="utf-8"?>
<!-- Generator: Adobe Illustrator 26.4.1, SVG Export Plug-In . SVG Version: 6.00 Build 0)  -->
<svg version="1.1" id="Layer_1" xmlns="http://www.w3.org/2000/svg" xmlns:xlink="http://www.w3.org/1999/xlink" x="0px" y="0px"
	 viewBox="0 0 20 20" enable-background="new 0 0 20 20" xml:space="preserve">
<path fill-rule="evenodd" clip-rule="evenodd" d="M10,5.1C4.5,5.1,0,7.3,0,10s4.5,4.9,10,4.9s10-2.2,10-4.9S15.5,5.1,10,5.1z M9,6.2
	c1.1-0.4,4.5,0,5.8,0.7c0.4,0.4-1.9,1.6-4.6,2.3C6.4,9.9,8.2,6.8,9,6.2z M2.3,12L2.3,12c-0.9-0.5-2.5-2.3,0.3-4.2
	c1.4-0.9,2.3-1.1,3.3-1.2c0.4-0.1,0.9,0,0.4,0.4c-1,0.9-3,4.1-3.1,4.7C3.1,12.3,2.9,12.4,2.3,12z M10.3,14.1
	c-1.6,0.2-5.3-0.3-5.4-0.9c0.1-1.1,5.8-3.1,6.8-2C12.3,12.1,11.4,14,10.3,14.1z M18.8,10.8c-0.4,1-1.9,2.1-4.8,2.7
	c-0.4,0.1-0.7-0.2-0.3-0.4c0.4-0.3,2.9-4.3,3.2-5.1c0.2-0.4,0.5-0.2,0.8-0.1C18.5,8.6,19.1,9.6,18.8,10.8L18.8,10.8z"/>
</svg>
