<?xml version="1.0" encoding="utf-8"?>
<!-- Generator: Adobe Illustrator 26.4.1, SVG Export Plug-In . SVG Version: 6.00 Build 0)  -->
<svg version="1.1" id="Layer_1" xmlns="http://www.w3.org/2000/svg" xmlns:xlink="http://www.w3.org/1999/xlink" x="0px" y="0px"
	 viewBox="0 0 20 20" enable-background="new 0 0 20 20" xml:space="preserve">
<path d="M18.4,6.5c-0.1-3.1-1.8-4.8-4.9-4.9c-0.9,0-1.2-0.1-3.5-0.1s-2.6,0-3.5,0.1C3.4,1.7,1.7,3.4,1.6,6.5c0,0.9-0.1,1.2-0.1,3.5
	s0,2.6,0.1,3.5c0.1,3.1,1.9,4.8,4.9,4.9c0.9,0,1.2,0.1,3.5,0.1s2.6,0,3.5-0.1c3.1-0.1,4.8-1.9,4.9-4.9c0-0.9,0.1-1.2,0.1-3.5
	S18.5,7.4,18.4,6.5z M16.9,13.4c-0.1,2.3-1.2,3.4-3.5,3.5c-0.9,0-1.2,0-3.4,0c-2.3,0-2.5,0-3.4,0c-2.3-0.1-3.4-1.2-3.5-3.5
	c0-0.9,0-1.2,0-3.4c0-2.3,0-2.5,0-3.4c0.1-2.3,1.2-3.4,3.5-3.5c0.9,0,1.2,0,3.4,0s2.5,0,3.4,0c2.3,0.1,3.4,1.2,3.5,3.5
	c0,0.9,0,1.2,0,3.4C17,12.3,16.9,12.5,16.9,13.4z"/>
<path d="M10,5.6c-2.4,0-4.4,2-4.4,4.4s2,4.4,4.4,4.4s4.4-2,4.4-4.4C14.4,7.6,12.4,5.6,10,5.6z M10,12.8c-1.6,0-2.8-1.3-2.8-2.8
	c0-1.6,1.3-2.8,2.8-2.8s2.8,1.3,2.8,2.8C12.8,11.6,11.6,12.8,10,12.8z"/>
<path d="M14.5,4.5c-0.6,0-1,0.5-1,1s0.5,1,1,1c0.6,0,1-0.5,1-1S15.1,4.5,14.5,4.5z"/>
</svg>
