<?xml version="1.0" encoding="utf-8"?>
<!-- Generator: Adobe Illustrator 25.0.0, SVG Export Plug-In . SVG Version: 6.00 Build 0)  -->
<svg version="1.1" id="Layer_1" xmlns="http://www.w3.org/2000/svg" xmlns:xlink="http://www.w3.org/1999/xlink" x="0px" y="0px"
	 viewBox="0 0 16 16" style="enable-background:new 0 0 16 16;" xml:space="preserve">
<style type="text/css">
	.st0{fill:#676767;}
	.st1{fill:#AAAAAA;}
</style>
<path class="st0" d="M12.4,1.3C8.8-1.1,3.8-0.1,1.3,3.5C0.1,5.4,0.6,7.9,2.4,9.1C4.3,10.3,6.8,9.8,8,8s3.7-2.3,5.6-1.2
	c1.8,1.3,2.3,3.8,1.1,5.6C17.1,8.8,16.1,3.8,12.4,1.3z"/>
<path class="st1" d="M3.6,14.7c3.7,2.5,8.6,1.5,11.1-2.2c1.2-1.9,0.8-4.4-1.1-5.6S9.2,6.2,8,8s-3.7,2.3-5.5,1.2
	C0.7,7.9,0.2,5.4,1.4,3.6C-1.1,7.2-0.1,12.2,3.6,14.7z"/>
</svg>
