<?xml version="1.0" encoding="utf-8"?>
<!-- Generator: Adobe Illustrator 25.0.0, SVG Export Plug-In . SVG Version: 6.00 Build 0)  -->
<svg version="1.1" id="Layer_1" xmlns="http://www.w3.org/2000/svg" xmlns:xlink="http://www.w3.org/1999/xlink" x="0px" y="0px"
	 viewBox="0 0 16 16" style="enable-background:new 0 0 16 16;" xml:space="preserve">
<style type="text/css">
	.st0{fill:#676767;}
	.st1{fill:#FFFFFF;}
</style>
<rect class="st0" width="16" height="16"/>
<path class="st1" d="M4.3,3.6l0.5,1.5h1.6L5.1,6l0.5,1.5L4.3,6.6L3.1,7.6L3.5,6L2.2,5.1h1.6L4.3,3.6z"/>
<path class="st1" d="M9.5,6.5L9.6,7l0.5,0L9.8,7.3l0.2,0.5L9.5,7.5L9.1,7.9l0.1-0.5L8.8,7l0.5,0L9.5,6.5z"/>
<path class="st1" d="M9.2,4.4l0.4,0.4L10,4.5L9.8,5l0.4,0.4L9.6,5.3L9.4,5.8L9.3,5.2L8.8,5.2l0.5-0.2L9.2,4.4z"/>
<path class="st1" d="M7.5,3.1L8,3.3l0.4-0.4l0,0.5l0.5,0.2L8.2,3.8l0,0.5L7.9,3.9L7.4,4l0.4-0.4L7.5,3.1z"/>
<path class="st1" d="M8.3,8l0,0.5l0.5,0.2L8.2,8.9l0,0.5L7.9,9L7.4,9.1l0.3-0.4L7.4,8.3l0.5,0.2L8.3,8z"/>
</svg>
