<?xml version="1.0" encoding="utf-8"?>
<!-- Generator: Adobe Illustrator 25.0.0, SVG Export Plug-In . SVG Version: 6.00 Build 0)  -->
<svg version="1.1" id="Layer_1" xmlns="http://www.w3.org/2000/svg" xmlns:xlink="http://www.w3.org/1999/xlink" x="0px" y="0px"
	 viewBox="0 0 16 16" style="enable-background:new 0 0 16 16;" xml:space="preserve">
<style type="text/css">
	.st0{fill:#676767;}
	.st1{fill:#FFFFFF;}
</style>
<path class="st0" d="M16,14.8H0V16h16V14.8z"/>
<path class="st1" d="M16,13.5H0v1.2h16V13.5z"/>
<path class="st0" d="M16,12.3H0v1.2h16V12.3z"/>
<path class="st1" d="M16,11.1H0v1.2h16V11.1z"/>
<path class="st0" d="M16,9.8H0v1.2h16V9.8z"/>
<path class="st1" d="M16,8.6H0v1.2h16V8.6z"/>
<path class="st0" d="M16,7.4H8.1v1.2H16V7.4z"/>
<path class="st1" d="M16,6.2H8.1v1.2H16V6.2z"/>
<path class="st0" d="M16,4.9H8.1v1.2H16V4.9z"/>
<path class="st1" d="M16,3.7H8.1v1.2H16V3.7z"/>
<path class="st0" d="M16,2.5H8.1v1.2H16V2.5z"/>
<path class="st1" d="M16,1.2H8.1v1.2H16V1.2z"/>
<path class="st0" d="M16,0H8.1v1.2H16V0z"/>
<path class="st0" d="M8.1,0H0v8.6h8.1V0z"/>
<g>
	<path class="st1" d="M0.7,1.2l0.1-0.3L0.6,0.7h0.3L1,0.4l0.1,0.3h0.3L1.1,0.9l0.1,0.3L1,1L0.7,1.2z"/>
	<path class="st1" d="M1.7,2.1l0.1-0.3L1.6,1.6h0.3L2,1.3l0.1,0.3h0.3L2.2,1.8l0.1,0.3L2,1.9L1.7,2.1z"/>
	<path class="st1" d="M2.8,1.2l0.1-0.3L2.6,0.7h0.3L3,0.4l0.1,0.3h0.3L3.2,0.9l0.1,0.3L3,1L2.8,1.2z"/>
	<path class="st1" d="M3.8,2.1l0.1-0.3L3.6,1.6h0.3L4,1.3l0.1,0.3h0.3L4.2,1.8l0.1,0.3L4,1.9L3.8,2.1z"/>
	<path class="st1" d="M4.8,1.2l0.1-0.3L4.6,0.7h0.3L5,0.4l0.1,0.3h0.3L5.2,0.9l0.1,0.3L5,1L4.8,1.2z"/>
	<path class="st1" d="M5.8,2.1l0.1-0.3L5.6,1.6H6L6,1.3l0.1,0.3h0.3L6.2,1.8l0.1,0.3L6,1.9L5.8,2.1z"/>
	<path class="st1" d="M6.8,1.2l0.1-0.3L6.7,0.7H7l0.1-0.3l0.1,0.3h0.3L7.2,0.9l0.1,0.3L7.1,1L6.8,1.2z"/>
	<path class="st1" d="M0.7,2.9l0.1-0.3L0.6,2.5h0.3L1,2.2l0.1,0.3h0.3L1.1,2.6l0.1,0.3L1,2.7L0.7,2.9z"/>
	<path class="st1" d="M1.7,3.8l0.1-0.3L1.6,3.3h0.3L2,3l0.1,0.3h0.3L2.2,3.5l0.1,0.3L2,3.6L1.7,3.8z"/>
	<path class="st1" d="M2.8,2.9l0.1-0.3L2.6,2.5h0.3L3,2.2l0.1,0.3h0.3L3.2,2.6l0.1,0.3L3,2.7L2.8,2.9z"/>
	<path class="st1" d="M3.8,3.8l0.1-0.3L3.6,3.3h0.3L4,3l0.1,0.3h0.3L4.2,3.5l0.1,0.3L4,3.6L3.8,3.8z"/>
	<path class="st1" d="M4.8,2.9l0.1-0.3L4.6,2.5h0.3L5,2.2l0.1,0.3h0.3L5.2,2.6l0.1,0.3L5,2.7L4.8,2.9z"/>
	<path class="st1" d="M5.8,3.8l0.1-0.3L5.6,3.3H6L6,3l0.1,0.3h0.3L6.2,3.5l0.1,0.3L6,3.6L5.8,3.8z"/>
	<path class="st1" d="M6.8,2.9l0.1-0.3L6.7,2.5H7l0.1-0.3l0.1,0.3h0.3L7.2,2.6l0.1,0.3L7.1,2.7L6.8,2.9z"/>
	<path class="st1" d="M0.7,4.7l0.1-0.3L0.6,4.2h0.3L1,3.9l0.1,0.3h0.3L1.1,4.4l0.1,0.3L1,4.5L0.7,4.7z"/>
	<path class="st1" d="M1.7,5.5l0.1-0.3L1.6,5h0.3L2,4.7L2.1,5h0.3L2.2,5.2l0.1,0.3L2,5.3L1.7,5.5z"/>
	<path class="st1" d="M2.8,4.7l0.1-0.3L2.6,4.2h0.3L3,3.9l0.1,0.3h0.3L3.2,4.4l0.1,0.3L3,4.5L2.8,4.7z"/>
	<path class="st1" d="M3.8,5.5l0.1-0.3L3.6,5h0.3L4,4.7L4.1,5h0.3L4.2,5.2l0.1,0.3L4,5.3L3.8,5.5z"/>
	<path class="st1" d="M4.8,4.7l0.1-0.3L4.6,4.2h0.3L5,3.9l0.1,0.3h0.3L5.2,4.4l0.1,0.3L5,4.5L4.8,4.7z"/>
	<path class="st1" d="M5.8,5.5l0.1-0.3L5.6,5H6L6,4.7L6.1,5h0.3L6.2,5.2l0.1,0.3L6,5.3L5.8,5.5z"/>
	<path class="st1" d="M6.8,4.7l0.1-0.3L6.7,4.2H7l0.1-0.3l0.1,0.3h0.3L7.2,4.4l0.1,0.3L7.1,4.5L6.8,4.7z"/>
	<path class="st1" d="M0.7,6.4l0.1-0.3L0.6,5.9h0.3L1,5.6l0.1,0.3h0.3L1.1,6.1l0.1,0.3L1,6.2L0.7,6.4z"/>
	<path class="st1" d="M1.7,7.2l0.1-0.3L1.6,6.8h0.3L2,6.5l0.1,0.3h0.3L2.2,6.9l0.1,0.3L2,7.1L1.7,7.2z"/>
	<path class="st1" d="M2.8,6.4l0.1-0.3L2.6,5.9h0.3L3,5.6l0.1,0.3h0.3L3.2,6.1l0.1,0.3L3,6.2L2.8,6.4z"/>
	<path class="st1" d="M3.8,7.2l0.1-0.3L3.6,6.8h0.3L4,6.5l0.1,0.3h0.3L4.2,6.9l0.1,0.3L4,7.1L3.8,7.2z"/>
	<path class="st1" d="M4.8,6.4l0.1-0.3L4.6,5.9h0.3L5,5.6l0.1,0.3h0.3L5.2,6.1l0.1,0.3L5,6.2L4.8,6.4z"/>
	<path class="st1" d="M5.8,7.2l0.1-0.3L5.6,6.8H6L6,6.5l0.1,0.3h0.3L6.2,6.9l0.1,0.3L6,7.1L5.8,7.2z"/>
	<path class="st1" d="M6.8,6.4l0.1-0.3L6.7,5.9H7l0.1-0.3l0.1,0.3h0.3L7.2,6.1l0.1,0.3L7.1,6.2L6.8,6.4z"/>
	<path class="st1" d="M0.7,8.1l0.1-0.3L0.6,7.6h0.3L1,7.3l0.1,0.3h0.3L1.1,7.8l0.1,0.3L1,7.9L0.7,8.1z"/>
	<path class="st1" d="M2.8,8.1l0.1-0.3L2.6,7.6h0.3L3,7.3l0.1,0.3h0.3L3.2,7.8l0.1,0.3L3,7.9L2.8,8.1z"/>
	<path class="st1" d="M4.8,8.1l0.1-0.3L4.6,7.6h0.3L5,7.3l0.1,0.3h0.3L5.2,7.8l0.1,0.3L5,7.9L4.8,8.1z"/>
	<path class="st1" d="M6.8,8.1l0.1-0.3L6.7,7.6H7l0.1-0.3l0.1,0.3h0.3L7.2,7.8l0.1,0.3L7.1,7.9L6.8,8.1z"/>
	<polygon class="st1" points="0.1,1.8 0.4,1.6 0.1,1.6 0,1.4 0,1.9 0.2,2.1 	"/>
	<polygon class="st1" points="0.1,3.5 0.4,3.3 0.1,3.3 0,3.1 0,3.6 0.2,3.8 	"/>
	<polygon class="st1" points="0.1,5.2 0.4,5 0.1,5 0,4.8 0,5.3 0.2,5.5 	"/>
	<polygon class="st1" points="0.1,6.9 0.4,6.8 0.1,6.8 0,6.5 0,7.1 0.2,7.2 	"/>
</g>
</svg>
