<?xml version="1.0" encoding="utf-8"?>
<!-- Generator: Adobe Illustrator 25.0.0, SVG Export Plug-In . SVG Version: 6.00 Build 0)  -->
<svg version="1.1" id="Layer_1" xmlns="http://www.w3.org/2000/svg" xmlns:xlink="http://www.w3.org/1999/xlink" x="0px" y="0px"
	 viewBox="0 0 16 16" style="enable-background:new 0 0 16 16;" xml:space="preserve">
<style type="text/css">
	.st0{fill:#003E78;}
	.st1{fill:#D70825;}
</style>
<path class="st0" d="M1.3,3.6C0.1,5.4,0.6,7.9,2.4,9.1C4.3,10.3,6.8,9.8,8,8c1.2-1.8,3.7-2.3,5.6-1.1s2.3,3.7,1.1,5.6
	c-2.5,3.7-7.4,4.7-11.1,2.2C-0.1,12.2-1.1,7.2,1.3,3.6z"/>
<path class="st1" d="M14.6,12.4c1.2-1.8,0.7-4.3-1.1-5.6C11.7,5.7,9.2,6.2,8,8c-1.2,1.8-3.7,2.3-5.6,1.1C0.6,7.9,0.1,5.4,1.3,3.6
	c2.5-3.7,7.4-4.7,11.1-2.2C16.1,3.8,17.1,8.8,14.6,12.4z"/>
</svg>
