<?xml version="1.0" encoding="utf-8"?>
<!-- Generator: Adobe Illustrator 25.0.0, SVG Export Plug-In . SVG Version: 6.00 Build 0)  -->
<svg version="1.1" id="Layer_1" xmlns="http://www.w3.org/2000/svg" xmlns:xlink="http://www.w3.org/1999/xlink" x="0px" y="0px"
	 viewBox="0 0 24 24" enable-background="new 0 0 24 24" xml:space="preserve">
<path fill="none" stroke="#000000" d="M17,7c1.1,0,2-0.9,2-2s-0.9-2-2-2s-2,0.9-2,2S15.9,7,17,7z"/>
<path fill="none" stroke="#000000" d="M5,14c1.1,0,2-0.9,2-2s-0.9-2-2-2s-2,0.9-2,2S3.9,14,5,14z"/>
<path fill="none" stroke="#000000" d="M17,21c1.1,0,2-0.9,2-2s-0.9-2-2-2s-2,0.9-2,2S15.9,21,17,21z"/>
<path fill="none" stroke="#000000" d="M6.7,11l8.6-5"/>
<path fill="none" stroke="#000000" d="M15.3,18l-8.6-5"/>
</svg>
