<?xml version="1.0" encoding="utf-8"?>
<!-- Generator: Adobe Illustrator 25.0.0, SVG Export Plug-In . SVG Version: 6.00 Build 0)  -->
<svg version="1.1" id="Layer_1" xmlns="http://www.w3.org/2000/svg" xmlns:xlink="http://www.w3.org/1999/xlink" x="0px" y="0px"
	 viewBox="0 0 32 32" enable-background="new 0 0 32 32" xml:space="preserve">
<path fill="none" stroke="#000000" stroke-width="2" d="M24,9c1.7,0,3-1.3,3-3s-1.3-3-3-3s-3,1.3-3,3S22.3,9,24,9z"/>
<path fill="none" stroke="#000000" stroke-width="2" d="M7,19c1.7,0,3-1.3,3-3s-1.3-3-3-3s-3,1.3-3,3S5.3,19,7,19z"/>
<path fill="none" stroke="#000000" stroke-width="2" d="M24,29c1.7,0,3-1.3,3-3s-1.3-3-3-3s-3,1.3-3,3S22.3,29,24,29z"/>
<path fill="none" stroke="#000000" stroke-width="2" d="M9.6,14.5l11.8-7"/>
<path fill="none" stroke="#000000" stroke-width="2" d="M21.4,24.5l-11.8-7"/>
</svg>
