<?xml version="1.0" encoding="utf-8"?>
<!-- Generator: Adobe Illustrator 25.0.0, SVG Export Plug-In . SVG Version: 6.00 Build 0)  -->
<svg version="1.1" id="Layer_1" xmlns="http://www.w3.org/2000/svg" xmlns:xlink="http://www.w3.org/1999/xlink" x="0px" y="0px"
	 viewBox="0 0 110 110" enable-background="new 0 0 110 110" xml:space="preserve">
<path fill="none" stroke="#000000" stroke-width="3" d="M29,77H11"/>
<path fill="none" stroke="#000000" stroke-width="3" d="M49.5,26.1h19.2V77H45.7"/>
<path fill="none" stroke="#000000" stroke-width="3" d="M68.8,41.2h13.8l9.6,16.5"/>
<path fill="none" stroke="#000000" stroke-width="3" d="M74,77h-5.2"/>
<path fill="none" stroke="#000000" stroke-width="3" d="M68.8,57.7h28.9V77h-6.5"/>
<circle fill="none" stroke="#000000" stroke-width="3" cx="37.1" cy="78.4" r="8.1"/>
<circle fill="none" stroke="#000000" stroke-width="3" cx="82.5" cy="78.4" r="8.1"/>
<path fill="none" stroke="#000000" stroke-width="3" d="M12.4,58.7V38.8"/>
<path fill="none" stroke="#000000" stroke-width="3" d="M16.4,58.7V38.8h6l4-5h14.9l8,6h4v-4h2c2.2,0,4,1.8,4,4V55h-6v-3.7h-4v12.4
	H33.3l-7-5H16.4z"/>
<path fill="none" stroke="#000000" stroke-width="3" d="M12.4,48.8h4"/>
<path fill="none" stroke="#000000" stroke-width="3" d="M29.3,28.9h11.9"/>
<path fill="none" stroke="#000000" stroke-width="3" d="M35.3,28.9v4"/>
<path fill="none" stroke="#000000" stroke-width="3" stroke-miterlimit="3.7221" d="M33.3,41.3l-1.1,0l-0.3,1L30.4,47l-0.7,2h2.1
	h1.1v1.2v4.3l2.7-3.4l3.5-4.4l1.9-2.4h-3.1h-0.3l0.4-0.8l1.2-2.2l-2.5,0L33.3,41.3z"/>
</svg>
