<?xml version="1.0" encoding="utf-8"?>
<!-- Generator: Adobe Illustrator 25.0.0, SVG Export Plug-In . SVG Version: 6.00 Build 0)  -->
<svg version="1.1" id="Layer_1" xmlns="http://www.w3.org/2000/svg" xmlns:xlink="http://www.w3.org/1999/xlink" x="0px" y="0px"
	 viewBox="0 0 110 110" enable-background="new 0 0 110 110" xml:space="preserve">
<path fill="none" stroke="#000000" stroke-width="3" d="M60.6,67.6l0.5,3.4l13.6,13.6V86c0,0.9,1.1,1.3,1.7,0.7l8.7-8.7
	c0.6-0.6,0.2-1.7-0.7-1.7h-1.5L69.3,62.7l-3.4-0.5"/>
<path fill="none" stroke="#000000" stroke-width="3" d="M52.1,19.4L52.1,19.4L52.1,19.4C52,19.4,52,19.4,52.1,19.4
	c-0.1,0-0.1,0-0.2,0c-0.1,0-0.2,0-0.4,0c-0.3,0-0.7,0-1.3,0.1c-1.1,0.1-2.7,0.5-4.7,1.4c-4.1,1.7-10,5.5-17.9,13.4l-0.3,0.3L27.2,35
	l-0.7,4.1l-3.3,0.1l-0.6,0l-0.4,0.4l-3.9,3.9l-1.1,1.1l1.1,1.1l8,8l1.1,1.1l1.1-1.1l3.9-3.9l0.4-0.4l0-0.6l0.1-3.1l4.7-0.2l0.6,0
	l0.4-0.4l5.5-5.5l0.4-0.4l0-0.6l0.2-5.7c0.7-1.3,2.2-3.2,8.6-7l0.9-0.5l-0.2-1l-0.6-3.8l-0.2-1.1L52.1,19.4L52.1,19.4z"/>
<path fill="none" stroke="#000000" stroke-width="3" d="M60.6,67.5L38.2,45.2l5.3-5.3l22.4,22.4L60.6,67.5z"/>
<path fill="none" stroke="#000000" stroke-width="3" d="M56.5,46.3l6.8-6.8c0,0-4.3-7.4,1.9-13.6c4.7-4.7,10.5-4,13.1-3.4
	c0.7,0.2,0.9,1,0.4,1.5l-7,7c-0.4,0.4-0.4,1,0,1.4l6.4,6.4c0.4,0.4,1,0.4,1.4,0l7-7c0.5-0.5,1.3-0.3,1.5,0.4
	c0.6,2.7,1.3,8.5-3.4,13.1c-6.2,6.2-13.6,1.9-13.6,1.9l-6.8,6.8 M43.9,58.9l-19,19c-2.1,2.1-2.1,5.6,0,7.8l0,0
	c2.1,2.1,5.6,2.1,7.8,0l19-19"/>
</svg>
