<?xml version="1.0" encoding="utf-8"?>
<!-- Generator: Adobe Illustrator 25.0.0, SVG Export Plug-In . SVG Version: 6.00 Build 0)  -->
<svg version="1.1" id="Layer_1" xmlns="http://www.w3.org/2000/svg" xmlns:xlink="http://www.w3.org/1999/xlink" x="0px" y="0px"
	 viewBox="0 0 92 92" enable-background="new 0 0 92 92" xml:space="preserve">
<path fill="none" stroke="#000000" stroke-width="2" d="M20.7,59.4l6.5-6.5L46.4,72l-6.5,6.5"/>
<circle cx="27.3" cy="60.4" r="1.7"/>
<path fill="none" stroke="#000000" stroke-width="2" d="M28.8,54.6l3.7-3.3c0.9-0.8,1.4-2.1,1.5-3.3c0.2-2.9,1.1-7,4-9.5l4.6,4
	l10.9-10.9 M71.3,49.5l-14,14c-1,1-2.3,1.6-3.7,1.7l-2.5,0.2c-1.4,0.1-2.7,0.7-3.7,1.7l-3,3"/>
<path fill="none" stroke="#000000" stroke-width="2" d="M52.9,32.2L54,31c1.3-1.3,3.3-1.3,4.6,0l0,0c1.3,1.3,1.3,3.3,0,4.6l-1.1,1.1
	"/>
<path fill="none" stroke="#000000" stroke-width="2" d="M56.4,37.9l2.3-2.3c1.3-1.3,3.3-1.3,4.6,0l0,0c1.3,1.3,1.3,3.3,0,4.6
	l-1.1,1.2"/>
<path fill="none" stroke="#000000" stroke-width="2" d="M60.9,42.6l2.3-2.3c1.3-1.3,3.3-1.3,4.6,0l0,0c1.3,1.3,1.3,3.3,0,4.6
	L66.7,46"/>
<path fill="none" stroke="#000000" stroke-width="2" d="M65.6,47.1l2.6-2.6c1.1-1.1,2.9-1.1,4,0l0,0c1.1,1.1,1.1,2.9,0,4l-0.9,0.9"
	/>
<path fill="none" stroke="#000000" stroke-width="2" d="M37.9,38.2L31.1,38c-1.5,0-3-0.7-4.1-1.8l-2.9-2.9
	c-5.1-5.1-3.3-9.8-1.7-11.5l7.5,7.5l6.3-6.3l-6.9-6.9c1.7-1.3,6.4-2.8,11.5,2.3l2.7,2.7c1.2,1.2,1.9,2.9,1.7,4.7L44.8,31l4.6,4.6"/>
<path fill="none" stroke="#000000" stroke-width="2" d="M67.3,53.5l5.2,5.2c1.9,1.9,1.9,5,0,6.9l0,0c-1.9,1.9-5,1.9-6.9,0l-5.2-5.2"
	/>
</svg>
