<?xml version="1.0" encoding="utf-8"?>
<!-- Generator: Adobe Illustrator 25.0.0, SVG Export Plug-In . SVG Version: 6.00 Build 0)  -->
<svg version="1.1" id="Layer_1" xmlns="http://www.w3.org/2000/svg" xmlns:xlink="http://www.w3.org/1999/xlink" x="0px" y="0px"
	 viewBox="0 0 98 98" enable-background="new 0 0 98 98" xml:space="preserve">
<path fill="none" stroke="#000000" stroke-width="2" d="M11,60.7V34.1"/>
<path fill="none" stroke="#000000" stroke-width="2" d="M11,47.4h5.3"/>
<path fill="none" stroke="#000000" stroke-width="2" d="M33.6,20.8h16"/>
<path fill="none" stroke="#000000" stroke-width="2" d="M41.6,20.8V27"/>
<path fill="none" stroke="#000000" stroke-width="2" d="M40.8,38.4l-0.7,0l-0.2,0.6l-3.2,8.5l-0.5,1.4h1.4h4v3.8v3.1l1.8-2.5
	l5.7-7.9l1.1-1.6h-1.9h-3l1.9-4l0.7-1.4l-1.6,0L40.8,38.4z"/>
<path fill="none" stroke="#000000" stroke-width="2" d="M73.5,40.4v-6.3c0-2.2-1.8-4-4-4h-4v5.3h-5.3l-10.6-8h-20l-5.3,6.6h-8v26.6
	h13.3l9.3,6.6h21.3V50.8h2.2"/>
<polygon points="78.8,48.6 78.8,56.8 66.9,56.8 66.9,44.9 76.9,44.9 79,42.9 64.9,42.9 64.9,58.8 80.8,58.8 80.8,46.7 "/>
<path fill="none" stroke="#000000" stroke-width="2" d="M68.6,49l3.7,3.1l12.2-11.6"/>
<polygon points="78.8,68.2 78.8,76.4 66.9,76.4 66.9,64.5 76.9,64.5 79,62.5 64.9,62.5 64.9,78.4 80.8,78.4 80.8,66.3 "/>
<path fill="none" stroke="#000000" stroke-width="2" d="M68.6,68.6l3.7,3.1L84.5,60"/>
</svg>
