<?xml version="1.0" encoding="utf-8"?>
<!-- Generator: Adobe Illustrator 25.0.0, SVG Export Plug-In . SVG Version: 6.00 Build 0)  -->
<svg version="1.1" id="Layer_1" xmlns="http://www.w3.org/2000/svg" xmlns:xlink="http://www.w3.org/1999/xlink" x="0px" y="0px"
	 viewBox="0 0 92 92" enable-background="new 0 0 92 92" xml:space="preserve">
<path fill="none" stroke="#000000" stroke-width="2" d="M50.7,56.5l0.4,2.8l11.4,11.4v0.8c0,0.9,1.1,1.3,1.7,0.7l6.8-6.8
	c0.6-0.6,0.2-1.7-0.7-1.7h-0.8L58,52.4L55.1,52"/>
<path fill="none" stroke="#000000" stroke-width="2" d="M19.3,33.1l-0.4,0l-0.3,0.3l-3.3,3.3l-0.7,0.7l0.7,0.7l6.7,6.7l0.7,0.7
	l0.7-0.7l3.3-3.3l0.3-0.3l0-0.4l0.1-2.9l4.1-0.1l0.4,0l0.3-0.3l4.6-4.6l0.3-0.3l0-0.4l0.2-4.9c0.6-1.2,1.8-2.8,7.3-6l0.6-0.3
	l-0.1-0.7l-0.5-3.1l-0.1-0.7l-0.7-0.1l-0.2,1c0.2-1,0.2-1,0.2-1l0,0l0,0l0,0c0,0,0,0,0,0c0,0-0.1,0-0.1,0c-0.1,0-0.2,0-0.3,0
	c-0.2,0-0.6,0-1,0.1c-0.9,0.1-2.2,0.4-3.9,1.1c-3.4,1.4-8.3,4.5-14.9,11.2L23,29L23,29.3L22.3,33L19.3,33.1z"/>
<path fill="none" stroke="#000000" stroke-width="2" d="M50.7,56.5L32,37.8l4.5-4.5L55.1,52L50.7,56.5z"/>
<path fill="none" stroke="#000000" stroke-width="2" d="M47.3,38.7L53,33c0,0-3.6-6.2,1.6-11.4c3.8-3.8,8.4-3.4,10.7-2.9
	c0.7,0.2,0.9,1,0.4,1.5l-5.5,5.5c-0.4,0.4-0.4,1,0,1.4l5.1,5.1c0.4,0.4,1,0.4,1.4,0l5.5-5.5c0.5-0.5,1.3-0.3,1.5,0.4
	c0.5,2.3,0.9,7-2.9,10.7c-5.2,5.2-11.4,1.6-11.4,1.6l-5.7,5.7 M36.7,49.3L20.8,65.2c-1.8,1.8-1.8,4.7,0,6.5l0,0
	c1.8,1.8,4.7,1.8,6.5,0l15.9-15.9"/>
</svg>
