<?xml version="1.0" encoding="utf-8"?>
<!-- Generator: Adobe Illustrator 25.0.0, SVG Export Plug-In . SVG Version: 6.00 Build 0)  -->
<svg version="1.1" id="Layer_1" xmlns="http://www.w3.org/2000/svg" xmlns:xlink="http://www.w3.org/1999/xlink" x="0px" y="0px"
	 viewBox="0 0 92 92" enable-background="new 0 0 92 92" xml:space="preserve">
<path fill="none" stroke="#000000" stroke-width="2" d="M21.9,56.3V33.9c0-10.5,8.5-19,19-19h10.3c10.5,0,19,8.5,19,19V58
	c0,10.5-8.5,19-19,19h-7.5"/>
<path fill="none" stroke="#000000" stroke-width="2" d="M43.7,72.1h6.9c1.4,0,2.5,1.1,2.5,2.4v0C53,76,52,77,50.6,77h-6.9
	c-1.4,0-2.5-1.1-2.5-2.4v0C41.2,73.2,42.3,72.1,43.7,72.1z"/>
<path fill="none" stroke="#000000" stroke-width="2" d="M35.6,25.3c0.6,5.8,9.8,21.9,31.6,23 M36.8,31c-3.3,1.3-9.8,7.4-9.8,20.7
	s10.9,18.4,10.9,18.4"/>
<path fill="none" stroke="#000000" stroke-width="2" d="M55.8,68.4c2.9-1.7,8.4-8.2,7.5-20.1"/>
<path fill="none" stroke="#000000" stroke-width="2" d="M70.2,41.5l7.2,1.8v12.2l-7.2,1.8V41.5z"/>
<path fill="none" stroke="#000000" stroke-width="2" d="M21.9,41.5l-7.2,1.8v12.2l7.2,1.8V41.5z"/>
</svg>
