<?xml version="1.0" encoding="utf-8"?>
<!-- Generator: Adobe Illustrator 25.0.0, SVG Export Plug-In . SVG Version: 6.00 Build 0)  -->
<svg version="1.1" id="Layer_1" xmlns="http://www.w3.org/2000/svg" xmlns:xlink="http://www.w3.org/1999/xlink" x="0px" y="0px"
	 viewBox="0 0 96 96" enable-background="new 0 0 96 96" xml:space="preserve">
<path fill="none" stroke="#000000" stroke-width="2" d="M43.2,22.8H60v44.4H9.6"/>
<path fill="none" stroke="#000000" stroke-width="2" d="M60,36h12l8.4,14.4"/>
<path fill="none" stroke="#000000" stroke-width="2" d="M60,50.4h25.2v16.8H60"/>
<circle fill="#FFFFFF" stroke="#000000" stroke-width="2" cx="32.4" cy="68.4" r="7.4"/>
<circle fill="#FFFFFF" stroke="#000000" stroke-width="2" cx="72" cy="68.4" r="7.4"/>
<path fill="none" stroke="#000000" stroke-width="2" d="M10.8,51.2V33.9"/>
<path fill="none" stroke="#000000" stroke-width="2" d="M14.3,51.2V33.9h5.2l3.5-4.3h13l6.9,5.2h3.5v-3.5h1.2c2.2,0,4,1.8,4,4V48
	h-5.2v-3.3h-3.5v10.9H29L23,51.2H14.3z"/>
<path fill="none" stroke="#000000" stroke-width="2" d="M10.8,42.6h3.5"/>
<path fill="none" stroke="#000000" stroke-width="2" d="M25.6,25.2H36"/>
<path fill="none" stroke="#000000" stroke-width="2" d="M30.8,25.2v3.5"/>
<path fill="none" stroke="#000000" stroke-width="2" stroke-miterlimit="3.7221" d="M29.1,36.3l-0.7,0L28.1,37l-1.4,4.1l-0.4,1.3
	h1.4H29v1.3v2.9l1.8-2.2l3-3.8l1.3-1.6h-2.1h-0.8l0.6-1.1l0.8-1.5l-1.7,0L29.1,36.3z"/>
</svg>
