<?xml version="1.0" encoding="utf-8"?>
<!-- Generator: Adobe Illustrator 25.0.0, SVG Export Plug-In . SVG Version: 6.00 Build 0)  -->
<svg version="1.1" id="Layer_1" xmlns="http://www.w3.org/2000/svg" xmlns:xlink="http://www.w3.org/1999/xlink" x="0px" y="0px"
	 viewBox="0 0 110 110" enable-background="new 0 0 110 110" xml:space="preserve">
<path fill="none" stroke="#000000" stroke-width="3" d="M12.4,68.2V38.3"/>
<path fill="none" stroke="#000000" stroke-width="3" d="M12.4,53.2h6"/>
<path fill="none" stroke="#000000" stroke-width="3" d="M37.8,23.4h17.9"/>
<path fill="none" stroke="#000000" stroke-width="3" d="M46.7,23.4v6.9"/>
<path fill="none" stroke="#000000" stroke-width="3" d="M45.8,42.8l-1,0l-0.4,1l-3.6,9.5l-0.8,2h2.2h4.1v3.9v4.7l2.7-3.8l6.4-8.9
	l1.7-2.4h-2.9h-2.8l1.9-3.9l1-2.2l-2.4,0L45.8,42.8z"/>
<path fill="none" stroke="#000000" stroke-width="3" d="M82.5,45.4v-7.5c0-2.2-1.8-4-4-4h-5v6h-6l-11.9-9H33.3l-6,7.5h-9v29.9h14.9
	l10.5,7.5h23.9V57"/>
<rect x="74.4" y="49.6" fill="none" stroke="#000000" stroke-width="3" width="14.9" height="14.9"/>
<path fill="none" stroke="#000000" stroke-width="3" d="M77,55l4.1,3.4l13.8-13.1"/>
<rect x="74.4" y="71.6" fill="none" stroke="#000000" stroke-width="3" width="14.9" height="14.9"/>
<path fill="none" stroke="#000000" stroke-width="3" d="M77,77l4.1,3.4l13.8-13.1"/>
</svg>
