<?xml version="1.0" encoding="utf-8"?>
<!-- Generator: Adobe Illustrator 25.0.0, SVG Export Plug-In . SVG Version: 6.00 Build 0)  -->
<svg version="1.1" id="Layer_1" xmlns="http://www.w3.org/2000/svg" xmlns:xlink="http://www.w3.org/1999/xlink" x="0px" y="0px"
	 viewBox="0 0 110 110" enable-background="new 0 0 110 110" xml:space="preserve">
<path fill="none" stroke="#000000" stroke-width="3" d="M26.1,67.4V40.9c0-12.7,10.3-23,23-23h11.8c12.7,0,23,10.3,23,23v28.2
	c0,12.7-10.3,23-23,23h-8.6"/>
<path fill="none" stroke="#000000" stroke-width="3" d="M52.2,86.8h8.2c1.4,0,2.6,1.2,2.6,2.6l0,0c0,1.4-1.2,2.6-2.6,2.6h-8.2
	c-1.4,0-2.6-1.2-2.6-2.6l0,0C49.6,87.9,50.8,86.8,52.2,86.8z"/>
<path fill="none" stroke="#000000" stroke-width="3" d="M42.6,30.3c0.7,6.9,11.7,26.1,37.8,27.5"/>
<path fill="none" stroke="#000000" stroke-width="3" d="M44,37.1c-3.9,1.6-11.7,8.8-11.7,24.8s13.1,22,13.1,22"/>
<path fill="none" stroke="#000000" stroke-width="3" d="M66.7,81.8c3.4-2.1,10-9.8,8.9-24.1"/>
<path fill="none" stroke="#000000" stroke-width="3" d="M85,50l8,2v14.2l-8,2V50z"/>
<path fill="none" stroke="#000000" stroke-width="3" d="M25.5,50l-8,2v14.2l8,2V50z"/>
</svg>
