<?xml version="1.0" encoding="utf-8"?>
<!-- Generator: Adobe Illustrator 25.0.0, SVG Export Plug-In . SVG Version: 6.00 Build 0)  -->
<svg version="1.1" id="Layer_1" xmlns="http://www.w3.org/2000/svg" xmlns:xlink="http://www.w3.org/1999/xlink" x="0px" y="0px"
	 viewBox="0 0 20 20" enable-background="new 0 0 20 20" xml:space="preserve">
<path d="M10.5,5.3c-0.5,0-1.1,0.1-1.6,0.2V4.3c0,0,0-0.1,0-0.1C8.8,3.6,8.5,3,8.1,2.6C7.6,2.2,7,2,6.4,2C5.8,2,5.2,2.2,4.8,2.6
	C4.3,3,4.1,3.6,4,4.2c0,0,0,4.5,0,4.5v3c0,1.3,0.4,2.5,1.1,3.5c0.7,1,1.7,1.8,2.9,2.3c1.2,0.5,2.5,0.6,3.8,0.3
	c1.3-0.3,2.4-0.9,3.3-1.8c0.9-0.9,1.5-2,1.8-3.3c0.2-1.2,0.1-2.5-0.4-3.7C16,8,15.2,7,14.1,6.3C13,5.6,11.8,5.3,10.5,5.3L10.5,5.3z
	 M10.5,17c-1.5,0-2.9-0.6-3.9-1.6c-1-1-1.6-2.4-1.6-3.8V4.3c0-0.4,0.2-0.7,0.4-1C5.7,3,6,2.9,6.4,2.9c0.4,0,0.8,0.1,1,0.4
	s0.4,0.6,0.4,1v7.3c0,0.7,0.3,1.3,0.8,1.8s1.1,0.8,1.8,0.8c0.4,0,0.8-0.1,1.2-0.3c0.4-0.2,0.7-0.5,0.9-0.8c0.2-0.3,0.4-0.7,0.5-1.1
	c0.1-0.4,0-0.8-0.1-1.2c-0.1-0.4-0.4-0.7-0.7-1c-0.3-0.3-0.7-0.5-1.1-0.6c-0.4-0.1-0.8-0.1-1.2-0.1C9.6,9.2,9.2,9.4,8.9,9.6V8.6
	c0.7-0.3,1.5-0.5,2.2-0.3c0.8,0.1,1.5,0.5,2,1.1c0.5,0.6,0.8,1.3,0.9,2c0.1,0.8-0.1,1.5-0.5,2.2c-0.4,0.6-1,1.1-1.7,1.4
	c-0.7,0.3-1.5,0.3-2.3,0.1c-0.7-0.2-1.4-0.6-1.9-1.2c-0.5-0.6-0.7-1.3-0.7-2.1V4.3c0-0.1-0.1-0.3-0.1-0.3C6.7,3.8,6.6,3.8,6.4,3.8
	c-0.1,0-0.3,0.1-0.4,0.1C6,4,5.9,4.1,5.9,4.3v7.4c0,0.1,0,0.2,0,0.3C6,12.9,6.4,13.8,7,14.5c0.6,0.7,1.4,1.2,2.4,1.4
	c0.9,0.2,1.9,0.2,2.8-0.2c0.9-0.3,1.6-1,2.2-1.7c0.5-0.8,0.8-1.7,0.7-2.6c-0.1-0.9-0.4-1.8-1-2.6c-0.6-0.7-1.4-1.2-2.3-1.5
	c-0.9-0.2-1.9-0.2-2.8,0.1v-1c0.5-0.2,1.1-0.2,1.6-0.2c1.5,0,2.9,0.6,3.9,1.6c1,1,1.6,2.4,1.6,3.8c0,1.4-0.6,2.8-1.6,3.8
	C13.3,16.5,11.9,17,10.5,17L10.5,17z M8.9,11.7c0-0.3,0.1-0.6,0.3-0.9c0.2-0.3,0.4-0.5,0.7-0.6c0.3-0.1,0.6-0.1,0.9-0.1
	c0.3,0.1,0.6,0.2,0.8,0.4c0.2,0.2,0.4,0.5,0.4,0.8c0.1,0.3,0,0.6-0.1,0.9c-0.1,0.3-0.3,0.5-0.6,0.7c-0.3,0.2-0.6,0.3-0.9,0.3
	c-0.2,0-0.4,0-0.6-0.1c-0.2-0.1-0.4-0.2-0.5-0.3c-0.1-0.1-0.3-0.3-0.3-0.5C8.9,12.1,8.9,11.9,8.9,11.7L8.9,11.7z"/>
</svg>
