<?xml version="1.0" encoding="utf-8"?>
<!-- Generator: Adobe Illustrator 25.0.0, SVG Export Plug-In . SVG Version: 6.00 Build 0)  -->
<svg version="1.1" id="Layer_1" xmlns="http://www.w3.org/2000/svg" xmlns:xlink="http://www.w3.org/1999/xlink" x="0px" y="0px"
	 viewBox="0 0 20 20" enable-background="new 0 0 20 20" xml:space="preserve">
<path d="M19,7.5c0.1,1-0.1,2.3-0.8,2.3c-1.1,0.1-0.5-1.1-0.5-1.9c0-2.2-1.7-3.6-3.5-3.6c-0.5,0-1.6,0.3-1.5-0.7
	c0.1-0.5,0.5-0.5,0.9-0.5C16.6,2.6,18.8,4.7,19,7.5z"/>
<path d="M14.2,10c1.3,0.7,2.8,1.1,2.5,3.2c-0.1,0.5-0.4,1.2-0.7,1.6c-2.1,3.1-8.5,4.4-12.5,2C2.2,16,0.8,14.9,1,12.6
	c0.2-2,1.5-3.5,2.7-4.8c1.2-1.2,2.5-2.2,4.2-2.7c1.9-0.5,2.4,1.1,1.9,2.7c1.1-0.1,3.4-1.3,4.4-0.1C14.6,8.3,14.5,9.2,14.2,10z
	 M12.8,15c0.4-0.5,0.8-1.2,0.8-2c0-2.6-3.2-3.5-5.6-3.3c-1.4,0.1-2.3,0.4-3.2,1C4,11.1,3.1,11.8,2.9,13c-0.5,2.6,2.2,3.8,4.2,4
	C9.4,17.1,11.7,16.3,12.8,15z"/>
<path d="M16.5,7.5C16.6,8.3,16.4,9,16,9c-0.7,0.1-0.5-0.5-0.5-1.2c0-0.4-0.4-0.9-0.7-1c-0.6-0.3-1.5,0.2-1.5-0.6
	c0-0.6,0.5-0.5,0.8-0.6C15.4,5.5,16.4,6.4,16.5,7.5z"/>
<path d="M10.6,12.7c1.1,3.4-4.5,4.9-5.5,2c-0.7-1.9,1-3.5,2.7-3.6C9.2,10.9,10.3,11.7,10.6,12.7z M8.1,13.3c0.2,0.4,0.8,0.1,0.7-0.2
	C8.7,12.7,8.1,12.7,8.1,13.3z M7.2,15c0.9-0.2,1.1-2.1-0.4-1.7C5.6,13.6,5.8,15.4,7.2,15z"/>
</svg>
