<?xml version="1.0" encoding="utf-8"?>
<!-- Generator: Adobe Illustrator 25.0.0, SVG Export Plug-In . SVG Version: 6.00 Build 0)  -->
<svg version="1.1" id="Layer_1" xmlns="http://www.w3.org/2000/svg" xmlns:xlink="http://www.w3.org/1999/xlink" x="0px" y="0px"
	 viewBox="0 0 20 20" enable-background="new 0 0 20 20" xml:space="preserve">
<path d="M16.2,6.2c0,0.1,0,0.3,0,0.4c0,1.7-0.5,3.3-1.4,4.8c-0.9,1.4-2.2,2.6-3.8,3.4C9.5,15.7,7.8,16.1,6,16
	c-1.8-0.1-3.5-0.6-5-1.5c0.3,0,0.6,0,0.8,0c1.6,0,3.1-0.5,4.4-1.4c-0.7,0-1.4-0.2-2-0.6s-1-1-1.2-1.6c0.2,0,0.4,0.1,0.7,0.1
	c0.3,0,0.6,0,0.9-0.1c-0.8-0.2-1.5-0.6-2-1.1C2,9.1,1.7,8.4,1.7,7.6v0C2.2,7.8,2.7,8,3.3,8C2.6,7.5,2,6.8,1.8,6
	C1.6,5.2,1.8,4.3,2.2,3.6c0.9,1,2,1.8,3.2,2.4C6.7,6.6,8,7,9.4,7C9.3,6.8,9.3,6.5,9.3,6.3c0-0.7,0.2-1.3,0.6-1.8
	c0.4-0.5,1-1,1.6-1.2c0.6-0.2,1.4-0.3,2-0.1s1.3,0.5,1.8,1c0.8-0.1,1.5-0.4,2.2-0.8C17.3,4,16.7,4.6,16,5.1c0.7-0.1,1.4-0.3,2-0.5
	C17.5,5.2,16.9,5.8,16.2,6.2z"/>
</svg>
