<?xml version="1.0" encoding="utf-8"?>
<!-- Generator: Adobe Illustrator 25.0.0, SVG Export Plug-In . SVG Version: 6.00 Build 0)  -->
<svg version="1.1" id="Layer_1" xmlns="http://www.w3.org/2000/svg" xmlns:xlink="http://www.w3.org/1999/xlink" x="0px" y="0px"
	 viewBox="0 0 20 20" enable-background="new 0 0 20 20" xml:space="preserve">
<path d="M17,16c0-0.1,0-0.1,0-0.2c0-2,0-4,0-6c0-0.8-0.2-1.6-0.7-2.2c-1.2-1.7-4-1.7-5.3,0c-0.1,0.1-0.1,0.1-0.2,0.2l-0.1,0V6.7H8
	V16h2.7v-0.3c0-1.5,0-3,0-4.5c0-0.3,0-0.7,0.1-1C11.1,9.4,11.8,9,12.6,9c0.8,0,1.3,0.5,1.4,1.3c0,0.2,0.1,0.3,0.1,0.5
	c0,1.6,0,3.3,0,4.9V16L17,16z M6.1,16V6.7H3.3V16H6.1z M3,3.7C3,4,3.1,4.4,3.3,4.7c0.2,0.3,0.5,0.5,0.8,0.6s0.7,0.2,1,0.1
	c0.3-0.1,0.6-0.2,0.9-0.5C6.1,4.7,6.3,4.4,6.4,4c0.1-0.3,0-0.7-0.1-1C6.1,2.7,5.9,2.5,5.6,2.3C5.4,2.1,5,2,4.7,2
	C4.5,2,4.3,2,4.1,2.1S3.7,2.3,3.5,2.5C3.3,2.7,3.2,2.9,3.1,3.1C3,3.3,3,3.5,3,3.7z"/>
</svg>
