<?xml version="1.0" encoding="utf-8"?>
<!-- Generator: Adobe Illustrator 25.0.0, SVG Export Plug-In . SVG Version: 6.00 Build 0)  -->
<svg version="1.1" id="Layer_1" xmlns="http://www.w3.org/2000/svg" xmlns:xlink="http://www.w3.org/1999/xlink" x="0px" y="0px"
	 viewBox="0 0 20 20" enable-background="new 0 0 20 20" xml:space="preserve">
<path d="M10.5,15c-0.5,0-0.9,0-1.3-0.1l-3,2.1C6.1,17,6,17,6,17c0,0-0.1,0-0.1,0c0,0-0.1,0-0.1,0c0,0-0.1-0.1-0.1-0.1
	c0,0,0-0.1,0-0.1L6.5,14C4.4,13,3,11.1,3,9c0-3.3,3.4-6,7.5-6C14.6,3,18,5.7,18,9C18,12.3,14.6,15,10.5,15L10.5,15z"/>
</svg>
