<?xml version="1.0" encoding="utf-8"?>
<!-- Generator: Adobe Illustrator 25.0.0, SVG Export Plug-In . SVG Version: 6.00 Build 0)  -->
<svg version="1.1" id="Layer_1" xmlns="http://www.w3.org/2000/svg" xmlns:xlink="http://www.w3.org/1999/xlink" x="0px" y="0px"
	 viewBox="0 0 20 20" enable-background="new 0 0 20 20" xml:space="preserve">
<path fill-rule="evenodd" clip-rule="evenodd" d="M3,4C2.4,4,2,4.4,2,5v1.1l7.7,5.1c0.2,0.1,0.4,0.1,0.6,0L18,6.1V5c0-0.6-0.4-1-1-1
	H3z"/>
<polygon fill-rule="evenodd" clip-rule="evenodd" points="18,7.3 14.1,9.9 18,13 "/>
<path fill-rule="evenodd" clip-rule="evenodd" d="M18,14.2l-4.8-3.8L10.8,12c-0.5,0.3-1.2,0.3-1.7,0l-2.4-1.6L2,14.2V15
	c0,0.6,0.4,1,1,1h14c0.6,0,1-0.4,1-1V14.2z"/>
<polygon fill-rule="evenodd" clip-rule="evenodd" points="2,13 5.9,9.9 2,7.3 "/>
</svg>
