<?xml version="1.0" encoding="utf-8"?>
<!-- Generator: Adobe Illustrator 25.0.0, SVG Export Plug-In . SVG Version: 6.00 Build 0)  -->
<svg version="1.1" id="Layer_1" xmlns="http://www.w3.org/2000/svg" xmlns:xlink="http://www.w3.org/1999/xlink" x="0px" y="0px"
	 viewBox="0 0 20 20" enable-background="new 0 0 20 20" xml:space="preserve">
<path d="M14,9.4c0,1.5-0.4,2.9-1.2,4.2c-0.7,1.3-1.8,2.4-3,3.3c0,0-0.1,0-0.1,0c0,0-0.1,0-0.1,0c-0.1,0-0.1-0.1-0.2-0.1l-2.1-2.2
	c-0.1-0.1-0.1-0.2-0.1-0.2c0-0.1,0-0.1,0-0.2c0,0,0.1-0.1,0.1-0.1c0.6-0.5,1.2-1,1.6-1.6c0.5-0.6,0.7-1.4,0.8-2.2h-3
	c-0.1,0-0.2,0-0.3-0.1c-0.1,0-0.2-0.1-0.3-0.2C6.2,10.1,6.1,10,6.1,9.9C6,9.8,6,9.8,6,9.7V3.7c0-0.1,0-0.2,0.1-0.3
	c0-0.1,0.1-0.2,0.2-0.2c0.1-0.1,0.2-0.1,0.3-0.2C6.6,3,6.7,3,6.8,3h6.4c0.2,0,0.4,0.1,0.6,0.2C13.9,3.3,14,3.5,14,3.7V9.4z"/>
</svg>
