<?xml version="1.0" encoding="utf-8"?>
<!-- Generator: Adobe Illustrator 25.0.0, SVG Export Plug-In . SVG Version: 6.00 Build 0)  -->
<svg version="1.1" id="Layer_1" xmlns="http://www.w3.org/2000/svg" xmlns:xlink="http://www.w3.org/1999/xlink" x="0px" y="0px"
	 viewBox="0 0 180 180" style="enable-background:new 0 0 180 180;" xml:space="preserve">
<style type="text/css">
	.st0{fill-rule:evenodd;clip-rule:evenodd;}
</style>
<path class="st0" d="M112.8,93.3v16.2h-3.3h-9.8h-3.3V86.7h16.3v2l3.3-2.4v-2.9V57.4H96.5h-3.3H75.3h-3.3H54.1h-3.3H31.3v26.1v3.3
	v26.1h6.5v6.5v3.3v4.9h9.8v-4.9v-3.3v-6.5h3.3h3.3h17.9h3.3h17.9h3.3h3.3v6.5v3.3v4.9h9.8v-4.9v-3.3v-6.5h6.5V92L112.8,93.3z
	 M96.5,60.7h16.3v22.8H96.5V60.7z M44.3,124.2h-3.3v-1.6h3.3V124.2z M44.3,119.3h-3.3v-6.5h3.3V119.3z M50.9,109.6H34.6V86.7h16.3
	V109.6z M50.9,83.5H34.6V60.7h16.3V83.5z M72.1,109.6H54.1V86.7h17.9V109.6z M72.1,83.5H54.1V60.7h17.9V83.5z M93.3,109.6H75.3V86.7
	h17.9V109.6z M93.3,83.5H75.3V60.7h17.9V83.5z M106.3,124.2H103v-1.6h3.3V124.2z M106.3,119.3H103v-6.5h3.3V119.3z"/>
<path class="st0" d="M154.8,96.3l-20.3-15.5l-2.6-0.5l0.9-2.5L130,52.5h-6.8l-3.2,25.3l0.9,2.5l-2.6,0.5L97.6,95.9l3.4,5.9l21.3-8.9
	l-1.3,34.6h9.8l-0.7-34.6l21.3,9.3L154.8,96.3z M125.7,90.7l0.6-0.7l0.5,0.6l0.6,28.8h-2.8L125.7,90.7z M124.2,83.5
	c0-0.9,0.7-1.6,1.6-1.6c0.9,0,1.6,0.7,1.6,1.6c0,0.9-0.7,1.6-1.6,1.6C125,85.1,124.2,84.4,124.2,83.5z M122.4,89.3l-20.1,8.4
	l-0.5-0.9l17.6-13l1.5-0.3c0,1.4,0.6,2.6,1.5,3.5L122.4,89.3z M124.4,124.2l0.1-1.6h3l0,1.6H124.4z M128.8,79.5
	C128.8,79.5,128.8,79.5,128.8,79.5c-0.8-0.6-1.8-1-2.9-1c-0.7,0-1.5,0.2-2.1,0.5c0,0,0,0,0,0l-0.6-1.6l2.8-21.7h1l2.4,21.7
	L128.8,79.5z M150,98l-20-8.7l0,0l-0.1-3.1c0,0,0,0,0,0c0.4-0.7,0.7-1.5,0.8-2.3l0.1-0.4l2.3,0.4l17.4,13.3L150,98z"/>
</svg>
