<?xml version="1.0" encoding="utf-8"?>
<!-- Generator: Adobe Illustrator 25.0.0, SVG Export Plug-In . SVG Version: 6.00 Build 0)  -->
<svg version="1.1" id="Layer_1" xmlns="http://www.w3.org/2000/svg" xmlns:xlink="http://www.w3.org/1999/xlink" x="0px" y="0px"
	 viewBox="0 0 180 180" style="enable-background:new 0 0 180 180;" xml:space="preserve">
<path d="M127.5,60.7v4.9h-21.3c-4.6-3.1-10.2-4.9-16.2-4.9c-6,0-11.6,1.8-16.2,4.9H52.5v-4.9H37.8v57.1h14.7v-4.9h19.1c0,0,0,0,0,0
	c5,4.1,11.5,6.5,18.4,6.5c7,0,13.4-2.4,18.4-6.5c0,0,0,0,0,0h19.1v4.9h14.7V60.7H127.5z M49.2,114.5h-2.4v-1.7h-3.3v1.7h-2.4V63.9
	h2.4v1.7h3.3v-1.7h2.4v1.6h0v47.3h0V114.5z M52.5,109.6V68.8h17.2c-5.6,5.3-9.1,12.9-9.1,21.2c0,7.5,2.8,14.4,7.5,19.6c0,0,0,0,0,0
	H52.5z M71.7,67.1C71.7,67.1,71.7,67.1,71.7,67.1C71.7,67.1,71.7,67.1,71.7,67.1z M69.7,111.2c0,0,0.1,0.1,0.1,0.1
	C69.8,111.3,69.8,111.2,69.7,111.2z M63.9,90c0-14.4,11.7-26.1,26.1-26.1c14.4,0,26.1,11.7,26.1,26.1c0,14.4-11.7,26.1-26.1,26.1
	C75.6,116.1,63.9,104.4,63.9,90z M108.3,67.1C108.3,67.1,108.3,67.1,108.3,67.1C108.3,67.1,108.3,67.1,108.3,67.1z M110.2,111.3
	c0,0,0.1-0.1,0.1-0.1C110.2,111.2,110.2,111.3,110.2,111.3z M111.9,109.6C111.9,109.6,111.9,109.6,111.9,109.6
	c4.6-5.2,7.5-12,7.5-19.6c0-8.3-3.5-15.9-9.1-21.2h17.2v40.8H111.9z M138.9,114.5h-2.4v-1.7h-3.3v1.7h-2.4v-1.6h0V65.5h0v-1.6h2.4
	v1.7h3.3v-1.7h2.4V114.5z"/>
<path d="M90,67.2c-12.6,0-22.8,10.2-22.8,22.8c0,12.6,10.2,22.8,22.8,22.8c12.6,0,22.8-10.2,22.8-22.8
	C112.8,77.4,102.6,67.2,90,67.2z M102.6,75.1l-7,7l0,0c-1.6-1.1-3.5-1.8-5.7-1.8c-2.1,0-4.1,0.7-5.7,1.8l-7-7
	c3.4-2.9,7.8-4.6,12.6-4.6C94.8,70.4,99.2,72.2,102.6,75.1z M83.5,90c0-3.6,2.9-6.5,6.5-6.5c3.6,0,6.5,2.9,6.5,6.5
	c0,3.6-2.9,6.5-6.5,6.5C86.4,96.5,83.5,93.6,83.5,90z M70.4,90c0-4.8,1.7-9.2,4.6-12.6l7,7l0,0c-1.1,1.6-1.8,3.5-1.8,5.7
	c0,2.1,0.7,4.1,1.8,5.7l-7,7C72.2,99.2,70.4,94.8,70.4,90z M77.4,104.9l7-7c1.6,1.1,3.5,1.8,5.7,1.8c2.1,0,4.1-0.7,5.7-1.8
	c0,0,0,0,0,0l7,7c-3.4,2.9-7.8,4.6-12.6,4.6C85.2,109.6,80.8,107.8,77.4,104.9z M104.9,102.6l-7-7c1.1-1.6,1.8-3.6,1.8-5.7
	c0-2.1-0.7-4.1-1.8-5.7c0,0,0,0,0,0l7-7c2.9,3.4,4.6,7.8,4.6,12.6C109.6,94.8,107.8,99.2,104.9,102.6z"/>
<path d="M90,93.3c1.8,0,3.3-1.5,3.3-3.3c0-1.8-1.5-3.3-3.3-3.3c-1.8,0-3.3,1.5-3.3,3.3C86.7,91.8,88.2,93.3,90,93.3z"/>
<rect x="43.5" y="99.3" width="3.3" height="6.7"/>
<rect x="43.5" y="72.4" width="3.3" height="6.7"/>
<rect x="43.5" y="85.8" width="3.3" height="6.7"/>
<rect x="133.2" y="99.3" width="3.3" height="6.7"/>
<rect x="133.2" y="72.4" width="3.3" height="6.7"/>
<rect x="133.2" y="85.8" width="3.3" height="6.7"/>
</svg>
