<?xml version="1.0" encoding="utf-8"?>
<!-- Generator: Adobe Illustrator 25.0.0, SVG Export Plug-In . SVG Version: 6.00 Build 0)  -->
<svg version="1.1" id="Layer_1" xmlns="http://www.w3.org/2000/svg" xmlns:xlink="http://www.w3.org/1999/xlink" x="0px" y="0px"
	 viewBox="0 0 180 180" style="enable-background:new 0 0 180 180;" xml:space="preserve">
<style type="text/css">
	.st0{fill-rule:evenodd;clip-rule:evenodd;}
</style>
<path class="st0" d="M37.8,83.7v9.8v3.3v42.4h104.3V96.8v-3.3v-9.8H37.8z M138.9,135.9H41.1V96.8h97.8V135.9z M41.1,93.5V87h97.8
	v6.5H41.1z"/>
<path d="M75.4,108h2.8l6.2,8.9c0.3,0.5,0.6,0.9,0.8,1.4c0.2,0.4,0.4,0.8,0.4,0.9h0.1c-0.1-0.3-0.1-0.6-0.1-1.1c0-0.5,0-1,0-1.5V108
	h3.2V124h-2.8l-6.2-8.9c-0.3-0.5-0.6-0.9-0.8-1.4c-0.2-0.4-0.4-0.8-0.4-0.9h-0.1c0,0.2,0.1,0.6,0.1,1.1c0,0.5,0.1,1,0.1,1.6v8.5
	h-3.2V108z"/>
<path d="M91.7,116c0-1.2,0.2-2.3,0.5-3.3c0.4-1,0.9-1.9,1.5-2.6c0.7-0.8,1.4-1.3,2.4-1.8c0.9-0.4,2-0.6,3.1-0.6c1.6,0,2.9,0.3,4,1
	c1,0.6,1.9,1.5,2.6,2.6l-2.4,1.6c-0.4-0.8-0.9-1.3-1.6-1.8c-0.6-0.5-1.5-0.7-2.5-0.7c-0.8,0-1.4,0.1-1.9,0.4c-0.5,0.3-1,0.7-1.3,1.2
	s-0.6,1.1-0.8,1.8c-0.2,0.7-0.2,1.4-0.2,2.2c0,0.8,0.1,1.5,0.2,2.2c0.2,0.7,0.4,1.3,0.8,1.8c0.4,0.5,0.8,0.9,1.4,1.2
	c0.5,0.3,1.2,0.4,2,0.4c0.8,0,1.4-0.1,1.9-0.3c0.5-0.2,1-0.4,1.4-0.8v-2.7h-3v-2.6h6.2v6.7c-0.4,0.3-0.8,0.6-1.3,0.9
	c-0.5,0.3-1,0.5-1.5,0.8c-0.5,0.2-1.1,0.4-1.8,0.5c-0.6,0.1-1.3,0.2-1.9,0.2c-1.1,0-2.2-0.2-3.1-0.6c-0.9-0.4-1.7-1-2.4-1.7
	c-0.7-0.8-1.2-1.6-1.5-2.6C91.9,118.3,91.7,117.2,91.7,116z"/>
<path class="st0" d="M44.8,67.9l9.3-9.3l9.3,9.3l-2.3,2.3l-7-7l-7,7L44.8,67.9z"/>
<path class="st0" d="M52.5,80.5V60.9h3.3v19.6H52.5z"/>
<path class="st0" d="M116.6,67.9l9.3-9.3l9.3,9.3l-2.3,2.3l-7-7l-7,7L116.6,67.9z"/>
<path class="st0" d="M124.2,80.5V60.9h3.3v19.6H124.2z"/>
<path class="st0" d="M70.9,47.3c2.1,0,3.8-1.7,3.8-3.8c0-2.1-1.7-3.8-3.8-3.8s-3.8,1.7-3.8,3.8C67.2,45.6,68.9,47.3,70.9,47.3z
	 M70.9,50.5c3.9,0,7-3.1,7-7s-3.1-7-7-7c-3.9,0-7,3.1-7,7S67.1,50.5,70.9,50.5z"/>
<path class="st0" d="M93.3,71.8c6.5,0,11.8-5.3,11.8-11.8s-5.3-11.8-11.8-11.8c-6.5,0-11.8,5.3-11.8,11.8S86.8,71.8,93.3,71.8z
	 M93.3,75.1c8.3,0,15-6.7,15-15s-6.7-15-15-15s-15,6.7-15,15S85,75.1,93.3,75.1z"/>
<path d="M89.2,65v-4h4v4h1.9v-9.3h-1.9v3.8h-4v-3.8h-1.9V65H89.2z"/>
<path class="st0" d="M97.4,61.7l-1.1-0.4l0-0.1c0.2-0.6,0.7-1.3,1.8-1.3c0.6,0,1.1,0.2,1.4,0.5c0.3,0.3,0.5,0.7,0.5,1.2
	c0,0.8-0.4,1.4-0.9,1.8c-0.2,0.2-0.4,0.3-0.5,0.4c-0.1,0-0.1,0.1-0.1,0.1c-0.1,0.1-0.2,0.1-0.3,0.2h1.9v1.1h-3.7v-0.9l0,0
	c0.3-0.6,0.8-1,1.3-1.4c0,0,0.1-0.1,0.1-0.1c0.2-0.2,0.5-0.4,0.6-0.6c0.2-0.2,0.2-0.4,0.2-0.6c0-0.2,0-0.3-0.1-0.4
	c-0.1-0.1-0.2-0.2-0.4-0.2c-0.2,0-0.3,0-0.4,0.1c-0.1,0.1-0.2,0.2-0.2,0.4L97.4,61.7z"/>
</svg>
