<svg width="101" height="100" viewBox="0 0 101 100" fill="none" xmlns="http://www.w3.org/2000/svg">
<circle cx="50.5" cy="50" r="50" fill="#EB008B"/>
<path fill-rule="evenodd" clip-rule="evenodd" d="M54.8633 33.0547H35.9102V71.9977H65.4971V43.9068H57.8633H54.8633V40.9068V33.0547ZM65.4971 40.6949V40.9068H61.516H60.8633H57.8633V37.9068V37.1556V33.0547H58.0573L60.8633 35.9363L62.7821 37.9068L65.4971 40.6949ZM41.4648 56.3887C41.4648 55.5602 42.1364 54.8887 42.9648 54.8887L58.645 54.8887C59.4734 54.8887 60.145 55.5602 60.145 56.3887C60.145 57.2171 59.4734 57.8887 58.645 57.8887L42.9648 57.8887C42.1364 57.8887 41.4648 57.2171 41.4648 56.3887ZM42.9648 62.1348C42.1364 62.1348 41.4648 62.8063 41.4648 63.6348C41.4648 64.4632 42.1364 65.1348 42.9648 65.1348H58.645C59.4734 65.1348 60.145 64.4632 60.145 63.6348C60.145 62.8063 59.4734 62.1348 58.645 62.1348L42.9648 62.1348Z" fill="white"/>
<path d="M38.4002 24.5242L39.5344 23.5425C38.6969 22.575 37.1961 22.575 36.3586 23.5425L37.4927 24.5242L36.3586 23.5425L34.6764 25.486L32.212 24.9311L31.8825 26.3945L32.212 24.9311C30.9785 24.6534 29.7811 25.5206 29.6602 26.7792L29.4062 29.4237L27.0481 30.4834C25.9175 30.9914 25.4706 32.3631 26.0848 33.4397L27.4057 35.7549L26.0848 38.0701C25.4706 39.1467 25.9175 40.5183 27.0481 41.0264L29.4062 42.086L29.6602 44.7306C29.7811 45.9891 30.9785 46.8563 32.212 46.5786L34.6764 46.0237L36.3586 47.9672C37.1961 48.9348 38.6969 48.9348 39.5344 47.9672L38.4002 46.9855L39.5344 47.9672L41.2166 46.0237L43.6809 46.5786C44.9144 46.8563 46.1119 45.9891 46.2327 44.7306L46.4868 42.086L48.8448 41.0264C49.9754 40.5183 50.4224 39.1467 49.8081 38.0701L48.4872 35.7549L49.8081 33.4397C50.4224 32.3631 49.9754 30.9914 48.8448 30.4834L46.4868 29.4237L46.2327 26.7792C46.1119 25.5206 44.9144 24.6534 43.6809 24.9311L44.0104 26.3945L43.6809 24.9311L41.2166 25.486L39.5344 23.5425L38.4002 24.5242ZM48.2328 36.2008L48.2333 36.1998L48.2328 36.2008Z" fill="white" stroke="#EB008B" stroke-width="3"/>
<path d="M41.8125 31.7852L34.081 39.725" stroke="#EB008B" stroke-width="2.25046" stroke-linecap="round"/>
<ellipse cx="41.3205" cy="39.2244" rx="1.79705" ry="1.84547" fill="#EB008B"/>
<ellipse cx="34.5666" cy="32.2908" rx="1.79705" ry="1.84547" fill="#EB008B"/>
</svg>
