<svg width="140" height="140" viewBox="0 0 140 140" fill="none" xmlns="http://www.w3.org/2000/svg">
<g clip-path="url(#clip0_1370_92461)">
<path d="M21.4591 17.2332H90.3822C94.5456 17.2332 97.9207 20.6083 97.9207 24.7716V115.233C97.9207 119.397 94.5456 122.772 90.3822 122.772H39.136L13.9207 97.5563V24.7716C13.9207 20.6083 17.2958 17.2332 21.4591 17.2332Z" fill="#EAAAD2" stroke="#EAAAD2" stroke-width="2.15385"/>
<path d="M27.2895 109.941L14.9976 97.1365V95.8492H34.3822C37.9508 95.8492 40.8438 98.7421 40.8438 102.311V121.695H39.5553L27.2895 109.941Z" fill="white" stroke="#EAAAD2" stroke-width="4.30769"/>
<rect x="42.9952" y="45.2296" width="25.8462" height="25.8462" rx="12.9231" stroke="white" stroke-width="8.61539"/>
<rect x="51.6133" y="35.5391" width="8.61539" height="8.61539" rx="2.15385" fill="white"/>
<rect x="51.6133" y="72.1562" width="8.61539" height="8.61539" rx="2.15385" fill="white"/>
<rect x="78.5352" y="53.8438" width="8.61539" height="8.61539" rx="2.15385" transform="rotate(90 78.5352 53.8438)" fill="white"/>
<rect x="41.9219" y="53.8438" width="8.61539" height="8.61539" rx="2.15385" transform="rotate(90 41.9219 53.8438)" fill="white"/>
<rect x="68.8633" y="39.1172" width="8.61539" height="8.61539" rx="2.15385" transform="rotate(45 68.8633 39.1172)" fill="white"/>
<rect x="42.9766" y="65.0078" width="8.61539" height="8.61539" rx="2.15385" transform="rotate(45 42.9766 65.0078)" fill="white"/>
<rect x="74.9609" y="71.1016" width="8.61539" height="8.61539" rx="2.15385" transform="rotate(135 74.9609 71.1016)" fill="white"/>
<rect x="49.0664" y="45.207" width="8.61539" height="8.61539" rx="2.15385" transform="rotate(135 49.0664 45.207)" fill="white"/>
<rect x="53.7656" y="98" width="34.4615" height="4.30769" rx="2.15385" fill="white"/>
<rect x="49.4609" y="108.773" width="38.7692" height="4.30769" rx="2.15385" fill="white"/>
<rect x="50.7235" y="58.9844" width="60.3077" height="60.3077" rx="30.1538" transform="rotate(-45 50.7235 58.9844)" fill="white" stroke="white" stroke-width="4.30769"/>
<rect x="101.746" y="73.4492" width="8.61538" height="24.7692" rx="4.30769" transform="rotate(-45 101.746 73.4492)" fill="white" stroke="#EAAAD2" stroke-width="2.15385"/>
<rect x="102.503" y="72.6914" width="6.46154" height="24.7692" rx="3.23077" transform="rotate(-45 102.503 72.6914)" fill="white" stroke="#EAAAD2" stroke-width="2.15385"/>
<rect x="112.406" y="87.1602" width="12.9231" height="25.8462" rx="3.23077" transform="rotate(-45 112.406 87.1602)" fill="#EAAAD2" stroke="#EAAAD2" stroke-width="2.15385"/>
<rect x="59.8615" y="58.9844" width="47.3846" height="47.3846" rx="23.6923" transform="rotate(-45 59.8615 58.9844)" fill="white" stroke="#EAAAD2" stroke-width="8.61539"/>
</g>
<defs>
<clipPath id="clip0_1370_92461">
<rect width="140" height="140" fill="white"/>
</clipPath>
</defs>
</svg>
