<svg width="52" height="52" viewBox="0 0 52 52" fill="none" xmlns="http://www.w3.org/2000/svg">
<rect width="52" height="52" rx="10" fill="#EB008B"/>
<path d="M8.00027 25.7227C8.00027 22.4089 10.6866 19.7227 14.0003 19.7227H15.2661V32.2728H14.0003C10.6866 32.2728 8.00027 29.5865 8.00027 26.2728V25.7227Z" fill="white"/>
<path d="M37.3939 32.2734V23.1911C37.3939 16.8982 32.2926 11.7969 25.9997 11.7969V11.7969C19.7069 11.7969 14.6055 16.8982 14.6055 23.1911L14.6055 32.2734" stroke="white" stroke-width="3"/>
<path d="M38.3141 31.6836V34.1674C38.3141 35.9347 36.8814 37.3674 35.1141 37.3674H29.7883" stroke="white" stroke-width="2" stroke-linecap="round" stroke-linejoin="round"/>
<path d="M43.9998 25.7227C43.9998 22.4089 41.3135 19.7227 37.9998 19.7227H36.7339V32.2728H37.9998C41.3135 32.2728 43.9998 29.5865 43.9998 26.2728V25.7227Z" fill="white"/>
<rect x="22.2099" y="34.6562" width="8.46034" height="5.54298" rx="2.4" fill="white"/>
<rect x="22.2093" y="34.6562" width="8.46034" height="5.54298" rx="2.4" fill="#FBCCE8"/>
</svg>
