<svg width="140" height="140" viewBox="0 0 140 140" fill="none" xmlns="http://www.w3.org/2000/svg">
<circle cx="66.2302" cy="70.5388" r="45.7692" fill="#EAAAD2"/>
<circle cx="66.2284" cy="70.5409" r="52.7692" stroke="#EAAAD2" stroke-width="3.23077"/>
<path d="M66.5234 33.3867V38.7713" stroke="white" stroke-width="3.23077" stroke-linecap="round" stroke-linejoin="round"/>
<path d="M56 51.6953L64.6154 66.7722" stroke="white" stroke-width="4.30769" stroke-linecap="round" stroke-linejoin="round"/>
<path d="M35.5391 70.8281L30.1544 70.8281" stroke="white" stroke-width="3.23077" stroke-linecap="round" stroke-linejoin="round"/>
<path d="M62.707 74.3125L41.9994 91.5433" stroke="white" stroke-width="4.30769" stroke-linecap="round" stroke-linejoin="round"/>
<path d="M66.5234 102.309V107.693" stroke="white" stroke-width="3.23077" stroke-linecap="round" stroke-linejoin="round"/>
<circle cx="66.7674" cy="71.0799" r="3.76923" stroke="white" stroke-width="3.23077"/>
<mask id="path-9-outside-1_1370_92489" maskUnits="userSpaceOnUse" x="77.9219" y="35.9219" width="58" height="53" fill="black">
<rect fill="white" x="77.9219" y="35.9219" width="58" height="53"/>
<path fill-rule="evenodd" clip-rule="evenodd" d="M89.3834 40.9219C85.8148 40.9219 82.9219 43.8148 82.9219 47.3834V68.9219C82.9219 72.4905 85.8148 75.3834 89.3834 75.3834H93.6914V80.7685L102.667 75.3834H124.922C128.49 75.3834 131.383 72.4905 131.383 68.9219V47.3834C131.383 43.8148 128.49 40.9219 124.922 40.9219H89.3834Z"/>
</mask>
<path fill-rule="evenodd" clip-rule="evenodd" d="M89.3834 40.9219C85.8148 40.9219 82.9219 43.8148 82.9219 47.3834V68.9219C82.9219 72.4905 85.8148 75.3834 89.3834 75.3834H93.6914V80.7685L102.667 75.3834H124.922C128.49 75.3834 131.383 72.4905 131.383 68.9219V47.3834C131.383 43.8148 128.49 40.9219 124.922 40.9219H89.3834Z" fill="#EAAAD2"/>
<path d="M93.6914 75.3834H97.9991V71.0757H93.6914V75.3834ZM93.6914 80.7685H89.3837V88.3767L95.9077 84.4623L93.6914 80.7685ZM102.667 75.3834V71.0757H101.473L100.45 71.6896L102.667 75.3834ZM87.2296 47.3834C87.2296 46.1939 88.1939 45.2296 89.3834 45.2296V36.6142C83.4357 36.6142 78.6142 41.4357 78.6142 47.3834H87.2296ZM87.2296 68.9219V47.3834H78.6142V68.9219H87.2296ZM89.3834 71.0757C88.1939 71.0757 87.2296 70.1114 87.2296 68.9219H78.6142C78.6142 74.8696 83.4357 79.6911 89.3834 79.6911V71.0757ZM93.6914 71.0757H89.3834V79.6911H93.6914V71.0757ZM97.9991 80.7685V75.3834H89.3837V80.7685H97.9991ZM100.45 71.6896L91.4751 77.0747L95.9077 84.4623L104.883 79.0772L100.45 71.6896ZM124.922 71.0757H102.667V79.6911H124.922V71.0757ZM127.076 68.9219C127.076 70.1114 126.111 71.0757 124.922 71.0757V79.6911C130.87 79.6911 135.691 74.8696 135.691 68.9219H127.076ZM127.076 47.3834V68.9219H135.691V47.3834H127.076ZM124.922 45.2296C126.111 45.2296 127.076 46.1939 127.076 47.3834H135.691C135.691 41.4357 130.87 36.6142 124.922 36.6142V45.2296ZM89.3834 45.2296H124.922V36.6142H89.3834V45.2296Z" fill="white" mask="url(#path-9-outside-1_1370_92489)"/>
<path d="M92.5546 49.5816C93.6114 49.0037 94.66 48.5744 95.7003 48.2936C96.7406 48.0129 97.7561 47.8726 98.7469 47.8726C99.6716 47.8726 100.53 47.9634 101.323 48.145C102.132 48.3102 102.834 48.5991 103.428 49.0119C104.023 49.4083 104.485 49.9367 104.815 50.5972C105.162 51.2577 105.336 52.0751 105.336 53.0493C105.336 53.6438 105.236 54.2217 105.038 54.7832C104.857 55.3281 104.601 55.8565 104.27 56.3684C103.957 56.8638 103.593 57.3427 103.181 57.805C102.784 58.2674 102.363 58.705 101.917 59.1178L97.6323 63.3286H105.88V66.1027H92.7032V64.1955L99.2918 57.6564C100.167 56.8143 100.753 56.0382 101.05 55.3281C101.364 54.6015 101.521 53.8915 101.521 53.1979C101.521 52.7686 101.438 52.3888 101.273 52.0586C101.108 51.7283 100.877 51.4558 100.58 51.2412C100.299 51.0265 99.9689 50.8696 99.5891 50.7706C99.2258 50.655 98.8377 50.5972 98.4249 50.5972C97.6158 50.5972 96.8232 50.721 96.0471 50.9687C95.271 51.2164 94.4866 51.5632 93.694 52.009L92.5546 49.5816ZM113.909 48.145H119.383V59.7618H121.761V62.3873H119.383V66.1027H115.792V62.3873H107.321V60.381L113.909 48.145ZM115.544 50.9192L110.986 59.7618H115.792V50.9192H115.544Z" fill="white"/>
</svg>
