<svg width="100" height="100" viewBox="0 0 100 100" fill="none" xmlns="http://www.w3.org/2000/svg">
<circle cx="50" cy="50" r="50" fill="#EB008B"/>
<path fill-rule="evenodd" clip-rule="evenodd" d="M51.9262 26.5C52.9063 26.5 53.7008 27.2945 53.7008 28.2746C53.7008 30.2536 55.1204 31.9118 56.957 32.6488C57.0882 32.7015 57.2187 32.7556 57.3484 32.8111C59.1683 33.5901 61.3451 33.4212 62.7448 32.0214C63.4381 31.3281 64.5623 31.3281 65.2556 32.0214L67.9785 34.7443C68.6718 35.4377 68.6718 36.5618 67.9785 37.2551C66.5787 38.6549 66.4099 40.8317 67.1889 42.6516C67.2444 42.7813 67.2985 42.9118 67.3512 43.043C68.0882 44.8796 69.7464 46.2992 71.7254 46.2992C72.7055 46.2992 73.5 47.0937 73.5 48.0739V51.9262C73.5 52.9063 72.7055 53.7008 71.7254 53.7008C69.7464 53.7008 68.0882 55.1204 67.3512 56.957C67.2985 57.0882 67.2444 57.2187 67.1889 57.3484C66.4099 59.1682 66.5788 61.345 67.9785 62.7447C68.6718 63.438 68.6718 64.5622 67.9785 65.2555L65.2556 67.9784C64.5622 68.6718 63.4381 68.6718 62.7448 67.9784C61.3451 66.5787 59.1683 66.4098 57.3485 67.1889C57.2188 67.2444 57.0882 67.2985 56.957 67.3512C55.1204 68.0882 53.7008 69.7464 53.7008 71.7254C53.7008 72.7055 52.9063 73.5 51.9261 73.5H48.0738C47.0937 73.5 46.2992 72.7055 46.2992 71.7254C46.2992 69.7464 44.8796 68.0882 43.043 67.3512C42.9117 67.2985 42.7812 67.2444 42.6514 67.1888C40.8317 66.4098 38.655 66.5787 37.2552 67.9784C36.5619 68.6717 35.4378 68.6717 34.7445 67.9784L32.0215 65.2554C31.3282 64.5621 31.3282 63.438 32.0215 62.7447C33.4213 61.345 33.5901 59.1682 32.8111 57.3485C32.7556 57.2187 32.7015 57.0882 32.6488 56.957C31.9118 55.1204 30.2536 53.7008 28.2746 53.7008C27.2945 53.7008 26.5 52.9062 26.5 51.9261V48.0739C26.5 47.0937 27.2945 46.2992 28.2746 46.2992C30.2536 46.2992 31.9118 44.8796 32.6488 43.043C32.7015 42.9118 32.7556 42.7813 32.8111 42.6515C33.5901 40.8317 33.4213 38.6549 32.0216 37.2552C31.3282 36.5618 31.3282 35.4377 32.0216 34.7444L34.7445 32.0215C35.4378 31.3281 36.5619 31.3282 37.2553 32.0215C38.655 33.4212 40.8318 33.5901 42.6516 32.8111C42.7813 32.7556 42.9118 32.7015 43.043 32.6488C44.8796 31.9118 46.2992 30.2536 46.2992 28.2746C46.2992 27.2945 47.0937 26.5 48.0739 26.5H51.9262ZM56.7532 61.4869C54.773 62.6536 52.4646 63.3228 50 63.3228C42.642 63.3228 36.6772 57.358 36.6772 50C36.6772 42.642 42.642 36.6772 50 36.6772C57.358 36.6772 63.3228 42.642 63.3228 50C63.3228 52.4644 62.6537 54.7724 61.4873 56.7525L57.7364 53.0016C59.1126 49.7474 58.4703 45.8394 55.8137 43.1828C53.1768 40.5459 49.3082 39.8924 46.0694 41.225C45.8094 41.3329 45.7452 41.6731 45.9437 41.8716L50.508 46.4358L49.7576 49.757L46.4364 50.5074L41.8735 45.9446C41.675 45.746 41.3349 45.8103 41.227 46.0702C39.8944 49.309 40.5281 53.1551 43.1848 55.8117C45.8414 58.4684 49.7493 59.1106 53.0022 57.7359L56.7532 61.4869Z" fill="white"/>
</svg>
