<svg width="50" height="50" viewBox="0 0 50 50" fill="none" xmlns="http://www.w3.org/2000/svg">
<path fill-rule="evenodd" clip-rule="evenodd" d="M8.52212 12.0318C7.95031 12.0862 7.50165 12.5586 7.50165 13.133V17.999C7.50165 27.1185 11.4853 35.7831 18.4077 41.72L23.0809 45.7278C23.893 46.4243 25.0918 46.4243 25.9039 45.7278L30.577 41.72C37.4994 35.7831 41.4831 27.1185 41.4831 17.999V13.0747C41.4831 12.5087 41.0471 12.0403 40.4848 11.9757C34.7629 11.3184 29.5883 8.90167 25.5364 5.29087C25.1012 4.90305 24.4398 4.90304 24.0046 5.29086C19.827 9.01367 14.4559 11.4672 8.52212 12.0318Z" fill="white"/>
<path d="M18.4077 41.72L17.4214 42.8701L17.4214 42.8701L18.4077 41.72ZM23.0809 45.7278L24.0672 44.5777L23.0809 45.7278ZM25.9039 45.7278L26.8903 46.8779H26.8903L25.9039 45.7278ZM30.577 41.72L31.5634 42.8701V42.8701L30.577 41.72ZM25.5364 5.29087L24.5284 6.42204L25.5364 5.29087ZM24.0046 5.29086L25.0126 6.42203L24.0046 5.29086ZM40.4848 11.9757L40.3119 13.481L40.4848 11.9757ZM5.9865 13.133V17.999H9.0168V13.133H5.9865ZM5.9865 17.999C5.9865 27.5607 10.1633 36.6454 17.4214 42.8701L19.3941 40.5699C12.8073 34.9209 9.0168 26.6764 9.0168 17.999H5.9865ZM17.4214 42.8701L22.0945 46.8779L24.0672 44.5777L19.3941 40.5699L17.4214 42.8701ZM22.0945 46.8779C23.4741 48.0612 25.5106 48.0612 26.8903 46.8779L24.9175 44.5777C24.6729 44.7875 24.3118 44.7875 24.0672 44.5777L22.0945 46.8779ZM26.8903 46.8779L31.5634 42.8701L29.5906 40.5699L24.9175 44.5777L26.8903 46.8779ZM31.5634 42.8701C38.8214 36.6454 42.9982 27.5607 42.9982 17.999H39.9679C39.9679 26.6764 36.1774 34.9209 29.5906 40.5699L31.5634 42.8701ZM42.9982 17.999V13.0747H39.9679V17.999H42.9982ZM40.6577 10.4705C35.2537 9.8497 30.3689 7.56785 26.5445 4.1597L24.5284 6.42204C28.8076 10.2355 34.2721 12.7872 40.3119 13.481L40.6577 10.4705ZM22.9965 4.15969C19.0535 7.67353 13.9833 9.9902 8.37862 10.5234L8.66562 13.5401C14.9286 12.9442 20.6006 10.3538 25.0126 6.42203L22.9965 4.15969ZM26.5445 4.1597C25.5348 3.25991 24.0063 3.25989 22.9965 4.15969L25.0126 6.42203C24.8733 6.5462 24.6677 6.54618 24.5284 6.42204L26.5445 4.1597ZM42.9982 13.0747C42.9982 11.7042 41.9499 10.6189 40.6577 10.4705L40.3119 13.481C40.1442 13.4617 39.9679 13.3133 39.9679 13.0747H42.9982ZM9.0168 13.133C9.0168 13.3753 8.83561 13.5239 8.66562 13.5401L8.37862 10.5234C7.065 10.6484 5.9865 11.7418 5.9865 13.133H9.0168Z" fill="#EB008B"/>
<path d="M18.1285 25.1389L23.3441 30L31.8785 20" stroke="#EB008B" stroke-width="3.0303" stroke-linecap="round"/>
</svg>
