<svg width="140" height="140" viewBox="0 0 140 140" fill="none" xmlns="http://www.w3.org/2000/svg">
<rect x="23.6914" y="29.0781" width="66.7692" height="74.3077" rx="8.61539" fill="#EAAAD2"/>
<path d="M93.6914 47.3843C93.6914 46.1948 94.6557 45.2305 95.8453 45.2305H110.669C112.701 45.2305 114.457 46.6504 114.881 48.6375L117.261 59.7688C117.875 62.6365 119.904 64.9955 122.649 66.0295L129.037 68.4365C132.393 69.7011 134.614 72.9123 134.614 76.4986V99.0766C134.614 101.456 132.686 103.384 130.307 103.384H95.8453C94.6557 103.384 93.6914 102.42 93.6914 101.23V47.3843Z" fill="#EAAAD2"/>
<circle cx="47.3828" cy="103.383" r="12.3846" fill="#EAAAD2" stroke="white" stroke-width="3.23077"/>
<circle cx="47.3846" cy="103.385" r="3.76923" fill="#EAAAD2" stroke="white" stroke-width="3.23077"/>
<circle cx="114.156" cy="103.383" r="12.3846" fill="#EAAAD2" stroke="white" stroke-width="3.23077"/>
<mask id="path-6-inside-1_1370_92510" fill="white">
<path fill-rule="evenodd" clip-rule="evenodd" d="M131.656 70H99.0757C97.8862 70 96.9219 69.0357 96.9219 67.8462V45.2305H110.669C112.701 45.2305 114.457 46.6504 114.881 48.6375L117.261 59.7688C117.875 62.6365 119.904 64.9955 122.649 66.0295L129.037 68.4365C130.015 68.8052 130.897 69.3393 131.656 70Z"/>
</mask>
<path fill-rule="evenodd" clip-rule="evenodd" d="M131.656 70H99.0757C97.8862 70 96.9219 69.0357 96.9219 67.8462V45.2305H110.669C112.701 45.2305 114.457 46.6504 114.881 48.6375L117.261 59.7688C117.875 62.6365 119.904 64.9955 122.649 66.0295L129.037 68.4365C130.015 68.8052 130.897 69.3393 131.656 70Z" fill="white"/>
<path d="M131.656 70V73.2308H140.285L133.778 67.5636L131.656 70ZM96.9219 45.2305V41.9997H93.6911V45.2305H96.9219ZM114.881 48.6375L111.722 49.313V49.313L114.881 48.6375ZM117.261 59.7688L114.102 60.4443L117.261 59.7688ZM122.649 66.0295L121.509 69.0528H121.509L122.649 66.0295ZM129.037 68.4365L127.898 71.4598L129.037 68.4365ZM131.656 66.7692H99.0757V73.2308H131.656V66.7692ZM99.0757 66.7692C99.6705 66.7692 100.153 67.2514 100.153 67.8462H93.6911C93.6911 70.82 96.1019 73.2308 99.0757 73.2308V66.7692ZM100.153 67.8462V45.2305H93.6911V67.8462H100.153ZM96.9219 48.4612H110.669V41.9997H96.9219V48.4612ZM110.669 48.4612C111.177 48.4612 111.616 48.8162 111.722 49.313L118.041 47.962C117.297 44.4846 114.225 41.9997 110.669 41.9997V48.4612ZM111.722 49.313L114.102 60.4443L120.421 59.0933L118.041 47.962L111.722 49.313ZM114.102 60.4443C114.945 64.3875 117.736 67.631 121.509 69.0528L123.788 63.0062C122.073 62.36 120.804 60.8856 120.421 59.0933L114.102 60.4443ZM121.509 69.0528L127.898 71.4598L130.176 65.4133L123.788 63.0062L121.509 69.0528ZM127.898 71.4598C128.511 71.6908 129.061 72.0243 129.534 72.4364L133.778 67.5636C132.734 66.6543 131.52 65.9196 130.176 65.4133L127.898 71.4598Z" fill="#EAAAD2" mask="url(#path-6-inside-1_1370_92510)"/>
<path fill-rule="evenodd" clip-rule="evenodd" d="M62.5961 43.9404C60.2724 39.9157 54.4633 39.9157 52.1396 43.9404L37.4352 69.4091C35.1116 73.4338 38.0162 78.4647 42.6635 78.4647H72.0722C76.7195 78.4647 79.6241 73.4338 77.3004 69.4091L62.5961 43.9404ZM59.5825 49.8262H54.7226L55.4471 66.0659H58.8882L59.5825 49.8262ZM59.341 68.5712H54.9943V72.616H59.341V68.5712Z" fill="white"/>
<rect x="93.6914" y="80.7695" width="40.9231" height="3.23077" fill="white"/>
<path d="M19.3828 63.5391L10.7674 63.5391" stroke="#EAAAD2" stroke-width="3.23077" stroke-linecap="round" stroke-linejoin="round"/>
<path d="M19.3828 80.7695L12.9213 80.7695" stroke="#EAAAD2" stroke-width="3.23077" stroke-linecap="round" stroke-linejoin="round"/>
<path d="M19.3828 72.1562L6.45974 72.1562" stroke="#EAAAD2" stroke-width="3.23077" stroke-linecap="round" stroke-linejoin="round"/>
<circle cx="114.154" cy="103.385" r="3.76923" fill="#EAAAD2" stroke="white" stroke-width="3.23077"/>
</svg>
