<svg width="52" height="52" viewBox="0 0 52 52" fill="none" xmlns="http://www.w3.org/2000/svg">
<rect width="52" height="52" rx="10" fill="#EB008B"/>
<g clip-path="url(#clip0_1370_92579)">
<path fill-rule="evenodd" clip-rule="evenodd" d="M26.0009 19.0018C26.0006 17.9085 26.2564 16.8303 26.7478 15.8536C27.2393 14.877 27.9526 14.029 28.8308 13.3777C29.709 12.7263 30.7275 12.2898 31.8047 12.103C32.882 11.9161 33.988 11.9842 35.0342 12.3018C35.1996 12.3519 35.3491 12.444 35.4683 12.5691C35.5875 12.6942 35.6722 12.848 35.7142 13.0156C35.7563 13.1832 35.7542 13.3588 35.7081 13.5253C35.6621 13.6919 35.5737 13.8436 35.4515 13.9658L31.0249 18.3912C31.1089 19.0245 31.3929 19.6365 31.8795 20.1232C32.3662 20.6098 32.9782 20.8938 33.6129 20.9765L38.0369 16.5512C38.1591 16.429 38.3108 16.3406 38.4774 16.2946C38.6439 16.2485 38.8195 16.2464 38.9871 16.2885C39.1547 16.3305 39.3085 16.4152 39.4336 16.5344C39.5587 16.6536 39.6508 16.8031 39.7009 16.9685C40.0331 18.063 40.0922 19.2222 39.8728 20.3448C39.6534 21.4673 39.1623 22.519 38.4424 23.4079C37.7224 24.2967 36.7957 24.9956 35.7432 25.4433C34.6907 25.8911 33.5445 26.0742 32.4049 25.9765C31.0475 25.8618 29.9115 26.1098 29.3262 26.8218L19.7929 38.4018C19.4025 38.8735 18.918 39.2585 18.3703 39.5321C17.8225 39.8057 17.2237 39.9619 16.6121 39.9907C16.0006 40.0196 15.3897 39.9203 14.8187 39.6995C14.2477 39.4786 13.7291 39.1409 13.2961 38.708C12.8631 38.2751 12.5253 37.7566 12.3043 37.1856C12.0833 36.6146 11.984 36.0038 12.0126 35.3922C12.0413 34.7806 12.1974 34.1818 12.4709 33.634C12.7444 33.0862 13.1293 32.6016 13.6009 32.2112L25.1795 22.6765C25.8902 22.0898 26.1395 20.9552 26.0249 19.5978C26.0085 19.3996 26.0005 19.2007 26.0009 19.0018ZM15.4902 35.5018C15.4902 35.2366 15.5956 34.9823 15.7831 34.7947C15.9706 34.6072 16.225 34.5018 16.4902 34.5018H16.5009C16.7661 34.5018 17.0204 34.6072 17.208 34.7947C17.3955 34.9823 17.5009 35.2366 17.5009 35.5018V35.5125C17.5009 35.7777 17.3955 36.0321 17.208 36.2196C17.0204 36.4071 16.7661 36.5125 16.5009 36.5125H16.4902C16.225 36.5125 15.9706 36.4071 15.7831 36.2196C15.5956 36.0321 15.4902 35.7777 15.4902 35.5125V35.5018Z" fill="white"/>
<path d="M23.4343 21.521L20.4996 18.5876V16.4996C20.4996 16.327 20.4549 16.1573 20.3699 16.0071C20.2848 15.8568 20.1623 15.7312 20.0143 15.6423L15.0143 12.6423C14.8231 12.5277 14.599 12.4802 14.3777 12.5075C14.1564 12.5348 13.9506 12.6353 13.793 12.793L12.793 13.793C12.6353 13.9506 12.5348 14.1564 12.5075 14.3777C12.4802 14.599 12.5277 14.8231 12.6423 15.0143L15.6423 20.0143C15.7312 20.1623 15.8568 20.2848 16.0071 20.3699C16.1573 20.4549 16.327 20.4996 16.4996 20.4996H18.585L21.3343 23.249L23.4343 21.5196V21.521Z" fill="#FBCCE8"/>
<path fill-rule="evenodd" clip-rule="evenodd" d="M26.7422 33.1048L32.3195 38.6808C32.7374 39.0987 33.2335 39.4302 33.7794 39.6563C34.3254 39.8825 34.9106 39.9989 35.5015 39.9989C36.0925 39.9989 36.6776 39.8825 37.2236 39.6563C37.7696 39.4302 38.2657 39.0987 38.6835 38.6808C39.1014 38.263 39.4329 37.7669 39.659 37.2209C39.8852 36.6749 40.0015 36.0898 40.0015 35.4988C40.0015 34.9079 39.8852 34.3227 39.659 33.7767C39.4329 33.2308 39.1014 32.7347 38.6835 32.3168L34.2755 27.9102C33.5998 28.0059 32.9155 28.0252 32.2355 27.9675C31.7102 27.9222 31.3262 27.9595 31.0795 28.0235C31.0015 28.04 30.9264 28.0683 30.8569 28.1075L26.7422 33.1048ZM31.2942 31.2915C31.4817 31.1042 31.7359 30.999 32.0009 30.999C32.2659 30.999 32.52 31.1042 32.7075 31.2915L35.2075 33.7928C35.3058 33.8844 35.3846 33.9948 35.4392 34.1174C35.4939 34.2401 35.5233 34.3725 35.5256 34.5068C35.528 34.6411 35.5033 34.7744 35.453 34.899C35.4027 35.0235 35.3279 35.1366 35.2329 35.2315C35.1379 35.3265 35.0248 35.4014 34.9003 35.4517C34.7758 35.5019 34.6424 35.5266 34.5082 35.5243C34.3739 35.5219 34.2415 35.4925 34.1188 35.4379C33.9961 35.3832 33.8857 35.3044 33.7942 35.2062L31.2942 32.7062C31.1069 32.5187 31.0017 32.2645 31.0017 31.9995C31.0017 31.7345 31.1069 31.4803 31.2942 31.2928V31.2915Z" fill="#FBCCE8"/>
</g>
<defs>
<clipPath id="clip0_1370_92579">
<rect width="32" height="32" fill="white" transform="translate(10 10)"/>
</clipPath>
</defs>
</svg>
