<svg width="100" height="100" viewBox="0 0 100 100" fill="none" xmlns="http://www.w3.org/2000/svg">
<circle cx="50" cy="50" r="50" fill="#EB008B"/>
<g clip-path="url(#clip0_1370_92660)">
<rect x="34.9531" y="28.6016" width="28.0385" height="40.7839" rx="1.21634" fill="white"/>
<rect x="38.1367" y="31.7891" width="21.6661" height="29.3134" rx="1.21634" fill="#EB008B"/>
<path d="M43.3955 47.054L50.4711 38.2404C50.872 37.7411 51.673 38.1207 51.5404 38.7472L50.2484 44.849H54.0782C54.5886 44.849 54.872 45.4399 54.5524 45.8379L47.6322 54.4579C47.2229 54.9676 46.4075 54.561 46.5685 53.9274L48.0636 48.0429H43.8697C43.3593 48.0429 43.0759 47.4521 43.3955 47.054Z" fill="white"/>
<mask id="path-5-outside-1_1370_92660" maskUnits="userSpaceOnUse" x="44.773" y="48.2077" width="38.9039" height="34.2223" fill="black">
<rect fill="white" x="44.773" y="48.2077" width="38.9039" height="34.2223"/>
<path fill-rule="evenodd" clip-rule="evenodd" d="M53.2174 52.5254C52.1783 53.2129 51.8933 54.6126 52.5807 55.6517L59.7985 66.5617L55.8129 65.8503C54.6252 65.6383 53.5522 66.5938 53.6256 67.7981C53.6734 68.5818 54.2072 69.2514 54.9605 69.4726L64.9063 72.3929L64.9723 72.4787L75.0181 65.8325L70.8341 57.2903C70.1699 55.9343 68.5556 55.3421 67.1721 55.9468L60.2017 58.9937L56.3437 53.1622C55.6562 52.123 54.2566 51.838 53.2174 52.5254ZM75.9754 67.5047L66.0977 74.0398L67.9648 76.862C68.3086 77.3816 69.0084 77.5241 69.5279 77.1804L77.5242 71.8901C78.0438 71.5463 78.1863 70.8465 77.8426 70.3269L75.9754 67.5047Z"/>
</mask>
<path fill-rule="evenodd" clip-rule="evenodd" d="M53.2174 52.5254C52.1783 53.2129 51.8933 54.6126 52.5807 55.6517L59.7985 66.5617L55.8129 65.8503C54.6252 65.6383 53.5522 66.5938 53.6256 67.7981C53.6734 68.5818 54.2072 69.2514 54.9605 69.4726L64.9063 72.3929L64.9723 72.4787L75.0181 65.8325L70.8341 57.2903C70.1699 55.9343 68.5556 55.3421 67.1721 55.9468L60.2017 58.9937L56.3437 53.1622C55.6562 52.123 54.2566 51.838 53.2174 52.5254ZM75.9754 67.5047L66.0977 74.0398L67.9648 76.862C68.3086 77.3816 69.0084 77.5241 69.5279 77.1804L77.5242 71.8901C78.0438 71.5463 78.1863 70.8465 77.8426 70.3269L75.9754 67.5047Z" fill="white"/>
<path d="M52.5807 55.6517L50.6992 56.8965L50.6992 56.8965L52.5807 55.6517ZM53.2174 52.5254L54.4622 54.4069L53.2174 52.5254ZM59.7985 66.5617L59.4021 68.7826L64.5848 69.7077L61.68 65.317L59.7985 66.5617ZM55.8129 65.8503L56.2093 63.6295L55.8129 65.8503ZM53.6256 67.7981L51.3738 67.9353L51.3738 67.9353L53.6256 67.7981ZM54.9605 69.4726L55.5961 67.308L55.5961 67.308L54.9605 69.4726ZM64.9063 72.3929L66.6943 71.0172L66.2465 70.4352L65.5418 70.2283L64.9063 72.3929ZM64.9723 72.4787L63.1843 73.8544L64.4652 75.5193L66.2171 74.3602L64.9723 72.4787ZM75.0181 65.8325L76.2629 67.714L77.916 66.6203L77.0441 64.8402L75.0181 65.8325ZM70.8341 57.2903L72.8601 56.298L72.8601 56.298L70.8341 57.2903ZM67.1721 55.9468L68.0757 58.014L67.1721 55.9468ZM60.2017 58.9937L58.3202 60.2384L59.3669 61.8207L61.1052 61.0608L60.2017 58.9937ZM56.3437 53.1622L54.4622 54.4069L54.4622 54.4069L56.3437 53.1622ZM66.0977 74.0398L64.8529 72.1583L62.9714 73.403L64.2162 75.2845L66.0977 74.0398ZM75.9754 67.5047L77.8569 66.2599L76.6122 64.3784L74.7307 65.6232L75.9754 67.5047ZM67.9648 76.862L69.8463 75.6173L69.8463 75.6173L67.9648 76.862ZM69.5279 77.1804L68.2832 75.2989L68.2832 75.2989L69.5279 77.1804ZM77.5242 71.8901L78.769 73.7716L78.769 73.7716L77.5242 71.8901ZM77.8426 70.3269L75.9611 71.5717L75.9611 71.5717L77.8426 70.3269ZM54.4622 54.407L54.4622 54.4069L51.9727 50.6439C49.8944 52.0189 49.3243 54.8182 50.6992 56.8965L54.4622 54.407ZM61.68 65.317L54.4622 54.407L50.6992 56.8965L57.917 67.8065L61.68 65.317ZM55.4165 68.0712L59.4021 68.7826L60.1949 64.3409L56.2093 63.6295L55.4165 68.0712ZM55.8774 67.6609C55.8929 67.9146 55.6668 68.1159 55.4165 68.0712L56.2093 63.6295C53.5836 63.1608 51.2115 65.273 51.3738 67.9353L55.8774 67.6609ZM55.5961 67.308C55.7548 67.3546 55.8673 67.4957 55.8774 67.6609L51.3738 67.9353C51.4794 69.6678 52.6596 71.1483 54.325 71.6372L55.5961 67.308ZM65.5418 70.2283L55.5961 67.308L54.325 71.6372L64.2707 74.5575L65.5418 70.2283ZM66.7603 71.1031L66.6943 71.0172L63.1182 73.7685L63.1843 73.8544L66.7603 71.1031ZM73.7733 63.951L63.7275 70.5973L66.2171 74.3602L76.2629 67.714L73.7733 63.951ZM68.8081 58.2826L72.9921 66.8248L77.0441 64.8402L72.8601 56.298L68.8081 58.2826ZM68.0757 58.014C68.3524 57.893 68.6752 58.0115 68.8081 58.2826L72.8601 56.298C71.6646 53.8572 68.7588 52.7912 66.2686 53.8797L68.0757 58.014ZM61.1052 61.0608L68.0757 58.014L66.2686 53.8797L59.2981 56.9266L61.1052 61.0608ZM54.4622 54.4069L58.3202 60.2384L62.0832 57.7489L58.2252 51.9174L54.4622 54.4069ZM54.4622 54.4069L54.4622 54.4069L58.2252 51.9174C56.8502 49.8391 54.0509 49.269 51.9727 50.6439L54.4622 54.4069ZM67.3425 75.9212L77.2202 69.3861L74.7307 65.6232L64.8529 72.1583L67.3425 75.9212ZM69.8463 75.6173L67.9792 72.795L64.2162 75.2845L66.0833 78.1068L69.8463 75.6173ZM68.2832 75.2989C68.8027 74.9551 69.5026 75.0977 69.8463 75.6173L66.0833 78.1068C67.1145 79.6655 69.2141 80.0931 70.7727 79.0619L68.2832 75.2989ZM76.2794 70.0086L68.2832 75.2989L70.7727 79.0619L78.769 73.7716L76.2794 70.0086ZM75.9611 71.5717C75.6174 71.0521 75.7599 70.3523 76.2794 70.0086L78.769 73.7716C80.3277 72.7404 80.7553 70.6409 79.7241 69.0822L75.9611 71.5717ZM74.094 68.7494L75.9611 71.5717L79.7241 69.0822L77.8569 66.2599L74.094 68.7494Z" fill="#EB008B" mask="url(#path-5-outside-1_1370_92660)"/>
</g>
<defs>
<clipPath id="clip0_1370_92660">
<rect width="44" height="50" fill="white" transform="translate(34 28)"/>
</clipPath>
</defs>
</svg>
