<svg width="52" height="52" viewBox="0 0 52 52" fill="none" xmlns="http://www.w3.org/2000/svg">
<rect width="52" height="52" rx="10" fill="#EB008B"/>
<path fill-rule="evenodd" clip-rule="evenodd" d="M18.3828 11.5923C18.3828 11.2652 18.6479 11 18.9751 11H33.026C33.3531 11 33.6183 11.2652 33.6183 11.5923V13.6973C33.6183 14.0244 33.3531 14.2896 33.026 14.2896H31.0066C30.6794 14.2896 30.4143 14.5548 30.4143 14.8819V21.1974C30.4143 21.2999 30.4409 21.4006 30.4915 21.4898L38.9909 36.4612C39.8876 38.0405 38.7468 40 36.9306 40H15.0693C13.2532 40 12.1124 38.0405 13.009 36.4611L21.5087 21.4893C21.5593 21.4002 21.5859 21.2994 21.5859 21.1969V14.8819C21.5859 14.5548 21.3207 14.2896 20.9936 14.2896H18.9751C18.6479 14.2896 18.3828 14.0244 18.3828 13.6973V11.5923Z" fill="white"/>
<path opacity="0.2" fill-rule="evenodd" clip-rule="evenodd" d="M34.1187 27.8789L38.9909 36.4612C39.8876 38.0405 38.7468 40 36.9306 40H15.0693C13.2532 40 12.1124 38.0405 13.009 36.4611L17.8812 27.8789H34.1187Z" fill="#EB008B"/>
</svg>
