<svg width="32" height="32" viewBox="0 0 32 32" fill="none" xmlns="http://www.w3.org/2000/svg">
<g clip-path="url(#clip0_434_433)">
<path fill-rule="evenodd" clip-rule="evenodd" d="M5 9C3.93913 9 2.92172 9.42143 2.17157 10.1716C1.42143 10.9217 1 11.9391 1 13V21C1 22.0609 1.42143 23.0783 2.17157 23.8284C2.92172 24.5786 3.93913 25 5 25H25C26.0609 25 27.0783 24.5786 27.8284 23.8284C28.5786 23.0783 29 22.0609 29 21V20.9507C30.1413 20.7187 31 19.7107 31 18.5V15.5C31 14.2907 30.1413 13.2813 29 13.0507V13C29 11.9391 28.5786 10.9217 27.8284 10.1716C27.0783 9.42143 26.0609 9 25 9H5ZM25 11C25.5304 11 26.0391 11.2107 26.4142 11.5858C26.7893 11.9609 27 12.4696 27 13V21C27 21.5304 26.7893 22.0391 26.4142 22.4142C26.0391 22.7893 25.5304 23 25 23H5C4.46957 23 3.96086 22.7893 3.58579 22.4142C3.21071 22.0391 3 21.5304 3 21V13C3 12.4696 3.21071 11.9609 3.58579 11.5858C3.96086 11.2107 4.46957 11 5 11H25ZM6 13C5.73478 13 5.48043 13.1054 5.29289 13.2929C5.10536 13.4804 5 13.7348 5 14V20C5 20.552 5.448 21 6 21H24C24.2652 21 24.5196 20.8946 24.7071 20.7071C24.8946 20.5196 25 20.2652 25 20V14C25 13.7348 24.8946 13.4804 24.7071 13.2929C24.5196 13.1054 24.2652 13 24 13H6Z" fill="white"/>
</g>
<defs>
<clipPath id="clip0_434_433">
<rect width="32" height="32" fill="white"/>
</clipPath>
</defs>
</svg>
