<svg width="32" height="32" viewBox="0 0 32 32" fill="none" xmlns="http://www.w3.org/2000/svg">
<g id="Icon">
<path id="Vector" fill-rule="evenodd" clip-rule="evenodd" d="M2 6C2 4.93913 2.42143 3.92172 3.17157 3.17157C3.92172 2.42143 4.93913 2 6 2H7.82933C8.976 2 9.976 2.78133 10.2547 3.89333L11.728 9.79067C11.8474 10.268 11.8233 10.7699 11.6587 11.2336C11.4941 11.6973 11.1963 12.1021 10.8027 12.3973L9.07867 13.6907C8.89867 13.8253 8.86 14.0227 8.91067 14.16C9.66317 16.2065 10.8515 18.0649 12.3933 19.6067C13.9351 21.1485 15.7935 22.3368 17.84 23.0893C17.9773 23.14 18.1733 23.1013 18.3093 22.9213L19.6027 21.1973C19.8979 20.8037 20.3027 20.5059 20.7664 20.3413C21.2301 20.1767 21.732 20.1526 22.2093 20.272L28.1067 21.7453C29.2187 22.024 30 23.024 30 24.172V26C30 27.0609 29.5786 28.0783 28.8284 28.8284C28.0783 29.5786 27.0609 30 26 30H23C11.4027 30 2 20.5973 2 9V6Z" fill="#666666"/>
</g>
</svg>
