<svg width="40" height="40" viewBox="0 0 40 40" fill="none" xmlns="http://www.w3.org/2000/svg">
<g id="Icon">
<path id="Vector" d="M2.5 14.45V28.75C2.5 30.076 3.02678 31.3478 3.96447 32.2855C4.90215 33.2232 6.17392 33.75 7.5 33.75H32.5C33.8261 33.75 35.0979 33.2232 36.0355 32.2855C36.9732 31.3478 37.5 30.076 37.5 28.75V14.45L22.62 23.605C21.8321 24.0897 20.9251 24.3464 20 24.3464C19.0749 24.3464 18.1679 24.0897 17.38 23.605L2.5 14.45Z" fill="#666666"/>
<path id="Vector_2" d="M37.5 11.5133V11.25C37.5 9.92392 36.9732 8.65215 36.0355 7.71447C35.0979 6.77678 33.8261 6.25 32.5 6.25H7.5C6.17392 6.25 4.90215 6.77678 3.96447 7.71447C3.02678 8.65215 2.5 9.92392 2.5 11.25V11.5133L18.69 21.4767C19.084 21.719 19.5374 21.8474 20 21.8474C20.4626 21.8474 20.916 21.719 21.31 21.4767L37.5 11.5133Z" fill="#666666"/>
</g>
</svg>
