<svg width="182" height="48" viewBox="0 0 182 48" fill="none" xmlns="http://www.w3.org/2000/svg">
<g id="Logo: LG">
<path id="Vector" d="M24.4806 48C37.7354 48 48.4795 37.2463 48.4795 23.9986C48.4795 10.7396 37.7354 0 24.4806 0C11.2258 0 0.481689 10.7396 0.481689 23.9986C0.481689 37.2463 11.2258 48 24.4806 48Z" fill="#A51B37"/>
<path id="Vector_2" d="M23.5266 13.4624V34.5032H30.2106V32.6285H25.4323V13.4624H23.5266Z" fill="white"/>
<path id="Vector_3" d="M16.8181 19.2043C18.4071 19.2043 19.6992 17.9149 19.6992 16.3314C19.6992 14.7394 18.4071 13.45 16.8181 13.45C15.2347 13.45 13.9426 14.7394 13.9426 16.3314C13.9426 17.9149 15.2347 19.2043 16.8181 19.2043Z" fill="white"/>
<path id="Vector_4" d="M25.4365 3.9197C25.1962 3.90839 24.7184 3.8999 24.4837 3.8999C13.4145 3.8999 4.40356 12.9117 4.40356 23.9935C4.40356 29.3576 6.4817 34.405 10.2732 38.197C14.0789 41.9917 19.1258 44.0785 24.4837 44.0785C29.8444 44.0785 34.8913 41.9917 38.6913 38.197C42.4829 34.405 44.5667 29.3576 44.5667 23.9935V23.0773L43.7637 23.083H30.229V24.9492H42.661V25.215C42.022 34.6934 34.111 42.2038 24.4837 42.2038C19.6234 42.2038 15.0543 40.3092 11.6106 36.8708C8.16965 33.4295 6.2753 28.8599 6.2753 23.9935C6.2753 19.1298 8.16965 14.5518 11.6106 11.1133C15.0543 7.67204 19.6234 5.77749 24.4837 5.77749C24.7042 5.77749 25.2188 5.78597 25.4365 5.7888V3.9197Z" fill="white"/>
<path id="Vector_5" d="M68.0665 39.5155H81.2195V33.4728H66.37V8.4873H59.2083V39.5155H68.0665Z" fill="#6B6C6C"/>
<path id="Vector_6" d="M96.9953 27.6887H102.834V33.1122C101.757 33.5222 99.6587 33.9322 97.6598 33.9322C91.2105 33.9322 89.0588 30.6577 89.0588 23.9985C89.0588 17.6504 91.1059 13.9122 97.5552 13.9122C101.143 13.9122 103.19 15.0376 104.878 17.1923L109.334 13.0921C106.62 9.20405 101.858 8.0249 97.4053 8.0249C87.3681 8.0249 82.095 13.5021 82.095 23.9476C82.095 34.3422 86.8563 39.9778 97.3516 39.9778C102.164 39.9778 106.877 38.7478 109.436 36.9522V21.9032H96.9953V27.6887Z" fill="#6B6C6C"/>
<path id="Vector_7" d="M115.75 8.44422V12.994H122.019V14.1618C122.019 18.8501 120.127 21.33 115.027 22.9531L116.955 27.2936C120.469 26.4651 123.913 24.398 125.33 21.5732C126.842 24.398 130.153 26.3605 133.218 27.0844L135.664 22.1246C131.219 21.1575 128.016 18.7455 128.016 14.1307V12.994H134.182V8.44422H115.75ZM144.316 7.82495H138.559V14.3739H133.15V19.0933H138.559V31.0488H143.623C144.038 29.4285 144.316 26.7083 144.316 24.7402V7.82495ZM144.898 35.3214H127.945C127.498 35.3214 127.36 35.2196 127.36 34.7361V28.0147H121.606V37.0774C121.606 39.0427 122.607 39.973 124.572 39.973H144.898V35.3214ZM148.172 8.41028V12.9261H154.718V15.1034C154.718 20.8606 153.547 24.4772 147.587 27.0985L149.826 31.094C153.239 29.8187 156.439 27.4067 157.921 24.3358C159.403 27.2342 162.504 29.6123 165.501 30.783L168.19 26.0975C162.4 23.9258 160.401 20.5467 160.401 15.0723V12.9261H166.771V8.41028H148.172ZM181.518 16.3759H175.799V7.82495H170.285V39.973H175.112C175.558 38.0756 175.799 34.8181 175.799 32.2703V20.9907H181.518V16.3759Z" fill="#6B6C6C"/>
</g>
</svg>
