<svg width="121" height="121" viewBox="0 0 121 121" fill="none" xmlns="http://www.w3.org/2000/svg">
<rect x="0.666687" y="0.165039" width="120" height="120" rx="60" fill="#EB008B"/>
<path fill-rule="evenodd" clip-rule="evenodd" d="M42.5551 55.3124C43.4063 52.1328 45.0796 49.2332 47.4067 46.9053C49.7338 44.5773 52.6327 42.903 55.8121 42.0507C58.9914 41.1983 62.3392 41.1979 65.5187 42.0496C68.6982 42.9013 71.5975 44.575 73.9251 46.9024L78.6826 51.6599H70.7251C70.2278 51.6599 69.7509 51.8575 69.3993 52.2091C69.0477 52.5607 68.8501 53.0376 68.8501 53.5349C68.8501 54.0322 69.0477 54.5091 69.3993 54.8607C69.7509 55.2124 70.2278 55.4099 70.7251 55.4099H83.2051C83.7024 55.4099 84.1793 55.2124 84.531 54.8607C84.8826 54.5091 85.0801 54.0322 85.0801 53.5349V41.0549C85.0801 40.5576 84.8826 40.0807 84.531 39.7291C84.1793 39.3775 83.7024 39.1799 83.2051 39.1799C82.7078 39.1799 82.2309 39.3775 81.8793 39.7291C81.5277 40.0807 81.3301 40.5576 81.3301 41.0549V49.0049L76.5801 44.2549C73.7876 41.461 70.3086 39.4516 66.4932 38.4287C62.6777 37.4057 58.6602 37.4053 54.8445 38.4274C51.0289 39.4496 47.5495 41.4583 44.7564 44.2515C41.9632 47.0448 39.9546 50.5242 38.9326 54.3399C38.8689 54.5779 38.8527 54.8262 38.885 55.0704C38.9172 55.3147 38.9973 55.5502 39.1205 55.7636C39.2438 55.9769 39.4079 56.1639 39.6034 56.3138C39.799 56.4638 40.0221 56.5737 40.2601 56.6374C40.4981 56.7011 40.7464 56.7173 40.9907 56.685C41.2349 56.6528 41.4705 56.5728 41.6838 56.4495C41.8972 56.3262 42.0841 56.1621 42.2341 55.9666C42.384 55.7711 42.4939 55.5479 42.5576 55.3099L42.5551 55.3124ZM81.0751 63.6924C80.8373 63.6285 80.5891 63.6121 80.3449 63.6441C80.1007 63.6761 79.8652 63.7559 79.6519 63.8789C79.4385 64.002 79.2515 64.1659 79.1015 64.3612C78.9515 64.5565 78.8414 64.7795 78.7776 65.0174C77.9264 68.1971 76.2532 71.0966 73.926 73.4246C71.5989 75.7525 68.7 77.4268 65.5207 78.2792C62.3413 79.1315 58.9936 79.1319 55.8141 78.2802C52.6345 77.4285 49.7352 75.7549 47.4076 73.4274L42.6526 68.6699H50.6101C51.1074 68.6699 51.5843 68.4724 51.9359 68.1207C52.2876 67.7691 52.4851 67.2922 52.4851 66.7949C52.4851 66.2976 52.2876 65.8207 51.9359 65.4691C51.5843 65.1175 51.1074 64.9199 50.6101 64.9199H38.1276C37.6303 64.9199 37.1534 65.1175 36.8018 65.4691C36.4502 65.8207 36.2526 66.2976 36.2526 66.7949V79.2749C36.2526 79.7722 36.4502 80.2491 36.8018 80.6007C37.1534 80.9524 37.6303 81.1499 38.1276 81.1499C38.6249 81.1499 39.1018 80.9524 39.4534 80.6007C39.8051 80.2491 40.0026 79.7722 40.0026 79.2749V71.3249L44.7526 76.0749C47.5454 78.8688 51.0245 80.8781 54.8401 81.9009C58.6557 82.9237 62.6733 82.9239 66.489 81.9015C70.3048 80.8791 73.784 78.8701 76.5771 76.0766C79.3701 73.283 81.3784 69.8033 82.4001 65.9874C82.5284 65.5074 82.461 64.996 82.2125 64.5657C81.9641 64.1354 81.555 63.8213 81.0751 63.6924Z" fill="white" stroke="white"/>
</svg>
