<svg width="32" height="32" viewBox="0 0 32 32" fill="none" xmlns="http://www.w3.org/2000/svg">
<g clip-path="url(#clip0_434_430)">
<path fill-rule="evenodd" clip-rule="evenodd" d="M12.5343 4.00391C14.0743 1.33724 17.9249 1.33724 19.4636 4.00391L29.2703 21.0012C30.8089 23.6679 28.8836 27.0012 25.8049 27.0012H6.19292C3.11425 27.0012 1.19025 23.6679 2.72892 21.0012L12.5329 4.00391H12.5343ZM15.9996 10.9999C16.2648 10.9999 16.5192 11.1053 16.7067 11.2928C16.8942 11.4803 16.9996 11.7347 16.9996 11.9999V16.9999C16.9996 17.2651 16.8942 17.5195 16.7067 17.707C16.5192 17.8945 16.2648 17.9999 15.9996 17.9999C15.7344 17.9999 15.48 17.8945 15.2925 17.707C15.1049 17.5195 14.9996 17.2651 14.9996 16.9999V11.9999C14.9996 11.7347 15.1049 11.4803 15.2925 11.2928C15.48 11.1053 15.7344 10.9999 15.9996 10.9999ZM15.9996 21.9999C16.2648 21.9999 16.5192 21.8945 16.7067 21.707C16.8942 21.5195 16.9996 21.2651 16.9996 20.9999C16.9996 20.7347 16.8942 20.4803 16.7067 20.2928C16.5192 20.1053 16.2648 19.9999 15.9996 19.9999C15.7344 19.9999 15.48 20.1053 15.2925 20.2928C15.1049 20.4803 14.9996 20.7347 14.9996 20.9999C14.9996 21.2651 15.1049 21.5195 15.2925 21.707C15.48 21.8945 15.7344 21.9999 15.9996 21.9999Z" fill="white"/>
</g>
<defs>
<clipPath id="clip0_434_430">
<rect width="32" height="32" fill="white"/>
</clipPath>
</defs>
</svg>
