<svg width="120" height="121" viewBox="0 0 120 121" fill="none" xmlns="http://www.w3.org/2000/svg">
<rect y="0.165039" width="120" height="120" rx="60" fill="#EB008B"/>
<path d="M38.4375 41.415C35.8475 41.415 33.75 43.515 33.75 46.1025V63.915H63.75V46.1025C63.75 43.5125 61.65 41.415 59.0625 41.415H38.4375ZM63.75 67.665H33.75V74.2275C33.75 76.815 35.85 78.915 38.4375 78.915H39.375C39.375 76.9259 40.1652 75.0183 41.5717 73.6117C42.9782 72.2052 44.8859 71.415 46.875 71.415C48.8641 71.415 50.7718 72.2052 52.1783 73.6117C53.5848 75.0183 54.375 76.9259 54.375 78.915H61.875C62.3723 78.915 62.8492 78.7175 63.2008 78.3659C63.5525 78.0142 63.75 77.5373 63.75 77.04V67.665Z" fill="white"/>
<path d="M50.625 78.9151C50.625 77.9205 50.2299 76.9667 49.5267 76.2634C48.8234 75.5602 47.8696 75.1651 46.875 75.1651C45.8804 75.1651 44.9266 75.5602 44.2233 76.2634C43.5201 76.9667 43.125 77.9205 43.125 78.9151C43.125 79.9096 43.5201 80.8635 44.2233 81.5667C44.9266 82.27 45.8804 82.6651 46.875 82.6651C47.8696 82.6651 48.8234 82.27 49.5267 81.5667C50.2299 80.8635 50.625 79.9096 50.625 78.9151ZM69.375 47.0401C68.8777 47.0401 68.4008 47.2376 68.0492 47.5893C67.6975 47.9409 67.5 48.4178 67.5 48.9151V77.0401C67.5 77.2576 67.5375 77.4651 67.605 77.6601C67.9166 75.813 68.9081 74.1493 70.3845 72.9964C71.8609 71.8435 73.7153 71.2848 75.5828 71.4303C77.4504 71.5757 79.1959 72.4148 80.476 73.7823C81.7561 75.1499 82.4781 76.947 82.5 78.8201C84.6325 78.3826 86.305 76.4826 86.16 74.1126C85.6007 64.9585 82.3555 56.1723 76.83 48.8526C76.3996 48.2866 75.8436 47.8283 75.2059 47.5137C74.5681 47.1992 73.8661 47.0371 73.155 47.0401H69.375Z" fill="white"/>
<path d="M78.75 78.915C78.75 77.9205 78.3549 76.9667 77.6516 76.2634C76.9484 75.5601 75.9946 75.165 75 75.165C74.0054 75.165 73.0516 75.5601 72.3484 76.2634C71.6451 76.9667 71.25 77.9205 71.25 78.915C71.25 79.9096 71.6451 80.8634 72.3484 81.5667C73.0516 82.2699 74.0054 82.665 75 82.665C75.9946 82.665 76.9484 82.2699 77.6516 81.5667C78.3549 80.8634 78.75 79.9096 78.75 78.915Z" fill="white"/>
</svg>
