<svg width="121" height="121" viewBox="0 0 121 121" fill="none" xmlns="http://www.w3.org/2000/svg">
<rect x="0.333252" y="0.165039" width="120" height="120" rx="60" fill="#EB008B"/>
<path fill-rule="evenodd" clip-rule="evenodd" d="M60.3339 47.0396C60.3334 44.9896 60.813 42.9679 61.7345 41.1367C62.6559 39.3054 63.9935 37.7155 65.64 36.4943C67.2866 35.273 69.1963 34.4545 71.2161 34.1042C73.236 33.7539 75.3098 33.8816 77.2714 34.4771C77.5814 34.571 77.8619 34.7436 78.0853 34.9782C78.3088 35.2127 78.4676 35.5012 78.5464 35.8154C78.6253 36.1296 78.6213 36.4589 78.535 36.7711C78.4487 37.0834 78.2829 37.3679 78.0539 37.5971L69.7539 45.8946C69.9114 47.0821 70.4439 48.2296 71.3564 49.1421C72.2689 50.0546 73.4164 50.5871 74.6064 50.7421L82.9014 42.4446C83.1305 42.2155 83.4151 42.0498 83.7273 41.9635C84.0395 41.8771 84.3688 41.8732 84.6831 41.952C84.9973 42.0308 85.2857 42.1897 85.5203 42.4131C85.7548 42.6366 85.9275 42.917 86.0214 43.2271C86.6444 45.2792 86.7551 47.4527 86.3437 49.5575C85.9324 51.6624 85.0115 53.6343 83.6617 55.3009C82.3119 56.9674 80.5742 58.2778 78.6008 59.1174C76.6273 59.957 74.4782 60.3002 72.3414 60.1171C69.7964 59.9021 67.6664 60.3671 66.5689 61.7021L48.6939 83.4146C47.962 84.299 47.0535 85.0208 46.0265 85.5338C44.9995 86.0468 43.8768 86.3397 42.73 86.3938C41.5833 86.4478 40.438 86.2618 39.3673 85.8476C38.2967 85.4335 37.3243 84.8003 36.5125 83.9886C35.7006 83.177 35.0672 82.2047 34.6528 81.1342C34.2385 80.0636 34.0522 78.9183 34.106 77.7715C34.1598 76.6248 34.4524 75.502 34.9652 74.4749C35.478 73.4478 36.1996 72.5391 37.0839 71.8071L58.7939 53.9296C60.1264 52.8296 60.5939 50.7021 60.3789 48.1571C60.3483 47.7853 60.3333 47.4125 60.3339 47.0396ZM40.6264 77.9771C40.6264 77.4798 40.8239 77.0029 41.1756 76.6512C41.5272 76.2996 42.0041 76.1021 42.5014 76.1021H42.5214C43.0187 76.1021 43.4956 76.2996 43.8472 76.6512C44.1989 77.0029 44.3964 77.4798 44.3964 77.9771V77.9971C44.3964 78.4943 44.1989 78.9713 43.8472 79.3229C43.4956 79.6745 43.0187 79.8721 42.5214 79.8721H42.5014C42.0041 79.8721 41.5272 79.6745 41.1756 79.3229C40.8239 78.9713 40.6264 78.4943 40.6264 77.9971V77.9771Z" fill="white"/>
<path d="M55.5226 51.7649L50.0201 46.2649V42.3499C50.0201 42.0262 49.9362 41.708 49.7768 41.4263C49.6173 41.1446 49.3876 40.909 49.1101 40.7424L39.7351 35.1174C39.3765 34.9025 38.9564 34.8135 38.5415 34.8647C38.1266 34.9159 37.7406 35.1043 37.4451 35.3999L35.5701 37.2749C35.2744 37.5705 35.086 37.9564 35.0349 38.3713C34.9837 38.7862 35.0726 39.2063 35.2876 39.5649L40.9126 48.9399C41.0792 49.2174 41.3148 49.4471 41.5965 49.6066C41.8782 49.7661 42.1964 49.8499 42.5201 49.8499H46.4301L51.5851 55.0049L55.5226 51.7624V51.7649Z" fill="white"/>
<path fill-rule="evenodd" clip-rule="evenodd" d="M61.7239 73.4871L72.1814 83.9421C72.9649 84.7256 73.895 85.3471 74.9187 85.7711C75.9424 86.1951 77.0396 86.4134 78.1476 86.4134C79.2557 86.4134 80.3528 86.1951 81.3765 85.7711C82.4002 85.3471 83.3304 84.7256 84.1139 83.9421C84.8974 83.1586 85.5189 82.2284 85.9429 81.2047C86.3669 80.181 86.5852 79.0839 86.5852 77.9758C86.5852 76.8678 86.3669 75.7706 85.9429 74.7469C85.5189 73.7232 84.8974 72.7931 84.1139 72.0096L75.8489 63.7471C74.582 63.9267 73.2989 63.9627 72.0239 63.8546C71.0389 63.7696 70.3189 63.8396 69.8564 63.9596C69.71 63.9906 69.5692 64.0437 69.4389 64.1171L61.7239 73.4871ZM70.2589 70.0871C70.6104 69.7359 71.087 69.5387 71.5839 69.5387C72.0808 69.5387 72.5573 69.7359 72.9089 70.0871L77.5964 74.7771C77.7806 74.9487 77.9284 75.1557 78.0308 75.3857C78.1333 75.6157 78.1884 75.864 78.1929 76.1158C78.1973 76.3675 78.151 76.6176 78.0567 76.8511C77.9624 77.0845 77.822 77.2966 77.644 77.4747C77.4659 77.6527 77.2538 77.7931 77.0204 77.8874C76.7869 77.9817 76.5368 78.028 76.2851 78.0236C76.0333 78.0191 75.785 77.964 75.555 77.8615C75.325 77.759 75.118 77.6113 74.9464 77.4271L70.2589 72.7396C69.9078 72.388 69.7105 71.9114 69.7105 71.4146C69.7105 70.9177 69.9078 70.4411 70.2589 70.0896V70.0871Z" fill="white"/>
</svg>
