<svg width="32" height="32" viewBox="0 0 32 32" fill="none" xmlns="http://www.w3.org/2000/svg">
<g clip-path="url(#clip0_434_427)">
<path d="M19.0005 4.58348C18.2137 5.26929 17.9894 6.3236 18.3207 7.22437L18.1654 7.07083C17.2199 6.13594 15.6635 6.0404 14.6904 6.94799C13.6827 7.88629 13.6655 9.45581 14.6352 10.418L14.2142 10.0017C13.2686 9.06685 11.7123 8.97131 10.7391 9.8789C9.73148 10.8172 9.71422 12.3867 10.6839 13.3489L4.24458 6.9787C3.29904 6.04381 1.74269 5.94828 0.769547 6.85587C-0.23811 7.79417 -0.255364 9.36369 0.714333 10.3259L10.4769 19.9784C8.59959 19.7908 6.69471 19.9545 4.87954 20.4663C4.50685 20.5721 4.16176 20.77 3.88914 21.043C3.15756 21.7663 2.98846 22.9025 3.54405 23.8237C4.08929 24.7313 5.22118 25.0896 6.24954 24.8098C10.4355 23.6668 14.8353 25.6969 18.614 27.2972C20.4327 28.0683 24.1596 28.9486 27.6968 25.4513L29.7776 23.3938C34.5088 18.716 30.3781 12.6221 29.3497 11.6088L28.9494 11.213L23.8904 6.211L22.4135 4.75067C21.4886 3.83625 19.9806 3.72365 19.004 4.58007L19.0005 4.58348Z" fill="white"/>
</g>
<defs>
<clipPath id="clip0_434_427">
<rect width="32" height="32" fill="white"/>
</clipPath>
</defs>
</svg>
