<svg width="32" height="32" viewBox="0 0 32 32" fill="none" xmlns="http://www.w3.org/2000/svg">
<g clip-path="url(#clip0_434_436)">
<path fill-rule="evenodd" clip-rule="evenodd" d="M19.4867 2.12648C19.6819 2.23514 19.8351 2.40605 19.9219 2.61195C20.0086 2.81785 20.0239 3.04687 19.9653 3.26248L17.3093 12.9998H27C27.1949 12.9998 27.3855 13.0568 27.5485 13.1637C27.7114 13.2706 27.8396 13.4228 27.9172 13.6015C27.9948 13.7803 28.0185 13.9778 27.9854 14.1699C27.9522 14.3619 27.8637 14.5401 27.7307 14.6825L13.7307 29.6825C13.5782 29.8462 13.3752 29.9541 13.1542 29.9888C12.9331 30.0236 12.7068 29.9832 12.5115 29.8741C12.3161 29.7651 12.163 29.5937 12.0765 29.3873C11.9901 29.1809 11.9753 28.9515 12.0347 28.7358L14.6907 18.9998H5C4.80512 18.9998 4.61449 18.9428 4.45154 18.8359C4.28859 18.729 4.16043 18.5769 4.08281 18.3981C4.00519 18.2194 3.98149 18.0218 4.01462 17.8298C4.04776 17.6377 4.13629 17.4595 4.26933 17.3171L18.2693 2.31714C18.4218 2.15401 18.6245 2.0466 18.8451 2.01205C19.0658 1.97749 19.2916 2.01778 19.4867 2.12648Z" fill="white"/>
</g>
<defs>
<clipPath id="clip0_434_436">
<rect width="32" height="32" fill="white"/>
</clipPath>
</defs>
</svg>
