<svg width="32" height="32" viewBox="0 0 32 32" fill="none" xmlns="http://www.w3.org/2000/svg">
<g clip-path="url(#clip0_434_421)">
<path d="M23.9832 22.6592C21.5687 22.6592 18.898 21.8423 16.0103 20.2176C11.8867 17.8965 8.24242 17.4595 5.17988 18.9154C2.9312 19.9855 1.86111 21.6855 1.85207 21.7036C1.5627 22.1739 0.947775 22.3186 0.474527 22.0292C0.00429351 21.7398 -0.140394 21.1219 0.148981 20.6516C0.203238 20.5642 5.61695 12.0759 16.99 18.4723C20.5499 20.4738 23.6486 21.1038 26.1957 20.3442C28.9267 19.5303 30.0601 17.3962 30.1083 17.3057C30.3615 16.8174 30.9644 16.6245 31.4527 16.8747C31.941 17.1249 32.1399 17.7217 31.8897 18.2131C31.8295 18.3336 30.3615 21.1701 26.8136 22.2492C25.9154 22.5235 24.9689 22.6592 23.9832 22.6592Z" fill="white"/>
<path d="M18.2144 16.2939C21.2589 18.006 23.4232 18.3195 24.9243 18.0693C23.0585 12.0347 15.9989 2 15.9989 2C15.9989 2 11.7397 8.05275 8.9635 13.584C11.5438 13.584 14.6425 14.2833 18.2144 16.2939Z" fill="white"/>
<path d="M23.9819 25.1621C21.1364 25.1621 18.0588 24.2397 14.7853 22.398C11.5961 20.6045 8.86212 20.1403 6.64056 21.0114C6.90582 25.9519 10.9932 29.8765 16 29.8765C19.4816 29.8765 22.517 27.9775 24.1327 25.1591C24.0814 25.1591 24.0302 25.1591 23.9789 25.1591L23.9819 25.1621Z" fill="white"/>
</g>
<defs>
<clipPath id="clip0_434_421">
<rect width="32" height="32" fill="white"/>
</clipPath>
</defs>
</svg>
