<svg width="41" height="41" viewBox="0 0 41 41" fill="none" xmlns="http://www.w3.org/2000/svg">
<g id="Icon">
<path id="Vector" d="M13 6.125C13 4.39833 14.4 3 16.125 3H16.75C18.4076 3 19.9973 3.65848 21.1694 4.83058C22.3415 6.00268 23 7.5924 23 9.25V12.375C23 14.1017 24.4 15.5 26.125 15.5H29.25C30.9076 15.5 32.4973 16.1585 33.6694 17.3306C34.8415 18.5027 35.5 20.0924 35.5 21.75V27.375C35.5 29.1 34.1 30.5 32.375 30.5H16.125C15.2962 30.5 14.5013 30.1708 13.9153 29.5847C13.3292 28.9987 13 28.2038 13 27.375V6.125Z" fill="#666666"/>
<path id="Vector_2" d="M25.5 9.24995C25.5029 7.14752 24.7459 5.11488 23.3683 3.52661C26.1572 4.25988 28.7012 5.72074 30.7402 7.75976C32.7792 9.79878 34.2401 12.3428 34.9733 15.1316C33.3851 13.7541 31.3524 12.997 29.25 12.9999H26.125C25.9592 12.9999 25.8003 12.9341 25.6831 12.8169C25.5658 12.6997 25.5 12.5407 25.5 12.3749V9.24995ZM8.625 10.4999H10.5V27.3749C10.5 28.8668 11.0926 30.2975 12.1475 31.3524C13.2024 32.4073 14.6332 32.9999 16.125 32.9999H28V34.8749C28 36.5999 26.6 37.9999 24.875 37.9999H8.625C7.7962 37.9999 7.00134 37.6707 6.41529 37.0847C5.82924 36.4986 5.5 35.7037 5.5 34.8749V13.6249C5.5 11.8983 6.9 10.4999 8.625 10.4999Z" fill="#666666"/>
</g>
</svg>
