<svg width="32" height="32" viewBox="0 0 32 32" fill="none" xmlns="http://www.w3.org/2000/svg">
<path d="M16.8462 9.64706H5.76923C5.03479 9.64706 4.33042 9.94454 3.81109 10.4741C3.29176 11.0036 3 11.7217 3 12.4706V18.1176C3 18.8665 3.29176 19.5847 3.81109 20.1142C4.33042 20.6437 5.03479 20.9412 5.76923 20.9412H7.15385V26.5882C7.15385 26.9627 7.29973 27.3217 7.55939 27.5865C7.81906 27.8513 8.17124 28 8.53846 28H11.3077C11.6749 28 12.0271 27.8513 12.2868 27.5865C12.5464 27.3217 12.6923 26.9627 12.6923 26.5882V20.9412H16.8462L23.7692 26.5882V4L16.8462 9.64706ZM30 15.2941C30 17.7082 28.6708 19.8965 26.5385 20.9412V9.64706C28.6569 10.7059 30 12.8941 30 15.2941Z" fill="#EB008B"/>
</svg>
