<svg width="24" height="23" viewBox="0 0 24 23" fill="none" xmlns="http://www.w3.org/2000/svg">
<path d="M1 20H0.5V20.5H1V20ZM24 20L19 17.1132V22.8868L24 20ZM0.5 0V1H1.5V0H0.5ZM0.5 3V5H1.5V3H0.5ZM0.5 7V9H1.5V7H0.5ZM0.5 11V13H1.5V11H0.5ZM0.5 15V17H1.5V15H0.5ZM0.5 19V20H1.5V19H0.5ZM1 20.5H1.95833V19.5H1V20.5ZM3.875 20.5H5.79167V19.5H3.875V20.5ZM7.70833 20.5H9.625V19.5H7.70833V20.5ZM11.5417 20.5H13.4583V19.5H11.5417V20.5ZM15.375 20.5H17.2917V19.5H15.375V20.5ZM19.2083 20.5H21.125V19.5H19.2083V20.5Z" fill="#FF5758"/>
</svg>
