<svg width="101" height="45" viewBox="0 0 101 45" fill="none" xmlns="http://www.w3.org/2000/svg">
<path opacity="0.5" d="M31.7724 20.9016C32.8337 21.7017 32.8337 23.2954 31.7724 24.0956L11.9956 39.0058C10.6778 39.9993 8.79162 39.0592 8.79162 37.4088L8.79162 7.58836C8.79162 5.93796 10.6778 4.99783 11.9956 5.99138L31.7724 20.9016Z" fill="#4F7EF4"/>
<path opacity="0.7" d="M65.2372 20.9016C66.2986 21.7017 66.2986 23.2954 65.2372 24.0956L45.4605 39.0058C44.1426 39.9993 42.2565 39.0592 42.2565 37.4088L42.2565 7.58836C42.2565 5.93796 44.1426 4.99783 45.4605 5.99138L65.2372 20.9016Z" fill="#4F7EF4"/>
<path d="M98.7021 20.9016C99.7634 21.7017 99.7634 23.2954 98.7021 24.0956L78.9253 39.0058C77.6075 39.9993 75.7213 39.0592 75.7213 37.4088L75.7213 7.58836C75.7213 5.93796 77.6075 4.99783 78.9253 5.99138L98.7021 20.9016Z" fill="#4F7EF4"/>
</svg>
