<svg width="30" height="30" viewBox="0 0 30 30" fill="none" xmlns="http://www.w3.org/2000/svg">
<path d="M16 4H8C5.79086 4 4 5.79086 4 8V22C4 24.2091 5.79086 26 8 26H16" stroke="black" stroke-width="2.5" stroke-linecap="round"/>
<path fill-rule="evenodd" clip-rule="evenodd" d="M23.0075 10.3598C22.5159 9.87517 21.7245 9.88082 21.2398 10.3724C20.7552 10.8641 20.7608 11.6555 21.2524 12.1402L23.139 14L12 14C11.3096 14 10.75 14.5596 10.75 15.25C10.75 15.9404 11.3096 16.5 12 16.5L23.139 16.5L21.2524 18.3598C20.7608 18.8445 20.7552 19.6359 21.2398 20.1276C21.7245 20.6192 22.5159 20.6248 23.0075 20.1402L27.065 16.1402C27.3033 15.9053 27.4375 15.5846 27.4375 15.25C27.4375 14.9154 27.3033 14.5947 27.065 14.3598L23.0075 10.3598Z" fill="black"/>
</svg>
