<svg width="16" height="16" viewBox="0 0 16 16" fill="none" xmlns="http://www.w3.org/2000/svg">
<mask id="path-1-inside-1_16778_33386" fill="white">
<path fill-rule="evenodd" clip-rule="evenodd" d="M1 4.5C1 3.67157 1.67157 3 2.5 3H13.5C14.3284 3 15 3.67157 15 4.5V6.85C14.1716 6.85 13.5 7.58873 13.5 8.5C13.5 9.41127 14.1716 10.15 15 10.15V12.5C15 13.3284 14.3284 14 13.5 14H2.5C1.67157 14 1 13.3284 1 12.5V10.15C1.82843 10.15 2.5 9.41127 2.5 8.5C2.5 7.58873 1.82843 6.85 1 6.85V4.5Z"/>
</mask>
<path d="M15 6.85V8.35H16.5V6.85H15ZM15 10.15H16.5V8.65H15V10.15ZM1 10.15V8.65H-0.5V10.15H1ZM1 6.85H-0.5V8.35H1V6.85ZM2.5 1.5C0.843146 1.5 -0.5 2.84315 -0.5 4.5H2.5V4.5V1.5ZM13.5 1.5H2.5V4.5H13.5V1.5ZM16.5 4.5C16.5 2.84315 15.1569 1.5 13.5 1.5V4.5H16.5ZM16.5 6.85V4.5H13.5V6.85H16.5ZM15 8.5C15 8.4136 15.0314 8.36188 15.0492 8.34228C15.0576 8.33309 15.0591 8.3349 15.0489 8.33967C15.037 8.3452 15.0189 8.35 15 8.35V5.35C13.2118 5.35 12 6.89804 12 8.5H15ZM15 8.65C15.0189 8.65 15.037 8.6548 15.0489 8.66033C15.0591 8.6651 15.0576 8.6669 15.0492 8.65772C15.0314 8.63812 15 8.5864 15 8.5H12C12 10.102 13.2118 11.65 15 11.65V8.65ZM16.5 12.5V10.15H13.5V12.5H16.5ZM13.5 15.5C15.1569 15.5 16.5 14.1569 16.5 12.5H13.5V15.5ZM2.5 15.5H13.5V12.5H2.5V15.5ZM-0.5 12.5C-0.5 14.1569 0.843146 15.5 2.5 15.5V12.5H2.5H-0.5ZM-0.5 10.15V12.5H2.5V10.15H-0.5ZM1 8.5C1 8.5864 0.968566 8.63812 0.95075 8.65772C0.942397 8.6669 0.940862 8.6651 0.95111 8.66033C0.962985 8.6548 0.981058 8.65 1 8.65V11.65C2.78819 11.65 4 10.102 4 8.5H1ZM1 8.35C0.981058 8.35 0.962985 8.3452 0.95111 8.33967C0.940862 8.3349 0.942397 8.33309 0.95075 8.34228C0.968566 8.36188 1 8.4136 1 8.5H4C4 6.89804 2.78819 5.35 1 5.35V8.35ZM-0.5 4.5V6.85H2.5V4.5H-0.5Z" fill="#499690" mask="url(#path-1-inside-1_16778_33386)"/>
<path d="M9.5 4.5V12.5" stroke="#499690" stroke-width="1.5" stroke-linejoin="bevel" stroke-dasharray="1 2.5"/>
</svg>
