<svg width="30" height="30" viewBox="0 0 30 30" fill="none" xmlns="http://www.w3.org/2000/svg">
<path d="M7.92849 14.9996C5.94177 16.9863 5.94177 20.084 7.92849 22.0707C9.91521 24.0574 13.0128 24.0574 14.9996 22.0707L16.7673 20.3029C17.2555 19.8148 18.0469 19.8148 18.5351 20.3029C19.0232 20.7911 19.0232 21.5825 18.5351 22.0707L16.7673 23.8385C13.8043 26.8015 9.12375 26.8015 6.16072 23.8385C3.19769 20.8754 3.19769 16.1949 6.16072 13.2319L7.92849 11.4641C8.41664 10.9759 9.2081 10.9759 9.69626 11.4641C10.1844 11.9522 10.1844 12.7437 9.69626 13.2319L7.92849 14.9996ZM11.464 9.69632C10.9759 9.20817 10.9759 8.41671 11.464 7.92855L13.2318 6.16079C16.1948 3.19776 20.8754 3.19776 23.8384 6.16079C26.8014 9.12382 26.8014 13.8044 23.8384 16.7674L22.0706 18.5352C21.5825 19.0233 20.791 19.0233 20.3029 18.5352C19.8147 18.047 19.8147 17.2555 20.3029 16.7674L22.0706 14.9996C24.0573 13.0129 24.0573 9.91527 22.0706 7.92855C20.0839 5.94184 16.9863 5.94184 14.9996 7.92855L13.2318 9.69632C12.7436 10.1845 11.9522 10.1845 11.464 9.69632ZM10.5801 19.419C10.092 18.9309 10.092 18.1394 10.5801 17.6513L17.6512 10.5802C18.1394 10.092 18.9308 10.092 19.419 10.5802C19.9071 11.0684 19.9071 11.8598 19.419 12.348L12.3479 19.419C11.8598 19.9072 11.0683 19.9072 10.5801 19.419Z" fill="#499690"/>
</svg>
