<svg width="22" height="22" viewBox="0 0 22 22" fill="none" xmlns="http://www.w3.org/2000/svg">
<path d="M11 19C15.4183 19 19 15.4183 19 11C19 6.58172 15.4183 3 11 3C6.58172 3 3 6.58172 3 11C3 15.4183 6.58172 19 11 19Z" stroke="black" stroke-width="1.8" stroke-miterlimit="10"/>
<path d="M12.7578 8.40039H10.6677C10.0748 8.40039 9.32812 8.64804 9.32812 9.33472C9.32812 10.0214 9.8572 10.3328 10.6077 10.8019C11.3581 11.2709 12.7278 11.7062 12.7578 12.4229C12.7878 13.1396 12.2587 13.5486 11.512 13.5786C10.7653 13.6086 9.32812 13.5786 9.32812 13.5786" stroke="black" stroke-width="1.8" stroke-miterlimit="10"/>
<path d="M11.0039 6.68555V8.40037" stroke="black" stroke-width="1.8" stroke-miterlimit="10"/>
<path d="M11.0039 13.5938V15.3086" stroke="black" stroke-width="1.8" stroke-miterlimit="10"/>
</svg>
