<svg width="50" height="82" viewBox="0 0 50 82" fill="none" xmlns="http://www.w3.org/2000/svg">
<path opacity="0.8" d="M41.7999 4.7998H10.7409C7.61669 4.7998 5.08398 7.35487 5.08398 10.5067V75.1137C5.08398 78.2656 7.61669 80.8206 10.7409 80.8206H41.7999C44.9242 80.8206 47.4569 78.2656 47.4569 75.1137V10.5067C47.4569 7.35487 44.9242 4.7998 41.7999 4.7998Z" fill="#33D3C2"/>
<path d="M43.7981 15.001H1.99805V60.1476H43.7981V15.001Z" fill="#EFF1F3"/>
<path d="M38.1884 1.9873H7.54923C4.46722 1.9873 1.96875 4.50991 1.96875 7.62169V71.4078C1.96875 74.5196 4.46722 77.0422 7.54923 77.0422H38.1884C41.2704 77.0422 43.7688 74.5196 43.7688 71.4078V7.62169C43.7688 4.50991 41.2704 1.9873 38.1884 1.9873Z" stroke="black" stroke-width="3" stroke-miterlimit="10"/>
<path d="M14.4727 8.48047H18.09" stroke="black" stroke-width="3" stroke-miterlimit="10"/>
<path d="M21.1895 8.48047H29.5723" stroke="black" stroke-width="3" stroke-miterlimit="10"/>
<path d="M22.0221 72.6454C24.0752 72.6454 25.7396 70.9649 25.7396 68.892C25.7396 66.8191 24.0752 65.1387 22.0221 65.1387C19.969 65.1387 18.3047 66.8191 18.3047 68.892C18.3047 70.9649 19.969 72.6454 22.0221 72.6454Z" fill="white" stroke="black" stroke-width="3" stroke-miterlimit="10"/>
<path d="M12.9668 37.5988L18.8339 43.5226L31.0723 31.166" stroke="#FF5758" stroke-width="3" stroke-miterlimit="10"/>
<path d="M23.498 50.001C30.4016 50.001 35.998 44.4045 35.998 37.501C35.998 30.5974 30.4016 25.001 23.498 25.001C16.5945 25.001 10.998 30.5974 10.998 37.501C10.998 44.4045 16.5945 50.001 23.498 50.001Z" fill="#FF5758"/>
<path d="M16.918 37.3134L21.3184 41.7121L30.4963 32.5342" stroke="white" stroke-width="3" stroke-miterlimit="10"/>
</svg>
