<svg width="20" height="21" viewBox="0 0 20 21" fill="none" xmlns="http://www.w3.org/2000/svg">
<path d="M3.19416 3.70768H6.93578L8.14179 6.72271L6.20439 8.01431C5.97256 8.16886 5.83331 8.42905 5.83331 8.70768C5.83542 8.78571 5.83331 8.70852 5.83331 8.70852L5.83331 8.70939L5.83331 8.71125L5.83334 8.71546L5.83346 8.72574C5.83359 8.73342 5.8338 8.74275 5.83415 8.75367C5.83485 8.77552 5.83613 8.80376 5.83841 8.83798C5.84297 8.9064 5.85157 8.99888 5.86772 9.11199C5.90002 9.33807 5.96271 9.64777 6.08441 10.0129C6.32877 10.746 6.80892 11.6951 7.74405 12.6303C8.67919 13.5654 9.62836 14.0456 10.3615 14.2899C10.7265 14.4116 11.0363 14.4743 11.2623 14.5066C11.3754 14.5228 11.4679 14.5314 11.5363 14.5359C11.5706 14.5382 11.5988 14.5395 11.6206 14.5402C11.6316 14.5405 11.6409 14.5407 11.6486 14.5409L11.6589 14.541L11.6631 14.541L11.6649 14.541L11.6658 14.541C11.6658 14.541 11.7588 14.5359 11.6666 14.541C11.9823 14.541 12.2708 14.3627 12.412 14.0804L12.9701 12.9642L16.6666 13.5803V17.1802C14.9074 17.4346 10.1561 17.6853 6.42256 13.9518C2.68898 10.2182 2.93974 5.46693 3.19416 3.70768ZM7.56135 9.11275L9.06629 8.10946C9.72207 7.67227 9.98196 6.8355 9.68925 6.10372L8.48324 3.0887C8.23014 2.45593 7.61729 2.04102 6.93578 2.04102H3.15062C2.39353 2.04102 1.68088 2.56698 1.55659 3.38843C1.27384 5.25727 0.888963 10.7752 5.24405 15.1303C9.59914 19.4854 15.1171 19.1005 16.9859 18.8177C17.8073 18.6934 18.3333 17.9808 18.3333 17.2237V13.5803C18.3333 12.7656 17.7443 12.0702 16.9406 11.9363L13.2441 11.3202C12.5224 11.1999 11.8066 11.5644 11.4794 12.2188L11.1906 12.7963C11.0999 12.7741 10.9986 12.7455 10.8885 12.7088C10.3716 12.5365 9.65409 12.1833 8.92256 11.4518C8.19103 10.7202 7.83785 10.0027 7.66554 9.48583C7.61898 9.34615 7.58547 9.22056 7.56135 9.11275Z" fill="#333333"/>
</svg>
