<svg width="29" height="28" viewBox="0 0 29 28" fill="none" xmlns="http://www.w3.org/2000/svg">
<path d="M10.7554 5.70228L11.6469 6.39439C13.1033 7.52499 13.2872 9.58855 12.0521 10.9409L11.9284 11.0764C11.0432 12.0455 10.8071 13.477 11.6913 14.4458C12.537 15.3724 13.6719 16.1876 15.3206 17.0757C16.6206 17.7761 18.2462 17.4438 19.2288 16.3679L19.3149 16.2736C20.4863 14.991 22.5064 14.8246 23.8877 15.8969L24.715 16.5392C25.9018 17.4604 26.3149 19.0684 25.4618 20.2831C24.6567 21.4296 23.7587 22.3266 22.6987 23.0598C22.0226 23.5274 21.1516 23.6314 20.3466 23.4237C12.4772 21.3934 7.71653 17.7047 4.30123 10.8725C4.00385 10.2776 3.90647 9.59363 4.14762 8.97549C4.65696 7.66985 5.60951 6.57027 7.08188 5.51819C8.18026 4.73334 9.69144 4.87636 10.7554 5.70228Z" stroke="black" stroke-width="2"/>
</svg>
