<svg width="30" height="30" viewBox="0 0 30 30" fill="none" xmlns="http://www.w3.org/2000/svg">
<path d="M20.8016 9.1365C21.9401 9.1365 22.863 8.21926 22.863 7.08778C22.863 5.95631 21.9401 5.03906 20.8016 5.03906C19.6631 5.03906 18.7402 5.95631 18.7402 7.08778C18.7402 8.21926 19.6631 9.1365 20.8016 9.1365Z" stroke="#333333" stroke-width="2" stroke-miterlimit="10" stroke-linecap="round" stroke-linejoin="round"/>
<path d="M5 7.08594H18.7401" stroke="#333333" stroke-width="2" stroke-miterlimit="10" stroke-linecap="round" stroke-linejoin="round"/>
<path d="M22.8633 7.08594H24.9996" stroke="#333333" stroke-width="2" stroke-miterlimit="10" stroke-linecap="round" stroke-linejoin="round"/>
<path d="M20.8016 24.9607C21.9401 24.9607 22.863 24.0435 22.863 22.912C22.863 21.7805 21.9401 20.8633 20.8016 20.8633C19.6631 20.8633 18.7402 21.7805 18.7402 22.912C18.7402 24.0435 19.6631 24.9607 20.8016 24.9607Z" stroke="#333333" stroke-width="2" stroke-miterlimit="10" stroke-linecap="round" stroke-linejoin="round"/>
<path d="M5 22.9102H18.7401" stroke="#333333" stroke-width="2" stroke-miterlimit="10" stroke-linecap="round" stroke-linejoin="round"/>
<path d="M22.8633 22.9102H24.9996" stroke="#333333" stroke-width="2" stroke-miterlimit="10" stroke-linecap="round" stroke-linejoin="round"/>
<path d="M14.8622 17.0467C16.0006 17.0467 16.9235 16.1294 16.9235 14.9979C16.9235 13.8665 16.0006 12.9492 14.8622 12.9492C13.7237 12.9492 12.8008 13.8665 12.8008 14.9979C12.8008 16.1294 13.7237 17.0467 14.8622 17.0467Z" stroke="#333333" stroke-width="2" stroke-miterlimit="10" stroke-linecap="round" stroke-linejoin="round"/>
<path d="M5 14.9922H12.8014" stroke="#333333" stroke-width="2" stroke-miterlimit="10" stroke-linecap="round" stroke-linejoin="round"/>
<path d="M16.9258 14.9961H25.0008" stroke="#333333" stroke-width="2" stroke-miterlimit="10" stroke-linecap="round" stroke-linejoin="round"/>
</svg>
