<svg width="120" height="120" viewBox="0 0 120 120" fill="none" xmlns="http://www.w3.org/2000/svg">
<circle cx="60" cy="60" r="60" fill="white"/>
<path d="M26.4224 82.346V88.604H32.5964V82.346H26.4224ZM30.7624 83.816V87.134H28.2564V83.816H30.7624ZM34.3884 81.282V90.732H36.2504V81.282H34.3884ZM35.7184 85.02V86.546H37.9724V85.02H35.7184ZM27.8924 92.538V94.022H36.7124V92.538H27.8924ZM27.8924 89.808V93.28H29.7544V89.808H27.8924ZM43.5013 82.472V82.794C43.5013 83.83 42.2553 84.992 39.4133 85.272L40.0713 86.714C43.4033 86.392 45.1533 84.768 45.1533 82.794V82.472H43.5013ZM44.4113 82.472V82.794C44.4113 84.782 46.1753 86.392 49.4933 86.714L50.1513 85.272C47.3093 85.006 46.0633 83.844 46.0633 82.794V82.472H44.4113ZM39.9873 81.758V83.228H49.5913V81.758H39.9873ZM38.9233 87.582V89.066H50.6553V87.582H38.9233ZM43.8373 85.916V88.24H45.6853V85.916H43.8373ZM40.2253 90.004V91.474H47.3653V94.246H49.2273V90.004H40.2253ZM53.1742 87.064V88.548H62.2882V87.064H53.1742ZM51.8162 91.264V92.79H63.5482V91.264H51.8162ZM56.7302 87.736V91.754H58.5922V87.736H56.7302ZM53.1742 82.164V87.708H55.0362V83.662H62.1902V82.164H53.1742ZM68.3318 91.236V92.748H80.0638V91.236H68.3318ZM73.2598 88.366V91.656H75.1218V88.366H73.2598ZM73.2038 82.976V83.438C73.2038 85.23 71.6638 87.022 68.7798 87.47L69.5078 88.94C72.8118 88.338 74.7718 86.168 74.7718 83.438V82.976H73.2038ZM73.5818 82.976V83.438C73.5818 86.168 75.5698 88.282 78.9298 88.87L79.6438 87.4C76.6898 86.966 75.1498 85.23 75.1498 83.438V82.976H73.5818ZM69.2978 82.262V83.746H79.0558V82.262H69.2978ZM84.1087 82.276V84.166C84.1087 86.574 83.1147 89.066 80.9307 90.088L82.0507 91.586C84.5007 90.382 85.6207 87.372 85.6207 84.166V82.276H84.1087ZM84.4867 82.276V84.166C84.4867 87.274 85.5087 90.158 87.8467 91.348L88.9667 89.864C86.8947 88.856 85.9707 86.49 85.9707 84.166V82.276H84.4867ZM89.4847 81.282V94.246H91.3607V81.282H89.4847ZM90.9407 86.266V87.82H93.2367V86.266H90.9407Z" fill="black"/>
<path d="M74.3184 29.0398V61.3586C74.3184 62.4301 73.8927 63.4576 73.1351 64.2152C72.3775 64.9729 71.3499 65.3985 70.2785 65.3985H46.0394C44.968 65.3985 43.9404 64.9729 43.1828 64.2152C42.4252 63.4576 41.9996 62.4301 41.9996 61.3586V37.8104C41.9996 37.2722 42.1072 36.7394 42.316 36.2434C42.5249 35.7474 42.8307 35.2981 43.2156 34.9219L52.184 26.1514C52.9387 25.4134 53.9523 25.0001 55.0079 25H70.2785C71.3499 25 72.3775 25.4256 73.1351 26.1832C73.8927 26.9409 74.3184 27.9684 74.3184 29.0398Z" fill="#FFD95F" stroke="#FFD95F" stroke-width="4.48647" stroke-linecap="round" stroke-linejoin="round"/>
<path d="M54.1191 25V33.0797C54.1191 34.1511 53.6935 35.1787 52.9359 35.9363C52.1783 36.6939 51.1507 37.1195 50.0793 37.1195H41.9996" fill="white"/>
<path d="M78.4425 31.476C79.2175 30.6887 80.4841 30.6789 81.2712 31.4541L84.7403 34.8707C85.5271 35.6456 85.537 36.9116 84.7622 37.6987L67.5849 55.1493C67.2659 55.4734 66.846 55.679 66.3943 55.7324L61.506 56.3103C60.7582 56.3988 60.1209 55.7707 60.1984 55.0215L60.7053 50.1187C60.752 49.6672 60.9509 49.2449 61.2694 48.9214L78.4425 31.476Z" fill="black"/>
</svg>
