<svg width="30" height="30" viewBox="0 0 30 30" fill="none" xmlns="http://www.w3.org/2000/svg">
<path d="M8.97085 11.9844H6.01953V21.0607H8.97085V11.9844Z" stroke="#499690" stroke-width="2.1627" stroke-miterlimit="10" stroke-linejoin="round"/>
<path d="M6.01969 13.226C6.01969 13.226 2.89644 12.4812 3.00265 16.5178C3.10886 20.5545 6.01969 19.7307 6.01969 19.7307" fill="#499690"/>
<path d="M6.01969 13.226C6.01969 13.226 2.89644 12.4812 3.00265 16.5178C3.10886 20.5545 6.01969 19.7307 6.01969 19.7307" stroke="#499690" stroke-width="2.1627" stroke-miterlimit="10"/>
<path d="M21.0291 21.0547H23.9805V11.9783H21.0291V21.0547Z" stroke="#499690" stroke-width="2.1627" stroke-miterlimit="10" stroke-linejoin="round"/>
<path d="M23.9805 13.226C23.9805 13.226 27.1037 12.4812 26.9975 16.5178C26.8913 20.5545 23.9805 19.7307 23.9805 19.7307" fill="#499690"/>
<path d="M23.9805 13.226C23.9805 13.226 27.1037 12.4812 26.9975 16.5178C26.8913 20.5545 23.9805 19.7307 23.9805 19.7307" stroke="#499690" stroke-width="2.1627" stroke-miterlimit="10"/>
<path d="M14.9995 3C14.1943 3 11.5172 3.14139 8.74043 5.53113C5.78247 8.07686 6.01812 11.9814 6.01812 11.9814" stroke="#499690" stroke-width="2.1627" stroke-miterlimit="10"/>
<path d="M23.9814 11.9814C23.9814 11.9814 24.2171 8.07686 21.2591 5.53113C18.4824 3.14206 15.8052 3 15 3" stroke="#499690" stroke-width="2.1627" stroke-miterlimit="10"/>
<path d="M23.9819 20.4375V22.5796C23.9819 24.1927 22.6742 25.5004 21.0611 25.5004H18.0215" stroke="#499690" stroke-width="2.1627" stroke-miterlimit="10"/>
<path d="M16.5318 24.0234H15.0124C14.1901 24.0234 13.5234 24.6899 13.5234 25.512C13.5234 26.3342 14.1901 27.0006 15.0124 27.0006H16.5318C17.3542 27.0006 18.0208 26.3342 18.0208 25.512C18.0208 24.6899 17.3542 24.0234 16.5318 24.0234Z" stroke="#499690" stroke-width="2.1627" stroke-miterlimit="10"/>
</svg>
