<svg width="133" height="171" viewBox="0 0 133 171" fill="none" xmlns="http://www.w3.org/2000/svg">
<path d="M60.6797 12.3616C60.6797 11.8556 61.0891 11.4453 61.5941 11.4453H70.5188C71.0239 11.4453 71.4332 11.8556 71.4332 12.3616C71.4332 12.8677 71.0239 13.278 70.5188 13.278H61.5941C61.0891 13.278 60.6797 12.8677 60.6797 12.3616Z" fill="#4F7EF4"/>
<path d="M75.0793 12.3304C75.0793 12.8365 74.6715 13.2467 74.1686 13.2467C73.6656 13.2467 73.2578 12.8365 73.2578 12.3304C73.2578 11.8243 73.6656 11.4141 74.1686 11.4141C74.6715 11.4141 75.0793 11.8243 75.0793 12.3304Z" fill="#4F7EF4"/>
<g filter="url(#filter0_d_6407_223544)">
<path d="M5.19531 9.78185C5.19531 6.43329 7.9056 3.71875 11.2489 3.71875H121.363C124.706 3.71875 127.416 6.43329 127.416 9.78185V157.162C127.416 160.51 124.706 163.225 121.363 163.225H11.2489C7.90561 163.225 5.19531 160.51 5.19531 157.162V9.78185Z" fill="#4F7EF4" fill-opacity="0.5"/>
<path fill-rule="evenodd" clip-rule="evenodd" d="M121.363 6.7503H11.2489C9.57726 6.7503 8.22211 8.10757 8.22211 9.78185V157.162C8.22211 158.836 9.57726 160.193 11.2489 160.193H121.363C123.034 160.193 124.389 158.836 124.389 157.162V9.78185C124.389 8.10758 123.034 6.7503 121.363 6.7503ZM11.2489 3.71875C7.9056 3.71875 5.19531 6.43329 5.19531 9.78185V157.162C5.19531 160.51 7.90561 163.225 11.2489 163.225H121.363C124.706 163.225 127.416 160.51 127.416 157.162V9.78185C127.416 6.43329 124.706 3.71875 121.363 3.71875H11.2489Z" fill="#4F7EF4"/>
<path d="M74.1124 153.461C74.1129 151.735 72.7165 150.336 70.9934 150.336L61.6093 150.336C59.8863 150.336 58.489 151.735 58.4886 153.461C58.4881 155.187 59.8845 156.586 61.6075 156.586L70.9916 156.586C72.7147 156.586 74.1119 155.187 74.1124 153.461Z" fill="#4F7EF4"/>
<path fill-rule="evenodd" clip-rule="evenodd" d="M118.293 18.8205L14.322 18.8205L14.322 145.487L118.293 145.487L118.293 18.8205ZM119.806 17.3047L119.806 147.003L12.8086 147.003L12.8086 17.3047L119.806 17.3047Z" fill="#4F7EF4"/>
</g>
<path d="M5.19531 17.3281H127.416V147.022H5.19531V17.3281Z" fill="#FBFBFB"/>
<path fill-rule="evenodd" clip-rule="evenodd" d="M124.266 20.4803H8.34575V143.87H124.266V20.4803ZM5.19531 17.3281V147.022H127.416V17.3281H5.19531Z" fill="#4F7EF4"/>
<path fill-rule="evenodd" clip-rule="evenodd" d="M70.5469 66.3024C70.5469 63.9564 68.6491 62.0547 66.3081 62.0547C63.9671 62.0547 62.0693 63.9564 62.0693 66.3024V79.8777H48.5161C46.1751 79.8777 44.2773 81.7794 44.2773 84.1254C44.2773 86.4713 46.1751 88.373 48.5161 88.373H62.0693V101.962C62.0693 104.308 63.9671 106.21 66.3081 106.21C68.6491 106.21 70.5469 104.308 70.5469 101.962V88.373H84.1015C86.4425 88.373 88.3403 86.4713 88.3403 84.1254C88.3403 81.7794 86.4425 79.8777 84.1015 79.8777H70.5469V66.3024Z" fill="#4F7EF4" fill-opacity="0.5"/>
<defs>
<filter id="filter0_d_6407_223544" x="0.195312" y="0.71875" width="132.223" height="169.508" filterUnits="userSpaceOnUse" color-interpolation-filters="sRGB">
<feFlood flood-opacity="0" result="BackgroundImageFix"/>
<feColorMatrix in="SourceAlpha" type="matrix" values="0 0 0 0 0 0 0 0 0 0 0 0 0 0 0 0 0 0 127 0" result="hardAlpha"/>
<feOffset dy="2"/>
<feGaussianBlur stdDeviation="2.5"/>
<feComposite in2="hardAlpha" operator="out"/>
<feColorMatrix type="matrix" values="0 0 0 0 0 0 0 0 0 0 0 0 0 0 0 0 0 0 0.08 0"/>
<feBlend mode="normal" in2="BackgroundImageFix" result="effect1_dropShadow_6407_223544"/>
<feBlend mode="normal" in="SourceGraphic" in2="effect1_dropShadow_6407_223544" result="shape"/>
</filter>
</defs>
</svg>
