<svg width="28" height="28" viewBox="0 0 28 28" fill="none" xmlns="http://www.w3.org/2000/svg">
<path fill-rule="evenodd" clip-rule="evenodd" d="M20.9993 2.33398C23.5766 2.33398 25.666 4.42332 25.666 7.00065C25.666 9.57798 23.5766 11.6673 20.9993 11.6673C19.6345 11.6673 18.4066 11.0815 17.5533 10.1475L11.666 13.511V14.4903L17.5533 17.8538C18.4066 16.9198 19.6345 16.334 20.9993 16.334C23.5766 16.334 25.666 18.4233 25.666 21.0007C25.666 23.578 23.5766 25.6673 20.9993 25.6673C18.422 25.6673 16.3326 23.578 16.3326 21.0007C16.3326 20.6276 16.3764 20.2648 16.4591 19.917L10.8133 16.6904C9.96833 17.8864 8.57502 18.6673 6.99931 18.6673C4.42198 18.6673 2.33264 16.578 2.33264 14.0007C2.33264 11.4233 4.42198 9.33398 6.99931 9.33398C8.57502 9.33398 9.96833 10.1149 10.8133 11.3109L16.4591 8.08429C16.3764 7.73654 16.3326 7.37371 16.3326 7.00065C16.3326 4.42332 18.422 2.33398 20.9993 2.33398ZM20.9995 18.6678C19.7108 18.6678 18.6661 19.7124 18.6661 21.0011C18.6661 22.2898 19.7108 23.3344 20.9995 23.3344C22.2881 23.3344 23.3328 22.2898 23.3328 21.0011C23.3328 19.7124 22.2881 18.6678 20.9995 18.6678ZM6.99948 11.6669C5.71082 11.6669 4.66615 12.7115 4.66615 14.0002C4.66615 15.2889 5.71082 16.3335 6.99948 16.3335C8.28815 16.3335 9.33282 15.2889 9.33282 14.0002C9.33282 12.7115 8.28815 11.6669 6.99948 11.6669ZM20.9991 4.66833C19.7104 4.66833 18.6657 5.713 18.6657 7.00166C18.6657 8.29032 19.7104 9.33499 20.9991 9.33499C22.2877 9.33499 23.3324 8.29032 23.3324 7.00166C23.3324 5.713 22.2877 4.66833 20.9991 4.66833Z" fill="black"/>
</svg>
