<svg width="28" height="28" viewBox="0 0 28 28" fill="none" xmlns="http://www.w3.org/2000/svg">
<path d="M15.7324 8.44464C15.7324 8.44464 15.5893 6.39844 13.8963 6.39844C11.9869 6.39844 11.383 9.38862 13.3434 9.90841C13.7048 10.004 14.0893 9.9738 14.4508 10.0716C14.8735 10.1859 15.2462 10.4799 15.4613 10.8689C16.1116 12.0458 15.2118 13.5167 13.9199 13.5167C12.7512 13.5167 12.1074 12.4403 12.1074 11.4661" stroke="#555555" stroke-width="1.5" stroke-miterlimit="10" stroke-linecap="round" stroke-linejoin="round"/>
<path d="M13.9199 5.01172V6.40021" stroke="#555555" stroke-width="1.5" stroke-miterlimit="10" stroke-linecap="round" stroke-linejoin="round"/>
<path d="M13.9199 13.5195V14.908" stroke="#555555" stroke-width="1.5" stroke-miterlimit="10" stroke-linecap="round" stroke-linejoin="round"/>
<path d="M13.8948 17.8871C18.1816 17.8871 21.6568 14.3367 21.6568 9.95721C21.6568 5.57766 18.1816 2.02734 13.8948 2.02734C9.60798 2.02734 6.13281 5.57766 6.13281 9.95721C6.13281 14.3367 9.60798 17.8871 13.8948 17.8871Z" stroke="#555555" stroke-width="2" stroke-miterlimit="10" stroke-linecap="round" stroke-linejoin="round"/>
<path d="M19.4867 17.8867H4.9421C4.69793 17.8867 4.5 18.0889 4.5 18.3384V20.9774C4.5 21.2269 4.69793 21.4291 4.9421 21.4291H19.4867C19.7309 21.4291 19.9288 21.2269 19.9288 20.9774V18.3384C19.9288 18.0889 19.7309 17.8867 19.4867 17.8867Z" stroke="#555555" stroke-width="2" stroke-miterlimit="10" stroke-linecap="round" stroke-linejoin="round"/>
<path d="M23.0043 21.4297H8.45968C8.21551 21.4297 8.01758 21.6319 8.01758 21.8813V24.5204C8.01758 24.7699 8.21551 24.9721 8.45968 24.9721H23.0043C23.2484 24.9721 23.4464 24.7699 23.4464 24.5204V21.8813C23.4464 21.6319 23.2484 21.4297 23.0043 21.4297Z" stroke="#555555" stroke-width="2" stroke-miterlimit="10" stroke-linecap="round" stroke-linejoin="round"/>
</svg>
