<svg width="85" height="65" viewBox="0 0 85 65" fill="none" xmlns="http://www.w3.org/2000/svg">
<path opacity="0.8" d="M74.5059 10.0996H17.2245C13.2788 10.0996 10.0801 13.3147 10.0801 17.2807V54.647C10.0801 58.613 13.2788 61.8281 17.2245 61.8281H74.5059C78.4516 61.8281 81.6503 58.613 81.6503 54.647V17.2807C81.6503 13.3147 78.4516 10.0996 74.5059 10.0996Z" fill="#33D3C2"/>
<path d="M71.0527 6.625H13.7714C9.82563 6.625 6.62695 9.84009 6.62695 13.8061V51.1724C6.62695 55.1384 9.82563 58.3535 13.7714 58.3535H71.0527C74.9985 58.3535 78.1972 55.1384 78.1972 51.1724V13.8061C78.1972 9.84009 74.9985 6.625 71.0527 6.625Z" stroke="black" stroke-width="3" stroke-miterlimit="10"/>
<path d="M77.2757 18.8594H7.55078V28.5029H77.2757V18.8594Z" fill="black"/>
<path d="M45.8649 33.4199H13.5762V37.8858H45.8649V33.4199Z" fill="#EFF1F3"/>
<path d="M71.4519 63.1951C78.9329 63.1951 84.9975 57.0994 84.9975 49.5799C84.9975 42.0605 78.9329 35.9648 71.4519 35.9648C63.9708 35.9648 57.9062 42.0605 57.9062 49.5799C57.9062 57.0994 63.9708 63.1951 71.4519 63.1951Z" fill="#FF5758"/>
<path d="M64.3203 49.3755L69.0888 54.1666L79.0345 44.1699" stroke="white" stroke-width="3" stroke-miterlimit="10"/>
</svg>
