<svg width="21" height="20" viewBox="0 0 21 20" fill="none" xmlns="http://www.w3.org/2000/svg">
<g opacity="0.5">
<path d="M16.692 10.817C16.7254 10.5503 16.7504 10.2837 16.7504 10.0003C16.7504 9.71699 16.7254 9.45033 16.692 9.18366L18.4504 7.80866C18.6087 7.68366 18.6504 7.45866 18.5504 7.27533L16.8837 4.39199C16.8087 4.25866 16.667 4.18366 16.517 4.18366C16.467 4.18366 16.417 4.19199 16.3754 4.20866L14.3004 5.04199C13.867 4.70866 13.4004 4.43366 12.892 4.22533L12.5754 2.01699C12.5504 1.81699 12.3754 1.66699 12.167 1.66699H8.83369C8.62535 1.66699 8.45035 1.81699 8.42535 2.01699L8.10869 4.22533C7.60035 4.43366 7.13369 4.71699 6.70035 5.04199L4.62535 4.20866C4.57535 4.19199 4.52535 4.18366 4.47535 4.18366C4.33369 4.18366 4.19202 4.25866 4.11702 4.39199L2.45035 7.27533C2.34202 7.45866 2.39202 7.68366 2.55035 7.80866L4.30869 9.18366C4.27535 9.45033 4.25035 9.72533 4.25035 10.0003C4.25035 10.2753 4.27535 10.5503 4.30869 10.817L2.55035 12.192C2.39202 12.317 2.35035 12.542 2.45035 12.7253L4.11702 15.6087C4.19202 15.742 4.33369 15.817 4.48369 15.817C4.53369 15.817 4.58369 15.8087 4.62535 15.792L6.70035 14.9587C7.13369 15.292 7.60035 15.567 8.10869 15.7753L8.42535 17.9837C8.45035 18.1837 8.62535 18.3337 8.83369 18.3337H12.167C12.3754 18.3337 12.5504 18.1837 12.5754 17.9837L12.892 15.7753C13.4004 15.567 13.867 15.2837 14.3004 14.9587L16.3754 15.792C16.4254 15.8087 16.4754 15.817 16.5254 15.817C16.667 15.817 16.8087 15.742 16.8837 15.6087L18.5504 12.7253C18.6504 12.542 18.6087 12.317 18.4504 12.192L16.692 10.817ZM15.042 9.39199C15.0754 9.65033 15.0837 9.82533 15.0837 10.0003C15.0837 10.1753 15.067 10.3587 15.042 10.6087L14.9254 11.5503L15.667 12.1337L16.567 12.8337L15.9837 13.842L14.9254 13.417L14.0587 13.067L13.3087 13.6337C12.9504 13.9003 12.6087 14.1003 12.267 14.242L11.3837 14.6003L11.2504 15.542L11.0837 16.667H9.91702L9.75869 15.542L9.62535 14.6003L8.74202 14.242C8.38369 14.092 8.05035 13.9003 7.71702 13.6503L6.95869 13.067L6.07535 13.4253L5.01702 13.8503L4.43369 12.842L5.33369 12.142L6.07535 11.5587L5.95869 10.617C5.93369 10.3587 5.91702 10.167 5.91702 10.0003C5.91702 9.83366 5.93369 9.64199 5.95869 9.39199L6.07535 8.45033L5.33369 7.86699L4.43369 7.16699L5.01702 6.15866L6.07535 6.58366L6.94202 6.93366L7.69202 6.36699C8.05035 6.10033 8.39202 5.90033 8.73369 5.75866L9.61702 5.40033L9.75035 4.45866L9.91702 3.33366H11.0754L11.2337 4.45866L11.367 5.40033L12.2504 5.75866C12.6087 5.90866 12.942 6.10033 13.2754 6.35033L14.0337 6.93366L14.917 6.57533L15.9754 6.15033L16.5587 7.15866L15.667 7.86699L14.9254 8.45033L15.042 9.39199ZM10.5004 6.66699C8.65869 6.66699 7.16702 8.15866 7.16702 10.0003C7.16702 11.842 8.65869 13.3337 10.5004 13.3337C12.342 13.3337 13.8337 11.842 13.8337 10.0003C13.8337 8.15866 12.342 6.66699 10.5004 6.66699ZM10.5004 11.667C9.58369 11.667 8.83369 10.917 8.83369 10.0003C8.83369 9.08366 9.58369 8.33366 10.5004 8.33366C11.417 8.33366 12.167 9.08366 12.167 10.0003C12.167 10.917 11.417 11.667 10.5004 11.667Z" fill="black"/>
</g>
</svg>
