<svg width="50" height="50" viewBox="0 0 50 50" fill="none" xmlns="http://www.w3.org/2000/svg">
<path d="M18.3137 10.1838L19.9057 11.4197C22.5065 13.4386 22.8349 17.1235 20.6293 19.5384L20.4084 19.7804C18.8278 21.511 18.4061 24.0671 19.985 25.7972C21.4951 27.4519 23.5218 28.9076 26.4658 30.4935C28.7874 31.7441 31.6901 31.1507 33.4448 29.2294L33.5986 29.0611C35.6904 26.7707 39.2976 26.4736 41.7642 28.3884L43.2417 29.5353C45.3608 31.1804 46.0985 34.0517 44.5752 36.221C43.1376 38.2683 41.534 39.8701 39.6412 41.1793C38.4338 42.0144 36.8783 42.2 35.441 41.8292C21.3883 38.2037 12.8872 31.6167 6.78847 19.4163C6.25743 18.354 6.08354 17.1326 6.51416 16.0288C7.4237 13.6973 9.12469 11.7337 11.7539 9.85502C13.7153 8.45351 16.4138 8.7089 18.3137 10.1838Z" stroke="#777777" stroke-width="4"/>
</svg>
