<svg width="85" height="65" viewBox="0 0 85 65" fill="none" xmlns="http://www.w3.org/2000/svg">
<path d="M71.0527 6.625H13.7714C9.82563 6.625 6.62695 9.84009 6.62695 13.8061V51.1724C6.62695 55.1384 9.82563 58.3535 13.7714 58.3535H71.0527C74.9985 58.3535 78.1972 55.1384 78.1972 51.1724V13.8061C78.1972 9.84009 74.9985 6.625 71.0527 6.625Z" stroke="black" stroke-width="3" stroke-miterlimit="10"/>
<path d="M77.2757 18.8594H7.55078V28.5029H77.2757V18.8594Z" fill="black"/>
<path d="M45.8649 33.4199H13.5762V37.8858H45.8649V33.4199Z" fill="#EFF1F3"/>
<path d="M71.4519 63.1941C78.9329 63.1941 84.9975 57.0984 84.9975 49.579C84.9975 42.0596 78.9329 35.9639 71.4519 35.9639C63.9708 35.9639 57.9062 42.0596 57.9062 49.579C57.9062 57.0984 63.9708 63.1941 71.4519 63.1941Z" fill="#ADADAD"/>
<path d="M64.3203 49.3745L69.0888 54.1656L79.0345 44.1689" stroke="white" stroke-width="3" stroke-miterlimit="10"/>
</svg>
