<svg width="50" height="50" viewBox="0 0 50 50" fill="none" xmlns="http://www.w3.org/2000/svg">
<path fill-rule="evenodd" clip-rule="evenodd" d="M50 0H0V50H50V0ZM25.8967 1.81699C25.5299 1.07374 24.4701 1.07374 24.1033 1.81699L17.8854 14.4158C17.7397 14.711 17.4581 14.9156 17.1324 14.9629L3.22875 16.9832C2.40853 17.1024 2.08102 18.1104 2.67454 18.6889L12.7353 28.4957C12.971 28.7255 13.0786 29.0565 13.0229 29.3809L10.6479 43.2284C10.5078 44.0453 11.3652 44.6682 12.0988 44.2825L24.5347 37.7446C24.826 37.5915 25.174 37.5915 25.4653 37.7446L37.9012 44.2825C38.6348 44.6682 39.4922 44.0453 39.3521 43.2284L36.9771 29.3809C36.9214 29.0565 37.029 28.7255 37.2647 28.4957L47.3255 18.6889C47.919 18.1104 47.5915 17.1024 46.7713 16.9832L32.8676 14.9629C32.5419 14.9156 32.2603 14.711 32.1146 14.4158L25.8967 1.81699Z" fill="white"/>
</svg>
