<svg width="20" height="21" viewBox="0 0 20 21" fill="none" xmlns="http://www.w3.org/2000/svg">
<path d="M10.0003 3.70768C6.31843 3.70768 3.33366 6.69245 3.33366 10.3743C3.33366 14.0562 6.31843 17.041 10.0003 17.041C13.6822 17.041 16.667 14.0562 16.667 10.3743C16.667 6.69245 13.6822 3.70768 10.0003 3.70768ZM1.66699 10.3743C1.66699 5.77198 5.39795 2.04102 10.0003 2.04102C14.6027 2.04102 18.3337 5.77198 18.3337 10.3743C18.3337 14.9767 14.6027 18.7077 10.0003 18.7077C5.39795 18.7077 1.66699 14.9767 1.66699 10.3743ZM10.0003 5.37435C10.4606 5.37435 10.8337 5.74745 10.8337 6.20768V10.0292L13.0896 12.2851C13.415 12.6105 13.415 13.1382 13.0896 13.4636C12.7641 13.789 12.2365 13.789 11.9111 13.4636L9.41107 10.9636C9.25479 10.8073 9.16699 10.5954 9.16699 10.3743V6.20768C9.16699 5.74745 9.54009 5.37435 10.0003 5.37435Z" fill="#333333"/>
</svg>
