<svg width="15" height="18" viewBox="0 0 15 18" fill="none" xmlns="http://www.w3.org/2000/svg">
<path d="M7.65944 0.912046C7.98488 0.586609 8.51252 0.586609 8.83795 0.912046L11.338 3.41205C11.6634 3.73748 11.6634 4.26512 11.338 4.59056L8.83795 7.09056C8.51252 7.416 7.98488 7.416 7.65944 7.09056C7.33401 6.76512 7.33401 6.23748 7.65944 5.91205L8.73685 4.83464H7.41536C4.45894 4.83464 1.9987 7.29487 1.9987 10.2513C1.9987 13.2077 4.45894 15.668 7.41536 15.668C10.3718 15.668 12.832 13.2077 12.832 10.2513C12.832 9.79107 13.2051 9.41797 13.6654 9.41797C14.1256 9.41797 14.4987 9.79107 14.4987 10.2513C14.4987 14.1282 11.2923 17.3346 7.41536 17.3346C3.53846 17.3346 0.332031 14.1282 0.332031 10.2513C0.332031 6.3744 3.53846 3.16797 7.41536 3.16797H8.73685L7.65944 2.09056C7.33401 1.76512 7.33401 1.23748 7.65944 0.912046Z" fill="#499690"/>
</svg>
