<svg width="16" height="17" viewBox="0 0 16 17" fill="none" xmlns="http://www.w3.org/2000/svg">
<path d="M5.5 0.666992C5.96024 0.666992 6.33333 1.04009 6.33333 1.50033V2.33366H9.66667V1.50033C9.66667 1.04009 10.0398 0.666992 10.5 0.666992C10.9602 0.666992 11.3333 1.04009 11.3333 1.50033V2.33366H13.8333C14.7538 2.33366 15.5 3.07985 15.5 4.00033V14.8337C15.5 15.7541 14.7538 16.5003 13.8333 16.5003H2.16667C1.24619 16.5003 0.5 15.7541 0.5 14.8337V4.00033C0.5 3.07985 1.24619 2.33366 2.16667 2.33366H4.66667V1.50033C4.66667 1.04009 5.03976 0.666992 5.5 0.666992ZM4.66667 4.00033H2.16667V6.50033H13.8333V4.00033H11.3333V4.83366C11.3333 5.2939 10.9602 5.66699 10.5 5.66699C10.0398 5.66699 9.66667 5.2939 9.66667 4.83366V4.00033H6.33333V4.83366C6.33333 5.2939 5.96024 5.66699 5.5 5.66699C5.03976 5.66699 4.66667 5.2939 4.66667 4.83366V4.00033ZM13.8333 8.16699H2.16667V14.8337H13.8333V8.16699Z" fill="#777777"/>
</svg>
