<svg width="12" height="16" viewBox="0 0 12 16" fill="none" xmlns="http://www.w3.org/2000/svg">
<path fill-rule="evenodd" clip-rule="evenodd" d="M4.82663 10.2189C5.19765 10.3781 5.59667 10.4606 6 10.4616C7.68476 10.4616 9.05556 9.06389 9.05556 7.3462V3.07695C9.05556 1.35156 7.7134 2.32836e-05 6 2.32836e-05C5.59831 -0.00155337 5.20025 0.0769574 4.82884 0.231029C4.4574 0.3851 4.11995 0.611685 3.8359 0.89772C3.55186 1.18375 3.32685 1.52357 3.17384 1.8976C3.02084 2.27162 2.94288 2.67244 2.94444 3.07695V7.3462C2.94499 8.16601 3.26687 8.95247 3.8401 9.53466C4.12012 9.82693 4.45561 10.0596 4.82663 10.2189ZM1.72222 7.38466C1.72222 7.04478 1.44862 6.76928 1.11111 6.76928C0.773604 6.76928 0.5 7.04478 0.5 7.38466C0.5 10.2243 2.64759 12.5806 5.38889 12.8889V14.7693H3.55556C3.21805 14.7693 2.94444 15.0448 2.94444 15.3847C2.94444 15.7245 3.21805 16.0001 3.55556 16.0001H6H8.44444C8.78197 16.0001 9.05556 15.7245 9.05556 15.3847C9.05556 15.0448 8.78197 14.7693 8.44444 14.7693H6.61111V12.8889C9.3524 12.5806 11.5 10.2243 11.5 7.38466C11.5 7.04478 11.2264 6.76928 10.8889 6.76928C10.5514 6.76928 10.2778 7.04478 10.2778 7.38466C10.2778 9.75247 8.35136 11.6924 6 11.6924C3.64862 11.6924 1.72222 9.75247 1.72222 7.38466Z" fill="#499690"/>
</svg>
