<svg width="24" height="24" viewBox="0 0 24 24" fill="none" xmlns="http://www.w3.org/2000/svg">
<path d="M14.7 12.5C14.7 14.0385 13.4912 15.2857 12 15.2857C10.5088 15.2857 9.3 14.0385 9.3 12.5C9.3 10.9615 10.5088 9.71429 12 9.71429C13.4912 9.71429 14.7 10.9615 14.7 12.5Z" fill="#777777"/>
<path d="M20.905 12.0847C18.9626 8.07661 15.5128 6 12 6C8.48719 6 5.03741 8.07661 3.09502 12.0847C2.96833 12.3461 2.96833 12.6539 3.09502 12.9153C5.03741 16.9234 8.48719 19 12 19C15.5128 19 18.9626 16.9234 20.905 12.9153C21.0317 12.6539 21.0317 12.3461 20.905 12.0847ZM12 17.1429C9.32809 17.1429 6.59825 15.6378 4.91669 12.5C6.59825 9.36215 9.32809 7.85714 12 7.85714C14.6719 7.85714 17.4018 9.36215 19.0833 12.5C17.4018 15.6378 14.6719 17.1429 12 17.1429Z" fill="#777777"/>
</svg>
