<svg width="22" height="22" viewBox="0 0 22 22" fill="none" xmlns="http://www.w3.org/2000/svg">
<path d="M8.8 2.2C5.15492 2.2 2.2 5.15492 2.2 8.8C2.2 12.4451 5.15492 15.4 8.8 15.4C12.4451 15.4 15.4 12.4451 15.4 8.8C15.4 5.15492 12.4451 2.2 8.8 2.2ZM0 8.8C0 3.93989 3.93989 0 8.8 0C13.6601 0 17.6 3.93989 17.6 8.8C17.6 10.8336 16.9102 12.7061 15.7518 14.1962L21.6778 20.1222C22.1074 20.5518 22.1074 21.2482 21.6778 21.6778C21.2482 22.1074 20.5518 22.1074 20.1222 21.6778L14.1962 15.7518C12.7061 16.9102 10.8336 17.6 8.8 17.6C3.93989 17.6 0 13.6601 0 8.8Z" fill="white"/>
</svg>
