<svg width="91" height="165" viewBox="0 0 91 165" fill="none" xmlns="http://www.w3.org/2000/svg">
<path d="M0.941406 15.745C0.941406 7.5239 7.56281 0.859375 15.7307 0.859375L76.1516 0.859375C84.3195 0.859375 90.9409 7.52391 90.9409 15.745V149.194C90.9409 157.415 84.3195 164.08 76.1516 164.08H15.7307C7.56281 164.08 0.941406 157.415 0.941406 149.194L0.941406 15.745Z" fill="#4F7EF4" fill-opacity="0.5"/>
<path fill-rule="evenodd" clip-rule="evenodd" d="M76.1516 3.8365L15.7307 3.8365C9.1964 3.8365 3.89927 9.16812 3.89927 15.745L3.89927 149.194C3.89927 155.771 9.1964 161.103 15.7307 161.103H76.1516C82.6859 161.103 87.9831 155.771 87.9831 149.194V15.745C87.9831 9.16813 82.6859 3.8365 76.1516 3.8365ZM15.7307 0.859375C7.56281 0.859375 0.941406 7.5239 0.941406 15.745L0.941406 149.194C0.941406 157.415 7.56281 164.08 15.7307 164.08H76.1516C84.3195 164.08 90.9409 157.415 90.9409 149.194V15.745C90.9409 7.52391 84.3195 0.859375 76.1516 0.859375L15.7307 0.859375Z" fill="#4F7EF4"/>
<path d="M0.941406 17.6406H90.9409V141.055H0.941406L0.941406 17.6406Z" fill="#FBFBFB"/>
<path fill-rule="evenodd" clip-rule="evenodd" d="M87.9831 20.6178H3.89927L3.89927 138.078H87.9831V20.6178ZM0.941406 17.6406L0.941406 141.055H90.9409V17.6406H0.941406Z" fill="#4F7EF4"/>
<path d="M52.0529 151.336C52.0529 154.744 49.3172 157.507 45.9425 157.507C42.5678 157.507 39.832 154.744 39.832 151.336C39.832 147.927 42.5678 145.164 45.9425 145.164C49.3172 145.164 52.0529 147.927 52.0529 151.336Z" fill="#4F7EF4" fill-opacity="0.7"/>
<path fill-rule="evenodd" clip-rule="evenodd" d="M45.9425 156.019C48.4956 156.019 50.574 153.927 50.574 151.336C50.574 148.745 48.4956 146.653 45.9425 146.653C43.3893 146.653 41.311 148.745 41.311 151.336C41.311 153.927 43.3893 156.019 45.9425 156.019ZM45.9425 157.507C49.3172 157.507 52.0529 154.744 52.0529 151.336C52.0529 147.927 49.3172 145.164 45.9425 145.164C42.5678 145.164 39.832 147.927 39.832 151.336C39.832 154.744 42.5678 157.507 45.9425 157.507Z" fill="#4F7EF4"/>
<path d="M37.8008 11.0569C37.8008 10.2877 38.4203 9.66406 39.1846 9.66406H52.6907C53.455 9.66406 54.0745 10.2877 54.0745 11.0569C54.0745 11.8262 53.455 12.4498 52.6907 12.4498H39.1846C38.4203 12.4498 37.8008 11.8262 37.8008 11.0569Z" fill="#4F7EF4"/>
<path d="M59.5886 11.0023C59.5886 11.7715 58.9715 12.3951 58.2103 12.3951C57.4491 12.3951 56.832 11.7715 56.832 11.0023C56.832 10.233 57.4491 9.60938 58.2103 9.60938C58.9715 9.60938 59.5886 10.233 59.5886 11.0023Z" fill="#4F7EF4"/>
<path d="M42.1406 64.1797H70.3422V95.6093H42.1406V64.1797Z" fill="#E6EDFF"/>
<path fill-rule="evenodd" clip-rule="evenodd" d="M68.1071 66.4294H44.3757V93.3596H68.1071V66.4294ZM42.1406 64.1797V95.6093H70.3422V64.1797H42.1406Z" fill="#4F7EF4"/>
<path d="M70.3422 95.661C70.3422 100.022 64.029 103.556 56.2414 103.556C48.4538 103.556 42.1406 100.022 42.1406 95.661C42.1406 91.3005 48.4538 87.7656 56.2414 87.7656C64.029 87.7656 70.3422 91.3005 70.3422 95.661Z" fill="#E6EDFF"/>
<path fill-rule="evenodd" clip-rule="evenodd" d="M65.1256 99.2779C67.3617 98.0259 68.1071 96.6547 68.1071 95.661C68.1071 94.6673 67.3617 93.2961 65.1256 92.0441C62.9647 90.8342 59.828 90.0153 56.2414 90.0153C52.6547 90.0153 49.5181 90.8342 47.3572 92.0441C45.1211 93.2961 44.3757 94.6673 44.3757 95.661C44.3757 96.6547 45.1211 98.0259 47.3572 99.2779C49.5181 100.488 52.6547 101.307 56.2414 101.307C59.828 101.307 62.9647 100.488 65.1256 99.2779ZM56.2414 103.556C64.029 103.556 70.3422 100.022 70.3422 95.661C70.3422 91.3005 64.029 87.7656 56.2414 87.7656C48.4538 87.7656 42.1406 91.3005 42.1406 95.661C42.1406 100.022 48.4538 103.556 56.2414 103.556Z" fill="#4F7EF4"/>
<path d="M70.3422 90.6844C70.3422 95.0449 64.029 98.5798 56.2414 98.5798C48.4538 98.5798 42.1406 95.0449 42.1406 90.6844C42.1406 86.3239 48.4538 82.7891 56.2414 82.7891C64.029 82.7891 70.3422 86.3239 70.3422 90.6844Z" fill="#E6EDFF"/>
<path fill-rule="evenodd" clip-rule="evenodd" d="M65.1256 94.3013C67.3617 93.0493 68.1071 91.6782 68.1071 90.6844C68.1071 89.6907 67.3617 88.3196 65.1256 87.0676C62.9647 85.8576 59.828 85.0388 56.2414 85.0388C52.6547 85.0388 49.5181 85.8576 47.3572 87.0676C45.1211 88.3196 44.3757 89.6907 44.3757 90.6844C44.3757 91.6782 45.1211 93.0493 47.3572 94.3013C49.5181 95.5113 52.6547 96.3301 56.2414 96.3301C59.828 96.3301 62.9647 95.5113 65.1256 94.3013ZM56.2414 98.5798C64.029 98.5798 70.3422 95.0449 70.3422 90.6844C70.3422 86.3239 64.029 82.7891 56.2414 82.7891C48.4538 82.7891 42.1406 86.3239 42.1406 90.6844C42.1406 95.0449 48.4538 98.5798 56.2414 98.5798Z" fill="#4F7EF4"/>
<path d="M70.3422 85.5673C70.3422 89.9278 64.029 93.4626 56.2414 93.4626C48.4538 93.4626 42.1406 89.9278 42.1406 85.5673C42.1406 81.2068 48.4538 77.6719 56.2414 77.6719C64.029 77.6719 70.3422 81.2068 70.3422 85.5673Z" fill="#E6EDFF"/>
<path fill-rule="evenodd" clip-rule="evenodd" d="M65.1256 89.1841C67.3617 87.9321 68.1071 86.561 68.1071 85.5673C68.1071 84.5735 67.3617 83.2024 65.1256 81.9504C62.9647 80.7404 59.828 79.9216 56.2414 79.9216C52.6547 79.9216 49.5181 80.7404 47.3572 81.9504C45.1211 83.2024 44.3757 84.5735 44.3757 85.5673C44.3757 86.561 45.1211 87.9321 47.3572 89.1841C49.5181 90.3941 52.6547 91.2129 56.2414 91.2129C59.828 91.2129 62.9647 90.3941 65.1256 89.1841ZM56.2414 93.4626C64.029 93.4626 70.3422 89.9278 70.3422 85.5673C70.3422 81.2068 64.029 77.6719 56.2414 77.6719C48.4538 77.6719 42.1406 81.2068 42.1406 85.5673C42.1406 89.9278 48.4538 93.4626 56.2414 93.4626Z" fill="#4F7EF4"/>
<path d="M70.3422 80.3719C70.3422 84.7324 64.029 88.2673 56.2414 88.2673C48.4538 88.2673 42.1406 84.7324 42.1406 80.3719C42.1406 76.0114 48.4538 72.4766 56.2414 72.4766C64.029 72.4766 70.3422 76.0114 70.3422 80.3719Z" fill="#E6EDFF"/>
<path fill-rule="evenodd" clip-rule="evenodd" d="M65.1256 83.9888C67.3617 82.7368 68.1071 81.3657 68.1071 80.3719C68.1071 79.3782 67.3617 78.0071 65.1256 76.7551C62.9647 75.5451 59.828 74.7263 56.2414 74.7263C52.6547 74.7263 49.5181 75.5451 47.3572 76.7551C45.1211 78.0071 44.3757 79.3782 44.3757 80.3719C44.3757 81.3657 45.1211 82.7368 47.3572 83.9888C49.5181 85.1988 52.6547 86.0176 56.2414 86.0176C59.828 86.0176 62.9647 85.1988 65.1256 83.9888ZM56.2414 88.2673C64.029 88.2673 70.3422 84.7324 70.3422 80.3719C70.3422 76.0114 64.029 72.4766 56.2414 72.4766C48.4538 72.4766 42.1406 76.0114 42.1406 80.3719C42.1406 84.7324 48.4538 88.2673 56.2414 88.2673Z" fill="#4F7EF4"/>
<path d="M70.3422 75.2626C70.3422 79.6231 64.029 83.158 56.2414 83.158C48.4538 83.158 42.1406 79.6231 42.1406 75.2626C42.1406 70.9021 48.4538 67.3672 56.2414 67.3672C64.029 67.3672 70.3422 70.9021 70.3422 75.2626Z" fill="#E6EDFF"/>
<path fill-rule="evenodd" clip-rule="evenodd" d="M65.1256 78.8795C67.3617 77.6274 68.1071 76.2563 68.1071 75.2626C68.1071 74.2688 67.3617 72.8977 65.1256 71.6457C62.9647 70.4357 59.828 69.6169 56.2414 69.6169C52.6547 69.6169 49.5181 70.4357 47.3572 71.6457C45.1211 72.8977 44.3757 74.2688 44.3757 75.2626C44.3757 76.2563 45.1211 77.6274 47.3572 78.8795C49.5181 80.0894 52.6547 80.9082 56.2414 80.9082C59.828 80.9082 62.9647 80.0894 65.1256 78.8795ZM56.2414 83.158C64.029 83.158 70.3422 79.6231 70.3422 75.2626C70.3422 70.9021 64.029 67.3672 56.2414 67.3672C48.4538 67.3672 42.1406 70.9021 42.1406 75.2626C42.1406 79.6231 48.4538 83.158 56.2414 83.158Z" fill="#4F7EF4"/>
<path d="M70.3422 70.0829C70.3422 74.4434 64.029 77.9783 56.2414 77.9783C48.4538 77.9783 42.1406 74.4434 42.1406 70.0829C42.1406 65.7224 48.4538 62.1875 56.2414 62.1875C64.029 62.1875 70.3422 65.7224 70.3422 70.0829Z" fill="#E6EDFF"/>
<path fill-rule="evenodd" clip-rule="evenodd" d="M65.1256 73.6998C67.3617 72.4477 68.1071 71.0766 68.1071 70.0829C68.1071 69.0891 67.3617 67.718 65.1256 66.466C62.9647 65.256 59.828 64.4372 56.2414 64.4372C52.6547 64.4372 49.5181 65.256 47.3572 66.466C45.1211 67.718 44.3757 69.0891 44.3757 70.0829C44.3757 71.0766 45.1211 72.4477 47.3572 73.6998C49.5181 74.9097 52.6547 75.7286 56.2414 75.7286C59.828 75.7286 62.9647 74.9097 65.1256 73.6998ZM56.2414 77.9783C64.029 77.9783 70.3422 74.4434 70.3422 70.0829C70.3422 65.7224 64.029 62.1875 56.2414 62.1875C48.4538 62.1875 42.1406 65.7224 42.1406 70.0829C42.1406 74.4434 48.4538 77.9783 56.2414 77.9783Z" fill="#4F7EF4"/>
<path d="M70.3422 64.9501C70.3422 69.3106 64.029 72.8455 56.2414 72.8455C48.4538 72.8455 42.1406 69.3106 42.1406 64.9501C42.1406 60.5896 48.4538 57.0547 56.2414 57.0547C64.029 57.0547 70.3422 60.5896 70.3422 64.9501Z" fill="#E6EDFF"/>
<path fill-rule="evenodd" clip-rule="evenodd" d="M65.1256 68.567C67.3617 67.3149 68.1071 65.9438 68.1071 64.9501C68.1071 63.9563 67.3617 62.5852 65.1256 61.3332C62.9647 60.1232 59.828 59.3044 56.2414 59.3044C52.6547 59.3044 49.5181 60.1232 47.3572 61.3332C45.1211 62.5852 44.3757 63.9563 44.3757 64.9501C44.3757 65.9438 45.1211 67.3149 47.3572 68.567C49.5181 69.7769 52.6547 70.5957 56.2414 70.5957C59.828 70.5957 62.9647 69.7769 65.1256 68.567ZM56.2414 72.8455C64.029 72.8455 70.3422 69.3106 70.3422 64.9501C70.3422 60.5896 64.029 57.0547 56.2414 57.0547C48.4538 57.0547 42.1406 60.5896 42.1406 64.9501C42.1406 69.3106 48.4538 72.8455 56.2414 72.8455Z" fill="#4F7EF4"/>
<path d="M21.5352 73.5H49.7367V100.399H21.5352V73.5Z" fill="#E6EDFF"/>
<path fill-rule="evenodd" clip-rule="evenodd" d="M47.5016 75.7497H23.7702V98.1495H47.5016V75.7497ZM21.5352 73.5V100.399H49.7367V73.5H21.5352Z" fill="#4F7EF4"/>
<path d="M49.7367 100.005C49.7367 104.365 43.4236 107.9 35.6359 107.9C27.8483 107.9 21.5352 104.365 21.5352 100.005C21.5352 95.6443 27.8483 92.1094 35.6359 92.1094C43.4236 92.1094 49.7367 95.6443 49.7367 100.005Z" fill="#E6EDFF"/>
<path fill-rule="evenodd" clip-rule="evenodd" d="M44.5202 103.622C46.7562 102.37 47.5016 100.998 47.5016 100.005C47.5016 99.011 46.7562 97.6399 44.5202 96.3879C42.3592 95.1779 39.2226 94.3591 35.6359 94.3591C32.0493 94.3591 28.9126 95.1779 26.7517 96.3879C24.5156 97.6399 23.7702 99.011 23.7702 100.005C23.7702 100.998 24.5156 102.37 26.7517 103.622C28.9126 104.832 32.0493 105.65 35.6359 105.65C39.2226 105.65 42.3592 104.832 44.5202 103.622ZM35.6359 107.9C43.4236 107.9 49.7367 104.365 49.7367 100.005C49.7367 95.6443 43.4236 92.1094 35.6359 92.1094C27.8483 92.1094 21.5352 95.6443 21.5352 100.005C21.5352 104.365 27.8483 107.9 35.6359 107.9Z" fill="#4F7EF4"/>
<path d="M49.7367 94.8876C49.7367 99.2481 43.4236 102.783 35.6359 102.783C27.8483 102.783 21.5352 99.2481 21.5352 94.8876C21.5352 90.5271 27.8483 86.9922 35.6359 86.9922C43.4236 86.9922 49.7367 90.5271 49.7367 94.8876Z" fill="#E6EDFF"/>
<path fill-rule="evenodd" clip-rule="evenodd" d="M44.5202 98.5045C46.7562 97.2524 47.5016 95.8813 47.5016 94.8876C47.5016 93.8938 46.7562 92.5227 44.5202 91.2707C42.3592 90.0607 39.2226 89.2419 35.6359 89.2419C32.0493 89.2419 28.9126 90.0607 26.7517 91.2707C24.5156 92.5227 23.7702 93.8938 23.7702 94.8876C23.7702 95.8813 24.5156 97.2524 26.7517 98.5045C28.9126 99.7144 32.0493 100.533 35.6359 100.533C39.2226 100.533 42.3592 99.7144 44.5202 98.5045ZM35.6359 102.783C43.4236 102.783 49.7367 99.2481 49.7367 94.8876C49.7367 90.5271 43.4236 86.9922 35.6359 86.9922C27.8483 86.9922 21.5352 90.5271 21.5352 94.8876C21.5352 99.2481 27.8483 102.783 35.6359 102.783Z" fill="#4F7EF4"/>
<path d="M49.7367 89.6923C49.7367 94.0528 43.4236 97.5876 35.6359 97.5876C27.8483 97.5876 21.5352 94.0528 21.5352 89.6923C21.5352 85.3318 27.8483 81.7969 35.6359 81.7969C43.4236 81.7969 49.7367 85.3318 49.7367 89.6923Z" fill="#E6EDFF"/>
<path fill-rule="evenodd" clip-rule="evenodd" d="M44.5202 93.3091C46.7562 92.0571 47.5016 90.686 47.5016 89.6923C47.5016 88.6985 46.7562 87.3274 44.5202 86.0754C42.3592 84.8654 39.2226 84.0466 35.6359 84.0466C32.0493 84.0466 28.9126 84.8654 26.7517 86.0754C24.5156 87.3274 23.7702 88.6985 23.7702 89.6923C23.7702 90.686 24.5156 92.0571 26.7517 93.3091C28.9126 94.5191 32.0493 95.3379 35.6359 95.3379C39.2226 95.3379 42.3592 94.5191 44.5202 93.3091ZM35.6359 97.5876C43.4236 97.5876 49.7367 94.0528 49.7367 89.6923C49.7367 85.3318 43.4236 81.7969 35.6359 81.7969C27.8483 81.7969 21.5352 85.3318 21.5352 89.6923C21.5352 94.0528 27.8483 97.5876 35.6359 97.5876Z" fill="#4F7EF4"/>
<path d="M49.7367 84.5829C49.7367 88.9434 43.4236 92.4783 35.6359 92.4783C27.8483 92.4783 21.5352 88.9434 21.5352 84.5829C21.5352 80.2224 27.8483 76.6875 35.6359 76.6875C43.4236 76.6875 49.7367 80.2224 49.7367 84.5829Z" fill="#E6EDFF"/>
<path fill-rule="evenodd" clip-rule="evenodd" d="M44.5202 88.1998C46.7562 86.9477 47.5016 85.5766 47.5016 84.5829C47.5016 83.5891 46.7562 82.218 44.5202 80.966C42.3592 79.756 39.2226 78.9372 35.6359 78.9372C32.0493 78.9372 28.9126 79.756 26.7517 80.966C24.5156 82.218 23.7702 83.5891 23.7702 84.5829C23.7702 85.5766 24.5156 86.9477 26.7517 88.1998C28.9126 89.4097 32.0493 90.2286 35.6359 90.2286C39.2226 90.2286 42.3592 89.4097 44.5202 88.1998ZM35.6359 92.4783C43.4236 92.4783 49.7367 88.9434 49.7367 84.5829C49.7367 80.2224 43.4236 76.6875 35.6359 76.6875C27.8483 76.6875 21.5352 80.2224 21.5352 84.5829C21.5352 88.9434 27.8483 92.4783 35.6359 92.4783Z" fill="#4F7EF4"/>
<path d="M49.7367 79.4032C49.7367 83.7637 43.4236 87.2986 35.6359 87.2986C27.8483 87.2986 21.5352 83.7637 21.5352 79.4032C21.5352 75.0427 27.8483 71.5078 35.6359 71.5078C43.4236 71.5078 49.7367 75.0427 49.7367 79.4032Z" fill="#E6EDFF"/>
<path fill-rule="evenodd" clip-rule="evenodd" d="M44.5202 83.0201C46.7562 81.7681 47.5016 80.3969 47.5016 79.4032C47.5016 78.4095 46.7562 77.0383 44.5202 75.7863C42.3592 74.5763 39.2226 73.7575 35.6359 73.7575C32.0493 73.7575 28.9126 74.5763 26.7517 75.7863C24.5156 77.0383 23.7702 78.4095 23.7702 79.4032C23.7702 80.3969 24.5156 81.7681 26.7517 83.0201C28.9126 84.23 32.0493 85.0489 35.6359 85.0489C39.2226 85.0489 42.3592 84.23 44.5202 83.0201ZM35.6359 87.2986C43.4236 87.2986 49.7367 83.7637 49.7367 79.4032C49.7367 75.0427 43.4236 71.5078 35.6359 71.5078C27.8483 71.5078 21.5352 75.0427 21.5352 79.4032C21.5352 83.7637 27.8483 87.2986 35.6359 87.2986Z" fill="#4F7EF4"/>
<path d="M49.7367 74.2704C49.7367 78.6309 43.4236 82.1658 35.6359 82.1658C27.8483 82.1658 21.5352 78.6309 21.5352 74.2704C21.5352 69.9099 27.8483 66.375 35.6359 66.375C43.4236 66.375 49.7367 69.9099 49.7367 74.2704Z" fill="#E6EDFF"/>
<path fill-rule="evenodd" clip-rule="evenodd" d="M44.5202 77.8873C46.7562 76.6352 47.5016 75.2641 47.5016 74.2704C47.5016 73.2766 46.7562 71.9055 44.5202 70.6535C42.3592 69.4435 39.2226 68.6247 35.6359 68.6247C32.0493 68.6247 28.9126 69.4435 26.7517 70.6535C24.5156 71.9055 23.7702 73.2766 23.7702 74.2704C23.7702 75.2641 24.5156 76.6352 26.7517 77.8873C28.9126 79.0972 32.0493 79.9161 35.6359 79.9161C39.2226 79.9161 42.3592 79.0972 44.5202 77.8873ZM35.6359 82.1658C43.4236 82.1658 49.7367 78.6309 49.7367 74.2704C49.7367 69.9099 43.4236 66.375 35.6359 66.375C27.8483 66.375 21.5352 69.9099 21.5352 74.2704C21.5352 78.6309 27.8483 82.1658 35.6359 82.1658Z" fill="#4F7EF4"/>
</svg>
