<svg width="30" height="30" viewBox="0 0 30 30" fill="none" xmlns="http://www.w3.org/2000/svg">
<path d="M7.92849 14.9996C5.94177 16.9863 5.94177 20.084 7.92849 22.0707C9.91521 24.0574 13.0128 24.0574 14.9996 22.0707L16.0702 21C16.5584 20.5118 17.3499 20.5118 17.838 21C18.3262 21.4882 18.3262 22.2796 17.838 22.7678L16.7673 23.8385C13.8043 26.8015 9.12375 26.8015 6.16072 23.8385C3.19769 20.8754 3.19769 16.1949 6.16072 13.2319L7.23141 12.1612C7.71957 11.673 8.51102 11.673 8.99918 12.1612C9.48734 12.6493 9.48734 13.4408 8.99918 13.9289L7.92849 14.9996ZM12.1603 9C11.6722 8.51184 11.6722 7.72039 12.1603 7.23223C12.6485 6.74408 13.2318 6.16079 13.2318 6.16079C16.1948 3.19776 20.8754 3.19776 23.8384 6.16079C26.8014 9.12382 26.8014 13.8044 23.8384 16.7674L22.7669 17.8388C22.2788 18.327 21.4873 18.327 20.9992 17.8388C20.511 17.3507 20.511 16.5592 20.9992 16.0711L22.0706 14.9996C24.0573 13.0129 24.0573 9.91527 22.0706 7.92855C20.0839 5.94184 16.9863 5.94184 14.9996 7.92855C14.9996 7.92855 14.4163 8.51184 13.9281 9C13.44 9.48816 12.6485 9.48816 12.1603 9Z" fill="#777777"/>
<path d="M6.88369 6.88388C7.37185 6.39573 8.16331 6.39573 8.65146 6.88388C9.13962 7.37204 22.9998 21.2322 22.9998 21.2322C23.488 21.7204 23.488 22.5118 22.9998 23C22.5117 23.4882 21.7202 23.4882 21.232 23L6.88369 8.65165C6.39554 8.1635 6.39554 7.37204 6.88369 6.88388Z" fill="#777777"/>
</svg>
