<svg width="28" height="28" viewBox="0 0 28 28" fill="none" xmlns="http://www.w3.org/2000/svg">
<path d="M12 5H16" stroke="#CCCCCC" stroke-width="2" stroke-linecap="round"/>
<path fill-rule="evenodd" clip-rule="evenodd" d="M8 1C6.34315 1 5 2.34315 5 4V24C5 25.6569 6.34315 27 8 27H20C21.6569 27 23 25.6569 23 24V17H21V24C21 24.5523 20.5523 25 20 25H8C7.44772 25 7 24.5523 7 24V4C7 3.44772 7.44771 3 8 3H20C20.5523 3 21 3.44772 21 4V7H23V4C23 2.34315 21.6569 1 20 1H8Z" fill="#CCCCCC"/>
<path d="M23 15C23 14.2121 22.8448 13.4319 22.5433 12.7039C22.2417 11.9759 21.7998 11.3145 21.2426 10.7574C20.6855 10.2002 20.0241 9.75825 19.2961 9.45672C18.5681 9.15519 17.7879 9 17 9" stroke="#CCCCCC" stroke-width="1.5"/>
<path d="M20.4286 14.9911C20.4286 14.5408 20.3399 14.095 20.1676 13.679C19.9953 13.263 19.7427 12.8851 19.4244 12.5667C19.106 12.2483 18.728 11.9958 18.3121 11.8235C17.8961 11.6512 17.4502 11.5625 17 11.5625" stroke="#CCCCCC" stroke-width="1.5"/>
<path d="M17.9796 14.9952C17.9796 14.8666 17.9543 14.7392 17.905 14.6203C17.8558 14.5015 17.7836 14.3935 17.6927 14.3025C17.6017 14.2116 17.4937 14.1394 17.3749 14.0902C17.256 14.041 17.1286 14.0156 17 14.0156" stroke="#CCCCCC" stroke-width="1.5"/>
</svg>
