<svg width="66" height="68" viewBox="0 0 66 68" fill="none" xmlns="http://www.w3.org/2000/svg">
<mask id="path-1-inside-1_6613_233935" fill="white">
<path fill-rule="evenodd" clip-rule="evenodd" d="M27.9374 52.1913C37.8634 55.4647 49.0561 51.4556 54.4882 42.047C60.7105 31.2696 57.0179 17.4887 46.2406 11.2664C35.4633 5.04416 21.6824 8.73674 15.4601 19.5141C10.3328 28.3949 11.9379 39.3152 18.6918 46.3651L18.0691 53.4828C17.9349 55.0165 19.5114 56.1204 20.9067 55.4697L27.9374 52.1913Z"/>
</mask>
<path fill-rule="evenodd" clip-rule="evenodd" d="M27.9374 52.1913C37.8634 55.4647 49.0561 51.4556 54.4882 42.047C60.7105 31.2696 57.0179 17.4887 46.2406 11.2664C35.4633 5.04416 21.6824 8.73674 15.4601 19.5141C10.3328 28.3949 11.9379 39.3152 18.6918 46.3651L18.0691 53.4828C17.9349 55.0165 19.5114 56.1204 20.9067 55.4697L27.9374 52.1913Z" fill="#F8F8F8"/>
<path d="M27.9374 52.1913L28.877 49.3422L27.7475 48.9697L26.6696 49.4723L27.9374 52.1913ZM18.6918 46.3651L21.6804 46.6266L21.7989 45.2718L20.8581 44.2898L18.6918 46.3651ZM18.0691 53.4828L15.0805 53.2213L18.0691 53.4828ZM20.9067 55.4697L22.1746 58.1886L22.1746 58.1886L20.9067 55.4697ZM51.8902 40.547C47.1831 48.6999 37.4804 52.1795 28.877 49.3422L26.9978 55.0403C38.2464 58.75 50.9292 54.2113 57.0863 43.547L51.8902 40.547ZM44.7406 13.8645C54.0831 19.2584 57.284 31.2045 51.8902 40.547L57.0863 43.547C64.137 31.3348 59.9528 15.7191 47.7406 8.66837L44.7406 13.8645ZM18.0582 21.0141C23.4521 11.6716 35.3982 8.47066 44.7406 13.8645L47.7406 8.66837C35.5284 1.61766 19.9128 5.80186 12.862 18.0141L18.0582 21.0141ZM20.8581 44.2898C15.002 38.1771 13.6157 28.7087 18.0582 21.0141L12.862 18.0141C7.04985 28.0811 8.8737 40.4534 16.5255 48.4405L20.8581 44.2898ZM21.0577 53.7443L21.6804 46.6266L15.7032 46.1037L15.0805 53.2213L21.0577 53.7443ZM19.6389 52.7508C20.3366 52.4255 21.1248 52.9774 21.0577 53.7443L15.0805 53.2213C14.7451 57.0557 18.6862 59.8153 22.1746 58.1886L19.6389 52.7508ZM26.6696 49.4723L19.6389 52.7508L22.1746 58.1886L29.2053 54.9102L26.6696 49.4723Z" fill="black" mask="url(#path-1-inside-1_6613_233935)"/>
<path d="M34.5281 20.5893L35.1608 21.6199C36.1944 23.3033 35.5998 25.4419 33.8508 26.3317L33.6756 26.4209C32.4222 27.0585 31.645 28.4047 32.1659 29.7099C32.664 30.9583 33.4943 32.2042 34.8122 33.7171C35.8514 34.9101 37.6068 35.1906 38.9983 34.4827L39.1202 34.4206C40.779 33.5768 42.8674 34.1725 43.8476 35.7691L44.4348 36.7255C45.277 38.0973 45.0842 39.8655 43.7702 40.7616C42.5302 41.6073 41.2911 42.1677 39.9515 42.5027C39.0969 42.7164 38.1843 42.4918 37.4556 41.9797C30.3311 36.9731 26.95 31.4772 26.1046 23.3371C26.031 22.6284 26.1916 21.9058 26.6667 21.377C27.6704 20.26 29.0406 19.5171 30.9141 19.018C32.3118 18.6456 33.7731 19.3595 34.5281 20.5893Z" fill="#57D7C9"/>
</svg>
