<svg width="241" height="146" viewBox="0 0 241 146" fill="none" xmlns="http://www.w3.org/2000/svg">
<g clip-path="url(#clip0_948_46676)">
<path d="M123.83 110.288C126.38 107.098 126.83 111.938 125.32 108.408C121.05 98.6882 118.25 87.7882 118.25 77.1182C118.437 63.7752 123.869 51.0422 133.371 41.6729C142.873 32.3035 155.681 27.0508 169.025 27.0508C182.369 27.0508 195.177 32.3035 204.679 41.6729C214.181 51.0422 219.613 63.7752 219.8 77.1182C219.719 82.7558 218.83 88.3528 217.16 93.7382C216.349 96.4786 215.398 99.1756 214.31 101.818C213.38 104.108 211.92 106.368 211.31 108.818C210.93 110.378 210.22 111.818 209.9 113.418C209.73 114.43 209.845 115.469 210.232 116.419C210.619 117.369 211.262 118.193 212.09 118.798" fill="#73EBE0"/>
<path d="M124.07 111.208C124.431 110.698 124.97 110.341 125.58 110.208C125.66 110.208 125.81 110.368 125.84 110.348C126.053 109.78 126.149 109.174 126.12 108.568C125.78 107.69 125.389 106.832 124.95 105.998C124.48 104.888 124.04 103.758 123.62 102.628C121.859 97.9287 120.543 93.074 119.69 88.1282C118.138 79.9195 118.48 71.4649 120.69 63.4083C123.798 53.0022 130.181 43.8768 138.89 37.3886C147.599 30.9005 158.17 27.3959 169.03 27.3959C179.89 27.3959 190.461 30.9005 199.17 37.3886C207.879 43.8768 214.262 53.0022 217.37 63.4083C219.721 71.6401 219.92 80.3372 217.95 88.6683C216.877 93.6428 215.236 98.4778 213.06 103.078C212.54 104.158 211.99 105.228 211.55 106.348C211.11 107.468 210.87 108.588 210.55 109.698C209.91 111.588 209.19 113.458 209.55 115.488C209.857 117.179 210.758 118.704 212.09 119.788C212.53 120.168 212.86 118.178 212.34 117.728C211.387 116.998 210.719 115.958 210.45 114.788C210.24 113.428 211.02 111.948 211.45 110.688C211.88 109.428 212.15 108.218 212.67 107.028C213.19 105.838 213.79 104.738 214.32 103.578C216.513 98.7104 218.14 93.607 219.17 88.3682C220.998 79.7597 220.699 70.8353 218.3 62.3682C215.133 51.3324 208.345 41.6831 199.029 34.973C189.712 28.2629 178.409 24.8824 166.939 25.3753C155.468 25.8683 144.497 30.206 135.79 37.6906C127.084 45.1752 121.149 55.3714 118.94 66.6383C117.14 75.6383 117.83 85.0083 119.94 93.9183C121.143 98.9406 122.779 103.849 124.83 108.588C125.01 109.008 125.74 111.338 126.53 110.718C127.14 110.248 126.74 108.718 126.2 108.318C125.27 107.638 124.26 108.748 123.71 109.398C123.32 109.868 123.62 111.908 124.18 111.248L124.07 111.208Z" fill="black"/>
<path d="M179.71 28.7014L190.34 18.6914L191.22 19.1014L191.27 32.8014" fill="#73EBE0"/>
<path d="M179.71 28.7014L190.34 18.6914L191.22 19.1014L191.27 32.8014" stroke="black" stroke-width="2.13" stroke-miterlimit="10"/>
<path d="M195.88 20.6786C195.434 21.6401 194.712 22.4477 193.807 22.9993C192.902 23.551 191.854 23.8219 190.795 23.7779C189.736 23.7339 188.714 23.3769 187.858 22.752C187.002 22.1271 186.35 21.2626 185.985 20.2674C185.62 19.2722 185.559 18.1912 185.808 17.1611C186.058 16.1309 186.607 15.1978 187.387 14.4798C188.166 13.7618 189.141 13.291 190.188 13.127C191.236 12.963 192.308 13.1133 193.27 13.5587C193.909 13.8546 194.483 14.2735 194.96 14.7916C195.438 15.3096 195.808 15.9165 196.05 16.5777C196.293 17.2389 196.402 17.9416 196.373 18.6452C196.344 19.3489 196.176 20.0398 195.88 20.6786Z" fill="#73EBE0" stroke="black" stroke-width="2.13" stroke-miterlimit="10"/>
<path d="M190.35 20.9787L189.61 20.4688L182 28.0887L190.13 26.7787L190.35 20.9787Z" fill="#73EBE0"/>
<path d="M134.93 109.3C134.401 109.709 134.044 110.301 133.93 110.96C133.824 111.623 133.824 112.298 133.93 112.96C134.024 113.995 134.284 115.008 134.7 115.96C135.46 117.58 136.99 118.18 137.78 119.75C138.451 121.432 139.427 122.975 140.66 124.3C142.807 126.204 145.581 127.248 148.45 127.23C150.474 127.279 152.474 126.777 154.235 125.779C155.996 124.78 157.453 123.322 158.45 121.56C159.488 123.285 160.954 124.712 162.706 125.703C164.458 126.694 166.437 127.214 168.45 127.214C170.463 127.214 172.442 126.694 174.194 125.703C175.946 124.712 177.413 123.285 178.45 121.56C179.447 123.322 180.904 124.78 182.666 125.779C184.427 126.777 186.426 127.279 188.45 127.23C190.192 127.259 191.917 126.892 193.495 126.155C195.073 125.419 196.464 124.333 197.56 122.98C197.41 123.19 201.92 124.87 202.33 124.98C205.304 125.732 208.412 125.787 211.41 125.14C217.64 123.62 222.35 116.8 218.24 111.55C217.46 110.602 216.448 109.872 215.301 109.432C214.155 108.992 212.914 108.857 211.7 109.04" fill="#73EBE0"/>
<path d="M134.93 109.3C134.401 109.709 134.044 110.301 133.93 110.96C133.824 111.623 133.824 112.298 133.93 112.96C134.024 113.995 134.284 115.008 134.7 115.96C135.46 117.58 136.99 118.18 137.78 119.75C138.451 121.432 139.427 122.975 140.66 124.3C142.807 126.204 145.581 127.248 148.45 127.23C150.474 127.279 152.474 126.777 154.235 125.779C155.996 124.78 157.453 123.322 158.45 121.56C159.488 123.285 160.954 124.712 162.706 125.703C164.458 126.694 166.437 127.214 168.45 127.214C170.463 127.214 172.442 126.694 174.194 125.703C175.946 124.712 177.413 123.285 178.45 121.56C179.447 123.322 180.904 124.78 182.666 125.779C184.427 126.777 186.426 127.279 188.45 127.23C190.192 127.259 191.917 126.892 193.495 126.155C195.073 125.419 196.464 124.333 197.56 122.98C197.41 123.19 201.92 124.87 202.33 124.98C205.304 125.732 208.412 125.787 211.41 125.14C217.64 123.62 222.35 116.8 218.24 111.55C217.46 110.602 216.448 109.872 215.301 109.432C214.155 108.992 212.914 108.857 211.7 109.04" stroke="black" stroke-width="1.88" stroke-miterlimit="10"/>
<path d="M153.05 62.6285C152.889 63.5323 152.464 64.3681 151.828 65.0301C151.192 65.6921 150.374 66.1506 149.478 66.3476C148.581 66.5447 147.646 66.4713 146.792 66.1369C145.937 65.8025 145.2 65.2221 144.675 64.4691C144.15 63.716 143.861 62.8242 143.843 61.9065C143.825 60.9887 144.079 60.0862 144.574 59.3132C145.07 58.5402 145.783 57.9314 146.624 57.5639C147.465 57.1964 148.397 57.0866 149.3 57.2485C149.901 57.3534 150.474 57.5761 150.988 57.9038C151.502 58.2315 151.947 58.6577 152.295 59.1578C152.644 59.6579 152.89 60.222 153.019 60.8177C153.149 61.4134 153.159 62.0288 153.05 62.6285Z" fill="black"/>
<path d="M173.37 66.3902C173.209 67.294 172.784 68.1297 172.148 68.7917C171.512 69.4537 170.694 69.9123 169.798 70.1093C168.901 70.3064 167.966 70.233 167.111 69.8986C166.256 69.5642 165.52 68.9839 164.995 68.2308C164.47 67.4777 164.18 66.5858 164.163 65.6681C164.145 64.7503 164.399 63.8479 164.894 63.0749C165.39 62.3019 166.103 61.6932 166.944 61.3256C167.785 60.9581 168.716 60.8483 169.62 61.0102C170.22 61.1151 170.794 61.3378 171.308 61.6655C171.822 61.9932 172.266 62.4194 172.615 62.9195C172.964 63.4196 173.21 63.9838 173.339 64.5794C173.469 65.1751 173.479 65.7905 173.37 66.3902Z" fill="black"/>
<path d="M153.14 92.949C146.31 91.729 141.87 84.539 143.23 76.889C144.59 69.239 151.23 64.0189 158.07 65.2289C164.91 66.4389 169.33 73.629 167.97 81.289C166.61 88.949 159.97 94.149 153.14 92.949Z" fill="white" stroke="black" stroke-width="2.13" stroke-miterlimit="10"/>
<path d="M160.13 79.674C160.652 76.7377 159.232 74.0298 156.959 73.6257C154.686 73.2217 152.421 75.2745 151.899 78.2108C151.377 81.1471 152.796 83.8549 155.069 84.2589C157.342 84.663 159.608 82.6103 160.13 79.674Z" fill="black" stroke="black" stroke-width="2.13" stroke-miterlimit="10"/>
<path d="M163.26 49.6781L158.84 48.8881L155.68 37.3281L159.57 38.0181L161 43.9381C161.1 44.3581 161.2 44.788 161.3 45.228C161.4 45.668 161.48 46.0981 161.54 46.5181C161.75 46.1381 161.98 45.7681 162.21 45.3881C162.44 45.0081 162.69 44.6381 162.94 44.2781L166.32 39.218L170.2 39.9081L163.26 49.6781Z" fill="black"/>
<path d="M212.91 108.91C211.635 108.915 210.384 109.255 209.282 109.896C208.18 110.537 207.265 111.455 206.63 112.56" fill="#B3A8FF"/>
<path d="M212.91 108.91C211.635 108.915 210.384 109.255 209.282 109.896C208.18 110.537 207.265 111.455 206.63 112.56" stroke="black" stroke-width="1.88" stroke-miterlimit="10"/>
<path d="M144.96 110.261C147.395 109.35 150.042 109.166 152.58 109.731C153.873 110.054 155.074 110.674 156.086 111.542C157.098 112.41 157.894 113.502 158.41 114.731C158.985 113.569 159.894 112.604 161.02 111.961C163.819 110.156 167.114 109.274 170.44 109.441C173.86 109.631 177.6 111.161 178.44 115.161C178.37 113.911 179.82 112.401 180.68 111.711C182.147 110.701 183.9 110.189 185.68 110.251" stroke="black" stroke-width="1.81" stroke-miterlimit="10"/>
<path d="M132.3 120.922C132.98 120.922 133.654 120.788 134.282 120.528C134.911 120.267 135.482 119.886 135.963 119.405C136.444 118.924 136.825 118.353 137.086 117.724C137.346 117.096 137.48 116.422 137.48 115.742L137.94 87.8518C137.94 86.478 137.394 85.1605 136.423 84.1891C135.452 83.2176 134.134 82.6719 132.76 82.6719C131.386 82.6719 130.069 83.2176 129.097 84.1891C128.126 85.1605 127.58 86.478 127.58 87.8518L127.12 115.742C127.12 117.116 127.666 118.433 128.637 119.405C129.609 120.376 130.926 120.922 132.3 120.922Z" fill="#FF5758" stroke="black" stroke-width="2" stroke-miterlimit="10"/>
<path d="M151.39 76.5812C150.912 75.8664 150.313 75.2402 149.62 74.7311L133.41 62.6211L103.98 40.6211L87.7998 70.3711L92.3698 103.941L147.37 87.6111C148.267 87.3544 149.105 86.9265 149.84 86.3511C150.199 86.096 150.534 85.8081 150.84 85.4911C151.635 84.6061 152.199 83.5375 152.48 82.3811C152.534 82.214 152.577 82.0436 152.61 81.8711C152.945 80.0136 152.536 78.0989 151.47 76.5411L151.39 76.5812Z" fill="#FF5758" stroke="black" stroke-width="2" stroke-miterlimit="10"/>
<path d="M118.452 75.8958C121.759 57.2938 110.731 39.7769 93.8196 36.7707C76.9087 33.7645 60.519 46.4074 57.2122 65.0094C53.9053 83.6114 64.9336 101.128 81.8445 104.135C98.7555 107.141 115.145 94.4978 118.452 75.8958Z" fill="#FF5758" stroke="black" stroke-width="2" stroke-miterlimit="10"/>
<path d="M108.466 73.797C111.029 59.3819 103.042 45.9073 90.6284 43.7005C78.2143 41.4937 66.0735 51.3904 63.511 65.8054C60.9484 80.2205 68.9346 93.6952 81.3487 95.902C93.7627 98.1088 105.904 88.2121 108.466 73.797Z" fill="#F1F0F4" stroke="black" stroke-width="2" stroke-miterlimit="10"/>
<path d="M87.4799 61.1523L152.23 63.4123L143.59 99.3223L84.4199 78.3523L87.4799 61.1523Z" fill="white" stroke="black" stroke-width="2" stroke-miterlimit="10"/>
<path d="M78.52 68.4307C77.68 73.1807 80.31 77.6306 84.4 78.3506C88.49 79.0706 92.5 75.8207 93.34 71.0707C94.18 66.3207 91.55 61.8706 87.46 61.1506C83.37 60.4306 79.39 63.6807 78.52 68.4307Z" fill="#FF5758" stroke="black" stroke-width="2" stroke-miterlimit="10"/>
<path d="M120.73 95.9008C115.93 99.4608 114.5 107.141 120.4 110.821C122.58 112.181 125.88 112.891 128.34 111.881C130.07 111.136 131.436 109.738 132.14 107.991C133.26 105.251 133.7 100.911 132.14 98.2808C130.58 95.6508 127.42 93.5208 124.23 94.2808C122.965 94.5758 121.773 95.1272 120.73 95.9008Z" fill="#73EBE0" stroke="black" stroke-width="1.88" stroke-miterlimit="10"/>
<path d="M12 29.2385L36.6801 51.6185L38.52 41.8785L58.52 50.6886C58.52 50.6886 32.39 26.3686 32.52 27.6886C32.65 29.0086 30.05 35.5085 30.05 35.5085L12 29.2385Z" fill="#FFD15E"/>
<path d="M23.3901 81.3708L43.4801 80.7109L41.0802 76.4609L54.1802 72.4609C54.1802 72.4609 32.7102 72.9308 33.1802 73.3608C33.6502 73.7908 34.6001 77.1309 34.6001 77.1309L23.3901 81.3708Z" fill="#FFD15E"/>
</g>
<defs>
<clipPath id="clip0_948_46676">
<rect width="208.74" height="116.17" fill="white" transform="translate(12 12)"/>
</clipPath>
</defs>
</svg>
