<svg width="111" height="117" viewBox="0 0 111 117" fill="none" xmlns="http://www.w3.org/2000/svg">
<g clip-path="url(#clip0_997_38351)">
<path d="M78.9849 72.9447L70.0188 81.9109C67.1758 84.7539 67.1758 89.3633 70.0188 92.2063L86.4449 108.632C89.2879 111.475 93.8974 111.475 96.7404 108.632L105.707 99.6663C108.55 96.8233 108.55 92.2138 105.707 89.3708L89.2804 72.9447C86.4374 70.1017 81.828 70.1017 78.9849 72.9447Z" fill="#73EBE0"/>
<path d="M70.7899 82.1492L77.6899 75.2492C78.5792 74.2482 79.5491 73.3217 80.5899 72.4792C81.7948 71.625 83.2676 71.2346 84.7375 71.3798C86.2073 71.5249 87.5753 72.1959 88.5899 73.2692C93.4599 77.9792 98.1799 82.8692 102.98 87.6592C103.63 88.3092 104.3 88.9592 104.98 89.6592C105.973 90.6598 106.641 91.9368 106.896 93.3232C107.151 94.7096 106.982 96.1407 106.41 97.4292C105.669 98.7829 104.682 99.9868 103.5 100.979L99.1399 105.339C98.1399 106.339 97.1399 107.339 96.1399 108.339C95.1163 109.402 93.7438 110.06 92.2743 110.192C90.8047 110.324 89.3368 109.922 88.1399 109.059C86.0699 107.549 84.3299 105.359 82.5299 103.569L73.7299 94.7592C71.3799 92.4092 68.6499 90.2392 68.9099 86.5292C69.0452 84.8806 69.7527 83.3312 70.9099 82.1492C71.5099 81.5192 69.7899 81.2192 69.3499 81.6892C68.2479 82.8104 67.514 84.2409 67.246 85.79C66.978 87.339 67.1886 88.933 67.8499 90.3592C68.4889 91.5239 69.3246 92.5693 70.3199 93.4492L78.9799 102.109C81.2399 104.369 83.4599 106.669 85.7599 108.879C86.7033 109.792 87.8448 110.475 89.0955 110.874C90.3462 111.273 91.6721 111.377 92.9699 111.179C95.015 110.818 96.8806 109.783 98.2699 108.239C100.98 105.529 103.7 102.829 106.4 100.109C109.75 96.7192 109.4 91.9492 106.16 88.6592C100.81 83.4392 95.5999 78.1892 90.3499 72.9992C89.5568 72.1814 88.6099 71.5282 87.5636 71.0773C86.5174 70.6265 85.3923 70.3867 84.2531 70.3718C83.114 70.357 81.9831 70.5673 80.9254 70.9907C79.8677 71.4141 78.9041 72.0423 78.0899 72.8392C75.3899 75.4992 72.7399 78.1992 70.0899 80.8392L69.2599 81.6792C68.6199 82.2992 70.3399 82.5992 70.7899 82.1492Z" fill="black"/>
<path d="M69.4093 72.629L79.9993 83.259L96.9993 100.259L100.909 104.159C101.349 104.609 102.389 105.089 101.509 104.159L90.8793 93.539L73.8793 76.539L69.9993 72.669C69.5493 72.219 68.5193 71.739 69.3993 72.669L69.4093 72.629Z" fill="black"/>
<path d="M92.1797 76.8619L75.3197 93.7219L72.9197 96.1219C72.7697 96.2719 73.5397 96.1919 73.5797 96.1819C73.9394 96.1543 74.285 96.0299 74.5797 95.8219L91.4897 79.0019L93.8897 76.6019C94.0397 76.4519 93.2597 76.5319 93.2297 76.5419C92.8708 76.5729 92.5261 76.697 92.2297 76.9019L92.1797 76.8619Z" fill="black"/>
<path d="M101.23 85.0892L84.3705 101.999L81.9705 104.399C81.3005 105.069 82.7905 106.049 83.3905 105.449L100.25 88.5392L102.65 86.1392C103.32 85.4692 101.83 84.4892 101.23 85.1392V85.0892Z" fill="black"/>
<path d="M42.3692 41.8281L37.6092 37.0581L36.9292 36.3881C36.7545 36.2523 36.5435 36.1713 36.3228 36.1553C36.1021 36.1393 35.8816 36.189 35.6892 36.2981C35.3592 36.4681 35.1492 36.8581 35.4492 37.1581L40.2192 41.9281L40.8992 42.5981C41.0738 42.7339 41.2848 42.815 41.5055 42.831C41.7262 42.847 41.9467 42.7973 42.1392 42.6881C42.4692 42.5181 42.6792 42.1281 42.3692 41.8281Z" fill="black"/>
<path d="M13.9576 5.57365L4.99149 14.5398C2.14847 17.3828 2.14847 21.9922 4.99149 24.8352L21.4176 41.2613C24.2606 44.1043 28.87 44.1043 31.7131 41.2613L40.6792 32.2952C43.5222 29.4522 43.5222 24.8428 40.6792 21.9997L24.2531 5.57365C21.4101 2.73063 16.8006 2.73063 13.9576 5.57365Z" fill="#73EBE0"/>
<path d="M39.9999 32.2402L33.0999 39.1402C32.2282 40.1085 31.2892 41.0141 30.2899 41.8502C27.7299 43.7602 24.2899 42.9502 22.1799 40.8502C17.2799 36.1202 12.5399 31.2102 7.71993 26.4002C7.08993 25.7602 6.43993 25.1402 5.81993 24.4902C4.82376 23.484 4.14635 22.2065 3.87244 20.8173C3.59853 19.4282 3.74027 17.9892 4.27993 16.6802C5.02993 15.2693 6.04914 14.0191 7.27993 13.0002L11.6099 8.64017C12.6099 7.64017 13.6099 6.64017 14.6099 5.64017C15.7143 4.55622 17.1879 3.93009 18.7348 3.88743C20.2817 3.84477 21.7874 4.38874 22.9499 5.41017C24.9499 7.03017 26.6399 9.05017 28.4399 10.8502L37.2099 19.6202C39.6199 22.0302 42.3699 24.3102 41.9399 28.1302C41.755 29.7096 41.0516 31.1831 39.9399 32.3202C39.6499 32.6302 40.2399 32.6902 40.3999 32.6902C40.8279 32.6793 41.2341 32.4996 41.5299 32.1902C42.6471 31.0485 43.3768 29.5843 43.6155 28.0049C43.8542 26.4255 43.5898 24.811 42.8599 23.3902C42.2095 22.3354 41.4076 21.3818 40.4799 20.5602L31.6799 11.8502C29.4699 9.64017 27.3099 7.40017 25.0699 5.24017C24.1064 4.31625 22.929 3.64545 21.6429 3.28772C20.3568 2.92999 19.0021 2.89647 17.6999 3.19017C15.7357 3.6585 13.9562 4.7032 12.5899 6.19017C9.88993 8.89017 7.16993 11.5802 4.47993 14.3002C3.60259 15.124 2.92697 16.139 2.50553 17.2663C2.0841 18.3936 1.92819 19.6028 2.04993 20.8002C2.32405 22.6707 3.24383 24.3865 4.64993 25.6502C9.87993 30.8702 15.0899 36.1202 20.3299 41.3302C21.9628 42.9233 24.1606 43.8042 26.4418 43.7799C28.723 43.7555 30.9015 42.8278 32.4999 41.2002C35.1899 38.5502 37.8499 35.8402 40.4999 33.2002L41.3399 32.3602C41.9999 31.6702 40.3299 31.9002 39.9999 32.2402Z" fill="black"/>
<path d="M36.9294 36.3189L13.5294 12.9089L10.2094 9.59892C9.86944 9.24892 8.30944 10.0889 8.72944 10.5089L32.1294 33.9089L35.4494 37.2289C35.7894 37.5689 37.3494 36.7289 36.9294 36.3189Z" fill="black"/>
<path d="M18.2506 38.1595L35.1106 21.2995L37.5106 18.8995C38.1006 18.3095 36.9006 16.9795 36.3206 17.5695L19.4506 34.4295L17.0506 36.8295C16.4606 37.4195 17.6706 38.7495 18.2506 38.1595Z" fill="black"/>
<path d="M9.45072 29.1212L26.3107 12.2612L28.7107 9.86125C29.3207 9.24125 27.8407 8.27125 27.3107 8.80125L10.4407 25.6612L8.05073 28.0612C7.43073 28.6712 8.92072 29.6512 9.45072 29.1212Z" fill="black"/>
<path d="M43.6208 92.6009C55.8097 92.6009 65.6908 82.7199 65.6908 70.5309C65.6908 58.342 55.8097 48.4609 43.6208 48.4609C31.4319 48.4609 21.5508 58.342 21.5508 70.5309C21.5508 82.7199 31.4319 92.6009 43.6208 92.6009Z" fill="#FFB15E"/>
<path d="M51.2492 31.6903L28.0137 54.9258L59.2254 86.1375L82.4609 62.9019L51.2492 31.6903Z" fill="#FFB15E"/>
<path d="M48.2009 88.0306C60.3898 88.0306 70.2709 78.1496 70.2709 65.9606C70.2709 53.7717 60.3898 43.8906 48.2009 43.8906C36.0119 43.8906 26.1309 53.7717 26.1309 65.9606C26.1309 78.1496 36.0119 88.0306 48.2009 88.0306Z" fill="#330315"/>
<path d="M52.2907 83.9291C64.4796 83.9291 74.3607 74.048 74.3607 61.8591C74.3607 49.6701 64.4796 39.7891 52.2907 39.7891C40.1018 39.7891 30.2207 49.6701 30.2207 61.8591C30.2207 74.048 40.1018 83.9291 52.2907 83.9291Z" fill="#FFB15E"/>
<path d="M56.4899 79.7416C68.6788 79.7416 78.5599 69.8605 78.5599 57.6716C78.5599 45.4826 68.6788 35.6016 56.4899 35.6016C44.301 35.6016 34.4199 45.4826 34.4199 57.6716C34.4199 69.8605 44.301 79.7416 56.4899 79.7416Z" fill="#330315"/>
<path d="M60.5798 75.64C72.7687 75.64 82.6498 65.7589 82.6498 53.57C82.6498 41.3811 72.7687 31.5 60.5798 31.5C48.3908 31.5 38.5098 41.3811 38.5098 53.57C38.5098 65.7589 48.3908 75.64 60.5798 75.64Z" fill="#FFB15E"/>
<path d="M66.8591 69.3705C79.048 69.3705 88.9291 59.4894 88.9291 47.3005C88.9291 35.1115 79.048 25.2305 66.8591 25.2305C54.6701 25.2305 44.7891 35.1115 44.7891 47.3005C44.7891 59.4894 54.6701 69.3705 66.8591 69.3705Z" fill="#FFB15E"/>
<path d="M59.4197 86.9083L80.3697 65.9983C81.2197 65.1483 82.0797 64.3083 82.9197 63.4383C86.059 60.1371 88.1473 55.9779 88.9197 51.4883C89.7291 47.0111 89.2141 42.395 87.4377 38.2063C85.6613 34.0177 82.7009 30.4386 78.9197 27.9083C75.109 25.487 70.6574 24.2694 66.1449 24.4139C61.6323 24.5583 57.2678 26.0582 53.6197 28.7183C50.2397 31.2283 47.3597 34.6383 44.3897 37.6083L31.3197 50.6583C30.1997 51.7783 29.0697 52.8883 27.9997 53.9983C25.4248 56.5572 23.4921 59.6892 22.3597 63.1383C20.9641 67.4208 20.8242 72.0134 21.9566 76.3729C23.089 80.7324 25.4463 84.6764 28.7497 87.7383C32.1197 90.7441 36.3181 92.6632 40.7962 93.2448C45.2743 93.8264 49.8237 93.0435 53.8497 90.9983C55.9032 89.9213 57.7812 88.5389 59.4197 86.8983C59.7797 86.5483 59.5597 84.8283 59.0297 85.3583C55.8167 88.5018 51.7214 90.5908 47.2904 91.3466C42.8593 92.1024 38.3031 91.489 34.2297 89.5883C31.1336 88.1972 28.4245 86.0702 26.3385 83.3926C24.2524 80.715 22.8526 77.568 22.2611 74.2256C21.6695 70.8833 21.9041 67.447 22.9444 64.2161C23.9847 60.9851 25.7991 58.0575 28.2297 55.6883C28.9997 54.8983 29.7897 54.1183 30.5697 53.3383L42.4497 41.4583C45.3997 38.4583 48.3397 35.5383 51.3097 32.6083C54.1103 29.8068 57.6114 27.8084 61.4478 26.8216C65.2841 25.8348 69.315 25.8958 73.1197 26.9983C77.5382 28.3164 81.4183 31.015 84.1915 34.6988C86.9646 38.3825 88.485 42.8576 88.5297 47.4683C88.4722 51.987 86.9452 56.3642 84.1797 59.9383C83.1414 61.2214 82.0189 62.4341 80.8197 63.5683L59.5997 84.7983L59.0297 85.3683C58.6697 85.7183 58.8897 87.4383 59.4197 86.9083Z" fill="black"/>
<path d="M60.3691 45.4688C60.6481 47.4423 61.5605 49.2719 62.969 50.6822C64.3775 52.0925 66.2059 53.0072 68.1791 53.2887" stroke="black" stroke-width="2.24" stroke-miterlimit="10"/>
<path d="M61.6792 42.3386C61.4006 42.6209 61.0443 42.814 60.6556 42.8932C60.2669 42.9725 59.8635 42.9344 59.4965 42.7838C59.1295 42.6332 58.8156 42.3769 58.5947 42.0474C58.3738 41.718 58.2559 41.3303 58.2559 40.9336C58.2559 40.5369 58.3738 40.1492 58.5947 39.8198C58.8156 39.4903 59.1295 39.234 59.4965 39.0834C59.8635 38.9328 60.2669 38.8947 60.6556 38.9739C61.0443 39.0532 61.4006 39.2463 61.6792 39.5286C62.0487 39.9029 62.2559 40.4077 62.2559 40.9336C62.2559 41.4595 62.0487 41.9643 61.6792 42.3386Z" fill="black"/>
<path d="M73.9995 54.6902C73.7209 54.9725 73.3646 55.1655 72.9759 55.2448C72.5872 55.3241 72.1838 55.286 71.8168 55.1354C71.4498 54.9848 71.136 54.7285 70.915 54.399C70.6941 54.0695 70.5762 53.6818 70.5762 53.2852C70.5762 52.8885 70.6941 52.5008 70.915 52.1713C71.136 51.8419 71.4498 51.5855 71.8168 51.4349C72.1838 51.2843 72.5872 51.2462 72.9759 51.3255C73.3646 51.4048 73.7209 51.5979 73.9995 51.8802C74.369 52.2545 74.5762 52.7592 74.5762 53.2852C74.5762 53.8111 74.369 54.3159 73.9995 54.6902Z" fill="black"/>
<path d="M74.2295 29.8985L76.4994 18.3185C76.6568 17.7029 77.0436 17.1708 77.5805 16.8311C78.1175 16.4914 78.764 16.3698 79.3876 16.4912C80.0113 16.6126 80.565 16.9678 80.9353 17.4842C81.3056 18.0005 81.4645 18.6388 81.3794 19.2685C81.3368 19.4866 81.2662 19.6984 81.1694 19.8985L75.9295 30.4785C75.8277 30.669 75.6616 30.817 75.4607 30.8963C75.2598 30.9755 75.0373 30.9807 74.833 30.911C74.6286 30.8413 74.4557 30.7011 74.3451 30.5157C74.2346 30.3302 74.1936 30.1114 74.2295 29.8985Z" fill="black"/>
<path d="M82.6294 37.0999L93.9995 32.5199C94.6011 32.3181 95.2571 32.3536 95.8335 32.6192C96.4098 32.8848 96.863 33.3604 97.1005 33.949C97.3379 34.5375 97.3417 35.1944 97.1111 35.7857C96.8804 36.3769 96.4327 36.8577 95.8595 37.1299C95.6595 37.2065 95.4515 37.2602 95.2394 37.2899L83.0795 38.8299C82.8611 38.86 82.6393 38.8089 82.4561 38.6863C82.273 38.5637 82.1411 38.3782 82.0856 38.1649C82.0301 37.9516 82.0549 37.7253 82.1551 37.529C82.2553 37.3327 82.4241 37.18 82.6294 37.0999Z" fill="black"/>
</g>
<defs>
<clipPath id="clip0_997_38351">
<rect width="111" height="117" fill="white"/>
</clipPath>
</defs>
</svg>
