<svg width="173" height="173" viewBox="0 0 173 173" fill="none" xmlns="http://www.w3.org/2000/svg">
<g clip-path="url(#clip0_948_46703)">
<path d="M130.642 128.278C130.223 129.276 129.566 130.156 128.728 130.841C127.901 131.532 126.954 132.064 125.935 132.411C124.911 132.765 123.828 132.915 122.747 132.854C121.655 132.807 120.596 132.464 119.683 131.863L122.574 131.058C123.5 130.811 124.332 130.561 125.196 130.239C126.061 129.918 126.918 129.629 127.802 129.295C128.687 128.96 129.585 128.645 130.642 128.278Z" fill="#00B8A1"/>
<path d="M55.0953 115.918C53.9259 116.371 52.6273 116.355 51.4699 115.874C50.2743 115.375 49.2621 114.519 48.572 113.422C47.8988 112.354 47.5235 111.125 47.4849 109.863C47.4251 108.639 47.762 107.428 48.4455 106.411C48.6393 107.481 48.9122 108.534 49.2621 109.562C49.5772 110.485 49.9971 111.368 50.5136 112.194C51.0081 113.002 51.6281 113.726 52.3504 114.339C53.1894 114.988 54.1129 115.519 55.0953 115.918Z" fill="#00B8A1"/>
<path d="M136.508 129.645C135.591 131.139 134.403 132.447 133.005 133.503C131.607 134.57 130.055 135.417 128.402 136.013C126.742 136.628 124.992 136.968 123.223 137.017C121.463 137.094 119.707 136.785 118.079 136.112C119.812 135.855 121.429 135.608 123.005 135.229C124.567 134.863 126.107 134.405 127.616 133.858C129.128 133.301 130.609 132.664 132.054 131.951C133.526 131.244 134.962 130.458 136.508 129.645Z" fill="#00B8A1"/>
<path d="M63.4549 113.453C61.6407 114.054 59.6716 113.985 57.9049 113.257C56.1065 112.523 54.5367 111.322 53.3581 109.777C52.1732 108.252 51.3912 106.452 51.0841 104.545C50.7535 102.669 51.0766 100.737 51.9991 99.0711C51.9709 100.789 52.2582 102.497 52.8466 104.11C53.3914 105.645 54.1762 107.084 55.1717 108.373C56.164 109.668 57.3734 110.781 58.746 111.662C60.1849 112.558 61.7841 113.167 63.4549 113.453Z" fill="#00B8A1"/>
<path d="M81.5698 96.3379C79.9396 94.0447 75.6221 92.8712 73.4889 92.3075C69.5883 91.2674 64.6779 90.9815 61.2397 93.4799C59.7607 94.6013 58.6026 96.0927 57.8818 97.8041C57.161 99.5155 56.9028 101.387 57.1334 103.229C57.2967 104.069 57.6358 104.866 58.1286 105.565C58.6213 106.265 59.2565 106.852 59.9923 107.288C60.7281 107.724 61.5478 107.999 62.3976 108.095C63.2474 108.191 64.108 108.105 64.9226 107.844C65.7694 107.549 66.4879 106.969 66.9554 106.203C67.4229 105.437 67.6105 104.533 67.4861 103.644C67.6798 104.49 70.3922 103.945 70.9311 103.877C73.7938 103.486 78.6017 101.283 81.1785 99.824C83.1689 98.6944 83.0719 98.4548 81.5698 96.3379Z" fill="#FF5758" stroke="black" stroke-width="1.34" stroke-miterlimit="10"/>
<path d="M67.4823 104.877C67.7175 103.011 67.0576 101.285 66.5898 99.4785" stroke="black" stroke-width="1.34" stroke-miterlimit="10"/>
<path d="M102.399 108.377C102.195 108.473 101.989 108.578 101.789 108.693C96.408 111.613 90.4825 117.794 90.534 125.804C90.5634 130.299 92.7475 134.243 95.861 135.367C98.8445 136.446 102.925 132.913 103.799 128.481C104.286 126.215 103.524 123.828 101.948 123.436C102.441 123.542 104.743 119.662 105.099 119.065C106.071 117.359 106.764 115.508 107.152 113.582C107.348 112.853 107.454 112.103 107.466 111.348C107.462 110.787 107.363 110.23 107.173 109.702C106.342 107.108 104.409 107.401 102.399 108.377Z" fill="#FF5758" stroke="black" stroke-width="1.34" stroke-miterlimit="10"/>
<path d="M102.905 124.029C101.581 122.869 99.8486 122.759 98.2008 122.457" stroke="black" stroke-width="1.34" stroke-miterlimit="10"/>
<path d="M118.278 94.555L118.31 94.6495C119.367 97.8607 115.656 100.204 113.008 101.385C111.342 102.217 109.512 102.663 107.651 102.692C105.612 102.621 103.909 101.441 103.77 99.4858C103.608 97.1496 105.717 95.1442 107.688 94.1066C109.773 92.8961 112.115 92.2 114.521 92.0757C115.324 92.061 116.113 92.2899 116.783 92.7324C117.454 93.1749 117.975 93.8102 118.278 94.555Z" fill="#FF5758" stroke="black" stroke-width="1.34" stroke-miterlimit="10"/>
<path d="M112.465 95.2133C112.987 94.9749 113.535 94.7991 114.098 94.6894L112.465 95.2133Z" fill="#73EBE0"/>
<path d="M112.465 95.2133C112.987 94.9749 113.535 94.7991 114.098 94.6894" stroke="white" stroke-width="2.01" stroke-miterlimit="10" stroke-linecap="round"/>
<path d="M102.031 92.3285C104.673 94.131 106.744 96.6533 108 99.5975C108.541 100.973 108.781 102.448 108.705 103.925C108.629 105.401 108.237 106.844 107.557 108.157C105.754 111.505 101.98 113.249 97.8186 113.177C89.5917 113.035 78.7838 106.773 77.3877 98.4749C77.0463 96.3868 77.4179 94.244 78.4424 92.3925C82.5386 84.8028 94.4618 86.7717 102.031 92.3285Z" fill="#FF5758" stroke="black" stroke-width="1.34" stroke-miterlimit="10"/>
<path d="M88.6582 82.2781L88.7063 82.4197C90.5117 87.2708 87.7139 89.6356 85.5797 90.6205C84.8832 90.9987 84.1186 91.2345 83.3304 91.3144C82.5422 91.3943 81.7461 91.3166 80.9884 91.0858C79.1059 90.4535 77.2118 88.331 76.6031 85.5137C75.8499 82.149 77.2629 79.8451 78.8069 78.8821C79.6254 78.2835 80.5638 77.8698 81.5572 77.6695C82.5507 77.4692 83.5755 77.487 84.5612 77.7218C86.1079 78.1682 87.8096 80.0479 88.6582 82.2781Z" fill="#FF5758" stroke="black" stroke-width="1.34" stroke-miterlimit="10"/>
<path d="M81.3869 64.0784C82.4302 63.9127 83.4186 63.4979 84.2683 62.869C87.497 60.4919 89.3466 56.5231 90.2127 53.349C91.9011 47.1229 91.8293 39.1268 85.1764 35.526C84.15 34.9307 83.0081 34.5624 81.8274 34.4459C80.6468 34.3293 79.4547 34.4673 78.3313 34.8504C70.2658 37.4125 70.5994 46.0599 71.1301 51.1094C71.3624 53.3502 71.8494 55.5571 72.5817 57.687C73.2807 59.7187 74.0902 61.6429 76.0859 63.0084C77.6569 64.0159 79.548 64.3976 81.3869 64.0784Z" fill="#FF5758" stroke="black" stroke-width="1.34" stroke-miterlimit="10"/>
<path d="M74.732 44.5531C74.7449 42.4207 75.579 40.1674 77.1743 39.2503" stroke="white" stroke-width="2.69" stroke-linecap="round" stroke-linejoin="round"/>
<path d="M77.0014 56.9581C79.5658 57.4562 82.0066 58.4553 84.1847 59.8984C86.3628 61.3415 88.2354 63.2004 89.6955 65.3687C91.1555 67.5371 92.1744 69.9725 92.6941 72.5358C93.2137 75.0992 93.2239 77.7402 92.724 80.3081C92.2239 82.8759 91.2236 85.3202 89.7801 87.5014C88.3367 89.6826 86.4784 91.558 84.3114 93.0204C82.1444 94.4827 79.7113 95.5033 77.1509 96.0241C74.5904 96.5449 71.9528 96.5555 69.3889 96.0554L56.4483 93.5351C51.2705 92.5271 46.7055 89.5012 43.7572 85.1225C40.8088 80.7438 39.7185 75.371 40.7258 70.1851C41.2258 67.6173 42.2261 65.1729 43.6695 62.9917C45.113 60.8105 46.9713 58.9353 49.1382 57.4729C51.3052 56.0106 53.7384 54.9898 56.2988 54.4691C58.8592 53.9483 61.4968 53.9377 64.0607 54.4379L77.0014 56.9581Z" fill="#FF5758" stroke="black" stroke-width="1.34" stroke-miterlimit="10"/>
<path d="M67.1827 61.0925C61.4253 58.813 56.988 59.1714 54.767 61.0478" stroke="white" stroke-width="4.03" stroke-linecap="round" stroke-linejoin="round"/>
<path d="M50.4514 64.9004C50.1903 65.2205 49.934 65.5593 49.6962 65.8932" stroke="white" stroke-width="4.03" stroke-linecap="round" stroke-linejoin="round"/>
<path d="M37.4505 73.0668C35.4944 71.5173 35.1753 68.3685 36.7243 66.0414C38.2733 63.7143 41.1112 63.0732 43.0572 64.6293C45.0032 66.1853 45.3407 69.3294 43.7917 71.6565C42.2428 73.9836 39.3965 74.6229 37.4505 73.0668Z" fill="#FF5758" stroke="black" stroke-width="1.34" stroke-miterlimit="10"/>
<path d="M41.6618 67.3311L38.1641 70.228" stroke="black" stroke-width="1.34" stroke-miterlimit="10"/>
<path d="M41.1686 71.0487L38.6582 66.5098" stroke="black" stroke-width="1.34" stroke-miterlimit="10"/>
<path d="M85.3056 63.2405C86.3252 63.5178 87.396 63.5502 88.4309 63.335C92.3489 62.5062 95.6736 59.6421 97.7616 57.1246C101.871 52.1542 105.112 44.8443 100.546 38.8132C99.8595 37.8418 98.972 37.0299 97.9439 36.4328C96.9158 35.8357 95.7712 35.4675 94.588 35.3531C86.1896 34.3434 82.9181 42.3643 81.3158 47.1739C80.5899 49.3085 80.1143 51.5203 79.8986 53.7646C79.6929 55.8993 79.627 57.994 80.8868 60.0588C81.9083 61.6375 83.4857 62.7733 85.3056 63.2405Z" fill="#FF5758" stroke="black" stroke-width="1.34" stroke-miterlimit="10"/>
<path d="M86.5168 46.0694C86.8357 44.099 88.9096 40.7123 90.9813 39.5302" stroke="white" stroke-width="2.69" stroke-linecap="round" stroke-linejoin="round"/>
<path d="M83.8594 98.1685L83.2196 98.2584C77.5895 99.1654 70.9091 102.682 69.5972 109.514C68.8689 113.348 70.2813 117.344 73.0588 119.219C75.7235 121.008 80.219 119.201 81.7972 115.681C82.6028 113.886 82.3157 111.645 80.8797 110.846C81.3317 111.101 84.1907 108.452 84.6255 108.055C85.8425 106.906 86.8309 105.535 87.5384 104.017C87.8438 103.445 88.072 102.835 88.217 102.203C88.3053 101.711 88.3042 101.207 88.2137 100.715C87.8427 98.255 85.9373 97.9328 83.8594 98.1685Z" fill="#FF5758" stroke="black" stroke-width="1.34" stroke-miterlimit="10"/>
<path d="M73.0982 112.244C72.3231 110.484 72.8762 108.197 74.0565 106.324" stroke="white" stroke-width="2.69" stroke-linecap="round" stroke-linejoin="round"/>
<path d="M81.6977 111.635C80.6323 110.251 78.9956 109.654 77.4766 108.916" stroke="black" stroke-width="1.34" stroke-miterlimit="10"/>
<path d="M102.856 111.136C102.882 111.378 102.919 111.614 102.964 111.851C104.069 118.214 108.15 125.646 115.848 126.986C120.16 127.738 124.634 126.075 126.688 122.903C128.668 119.828 126.55 114.849 122.567 113.135C120.537 112.252 118.028 112.623 117.153 114.254C117.42 113.743 114.399 110.564 113.956 110.067C112.648 108.728 111.103 107.645 109.4 106.873C108.754 106.53 108.063 106.282 107.348 106.134C106.794 106.051 106.23 106.062 105.68 106.169C102.875 106.66 102.539 108.828 102.856 111.136Z" fill="#FF5758" stroke="black" stroke-width="1.34" stroke-miterlimit="10"/>
<path d="M118.855 122.996C116.911 123.908 114.311 123.322 112.204 122.029" stroke="white" stroke-width="2.69" stroke-linecap="round" stroke-linejoin="round"/>
<path d="M118.025 113.322C116.477 114.547 115.842 116.406 115.034 118.131" stroke="black" stroke-width="1.34" stroke-miterlimit="10"/>
</g>
<defs>
<clipPath id="clip0_948_46703">
<rect width="111.908" height="98.7427" fill="white" transform="translate(44.7598 24) rotate(12.1362)"/>
</clipPath>
</defs>
</svg>
