<svg width="487" height="305" viewBox="0 0 487 305" fill="none" xmlns="http://www.w3.org/2000/svg">
<path d="M115.692 194.829C118.153 191.751 118.628 196.421 117.136 193.025C112.998 183.636 110.285 173.118 110.285 162.831C110.285 135.773 132.309 113.83 159.488 113.83C186.667 113.83 208.691 135.764 208.691 162.831C208.691 168.264 207.674 173.668 206.133 178.869C205.348 181.513 204.418 184.108 203.372 186.666C202.461 188.875 201.056 191.066 200.484 193.382C200.116 194.887 199.428 196.306 199.118 197.821C198.701 199.905 199.67 201.719 201.23 203.012" fill="#73EBE0"/>
<path d="M115.916 195.715C116.391 195.155 116.71 194.914 117.379 194.75C117.456 194.731 117.602 194.895 117.631 194.885C117.786 194.817 117.96 193.38 117.902 193.167C117.689 192.357 117.088 191.469 116.768 190.687C116.323 189.616 115.887 188.526 115.489 187.435C113.804 182.9 112.486 178.21 111.672 173.443C110.315 165.483 110.354 157.367 112.641 149.59C116.526 136.341 126.293 125.215 138.831 119.386C151.369 113.558 167.173 113.374 180.128 119.386C193.083 125.398 202.443 136.341 206.318 149.59C208.653 157.56 208.731 165.878 206.88 173.965C205.795 178.712 204.293 183.489 202.142 187.87C201.629 188.912 201.096 189.944 200.679 191.025C200.262 192.106 200.02 193.187 199.662 194.258C199.042 196.082 198.354 197.886 198.654 199.845C198.916 201.524 199.846 202.894 201.115 203.994C201.532 204.361 201.861 202.441 201.357 202.006C200.505 201.273 199.691 200.318 199.516 199.169C199.323 197.857 200.069 196.429 200.476 195.213C200.883 193.997 201.154 192.839 201.658 191.691C202.162 190.543 202.743 189.481 203.256 188.362C205.408 183.73 206.929 178.674 207.956 173.685C209.671 165.347 209.506 156.74 207.103 148.557C202.995 134.526 192.666 122.715 179.188 116.877C165.71 111.039 149.122 111.589 135.866 118.769C123.009 125.736 113.687 138.377 110.829 152.677C109.085 161.391 109.753 170.404 111.808 179.002C112.961 183.846 114.569 188.584 116.546 193.158C116.72 193.563 117.427 195.811 118.193 195.213C118.784 194.76 118.396 193.283 117.863 192.897C116.962 192.241 115.984 193.312 115.451 193.939C115.073 194.383 115.373 196.361 115.906 195.724L115.916 195.715Z" fill="black"/>
<path d="M169.828 116.095L180.128 106.436L180.981 106.831L181.029 120.051" fill="#73EBE0"/>
<path d="M169.828 116.095L180.128 106.436L180.981 106.831L181.029 120.051" stroke="black" stroke-width="2.13" stroke-miterlimit="10"/>
<path d="M185.498 108.354C184.286 110.94 181.205 112.069 178.599 110.863C176.002 109.657 174.868 106.588 176.079 103.993C177.291 101.406 180.372 100.277 182.978 101.484C185.585 102.69 186.709 105.758 185.498 108.354Z" fill="#73EBE0" stroke="black" stroke-width="2.13" stroke-miterlimit="10"/>
<path d="M180.138 108.643L179.421 108.15L172.047 115.503L179.924 114.239L180.138 108.643Z" fill="#73EBE0"/>
<path d="M126.437 193.878C125.905 194.244 125.585 194.852 125.449 195.479C125.314 196.107 125.352 196.753 125.43 197.39C125.546 198.384 125.75 199.378 126.176 200.285C126.912 201.848 128.395 202.427 129.16 203.942C129.955 205.505 130.614 207.136 131.951 208.333C134.015 210.186 136.737 211.17 139.499 211.17C143.801 211.17 147.502 208.921 149.198 205.698C150.894 208.931 154.595 211.17 158.897 211.17C163.199 211.17 166.901 208.921 168.596 205.698C170.292 208.931 173.993 211.17 178.295 211.17C181.958 211.17 185.194 209.539 187.122 207.069C186.977 207.271 191.347 208.893 191.754 208.979C194.612 209.636 197.674 209.829 200.552 209.134C206.589 207.667 211.162 201.086 207.17 196.02C205.833 194.322 203.197 193.144 200.833 193.598" fill="#73EBE0"/>
<path d="M126.437 193.878C125.905 194.244 125.585 194.852 125.449 195.479C125.314 196.107 125.352 196.753 125.43 197.39C125.546 198.384 125.75 199.378 126.176 200.285C126.912 201.848 128.395 202.427 129.16 203.942C129.955 205.505 130.614 207.136 131.951 208.333C134.015 210.186 136.737 211.17 139.499 211.17C143.801 211.17 147.502 208.921 149.198 205.698C150.894 208.931 154.595 211.17 158.897 211.17C163.199 211.17 166.901 208.921 168.596 205.698C170.292 208.931 173.993 211.17 178.295 211.17C181.958 211.17 185.194 209.539 187.122 207.069C186.977 207.271 191.347 208.893 191.754 208.979C194.612 209.636 197.674 209.829 200.552 209.134C206.589 207.667 211.162 201.086 207.17 196.02C205.833 194.322 203.197 193.144 200.833 193.598" stroke="black" stroke-width="1.88" stroke-miterlimit="10"/>
<path d="M144.005 148.834C143.569 151.266 141.234 152.887 138.792 152.453C136.35 152.018 134.723 149.693 135.159 147.261C135.595 144.83 137.93 143.208 140.371 143.643C142.813 144.077 144.441 146.402 144.005 148.834Z" fill="black"/>
<path d="M163.694 152.461C163.258 154.893 160.923 156.514 158.482 156.08C156.04 155.645 154.412 153.32 154.848 150.888C155.284 148.456 157.619 146.835 160.061 147.27C162.503 147.704 164.13 150.029 163.694 152.461Z" fill="black"/>
<path d="M144.084 178.093C137.466 176.925 133.164 169.987 134.482 162.596C135.799 155.204 142.233 150.177 148.851 151.344C155.469 152.512 159.771 159.45 158.453 166.842C157.135 174.224 150.702 179.261 144.084 178.093Z" fill="white" stroke="black" stroke-width="2.13" stroke-miterlimit="10"/>
<path d="M145.926 169.667C143.726 169.281 142.35 166.666 142.854 163.829C143.358 160.992 145.557 159.014 147.757 159.41C149.956 159.796 151.332 162.411 150.828 165.248C150.325 168.085 148.125 170.063 145.926 169.667Z" fill="black" stroke="black" stroke-width="2.13" stroke-miterlimit="10"/>
<path d="M153.89 136.337L149.607 135.575L146.545 124.42L150.314 125.086L151.7 130.798C151.806 131.204 151.903 131.619 151.99 132.043C152.078 132.468 152.155 132.883 152.223 133.288C152.426 132.931 152.649 132.564 152.872 132.198C153.105 131.831 153.337 131.474 153.579 131.136L156.855 126.253L160.624 126.919L153.89 136.347V136.337Z" fill="black"/>
<path d="M201.999 193.494C199.538 193.475 197.116 194.874 195.914 197.016L201.999 193.494Z" fill="#B3A8FF"/>
<path d="M201.999 193.494C199.538 193.475 197.116 194.874 195.914 197.016" stroke="black" stroke-width="1.88" stroke-miterlimit="10"/>
<path d="M136.168 194.794C138.552 193.994 141.119 193.646 143.542 194.283C145.964 194.92 148.222 196.647 149.191 199.137C149.685 197.96 150.692 197.13 151.72 196.474C154.452 194.727 157.669 193.868 160.847 194.042C164.161 194.225 167.785 195.702 168.637 199.561C168.569 198.355 169.974 196.898 170.808 196.232C172.106 195.19 174.121 194.814 175.701 194.823" stroke="black" stroke-width="1.81" stroke-miterlimit="10"/>
<path d="M123.888 205.08C126.659 205.08 128.907 202.841 128.907 200.081L129.353 173.168C129.353 170.409 127.105 168.17 124.334 168.17C121.563 168.17 119.315 170.409 119.315 173.168L118.869 200.081C118.869 202.841 121.117 205.08 123.888 205.08Z" fill="#FF5758" stroke="black" stroke-width="2" stroke-miterlimit="10"/>
<path d="M142.389 162.294C141.933 161.619 141.371 161.011 140.683 160.509L124.967 148.823L96.4606 127.623L80.7734 156.331L85.2112 188.734L138.455 172.976C139.346 172.726 140.15 172.301 140.848 171.761C141.177 171.51 141.497 171.239 141.768 170.931C142.534 170.091 143.077 169.059 143.367 167.93C143.406 167.766 143.464 167.611 143.493 167.437C143.551 167.109 143.59 166.772 143.6 166.444C143.648 164.958 143.203 163.51 142.389 162.294Z" fill="#FF5758" stroke="black" stroke-width="2" stroke-miterlimit="10"/>
<path d="M110.444 161.597C113.648 143.647 102.963 126.743 86.5769 123.842C70.1911 120.942 54.3104 133.142 51.1063 151.092C47.9021 169.042 58.588 185.945 74.9737 188.846C91.3595 191.747 107.24 179.547 110.444 161.597Z" fill="#FF5758" stroke="black" stroke-width="2" stroke-miterlimit="10"/>
<path d="M100.758 159.568C103.241 145.658 95.5027 132.656 83.4742 130.526C71.4457 128.397 59.6818 137.947 57.1989 151.857C54.7159 165.767 62.4542 178.769 74.4827 180.899C86.5112 183.028 98.275 173.478 100.758 159.568Z" fill="#F1F0F4" stroke="black" stroke-width="2" stroke-miterlimit="10"/>
<path d="M80.463 147.402L143.202 149.583L134.83 184.235L77.498 164L80.463 147.402Z" fill="white" stroke="black" stroke-width="2" stroke-miterlimit="10"/>
<path d="M71.7999 154.426C70.9859 159.01 73.5343 163.294 77.4972 163.999C81.4602 164.703 85.336 161.557 86.1596 156.964C86.9735 152.38 84.4252 148.096 80.4622 147.392C76.4992 146.687 72.6235 149.833 71.7999 154.426Z" fill="#FF5758" stroke="black" stroke-width="2" stroke-miterlimit="10"/>
<path d="M112.679 180.938C108.028 184.373 106.633 191.784 112.349 195.335C114.462 196.648 117.669 197.323 120.043 196.358C121.719 195.683 123.047 194.264 123.725 192.595C124.81 189.961 125.236 185.763 123.764 183.225C122.252 180.62 119.19 178.632 116.09 179.346C114.82 179.635 113.667 180.195 112.669 180.929L112.679 180.938Z" fill="#73EBE0" stroke="black" stroke-width="1.88" stroke-miterlimit="10"/>
<path d="M7.32617 116.612L31.2397 138.208L33.0226 128.809L52.4111 137.31C52.4111 137.31 27.0926 113.842 27.2089 115.068C27.3155 116.293 24.8156 122.614 24.8156 122.614L7.32617 116.612Z" fill="#FFD15E"/>
<path d="M18.373 166.922L37.8294 166.286L35.5137 162.184L48.2068 158.354C48.2068 158.354 27.4036 158.807 27.8784 159.222C28.3532 159.637 29.2543 162.86 29.2543 162.86L18.373 166.932V166.922Z" fill="#FFD15E"/>
<path d="M341.883 40.4403C342.365 48.3903 337.485 55.2103 331.029 55.6003C324.572 55.9903 318.899 49.8103 318.407 41.8603L316.871 16.8103C316.389 8.8603 321.269 2.0403 327.725 1.6503C334.182 1.2603 339.855 7.4403 340.347 15.3903L341.883 40.4403Z" fill="#73EBE0"/>
<path d="M340.9 39.4998C341.191 45.2098 338.359 51.7498 332.505 53.5698C327.093 55.2498 321.661 51.5398 320.024 46.3998C319.201 43.8098 319.271 40.8598 319.1 38.1698L318.357 25.9998C318.196 23.2998 318.016 20.5898 317.865 17.8898C317.574 12.7498 319.703 7.02979 324.432 4.45979C329.162 1.8898 335.317 4.05979 337.887 8.85979C339.384 11.6498 339.384 14.7998 339.574 17.8698L340.87 38.9798L340.9 39.5098C340.95 40.2898 341.422 41.2798 342.014 41.7998C342.526 42.2498 342.898 42.0998 342.858 41.3898L341.573 20.3898C341.352 16.8398 341.241 13.3498 339.855 9.98979C337.636 4.56979 332.716 -0.740205 326.31 0.0997951C319.903 0.939795 316.289 7.4398 315.887 13.2998C315.686 16.1998 316.088 19.1998 316.258 22.0798L317.082 35.4798C317.273 38.5698 317.243 41.8198 318.056 44.8198C319.612 50.5898 324.111 57.0198 330.688 57.2598C336.913 57.4898 341.251 52.0998 342.486 46.4998C342.858 44.8198 342.938 43.0998 342.848 41.3898C342.808 40.6098 342.326 39.6098 341.733 39.0998C341.211 38.6498 340.85 38.8098 340.89 39.5098L340.9 39.4998Z" fill="black"/>
<path d="M370.33 60.5073C368.331 68.2173 361.574 73.2073 355.308 71.5973C349.042 69.9873 345.558 62.3573 347.556 54.6473L357.989 14.8373C359.987 7.12732 366.745 2.13732 373.011 3.74732C379.276 5.35732 382.761 12.9873 380.762 20.6973L370.33 60.5073Z" fill="#73EBE0"/>
<path d="M369.637 59.6081C368.563 63.5581 366.003 67.1481 362.277 68.9981C358.984 70.6381 355.078 70.4581 352.105 68.2281C348.932 65.8481 347.466 61.6781 347.838 57.8181C347.958 56.5281 348.31 55.2981 348.631 54.0481L356.142 25.3681C356.965 22.2181 357.789 19.0581 358.622 15.9081C360.309 9.55805 366.936 3.02805 374.005 5.88805C377.58 7.33805 379.89 10.8581 380.402 14.5981C380.673 16.6381 380.382 18.5981 379.859 20.5681L376.917 31.7981L369.778 59.0681L369.637 59.6081C369.457 60.2881 369.386 61.5181 369.919 62.0681C370.451 62.6181 370.863 61.9681 371.003 61.4181L377.811 35.4381L381.165 22.6181C382.771 16.4981 382.5 9.09805 377.57 4.47805C374.708 1.78805 370.732 1.01805 367.037 2.28805C363.03 3.65805 359.998 7.11805 358.341 10.8981C356.955 14.0381 356.323 17.6381 355.459 20.9381L347.346 51.9081C345.87 57.5481 345.528 63.6081 348.892 68.7081C351.001 71.8981 354.616 73.9781 358.502 73.6581C362.388 73.3381 366.093 70.688 368.312 67.4181C369.557 65.5881 370.431 63.5481 371.003 61.4181C371.184 60.7381 371.254 59.5081 370.722 58.9581C370.19 58.4081 369.778 59.0681 369.637 59.6081Z" fill="black"/>
<path d="M329.162 7.28906L322.967 27.1491L328.259 25.6891L327.937 39.3891C327.937 39.3891 334.815 18.2091 334.193 18.5991C333.58 18.9891 329.745 19.1991 329.745 19.1991L329.162 7.28906Z" fill="white"/>
<path d="M372.207 10.3984L361.604 26.8084L366.986 27.5384L363.431 40.4384C363.431 40.4384 374.998 23.0484 374.316 23.1684C373.633 23.2884 369.938 21.9584 369.938 21.9584L372.207 10.3984Z" fill="white"/>
<path d="M384.428 58.6116C386.407 33.7416 365.832 18.9116 342.707 21.3216C320.847 22.5016 304.088 41.1016 305.263 62.8716" fill="#FF5758"/>
<path d="M384.428 58.6116C386.407 33.7416 365.832 18.9116 342.707 21.3216C320.847 22.5016 304.088 41.1016 305.263 62.8716" stroke="black" stroke-width="2.29" stroke-miterlimit="10"/>
<path d="M317.222 34.1713C312.392 32.7513 307.522 31.8713 302.833 32.1313C295.654 32.5313 288.575 34.6513 282.299 38.1213C275.461 41.9013 264.737 50.6913 274.657 57.5813C278.433 60.2013 285.351 61.7913 289.779 60.0313C297.511 56.9613 304.952 53.2213 312.754 50.3113C324.783 45.8113 335.728 45.4513 348.41 45.2413C345.167 44.3813 341.542 43.8413 338.449 42.5513C332.003 39.8613 324.663 36.3613 317.232 34.1713H317.222Z" fill="#B33D3E" stroke="black" stroke-width="2.29" stroke-miterlimit="10"/>
<path d="M237.796 196.25C237.385 196.39 236.782 196.79 236.009 199.14C234.593 203.43 235.929 208.21 239.584 210.89C248.159 217.17 256.202 203.73 261.423 197.71" fill="white"/>
<path d="M237.796 196.25C237.385 196.39 236.782 196.79 236.009 199.14C234.593 203.43 235.929 208.21 239.584 210.89C248.159 217.17 256.202 203.73 261.423 197.71" stroke="black" stroke-width="2.98" stroke-miterlimit="10"/>
<path d="M261.434 197.711C262.096 196.941 261.122 202.201 261.434 201.231C261.795 200.101 261.675 198.871 261.434 197.711C260.59 193.621 258.321 189.911 255.399 186.901C252.467 183.891 247.788 179.841 243.199 178.991C242.516 178.861 242.365 177.971 242.958 177.621C246.251 175.671 250.147 173.821 251.483 170.231L254.505 143.711C242.225 150.871 230.015 160.371 224.713 174.081C222.383 180.101 223.94 186.651 228.639 191.161C230.918 193.351 234.754 195.451 237.797 196.241" fill="#E8E8E8"/>
<path d="M261.434 197.711C262.096 196.941 261.122 202.201 261.434 201.231C261.795 200.101 261.675 198.871 261.434 197.711ZM261.434 197.711C260.59 193.621 258.321 189.911 255.399 186.901C252.467 183.891 247.788 179.841 243.199 178.991C242.516 178.861 242.365 177.971 242.958 177.621C246.251 175.671 250.147 173.821 251.483 170.231L254.505 143.711C242.225 150.871 230.015 160.371 224.713 174.081C222.383 180.101 223.94 186.651 228.639 191.161C230.918 193.351 234.754 195.451 237.797 196.241" stroke="black" stroke-width="2.23" stroke-miterlimit="10"/>
<path d="M431.603 298.428C431.603 301.978 393.586 304.848 346.694 304.848C299.801 304.848 261.785 301.968 261.785 298.428C261.785 294.888 299.801 292.008 346.694 292.008C393.586 292.008 431.603 294.888 431.603 298.428Z" fill="#C7C7C7"/>
<path d="M276.977 284.129C277.53 285.419 277.72 286.859 277.53 288.249C275.391 288.229 273.252 288.659 271.294 289.499C270.39 289.879 269.507 290.369 268.894 291.139C267.689 292.649 267.86 294.799 268.091 296.719C268.131 297.059 268.201 297.439 268.482 297.619C268.643 297.719 268.854 297.739 269.045 297.749C272.77 297.969 276.395 297.879 280.12 297.879C284.96 297.879 289.8 297.739 294.63 297.489C301.006 297.149 298.727 290.149 296.909 285.939" fill="#73EBE0"/>
<path d="M276.686 284.777C277.098 285.827 277.258 286.867 277.128 287.987L277.519 287.307C273.543 287.337 268.211 288.517 267.579 293.127C267.448 294.067 267.488 295.027 267.569 295.977C267.629 296.707 267.619 297.957 268.312 298.457C269.004 298.957 270.41 298.737 271.214 298.757C272.569 298.797 273.935 298.807 275.3 298.807C280.833 298.807 286.356 298.777 291.878 298.537C295.041 298.397 298.405 298.407 299.118 294.677C299.721 291.507 298.435 288.137 297.2 285.267C296.809 284.357 296.417 286.107 296.618 286.587C297.491 288.627 298.445 290.907 298.425 293.157C298.405 296.207 295.574 296.507 293.124 296.627C288.876 296.827 284.619 296.937 280.361 296.947C278.353 296.947 276.345 296.967 274.336 296.957C273.292 296.957 272.258 296.937 271.214 296.907C270.732 296.897 270.25 296.877 269.768 296.847C269.065 296.817 268.623 296.777 268.432 296.077C266.926 290.687 273.593 289.207 277.53 289.177C277.811 289.177 277.901 288.687 277.921 288.497C278.112 286.757 277.911 285.107 277.268 283.477C277.108 283.077 276.867 283.227 276.686 283.477C276.455 283.797 276.555 284.457 276.686 284.797V284.777Z" fill="black"/>
<path d="M417.253 284.129C416.701 285.419 416.51 286.859 416.701 288.249C418.84 288.229 420.979 288.659 422.937 289.499C423.841 289.879 424.724 290.369 425.337 291.139C426.542 292.649 426.371 294.799 426.14 296.719C426.1 297.059 426.03 297.439 425.748 297.619C425.588 297.719 425.377 297.739 425.186 297.749C421.461 297.969 417.836 297.879 414.111 297.879C409.271 297.879 404.431 297.739 399.601 297.489C393.225 297.149 395.504 290.149 397.322 285.939" fill="#73EBE0"/>
<path d="M416.961 283.47C416.319 285.1 416.108 286.75 416.309 288.49C416.329 288.68 416.419 289.17 416.7 289.17C420.184 289.19 425.888 290.13 425.898 294.54C425.898 294.99 425.858 295.43 425.818 295.87C425.757 296.49 425.587 296.67 424.944 296.81C423.97 297.02 422.805 296.9 421.801 296.92C419.723 296.96 417.634 296.94 415.555 296.93C411.318 296.92 407.081 296.87 402.843 296.69C400.524 296.59 396.457 297.02 395.855 293.95C395.383 291.54 396.678 288.73 397.602 286.57C397.803 286.1 397.411 284.35 397.019 285.25C395.905 287.86 394.83 290.74 394.981 293.62C395.041 294.83 395.342 296.11 396.186 297.02C397.2 298.12 398.656 298.33 400.082 298.41C405.635 298.72 411.188 298.76 416.75 298.79C419.391 298.8 422.042 298.82 424.683 298.67C425.516 298.62 426.059 298.55 426.36 297.69C426.671 296.78 426.681 295.68 426.701 294.73C426.741 292.6 426.219 290.49 424.342 289.25C422.163 287.82 419.241 287.31 416.68 287.3L417.072 287.98C416.951 286.86 417.102 285.82 417.514 284.77C417.654 284.43 417.754 283.78 417.514 283.45C417.333 283.2 417.092 283.04 416.931 283.45L416.961 283.47Z" fill="black"/>
<path d="M441.856 116.898C434.606 83.0083 414.353 57.3083 379.852 48.0383C347.82 39.4283 306.751 42.2883 281.95 64.0883C272.872 72.0683 265.402 81.8583 260.471 92.8983C249.848 116.658 249.436 143.788 249.526 169.338C249.647 203.378 256.937 234.928 267.149 267.308C269.298 274.128 273.224 283.618 281.026 285.508C295.375 288.998 304.09 278.908 316.08 274.358C323.38 271.578 332.547 271.228 340.279 271.138C359.388 270.928 374.982 276.918 392.152 284.268C437.488 303.668 440.892 220.548 444.236 195.598C447.74 169.478 447.399 142.718 441.866 116.898H441.856Z" fill="#E8E8E8"/>
<path d="M442.478 116.069C439.948 104.339 435.761 92.9392 429.425 82.6992C423.089 72.4592 415.417 64.4892 405.918 58.0692C395.676 51.1592 384.008 46.9692 371.939 44.5392C359.005 41.9392 345.63 41.1992 332.497 42.5092C319.363 43.8192 306.942 47.0392 295.545 53.0592C283.385 59.4892 273.193 69.4092 265.803 80.9292C257.499 93.8692 253.211 108.939 251.032 124.029C248.783 139.549 248.642 155.349 248.803 170.999C248.964 186.649 250.821 203.689 253.914 219.769C257.007 235.849 261.364 251.779 266.295 267.449C267.992 272.859 270.06 278.559 273.986 282.799C275.874 284.839 278.143 286.399 280.854 287.109C284.078 287.949 287.492 288.089 290.775 287.539C296.82 286.509 302.102 283.279 307.353 280.319C310.125 278.759 312.946 277.239 315.918 276.079C319.443 274.709 323.178 273.969 326.924 273.509C334.434 272.589 342.237 272.459 349.767 273.199C357.298 273.939 364.96 275.739 372.26 278.159C379.56 280.579 386.097 283.539 393.015 286.299C396.62 287.739 400.466 288.739 404.362 288.819C411.059 288.949 417.064 286.049 421.703 281.339C426.924 276.029 430.318 269.069 432.889 262.179C435.911 254.099 437.919 245.679 439.496 237.209C441.072 228.739 442.107 220.889 443.04 212.689C443.864 205.459 444.717 198.239 445.551 191.019C447.479 174.189 447.81 157.169 446.203 140.299C445.43 132.159 444.185 124.069 442.478 116.069C442.368 115.529 441.986 115.029 441.484 115.479C440.982 115.929 441.103 117.149 441.223 117.729C444.687 133.989 446.073 150.629 445.721 167.239C445.541 175.539 444.928 183.819 443.924 192.059C443.512 195.409 443.071 198.759 442.709 202.109C441.916 209.339 441.153 216.579 440.139 223.789C438.974 232.069 437.528 240.319 435.419 248.409C433.451 255.969 430.951 263.549 427.025 270.349C423.791 275.959 419.373 281.219 413.298 283.839C406.641 286.709 399.19 285.539 392.694 282.829C378.967 277.099 365.161 271.489 350.219 269.949C342.819 269.189 335.198 269.299 327.797 270.119C324.283 270.509 320.788 271.139 317.415 272.229C314.372 273.219 311.49 274.649 308.699 276.189C303.427 279.079 298.256 282.539 292.322 283.939C286.387 285.339 279.589 284.819 275.181 280.429C271.114 276.379 269.096 270.689 267.419 265.339C264.999 257.629 262.73 249.879 260.672 242.069C256.615 226.659 253.442 211.009 251.725 195.169C250.018 179.469 249.937 163.609 250.51 147.839C251.062 132.559 252.719 117.139 257.649 102.589C262.579 88.0392 270.562 76.0092 281.678 66.0992C291.026 57.7692 302.564 52.2292 314.623 49.0092C327.124 45.6792 340.228 44.6592 353.121 45.4092C366.014 46.1592 378.516 48.4292 390.234 53.1592C400.887 57.4592 410.637 63.9092 418.53 72.2592C426.422 80.6092 432.226 90.4092 436.303 100.989C438.401 106.429 439.998 112.039 441.233 117.729C441.354 118.269 441.725 118.769 442.227 118.319C442.729 117.869 442.609 116.649 442.488 116.069H442.478Z" fill="black"/>
<path d="M419.513 91.0511C415.406 83.3011 408.819 76.4411 401.92 71.3011C385.553 59.1111 364.456 57.131 344.675 57.601C329.864 57.951 314.461 59.791 300.845 65.9411C280.542 75.1111 263.05 99.4111 275.421 121.551C283.454 135.921 301.548 141.391 316.881 143.541C336.672 146.321 357.869 146.971 377.691 144.271C391.337 142.411 406.991 138.601 416.36 127.741C422.374 120.771 424.212 111.711 423.168 102.731C422.686 98.6511 421.43 94.6811 419.513 91.0511Z" fill="#73EBE0"/>
<path d="M419.803 90.3893C413.487 78.5893 402.522 68.9693 390.272 63.6093C378.021 58.2493 364.747 56.7493 351.623 56.6193C337.354 56.4693 322.754 57.4993 309.098 61.8493C297.31 65.6093 286.767 72.3093 279.356 82.2993C272.588 91.4193 269.014 103.059 271.926 114.269C274.878 125.649 283.583 133.729 294.107 138.389C305.654 143.499 318.517 144.999 330.988 146.059C346.361 147.359 361.915 147.309 377.218 145.269C389.087 143.679 401.678 140.939 411.338 133.469C416.218 129.699 420.014 124.789 422.012 118.939C424.01 113.089 424.352 106.289 423.177 100.079C422.534 96.6993 421.379 93.4393 419.783 90.3793C419.321 89.4893 418.959 91.2293 419.2 91.6993C425.376 103.539 424.191 118.869 414.622 128.569C406.277 137.029 394.147 140.589 382.731 142.559C368.673 144.979 354.274 145.469 340.055 144.789C332.765 144.439 325.486 143.769 318.256 142.789C312.643 142.029 307.07 140.989 301.648 139.309C291.365 136.129 281.113 130.529 275.691 120.879C272.779 115.689 271.313 109.769 271.765 103.819C272.187 98.2593 274.125 92.8893 276.946 88.0993C282.75 78.2293 292.048 70.5393 302.571 66.0993C315.535 60.6193 329.783 58.9193 343.761 58.5293C356.342 58.1793 369.165 58.7493 381.315 62.2493C393.465 65.7493 405.273 73.1893 413.627 83.4093C415.736 85.9893 417.624 88.7493 419.2 91.6893C419.672 92.5793 420.034 90.8393 419.783 90.3693L419.803 90.3893Z" fill="black"/>
<path d="M233.6 194.559C237.405 196.809 241.392 196.959 245.78 197.489" stroke="black" stroke-width="2.98" stroke-miterlimit="10"/>
<path d="M245.842 155.401C245.119 159.411 245.109 163.541 245.821 167.551C246.072 168.941 246.454 170.421 247.518 171.351C247.649 171.471 247.81 171.581 247.98 171.601C248.171 171.621 247.88 172.661 248.051 172.581C249.587 171.891 251.605 170.091 253.142 169.401C253.654 169.171 254.186 168.931 254.557 168.501C254.879 168.131 255.049 167.661 255.2 167.201C256.626 162.681 256.184 157.791 255.642 153.161C255.431 151.411 255.2 149.171 253.423 148.261C251.967 147.511 250.25 148.111 249.025 149.031C247.016 150.541 246.253 153.021 245.821 155.391L245.842 155.401Z" fill="#E8E8E8"/>
<path d="M348.832 145.98V214.15" stroke="black" stroke-width="2.98" stroke-miterlimit="10"/>
<path d="M442.668 141.727C447.689 131.647 452.117 121.227 455.942 110.547C459.527 112.257 464.417 111.117 466.897 114.417C468.514 116.567 468.283 119.677 467.831 122.407C465.1 139.077 457.147 160.837 445.329 172.737" fill="#E8E8E8"/>
<path d="M442.668 141.727C447.689 131.647 452.117 121.227 455.942 110.547C459.527 112.257 464.417 111.117 466.897 114.417C468.514 116.567 468.283 119.677 467.831 122.407C465.1 139.077 457.147 160.837 445.329 172.737" stroke="black" stroke-width="2.23" stroke-miterlimit="10"/>
<path d="M456.424 123.536C450.711 121.176 446.654 117.276 447.568 110.226C447.739 108.916 448.11 107.646 448.402 106.356C449.345 102.136 449.245 97.8365 448.391 93.6065C447.769 90.4965 446.444 86.6265 448.783 83.9165C450.41 82.0365 453.392 81.8765 455.501 83.1665C457.609 84.4565 458.885 86.9065 459.326 89.4065C459.768 91.8865 459.487 94.4365 459.075 96.8965C460.391 96.6465 462.359 96.5565 463.704 96.6565C468.143 96.9865 471.607 99.1865 471.928 103.786C472.059 105.686 471.737 107.576 471.346 109.446C470.824 111.946 470.171 114.426 469.398 116.856C468.263 120.446 466.165 124.386 461.676 123.526" fill="white"/>
<path d="M456.596 122.108C453.664 120.878 450.662 119.118 449.106 116.228C447.097 112.508 448.804 108.718 449.377 104.878C450.07 100.248 449.567 95.6679 448.563 91.1279C448.172 89.3379 447.65 87.2879 448.754 85.6479C449.859 84.0079 451.807 83.5679 453.604 83.9279C455.813 84.3679 457.43 86.2379 458.213 88.2479C459.247 90.8779 458.866 93.7779 458.414 96.4879C458.374 96.7579 458.384 98.4879 459.046 98.3679C461.978 97.8579 465.392 97.8479 468.063 99.3179C471.036 100.948 471.548 103.788 471.066 106.928C470.513 110.568 469.61 114.518 468.114 117.888C466.889 120.638 464.82 122.548 461.647 122.028C460.834 121.898 460.663 124.838 461.647 125.008C465.292 125.608 467.672 123.088 469.047 119.998C469.911 118.058 470.463 115.968 471.005 113.918C471.618 111.578 472.21 109.188 472.472 106.778C472.843 103.268 472.391 99.3779 469.399 97.0879C466.567 94.9079 462.43 94.8079 459.056 95.3979L459.689 97.2779C460.492 92.4279 460.753 86.3079 456.817 82.6279C455.251 81.1679 453.072 80.4679 450.973 81.0379C448.875 81.6079 447.579 83.3579 447.057 85.3779C446.475 87.6479 446.866 90.0279 447.348 92.2679C447.951 95.0579 448.443 97.8179 448.393 100.688C448.302 105.898 445.792 110.838 447.278 116.068C448.533 120.488 452.138 123.238 456.235 124.968C457.169 125.358 457.41 122.448 456.586 122.098L456.596 122.108Z" fill="black"/>
<path d="M464.427 118.125C463.393 118.385 462.328 118.615 461.264 118.595C459.617 118.565 457.9 117.815 457.358 116.155C456.886 114.695 457.86 113.485 458.673 112.325C456.916 111.335 454.617 111.125 455.932 108.515C456.535 107.335 457.699 106.445 459.005 106.185C456.936 105.935 455.43 103.785 455.5 101.715C455.581 99.1352 457.127 97.2152 459.627 96.5652C461.947 95.9652 465.532 96.3652 467.55 97.6852" fill="white"/>
<path d="M464.427 116.637C462.871 117.017 461.134 117.417 459.588 116.797C459.075 116.597 458.322 116.197 458.081 115.667C457.77 114.977 458.604 114.177 459.005 113.617C459.407 113.057 459.618 111.307 458.845 110.897C458.363 110.637 457.871 110.427 457.378 110.197C457.097 110.067 456.475 109.517 456.194 109.477C456.073 109.307 456.063 109.387 456.153 109.717C456.133 110.087 456.163 110.137 456.244 109.887C456.404 109.817 456.645 109.167 456.806 108.977C457.368 108.317 458.162 107.877 458.995 107.677C459.899 107.457 459.959 104.867 458.995 104.697C457.609 104.467 456.123 103.217 456.143 101.707C456.163 100.387 457.198 99.2168 458.282 98.6068C460.853 97.1268 464.909 97.6068 467.359 99.1168C468.143 99.5968 468.504 96.7368 467.711 96.2468C464.437 94.2268 458.624 93.9168 456.153 97.3468C453.864 100.527 454.426 106.907 458.995 107.677V104.697C456.535 105.297 454.778 107.507 454.888 110.067C454.989 112.397 456.736 112.817 458.493 113.767L458.332 111.047C456.826 113.187 455.682 115.987 457.499 118.357C459.166 120.547 462.068 120.197 464.427 119.617C465.411 119.377 465.191 116.457 464.427 116.637Z" fill="black"/>
<path d="M338.75 117.19C339.684 121.02 340.236 124.74 342.947 127.79C345.036 130.15 348.028 131.72 351.241 131.56C354.465 131.4 357.286 129.54 359.134 126.97C361.222 124.07 362.618 119.99 362.548 116.41" fill="white"/>
<path d="M340.014 122.659C341.841 128.079 346.259 131.819 351.24 131.569C356.029 131.329 359.946 127.469 361.371 122.199" fill="white"/>
<path d="M339.533 123.739C341.26 128.699 345.568 133.379 351.231 133.099C356.894 132.819 360.539 127.959 361.945 122.969C362.106 122.399 362.156 121.339 361.704 120.869C361.252 120.399 360.901 120.959 360.78 121.419C359.515 125.899 355.88 129.939 350.95 130.039C346.019 130.139 342.063 126.059 340.487 121.569C340.276 120.959 339.774 121.089 339.533 121.569C339.201 122.209 339.302 123.089 339.533 123.739Z" fill="black"/>
<path d="M356.806 116.919C357.037 121.439 354.406 125.239 350.942 125.409C347.477 125.579 344.485 122.059 344.264 117.539C344.033 113.019 346.664 109.219 350.128 109.049C353.592 108.879 356.585 112.399 356.806 116.919Z" fill="black"/>
<path d="M356.464 116.92C356.574 119.68 355.5 122.77 352.889 124.1C350.459 125.34 347.768 124.21 346.242 122.14C344.444 119.71 344.103 116.3 345.328 113.55C346.362 111.23 348.631 109.42 351.292 109.92C354.586 110.54 356.293 114.1 356.484 117.13C356.494 117.35 356.614 117.78 356.905 117.68C357.197 117.58 357.156 116.92 357.146 116.72C356.956 113.57 355.459 109.89 352.296 108.65C349.133 107.41 346.462 109.31 345.067 111.95C343.44 115.04 343.51 119.17 345.117 122.25C346.452 124.81 349.153 126.89 352.176 125.97C355.891 124.84 357.287 120.39 357.146 116.92C357.146 116.72 357.106 116.14 356.805 116.14C356.504 116.14 356.453 116.74 356.464 116.92Z" fill="black"/>
<path d="M343.609 102.527C341.119 102.807 338.679 103.767 336.831 105.457C334.984 107.147 333.789 109.577 333.819 112.077C333.839 113.667 334.381 115.297 335.526 116.417C336.58 117.457 338.056 117.977 339.512 118.257C342.725 118.867 346.481 118.217 348.409 115.587C350.256 113.057 349.875 109.607 349.363 106.517" fill="white"/>
<path d="M343.61 100.989C340.357 101.379 337.204 102.839 335.236 105.519C333.268 108.199 332.545 112.119 333.73 115.379C334.915 118.639 337.947 119.789 341.08 119.969C343.881 120.129 346.934 119.289 348.691 116.979C351.021 113.919 350.609 109.649 350.017 106.089C349.956 105.709 349.766 104.769 349.183 105.019C348.651 105.249 348.641 106.479 348.711 106.909C349.083 109.149 349.575 111.769 348.35 113.839C347.125 115.909 344.715 116.769 342.446 116.899C340.176 117.029 337.114 116.589 335.527 114.709C333.941 112.829 334.473 110.189 335.838 108.269C337.626 105.759 340.598 104.419 343.6 104.049C344.604 103.929 344.484 100.879 343.6 100.979L343.61 100.989Z" fill="black"/>
<path d="M355.97 102.527C358.46 102.807 360.9 103.767 362.748 105.457C364.595 107.147 365.79 109.577 365.76 112.077C365.74 113.667 365.198 115.297 364.053 116.417C362.999 117.457 361.523 117.977 360.067 118.257C356.854 118.867 353.098 118.217 351.17 115.587C349.323 113.057 349.704 109.607 350.216 106.517" fill="white"/>
<path d="M355.971 104.057C358.622 104.377 361.303 105.457 363.111 107.487C364.627 109.197 365.742 111.707 364.597 113.907C363.452 116.107 360.43 116.877 358.05 116.917C355.801 116.957 353.3 116.367 351.784 114.587C349.947 112.427 350.439 109.477 350.87 106.907C350.951 106.417 350.941 105.287 350.398 105.017C349.816 104.737 349.625 105.747 349.565 106.087C349.033 109.287 348.641 112.947 350.238 115.927C351.654 118.577 354.435 119.857 357.367 119.977C360.299 120.097 363.733 119.227 365.3 116.537C367.047 113.547 366.695 109.527 365.029 106.587C363.151 103.287 359.687 101.437 355.971 100.987C355.098 100.877 354.967 103.927 355.971 104.057Z" fill="black"/>
<path d="M349.845 106.329C352.637 106.439 355.478 102.999 353.36 100.959C351.884 99.5386 348.349 99.6486 346.682 100.649C344.011 102.249 345.919 105.049 348.269 105.969C348.761 106.159 349.293 106.309 349.835 106.329H349.845Z" fill="#EB1D25"/>
<path d="M349.846 107.289C351.613 107.339 353.27 106.149 354.053 104.619C354.917 102.939 354.626 100.589 352.878 99.5987C351.412 98.7687 349.414 98.7687 347.818 99.2187C346.974 99.4587 346.171 99.8387 345.619 100.539C344.956 101.369 344.835 102.519 345.056 103.529C345.518 105.639 347.737 107.169 349.836 107.289C350.408 107.319 350.448 105.409 349.836 105.369C348.36 105.289 346.633 104.369 345.97 103.059C345.94 102.989 345.91 102.919 345.88 102.849C345.87 102.819 345.85 102.779 345.84 102.749C345.84 102.759 345.87 102.859 345.84 102.769C345.84 102.739 345.779 102.529 345.799 102.639C345.819 102.759 345.799 102.609 345.799 102.579C345.799 102.439 345.799 102.759 345.799 102.619C345.799 102.509 345.799 102.699 345.799 102.699C345.799 102.669 345.799 102.629 345.809 102.599C345.84 102.499 345.809 102.649 345.799 102.659C345.799 102.629 345.809 102.589 345.829 102.559C345.86 102.479 345.829 102.569 345.829 102.579C345.84 102.549 345.86 102.509 345.87 102.479C345.92 102.389 345.91 102.399 345.96 102.329C346.362 101.759 347.024 101.409 347.677 101.189C349.002 100.749 350.659 100.699 351.985 101.149C352.587 101.359 353.18 101.689 353.531 102.229C353.581 102.299 353.561 102.269 353.601 102.349C353.621 102.389 353.642 102.439 353.662 102.489C353.662 102.479 353.631 102.379 353.662 102.469C353.672 102.499 353.712 102.709 353.702 102.599C353.692 102.509 353.682 102.829 353.702 102.589C353.702 102.699 353.672 102.779 353.702 102.619C353.692 102.689 353.662 102.829 353.702 102.679C353.682 102.759 353.662 102.849 353.631 102.929C353.601 103.009 353.631 102.929 353.631 102.909C353.611 102.959 353.591 102.999 353.571 103.049C352.989 104.399 351.382 105.409 349.866 105.369C349.284 105.349 349.254 107.269 349.866 107.289H349.846Z" fill="black"/>
<path d="M331.059 99.6892C331.059 103.409 328.027 106.429 324.291 106.429C320.556 106.429 317.523 103.409 317.523 99.6892C317.523 95.9692 320.556 92.9492 324.291 92.9492C328.027 92.9492 331.059 95.9692 331.059 99.6892Z" fill="black"/>
<path d="M381.989 99.1072C381.989 102.827 378.956 105.847 375.221 105.847C371.486 105.847 368.453 102.827 368.453 99.1072C368.453 95.3872 371.486 92.3672 375.221 92.3672C378.956 92.3672 381.989 95.3872 381.989 99.1072Z" fill="black"/>
<path d="M331.128 84.3276C330.123 85.7976 326.699 85.2176 323.476 83.0276C320.253 80.8476 318.455 77.8876 319.45 76.4176C320.454 74.9476 323.878 75.5276 327.101 77.7176C330.324 79.8976 332.122 82.8576 331.128 84.3276Z" fill="#0CAB9F"/>
<path d="M367.53 89.3979C368.534 90.8679 371.958 90.2879 375.181 88.0979C378.404 85.9079 380.202 82.9579 379.208 81.4879C378.214 80.0179 374.779 80.5979 371.556 82.7879C368.333 84.9679 366.536 87.9279 367.53 89.3979Z" fill="#0CAB9F"/>
<path d="M408.809 182.539L407.494 176.159C406.51 176.319 405.465 176.379 404.351 176.319L402.654 182.089L397.623 182.639L400.766 163.269C401.941 163.019 405.385 162.559 407.634 162.529C412.394 162.449 415.758 164.889 414.994 169.539C414.643 171.659 413.488 173.389 411.771 174.569L414.613 182.019L408.819 182.539H408.809ZM405.636 171.269L406.921 171.239C409.08 171.209 410.446 169.889 410.697 168.379C410.857 166.869 409.713 166.099 407.935 166.209L406.811 166.289L405.636 171.259V171.269Z" fill="#A8A8A8"/>
</svg>
