<svg width="581" height="128" viewBox="0 0 581 128" fill="none" xmlns="http://www.w3.org/2000/svg">
<g clip-path="url(#clip0_948_56489)">
<path d="M294.99 97.5703L286.59 96.5703C285.802 96.4438 285.001 96.4269 284.21 96.5203C282.643 96.9383 281.229 97.7994 280.14 99.0003C278.66 100.174 277.443 101.646 276.57 103.32C275.22 106.41 276.37 109.98 277.66 113.1C278.653 115.52 279.723 117.904 280.87 120.25C278.759 120.133 276.643 120.349 274.6 120.89" stroke="black" stroke-width="8" stroke-miterlimit="10" stroke-linecap="round"/>
<path d="M295.281 100.719C295.761 104.129 296.281 107.619 297.891 110.649C299.501 113.679 302.551 116.199 305.991 116.229C307.883 116.139 309.733 115.638 311.411 114.759C314.221 113.473 316.929 111.976 319.511 110.279L323.101 116.639" stroke="black" stroke-width="8" stroke-miterlimit="10" stroke-linecap="round"/>
<path d="M414.4 50.4093L377.35 43.0092C374.06 42.6092 373.01 37.5692 377 35.8892L384.88 32.6793C385.584 32.2818 386.143 31.6687 386.473 30.9301C386.804 30.1916 386.888 29.3665 386.715 28.5762C386.541 27.7859 386.119 27.0722 385.51 26.5399C384.9 26.0077 384.136 25.685 383.33 25.6193C348.79 21.3193 304.18 14.6192 287.81 15.9592C276.423 16.3778 265.654 21.2413 257.811 29.5069C249.968 37.7725 245.676 48.7821 245.855 60.175C246.034 71.568 250.67 82.4372 258.769 90.452C266.868 98.4668 277.785 102.989 289.18 103.049C305.05 104.629 341.56 94.9793 371.67 88.8093C375.57 88.1293 378.9 81.6593 372.16 78.4293L363.62 75.0893C359.71 73.7693 360.62 68.9793 363.9 68.6093L414.51 57.9793C419.37 57.0993 419.89 51.3493 414.4 50.4093Z" fill="#FF5758"/>
<path d="M414.401 49.1601L393.801 45.0401L380.911 42.4701C379.241 42.1401 374.391 41.8301 375.031 39.1501C375.461 37.3201 378.231 36.6501 379.751 36.0401C381.481 35.3301 383.351 34.7601 385.011 33.9001C387.461 32.6201 387.911 29.2201 386.831 26.9001C385.411 23.8301 381.751 24.1801 378.831 23.8101C362.321 21.7101 345.831 19.4301 329.291 17.4901C321.991 16.6401 314.681 15.8401 307.351 15.2501C301.826 14.7303 296.279 14.5 290.731 14.5601C289.737 14.5601 288.737 14.6101 287.731 14.7101C287.251 14.7101 287.181 15.6301 287.181 15.9601L287.731 14.7101C281.422 14.9355 275.235 16.5065 269.584 19.3176C263.932 22.1288 258.946 26.1153 254.961 31.0101C250.974 36.0019 248.079 41.7743 246.461 47.9545C244.844 54.1347 244.54 60.5854 245.571 66.8901C246.567 73.0095 248.817 78.8571 252.179 84.066C255.542 89.2749 259.944 93.7328 265.111 97.1601C275.111 103.69 287.001 105.16 298.681 104.22C312.741 103.09 326.681 99.8401 340.421 96.8301C348.321 95.1001 356.211 93.3201 364.111 91.6301C366.001 91.2201 367.901 90.8201 369.791 90.4301C371.088 90.2861 372.346 89.8993 373.501 89.2901C374.415 88.6634 375.166 87.8253 375.688 86.8471C376.21 85.8688 376.489 84.779 376.501 83.6701C376.521 82.3585 376.161 81.069 375.466 79.9567C374.77 78.8444 373.769 77.9566 372.581 77.4001C371.151 76.6701 369.581 76.1801 368.081 75.6001C366.581 75.0201 365.081 74.4501 363.551 73.8301C362.681 73.4701 361.271 72.6501 361.551 71.5101C361.742 71.0555 362.053 70.6616 362.451 70.3709C362.849 70.0801 363.319 69.9035 363.811 69.8601C369.111 68.8601 374.391 67.6401 379.681 66.5301L405.821 61.0401L413.531 59.4201C414.174 59.3118 414.809 59.158 415.431 58.9601C416.503 58.5763 417.416 57.8431 418.021 56.8782C418.627 55.9134 418.891 54.7729 418.771 53.6401C418.571 51.0701 416.771 49.5901 414.311 49.1301C413.651 49.0001 413.481 51.4701 414.311 51.6301C414.953 51.6942 415.573 51.8984 416.128 52.2285C416.682 52.5585 417.158 53.0062 417.521 53.5401C417.931 54.3501 417.351 55.1601 416.631 55.7401C415.824 56.3178 414.892 56.6948 413.911 56.8401L407.461 58.2401L382.801 63.4201L364.461 67.2601C363.679 67.3516 362.922 67.5926 362.231 67.9701C360.431 69.2101 360.021 71.9701 360.801 73.8501C361.501 75.5901 363.041 76.1701 364.641 76.8501L370.411 79.1101C372.181 79.8001 374.091 80.5501 375.061 82.3301C376.031 84.1101 374.591 86.2101 372.971 87.1301C371.586 87.7231 370.119 88.104 368.621 88.2601L363.171 89.3501C359.431 90.1501 355.701 90.9801 351.971 91.8001C337.691 94.9501 323.411 98.3001 308.971 100.49C303.562 101.417 298.088 101.912 292.601 101.97C286.946 102.074 281.309 101.318 275.881 99.7301C270.127 97.85 264.83 94.7897 260.327 90.7448C255.824 86.7 252.215 81.7597 249.731 76.2401C247.224 70.5321 246.031 64.3343 246.239 58.1037C246.446 51.8731 248.05 45.7686 250.931 40.2401C253.781 34.8497 257.735 30.1205 262.535 26.3608C267.336 22.6012 272.874 19.8954 278.791 18.4201C281.741 17.7035 284.757 17.2914 287.791 17.1901C288.271 17.1901 288.351 16.2401 288.341 15.9401L287.791 17.1901C292.759 16.8968 297.742 16.9636 302.701 17.3901C309.701 17.8401 316.631 18.5401 323.571 19.3201C340.051 21.1501 356.481 23.4101 372.921 25.5301L378.861 26.2901L381.771 26.6601C382.655 26.6843 383.532 26.822 384.381 27.0701C385.381 27.4801 386.531 28.7001 386.191 29.8501C386.015 30.2859 385.744 30.6771 385.398 30.9953C385.052 31.3135 384.64 31.5509 384.191 31.6901L378.111 34.1601C376.181 34.9501 374.551 35.8901 374.041 38.0901C373.531 40.2901 374.341 43.4701 376.881 44.0901C377.561 44.2701 378.291 44.3701 378.981 44.5101L390.221 46.7501L404.741 49.6501C407.801 50.2701 410.871 51.0301 413.961 51.5001L414.421 51.5901C415.061 51.7901 415.231 49.3501 414.401 49.1601Z" fill="black"/>
<path d="M273.16 58.4509C275.038 58.4509 276.56 56.6064 276.56 54.3309C276.56 52.0555 275.038 50.2109 273.16 50.2109C271.282 50.2109 269.76 52.0555 269.76 54.3309C269.76 56.6064 271.282 58.4509 273.16 58.4509Z" fill="black"/>
<path d="M285.5 58.5798C287.377 58.5798 288.9 56.7353 288.9 54.4598C288.9 52.1844 287.377 50.3398 285.5 50.3398C283.622 50.3398 282.1 52.1844 282.1 54.4598C282.1 56.7353 283.622 58.5798 285.5 58.5798Z" fill="black"/>
<path d="M271.32 67.6406C276.48 71.8906 284.49 71.1306 288.89 67.6406" stroke="black" stroke-width="2.5" stroke-miterlimit="10"/>
<path d="M150.459 76.1005V117.98C149.794 117.732 149.068 117.694 148.381 117.873C147.694 118.052 147.079 118.439 146.619 118.98C146.273 119.315 146.015 119.731 145.87 120.19C145.725 120.649 145.697 121.138 145.789 121.61C145.897 121.922 146.075 122.205 146.309 122.437C146.543 122.669 146.827 122.845 147.139 122.95C151.188 124.815 155.779 125.139 160.049 123.86C160.389 116.66 160.659 109.45 160.989 102.25V51.4805" fill="white"/>
<path d="M149.901 75.9502V117.82L150.371 117.44C147.101 116.2 142.951 120.81 146.461 123.11C148.414 124.203 150.58 124.858 152.811 125.03C155.323 125.312 157.867 125.088 160.291 124.37C160.349 124.353 160.401 124.319 160.44 124.273C160.479 124.227 160.504 124.17 160.511 124.11C160.771 118.67 160.981 113.22 161.221 107.77C161.311 105.69 161.461 103.6 161.461 101.51V51.6303C161.461 51.0803 160.461 50.5602 160.461 51.3302V76.5702C160.461 85.0602 160.621 93.5703 160.461 102.06C160.401 105.5 160.161 108.94 160.011 112.38C159.941 114.02 159.881 115.65 159.811 117.29L159.691 119.99L159.631 121.22C159.672 121.831 159.645 122.445 159.551 123.05C159.221 123.68 158.241 123.68 157.601 123.79C156.706 123.948 155.8 124.032 154.891 124.04C153.251 124.061 151.616 123.859 150.031 123.44C148.481 123.02 145.391 122.44 146.471 120.19C146.822 119.474 147.421 118.909 148.156 118.601C148.891 118.292 149.714 118.26 150.471 118.51C150.751 118.62 150.941 118.39 150.941 118.13V76.2602C150.941 75.7002 149.941 75.1802 149.941 75.9502H149.901Z" fill="black"/>
<path d="M180 76.1005V117.98C180.69 117.725 181.441 117.683 182.155 117.862C182.868 118.04 183.512 118.43 184 118.98C184.36 119.306 184.629 119.72 184.781 120.181C184.934 120.642 184.964 121.134 184.87 121.61C184.754 121.926 184.567 122.21 184.325 122.442C184.082 122.674 183.79 122.848 183.47 122.95C179.255 124.816 174.518 125.138 170.09 123.86C169.74 116.66 169.47 109.45 169.09 102.25V51.4805" fill="white"/>
<path d="M179.459 75.8693V117.739C179.459 118.099 179.989 118.589 180.349 118.459C180.777 118.291 181.237 118.224 181.695 118.262C182.152 118.3 182.595 118.443 182.989 118.679C183.989 119.269 184.899 120.679 183.989 121.779C183.079 122.879 181.049 123.209 179.839 123.519C176.547 124.334 173.099 124.272 169.839 123.339L170.509 124.059C170.239 118.499 170.009 112.929 169.759 107.359C169.679 105.429 169.539 103.499 169.539 101.559V51.7192C169.539 51.2692 168.539 50.6193 168.539 51.2393V100.349C168.539 108.089 169.139 115.879 169.539 123.609C169.571 123.78 169.651 123.939 169.77 124.066C169.888 124.194 170.041 124.285 170.209 124.329C172.576 125.004 175.046 125.244 177.499 125.039C179.924 124.931 182.291 124.267 184.419 123.099C186.019 122.049 185.419 120.019 184.329 118.829C183.76 118.171 183.01 117.695 182.173 117.46C181.335 117.226 180.447 117.243 179.619 117.509L180.519 118.229V76.3492C180.519 75.8992 179.519 75.2593 179.519 75.8793L179.459 75.8693Z" fill="black"/>
<path d="M166.22 99.4586C192.078 99.4586 213.04 79.7815 213.04 55.5086C213.04 31.2357 192.078 11.5586 166.22 11.5586C140.362 11.5586 119.4 31.2357 119.4 55.5086C119.4 79.7815 140.362 99.4586 166.22 99.4586Z" fill="#FF5758"/>
<path d="M166.21 10.3486C147.03 10.4186 128.52 21.7786 121.66 40.0386C118.308 49.0184 117.957 58.8426 120.66 68.0386C123.332 76.8384 128.628 84.612 135.84 90.3185C151.32 102.629 173.79 104.099 190.84 94.2286C198.963 89.5495 205.461 82.4972 209.46 74.0186C213.425 65.4358 214.536 55.8087 212.63 46.5486C208.77 27.6886 192.42 13.6986 173.63 10.8686C171.15 10.502 168.647 10.3149 166.14 10.3086C165.37 10.3086 165.36 12.8086 166.14 12.8086C184.57 12.8786 202.55 23.4386 209.56 40.8086C212.938 49.2591 213.291 58.6175 210.56 67.2986C207.837 75.7715 202.563 83.1965 195.46 88.5586C187.887 94.1501 178.87 97.4552 169.478 98.0825C160.085 98.7099 150.709 96.6333 142.46 92.0986C134.584 87.7481 128.201 81.1275 124.14 73.0986C120.105 65.0183 118.965 55.7983 120.91 46.9786C124.97 28.9786 141.13 15.8786 159.09 13.2886C161.455 12.9539 163.841 12.7835 166.23 12.7786C166.99 12.8086 166.99 10.3486 166.21 10.3486Z" fill="black"/>
<path d="M154.89 55.5114C156.768 55.5114 158.29 53.6489 158.29 51.3514C158.29 49.0539 156.768 47.1914 154.89 47.1914C153.012 47.1914 151.49 49.0539 151.49 51.3514C151.49 53.6489 153.012 55.5114 154.89 55.5114Z" fill="black"/>
<path d="M167.23 55.6403C169.108 55.6403 170.63 53.7778 170.63 51.4803C170.63 49.1828 169.108 47.3203 167.23 47.3203C165.352 47.3203 163.83 49.1828 163.83 51.4803C163.83 53.7778 165.352 55.6403 167.23 55.6403Z" fill="black"/>
<path d="M153.039 64.7695C158.209 69.0595 166.209 68.2995 170.619 64.7695" stroke="black" stroke-width="2.5" stroke-miterlimit="10"/>
<path d="M463.821 81.9512V118.351C463.019 118.129 462.178 118.091 461.359 118.238C460.54 118.385 459.765 118.714 459.091 119.201C458.702 119.427 458.395 119.77 458.215 120.182C458.036 120.594 457.992 121.053 458.091 121.491C458.27 121.793 458.512 122.053 458.8 122.253C459.088 122.453 459.416 122.589 459.761 122.651C464.904 124.28 470.381 124.552 475.661 123.441C476.081 117.181 476.411 110.911 476.821 104.651V60.5312" fill="white"/>
<path d="M463.319 81.7608V118.181L463.809 117.831C462.822 117.534 461.773 117.509 460.773 117.759C459.773 118.009 458.86 118.524 458.129 119.251C456.809 120.761 457.729 122.441 459.399 123.081C464.519 125.081 470.579 125.081 475.889 124.011C475.966 123.986 476.033 123.936 476.078 123.869C476.123 123.802 476.145 123.722 476.139 123.641C476.459 118.781 476.729 113.911 477.029 109.051C477.129 107.381 477.289 105.721 477.289 104.051V60.7209C477.289 60.1809 476.289 59.5809 476.289 60.3509V103.051C476.289 104.281 476.229 105.471 476.149 106.701C475.799 112.221 475.499 117.701 475.149 123.271L475.399 122.891C471.599 123.682 467.686 123.76 463.859 123.121C462.847 122.953 461.846 122.729 460.859 122.451C459.939 122.201 458.219 121.961 458.699 120.621C459.329 118.851 462.369 118.491 463.869 118.901C463.924 118.925 463.985 118.935 464.046 118.929C464.106 118.923 464.164 118.901 464.213 118.865C464.263 118.83 464.302 118.783 464.328 118.727C464.353 118.672 464.364 118.611 464.359 118.551V82.1409C464.359 81.5909 463.359 81.0008 463.359 81.7608H463.319Z" fill="black"/>
<path d="M494.04 81.9512V118.351C494.868 118.129 495.734 118.09 496.578 118.237C497.423 118.384 498.225 118.713 498.93 119.201C499.7 119.731 500.36 120.651 500 121.491C499.813 121.796 499.562 122.058 499.266 122.258C498.969 122.458 498.633 122.592 498.28 122.651C492.937 124.281 487.273 124.552 481.8 123.441C481.37 117.181 481.03 110.911 480.6 104.651V60.5312" fill="white"/>
<path d="M493.459 81.8185V118.229C493.459 118.599 494.059 118.859 494.369 118.779C495.355 118.503 496.4 118.531 497.369 118.859C498.259 119.169 499.879 120.058 499.369 121.258C499.019 122.158 497.369 122.419 496.589 122.619C495.589 122.869 494.589 123.079 493.649 123.249C489.699 123.892 485.666 123.825 481.739 123.049L482.349 123.579C482.009 118.719 481.729 113.859 481.419 108.989C481.319 107.329 481.149 105.669 481.149 103.989V60.6685C481.149 60.1685 479.949 59.8285 479.949 60.3985V103.099C479.949 104.329 480.019 105.519 480.099 106.749C480.469 112.269 480.769 117.798 481.099 123.318C481.099 123.598 481.459 123.809 481.709 123.859C487.244 124.972 492.967 124.715 498.379 123.109C499.259 122.839 500.379 122.459 500.569 121.419C500.594 121.027 500.524 120.636 500.366 120.277C500.208 119.919 499.965 119.604 499.659 119.359C498.849 118.654 497.879 118.157 496.834 117.91C495.789 117.663 494.7 117.672 493.659 117.939L494.569 118.499V82.0785C494.569 81.5885 493.369 81.2385 493.369 81.8185H493.459Z" fill="black"/>
<path d="M547.52 49.0513C553.46 42.2013 559.46 35.2913 563.79 27.3513C568.12 19.4113 570.79 10.2612 569.65 1.28125C561.908 8.30676 552.724 13.5558 542.74 16.6613C543.655 11.8729 543.076 6.91912 541.08 2.47125C533.45 8.47125 523.83 12.7113 514.08 13.3013C503.81 13.9213 493.8 10.7213 483.65 9.87128C477.516 9.21185 471.311 9.86292 465.446 11.7814C459.582 13.6999 454.192 16.8421 449.633 21C445.075 25.1579 441.451 30.2365 439.002 35.8999C436.553 41.5633 435.335 47.6822 435.429 53.8516C435.522 60.021 436.925 66.1003 439.544 71.6869C442.163 77.2735 445.939 82.2401 450.622 86.258C455.305 90.2759 460.787 93.2533 466.707 94.9933C472.627 96.7334 478.848 97.1962 484.96 96.3513C508.71 98.0513 539.8 81.8612 557.79 63.8912C562.472 59.1742 566.713 54.0396 570.46 48.5513C572.39 45.7613 574.21 42.8913 575.96 39.9813C577.24 37.8413 578.77 33.0813 580.7 31.6213C570.688 39.2377 559.473 45.1287 547.52 49.0513Z" fill="#FF5758"/>
<path d="M547.801 50.1286C559.721 36.3586 572.611 20.4085 570.181 0.948517C570.181 0.768517 569.901 -0.281478 569.501 0.0785223C561.745 7.08 552.57 12.326 542.601 15.4585L543.271 16.9886C544.22 11.7906 543.593 6.42762 541.471 1.58853C541.391 1.41853 541.161 1.08852 540.931 1.26852C535.024 5.95774 528.164 9.3021 520.831 11.0685C513.051 12.8485 505.221 11.9685 497.441 10.6485C492.861 9.87853 488.301 9.01853 483.671 8.64853C483.191 8.64853 483.121 9.64853 483.121 9.89853L483.671 8.64853C473.921 7.67133 464.124 9.97677 455.833 15.1993C447.542 20.4219 441.231 28.2626 437.901 37.4785C431.221 55.8585 437.091 77.1985 452.721 89.1086C461.937 96.0645 473.51 99.1338 484.961 97.6585L484.461 96.3485C484.461 96.6785 484.531 97.5585 485.011 97.5985C500.011 98.5985 515.231 93.2385 528.391 86.3985C542.741 78.9385 555.871 68.8785 565.941 56.1485C569.265 51.9058 572.337 47.4715 575.141 42.8686C576.182 41.1914 577.11 39.4476 577.921 37.6485C578.681 35.9885 579.441 33.9585 580.921 32.7685C581.501 32.2885 581.221 29.9086 580.621 30.3586C570.601 37.9563 559.393 43.8457 547.451 47.7885C546.781 48.0185 546.901 50.4785 547.751 50.1985C559.693 46.2555 570.9 40.3661 580.921 32.7685L580.621 30.3586C578.211 32.3586 577.371 35.8085 575.951 38.4785C573.636 42.6226 571.033 46.5991 568.161 50.3786C563.168 57.2522 557.351 63.4886 550.841 68.9485C538.633 79.2183 524.521 86.9828 509.311 91.7986C501.489 94.3631 493.265 95.4813 485.041 95.0985L485.591 96.3485C485.591 96.0885 485.511 95.0385 485.041 95.0985C475.607 96.3755 466.015 94.4951 457.762 89.7505C449.508 85.0059 443.056 77.6637 439.411 68.8686C435.813 60.1262 435.308 50.4168 437.981 41.3485C440.65 32.5914 446.054 24.9197 453.401 19.4585C462.109 13.0229 472.897 10.054 483.671 11.1286C484.141 11.1286 484.221 10.1286 484.221 9.87857L483.671 11.1286C491.901 11.8486 499.941 14.0285 508.201 14.5385C515.801 14.9881 523.394 13.5486 530.301 10.3485C534.186 8.55768 537.851 6.32281 541.221 3.68857L540.691 3.36856C542.505 7.44734 543.035 11.9814 542.211 16.3686C542.141 16.7686 542.211 18.1185 542.891 17.9085C552.86 14.776 562.035 9.53001 569.791 2.52853L569.111 1.64853C571.391 19.8985 558.351 35.1885 547.241 48.0085C546.781 48.5085 547.131 50.8986 547.801 50.1286Z" fill="black"/>
<path d="M467.3 53.1306C469.178 53.1306 470.7 51.286 470.7 49.0106C470.7 46.7352 469.178 44.8906 467.3 44.8906C465.423 44.8906 463.9 46.7352 463.9 49.0106C463.9 51.286 465.423 53.1306 467.3 53.1306Z" fill="#2D2D2D"/>
<path d="M482.431 53.2595C484.309 53.2595 485.831 51.4149 485.831 49.1395C485.831 46.8641 484.309 45.0195 482.431 45.0195C480.553 45.0195 479.031 46.8641 479.031 49.1395C479.031 51.4149 480.553 53.2595 482.431 53.2595Z" fill="#2D2D2D"/>
<path d="M466.07 62.3516C471.24 66.6116 480.32 66.7516 483.65 62.3516" stroke="black" stroke-width="2.5" stroke-miterlimit="10"/>
<path d="M125.64 101.611C126.823 101.611 127.957 101.141 128.793 100.305C129.63 99.4686 130.1 98.3342 130.1 97.1514L130.5 73.1514C130.5 71.9685 130.03 70.8341 129.193 69.9977C128.357 69.1613 127.223 68.6914 126.04 68.6914C124.857 68.6914 123.722 69.1613 122.886 69.9977C122.05 70.8341 121.58 71.9685 121.58 73.1514L121.18 97.1514C121.18 98.3342 121.65 99.4686 122.486 100.305C123.322 101.141 124.457 101.611 125.64 101.611Z" fill="#FF5758" stroke="black" stroke-width="3" stroke-miterlimit="10"/>
<path d="M143.81 64.6716C144.765 65.3624 145.507 66.3087 145.949 67.4018C146.391 68.4949 146.516 69.6906 146.31 70.8516C146.104 72.0135 145.575 73.0937 144.782 73.9678C143.99 74.8418 142.966 75.4741 141.83 75.7916L94.5396 89.7916L90.5996 60.9016L104.53 35.3516L143.81 64.6716Z" fill="white" stroke="black" stroke-width="3" stroke-miterlimit="10"/>
<path d="M123.461 80.9518L123.931 81.1219L141.851 75.7919C142.987 75.4744 144.011 74.8421 144.804 73.9681C145.596 73.094 146.126 72.0138 146.331 70.8519C146.538 69.6909 146.413 68.4952 145.97 67.4021C145.528 66.309 144.787 65.3627 143.831 64.6719L129.171 53.6719H128.721C139.181 68.2619 123.461 80.9518 123.461 80.9518Z" fill="#73EBE0" stroke="black" stroke-width="3" stroke-miterlimit="10"/>
<path d="M116.96 65.6409C119.806 49.6272 110.314 34.5478 95.7574 31.9602C81.2009 29.3725 67.0929 40.2565 64.2462 56.2702C61.3995 72.2839 70.8921 87.3633 85.4485 89.951C100.005 92.5386 114.113 81.6547 116.96 65.6409Z" fill="#FF5758" stroke="black" stroke-width="3" stroke-miterlimit="10"/>
<path d="M108.361 63.8424C110.566 51.4392 103.692 39.8447 93.007 37.9453C82.3222 36.0458 71.8729 44.5608 69.6681 56.964C67.4632 69.3671 74.3376 80.9617 85.0225 82.8611C95.7074 84.7605 106.157 76.2455 108.361 63.8424Z" fill="#73EBE0" stroke="black" stroke-width="3" stroke-miterlimit="10"/>
<path d="M90.3295 52.9805L146.049 54.9205L138.619 85.8305L87.6895 67.7805L90.3295 52.9805Z" fill="white" stroke="black" stroke-width="3" stroke-miterlimit="10"/>
<path d="M95.3945 61.5363C96.1214 57.4472 93.8543 53.6245 90.3307 52.9982C86.8072 52.3718 83.3614 55.1789 82.6345 59.268C81.9076 63.357 84.1748 67.1797 87.6984 67.806C91.2219 68.4324 94.6676 65.6253 95.3945 61.5363Z" fill="#FF5758" stroke="black" stroke-width="3" stroke-miterlimit="10"/>
<path d="M117.03 80.6689C114.18 83.2389 112.46 87.9289 116.45 91.6689C117.989 93.0557 119.945 93.8927 122.01 94.0489C122.287 94.0902 122.569 94.0592 122.83 93.9589C123.051 93.8329 123.234 93.6499 123.36 93.429C123.958 92.58 124.218 91.5391 124.09 90.5089C124.019 89.9988 123.801 89.5207 123.461 89.1334C123.122 88.746 122.677 88.4664 122.18 88.3289C122.9 88.1096 123.563 87.734 124.12 87.2289C124.395 86.9704 124.578 86.6307 124.645 86.2599C124.712 85.8891 124.657 85.5067 124.49 85.1689C124.082 84.6757 123.504 84.3514 122.87 84.2589C123.435 83.8657 123.851 83.2936 124.051 82.6349C124.25 81.9763 124.222 81.2696 123.97 80.629C122.76 77.809 119.46 78.4589 117.03 80.6689Z" fill="white" stroke="black" stroke-width="3" stroke-linecap="round" stroke-linejoin="round"/>
<path d="M200.379 90.7405C204.209 90.9305 208.729 88.8405 208.579 83.3505C208.478 81.2783 207.686 79.2997 206.329 77.7305C206.164 77.5073 205.944 77.3314 205.689 77.2205C205.443 77.1557 205.185 77.1557 204.939 77.2205C203.919 77.3999 203.001 77.948 202.359 78.7605C202.05 79.1734 201.867 79.6674 201.833 80.1823C201.799 80.6972 201.916 81.2108 202.169 81.6605C201.501 81.3064 200.764 81.1017 200.009 81.0605C199.633 81.0517 199.265 81.1634 198.957 81.3794C198.649 81.5953 198.419 81.9041 198.299 82.2605C198.242 82.8981 198.42 83.5346 198.799 84.0505C198.122 83.9303 197.425 84.0416 196.819 84.3663C196.213 84.6911 195.734 85.2103 195.459 85.8405C194.289 88.7105 197.079 90.5805 200.379 90.7405Z" fill="white" stroke="black" stroke-width="3" stroke-linecap="round" stroke-linejoin="round"/>
<path d="M262.981 99.1088C264.661 102.559 268.691 105.499 273.411 102.709C275.178 101.621 276.528 99.9683 277.241 98.0187C277.36 97.7666 277.409 97.4865 277.381 97.2087C277.321 96.9636 277.197 96.7391 277.021 96.5588C276.371 95.7504 275.445 95.2122 274.421 95.0488C273.91 94.9769 273.39 95.0549 272.923 95.2733C272.456 95.4916 272.063 95.841 271.791 96.2787C271.777 95.5262 271.6 94.7856 271.271 94.1088C271.097 93.7744 270.821 93.5045 270.482 93.3389C270.144 93.1733 269.761 93.1207 269.391 93.1888C268.807 93.4461 268.337 93.9086 268.071 94.4888C267.838 93.8475 267.398 93.3024 266.82 92.9401C266.242 92.5777 265.559 92.4189 264.881 92.4888C261.811 92.7988 261.521 96.1388 262.981 99.1088Z" fill="white" stroke="black" stroke-width="3" stroke-linecap="round" stroke-linejoin="round"/>
<path d="M277.641 100.28C279.331 103.73 283.351 106.67 288.081 103.89C289.842 102.792 291.186 101.138 291.901 99.1899C292.024 98.9389 292.076 98.6586 292.051 98.3799C291.988 98.1341 291.86 97.9096 291.681 97.7299C291.031 96.9215 290.105 96.3833 289.081 96.2199C288.572 96.1488 288.053 96.2272 287.588 96.4456C287.123 96.664 286.731 97.0129 286.461 97.4499C286.444 96.6966 286.263 95.9561 285.931 95.2799C285.76 94.9452 285.486 94.6748 285.149 94.509C284.812 94.3431 284.43 94.2909 284.061 94.3599C283.476 94.6173 283.007 95.0797 282.741 95.6599C282.506 95.0197 282.066 94.4756 281.488 94.1135C280.911 93.7513 280.229 93.5918 279.551 93.6599C276.461 93.9799 276.191 97.3499 277.641 100.28Z" fill="white" stroke="black" stroke-width="3" stroke-linecap="round" stroke-linejoin="round"/>
<path d="M0 17.8586L28.46 43.6686L30.58 32.4286L53.66 42.5986C53.66 42.5986 23.52 14.5986 23.66 16.0086C23.8 17.4186 20.81 25.0086 20.81 25.0086L0 17.8586Z" fill="#FFD15E"/>
<path d="M23.3496 69.6602L46.5196 68.9001L43.7596 63.9902L58.8696 59.4102C58.8696 59.4102 34.0996 59.9502 34.6696 60.4102C35.2396 60.8702 36.2996 64.7601 36.2996 64.7601L23.3496 69.6602Z" fill="#FFD15E"/>
</g>
<defs>
<clipPath id="clip0_948_56489">
<rect width="581" height="128" fill="white"/>
</clipPath>
</defs>
</svg>
