<svg width="184" height="307" viewBox="0 0 184 307" fill="none" xmlns="http://www.w3.org/2000/svg">
<g clip-path="url(#clip0_1056_116688)">
<path opacity="0.8" d="M99.5552 111.086C116.018 124.944 157.787 144.587 148.347 199.929C139.786 250.126 151.993 281.394 202.858 315.148" stroke="url(#paint0_linear_1056_116688)" stroke-width="2" stroke-dasharray="4 4"/>
<path d="M103.074 23.4703L84.8732 43.1991C81.7244 46.6121 81.9387 51.9315 85.3517 55.0802L96.1202 65.015C99.5332 68.1637 104.853 67.9495 108.001 64.5365L126.203 44.8077C129.351 41.3947 129.137 36.0753 125.724 32.9265L114.956 22.9918C111.543 19.8431 106.223 20.0573 103.074 23.4703Z" fill="#73EBE0"/>
<path d="M95.8586 64.6056L87.4486 56.8467C85.9711 55.4837 84.3128 54.2483 83.5991 52.2855C82.5049 49.2984 83.2819 46.0391 85.3653 43.701C90.6322 37.8097 96.0914 32.0747 101.46 26.2559C102.141 25.5172 102.811 24.768 103.504 24.0398C105.846 21.5928 109.386 20.6405 112.596 21.8353C114.407 22.5065 115.709 23.8656 117.096 25.1448L122.471 30.1041C123.619 31.1631 124.864 32.1854 125.949 33.3125C128.633 36.1152 128.565 40.6591 126.268 43.6733C124.459 46.0441 122.191 48.1488 120.178 50.3309L110.48 60.8434C107.869 63.6732 105.467 66.812 101.173 66.7004C99.1471 66.6507 97.2875 65.8502 95.7786 64.5212C95.5631 64.333 95.8319 64.7598 95.8442 64.7922C95.9972 65.0596 96.2481 65.3121 96.475 65.5109C99.2432 67.949 103.25 68.5318 106.49 66.6505C107.762 65.9098 108.692 64.811 109.678 63.7536L119.376 53.2411C121.788 50.6272 124.255 48.0438 126.621 45.388C128.851 42.8799 129.508 39.3518 128.157 36.2438C127.385 34.4584 126.06 33.0892 124.651 31.7891C121.401 28.7904 118.172 25.7799 114.9 22.793C112.821 20.8961 110.198 19.8747 107.361 20.3609C105.177 20.7334 103.519 21.971 102.062 23.5507C96.2743 29.8241 90.4639 36.0766 84.7095 42.3596C80.9152 46.5064 81.8466 51.973 85.7584 55.6345C88.9536 58.6245 92.2022 61.5794 95.4185 64.5467L96.3845 65.4379C96.7823 65.8049 96.0059 64.7309 95.8472 64.5951L95.8586 64.6056Z" fill="black"/>
<path d="M85.86 66.3505L97.666 53.5537L116.403 33.2447L120.754 28.5283C120.953 28.3123 120.025 27.2883 119.9 27.4246L108.094 40.2215L89.3571 60.5305L85.0058 65.2469C84.8066 65.4628 85.7342 66.4869 85.86 66.3505Z" fill="black"/>
<path d="M88.4232 38.7278L108.675 57.4119L111.562 60.0751C111.823 60.3162 113.137 60.3181 112.795 59.9926L92.543 41.3085L89.6564 38.6453C89.395 38.4041 88.0818 38.4023 88.4232 38.7278Z" fill="black"/>
<path d="M98.345 27.7702L118.597 46.4543L121.484 49.1175C121.7 49.3167 122.015 49.5447 122.302 49.6097C122.358 49.6185 122.834 49.7634 122.607 49.5647L102.355 30.8805L99.4682 28.2173C99.2523 28.0181 98.9367 27.7901 98.6496 27.7251C98.5945 27.7163 98.1181 27.5714 98.345 27.7702Z" fill="black"/>
<path d="M51.0549 99.3163L45.7705 105.044L45.0156 105.862C44.5123 106.408 45.7679 106.883 46.1454 106.473L51.4298 100.746L52.1847 99.9273C52.688 99.3818 51.4324 98.9071 51.0549 99.3163Z" fill="black"/>
<path d="M28.3225 101.666L10.1213 121.394C6.9725 124.807 7.18672 130.127 10.5997 133.276L21.3682 143.21C24.7812 146.359 30.1006 146.145 33.2493 142.732L51.4506 123.003C54.5994 119.59 54.3852 114.271 50.9722 111.122L40.2037 101.187C36.7907 98.0384 31.4713 98.2526 28.3225 101.666Z" fill="#73EBE0"/>
<path d="M39.6003 101.493L47.9307 109.178C49.0786 110.237 50.4226 111.277 51.3704 112.53C53.648 115.557 53.5377 119.884 51.1049 122.783C49.2045 125.048 47.0791 127.158 45.0765 129.329L35.4303 139.785C34.5811 140.705 33.7322 141.637 32.8825 142.546C30.6793 144.9 27.517 145.717 24.4913 144.493C22.7894 143.806 21.5205 142.457 20.1912 141.241L14.9293 136.386C13.7132 135.264 12.4872 134.165 11.2925 133.031C8.89147 130.742 7.93351 127.334 9.02035 124.161C9.55962 122.607 10.5758 121.483 11.6562 120.323L15.3259 116.345L25.1503 105.696C27.6771 102.958 30.1972 99.234 34.3365 99.3081C36.3187 99.3486 38.136 100.184 39.6108 101.481C39.9058 101.743 41.1293 101.146 40.8229 100.874C38.1679 98.53 34.4698 98.0005 31.2076 99.3247C29.5279 100.005 28.2714 101.139 27.0656 102.446L17.8808 112.402C15.1862 115.322 12.4798 118.222 9.80744 121.153C8.03549 123.073 7.04676 125.422 7.2616 128.039C7.47644 130.657 8.88803 132.559 10.7291 134.257C13.9795 137.256 17.2307 140.277 20.4915 143.264C24.4907 146.922 30.3773 146.368 34.0069 142.479C39.8182 136.248 45.5613 129.955 51.3385 123.693C52.6491 122.272 53.7591 120.761 54.1514 118.82C54.7628 115.797 53.6682 112.799 51.4394 110.711C48.2327 107.71 44.9842 104.755 41.7565 101.778L40.7905 100.887C40.495 100.614 39.2716 101.21 39.5784 101.493L39.6003 101.493Z" fill="black"/>
<path d="M45.0215 106.005L19.1132 134.087L15.4225 138.088C14.8563 138.702 16.1735 138.802 16.5509 138.393L42.4592 110.31L46.1499 106.31C46.7161 105.696 45.3989 105.596 45.0215 106.005Z" fill="black"/>
<path d="M47.9009 127.772L27.6488 109.088L24.7621 106.425C24.4666 106.152 23.6634 106.043 23.5156 105.906L43.7678 124.59L46.6545 127.254C46.95 127.526 47.7532 127.636 47.9009 127.772Z" fill="black"/>
<path d="M37.8966 138.003L17.6444 119.319L14.7577 116.656C14.2918 116.226 13.1194 116.459 13.7899 117.078L34.0421 135.762L36.9287 138.425C37.3947 138.855 38.5671 138.622 37.8966 138.003Z" fill="black"/>
<path d="M85.2359 121.478C99.3064 120.912 110.253 109.046 109.687 94.9756C109.12 80.9052 97.2544 69.9581 83.1839 70.5248C69.1134 71.0914 58.1664 82.9572 58.733 97.0276C59.2997 111.098 71.1654 122.045 85.2359 121.478Z" fill="#FFB15E"/>
<path d="M73.6006 51.5273L39.0293 89L66.9309 114.741L101.502 77.2686L73.6006 51.5273Z" fill="#FFB15E"/>
<path d="M79.7339 116.404C93.8044 115.838 104.751 103.972 104.185 89.9014C103.618 75.8309 91.7524 64.8839 77.6819 65.4506C63.6115 66.0172 52.6644 77.8829 53.2311 91.9534C53.7977 106.024 65.6634 116.971 79.7339 116.404Z" fill="#330315"/>
<path d="M74.814 111.869C88.8845 111.302 99.8315 99.4367 99.2649 85.3663C98.6982 71.2958 86.8325 60.3488 72.762 60.9154C58.6915 61.4821 47.7445 73.3478 48.3112 87.4183C48.8778 101.489 60.7435 112.436 74.814 111.869Z" fill="#FFB15E"/>
<path d="M69.7788 107.225C83.8493 106.658 94.7963 94.7922 94.2297 80.7217C93.663 66.6513 81.7973 55.7042 67.7268 56.2709C53.6564 56.8375 42.7094 68.7033 43.276 82.7737C43.8426 96.8442 55.7084 107.791 69.7788 107.225Z" fill="#330315"/>
<path d="M64.8687 102.689C78.9392 102.123 89.8862 90.2571 89.3195 76.1866C88.7529 62.1161 76.8872 51.1691 62.8167 51.7357C48.7462 52.3024 37.7992 64.1681 38.3658 78.2386C38.9325 92.3091 50.7982 103.256 64.8687 102.689Z" fill="#FFB15E"/>
<path d="M57.3355 95.7402C71.406 95.1736 82.353 83.3078 81.7863 69.2374C81.2197 55.1669 69.354 44.2199 55.2835 44.7865C41.213 45.3531 30.266 57.2189 30.8326 71.2893C31.3993 85.3598 43.265 96.3068 57.3355 95.7402Z" fill="#FFB15E"/>
<path d="M101.626 76.6581L76.4642 53.4445C75.43 52.4903 74.4058 51.5139 73.3507 50.5825C69.401 47.0649 64.4199 44.8362 59.1652 44.2381C48.5571 43.0348 38.1292 48.751 33.3148 58.268C28.5003 67.785 29.8505 78.7607 36.1896 86.7234C37.5151 88.388 39.0821 89.8021 40.6395 91.2495L46.8902 97.0162L62.5964 111.506C63.9375 112.744 65.2785 113.981 66.6196 115.218C69.7559 118.101 73.4417 120.229 77.5672 121.321C87.8327 124.07 98.9196 120.045 105.105 111.425C111.291 102.805 111.565 91.676 106.526 82.8513C105.207 80.5408 103.548 78.4738 101.604 76.659C101.183 76.2601 101.051 77.6004 101.347 77.873C109.318 85.3431 111.711 97.2071 106.701 107.038C101.692 116.87 91.3792 121.925 80.8974 120.596C75.728 119.94 70.8753 117.64 67.0244 114.129C66.1043 113.291 65.206 112.452 64.2855 111.602L49.9885 98.4124C46.4313 95.1307 42.8631 91.8493 39.3055 88.5566C32.2352 82.0022 29.2496 71.9896 32.3017 62.7296C35.6162 52.6493 45.2598 45.6625 55.8334 45.4665C60.9944 45.3681 66.1212 46.8687 70.4064 49.7491C72.1158 50.8949 73.5941 52.2798 75.0943 53.6638L100.654 77.2444L101.336 77.8735C101.768 78.2719 101.889 76.932 101.593 76.6594L101.626 76.6581Z" fill="black"/>
<path d="M54.5001 77.8443C59.3327 77.201 62.8659 72.5504 63.1607 68.4569" stroke="black" stroke-width="1.59" stroke-miterlimit="10"/>
<path d="M49.356 80.457C50.623 80.406 51.6088 79.3374 51.5578 78.0704C51.5068 76.8033 50.4383 75.8175 49.1712 75.8685C47.9041 75.9196 46.9183 76.9881 46.9693 78.2552C47.0204 79.5222 48.0889 80.508 49.356 80.457Z" fill="black"/>
<path d="M64.4944 61.6431C65.4263 62.5028 65.4849 63.9558 64.6251 64.8878C63.7653 65.8197 62.3123 65.8782 61.3804 65.0184C60.4485 64.1587 60.39 62.7057 61.2497 61.7737C62.1095 60.8418 63.5625 60.7833 64.4944 61.6431Z" fill="black"/>
<path d="M35.9798 62.2308L22.6654 59.5826C21.6175 59.3732 20.942 58.3608 21.1515 57.3128C21.361 56.2649 22.3733 55.5894 23.4213 55.7989C23.5314 55.8163 23.6534 55.8552 23.7534 55.8949L36.3741 60.8799C36.7298 61.0188 36.9104 61.4273 36.7715 61.7831C36.6423 62.1056 36.3098 62.2722 35.9789 62.2089L35.9798 62.2308Z" fill="black"/>
<path d="M44.1231 52.4398L38.8795 39.3447C38.4785 38.3541 38.9589 37.2405 39.9495 36.8395C40.9401 36.4385 42.0537 36.9189 42.4547 37.9095C42.4914 38.0065 42.529 38.1254 42.5553 38.2337L45.4638 52.0356C45.5447 52.4153 45.297 52.7864 44.9282 52.8669C44.5917 52.9352 44.2561 52.7517 44.1341 52.4393L44.1231 52.4398Z" fill="black"/>
</g>
<defs>
<linearGradient id="paint0_linear_1056_116688" x1="107.383" y1="118.601" x2="177.591" y2="291.119" gradientUnits="userSpaceOnUse">
<stop/>
<stop offset="1" stop-opacity="0"/>
</linearGradient>
<clipPath id="clip0_1056_116688">
<rect width="184" height="307" fill="white"/>
</clipPath>
</defs>
</svg>
