<svg width="236" height="247" viewBox="0 0 236 247" fill="none" xmlns="http://www.w3.org/2000/svg">
<path d="M72.1987 185.89C76.2887 181.8 63.1987 175.21 61.5787 169.99C57.0887 155.59 54.8487 139.76 56.5787 124.7C58.9053 105.86 68.5655 88.696 83.4642 76.9314C98.363 65.1668 117.299 59.7498 136.166 61.8555C155.032 63.9611 172.308 73.4195 184.246 88.1794C196.185 102.939 201.823 121.81 199.939 140.7C198.927 148.63 196.789 156.375 193.589 163.7C192.014 167.456 190.245 171.128 188.289 174.7C186.609 177.79 184.189 180.76 182.979 184.06C182.199 186.2 180.979 188.16 180.269 190.33C179.269 193.33 180.439 196.13 182.499 198.27" fill="#B9B0FF"/>
<path d="M72.6701 187.648C74.1401 186.098 74.1802 183.568 73.4502 181.648C72.6651 179.933 71.523 178.406 70.1002 177.168C68.4902 175.588 66.7601 174.168 65.1601 172.528C64.4362 171.817 63.7675 171.051 63.1601 170.238C62.5387 169.331 62.0974 168.312 61.8601 167.238C57.6901 153.168 55.6701 138.128 57.6601 123.508C59.2233 112.775 63.225 102.542 69.358 93.5955C75.491 84.649 83.5924 77.2267 93.0401 71.8982C102.58 66.4931 113.236 63.3558 124.182 62.7291C135.129 62.1024 146.073 64.003 156.167 68.284C166.262 72.565 175.236 79.1115 182.394 87.4167C189.553 95.7218 194.705 105.563 197.45 116.178C200.339 127.8 200.122 139.977 196.82 151.488C194.681 158.783 191.757 165.824 188.1 172.488C186.46 175.548 184.28 178.318 182.83 181.488C182.13 183.048 181.5 184.628 180.77 186.178C179.972 187.706 179.419 189.349 179.13 191.048C178.922 192.671 179.075 194.32 179.58 195.876C180.085 197.432 180.929 198.857 182.05 200.048C183.19 201.268 183.75 197.388 182.95 196.528C181.95 195.528 180.86 194.098 180.82 192.588C180.78 191.078 181.94 189.258 182.6 187.868C183.26 186.478 183.87 184.698 184.67 183.188C185.47 181.678 186.5 180.188 187.43 178.688C191.341 172.282 194.502 165.447 196.85 158.318C201.143 146.083 202.315 132.971 200.26 120.168C198.46 109.398 194.312 99.156 188.109 90.1691C181.907 81.1823 173.802 73.6709 164.37 68.1682C154.759 62.6722 144.021 59.4411 132.973 58.7207C121.925 58.0003 110.858 59.8096 100.615 64.0108C90.3716 68.2121 81.2215 74.6947 73.8612 82.9652C66.5008 91.2358 61.1241 101.076 58.1401 111.738C54.3001 125.078 54.3602 139.408 56.5602 153.028C57.1802 156.858 57.9702 160.668 58.9302 164.428C59.3435 166.068 59.7901 167.698 60.2701 169.318C60.5859 170.627 61.0736 171.888 61.7202 173.068C63.9902 176.788 67.9802 179.148 70.7202 182.428C71.2402 183.038 71.5601 183.828 72.0501 184.428C72.0501 184.358 71.9801 184.648 72.0501 184.368C72.0647 184.162 72.0647 183.955 72.0501 183.748C71.9701 183.588 72.1801 183.678 72.0501 183.748C71.9201 183.818 71.7802 184.078 71.6902 184.178C70.8902 185.008 71.4302 188.918 72.5902 187.688L72.6701 187.648Z" fill="black"/>
<path d="M119.38 132.93C119.235 134.225 118.71 135.449 117.87 136.445C117.03 137.442 115.914 138.167 114.662 138.53C113.41 138.892 112.079 138.875 110.837 138.481C109.594 138.086 108.497 137.332 107.683 136.314C106.869 135.296 106.375 134.06 106.264 132.761C106.153 131.463 106.43 130.16 107.059 129.019C107.688 127.877 108.641 126.948 109.798 126.348C110.955 125.749 112.264 125.506 113.56 125.65C114.42 125.746 115.253 126.01 116.011 126.428C116.769 126.845 117.437 127.408 117.977 128.084C118.518 128.76 118.92 129.536 119.161 130.368C119.401 131.199 119.476 132.07 119.38 132.93Z" fill="black"/>
<path d="M148.53 136.399C148.386 137.694 147.86 138.917 147.02 139.914C146.181 140.911 145.064 141.636 143.812 141.998C142.56 142.361 141.229 142.344 139.987 141.949C138.745 141.555 137.647 140.801 136.833 139.783C136.019 138.765 135.526 137.529 135.415 136.23C135.303 134.931 135.58 133.629 136.209 132.488C136.838 131.346 137.791 130.417 138.948 129.817C140.106 129.217 141.415 128.974 142.71 129.119C143.57 129.214 144.403 129.479 145.161 129.896C145.919 130.314 146.587 130.877 147.128 131.553C147.668 132.229 148.07 133.005 148.311 133.836C148.551 134.668 148.626 135.538 148.53 136.399Z" fill="black"/>
<path d="M182.83 150.051C182.687 151.331 182.168 152.54 181.338 153.525C180.508 154.51 179.405 155.227 178.167 155.584C176.93 155.942 175.614 155.925 174.387 155.534C173.16 155.144 172.076 154.398 171.272 153.392C170.468 152.385 169.982 151.163 169.873 149.88C169.764 148.596 170.039 147.31 170.661 146.182C171.284 145.055 172.227 144.138 173.372 143.547C174.516 142.955 175.81 142.717 177.09 142.861C178.804 143.055 180.371 143.921 181.447 145.269C182.524 146.617 183.021 148.337 182.83 150.051Z" fill="#9F9AF8"/>
<path d="M91.0292 100.32C90.9286 101.224 90.5621 102.078 89.976 102.774C89.3899 103.47 88.6104 103.977 87.7364 104.23C86.8623 104.483 85.9329 104.471 85.0656 104.195C84.1983 103.92 83.4322 103.394 82.8641 102.683C82.296 101.972 81.9514 101.109 81.8741 100.202C81.7967 99.2954 81.99 98.3862 82.4295 97.5894C82.8689 96.7926 83.5347 96.1441 84.3428 95.7258C85.1509 95.3075 86.065 95.1383 86.9693 95.2395C87.5699 95.3054 88.1515 95.4892 88.6808 95.7805C89.2102 96.0717 89.6768 96.4645 90.054 96.9365C90.4312 97.4084 90.7116 97.9502 90.879 98.5308C91.0463 99.1113 91.0973 99.7192 91.0292 100.32Z" fill="#9F9AF8"/>
<path d="M171.44 164.798C171.367 165.453 171.101 166.071 170.677 166.574C170.252 167.078 169.688 167.444 169.055 167.627C168.422 167.81 167.75 167.801 167.122 167.601C166.495 167.402 165.94 167.021 165.529 166.506C165.118 165.992 164.869 165.367 164.813 164.711C164.757 164.054 164.897 163.396 165.215 162.82C165.533 162.243 166.015 161.774 166.599 161.471C167.184 161.168 167.846 161.045 168.5 161.118C168.935 161.167 169.356 161.3 169.739 161.512C170.122 161.723 170.459 162.007 170.733 162.349C171.006 162.691 171.208 163.083 171.33 163.503C171.451 163.923 171.489 164.364 171.44 164.798Z" fill="#9F9AF8"/>
<path d="M146.342 156.817C147.129 149.791 138.112 143.015 126.201 141.681C114.291 140.347 103.998 144.961 103.212 151.987C102.425 159.012 111.442 165.788 123.352 167.122C135.262 168.456 145.555 163.842 146.342 156.817Z" fill="#FFC9C7" stroke="black" stroke-width="2.67" stroke-miterlimit="10"/>
<path d="M116.119 154.198C118.765 155.916 121.861 156.808 125.015 156.76C128.169 156.712 131.237 155.726 133.829 153.928C134.389 153.518 134.989 152.928 134.739 152.238" stroke="black" stroke-width="2.67" stroke-miterlimit="10"/>
<path d="M130.999 128.421L124.669 127.741L119.129 111.641L124.709 112.261L127.269 120.521C127.462 121.107 127.642 121.707 127.809 122.321C127.979 122.931 128.139 123.541 128.279 124.131C128.539 123.581 128.829 123.031 129.129 122.471C129.429 121.911 129.739 121.371 130.049 120.831L134.379 113.351L139.959 113.971L130.999 128.421Z" fill="black"/>
<path d="M89.0195 175.74C92.5961 174.83 96.3609 174.987 99.8496 176.19C101.627 176.852 103.226 177.919 104.518 179.308C105.809 180.697 106.759 182.369 107.29 184.19C108.277 182.636 109.714 181.419 111.41 180.7C115.642 178.588 120.431 177.86 125.1 178.62C129.91 179.43 134.94 182.18 135.56 187.97C135.65 186.2 137.94 184.29 139.26 183.45C141.514 182.251 144.095 181.809 146.62 182.19" stroke="black" stroke-width="2.56" stroke-miterlimit="10"/>
<path d="M60.6002 177.56C64.6902 173.46 63.2002 175.21 61.6002 169.99C57.1102 155.59 54.8702 139.76 56.6002 124.7C58.9268 105.86 68.587 88.696 83.4857 76.9314C98.3845 65.1668 117.32 59.7498 136.187 61.8555C155.054 63.9611 172.329 73.4195 184.268 88.1794C196.206 102.939 201.845 121.81 199.96 140.7C198.949 148.63 196.81 156.375 193.61 163.7C192.035 167.456 190.266 171.128 188.31 174.7C186.63 177.79 184.21 180.76 183 184.06C182.22 186.2 181 188.16 180.29 190.33C179.29 193.33 180.46 196.13 182.52 198.27" fill="#B9B0FF"/>
<path d="M61.05 179.301C62.57 177.791 64.15 176.521 64.12 174.191C64.12 172.191 62.7801 170.381 62.2101 168.531C60.0941 161.746 58.5749 154.79 57.67 147.741C56.12 135.391 56.5701 122.641 60.5801 110.741C65.6662 95.9351 75.473 83.2088 88.4938 74.5173C101.515 65.8258 117.029 61.6499 132.653 62.6313C148.277 63.6126 163.147 69.6969 174.978 79.9493C186.809 90.2017 194.946 104.055 198.14 119.381C200.38 130.941 199.629 142.882 195.96 154.071C193.8 160.894 190.92 167.467 187.37 173.681C185.72 176.531 183.68 179.161 182.44 182.221C181.2 185.281 179.32 188.141 179.03 191.391C178.887 192.959 179.081 194.539 179.599 196.025C180.116 197.512 180.945 198.871 182.03 200.011C183.17 201.231 183.73 197.361 182.93 196.511C181.93 195.461 180.84 194.071 180.8 192.511C180.76 190.951 181.8 189.451 182.39 188.171C182.98 186.891 183.58 185.281 184.26 183.871C185.062 182.305 185.957 180.789 186.94 179.331C190.737 173.24 193.846 166.747 196.21 159.971C200.598 148.215 202.13 135.585 200.68 123.121C199.391 112.801 195.956 102.866 190.596 93.953C185.236 85.0404 178.071 77.3482 169.56 71.3709C160.905 65.3958 151.057 61.3699 140.695 59.5711C130.333 57.7723 119.704 58.2435 109.541 60.9521C99.379 63.6607 89.9255 68.5423 81.8333 75.2598C73.741 81.9773 67.2029 90.3708 62.67 99.8609C57.7315 110.369 55.1544 121.831 55.12 133.441C55.0301 140.683 55.6397 147.916 56.9401 155.041C57.6067 158.628 58.3934 162.188 59.3 165.721C59.9632 168.637 60.8939 171.486 62.0801 174.231C62.1792 174.558 62.3203 174.87 62.5 175.161C62.13 174.801 62.42 174.061 62.5 173.591C62.58 173.121 62.7 173.251 62.5 173.351C62.3 173.451 61.9 174.071 61.66 174.351L60.1801 175.841C59.3701 176.641 59.8801 180.531 61.0801 179.331L61.05 179.301Z" fill="black"/>
<path d="M177.929 158.598C177.786 159.878 177.267 161.087 176.437 162.072C175.608 163.057 174.504 163.774 173.267 164.131C172.029 164.489 170.714 164.471 169.486 164.081C168.259 163.691 167.175 162.945 166.372 161.939C165.568 160.932 165.081 159.71 164.972 158.427C164.864 157.143 165.138 155.857 165.761 154.729C166.384 153.602 167.327 152.685 168.471 152.093C169.615 151.502 170.909 151.264 172.189 151.408C173.902 151.604 175.468 152.471 176.543 153.818C177.619 155.166 178.117 156.884 177.929 158.598Z" fill="#9F9AF8"/>
<path d="M167.789 171.01C167.718 171.668 167.452 172.289 167.027 172.796C166.602 173.302 166.036 173.671 165.401 173.856C164.766 174.04 164.09 174.032 163.46 173.832C162.829 173.633 162.272 173.25 161.859 172.733C161.447 172.217 161.196 171.589 161.141 170.93C161.085 170.271 161.226 169.61 161.546 169.031C161.867 168.453 162.352 167.982 162.939 167.679C163.527 167.376 164.192 167.255 164.849 167.33C165.726 167.431 166.528 167.874 167.078 168.564C167.629 169.253 167.885 170.133 167.789 171.01Z" fill="#9F9AF8"/>
<path d="M110.41 107.679C110.033 108.927 109.294 110.036 108.287 110.864C107.28 111.692 106.05 112.203 104.752 112.331C103.454 112.46 102.148 112.201 100.998 111.587C99.8474 110.973 98.9052 110.031 98.2903 108.881C97.6755 107.731 97.4156 106.425 97.5435 105.127C97.6715 103.829 98.1815 102.599 99.0091 101.591C99.8367 100.583 100.945 99.8439 102.193 99.4662C103.441 99.0884 104.773 99.0894 106.02 99.469C106.848 99.7195 107.618 100.131 108.286 100.679C108.955 101.227 109.509 101.902 109.917 102.664C110.324 103.427 110.578 104.262 110.663 105.123C110.747 105.983 110.661 106.852 110.41 107.679Z" fill="black"/>
<path d="M138.439 116.391C138.061 117.636 137.322 118.74 136.316 119.566C135.31 120.391 134.082 120.899 132.787 121.027C131.492 121.154 130.189 120.895 129.041 120.282C127.894 119.668 126.954 118.729 126.34 117.581C125.726 116.434 125.467 115.13 125.594 113.835C125.721 112.54 126.229 111.312 127.054 110.306C127.879 109.3 128.984 108.561 130.229 108.183C131.474 107.804 132.803 107.804 134.049 108.181C134.876 108.431 135.646 108.842 136.315 109.39C136.983 109.939 137.537 110.613 137.945 111.376C138.353 112.138 138.606 112.974 138.691 113.834C138.776 114.695 138.69 115.563 138.439 116.391Z" fill="black"/>
<path d="M136.21 137.739C136.309 139.743 135.988 141.745 135.266 143.617C134.544 145.489 133.439 147.19 132.02 148.609C126.02 154.529 116.02 156.609 107.96 155.109C99.5001 153.559 92.1601 147.779 87.9601 140.369C85.1601 135.459 83.5401 128.799 86.5601 123.679C90.0501 117.769 97.5601 116.039 103.91 116.939C110.195 117.793 116.343 119.456 122.2 121.889C126.74 123.819 131.6 126.709 134.2 131.039C135.424 133.067 136.116 135.372 136.21 137.739Z" fill="#FFC9C7"/>
<path d="M136.409 137.74C136.54 140.777 135.849 143.793 134.409 146.47C132.833 149.168 130.644 151.456 128.019 153.15C124.061 155.719 119.482 157.169 114.767 157.345C110.052 157.521 105.377 156.417 101.239 154.15C98.5661 152.675 96.0927 150.863 93.8791 148.76C91.6683 146.699 89.7051 144.386 88.0291 141.87C86.2909 139.331 84.9897 136.519 84.1791 133.55C83.2636 130.393 83.4147 127.023 84.6091 123.96C85.9936 120.861 88.4212 118.345 91.4692 116.85C94.4098 115.398 97.6496 114.655 100.929 114.68C102.518 114.678 104.103 114.812 105.669 115.08C107.169 115.31 108.669 115.6 110.149 115.93C116.152 117.164 121.873 119.504 127.019 122.83C129.583 124.562 131.815 126.74 133.609 129.26C135.316 131.77 136.286 134.708 136.409 137.74ZM136.009 137.74C135.881 134.817 134.722 132.032 132.739 129.88C130.751 127.829 128.371 126.2 125.739 125.09C123.103 123.953 120.398 122.984 117.639 122.19C114.889 121.35 112.099 120.63 109.279 120.06C107.869 119.76 106.449 119.5 105.029 119.27C103.675 119.019 102.305 118.865 100.929 118.81C98.2665 118.682 95.6096 119.161 93.1591 120.21C90.7835 121.234 88.8117 123.013 87.5491 125.27C86.3476 127.686 85.9348 130.418 86.3691 133.08C86.7627 135.914 87.7327 138.636 89.2192 141.08C90.692 143.589 92.5707 145.836 94.7791 147.73C95.889 148.657 97.0692 149.496 98.3091 150.24C99.5559 150.954 100.857 151.569 102.199 152.08C104.845 153.049 107.624 153.602 110.439 153.72C116.043 154.036 121.646 153.069 126.819 150.89C128.115 150.325 129.351 149.631 130.509 148.82C131.086 148.407 131.64 147.963 132.169 147.49C132.684 146.995 133.159 146.46 133.589 145.89C135.315 143.536 136.17 140.655 136.009 137.74Z" fill="black"/>
<path d="M119.36 133.571C119.881 133.727 120.356 134.008 120.744 134.39C121.132 134.771 121.421 135.241 121.585 135.76C121.75 136.278 121.785 136.829 121.689 137.364C121.592 137.899 121.366 138.403 121.03 138.831C119.507 140.723 117.454 142.116 115.133 142.832C112.812 143.548 110.33 143.554 108.006 142.849C105.682 142.143 103.622 140.76 102.09 138.875C100.558 136.99 99.6253 134.69 99.4104 132.271C99.3684 131.73 99.4594 131.186 99.6755 130.688C99.8916 130.19 100.226 129.752 100.65 129.413C101.074 129.074 101.575 128.844 102.108 128.742C102.641 128.641 103.192 128.671 103.71 128.831L119.36 133.571Z" fill="black"/>
<path d="M129.85 87.0103L123.75 85.1603L121.24 68.3203L126.6 69.9503L127.6 78.5403C127.68 79.1469 127.75 79.7669 127.81 80.4003C127.81 81.0303 127.91 81.6603 127.94 82.2703C128.3 81.7703 128.68 81.2703 129.08 80.7903C129.48 80.3103 129.88 79.7903 130.28 79.3503L135.9 72.7703L141.27 74.4003L129.85 87.0103Z" fill="black"/>
<path d="M63.0992 161.041C50.9892 161.651 50.2092 147.751 46.4692 140.531C45.07 137.807 42.7344 135.68 39.8922 134.541C37.05 133.402 33.8921 133.327 30.9991 134.331C22.7591 137.331 22.7891 145.671 24.9991 153.281C29.8291 169.891 43.6191 182.771 69.9991 182.141" fill="#B9B0FF"/>
<path d="M63.0992 161.041C50.9892 161.651 50.2092 147.751 46.4692 140.531C45.07 137.807 42.7344 135.68 39.8922 134.541C37.05 133.402 33.8921 133.327 30.9991 134.331C22.7591 137.331 22.7891 145.671 24.9991 153.281C29.8291 169.891 43.6191 182.771 69.9991 182.141" stroke="black" stroke-width="2.6" stroke-miterlimit="10"/>
<path d="M171.11 184.2C175.2 183.54 177.33 187.87 176.11 191.55C175.11 194.55 166.7 195.38 165.61 198.31C163.06 205.14 154.891 208.87 147.231 208.02C144.438 207.776 141.763 206.779 139.493 205.134C137.223 203.489 135.442 201.258 134.341 198.68C132.648 200.896 130.411 202.636 127.847 203.731C125.283 204.826 122.48 205.238 119.709 204.928C116.938 204.618 114.295 203.596 112.036 201.961C109.778 200.327 107.981 198.135 106.821 195.6C105.177 197.87 102.948 199.65 100.371 200.751C97.7943 201.852 94.9666 202.232 92.1905 201.85C84.4605 200.99 75.6604 193.66 79.1304 185.05" fill="#B9B0FF"/>
<path d="M171.11 184.2C175.2 183.54 177.33 187.87 176.11 191.55C175.11 194.55 166.7 195.38 165.61 198.31C163.06 205.14 154.891 208.87 147.231 208.02C144.438 207.776 141.763 206.779 139.493 205.134C137.223 203.489 135.442 201.258 134.341 198.68C132.648 200.896 130.411 202.636 127.847 203.731C125.283 204.826 122.48 205.238 119.709 204.928C116.938 204.618 114.295 203.596 112.036 201.961C109.778 200.327 107.981 198.135 106.821 195.6C105.177 197.87 102.948 199.65 100.371 200.751C97.7943 201.852 94.9666 202.232 92.1905 201.85C84.4605 200.99 75.6604 193.66 79.1304 185.05" stroke="black" stroke-width="2.6" stroke-miterlimit="10"/>
<path d="M90.459 174.85C94.0356 173.94 97.8002 174.096 101.289 175.3C103.066 175.963 104.663 177.032 105.954 178.42C107.246 179.809 108.196 181.48 108.729 183.3C109.72 181.748 111.156 180.531 112.849 179.81C117.081 177.696 121.871 176.971 126.539 177.74C131.339 178.55 136.369 181.3 136.989 187.08C137.089 185.31 139.369 183.4 140.699 182.56C142.953 181.359 145.534 180.917 148.059 181.3" stroke="black" stroke-width="2.56" stroke-linecap="round" stroke-linejoin="round"/>
<path d="M48.3695 98.8412C48.3682 96.4074 47.5517 94.0441 46.0502 92.1286C44.5487 90.2132 42.4487 88.8559 40.0856 88.2735C37.7225 87.691 35.2324 87.917 33.0127 88.9153C30.793 89.9136 28.9718 91.6267 27.8396 93.7812C27.1512 92.4743 26.2042 91.3211 25.056 90.3918C23.9079 89.4625 22.5828 88.7764 21.1611 88.3754C19.7395 87.9744 18.2512 87.8667 16.7866 88.059C15.3221 88.2514 13.912 88.7396 12.6421 89.494C11.3722 90.2485 10.2692 91.2534 9.39991 92.4477C8.53065 93.6419 7.91335 95.0005 7.58571 96.4408C7.25806 97.8811 7.22691 99.373 7.49403 100.826C7.76115 102.278 8.32098 103.662 9.13954 104.891C9.13954 104.891 13.2696 113.361 27.8396 119.581C41.6596 113.681 46.0695 105.751 46.4895 104.961C47.7186 103.157 48.3739 101.024 48.3695 98.8412Z" fill="#FD6969" stroke="black" stroke-width="2.6" stroke-linejoin="round"/>
<path d="M227.079 138.861C227.074 136.428 226.252 134.066 224.747 132.155C223.241 130.243 221.138 128.891 218.774 128.315C216.41 127.739 213.92 127.973 211.704 128.978C209.488 129.983 207.673 131.703 206.549 133.861C205.865 132.547 204.92 131.387 203.773 130.451C202.625 129.515 201.298 128.823 199.874 128.417C198.449 128.011 196.957 127.9 195.488 128.091C194.02 128.281 192.605 128.769 191.331 129.525C190.058 130.281 188.952 131.289 188.081 132.487C187.21 133.686 186.593 135.049 186.267 136.494C185.941 137.938 185.913 139.434 186.185 140.89C186.457 142.346 187.024 143.731 187.849 144.961C187.849 144.961 191.969 153.441 206.539 159.651C220.359 153.751 224.779 145.831 225.189 145.031C226.433 143.215 227.093 141.062 227.079 138.861Z" fill="#FD6969" stroke="black" stroke-width="2.6" stroke-linejoin="round"/>
<path d="M170.22 182.741C178.5 182.531 182.35 180.741 187.7 174.741C189.477 172.737 191.919 171.443 194.575 171.1C197.231 170.756 199.922 171.385 202.15 172.871C211.15 179.041 205.36 189.611 198.91 194.281C190.3 200.511 181.78 203.871 161.91 202.281" fill="#B9B0FF"/>
<path d="M170.22 182.741C178.5 182.531 182.35 180.741 187.7 174.741C189.477 172.737 191.919 171.443 194.575 171.1C197.231 170.756 199.922 171.385 202.15 172.871C211.15 179.041 205.36 189.611 198.91 194.281C190.3 200.511 181.78 203.871 161.91 202.281" stroke="black" stroke-width="2.28" stroke-miterlimit="10"/>
<path d="M150.049 65.9816L166.829 53.1016L168.039 53.8216L166.119 73.5816" fill="#B9B0FF"/>
<path d="M150.049 65.9816L166.829 53.1016L168.039 53.8216L166.119 73.5816" stroke="black" stroke-width="3.08" stroke-miterlimit="10"/>
<path d="M171.992 59.2181C175.61 56.9204 176.68 52.1251 174.382 48.5073C172.085 44.8896 167.289 43.8194 163.672 46.117C160.054 48.4147 158.984 53.2101 161.281 56.8279C163.579 60.4456 168.374 61.5158 171.992 59.2181Z" fill="#B9B0FF" stroke="black" stroke-width="3.08" stroke-miterlimit="10"/>
<path d="M166.509 56.4086L165.519 55.5586L153.439 65.4386L165.349 64.7386L166.509 56.4086Z" fill="#B9B0FF"/>
<path d="M56.52 169.66C54.307 171.228 52.7512 173.558 52.1514 176.203C51.5515 178.848 51.9499 181.621 53.27 183.99C56.82 190.51 65.8101 193.31 73.3501 190.26C76.2689 189.122 78.7298 187.051 80.3501 184.37" fill="#B9B0FF"/>
<path d="M56.52 169.66C54.307 171.228 52.7512 173.558 52.1514 176.203C51.5515 178.848 51.9499 181.621 53.27 183.99C56.82 190.51 65.8101 193.31 73.3501 190.26C76.2689 189.122 78.7298 187.051 80.3501 184.37" stroke="black" stroke-width="2.5" stroke-miterlimit="10"/>
<path d="M185.269 43.289C183.637 40.0908 181.1 37.4434 177.974 35.676C174.848 33.9087 171.272 33.0994 167.689 33.349" stroke="#B3B3B3" stroke-width="7" stroke-linecap="round" stroke-linejoin="round"/>
<path d="M197.719 39.2387C194.708 32.6936 189.557 27.3698 183.115 24.145C176.672 20.9202 169.323 19.9868 162.279 21.4987" stroke="#B3B3B3" stroke-width="7" stroke-linecap="round" stroke-linejoin="round"/>
<path d="M210.979 36.1301C206.466 26.322 198.747 18.3438 189.093 13.5103C179.438 8.6769 168.426 7.27655 157.869 9.54007" stroke="#B3B3B3" stroke-width="7" stroke-linecap="round" stroke-linejoin="round"/>
<g style="mix-blend-mode:multiply">
<path d="M124.4 243.161C147.138 243.161 165.57 239.718 165.57 235.471C165.57 231.224 147.138 227.781 124.4 227.781C101.663 227.781 83.2305 231.224 83.2305 235.471C83.2305 239.718 101.663 243.161 124.4 243.161Z" fill="#C7C7C7"/>
</g>
</svg>
