<svg width="89" height="31" viewBox="0 0 89 31" fill="none" xmlns="http://www.w3.org/2000/svg">
<path d="M12.675 13.0105H15.0124V14.4783C15.0124 14.8547 14.8287 15.0428 14.4613 15.0428H12.675V22.8326C12.675 23.2089 12.4976 23.3971 12.1429 23.3971H10.3756V7.45908C10.3756 7.08271 10.5593 6.89453 10.9267 6.89453H12.675V13.0105ZM7.90525 18.1855C7.90525 18.5619 7.82924 18.8316 7.67722 18.9947C7.52519 19.1452 7.26549 19.2205 6.89809 19.2205H1.02616C0.658771 19.2205 0.392729 19.1452 0.228036 18.9947C0.0760121 18.8316 0 18.5619 0 18.1855V9.32209C0 8.94572 0.0760121 8.68227 0.228036 8.53172C0.392729 8.36863 0.658771 8.28708 1.02616 8.28708H7.90525V18.1855ZM2.75544 10.2065C2.56541 10.2065 2.43872 10.2379 2.37538 10.3006C2.3247 10.3634 2.29936 10.4888 2.29936 10.677V16.8306C2.29936 17.0188 2.3247 17.1442 2.37538 17.207C2.43872 17.2697 2.56541 17.301 2.75544 17.301H5.14982C5.32718 17.301 5.44753 17.2697 5.51087 17.207C5.57422 17.1442 5.60589 17.0188 5.60589 16.8306V10.2065H2.75544Z" fill="white"/>
<path d="M29.6253 22.8326C29.6253 23.2089 29.4479 23.3971 29.0932 23.3971H27.3259V7.45908C27.3259 7.08271 27.5096 6.89453 27.877 6.89453H29.6253V22.8326ZM20.5228 8.24945C22.0558 8.24945 23.1769 8.68227 23.8864 9.54791C24.6085 10.4136 24.9696 11.7747 24.9696 13.6315C24.9696 15.5008 24.6148 16.8682 23.9054 17.7339C23.1959 18.587 22.0684 19.0135 20.5228 19.0135C18.9773 19.0135 17.8498 18.587 17.1403 17.7339C16.4309 16.8682 16.0761 15.5008 16.0761 13.6315C16.0761 11.7747 16.4309 10.4136 17.1403 9.54791C17.8624 8.68227 18.9899 8.24945 20.5228 8.24945ZM20.5609 10.263H20.4848C19.7754 10.263 19.2433 10.5327 18.8886 11.0722C18.5465 11.5991 18.3755 12.4522 18.3755 13.6315C18.3755 14.8233 18.5465 15.6827 18.8886 16.2096C19.2433 16.7365 19.7754 17 20.4848 17H20.5609C21.2703 17 21.796 16.7365 22.1381 16.2096C22.4928 15.6827 22.6702 14.8233 22.6702 13.6315C22.6702 12.4522 22.4928 11.5991 22.1381 11.0722C21.796 10.5327 21.2703 10.263 20.5609 10.263Z" fill="white"/>
<path d="M87.2515 8.10844C87.2515 8.32638 87.1738 8.49304 87.0185 8.60842C86.8761 8.71099 86.6367 8.7815 86.3002 8.81996C85.9637 8.85842 85.4719 8.87765 84.8248 8.87765H75.3705V7.47384C75.3705 7.10205 75.5581 6.91616 75.9335 6.91616H84.9219C85.9831 6.91616 86.7597 6.79437 87.2515 6.55078V8.10844ZM86.6691 16.0313C87.7433 16.0313 88.5198 15.9095 88.9987 15.666V17.2236C88.9987 17.4415 88.921 17.6082 88.7657 17.7236C88.6233 17.839 88.3839 17.9159 88.0474 17.9544C87.7109 17.9928 87.2256 18.012 86.5914 18.012H73.6621V16.6082C73.6621 16.2236 73.8498 16.0313 74.2251 16.0313H80.1462V14.5506H75.3317V13.166C75.3317 12.7814 75.5193 12.5891 75.8946 12.5891H77.5642V10.0507C77.5642 9.67891 77.7519 9.49302 78.1272 9.49302H79.8744V12.5891H82.7864V10.0507C82.7864 9.67891 82.9741 9.49302 83.3494 9.49302H85.0966V12.5891H87.2903V13.9929C87.2903 14.3647 87.1026 14.5506 86.7273 14.5506H82.4952V16.0313H86.6691ZM84.8054 22.1658C85.8796 22.1658 86.6561 22.044 87.135 21.8004V23.3965C87.135 23.6145 87.0573 23.7811 86.902 23.8965C86.7597 24.0119 86.5202 24.0888 86.1837 24.1273C85.8472 24.1657 85.3619 24.185 84.7277 24.185H76.8265C76.4512 24.185 76.1858 24.1016 76.0305 23.935C75.8752 23.7811 75.7976 23.5119 75.7976 23.1273V19.5697C75.7976 19.1979 75.9658 19.012 76.3023 19.012H78.1466V21.685C78.1466 21.8902 78.1725 22.0184 78.2243 22.0696C78.289 22.1337 78.4184 22.1658 78.6125 22.1658H84.8054Z" fill="white"/>
<path d="M69.5388 7.75163C69.5388 7.96978 69.4676 8.13659 69.3252 8.25208C69.1829 8.35474 68.9499 8.42531 68.6263 8.46381C68.3028 8.50231 67.8304 8.52155 67.2092 8.52155H66.1608C65.9796 8.52155 65.8891 8.61779 65.8891 8.81027V10.4079C65.8891 10.6003 65.9796 10.6966 66.1608 10.6966H67.3645C68.4516 10.6966 69.2087 10.5811 69.6358 10.3501V11.813C69.6358 12.0953 69.4611 12.2942 69.1117 12.4097C68.7752 12.5251 68.1669 12.5829 67.2868 12.5829H64.7048C64.3295 12.5829 64.0642 12.5059 63.9089 12.3519C63.7536 12.1851 63.6759 11.9156 63.6759 11.5435V7.67464C63.6759 7.30251 63.7536 7.03945 63.9089 6.88547C64.0642 6.71865 64.3295 6.63524 64.7048 6.63524H67.3062C68.3416 6.63524 69.0858 6.51334 69.5388 6.26953V7.75163ZM62.977 7.96336C62.977 8.33549 62.7894 8.52155 62.4141 8.52155H59.6574C59.4632 8.52155 59.3662 8.61779 59.3662 8.81027V10.4079C59.3662 10.5875 59.4632 10.6773 59.6574 10.6773C60.1233 10.703 60.6604 10.6966 61.2687 10.6581C61.877 10.6196 62.4399 10.5554 62.9576 10.4656L63.1518 11.7937C63.1777 11.9734 63.1388 12.1081 63.0353 12.1979C62.9447 12.2878 62.7959 12.3455 62.5888 12.3712C62.097 12.461 61.4369 12.5251 60.6086 12.5636C59.7803 12.6021 58.9714 12.615 58.1819 12.6021C57.8066 12.5893 57.5413 12.5059 57.386 12.3519C57.2307 12.1979 57.153 11.9285 57.153 11.5435V7.67464C57.153 7.30251 57.2307 7.03945 57.386 6.88547C57.5413 6.71865 57.8001 6.63524 58.1625 6.63524H62.977V7.96336ZM70.9948 14.9119C70.9948 15.1301 70.9171 15.2969 70.7618 15.4124C70.6194 15.5278 70.38 15.6048 70.0435 15.6433C69.707 15.6818 69.2217 15.7011 68.5875 15.7011H55.6582V14.3152C55.6582 13.9303 55.8459 13.7378 56.2212 13.7378H68.6652C69.7394 13.7378 70.5159 13.6159 70.9948 13.3721V14.9119ZM67.811 16.856C68.1863 16.856 68.4516 16.9394 68.6069 17.1062C68.7622 17.2602 68.8399 17.5296 68.8399 17.9146V20.4746C68.8399 20.8596 68.7622 21.1354 68.6069 21.3023C68.4516 21.4691 68.1863 21.5525 67.811 21.5525H60.1039V22.3994C60.1039 22.579 60.2009 22.6689 60.3951 22.6689H67.0539C68.1151 22.6689 68.8852 22.547 69.3641 22.3032V23.7275C69.3641 23.9457 69.2864 24.1125 69.1311 24.228C68.9887 24.3435 68.7493 24.4204 68.4128 24.4589C68.0763 24.4974 67.591 24.5167 66.9568 24.5167H58.8032C58.4278 24.5167 58.1625 24.4333 58.0072 24.2665C57.8519 24.1125 57.7743 23.843 57.7743 23.458V20.8596C57.7743 20.4746 57.8519 20.2051 58.0072 20.0511C58.1625 19.8843 58.4278 19.8009 58.8032 19.8009H66.5103V18.9925C66.5103 18.8 66.4132 18.7038 66.2191 18.7038H58.3178C57.9425 18.7038 57.7548 18.5113 57.7548 18.1263V16.856H67.811Z" fill="white"/>
<path fill-rule="evenodd" clip-rule="evenodd" d="M52.4906 5.58344C53.363 6.80631 53.363 8.41529 53.363 11.6332V19.2924C53.363 22.5104 53.363 24.1194 52.4906 25.3422C51.6182 26.5651 50.0865 27.1032 47.0231 28.1795L45.7371 28.6313C39.9497 30.6644 37.0561 31.681 35.0407 30.272C33.0254 28.8631 33.0254 25.8235 33.0254 19.7442V11.1815C33.0254 5.10223 33.0254 2.06261 35.0407 0.653647C37.0561 -0.75532 39.9497 0.261268 45.7371 2.29444L47.0231 2.74622C50.0865 3.82246 51.6182 4.36057 52.4906 5.58344ZM51.6476 9.93118H49.2606V6.316H47.4752C47.1 6.316 46.9124 6.50829 46.9124 6.89289V15.4117H48.6978C49.073 15.4117 49.2606 15.2194 49.2606 14.8348V12.008H51.0848C51.46 12.008 51.6476 11.8157 51.6476 11.4311V9.93118ZM43.9238 8.02744C43.1475 7.30953 42.0284 6.95058 40.5664 6.95058C39.1045 6.95058 37.9789 7.31594 37.1897 8.04667C36.4134 8.76458 36.0253 9.76452 36.0253 11.0465C36.0253 12.3541 36.4134 13.3669 37.1897 14.0848C37.9789 14.7899 39.1045 15.1424 40.5664 15.1424C42.0284 15.1424 43.1475 14.7899 43.9238 14.0848C44.713 13.3669 45.1076 12.3541 45.1076 11.0465C45.1076 9.75171 44.713 8.74535 43.9238 8.02744ZM38.9169 9.41198C39.2921 9.04021 39.829 8.85432 40.5276 8.85432H40.6052C41.3039 8.85432 41.8408 9.04021 42.216 9.41198C42.5912 9.77093 42.7788 10.3158 42.7788 11.0465C42.7788 11.7772 42.5912 12.3285 42.216 12.7003C41.8408 13.0592 41.3039 13.2387 40.6052 13.2387H40.5276C39.829 13.2387 39.2921 13.0592 38.9169 12.7003C38.5417 12.3285 38.3541 11.7772 38.3541 11.0465C38.3541 10.3158 38.5417 9.77093 38.9169 9.41198ZM49.0083 16.5654C48.8531 16.4116 48.5878 16.3347 48.2126 16.3347H38.4511V17.7192C38.4511 18.1038 38.6387 18.2961 39.0139 18.2961H46.6407C46.8218 18.2961 46.9124 18.3923 46.9124 18.5846V19.4691H39.5573C39.1821 19.4691 38.9169 19.5525 38.7616 19.7191C38.6064 19.8729 38.5287 20.1422 38.5287 20.5268V23.4112C38.5287 23.7958 38.6064 24.065 38.7616 24.2189C38.9169 24.3855 39.1821 24.4688 39.5573 24.4688H47.3393C47.9733 24.4688 48.4585 24.4496 48.7948 24.4112C49.1312 24.3727 49.3706 24.2958 49.5129 24.1804C49.6681 24.065 49.7458 23.8984 49.7458 23.6804V22.1421C49.2671 22.3856 48.4973 22.5074 47.4364 22.5074H41.1486C40.9675 22.5074 40.8769 22.4113 40.8769 22.219V21.3536H48.2126C48.5878 21.3536 48.8531 21.2703 49.0083 21.1036C49.1765 20.9498 49.2606 20.6806 49.2606 20.296V17.3731C49.2606 16.9885 49.1765 16.7193 49.0083 16.5654Z" fill="white"/>
</svg>
