<svg width="159" height="56" viewBox="0 0 159 56" fill="none" xmlns="http://www.w3.org/2000/svg">
<g opacity="0.2">
<path d="M22.6441 23.5071H26.8199V26.1587C26.8199 26.8386 26.4917 27.1785 25.8353 27.1785H22.6441V41.2503C22.6441 41.9302 22.3273 42.2701 21.6935 42.2701H18.5363V13.4788C18.5363 12.7989 18.8644 12.459 19.5208 12.459H22.6441V23.5071ZM14.1229 32.8556C14.1229 33.5355 13.9871 34.0227 13.7155 34.3173C13.4439 34.5893 12.9799 34.7253 12.3236 34.7253H1.83326C1.17691 34.7253 0.701617 34.5893 0.40739 34.3173C0.135797 34.0227 0 33.5355 0 32.8556V16.8443C0 16.1644 0.135797 15.6884 0.40739 15.4165C0.701617 15.1219 1.17691 14.9746 1.83326 14.9746H14.1229V32.8556ZM4.92264 18.442C4.58314 18.442 4.35681 18.4986 4.24365 18.612C4.15312 18.7253 4.10785 18.9519 4.10785 19.2918V30.408C4.10785 30.7479 4.15312 30.9746 4.24365 31.0879C4.35681 31.2012 4.58314 31.2578 4.92264 31.2578H9.20023C9.51709 31.2578 9.73211 31.2012 9.84527 31.0879C9.95843 30.9746 10.015 30.7479 10.015 30.408V18.442H4.92264Z" fill="black"/>
<path d="M52.9261 41.2503C52.9261 41.9302 52.6092 42.2701 51.9755 42.2701H48.8182V13.4788C48.8182 12.7989 49.1464 12.459 49.8028 12.459H52.9261V41.2503ZM36.6644 14.9066C39.403 14.9066 41.406 15.6884 42.6734 17.2522C43.9635 18.8159 44.6085 21.2748 44.6085 24.629C44.6085 28.0057 43.9748 30.476 42.7074 32.0397C41.4399 33.5808 39.4256 34.3513 36.6644 34.3513C33.9032 34.3513 31.8889 33.5808 30.6215 32.0397C29.354 30.476 28.7203 28.0057 28.7203 24.629C28.7203 21.2748 29.354 18.8159 30.6215 17.2522C31.9115 15.6884 33.9258 14.9066 36.6644 14.9066ZM36.7323 18.544H36.5965C35.3291 18.544 34.3785 19.0312 33.7448 20.0057C33.1337 20.9576 32.8282 22.4986 32.8282 24.629C32.8282 26.7819 33.1337 28.3343 33.7448 29.2862C34.3785 30.238 35.3291 30.7139 36.5965 30.7139H36.7323C37.9997 30.7139 38.939 30.238 39.5501 29.2862C40.1838 28.3343 40.5007 26.7819 40.5007 24.629C40.5007 22.4986 40.1838 20.9576 39.5501 20.0057C38.939 19.0312 37.9997 18.544 36.7323 18.544Z" fill="black"/>
<path d="M155.878 14.6478C155.878 15.0415 155.739 15.3426 155.462 15.551C155.207 15.7363 154.779 15.8637 154.178 15.9331C153.577 16.0026 152.699 16.0374 151.542 16.0374H134.652V13.5014C134.652 12.8298 134.987 12.494 135.658 12.494H151.716C153.612 12.494 154.999 12.274 155.878 11.834V14.6478ZM154.837 28.9601C156.756 28.9601 158.144 28.7401 158.999 28.3001V31.1139C158.999 31.5076 158.86 31.8087 158.583 32.0171C158.329 32.2256 157.901 32.3645 157.3 32.434C156.699 32.5035 155.831 32.5382 154.699 32.5382H131.6V30.0023C131.6 29.3075 131.935 28.9601 132.606 28.9601H143.184V26.2853H134.583V23.7841C134.583 23.0893 134.918 22.7419 135.589 22.7419H138.571V18.1564C138.571 17.4848 138.907 17.149 139.577 17.149H142.698V22.7419H147.901V18.1564C147.901 17.4848 148.236 17.149 148.907 17.149H152.028V22.7419H155.947V25.2778C155.947 25.9494 155.612 26.2853 154.941 26.2853H147.381V28.9601H154.837ZM151.508 40.0418C153.427 40.0418 154.814 39.8217 155.67 39.3817V42.265C155.67 42.6587 155.531 42.9598 155.253 43.1682C154.999 43.3767 154.571 43.5156 153.97 43.5851C153.369 43.6546 152.502 43.6893 151.369 43.6893H137.253C136.583 43.6893 136.109 43.5388 135.831 43.2377C135.554 42.9598 135.415 42.4735 135.415 41.7787V35.352C135.415 34.6804 135.716 34.3446 136.317 34.3446H139.612V39.1733C139.612 39.5438 139.658 39.7754 139.75 39.8681C139.866 39.9839 140.097 40.0418 140.444 40.0418H151.508Z" fill="black"/>
<path d="M124.233 14.0016C124.233 14.3956 124.106 14.697 123.851 14.9056C123.597 15.091 123.181 15.2185 122.603 15.2881C122.025 15.3576 121.181 15.3924 120.071 15.3924H118.198C117.874 15.3924 117.713 15.5662 117.713 15.9139V18.7999C117.713 19.1476 117.874 19.3215 118.198 19.3215H120.349C122.291 19.3215 123.643 19.1129 124.406 18.6956V21.3382C124.406 21.8481 124.094 22.2074 123.47 22.4161C122.869 22.6247 121.782 22.729 120.21 22.729H115.597C114.927 22.729 114.453 22.5899 114.175 22.3118C113.898 22.0104 113.759 21.5236 113.759 20.8514V13.8625C113.759 13.1902 113.898 12.715 114.175 12.4369C114.453 12.1355 114.927 11.9849 115.597 11.9849H120.244C122.094 11.9849 123.424 11.7646 124.233 11.3242V14.0016ZM112.51 14.384C112.51 15.0563 112.175 15.3924 111.505 15.3924H106.58C106.233 15.3924 106.059 15.5662 106.059 15.9139V18.7999C106.059 19.1244 106.233 19.2867 106.58 19.2867C107.412 19.3331 108.372 19.3215 109.458 19.2519C110.545 19.1824 111.551 19.0665 112.476 18.9042L112.822 21.3034C112.869 21.6279 112.799 21.8713 112.614 22.0336C112.452 22.1959 112.187 22.3002 111.817 22.3465C110.938 22.5088 109.759 22.6247 108.279 22.6942C106.799 22.7638 105.354 22.787 103.944 22.7638C103.273 22.7406 102.799 22.5899 102.522 22.3118C102.244 22.0336 102.106 21.5468 102.106 20.8514V13.8625C102.106 13.1902 102.244 12.715 102.522 12.4369C102.799 12.1355 103.262 11.9849 103.909 11.9849H112.51V14.384ZM126.834 26.9363C126.834 27.3303 126.695 27.6317 126.418 27.8403C126.164 28.0489 125.736 28.188 125.135 28.2575C124.533 28.3271 123.666 28.3619 122.533 28.3619H99.4351V25.8584C99.4351 25.163 99.7703 24.8152 100.441 24.8152H122.672C124.591 24.8152 125.979 24.595 126.834 24.1546V26.9363ZM121.146 30.4481C121.817 30.4481 122.291 30.5988 122.568 30.9001C122.846 31.1783 122.984 31.6651 122.984 32.3605V36.985C122.984 37.6804 122.846 38.1788 122.568 38.4801C122.291 38.7815 121.817 38.9321 121.146 38.9321H107.377V40.462C107.377 40.7866 107.551 40.9488 107.898 40.9488H119.794C121.69 40.9488 123.065 40.7286 123.921 40.2882V42.8612C123.921 43.2553 123.782 43.5566 123.505 43.7653C123.25 43.9739 122.823 44.113 122.221 44.1825C121.62 44.252 120.753 44.2868 119.62 44.2868H105.054C104.383 44.2868 103.909 44.1361 103.632 43.8348C103.354 43.5566 103.215 43.0698 103.215 42.3744V37.6804C103.215 36.985 103.354 36.4982 103.632 36.22C103.909 35.9187 104.383 35.768 105.054 35.768H118.822V34.3076C118.822 33.9599 118.649 33.7861 118.302 33.7861H104.187C103.516 33.7861 103.181 33.4384 103.181 32.743V30.4481H121.146Z" fill="black"/>
<path fill-rule="evenodd" clip-rule="evenodd" d="M93.7764 10.0862C95.335 12.2953 95.335 15.2018 95.335 21.0149V34.8509C95.335 40.664 95.335 43.5705 93.7764 45.7795C92.2179 47.9886 89.4814 48.9607 84.0085 50.9049L81.7111 51.721C71.3719 55.3938 66.2023 57.2302 62.6019 54.685C59.0015 52.1397 59.0015 46.6488 59.0015 35.667V20.1988C59.0015 9.21693 59.0015 3.72601 62.6019 1.18078C66.2023 -1.36445 71.3719 0.471967 81.7111 4.1448L84.0085 4.96092C89.4814 6.90508 92.2179 7.87716 93.7764 10.0862ZM92.2704 17.9395H88.0059V11.4088H84.8163C84.146 11.4088 83.8108 11.7562 83.8108 12.4509V27.8397H87.0005C87.6708 27.8397 88.0059 27.4923 88.0059 26.7976V21.6911H91.2649C91.9352 21.6911 92.2704 21.3438 92.2704 20.649V17.9395ZM78.4716 14.5005C77.0848 13.2036 75.0855 12.5552 72.4736 12.5552C69.8618 12.5552 67.8509 13.2152 66.441 14.5352C65.0542 15.8321 64.3608 17.6384 64.3608 19.9543C64.3608 22.3164 65.0542 24.1459 66.441 25.4428C67.8509 26.7165 69.8618 27.3534 72.4736 27.3534C75.0855 27.3534 77.0848 26.7165 78.4716 25.4428C79.8815 24.1459 80.5865 22.3164 80.5865 19.9543C80.5865 17.6153 79.8815 15.7973 78.4716 14.5005ZM72.4043 15.9942H72.543C73.7911 15.9942 74.7503 16.33 75.4206 17.0016C76.0909 17.65 76.4261 18.6342 76.4261 19.9543C76.4261 21.2743 76.0909 22.2701 75.4206 22.9417C74.7503 23.5901 73.7911 23.9143 72.543 23.9143H72.4043C71.1562 23.9143 70.197 23.5901 69.5267 22.9417C68.8564 22.2701 68.5212 21.2743 68.5212 19.9543C68.5212 18.6342 68.8564 17.65 69.5267 17.0016C70.197 16.33 71.1562 15.9942 72.4043 15.9942ZM87.5552 29.9239C87.2779 29.646 86.804 29.5071 86.1337 29.5071H68.6946V32.0082C68.6946 32.7029 69.0297 33.0503 69.7 33.0503H83.3254C83.649 33.0503 83.8108 33.224 83.8108 33.5714V35.1693H70.6708C70.0005 35.1693 69.5267 35.3198 69.2493 35.6209C68.9719 35.8988 68.8333 36.3851 68.8333 37.0799V42.2905C68.8333 42.9853 68.9719 43.4716 69.2493 43.7495C69.5267 44.0505 70.0005 44.2011 70.6708 44.2011H84.5736C85.7061 44.2011 86.5729 44.1663 87.1738 44.0969C87.7748 44.0274 88.2024 43.8884 88.4566 43.68C88.734 43.4716 88.8727 43.1705 88.8727 42.7768V39.9978C88.0175 40.4378 86.6422 40.6578 84.7469 40.6578H73.5138C73.1902 40.6578 73.0284 40.4841 73.0284 40.1368V38.5736H86.1337C86.804 38.5736 87.2779 38.4231 87.5552 38.122C87.8557 37.8441 88.0059 37.3578 88.0059 36.663V31.3829C88.0059 30.6882 87.8557 30.2018 87.5552 29.9239Z" fill="black"/>
</g>
</svg>
