<svg width="30" height="30" viewBox="0 0 30 30" fill="none" xmlns="http://www.w3.org/2000/svg">
<path d="M6.88388 22.087C6.39573 21.5989 6.42541 20.7777 6.95017 20.253L20.2526 6.9505C20.7774 6.42574 21.5985 6.39606 22.0867 6.88421C22.5748 7.37237 22.5452 8.1935 22.0204 8.71827L8.71794 22.0207C8.19317 22.5455 7.37204 22.5752 6.88388 22.087Z" fill="#0D0D0D"/>
<path d="M7.11612 7.08701C7.60427 6.59885 8.42541 6.62853 8.95017 7.1533L22.2526 20.4557C22.7774 20.9805 22.8071 21.8016 22.3189 22.2898C21.8308 22.778 21.0096 22.7483 20.4849 22.2235L7.18241 8.92107C6.65764 8.3963 6.62796 7.57516 7.11612 7.08701Z" fill="#0D0D0D"/>
</svg>
