<svg width="159" height="159" viewBox="0 0 159 159" fill="none" xmlns="http://www.w3.org/2000/svg">
<circle cx="79.5" cy="79.5" r="79.5" fill="url(#paint0_linear_1622_8302)"/>
<circle cx="3.66056" cy="3.66056" r="3.66056" transform="matrix(-0.707107 -0.707107 -0.707107 0.707107 111.125 99.7344)" fill="#99EEDD"/>
<circle cx="3.66056" cy="3.66056" r="3.66056" transform="matrix(-0.707107 -0.707107 -0.707107 0.707107 127.985 40.6631)" fill="white"/>
<circle cx="3.66056" cy="3.66056" r="3.66056" transform="matrix(-0.707107 -0.707107 -0.707107 0.707107 82.3535 54.7617)" fill="#99EEDD"/>
<path d="M64.9072 54.2412C65.9679 59.3088 66.18 71.2118 58.5433 78.2828" stroke="white" stroke-width="5" stroke-linecap="round" stroke-linejoin="round"/>
<path d="M100.626 89.959C95.5584 88.8983 83.6554 88.6862 76.5843 96.3229" stroke="white" stroke-width="5" stroke-linecap="round" stroke-linejoin="round"/>
<path d="M100.343 28.3206C99.5649 27.0326 97.6969 27.0326 96.9189 28.3206L94.5553 32.2337C94.2681 32.7092 93.796 33.0439 93.2522 33.1574L88.7781 34.0917C87.2554 34.4096 86.6626 36.2678 87.7199 37.4088L90.6909 40.6151C91.0829 41.0381 91.2732 41.6098 91.213 42.1833L90.7565 46.5302C90.5974 48.0463 92.1248 49.1759 93.5278 48.5798L97.8487 46.7437C98.3485 46.5313 98.9132 46.5313 99.413 46.7437L103.734 48.5798C105.137 49.1759 106.664 48.0463 106.505 46.5302L106.049 42.1833C105.989 41.6098 106.179 41.0381 106.571 40.6151L109.542 37.4088C110.599 36.2678 110.006 34.4096 108.484 34.0917L104.01 33.1574C103.466 33.0439 102.994 32.7092 102.706 32.2337L100.343 28.3206Z" fill="white"/>
<path d="M120.679 70.648C121.758 69.5601 121.263 67.7117 119.784 67.3094L117.13 66.5874C116.588 66.44 116.133 66.0716 115.876 65.5723L114.618 63.1264C113.917 61.7633 112.006 61.6632 111.167 62.9455L109.66 65.2465C109.352 65.7162 108.861 66.035 108.307 66.125L105.592 66.5656C104.079 66.8112 103.393 68.5976 104.354 69.7925L106.076 71.9366C106.428 72.3743 106.579 72.9397 106.494 73.4946L106.074 76.2128C105.84 77.7277 107.327 78.9319 108.76 78.388L111.332 77.4122C111.856 77.2129 112.441 77.2436 112.942 77.4966L115.398 78.7359C116.766 79.4266 118.371 78.3844 118.297 76.8534L118.163 74.1062C118.136 73.5453 118.346 72.9989 118.741 72.6003L120.679 70.648Z" fill="#99EEDD"/>
<path d="M93.7383 60.1758L81.4433 72.4707" stroke="white" stroke-width="5" stroke-linecap="round" stroke-linejoin="round"/>
<g filter="url(#filter0_b_1622_8302)">
<path d="M31.6943 117.028C30.4057 120.285 33.6286 123.508 36.8854 122.219L89.3979 101.442C92.0742 100.383 92.7899 96.9294 90.7547 94.8943L59.0193 63.1589C56.9842 61.1238 53.5303 61.8394 52.4715 64.5157L31.6943 117.028Z" fill="#F8FFFB" fill-opacity="0.4"/>
<path d="M32.1592 117.212C31.0317 120.062 33.8517 122.882 36.7014 121.754L89.214 100.977C91.5557 100.051 92.1819 97.0286 90.4012 95.2478L58.6658 63.5125C56.885 61.7317 53.8629 62.3579 52.9364 64.6996L32.1592 117.212Z" stroke="url(#paint1_linear_1622_8302)" stroke-opacity="0.5"/>
</g>
<path opacity="0.7" fill-rule="evenodd" clip-rule="evenodd" d="M51.4256 116.384L36.8265 122.161C33.5697 123.449 30.3468 120.226 31.6354 116.969L32.4925 114.803L51.4256 116.384ZM38.3864 99.907L35.2209 107.908L66.2918 110.502L83.5402 103.678L38.3864 99.907ZM41.2004 92.7949L91.8188 97.022C91.6928 96.2326 91.3263 95.466 90.6959 94.8355L83.9613 88.1009L44.3659 84.7943L41.2004 92.7949ZM50.345 69.6825L47.1795 77.6831L75.9457 80.0854L66.9277 71.0673L50.345 69.6825Z" fill="white"/>
<defs>
<filter id="filter0_b_1622_8302" x="27.4033" y="57.9863" width="68.5244" height="68.5234" filterUnits="userSpaceOnUse" color-interpolation-filters="sRGB">
<feFlood flood-opacity="0" result="BackgroundImageFix"/>
<feGaussianBlur in="BackgroundImageFix" stdDeviation="2"/>
<feComposite in2="SourceAlpha" operator="in" result="effect1_backgroundBlur_1622_8302"/>
<feBlend mode="normal" in="SourceGraphic" in2="effect1_backgroundBlur_1622_8302" result="shape"/>
</filter>
<linearGradient id="paint0_linear_1622_8302" x1="58.3503" y1="-0.0012578" x2="151.629" y2="125.87" gradientUnits="userSpaceOnUse">
<stop stop-color="#15C8A7"/>
<stop offset="1" stop-color="#71EAB6"/>
</linearGradient>
<linearGradient id="paint1_linear_1622_8302" x1="66.1258" y1="100.869" x2="21.7415" y2="115.053" gradientUnits="userSpaceOnUse">
<stop stop-color="white"/>
<stop offset="1" stop-color="white" stop-opacity="0"/>
</linearGradient>
</defs>
</svg>
