<svg width="99" height="67" viewBox="0 0 99 67" fill="none" xmlns="http://www.w3.org/2000/svg">
<path opacity="0.8" d="M85.9909 10.4141H19.8796C15.3256 10.4141 11.6338 13.7281 11.6338 17.8161V56.3321C11.6338 60.4202 15.3256 63.7342 19.8796 63.7342H85.9909C90.5449 63.7342 94.2367 60.4202 94.2367 56.3321V17.8161C94.2367 13.7281 90.5449 10.4141 85.9909 10.4141Z" fill="#33D3C2"/>
<path d="M82.0056 6.82812H15.8942C11.3402 6.82812 7.64844 10.1421 7.64844 14.2302V52.7462C7.64844 56.8342 11.3402 60.1482 15.8942 60.1482H82.0056C86.5596 60.1482 90.2514 56.8342 90.2514 52.7462V14.2302C90.2514 10.1421 86.5596 6.82812 82.0056 6.82812Z" stroke="black" stroke-width="3" stroke-miterlimit="10"/>
<path d="M89.188 19.4414H8.71484V29.3817H89.188V19.4414Z" fill="black"/>
<path d="M52.935 34.4492H15.6689V39.0525H52.935V34.4492Z" fill="#EFF1F3"/>
</svg>
