<svg width="28" height="28" viewBox="0 0 28 28" fill="none" xmlns="http://www.w3.org/2000/svg">
<path d="M10.2554 5.70228L11.1469 6.39439C12.6033 7.52499 12.7872 9.58855 11.5521 10.9409L11.4284 11.0764C10.5432 12.0455 10.3071 13.477 11.1913 14.4458C12.037 15.3724 13.1719 16.1876 14.8206 17.0757C16.1206 17.7761 17.7462 17.4438 18.7288 16.3679L18.8149 16.2736C19.9863 14.991 22.0064 14.8246 23.3877 15.8969L24.215 16.5392C25.4018 17.4604 25.8149 19.0684 24.9618 20.2831C24.1567 21.4296 23.2587 22.3266 22.1987 23.0598C21.5226 23.5274 20.6516 23.6314 19.8466 23.4237C11.9772 21.3934 7.21653 17.7047 3.80123 10.8725C3.50385 10.2776 3.40647 9.59363 3.64762 8.97549C4.15696 7.66985 5.10951 6.57027 6.58188 5.51819C7.68026 4.73334 9.19144 4.87636 10.2554 5.70228Z" stroke="black" stroke-width="2"/>
</svg>
