<svg width="28" height="29" viewBox="0 0 28 29" fill="none" xmlns="http://www.w3.org/2000/svg">
<mask id="path-1-inside-1_16713_129245" fill="white">
<path fill-rule="evenodd" clip-rule="evenodd" d="M1.75 8.29687C1.75 6.84713 2.92525 5.67188 4.375 5.67188H23.625C25.0747 5.67188 26.25 6.84713 26.25 8.29688V12.4087C24.8003 12.4087 23.625 13.7015 23.625 15.2962C23.625 16.8909 24.8003 18.1837 26.25 18.1837V22.2969C26.25 23.7466 25.0747 24.9219 23.625 24.9219H4.375C2.92525 24.9219 1.75 23.7466 1.75 22.2969V18.1837C3.19975 18.1837 4.375 16.8909 4.375 15.2962C4.375 13.7015 3.19975 12.4087 1.75 12.4087V8.29687Z"/>
</mask>
<path d="M26.25 12.4087V14.8087H28.65V12.4087H26.25ZM26.25 18.1837H28.65V15.7837H26.25V18.1837ZM1.75 18.1837V15.7837H-0.65V18.1837H1.75ZM1.75 12.4087H-0.65V14.8087H1.75V12.4087ZM4.375 3.27187C1.59977 3.27187 -0.65 5.52164 -0.65 8.29687H4.15C4.15 8.17261 4.25074 8.07188 4.375 8.07188V3.27187ZM23.625 3.27187H4.375V8.07188H23.625V3.27187ZM28.65 8.29688C28.65 5.52164 26.4002 3.27187 23.625 3.27187V8.07188C23.7493 8.07188 23.85 8.17261 23.85 8.29688H28.65ZM28.65 12.4087V8.29688H23.85V12.4087H28.65ZM26.025 15.2962C26.025 15.0896 26.1005 14.945 26.1697 14.8688C26.2034 14.8317 26.2301 14.8165 26.2406 14.8116C26.2486 14.8079 26.2492 14.8087 26.25 14.8087V10.0087C23.2646 10.0087 21.225 12.5964 21.225 15.2962H26.025ZM26.25 15.7837C26.2492 15.7837 26.2486 15.7845 26.2406 15.7808C26.2301 15.7759 26.2034 15.7606 26.1697 15.7235C26.1005 15.6474 26.025 15.5028 26.025 15.2962H21.225C21.225 17.996 23.2646 20.5837 26.25 20.5837V15.7837ZM28.65 22.2969V18.1837H23.85V22.2969H28.65ZM23.625 27.3219C26.4002 27.3219 28.65 25.0721 28.65 22.2969H23.85C23.85 22.4211 23.7493 22.5219 23.625 22.5219V27.3219ZM4.375 27.3219H23.625V22.5219H4.375V27.3219ZM-0.65 22.2969C-0.65 25.0721 1.59977 27.3219 4.375 27.3219V22.5219C4.25074 22.5219 4.15 22.4211 4.15 22.2969H-0.65ZM-0.65 18.1837V22.2969H4.15V18.1837H-0.65ZM1.975 15.2962C1.975 15.5028 1.89952 15.6474 1.8303 15.7235C1.79658 15.7606 1.76988 15.7759 1.75936 15.7808C1.75144 15.7845 1.75076 15.7837 1.75 15.7837V20.5837C4.73536 20.5837 6.775 17.996 6.775 15.2962H1.975ZM1.75 14.8087C1.75076 14.8087 1.75144 14.8079 1.75936 14.8116C1.76988 14.8165 1.79658 14.8317 1.8303 14.8688C1.89952 14.945 1.975 15.0896 1.975 15.2962H6.775C6.775 12.5964 4.73536 10.0087 1.75 10.0087V14.8087ZM-0.65 8.29687V12.4087H4.15V8.29687H-0.65Z" fill="#281B1B" mask="url(#path-1-inside-1_16713_129245)"/>
<path d="M16.625 8.29688V22.2969" stroke="#281B1B" stroke-width="2.4" stroke-linejoin="bevel" stroke-dasharray="1.75 4.38"/>
</svg>
