<svg width="100" height="100" viewBox="0 0 100 100" fill="none" xmlns="http://www.w3.org/2000/svg">
<path d="M50.25 10.2045C26.0875 10.2045 6.5 29.8332 6.5 54.0464C6.5 78.2596 26.0875 97.8883 50.25 97.8883C74.4125 97.8883 94 78.2596 94 54.0464C94 42.3553 89.4334 31.7329 81.9902 23.8729M50.25 10.2045L39.6311 2.11719M50.25 10.2045L39.6311 18.2919" stroke="black" stroke-width="3" stroke-linecap="round" stroke-linejoin="round"/>
<circle cx="36.6953" cy="48.2773" r="19.9179" fill="#5CDCCE" stroke="black" stroke-width="3"/>
<path d="M27.7431 41.9754L31.6333 55.4141L35.5234 41.9754" stroke="black" stroke-width="3" stroke-linecap="round" stroke-linejoin="round"/>
<path d="M35.5241 41.9754L39.7679 55.4141L44.0117 41.9754" stroke="black" stroke-width="3" stroke-linecap="round" stroke-linejoin="round"/>
<path d="M44.7176 47H27.0352" stroke="black" stroke-width="3" stroke-linecap="round" stroke-linejoin="round"/>
<circle cx="64.9921" cy="58.707" r="19.9179" fill="white" stroke="black" stroke-width="3"/>
<path d="M47.8555 68.7167C47.8555 68.7167 71.3629 73.9406 82.6813 49.5625C86.5993 54.7864 86.1639 71.3287 73.9749 76.9879C57.8679 81.7764 51.3381 73.5053 47.8555 68.7167Z" fill="#D9D9D9"/>
<circle cx="64.9921" cy="58.707" r="19.9179" stroke="black" stroke-width="3"/>
<path d="M64.5703 48.2031V58.8557L71.2897 65.0015" stroke="black" stroke-width="3" stroke-linecap="round" stroke-linejoin="round"/>
</svg>
