<svg width="64" height="94" viewBox="0 0 64 94" fill="none" xmlns="http://www.w3.org/2000/svg">
<g opacity="0.4" clip-path="url(#clip0_943_46088)">
<path d="M16.4453 9.81554C16.4453 9.81554 17.3202 14.2231 21.622 18.7838C24.1379 21.4467 33.2021 19.5439 37.4522 26.7216C41.1846 33.0269 40.5582 42.3064 40.5582 42.3064L61.6015 30.2059C61.6015 30.2059 62.0312 21.4671 56.4248 15.6311C52.6303 11.6724 43.949 13.662 39.0778 8.90238C36.8725 6.74449 33.8752 2.47461 33.8752 2.47461L16.4453 9.81554Z" fill="#BDE377"/>
<path d="M17.9922 10.5852C17.9922 10.5852 19.0793 14.243 22.9515 17.8701C25.2241 19.9973 35.3755 18.6659 38.9992 24.7314C42.188 30.0624 42.2915 39.1225 42.2915 39.1225L60.2598 28.986C60.2598 28.986 59.7111 20.8238 54.9175 15.8703C51.6717 12.5289 42.4935 13.9777 38.3521 9.95777C36.4626 8.13657 33.7552 3.71875 33.7552 3.71875L17.9922 10.5852Z" fill="#6BA638"/>
<path d="M19.4688 11.2642C19.4688 11.2642 20.2453 13.8659 23.9363 17.0696C27.2753 19.9723 36.5053 17.5798 39.865 23.7015C42.8157 29.0732 43.3903 36.7611 43.3903 36.7611L58.7598 28.0887C58.7598 28.0887 58.6511 21.7527 54.2819 16.738C51.3261 13.3405 40.8226 14.3047 37.1989 10.0603C35.8872 8.42544 34.6986 6.69827 33.6426 4.89258L19.4688 11.2642Z" fill="#BDE377"/>
<path d="M35.2258 20.6401C33.4761 19.9106 31.7522 18.1404 34.9825 16.0488C38.4887 13.8611 42.6733 12.9817 46.7801 13.5695C50.1967 14.1307 52.2363 16.5844 48.0018 19.1811C43.7673 21.7777 39.9468 22.5684 38.3783 22.2113C37.2392 21.8809 36.1709 21.3485 35.2258 20.6401V20.6401Z" fill="#6BA638"/>
<path d="M32.7257 11.3968C32.8092 11.7369 32.7541 12.0957 32.5722 12.3961C32.3902 12.6966 32.096 12.9148 31.7526 13.0038C31.4256 13.1408 31.0569 13.1454 30.7265 13.0165C30.3961 12.8876 30.1305 12.6356 29.9873 12.3151C29.9037 11.975 29.959 11.6162 30.1409 11.3158C30.3229 11.0153 30.6172 10.7972 30.9605 10.7081C31.2877 10.5725 31.6557 10.5686 31.9858 10.6974C32.3158 10.8261 32.5815 11.0772 32.7257 11.3968Z" fill="#6BA638"/>
<path d="M52.2721 25.3541C52.4021 25.7154 52.382 26.1127 52.2162 26.4595C52.0505 26.8063 51.7524 27.0746 51.3869 27.2059C51.2034 27.2647 51.0099 27.2871 50.8176 27.272C50.6252 27.2568 50.4377 27.2043 50.266 27.1176C50.0943 27.0308 49.9416 26.9115 49.8169 26.7665C49.6921 26.6214 49.5976 26.4535 49.5388 26.2723C49.473 26.0935 49.4438 25.9036 49.4527 25.7136C49.4617 25.5236 49.5085 25.3372 49.5908 25.1651C49.673 24.993 49.789 24.8387 49.932 24.7109C50.075 24.5831 50.2422 24.4844 50.424 24.4205C50.7947 24.3047 51.1969 24.3378 51.543 24.5126C51.8891 24.6874 52.1511 24.9899 52.2721 25.3541V25.3541Z" fill="#6BA638"/>
<path d="M45.4041 15.06L46.0305 14.6722L44.9383 14.1621L44.2394 14.6314C43.7137 14.4888 43.1692 14.4251 42.6243 14.4427C41.5268 14.509 38.8763 15.2844 39.5803 16.3863C40.186 17.3352 42.412 18.0341 40.5122 18.8962C39.6062 19.3094 37.9238 18.6565 37.8616 17.9321C37.8575 17.7643 37.8912 17.5977 37.9601 17.4442C38.029 17.2908 38.1315 17.1542 38.2603 17.0444L37.4269 16.371C37.4269 16.371 35.2423 17.9014 37.1007 19.4574L36.3708 19.9675L37.4062 20.4777L38.1153 20.0389C38.7601 20.2783 39.4471 20.3871 40.1355 20.3591C40.8239 20.3311 41.4995 20.1667 42.122 19.8757C42.361 19.7714 42.5679 19.6069 42.7217 19.3987C42.8756 19.1905 42.971 18.946 42.9983 18.6899C43.0256 18.4337 42.9839 18.175 42.8773 17.9399C42.7707 17.7047 42.603 17.5014 42.3912 17.3505C41.6562 16.8403 40.7192 16.2435 41.4025 15.7793C41.7908 15.5243 42.2409 15.3758 42.7067 15.3489C43.1725 15.322 43.6371 15.4177 44.0529 15.6262C44.2511 15.7764 44.3853 15.9939 44.4293 16.2364C44.4733 16.4788 44.4241 16.7287 44.2912 16.9373L45.5543 17.4474C45.5543 17.4474 46.5895 16.5802 46.1236 15.718C45.9508 15.4368 45.7016 15.2088 45.4041 15.06V15.06Z" fill="#BDE377"/>
<path d="M19.266 12.8255C19.9182 12.6112 22.0354 11.1369 20.6326 10.4788C20.2547 10.3003 19.0796 10.7237 18.8725 11.0655C18.5982 11.545 19.121 12.1266 19.3591 12.6418L19.266 12.8255Z" fill="#6BA638"/>
<path d="M32.6328 4.89746L32.3533 4.71382C32.2394 5.58106 33.43 7.50429 34.4808 6.53502C35.1331 5.93306 33.7614 3.9588 32.6328 4.89746Z" fill="#6BA638"/>
<path d="M40.5627 42.3064L61.606 30.2059C61.606 30.2059 62.0357 21.4671 56.4293 15.6311C52.6348 11.6724 43.9535 13.662 39.0823 8.90238C36.877 6.74449 33.8797 2.47461 33.8797 2.47461L16.4395 9.81554C16.4395 9.81554 17.3143 14.2231 21.6161 18.7838C24.132 21.4467 33.1964 19.5439 37.4465 26.7216C41.1996 33.0269 40.5627 42.3064 40.5627 42.3064Z" stroke="black" stroke-width="1.5" stroke-miterlimit="10"/>
</g>
<g clip-path="url(#clip1_943_46088)">
<path d="M16.1309 58.8252C16.9624 59.1232 19.8242 64.5349 30.8902 68.1866C35.8654 69.8358 45.5801 67.2789 45.5801 67.2789L61.746 89.9167C58.1725 91.2857 54.405 92.0808 50.583 92.2726C35.6436 93.0695 29.7953 88.4616 29.7953 88.4616L26.005 84.9969L16.1309 58.8252Z" fill="#A8C469"/>
<path d="M22.4718 65.7617C22.4718 65.7617 28.5972 69.6629 33.1428 70.0163C36.8708 70.3004 45.068 68.8591 45.068 68.8591L58.9819 88.746C58.9819 88.746 48.2485 91.4276 42.9962 90.6238C26.5877 88.0947 26.0126 84.6093 26.0126 84.6093L25.2643 83.1403C30.46 86.4428 36.3671 88.4617 42.4973 89.0301C47.1788 89.4429 51.8962 88.9728 56.4042 87.6443L44.4721 70.3212C44.4721 70.3212 37.5429 71.6585 33.3853 71.3328C29.2278 71.0071 22.4648 67.3901 22.4648 67.3901L22.4718 65.7617Z" fill="#639334"/>
<path d="M19.25 66.3369C21.4396 67.5426 25.6318 69.4758 27.96 72.2129C29.5468 74.0907 32.3324 79.4817 31.9375 81.7129C31.6672 83.2304 30.2606 85.0181 27.2394 83.5838C25.1972 82.5803 23.2268 81.4365 21.3426 80.1607L19.25 66.3369Z" fill="#639334"/>
<path d="M23.6013 70.9233L23.338 70.0225L24.8278 70.4382L25.0772 71.4776C25.6978 71.7848 26.2698 72.1817 26.7748 72.6556C27.7519 73.6465 29.595 76.626 27.9874 77.0903C26.6016 77.4922 23.8992 76.2865 24.9594 78.7118C25.4652 79.8759 27.6341 80.6796 28.2924 80.0283C28.4401 79.8702 28.5509 79.6813 28.6168 79.4752C28.6828 79.2691 28.7021 79.051 28.6734 78.8365L30.0593 78.8919C30.0593 78.8919 30.8284 82.1972 27.7311 82.1348L28.0013 83.2227L26.6155 82.8554L26.3175 81.8368C25.5035 81.5237 24.7608 81.0501 24.1335 80.4442C23.5062 79.8383 23.0071 79.1125 22.6658 78.3098C22.5273 78.0079 22.471 77.6746 22.5028 77.3439C22.5345 77.0131 22.6531 76.6967 22.8465 76.4266C23.04 76.1564 23.3014 75.9422 23.6043 75.8057C23.9072 75.6691 24.2409 75.6151 24.5714 75.649C25.7147 75.7668 27.1005 75.9955 26.851 74.9561C26.7046 74.3835 26.4077 73.8605 25.991 73.4413C25.5743 73.0222 25.053 72.7222 24.4813 72.5725C23.3865 72.42 23.0954 73.6326 23.0954 73.6326L21.4601 73.0644C21.4601 73.0644 21.2176 71.3598 22.3956 70.9164C22.7908 70.8104 23.2073 70.8128 23.6013 70.9233V70.9233Z" fill="#A8C469"/>
<path d="M6.43029 33.9492L27.218 54.1203C27.218 54.1203 23.7534 64.4725 24.183 70.0991C25.1808 83.9576 29.7818 88.4823 29.7818 88.4823C29.7818 88.4823 24.5087 85.5374 18.5842 77.3609C13.2582 70.0592 8.54851 62.3273 4.50394 54.245C3.73758 51.5106 3.43087 48.6678 3.59626 45.8329C3.93579 41.5783 6.43029 33.9492 6.43029 33.9492Z" fill="#BDE377"/>
<path d="M27.0926 86.5629C27.0926 86.5629 23.1222 81.4214 22.2422 72.7044C21.7433 67.6253 25.0486 55.0487 25.0486 55.0487L7.12261 36.7832C7.12261 36.7832 5.45962 42.3959 4.89835 45.8536C4.40462 49.1726 4.51967 52.5539 5.23788 55.8317L6.62373 58.4301C6.62373 58.4301 5.62591 54.9655 6.27033 48.161C6.6703 45.4731 7.31274 42.8269 8.18974 40.2548C8.23825 40.3795 23.2262 55.6862 23.2262 55.6862C23.2262 55.6862 20.801 67.7292 20.9257 71.7689C21.0386 76.4069 22.4502 80.9201 25.0001 84.7959L27.0926 86.5629Z" fill="#6BA638"/>
<path d="M21.6752 81.2761C21.6752 81.2761 21.1348 79.3289 18.6472 74.1389C16.7278 70.1408 13.2631 66.6069 12.2999 66.4267C11.6763 66.3089 11.4823 66.4891 11.4199 66.6346C13.4225 69.8844 15.8339 73.5638 18.6333 77.4372C19.6657 78.8716 20.6843 80.1466 21.6752 81.2761Z" fill="#6BA638"/>
<path d="M43.8955 81.7606C43.0918 82.3219 41.8168 81.8507 41.013 80.7143C40.2093 79.5779 40.23 78.2059 41.013 77.6446C41.796 77.0833 43.0918 77.5615 43.8955 78.6979C44.6993 79.8343 44.6924 81.2062 43.8955 81.7606Z" fill="#639334"/>
<path d="M15.3749 58.6452C14.5642 59.3381 13.1783 59.061 12.2706 58.0147C11.3629 56.9683 11.2797 55.5617 12.0835 54.8619C12.8873 54.162 14.2731 54.4461 15.1809 55.4855C16.0886 56.5249 16.1787 57.9453 15.3749 58.6452Z" fill="#6BA638"/>
<path d="M44.0006 69.6622C41.6446 69.4682 41.5338 71.54 43.7511 72.0043C44.7004 72.2052 45.5181 72.4062 45.6082 71.2698C45.6034 70.8816 45.4617 70.5075 45.2082 70.2134C44.9547 69.9193 44.6056 69.7242 44.2224 69.6622H44.0006Z" fill="#639334"/>
<path d="M22.7352 54.2108C21.7651 53.0259 21.0029 54.6127 21.0098 55.5967C21.0167 56.5806 21.2939 57.9318 22.0907 58.5832C23.1717 59.477 23.6429 58.2436 23.9478 57.0795C24.2527 55.9154 23.8785 55.3195 23.1093 54.481L22.7352 54.2108Z" fill="#6BA638"/>
<path d="M30.8697 68.1866C28.6521 67.4681 26.5026 66.5545 24.4463 65.4565C25.0866 61.614 26.0131 57.8247 27.218 54.1203L6.43029 33.9492C6.43029 33.9492 3.94965 41.5714 3.59626 45.8329C3.43087 48.6678 3.73758 51.5106 4.50394 54.245C4.50394 54.245 4.76032 54.7785 5.19687 55.707V55.8595L6.58271 58.458C6.58028 58.4187 6.58028 58.3794 6.58271 58.3401C8.01014 60.994 10.1582 64.7635 12.9369 69.1151L13.0061 69.2191C13.4842 69.9674 13.9832 70.7227 14.4959 71.4988L14.877 72.0739C15.3066 72.7183 15.7501 73.3697 16.2074 74.0349L16.7202 74.7833C17.226 75.4762 17.7527 76.2453 18.2862 76.9937L18.5981 77.4371C18.702 77.5757 18.8059 77.7005 18.9099 77.846C19.2217 78.2687 19.5335 78.6844 19.8453 79.0794L20.5382 79.9802C20.686 80.1603 20.8316 80.3336 20.9748 80.4999C21.1826 80.7563 21.4044 81.0334 21.6123 81.276C22.7487 82.5856 23.8227 83.6943 24.7997 84.6158C24.9036 84.7752 24.966 84.8514 24.966 84.8514L26.1093 85.8077C27.2309 86.8159 28.4415 87.7205 29.7264 88.5101C30.0313 88.7387 35.9627 93.0764 50.5141 92.3004C54.336 92.1085 58.1036 91.3134 61.6771 89.9444L45.5597 67.2719C45.5597 67.2719 35.8449 69.8358 30.8697 68.1866Z" stroke="black" stroke-width="1.5" stroke-miterlimit="10"/>
</g>
<defs>
<clipPath id="clip0_943_46088">
<rect width="49.4606" height="42.4032" fill="white" transform="translate(13.9766)"/>
</clipPath>
<clipPath id="clip1_943_46088">
<rect width="64" height="61.9391" fill="white" transform="translate(0 32.061)"/>
</clipPath>
</defs>
</svg>
