<svg width="103" height="126" viewBox="0 0 103 126" fill="none" xmlns="http://www.w3.org/2000/svg">
<path opacity="0.5" d="M0 54C0 55.0609 0.421445 56.0782 1.17159 56.8284C1.92173 57.5785 2.93921 58 4.00007 58C5.06093 58 6.07827 57.5785 6.82841 56.8284C7.57856 56.0782 8 55.0609 8 54C8 52.9391 7.57856 51.9216 6.82841 51.1715C6.07827 50.4213 5.06093 50 4.00007 50C2.93921 50 1.92173 50.4213 1.17159 51.1715C0.421445 51.9216 0 52.9391 0 54Z" fill="#33D3C2"/>
<path opacity="0.6" d="M84 95C84 95.7957 84.3161 96.5587 84.8787 97.1213C85.4413 97.6839 86.2044 98 87.0001 98C87.7957 98 88.5587 97.6839 89.1213 97.1213C89.6839 96.5587 90 95.7957 90 95C90 94.2043 89.6839 93.4412 89.1213 92.8786C88.5587 92.316 87.7957 92 87.0001 92C86.2044 92 85.4413 92.316 84.8787 92.8786C84.3161 93.4412 84 94.2043 84 95Z" fill="#33D3C2"/>
<path opacity="0.6" d="M23 2C23 2.53044 23.2107 3.03912 23.5858 3.4142C23.9609 3.78927 24.4696 4 25 4C25.5305 4 26.0391 3.78927 26.4142 3.4142C26.7893 3.03912 27 2.53044 27 2C27 1.46956 26.7893 0.960809 26.4142 0.585732C26.0391 0.210655 25.5305 0 25 0C24.4696 0 23.9609 0.210655 23.5858 0.585732C23.2107 0.960809 23 1.46956 23 2Z" fill="#33D3C2"/>
<path d="M86 17.5053C86 18.3128 87.6628 19.0247 90.1491 19.4125C90.761 19.5093 91.3265 19.7974 91.7646 20.2354C92.2026 20.6735 92.4907 21.2391 92.5875 21.851C92.9753 24.3372 93.6872 26 94.4947 26C95.3022 26 96.0141 24.3372 96.4072 21.851C96.504 21.2391 96.792 20.6735 97.2301 20.2354C97.6682 19.7974 98.2337 19.5093 98.8456 19.4125C101.332 19.0247 103 18.3181 103 17.5053C103 16.6925 101.332 15.9806 98.8509 15.5928C98.2373 15.4968 97.67 15.2084 97.2308 14.7692C96.7916 14.33 96.5032 13.7627 96.4072 13.1491C96.0141 10.6628 95.3075 9 94.4947 9C93.6819 9 92.9753 10.6628 92.5875 13.1491C92.4915 13.7627 92.203 14.33 91.7639 14.7692C91.3247 15.2084 90.7574 15.4968 90.1438 15.5928C87.6628 15.9806 86 16.6872 86 17.5053Z" fill="#33D3C2"/>
<path opacity="0.4" d="M54 121.503C54 121.93 54.8803 122.307 56.1966 122.512C56.5205 122.564 56.8199 122.716 57.0518 122.948C57.2837 123.18 57.4363 123.48 57.4875 123.803C57.6928 125.12 58.0697 126 58.4972 126C58.9247 126 59.3016 125.12 59.5097 123.803C59.5609 123.48 59.7134 123.18 59.9454 122.948C60.1773 122.716 60.4767 122.564 60.8006 122.512C62.1169 122.307 63 121.933 63 121.503C63 121.073 62.1169 120.696 60.8034 120.49C60.4786 120.439 60.1782 120.287 59.9457 120.054C59.7132 119.822 59.5605 119.521 59.5097 119.197C59.3016 117.88 58.9275 117 58.4972 117C58.0669 117 57.6928 117.88 57.4875 119.197C57.4367 119.521 57.284 119.822 57.0515 120.054C56.8189 120.287 56.5186 120.439 56.1938 120.49C54.8803 120.696 54 121.07 54 121.503Z" fill="#33D3C2"/>
<path d="M96.1939 74.0898C95.9597 74.8489 95.5351 75.5355 94.9603 76.0847C94.3935 76.6391 93.7257 77.0802 92.9928 77.3839C92.2541 77.6908 91.4615 77.8478 90.6613 77.8457C89.8556 77.8605 89.0622 77.647 88.373 77.23C89.1317 76.9283 89.7978 76.7066 90.4393 76.4603C91.0807 76.2141 91.6729 75.98 92.2896 75.7337L94.14 74.9396C94.7753 74.6502 95.4229 74.3546 96.1939 74.0898Z" fill="#EBEBEB"/>
<path d="M40.374 68.6282C39.5433 69.0403 38.5829 69.1066 37.7033 68.8128C36.7918 68.5144 35.9991 67.9344 35.4396 67.1566C34.887 66.4062 34.5539 65.5175 34.4774 64.5892C34.3786 63.6908 34.5827 62.7853 35.0572 62.0156C35.2767 62.7809 35.5445 63.5314 35.8591 64.2629C36.1361 64.9144 36.4836 65.5338 36.8953 66.11C37.2947 66.661 37.7751 67.1488 38.3201 67.5569C38.9526 68.0058 39.6436 68.3663 40.374 68.6282Z" fill="#EBEBEB"/>
<path d="M100.547 74.8086C99.9661 75.956 99.1681 76.9806 98.1973 77.8256C97.2284 78.6832 96.1318 79.3852 94.9469 79.9066C93.7575 80.4355 92.4879 80.7623 91.1906 80.8733C89.901 81.003 88.5986 80.8431 87.3789 80.4054C88.6125 80.1098 89.7967 79.8328 90.9315 79.4818C92.0483 79.1293 93.1457 78.7183 94.2191 78.2504C95.2861 77.7825 96.3285 77.2529 97.3709 76.668C98.4132 76.0831 99.4371 75.4551 100.547 74.8086Z" fill="#EBEBEB"/>
<path d="M46.3684 66.4437C45.0732 66.9955 43.6199 67.0525 42.2853 66.6037C40.9213 66.1651 39.7034 65.3624 38.7635 64.2825C37.8202 63.2188 37.1643 61.9324 36.8576 60.5452C36.5262 59.1853 36.6879 57.7522 37.314 56.5C37.3946 57.7509 37.6996 58.9772 38.2145 60.1204C38.698 61.1989 39.3405 62.1993 40.1204 63.0881C40.8933 63.9721 41.8083 64.7211 42.8281 65.3045C43.9245 65.9063 45.1263 66.2931 46.3684 66.4437Z" fill="#EBEBEB"/>
<path d="M58.8158 53.1164C57.5143 51.5217 54.2947 50.8691 52.7095 50.5551C49.8106 49.9887 46.2086 50.0072 43.8155 51.9898C42.7879 52.8764 42.0121 54.0173 41.566 55.298C41.12 56.5786 41.0193 57.954 41.2743 59.2857C41.4338 59.8906 41.7198 60.455 42.1134 60.9416C42.507 61.4283 42.9993 61.8262 43.558 62.1094C44.1167 62.3926 44.729 62.5546 45.3549 62.5847C45.9807 62.6149 46.6059 62.5125 47.1893 62.2843C47.7938 62.0287 48.2908 61.5717 48.5956 60.9912C48.9004 60.4108 48.9941 59.7427 48.8608 59.101C49.0458 59.7167 51.001 59.1872 51.3834 59.101C53.4558 58.6823 56.8729 56.8538 58.6863 55.6655C60.0802 54.7604 60 54.5879 58.8158 53.1164Z" fill="#FF5758" stroke="black" stroke-width="1.47" stroke-miterlimit="10"/>
<path d="M48.9109 60.0006C48.9911 58.6338 48.4298 57.3777 47.998 56.1094" stroke="black" stroke-width="1.47" stroke-miterlimit="10"/>
<path d="M74.5994 60.9135C74.4576 60.9936 74.3096 61.0797 74.1677 61.1721C70.3683 63.5548 66.3345 68.3328 66.7662 74.1758C67.0006 77.4451 68.7831 80.2157 71.1146 80.893C73.3473 81.5395 76.1599 78.7688 76.5916 75.4933C76.8075 73.8247 76.1661 72.1254 74.9942 71.9099C75.3643 71.9776 76.8446 69.0161 77.0975 68.5728C77.7302 67.2865 78.1568 65.909 78.3618 64.4906C78.4652 63.947 78.5067 63.3935 78.4852 62.8406C78.4511 62.4332 78.3512 62.034 78.1892 61.6585C77.4244 59.7929 76.0242 60.107 74.5994 60.9135Z" fill="#FF5758" stroke="black" stroke-width="1.47" stroke-miterlimit="10"/>
<path d="M75.7169 72.2969C74.693 71.5026 73.4162 71.515 72.2012 71.3672" stroke="black" stroke-width="1.47" stroke-miterlimit="10"/>
<path d="M85.5533 50.0879C85.5558 50.1104 85.5558 50.1332 85.5533 50.1557C86.4846 52.4461 83.8818 54.3301 82.0006 55.309C80.8246 56.0034 79.507 56.4243 78.1457 56.5404C76.653 56.5835 75.3516 55.8078 75.1604 54.3855C74.9322 52.6923 76.394 51.1346 77.7632 50.285C79.2363 49.2842 80.9285 48.6507 82.6976 48.4379C83.2847 48.3939 83.8714 48.5278 84.3809 48.8222C84.8905 49.1167 85.2991 49.5578 85.5533 50.0879Z" fill="#FF5758" stroke="black" stroke-width="1.47" stroke-miterlimit="10"/>
<path d="M81.3418 50.829C81.7089 50.6257 82.1007 50.4705 82.5075 50.3672L81.3418 50.829Z" fill="#73EBE0"/>
<path d="M81.3418 50.829C81.7089 50.6257 82.1007 50.4705 82.5075 50.3672" stroke="white" stroke-width="2.2" stroke-miterlimit="10" stroke-linecap="round"/>
<path d="M73.57 49.2318C75.5905 50.4186 77.2263 52.1604 78.2823 54.2497C78.7383 55.2219 78.9813 56.28 78.9951 57.3535C79.0089 58.4269 78.7932 59.4909 78.3624 60.4745C77.1967 62.9989 74.526 64.4457 71.4791 64.5935C65.4592 64.8767 57.2559 60.8192 55.8558 54.8407C55.5115 53.3349 55.6808 51.7573 56.3369 50.3584C58.9644 44.6632 67.7722 45.5376 73.57 49.2318Z" fill="#FF5758" stroke="black" stroke-width="1.47" stroke-miterlimit="10"/>
<path d="M63.3312 42.5533L63.3744 42.6517C64.9287 46.0997 62.9919 47.9591 61.4808 48.8088C60.4853 49.4257 59.286 49.6249 58.144 49.363C56.7377 48.9936 55.2698 47.5159 54.6715 45.5087C53.9622 43.089 54.8812 41.3404 55.9667 40.5831C56.5363 40.108 57.2026 39.7624 57.9194 39.5699C58.6361 39.3775 59.3863 39.3429 60.1177 39.4686C61.2835 39.641 62.5849 40.9525 63.3312 42.5533Z" fill="#FF5758" stroke="black" stroke-width="1.47" stroke-miterlimit="10"/>
<path d="M57.1325 29.6236C57.8875 29.4506 58.5911 29.1026 59.1863 28.6077C61.4314 26.7175 62.5972 23.7437 63.0721 21.3856C64.0158 16.7678 63.5841 10.9186 58.5449 8.6343C57.7659 8.24829 56.9132 8.03331 56.044 8.00357C55.1749 7.97384 54.3094 8.13002 53.5057 8.46189C47.7326 10.7092 48.3864 16.9955 49.0093 20.6528C49.2865 22.274 49.7479 23.8585 50.3847 25.3753C51.0015 26.8222 51.6739 28.1891 53.2035 29.0695C54.3975 29.7385 55.7995 29.9362 57.1325 29.6236Z" fill="#FF5758" stroke="black" stroke-width="1.47" stroke-miterlimit="10"/>
<path d="M51.3408 15.6962C51.2483 14.1446 51.754 12.4637 52.8766 11.7188" stroke="white" stroke-width="2.93" stroke-linecap="round" stroke-linejoin="round"/>
<path d="M53.5911 24.6306C57.4244 25.1218 60.9054 27.1128 63.2684 30.1656C65.6315 33.2184 66.6831 37.0831 66.1921 40.9098C65.7 44.7364 63.7056 48.2111 60.6474 50.57C57.5892 52.9289 53.7177 53.9787 49.8842 53.4886L40.2993 52.2572C36.4659 51.766 32.985 49.7751 30.6219 46.7223C28.2589 43.6695 27.2072 39.8048 27.6983 35.9781C28.1903 32.1515 30.1848 28.6767 33.243 26.3178C36.3012 23.9589 40.1727 22.909 44.0062 23.3992L53.5911 24.6306Z" fill="#FF5758" stroke="black" stroke-width="1.47" stroke-miterlimit="10"/>
<path d="M46.6104 28.1093C42.2928 26.7178 39.0671 27.1918 37.5312 28.6448" stroke="white" stroke-width="4.4" stroke-linecap="round" stroke-linejoin="round"/>
<path d="M34.5331 31.6641C34.3542 31.9165 34.1815 32.1689 34.0273 32.4275" stroke="white" stroke-width="4.4" stroke-linecap="round" stroke-linejoin="round"/>
<path d="M25.4355 38.2453C23.9367 37.2048 23.5481 34.9266 24.5719 33.1534C25.5958 31.3802 27.6559 30.7892 29.1424 31.8297C30.6288 32.8703 31.0297 35.1422 30.0059 36.9154C28.982 38.6886 26.9404 39.2735 25.4355 38.2453Z" fill="#FF5758" stroke="black" stroke-width="1.47" stroke-miterlimit="10"/>
<path d="M28.2417 33.8516L25.8301 36.1297" stroke="black" stroke-width="1.47" stroke-miterlimit="10"/>
<path d="M28.0637 36.5878L26.0098 33.3984" stroke="black" stroke-width="1.47" stroke-miterlimit="10"/>
<path d="M59.9565 28.8243C60.7151 28.9757 61.4987 28.9484 62.2449 28.7443C65.0759 27.9562 67.3642 25.7212 68.7766 23.7756C71.546 19.9644 73.5629 14.4847 69.9424 10.2979C69.3927 9.62394 68.7048 9.07522 67.9249 8.68865C67.1451 8.30209 66.2914 8.08656 65.4213 8.05672C59.2534 7.71808 57.2242 13.715 56.2805 17.2922C55.858 18.8831 55.62 20.5172 55.5712 22.1624C55.528 23.7324 55.5712 25.2409 56.595 26.7063C57.4128 27.8049 58.6112 28.56 59.9565 28.8243Z" fill="#FF5758" stroke="black" stroke-width="1.47" stroke-miterlimit="10"/>
<path d="M60.0488 16.2444C60.1845 14.7975 61.5415 12.23 63.0033 11.2695" stroke="white" stroke-width="2.93" stroke-linecap="round" stroke-linejoin="round"/>
<path d="M60.5561 54.345L60.0996 54.4436C56.0288 55.3672 51.3043 58.2424 50.6751 63.285C50.3236 66.1111 51.5448 68.9556 53.6666 70.1931C55.6958 71.3753 58.8969 69.8484 59.8838 67.2071C60.3895 65.8587 60.075 64.2455 58.9833 63.7283C59.3287 63.8884 61.2962 61.8259 61.5923 61.518C62.4236 60.6207 63.0803 59.5767 63.529 58.4395C63.7274 58.0087 63.8664 57.5531 63.9423 57.085C63.9779 56.7222 63.9528 56.356 63.8682 56.0014C63.4673 54.2158 62.0672 54.0741 60.5561 54.345Z" fill="#FF5758" stroke="black" stroke-width="1.47" stroke-miterlimit="10"/>
<path d="M53.3647 65.1045C52.7171 63.8731 53.0069 62.1678 53.7841 60.7578" stroke="white" stroke-width="2.93" stroke-linecap="round" stroke-linejoin="round"/>
<path d="M59.6178 64.262C58.7728 63.3015 57.5515 62.9445 56.4043 62.4766" stroke="black" stroke-width="1.47" stroke-miterlimit="10"/>
<path d="M75.063 62.9017C75.0938 63.0741 75.1371 63.2464 75.1802 63.4188C76.2905 67.9749 79.6211 73.227 85.3202 73.8427C88.509 74.1875 91.6917 72.7651 93.0486 70.3577C94.3439 68.055 92.5613 64.4901 89.5699 63.4249C88.0403 62.8831 86.2269 63.271 85.6657 64.5024C85.8384 64.1145 83.4761 61.9411 83.1245 61.6086C82.0966 60.6912 80.9064 59.973 79.6149 59.4907C79.1252 59.276 78.6086 59.129 78.0791 59.0535C77.665 59.0161 77.2474 59.0515 76.8455 59.1582C74.8533 59.6384 74.7238 61.2085 75.063 62.9017Z" fill="#FF5758" stroke="black" stroke-width="1.47" stroke-miterlimit="10"/>
<path d="M87.3249 70.7903C85.9372 71.5476 84.0189 71.2459 82.3906 70.4023" stroke="white" stroke-width="2.93" stroke-linecap="round" stroke-linejoin="round"/>
<path d="M86.258 63.7773C85.1909 64.744 84.8085 66.1293 84.3027 67.4284" stroke="black" stroke-width="1.47" stroke-miterlimit="10"/>
</svg>
