<svg width="210" height="210" viewBox="0 0 210 210" fill="none" xmlns="http://www.w3.org/2000/svg">
<rect width="210" height="210" fill="#DADDE2"/>
<path d="M96.0556 111H91.6236V110.008L92.9836 109.608V100.984L91.6236 100.568V99.576H96.0556V100.568L94.7116 100.984V109.608L96.0556 110.008V111ZM103.168 111L99.7119 101.288H99.6479C99.6692 101.512 99.6852 101.805 99.6959 102.168C99.7172 102.52 99.7332 102.909 99.7439 103.336C99.7545 103.752 99.7599 104.157 99.7599 104.552V111H98.1919V99.576H100.656L103.936 108.744H104L107.376 99.576H109.84V111H108.16V104.456C108.16 104.083 108.165 103.699 108.176 103.304C108.197 102.909 108.213 102.536 108.224 102.184C108.245 101.832 108.261 101.539 108.272 101.304H108.208L104.656 111H103.168ZM117.647 104.856H121.775V110.552C121.167 110.755 120.543 110.904 119.903 111C119.274 111.107 118.554 111.16 117.743 111.16C115.994 111.16 114.65 110.643 113.711 109.608C112.783 108.573 112.319 107.133 112.319 105.288C112.319 104.093 112.549 103.059 113.007 102.184C113.477 101.299 114.154 100.616 115.039 100.136C115.925 99.656 116.997 99.416 118.255 99.416C118.885 99.416 119.487 99.48 120.063 99.608C120.639 99.736 121.173 99.9013 121.663 100.104L121.039 101.544C120.645 101.363 120.202 101.213 119.711 101.096C119.221 100.968 118.714 100.904 118.191 100.904C117.349 100.904 116.618 101.085 115.999 101.448C115.391 101.8 114.922 102.307 114.591 102.968C114.271 103.629 114.111 104.408 114.111 105.304C114.111 106.157 114.245 106.915 114.511 107.576C114.778 108.237 115.199 108.755 115.775 109.128C116.351 109.501 117.103 109.688 118.031 109.688C118.49 109.688 118.874 109.667 119.183 109.624C119.503 109.571 119.797 109.512 120.063 109.448V106.344H117.647V104.856Z" fill="#697387"/>
</svg>
