<svg width="335" height="300" viewBox="0 0 335 300" fill="none" xmlns="http://www.w3.org/2000/svg">
<rect width="335" height="300" fill="#E8EBF0"/>
<path d="M159.45 149.724H155.55V148.692L156.594 148.212V142.668L155.55 142.188V141.156H159.45V142.188L158.406 142.668V148.212L159.45 148.692V149.724ZM164.534 149.724L162.47 143.004H162.422C162.43 143.164 162.442 143.404 162.458 143.724C162.474 144.044 162.49 144.388 162.506 144.756C162.522 145.124 162.53 145.452 162.53 145.74V149.724H160.91V141.156H163.382L165.41 147.708H165.446L167.594 141.156H170.066V149.724H168.374V145.668C168.374 145.396 168.378 145.084 168.386 144.732C168.402 144.38 168.414 144.048 168.422 143.736C168.438 143.416 168.45 143.176 168.458 143.016H168.41L166.202 149.724H164.534ZM175.482 144.912H178.878V149.352C178.43 149.504 177.962 149.624 177.474 149.712C176.986 149.8 176.438 149.844 175.83 149.844C174.55 149.844 173.566 149.468 172.878 148.716C172.19 147.964 171.846 146.868 171.846 145.428C171.846 144.532 172.018 143.756 172.362 143.1C172.706 142.444 173.21 141.936 173.874 141.576C174.546 141.216 175.362 141.036 176.322 141.036C176.778 141.036 177.226 141.084 177.666 141.18C178.106 141.276 178.506 141.404 178.866 141.564L178.266 143.016C178.002 142.88 177.702 142.768 177.366 142.68C177.03 142.592 176.678 142.548 176.31 142.548C175.782 142.548 175.322 142.668 174.93 142.908C174.546 143.148 174.246 143.488 174.03 143.928C173.822 144.368 173.718 144.88 173.718 145.464C173.718 146.024 173.794 146.52 173.946 146.952C174.098 147.384 174.338 147.724 174.666 147.972C174.994 148.212 175.422 148.332 175.95 148.332C176.206 148.332 176.422 148.32 176.598 148.296C176.774 148.272 176.942 148.244 177.102 148.212V146.424H175.482V144.912Z" fill="#697387"/>
</svg>
