<svg width="24" height="24" viewBox="0 0 24 24" fill="none" xmlns="http://www.w3.org/2000/svg">
<path d="M6 13.5449H18" stroke="white" stroke-width="1.5" stroke-miterlimit="10" stroke-linecap="square"/>
<path d="M2 19.9V13.954C2 13.6303 2.05236 13.3089 2.15505 13.002L4.97716 4.56827C4.9908 4.52749 5.02899 4.5 5.07199 4.5H12H18.928C18.971 4.5 19.0092 4.5275 19.0228 4.56828L21.8451 13.0068C21.9477 13.3136 22 13.6349 22 13.9584V19.9C22 19.9552 21.9552 20 21.9 20H18.1C18.0448 20 18 19.9552 18 19.9V18.0593C18 18.0041 17.9552 17.9593 17.9 17.9593H6.1C6.04477 17.9593 6 18.0041 6 18.0593V19.9C6 19.9552 5.95523 20 5.9 20H2.1C2.04477 20 2 19.9552 2 19.9Z" stroke="white" stroke-width="1.5" stroke-linecap="square"/>
<path d="M1.5 10H22.5" stroke="white" stroke-width="1.5" stroke-miterlimit="10" stroke-linecap="square"/>
</svg>
