<svg width="24" height="24" viewBox="0 0 24 24" fill="none" xmlns="http://www.w3.org/2000/svg">
<circle cx="12" cy="12" r="9" fill="white"/>
<circle cx="12" cy="12" r="9" stroke="#787F8C" stroke-width="1.8"/>
<path fill-rule="evenodd" clip-rule="evenodd" d="M12 21C16.9706 21 21 16.9706 21 12C21 7.02944 16.9706 3 12 3C7.02944 3 3 7.02944 3 12C3 16.9706 7.02944 21 12 21ZM8.53484 15.4647C8.18337 15.1133 8.18337 14.5434 8.53484 14.1919L10.7269 11.9998L8.53497 9.80788C8.1835 9.45641 8.1835 8.88656 8.53497 8.53509C8.88644 8.18362 9.45629 8.18362 9.80776 8.53509L11.9997 10.7271L14.1917 8.53509C14.5432 8.18362 15.113 8.18362 15.4645 8.53509C15.816 8.88656 15.816 9.45641 15.4645 9.80788L13.2725 11.9998L15.4646 14.1919C15.8161 14.5434 15.8161 15.1133 15.4646 15.4647C15.1131 15.8162 14.5433 15.8162 14.1918 15.4647L11.9997 13.2726L9.80764 15.4647C9.45616 15.8162 8.88632 15.8162 8.53484 15.4647Z" fill="#787F8C"/>
</svg>
