<svg width="33" height="33" viewBox="0 0 33 33" fill="none" xmlns="http://www.w3.org/2000/svg">
<path d="M8.83301 18.4219H24.833" stroke="#1F2023" stroke-width="1.5" stroke-miterlimit="10" stroke-linecap="square"/>
<path d="M3.5 26.8966V18.9685C3.5 18.5371 3.56981 18.1084 3.70674 17.6992L7.46954 6.4543C7.48774 6.39993 7.53865 6.36328 7.59598 6.36328H16.8333H26.0707C26.128 6.36328 26.1789 6.39994 26.1971 6.45432L29.9601 17.7057C30.0969 18.1147 30.1667 18.5432 30.1667 18.9744V26.8966C30.1667 26.9702 30.107 27.0299 30.0333 27.0299H24.9667C24.893 27.0299 24.8333 26.9702 24.8333 26.8966V24.4423C24.8333 24.3687 24.7736 24.309 24.7 24.309H8.96667C8.89303 24.309 8.83333 24.3687 8.83333 24.4423V26.8966C8.83333 26.9702 8.77364 27.0299 8.7 27.0299H3.63333C3.5597 27.0299 3.5 26.9702 3.5 26.8966Z" stroke="#1F2023" stroke-width="1.5" stroke-linecap="square"/>
<path d="M2.83301 13.6973H30.833" stroke="#1F2023" stroke-width="1.5" stroke-miterlimit="10" stroke-linecap="square"/>
</svg>
