<svg width="20" height="21" viewBox="0 0 20 21" fill="none" xmlns="http://www.w3.org/2000/svg">
<circle cx="7.5" cy="7.5" r="7.5" transform="matrix(1 0 0 -1 2.5 18)" stroke="#B2B6BD" stroke-width="1.5"/>
<path fill-rule="evenodd" clip-rule="evenodd" d="M10 3C14.1421 3 17.5 6.35786 17.5 10.5C17.5 14.6421 14.1421 18 10 18C5.85786 18 2.5 14.6421 2.5 10.5C2.5 6.35786 5.85786 3 10 3ZM10.9998 13.4582C10.9998 12.906 10.552 12.4583 9.99976 12.4583C9.44747 12.4583 8.99976 12.906 8.99976 13.4582C8.99976 14.0104 9.44747 14.458 9.99976 14.458C10.552 14.458 10.9998 14.0104 10.9998 13.4582ZM10.0005 11.583C10.4147 11.583 10.7505 11.2472 10.7505 10.833V7.49967C10.7505 7.08546 10.4147 6.74967 10.0005 6.74967C9.58627 6.74967 9.25049 7.08546 9.25049 7.49967V10.833C9.25049 11.2472 9.58628 11.583 10.0005 11.583Z" fill="#B2B6BD"/>
</svg>
