<svg width="20" height="20" viewBox="0 0 20 20" fill="none" xmlns="http://www.w3.org/2000/svg">
<path d="M8.26795 3.5C9.03775 2.16667 10.9623 2.16667 11.7321 3.5L17.7942 14C18.564 15.3333 17.6018 17 16.0622 17H3.93782C2.39822 17 1.43597 15.3333 2.20577 14L8.26795 3.5Z" fill="#B2B6BD"/>
<path fill-rule="evenodd" clip-rule="evenodd" d="M10.75 10.9157C10.75 10.5015 10.4142 10.1657 10 10.1657C9.58579 10.1657 9.25 10.5015 9.25 10.9157V14.249C9.25 14.6632 9.58579 14.999 10 14.999C10.4142 14.999 10.75 14.6632 10.75 14.249V10.9157ZM10 9.2904C10.5523 9.2904 11 8.84275 11 8.29054C11 7.73834 10.5523 7.29069 10 7.29069C9.44772 7.29069 9 7.73834 9 8.29054C9 8.84275 9.44772 9.2904 10 9.2904Z" fill="white"/>
</svg>
