<svg width="20" height="20" viewBox="0 0 20 20" fill="none" xmlns="http://www.w3.org/2000/svg">
<path fill-rule="evenodd" clip-rule="evenodd" d="M1.92814 8.72305C6.07517 3.03763 13.9249 3.03763 18.0719 8.72305L18.6814 9.55867C18.8735 9.82202 18.8735 10.1793 18.6814 10.4426L18.0719 11.2783C13.9249 16.9637 6.07517 16.9637 1.92815 11.2783L1.31863 10.4426C1.12654 10.1793 1.12654 9.82202 1.31863 9.55867L1.92814 8.72305ZM8.15015 10.001C8.15015 8.97925 8.97842 8.15098 10.0001 8.15098C11.0219 8.15098 11.8501 8.97925 11.8501 10.001C11.8501 11.0227 11.0219 11.851 10.0001 11.851C8.97842 11.851 8.15015 11.0227 8.15015 10.001ZM10.0001 6.85098C8.26045 6.85098 6.85015 8.26128 6.85015 10.001C6.85015 11.7407 8.26045 13.151 10.0001 13.151C11.7398 13.151 13.1501 11.7407 13.1501 10.001C13.1501 8.26128 11.7398 6.85098 10.0001 6.85098Z" fill="#002C5F"/>
</svg>
