<svg width="16" height="16" viewBox="0 0 16 16" fill="none" xmlns="http://www.w3.org/2000/svg">
<circle cx="8" cy="8" r="6" stroke="#3478FE" stroke-width="1.2"/>
<path fill-rule="evenodd" clip-rule="evenodd" d="M8 14C11.3137 14 14 11.3137 14 8C14 4.68629 11.3137 2 8 2C4.68629 2 2 4.68629 2 8C2 11.3137 4.68629 14 8 14ZM8 8.7319C8.33137 8.7319 8.6 8.46327 8.6 8.1319V5.46523C8.6 5.13386 8.33137 4.86523 8 4.86523C7.66863 4.86523 7.4 5.13386 7.4 5.46523V8.1319C7.4 8.46327 7.66863 8.7319 8 8.7319ZM8.75 10.2316C8.75 9.81747 8.41421 9.48173 8 9.48173C7.58579 9.48173 7.25 9.81747 7.25 10.2316C7.25 10.6458 7.58579 10.9815 8 10.9815C8.41421 10.9815 8.75 10.6458 8.75 10.2316Z" fill="#3478FE"/>
</svg>
