<svg width="24" height="24" viewBox="0 0 24 24" fill="none" xmlns="http://www.w3.org/2000/svg">
<path d="M11.7919 15.421C11.7826 15.4303 11.7715 15.4377 11.7593 15.4427L6.877 17.4531C6.46603 17.6223 6.05507 17.2113 6.22429 16.8004L8.23465 11.9181C8.23967 11.9058 8.24707 11.8948 8.2564 11.8854L18.071 2.07078C18.1101 2.03172 18.1734 2.03172 18.2125 2.07077L21.6066 5.46489C21.6456 5.50394 21.6456 5.56726 21.6066 5.60631L11.7919 15.421Z" stroke="white" stroke-width="1.5"/>
<path d="M12 3H3.1C3.04477 3 3 3.04477 3 3.1V20.9C3 20.9552 3.04477 21 3.1 21H20.9C20.9552 21 21 20.9552 21 20.9V11.5" stroke="white" stroke-width="1.5" stroke-linecap="square"/>
</svg>
