<svg width="24" height="24" viewBox="0 0 24 24" fill="none" xmlns="http://www.w3.org/2000/svg">
<path d="M7.5 21H3.1C3.04477 21 3 20.9552 3 20.9V3.1C3 3.04477 3.04477 3 3.1 3H17.9C17.9552 3 18 3.04477 18 3.1V17" stroke="white" stroke-width="1.5" stroke-linecap="square"/>
<path d="M6 8H14" stroke="white" stroke-width="1.5" stroke-linecap="square"/>
<path d="M6 12H11" stroke="white" stroke-width="1.5" stroke-linecap="square"/>
<path d="M6.97236 17.0553C6.9893 17.0214 7.02393 17 7.0618 17H20.8382C20.9125 17 20.9609 17.0782 20.9276 17.1447L19.0276 20.9447C19.0107 20.9786 18.9761 21 18.9382 21H5.1618C5.08747 21 5.03912 20.9218 5.07236 20.8553L6.97236 17.0553Z" stroke="white" stroke-width="1.5" stroke-linecap="square"/>
</svg>
