<svg width="24" height="24" viewBox="0 0 24 24" fill="none" xmlns="http://www.w3.org/2000/svg">
<path d="M9.13154 4.58843L9.49911 5.24218L9.13154 4.58843ZM9.17714 4.53365L8.46756 4.29077L9.17714 4.53365ZM6.54191 6.02121L6.44071 6.76435L6.54191 6.02121ZM6.60442 6.00929L6.97199 6.66305L6.60442 6.00929ZM3.84465 5.7213L4.51203 6.0635L3.84465 5.7213ZM3.94713 5.66784L3.84592 6.41098L3.94713 5.66784ZM2.08885 9.14553L2.75623 9.48774L2.08885 9.14553ZM3.94699 11.0489L4.46953 10.5109L3.94699 11.0489ZM3.94703 12.7158L3.42419 12.1781L3.94703 12.7158ZM1.98101 14.726L1.31382 15.0686L1.98101 14.726ZM2.00026 14.6087L2.5231 15.1464L2.00026 14.6087ZM3.84121 18.2027L3.7396 17.4596L3.84121 18.2027ZM3.7387 18.1493L4.40589 17.8067L3.7387 18.1493ZM6.33435 17.8823L6.70192 17.2285L6.33435 17.8823ZM6.27179 17.8703L6.17018 17.1273L6.27179 17.8703ZM9.00572 19.4134L9.71531 19.1705L9.00572 19.4134ZM8.96012 19.3586L8.59255 20.0123L8.96012 19.3586ZM9.86797 21.9324L10.5776 21.6896L9.86797 21.9324ZM13.9125 21.9324L13.2029 21.6896L13.9125 21.9324ZM14.7471 19.5724L15.1147 20.2261L14.7471 19.5724ZM14.7015 19.6272L13.9919 19.3843L14.7015 19.6272ZM17.5256 18.0334L17.6268 17.2903L17.5256 18.0334ZM17.4631 18.0453L17.8307 18.6991L17.4631 18.0453ZM20.2521 18.3373L20.9195 18.6795L20.2521 18.3373ZM20.1496 18.3908L20.2508 17.6476L20.1496 18.3908ZM21.9886 14.7957L22.5111 14.2577L21.9886 14.7957ZM22.0079 14.9131L22.6753 15.2553L22.0079 14.9131ZM20.1405 13.0008L20.6631 12.4627L20.1405 13.0008ZM20.1405 11.1101L20.6633 11.6478L20.1405 11.1101ZM22.0167 9.18715L22.6839 8.84458L22.0167 9.18715ZM21.9974 9.30452L22.5203 9.84224L21.9974 9.30452ZM20.1565 5.71048L20.2581 6.45356L20.1565 5.71048ZM20.259 5.76388L19.5918 6.10645L20.259 5.76388ZM17.5493 6.04653L17.1817 6.70028L17.5493 6.04653ZM17.6119 6.05844L17.5103 5.31535L17.6119 6.05844ZM14.9097 4.53326L14.2001 4.77614L14.9097 4.53326ZM14.9553 4.58804L14.5877 5.24179L14.9553 4.58804ZM10.0212 2.06762L10.7308 2.3105L10.0212 2.06762ZM14.0657 2.06762L14.7753 1.82473L14.0657 2.06762ZM13.9711 1.25H10.1158V2.75H13.9711V1.25ZM15.6193 4.29037L14.7753 1.82473L13.3561 2.3105L14.2001 4.77614L15.6193 4.29037ZM17.9169 5.39277L15.3228 3.93429L14.5877 5.24179L17.1817 6.70028L17.9169 5.39277ZM20.0549 4.96739L17.5103 5.31535L17.7135 6.80152L20.2581 6.45356L20.0549 4.96739ZM22.6839 8.84458L20.9262 5.42131L19.5918 6.10645L21.3495 9.52972L22.6839 8.84458ZM20.6633 11.6478L22.5203 9.84224L21.4746 8.7668L19.6176 10.5723L20.6633 11.6478ZM20.8602 12.929V11.1818H19.3602V12.929H20.8602ZM22.5111 14.2577L20.6631 12.4627L19.618 13.5388L21.4661 15.3337L22.5111 14.2577ZM20.9195 18.6795L22.6753 15.2553L21.3405 14.5709L19.5847 17.9951L20.9195 18.6795ZM17.4244 18.7766L20.0484 19.1339L20.2508 17.6476L17.6268 17.2903L17.4244 18.7766ZM15.1147 20.2261L17.8307 18.6991L17.0955 17.3916L14.3796 18.9186L15.1147 20.2261ZM14.622 22.1753L15.4111 19.87L13.9919 19.3843L13.2029 21.6896L14.622 22.1753ZM9.96258 22.7501H13.8178V21.2501H9.96258V22.7501ZM8.29614 19.6562L9.15839 22.1753L10.5776 21.6896L9.71531 19.1705L8.29614 19.6562ZM5.96678 18.536L8.59255 20.0123L9.32769 18.7048L6.70192 17.2285L5.96678 18.536ZM3.94282 18.9458L6.3734 18.6134L6.17018 17.1273L3.7396 17.4596L3.94282 18.9458ZM1.31382 15.0686L3.07151 18.4919L4.40589 17.8067L2.64821 14.3835L1.31382 15.0686ZM3.42419 12.1781L1.47743 14.0709L2.5231 15.1464L4.46986 13.2535L3.42419 12.1781ZM3.22731 11.1206V12.6441H4.72731V11.1206H3.22731ZM1.58562 9.8009L3.42444 11.5869L4.46953 10.5109L2.63071 8.72489L1.58562 9.8009ZM3.17727 5.3791L1.42147 8.80333L2.75623 9.48774L4.51203 6.0635L3.17727 5.3791ZM6.64312 5.27807L4.04833 4.9247L3.84592 6.41098L6.44071 6.76435L6.64312 5.27807ZM8.76397 3.93468L6.23685 5.35554L6.97199 6.66305L9.49911 5.24218L8.76397 3.93468ZM9.31165 1.82473L8.46756 4.29077L9.88672 4.77653L10.7308 2.3105L9.31165 1.82473ZM9.49911 5.24218C9.68112 5.13985 9.8191 4.97409 9.88672 4.77653L8.46756 4.29077C8.51927 4.13969 8.62478 4.01294 8.76397 3.93468L9.49911 5.24218ZM6.44071 6.76435C6.62411 6.78933 6.81065 6.75376 6.97199 6.66305L6.23685 5.35554C6.36022 5.28617 6.50287 5.25897 6.64312 5.27807L6.44071 6.76435ZM4.51203 6.0635C4.3862 6.30891 4.11919 6.4482 3.84592 6.41098L4.04833 4.9247C3.69098 4.87604 3.34183 5.05818 3.17727 5.3791L4.51203 6.0635ZM2.63071 8.72489C2.83566 8.92395 2.88659 9.2335 2.75623 9.48774L1.42147 8.80333C1.251 9.13579 1.31761 9.54059 1.58562 9.8009L2.63071 8.72489ZM4.72731 11.1206C4.72731 10.8909 4.63432 10.6709 4.46953 10.5109L3.42444 11.5869C3.29842 11.4645 3.22731 11.2963 3.22731 11.1206H4.72731ZM4.46986 13.2535C4.63445 13.0935 4.72731 12.8737 4.72731 12.6441H3.22731C3.22731 12.4685 3.29832 12.3005 3.42419 12.1781L4.46986 13.2535ZM2.64821 14.3835C2.77871 14.6376 2.72794 14.9472 2.5231 15.1464L1.47743 14.0709C1.20955 14.3314 1.14317 14.7362 1.31382 15.0686L2.64821 14.3835ZM3.7396 17.4596C4.01285 17.4223 4.27992 17.5614 4.40589 17.8067L3.07151 18.4919C3.23624 18.8127 3.5855 18.9946 3.94282 18.9458L3.7396 17.4596ZM6.70192 17.2285C6.54044 17.1377 6.35372 17.1022 6.17018 17.1273L6.3734 18.6134C6.23304 18.6326 6.09026 18.6054 5.96678 18.536L6.70192 17.2285ZM9.71531 19.1705C9.64768 18.9729 9.50971 18.8072 9.32769 18.7048L8.59255 20.0123C8.45336 19.9341 8.34785 19.8073 8.29614 19.6562L9.71531 19.1705ZM9.96258 21.2501C10.2404 21.2501 10.4876 21.4267 10.5776 21.6896L9.15839 22.1753C9.27606 22.5191 9.59923 22.7501 9.96258 22.7501V21.2501ZM13.2029 21.6896C13.2929 21.4267 13.54 21.2501 13.8178 21.2501V22.7501C14.1812 22.7501 14.5044 22.5191 14.622 22.1753L13.2029 21.6896ZM14.3796 18.9186C14.1975 19.021 14.0596 19.1867 13.9919 19.3843L15.4111 19.87C15.3594 20.0211 15.2539 20.1479 15.1147 20.2261L14.3796 18.9186ZM17.6268 17.2903C17.4434 17.2653 17.2569 17.3009 17.0955 17.3916L17.8307 18.6991C17.7073 18.7684 17.5647 18.7957 17.4244 18.7766L17.6268 17.2903ZM19.5847 17.9951C19.7106 17.7497 19.9776 17.6104 20.2508 17.6476L20.0484 19.1339C20.4058 19.1826 20.7549 19.0004 20.9195 18.6795L19.5847 17.9951ZM21.4661 15.3337C21.2611 15.1347 21.2102 14.8251 21.3405 14.5709L22.6753 15.2553C22.8458 14.9228 22.7792 14.518 22.5111 14.2577L21.4661 15.3337ZM19.3602 12.929C19.3602 13.1587 19.4532 13.3787 19.618 13.5388L20.6631 12.4627C20.7891 12.5851 20.8602 12.7533 20.8602 12.929H19.3602ZM19.6176 10.5723C19.4531 10.7324 19.3602 10.9522 19.3602 11.1818H20.8602C20.8602 11.3573 20.7892 11.5254 20.6633 11.6478L19.6176 10.5723ZM21.3495 9.52972C21.219 9.27555 21.2697 8.96597 21.4746 8.7668L22.5203 9.84224C22.7881 9.58178 22.8545 9.17695 22.6839 8.84458L21.3495 9.52972ZM20.2581 6.45356C19.9848 6.49093 19.7178 6.35179 19.5918 6.10645L20.9262 5.42131C20.7614 5.10048 20.4122 4.91853 20.0549 4.96739L20.2581 6.45356ZM17.1817 6.70028C17.3432 6.79107 17.5299 6.82662 17.7135 6.80152L17.5103 5.31535C17.6506 5.29616 17.7934 5.32335 17.9169 5.39277L17.1817 6.70028ZM14.2001 4.77614C14.2677 4.9737 14.4057 5.13945 14.5877 5.24179L15.3228 3.93429C15.462 4.01254 15.5675 4.1393 15.6193 4.29037L14.2001 4.77614ZM10.1158 1.25C9.75249 1.25 9.42932 1.48096 9.31165 1.82473L10.7308 2.3105C10.6408 2.57338 10.3937 2.75 10.1158 2.75V1.25ZM13.9711 2.75C13.6932 2.75 13.4461 2.57338 13.3561 2.3105L14.7753 1.82473C14.6576 1.48096 14.3345 1.25 13.9711 1.25V2.75Z" fill="#787F8C"/>
<circle cx="12" cy="12" r="3" stroke="#787F8C" stroke-width="1.5"/>
</svg>
