<svg width="24" height="24" viewBox="0 0 24 24" fill="none" xmlns="http://www.w3.org/2000/svg">
<path d="M4 3.1V20.9C4 20.9552 4.04477 21 4.1 21H19.9C19.9552 21 20 20.9552 20 20.9V7.04142C20 7.0149 19.9895 6.98946 19.9707 6.97071L16.0293 3.02929C16.0105 3.01054 15.9851 3 15.9586 3H4.1C4.04477 3 4 3.04477 4 3.1Z" stroke="white" stroke-width="1.5" stroke-linecap="square"/>
<path d="M7.99951 9.6437L9.90149 16.3006C9.92927 16.3979 10.0673 16.3971 10.0941 16.2996L11.9032 9.70689C11.9301 9.60884 12.0692 9.60884 12.0961 9.70689L13.9067 16.305C13.9334 16.4021 14.0698 16.4057 14.0981 16.3091C14.4032 15.2685 15.3521 12.0186 15.9998 9.6437" stroke="white" stroke-width="1.5" stroke-linecap="square"/>
<path d="M7 12.6436H8.57432" stroke="white" stroke-width="1.5" stroke-linecap="square"/>
<path d="M15.5732 12.6436H16.9999" stroke="white" stroke-width="1.5" stroke-linecap="square"/>
</svg>
