<svg width="20" height="20" viewBox="0 0 20 20" fill="none" xmlns="http://www.w3.org/2000/svg">
<path fill-rule="evenodd" clip-rule="evenodd" d="M3.67944 13.4464C2.98206 12.8718 2.33581 12.1897 1.75982 11.4L1.06075 10.4416C0.868665 10.1783 0.868665 9.821 1.06075 9.55766L1.75982 8.59926C4.4641 4.89179 8.71712 3.55441 12.5387 4.58712L10.3569 6.769C10.2397 6.7562 10.1206 6.74963 10.0001 6.74963C8.20514 6.74963 6.75006 8.20471 6.75006 9.99963C6.75006 10.1202 6.75663 10.2393 6.76942 10.3564L3.67944 13.4464ZM4.70294 14.1907C9.05608 16.966 14.8588 16.0358 18.2402 11.4L18.9393 10.4416C19.1314 10.1783 19.1314 9.821 18.9393 9.55766L18.2402 8.59926C17.0285 6.93807 15.5059 5.7527 13.8505 5.04317L11.6779 7.21569C12.6201 7.78477 13.2501 8.81864 13.2501 9.99963C13.2501 11.7946 11.795 13.2496 10.0001 13.2496C8.81906 13.2496 7.78519 12.6197 7.21612 11.6775L4.70294 14.1907ZM8.33967 10.554C8.57153 11.2488 9.2273 11.7496 10.0001 11.7496C10.9666 11.7496 11.7501 10.9661 11.7501 9.99963C11.7501 9.22688 11.2492 8.5711 10.5544 8.33925L8.33967 10.554Z" fill="#B4C0D4"/>
<path d="M2.74585 17.2098L16.888 3.06771" stroke="#B4C0D4" stroke-width="1.5" stroke-linecap="round" stroke-linejoin="round"/>
</svg>
