<svg width="24" height="24" viewBox="0 0 24 24" fill="none" xmlns="http://www.w3.org/2000/svg">
<path d="M18 21C19.1046 21 20 20.1046 20 19C20 17.8954 19.1046 17 18 17C16.8954 17 16 17.8954 16 19C16 20.1046 16.8954 21 18 21Z" stroke="white" stroke-width="1.5" stroke-miterlimit="10"/>
<path d="M8 21C9.10457 21 10 20.1046 10 19C10 17.8954 9.10457 17 8 17C6.89543 17 6 17.8954 6 19C6 20.1046 6.89543 21 8 21Z" stroke="white" stroke-width="1.5" stroke-miterlimit="10"/>
<path d="M18.1901 17H8.03077C7.03666 17 6.23077 16.1941 6.23077 15.2V15.2C6.23077 14.2059 7.03666 13.4 8.03077 13.4H17.5219C17.5626 13.4 17.5993 13.3753 17.6146 13.3376L20.9441 5.13762C20.9708 5.07187 20.9224 5 20.8515 5H5" stroke="white" stroke-width="1.5" stroke-linecap="round"/>
<path d="M2 3H4.19178C4.2335 3 4.27084 3.0259 4.28545 3.06498L8 13" stroke="white" stroke-width="1.5" stroke-linecap="round"/>
</svg>
