<svg width="104" height="38" viewBox="0 0 104 38" fill="none" xmlns="http://www.w3.org/2000/svg">
<path d="M2.29785 29.1332V10.3612H6.03273V29.1332H2.29785Z" fill="#1A1A1A"/>
<path d="M10.3248 29.1332V14.9466H13.353L13.6306 16.8212H13.7063C14.9429 15.6052 16.3813 14.5919 18.2992 14.5919C21.3528 14.5919 22.665 16.7199 22.665 20.2919V29.1332H18.9554V20.7479C18.9554 18.5439 18.3497 17.7839 16.9617 17.7839C15.8009 17.7839 15.0691 18.3412 14.0344 19.3799V29.1332H10.3248Z" fill="#1A1A1A"/>
<path d="M30.5291 29.4879C28.6364 29.4879 26.5671 28.6519 25.1539 27.4866L26.8447 25.1559C28.1064 26.1439 29.3178 26.7012 30.63 26.7012C32.0432 26.7012 32.6741 26.0932 32.6741 25.2066C32.6741 24.1426 31.2104 23.6612 29.7215 23.0786C27.9298 22.3946 25.9362 21.3052 25.9362 18.9239C25.9362 16.3906 27.9803 14.5919 31.2104 14.5919C33.2545 14.5919 34.8444 15.4532 36.0052 16.3399L34.3397 18.5946C33.3302 17.8599 32.346 17.3786 31.3114 17.3786C30.0244 17.3786 29.4187 17.9359 29.4187 18.7466C29.4187 19.7852 30.731 20.1652 32.2199 20.7226C34.0873 21.4319 36.1566 22.3692 36.1566 25.0039C36.1566 27.4866 34.2135 29.4879 30.5291 29.4879Z" fill="#1A1A1A"/>
<path d="M38.986 29.1332V14.9466H42.6956V29.1332H38.986ZM40.8534 12.6666C39.5664 12.6666 38.6831 11.8559 38.6831 10.6146C38.6831 9.39856 39.5664 8.58789 40.8534 8.58789C42.1152 8.58789 42.9984 9.39856 42.9984 10.6146C42.9984 11.8559 42.1152 12.6666 40.8534 12.6666Z" fill="#1A1A1A"/>
<path d="M51.6217 35.2892C48.2906 35.2892 45.7166 34.1492 45.7166 31.6412C45.7166 30.4506 46.4484 29.4372 47.7355 28.7026V28.5759C47.0036 28.0946 46.4484 27.3599 46.4484 26.1946C46.4484 25.1306 47.1803 24.1426 48.0383 23.5346V23.4332C47.0541 22.7239 46.1456 21.3812 46.1456 19.7092C46.1456 16.3906 48.8458 14.5919 51.8489 14.5919C52.6312 14.5919 53.3882 14.7439 53.9687 14.9466H59.0663V17.6826H56.6689C57.0222 18.1639 57.2998 18.9492 57.2998 19.8359C57.2998 23.0279 54.8771 24.6492 51.8489 24.6492C51.2937 24.6492 50.6376 24.5226 50.0319 24.3199C49.6534 24.6492 49.4262 24.9532 49.4262 25.5359C49.4262 26.2959 49.9814 26.7012 51.647 26.7012H54.0444C57.4512 26.7012 59.3186 27.7652 59.3186 30.2479C59.3186 33.1106 56.3408 35.2892 51.6217 35.2892ZM51.8489 22.3439C53.0854 22.3439 54.0696 21.4066 54.0696 19.7092C54.0696 18.0626 53.1107 17.1252 51.8489 17.1252C50.5871 17.1252 49.6281 18.0626 49.6281 19.7092C49.6281 21.4066 50.6123 22.3439 51.8489 22.3439ZM52.1769 32.9332C54.2967 32.9332 55.7604 31.9959 55.7604 30.8812C55.7604 29.8679 54.9276 29.6146 53.4135 29.6146H51.6975C50.8394 29.6146 50.2338 29.5386 49.7291 29.4119C49.0982 29.9186 48.8206 30.4759 48.8206 31.0586C48.8206 32.2492 50.1328 32.9332 52.1769 32.9332Z" fill="#1A1A1A"/>
<path d="M61.7079 29.1332V8.91722H65.4176V14.0092L65.2409 16.6692C66.3765 15.6052 67.7645 14.5919 69.6824 14.5919C72.7359 14.5919 74.0482 16.7199 74.0482 20.2919V29.1332H70.3385V20.7479C70.3385 18.5439 69.7329 17.7839 68.3449 17.7839C67.1841 17.7839 66.4522 18.3412 65.4176 19.3799V29.1332H61.7079Z" fill="#1A1A1A"/>
<path d="M83.0232 29.4879C79.6669 29.4879 78.3798 27.3346 78.3798 24.1679V17.8852H76.3862V15.1239L78.5817 14.9466L79.0107 11.1212H82.0895V14.9466H85.572V17.8852H82.0895V24.1679C82.0895 25.7892 82.7456 26.5492 84.0074 26.5492C84.4616 26.5492 85.0168 26.3972 85.3953 26.2452L86.001 28.9559C85.2439 29.2092 84.2597 29.4879 83.0232 29.4879Z" fill="#1A1A1A"/>
<path d="M93.2184 5H96.7836V10.327H102.001V13.717H96.7836V19H93.2184V13.717H88.001V10.327H93.2184V5Z" fill="#8A54F7"/>
</svg>
