<svg width="48" height="50" viewBox="0 0 48 50" fill="none" xmlns="http://www.w3.org/2000/svg">
<path d="M10.8525 18.4736C12.7777 15.2751 15.5755 12.719 18.9032 11.1186C22.2309 9.51829 25.9439 8.94319 29.5872 9.46384C33.2305 9.98449 36.6458 11.5783 39.4145 14.0498C42.1832 16.5214 44.1852 19.7634 45.1749 23.3785C46.1647 26.9936 46.0993 30.8248 44.9867 34.4026C43.8742 37.9803 41.7628 41.1492 38.9114 43.5209C36.06 45.8926 32.5924 47.364 28.9336 47.7549C25.2748 48.1458 21.5836 47.4392 18.3125 45.7215" stroke="#499690" stroke-width="4" stroke-miterlimit="10"/>
<path d="M26.9855 32.5105C29.1186 32.5105 30.8479 30.7462 30.8479 28.5697C30.8479 26.3933 29.1186 24.6289 26.9855 24.6289C24.8523 24.6289 23.123 26.3933 23.123 28.5697C23.123 30.7462 24.8523 32.5105 26.9855 32.5105Z" stroke="#499690" stroke-width="4" stroke-miterlimit="10"/>
<path d="M35.8905 21.2734L29.8945 25.9799" stroke="#499690" stroke-width="4" stroke-miterlimit="10"/>
<path d="M21.8477 9.94487V4.78052C21.8562 4.42069 21.9343 4.0661 22.0772 3.73704C22.2201 3.40798 22.4252 3.11089 22.6808 2.86273C22.9363 2.61457 23.2373 2.42021 23.5664 2.29076C23.8956 2.1613 24.2465 2.09929 24.5992 2.10828H29.3812C29.7339 2.09929 30.0849 2.1613 30.414 2.29076C30.7432 2.42021 31.0441 2.61457 31.2997 2.86273C31.5552 3.11089 31.7603 3.40798 31.9032 3.73704C32.0462 4.0661 32.1242 4.42069 32.1328 4.78052V9.87731" stroke="#499690" stroke-width="4" stroke-miterlimit="10"/>
<path d="M3.6748 25.0117H14.8427" stroke="#499690" stroke-width="4" stroke-miterlimit="10"/>
<path d="M3.6748 39.25H14.8427" stroke="#499690" stroke-width="4" stroke-miterlimit="10"/>
<path d="M0 32.1348H14.839" stroke="#499690" stroke-width="4" stroke-miterlimit="10"/>
</svg>
