<svg width="50" height="50" viewBox="0 0 50 50" fill="none" xmlns="http://www.w3.org/2000/svg">
<path d="M16.7753 34.2249C14.7887 32.8477 13.1733 31.0562 12.0573 28.9928C10.9413 26.9294 10.3556 24.6511 10.3468 22.3389C10.3379 20.0268 10.9061 17.7446 12.0063 15.6738C13.1064 13.6029 14.7081 11.8007 16.684 10.4102" stroke="#499690" stroke-width="4" stroke-miterlimit="10"/>
<path d="M12.1837 40.6381C9.34559 38.5178 7.03788 35.7611 5.44375 32.587C3.84962 29.4128 3.01293 25.9085 3.00015 22.3522C2.98737 18.7959 3.79885 15.2856 5.37012 12.0999C6.94139 8.91423 9.2292 6.14087 12.052 4" stroke="#499690" stroke-width="4" stroke-miterlimit="10"/>
<path d="M34.2246 34.2249C36.2111 32.8477 37.8266 31.0562 38.9426 28.9928C40.0585 26.9294 40.6442 24.6511 40.6531 22.3389C40.6619 20.0268 40.0937 17.7446 38.9936 15.6738C37.8935 13.6029 36.2918 11.8007 34.3159 10.4102" stroke="#499690" stroke-width="4" stroke-miterlimit="10"/>
<path d="M38.8164 40.6381C41.6541 38.5194 43.9619 35.7634 45.5561 32.589C47.1504 29.4146 47.9872 25.9094 47.9999 22.3522C48.0127 18.795 47.2011 15.2839 45.6297 12.098C44.0583 8.91205 41.7704 6.13923 38.948 4" stroke="#499690" stroke-width="4" stroke-miterlimit="10"/>
<path d="M25.9594 27.8155C29.0026 27.8155 31.4696 25.355 31.4696 22.3198C31.4696 19.2847 29.0026 16.8242 25.9594 16.8242C22.9162 16.8242 20.4492 19.2847 20.4492 22.3198C20.4492 25.355 22.9162 27.8155 25.9594 27.8155Z" stroke="#499690" stroke-width="4" stroke-miterlimit="10"/>
<path d="M25.959 45.2175C25.959 45.0025 25.959 27.8145 25.959 27.8145" stroke="#499690" stroke-width="4" stroke-miterlimit="10"/>
</svg>
