<svg width="50" height="50" viewBox="0 0 50 50" fill="none" xmlns="http://www.w3.org/2000/svg">
<path d="M13.5497 19.2656H7.94531V36.5012H13.5497V19.2656Z" stroke="#499690" stroke-width="3.28571" stroke-miterlimit="10"/>
<path d="M7.9452 21.634C7.9452 21.634 2.01428 20.2197 2.21597 27.8851C2.41766 35.5506 7.9452 33.9862 7.9452 33.9862" stroke="#499690" stroke-width="3.28571" stroke-miterlimit="10"/>
<path d="M36.4503 36.5039H42.0547V19.2683H36.4503V36.5039Z" stroke="#499690" stroke-width="3.28571" stroke-miterlimit="10"/>
<path d="M42.0547 21.634C42.0547 21.634 47.9856 20.2197 47.7839 27.8851C47.5822 35.5506 42.0547 33.9862 42.0547 33.9862" stroke="#499690" stroke-width="3.28571" stroke-miterlimit="10"/>
<path d="M24.9993 2.21094C23.4703 2.21094 18.3865 2.47944 13.1135 7.01744C7.4965 11.8517 7.944 19.2663 7.944 19.2663" stroke="#499690" stroke-width="3.28571" stroke-miterlimit="10"/>
<path d="M42.0553 19.2663C42.0553 19.2663 42.5028 11.8517 36.8858 7.01744C31.6129 2.4807 26.5291 2.21094 25 2.21094" stroke="#499690" stroke-width="3.28571" stroke-miterlimit="10"/>
<path d="M42.0549 35.3281V39.3959C42.0549 42.4591 39.5716 44.9424 36.5084 44.9424H30.7363" stroke="#499690" stroke-width="3.28571" stroke-miterlimit="10"/>
<path d="M27.9101 42.1367H25.0247C23.4631 42.1367 22.1973 43.4023 22.1973 44.9635C22.1973 46.5247 23.4631 47.7903 25.0247 47.7903H27.9101C29.4717 47.7903 30.7375 46.5247 30.7375 44.9635C30.7375 43.4023 29.4717 42.1367 27.9101 42.1367Z" stroke="#499690" stroke-width="3.28571" stroke-miterlimit="10"/>
</svg>
