<svg width="50" height="50" viewBox="0 0 50 50" fill="none" xmlns="http://www.w3.org/2000/svg">
<g clip-path="url(#clip0_539_20202)">
<path d="M25.0153 31.8035C33.082 31.8035 39.6214 25.1685 39.6214 16.9838C39.6214 8.79907 33.082 2.16406 25.0153 2.16406C16.9486 2.16406 10.4092 8.79907 10.4092 16.9838C10.4092 25.1685 16.9486 31.8035 25.0153 31.8035Z" stroke="#499690" stroke-width="4" stroke-miterlimit="10"/>
<path d="M15.9933 28.5448C14.3006 28.9088 12.5493 28.8857 10.8665 28.4769C9.18378 28.0682 7.61195 27.2841 6.26528 26.1818C4.91861 25.0794 3.83096 23.6865 3.08135 22.1042C2.33174 20.522 1.93902 18.7901 1.93174 17.0345C1.92447 15.2789 2.30277 13.5438 3.03924 11.9551C3.77571 10.3665 4.85182 8.96436 6.1893 7.85057C7.52679 6.73679 9.09206 5.93937 10.7713 5.51627C12.4506 5.09318 14.2017 5.05503 15.8974 5.40463" stroke="#499690" stroke-width="4" stroke-miterlimit="10"/>
<path d="M34.0059 28.5448C35.6985 28.9088 37.4499 28.8857 39.1327 28.4769C40.8154 28.0682 42.3872 27.2841 43.7338 26.1818C45.0805 25.0794 46.1682 23.6865 46.9178 22.1042C47.6674 20.522 48.0601 18.7901 48.0674 17.0345C48.0747 15.2789 47.6963 13.5438 46.9598 11.9551C46.2234 10.3665 45.1473 8.96436 43.8099 7.85057C42.4724 6.73679 40.9071 5.93937 39.2278 5.51627C37.5485 5.09318 35.7974 5.05503 34.1018 5.40463" stroke="#499690" stroke-width="4" stroke-miterlimit="10"/>
<path d="M20.7431 31.2637V39.4034C20.7431 39.4664 20.7309 39.5287 20.7071 39.5869C20.6834 39.6451 20.6485 39.698 20.6046 39.7425C20.5607 39.7871 20.5086 39.8224 20.4513 39.8465C20.3939 39.8706 20.3324 39.883 20.2704 39.883H18.5645C18.4035 39.8779 18.2448 39.923 18.1098 40.0122C17.9748 40.1014 17.87 40.2304 17.8096 40.3819C17.7491 40.5334 17.7358 40.7001 17.7716 40.8594C17.8074 41.0188 17.8904 41.1632 18.0096 41.2732L24.4426 47.8003C24.5152 47.8747 24.6016 47.9337 24.6969 47.974C24.7921 48.0144 24.8943 48.0351 24.9975 48.0351C25.1007 48.0351 25.2029 48.0144 25.2981 47.974C25.3934 47.9337 25.4798 47.8747 25.5524 47.8003L31.9854 41.2732C32.1046 41.1632 32.1876 41.0188 32.2233 40.8594C32.2591 40.7001 32.2459 40.5334 32.1854 40.3819C32.1249 40.2304 32.0201 40.1014 31.8852 40.0122C31.7502 39.923 31.5915 39.8779 31.4305 39.883H29.7246C29.5992 39.883 29.479 39.8325 29.3903 39.7425C29.3017 39.6526 29.2519 39.5306 29.2519 39.4034V31.2637" stroke="#499690" stroke-width="4" stroke-miterlimit="10"/>
<path d="M28.2236 12.168H24.4077C23.3252 12.168 21.9619 12.6267 21.9619 13.8988C21.9619 15.1708 22.9279 15.7478 24.2981 16.6167C25.6682 17.4855 28.1688 18.2919 28.2236 19.6195C28.2785 20.9472 27.3125 21.7048 25.9491 21.7605C24.5858 21.8161 21.9619 21.7605 21.9619 21.7605" stroke="#499690" stroke-width="3" stroke-miterlimit="10"/>
<path d="M25.0215 8.99219V12.1688" stroke="#499690" stroke-width="3" stroke-miterlimit="10"/>
<path d="M25.0215 21.7891V24.9657" stroke="#499690" stroke-width="3" stroke-miterlimit="10"/>
</g>
<defs>
<clipPath id="clip0_539_20202">
<rect width="50" height="50" fill="white"/>
</clipPath>
</defs>
</svg>
