<svg width="50" height="50" viewBox="0 0 50 50" fill="none" xmlns="http://www.w3.org/2000/svg">
<g clip-path="url(#clip0_539_20180)">
<path d="M6.39844 47.3884V3.16879C6.39844 2.95775 6.48147 2.75536 6.62924 2.60613C6.77701 2.4569 6.97742 2.37305 7.1864 2.37305H28.4613C28.6702 2.37305 28.8707 2.4569 29.0184 2.60613C29.1662 2.75536 29.2492 2.95775 29.2492 3.16879V41.1656" stroke="#499690" stroke-width="4" stroke-miterlimit="10"/>
<path d="M44.5992 47.3902V10.6825C44.5992 10.4714 44.5162 10.269 44.3684 10.1198C44.2207 9.97057 44.0202 9.88672 43.8112 9.88672H29.2734" stroke="#499690" stroke-width="4" stroke-miterlimit="10"/>
<path d="M14.0625 47.3893V41.6122C14.0625 41.4011 14.1455 41.1987 14.2933 41.0495C14.4411 40.9003 14.6415 40.8164 14.8505 40.8164H20.7996C21.0086 40.8164 21.209 40.9003 21.3567 41.0495C21.5045 41.1987 21.5875 41.4011 21.5875 41.6122V47.3893" stroke="#499690" stroke-width="4" stroke-miterlimit="10"/>
<path d="M37.8978 15.5527H35.9831C35.5609 15.5527 35.2188 15.8983 35.2188 16.3246V18.6164C35.2188 19.0426 35.5609 19.3882 35.9831 19.3882H37.8978C38.3199 19.3882 38.6621 19.0426 38.6621 18.6164V16.3246C38.6621 15.8983 38.3199 15.5527 37.8978 15.5527Z" fill="#499690"/>
<path d="M37.8978 23.2695H35.9831C35.5609 23.2695 35.2188 23.6151 35.2188 24.0414V26.3332C35.2188 26.7594 35.5609 27.105 35.9831 27.105H37.8978C38.3199 27.105 38.6621 26.7594 38.6621 26.3332V24.0414C38.6621 23.6151 38.3199 23.2695 37.8978 23.2695Z" fill="#499690"/>
<path d="M37.8978 30.9883H35.9831C35.5609 30.9883 35.2188 31.3339 35.2188 31.7602V34.0519C35.2188 34.4782 35.5609 34.8238 35.9831 34.8238H37.8978C38.3199 34.8238 38.6621 34.4782 38.6621 34.0519V31.7602C38.6621 31.3339 38.3199 30.9883 37.8978 30.9883Z" fill="#499690"/>
<path d="M37.8978 38.7168H35.9831C35.5609 38.7168 35.2188 39.0624 35.2188 39.4887V41.7804C35.2188 42.2067 35.5609 42.5523 35.9831 42.5523H37.8978C38.3199 42.5523 38.6621 42.2067 38.6621 41.7804V39.4887C38.6621 39.0624 38.3199 38.7168 37.8978 38.7168Z" fill="#499690"/>
<path d="M14.9369 7.69531H13.0221C12.6 7.69531 12.2578 8.04089 12.2578 8.46719V10.7589C12.2578 11.1852 12.6 11.5308 13.0221 11.5308H14.9369C15.359 11.5308 15.7012 11.1852 15.7012 10.7589V8.46719C15.7012 8.04089 15.359 7.69531 14.9369 7.69531Z" fill="#499690"/>
<path d="M22.5697 7.69531H20.6549C20.2328 7.69531 19.8906 8.04089 19.8906 8.46719V10.7589C19.8906 11.1852 20.2328 11.5308 20.6549 11.5308H22.5697C22.9918 11.5308 23.334 11.1852 23.334 10.7589V8.46719C23.334 8.04089 22.9918 7.69531 22.5697 7.69531Z" fill="#499690"/>
<path d="M14.9369 15.3672H13.0221C12.6 15.3672 12.2578 15.7128 12.2578 16.1391V18.4308C12.2578 18.8571 12.6 19.2027 13.0221 19.2027H14.9369C15.359 19.2027 15.7012 18.8571 15.7012 18.4308V16.1391C15.7012 15.7128 15.359 15.3672 14.9369 15.3672Z" fill="#499690"/>
<path d="M22.5697 15.3672H20.6549C20.2328 15.3672 19.8906 15.7128 19.8906 16.1391V18.4308C19.8906 18.8571 20.2328 19.2027 20.6549 19.2027H22.5697C22.9918 19.2027 23.334 18.8571 23.334 18.4308V16.1391C23.334 15.7128 22.9918 15.3672 22.5697 15.3672Z" fill="#499690"/>
<path d="M14.9369 23.1914H13.0221C12.6 23.1914 12.2578 23.537 12.2578 23.9633V26.255C12.2578 26.6813 12.6 27.0269 13.0221 27.0269H14.9369C15.359 27.0269 15.7012 26.6813 15.7012 26.255V23.9633C15.7012 23.537 15.359 23.1914 14.9369 23.1914Z" fill="#499690"/>
<path d="M22.5697 23.1914H20.6549C20.2328 23.1914 19.8906 23.537 19.8906 23.9633V26.255C19.8906 26.6813 20.2328 27.0269 20.6549 27.0269H22.5697C22.9918 27.0269 23.334 26.6813 23.334 26.255V23.9633C23.334 23.537 22.9918 23.1914 22.5697 23.1914Z" fill="#499690"/>
<path d="M14.9369 30.9102H13.0221C12.6 30.9102 12.2578 31.2557 12.2578 31.682V33.9738C12.2578 34.4001 12.6 34.7457 13.0221 34.7457H14.9369C15.359 34.7457 15.7012 34.4001 15.7012 33.9738V31.682C15.7012 31.2557 15.359 30.9102 14.9369 30.9102Z" fill="#499690"/>
<path d="M22.5697 30.9102H20.6549C20.2328 30.9102 19.8906 31.2557 19.8906 31.682V33.9738C19.8906 34.4001 20.2328 34.7457 20.6549 34.7457H22.5697C22.9918 34.7457 23.334 34.4001 23.334 33.9738V31.682C23.334 31.2557 22.9918 30.9102 22.5697 30.9102Z" fill="#499690"/>
</g>
<defs>
<clipPath id="clip0_539_20180">
<rect width="41" height="47" fill="white" transform="translate(5 1)"/>
</clipPath>
</defs>
</svg>
