<svg width="57" height="57" viewBox="0 0 57 57" fill="none" xmlns="http://www.w3.org/2000/svg">
<path d="M53.2545 0H3.74549C1.67691 0 0 1.67652 0 3.74462V53.2422C0 55.3103 1.67691 56.9868 3.74549 56.9868H53.2545C55.3231 56.9868 57 55.3103 57 53.2422V3.74462C57 1.67652 55.3231 0 53.2545 0Z" fill="#3C5A99"/>
<path d="M31.0295 45V29.9367H36.0429L36.7904 24.0711H31.0295V20.3351C31.0295 18.6369 31.5035 17.4803 33.919 17.4803H37V12.2389C35.5077 12.0746 34.0074 11.9949 32.5062 12.0002C28.067 12.0002 25.0225 14.7541 25.0225 19.7476V24.0711H20V29.9367H25.0225V45H31.0295Z" fill="white"/>
</svg>
