<svg width="352" height="292" viewBox="0 0 352 292" fill="none" xmlns="http://www.w3.org/2000/svg">
<g clip-path="url(#clip0_997_45756)">
<path d="M203.883 71.0025C192.073 68.5041 179.871 68.5041 168.06 71.0025C167.742 71.0034 167.427 70.9415 167.132 70.8202C166.838 70.699 166.571 70.5208 166.346 70.296C166.12 70.0711 165.941 69.804 165.82 69.5099C165.698 69.2157 165.635 68.9004 165.635 68.582C165.635 67.9383 165.89 67.3209 166.345 66.8657C166.8 66.4105 167.417 66.1548 168.06 66.1548C179.871 63.6567 192.073 63.6567 203.883 66.1548C204.202 66.1548 204.517 66.2176 204.81 66.3396C205.104 66.4617 205.371 66.6406 205.596 66.8661C205.821 67.0916 205.999 67.3592 206.12 67.6536C206.241 67.9481 206.303 68.2636 206.302 68.582V68.582C206.303 68.9001 206.241 69.2153 206.12 69.5094C205.998 69.8034 205.82 70.0706 205.596 70.2956C205.371 70.5205 205.104 70.6988 204.81 70.8201C204.516 70.9414 204.201 71.0034 203.883 71.0025Z" fill="black"/>
<path d="M185.808 41.8068C197.101 41.8068 206.255 32.6448 206.255 21.3428C206.255 10.0409 197.101 0.878906 185.808 0.878906C174.515 0.878906 165.36 10.0409 165.36 21.3428C165.36 32.6448 174.515 41.8068 185.808 41.8068Z" fill="#FFE86C" stroke="black" stroke-width="2.64" stroke-linecap="round" stroke-linejoin="round"/>
<path d="M185.807 37.3762C194.654 37.3762 201.826 30.1985 201.826 21.3444C201.826 12.4902 194.654 5.3125 185.807 5.3125C176.96 5.3125 169.788 12.4902 169.788 21.3444C169.788 30.1985 176.96 37.3762 185.807 37.3762Z" fill="#FFE86C" stroke="black" stroke-width="1.24" stroke-linecap="round" stroke-linejoin="round"/>
<path d="M173.386 20.4307C173.386 17.6615 175.161 16.2735 177.171 16.2735C177.841 16.2689 178.501 16.4375 179.087 16.763C179.308 16.9038 179.375 17.0245 179.174 17.5073C178.973 17.99 178.873 18.0437 178.638 17.9565C178.182 17.7372 177.684 17.6183 177.178 17.6078C175.737 17.6078 174.759 18.8416 174.759 20.4307C174.759 22.0198 175.657 23.2803 177.178 23.2803C177.684 23.2699 178.182 23.151 178.638 22.9317C178.873 22.8244 178.987 22.8579 179.188 23.3675C179.389 23.8771 179.328 23.9576 179.087 24.0984C178.509 24.4452 177.845 24.6239 177.171 24.6147C174.752 24.6147 173.386 22.7976 173.386 20.4307Z" fill="black"/>
<path d="M183.295 16.2734C185.265 16.2734 186.712 17.9564 186.712 20.444C186.712 22.9316 185.265 24.6146 183.295 24.6146C181.326 24.6146 179.865 22.9517 179.865 20.444C179.865 17.9363 181.319 16.2734 183.295 16.2734ZM183.295 17.6145C181.909 17.6145 181.239 18.9555 181.239 20.4507C181.239 21.9459 181.909 23.287 183.295 23.287C184.682 23.287 185.305 21.9795 185.305 20.4507C185.305 18.9219 184.656 17.6078 183.302 17.6078L183.295 17.6145Z" fill="black"/>
<path d="M190.33 16.4297C190.598 16.4297 190.638 16.6577 190.638 17.1002C190.638 17.5427 190.598 17.7707 190.33 17.7707H189.66V23.1951H190.33C190.598 23.1951 190.638 23.4365 190.638 23.8656C190.638 24.2948 190.598 24.5361 190.33 24.5361H187.442V23.1951H188.333V17.7372H187.442V16.4297H190.33Z" fill="black"/>
<path d="M191.67 16.4297H193.305L196.092 21.9547V16.4297H197.432V24.4758H195.985L193.03 18.9039V24.2679C193.03 24.5294 192.775 24.5831 192.36 24.5831C191.945 24.5831 191.69 24.5294 191.69 24.2814L191.67 16.4297Z" fill="black"/>
<path d="M118.074 200.638C113.263 202.16 108.694 201.946 103.837 201.631C100.226 201.396 96.6011 201.181 93.0167 200.645C92.0118 200.491 81.3325 197.909 81.3057 198.017C81.8416 195.435 82.4446 191.613 83.5568 189.521C84.7761 187.228 87.657 186.437 89.352 185.552L101.371 179.269C104.5 177.633 107.649 175.99 110.898 175.199" fill="#E8E8E8"/>
<path d="M117.933 199.511C114.371 200.502 110.667 200.881 106.979 200.631C103.247 200.483 99.5089 200.235 95.7973 199.813C92.0856 199.39 88.5147 198.472 84.8969 197.607L82.3577 197.03C82.0763 196.97 81.4465 196.701 81.1718 196.876L81.7547 198.599C82.1326 196.356 82.6336 194.135 83.2554 191.947C83.5189 190.96 84.0257 190.054 84.7294 189.312C85.4941 188.63 86.3654 188.077 87.3088 187.676C92.2129 185.356 96.9831 182.748 101.794 180.234C104.715 178.712 107.683 177.163 110.898 176.358C111.676 176.157 111.488 173.857 110.898 174.011C108.08 174.794 105.362 175.901 102.798 177.31C100.025 178.738 97.2578 180.2 94.4908 181.648C92.0856 182.909 89.6939 184.183 87.2284 185.323C85.2184 186.241 83.6373 187.448 82.7999 189.534C81.7882 192.048 81.4063 194.777 80.8636 197.412C80.81 197.68 80.7698 199.551 81.4465 199.135C81.2656 199.243 81.4465 199.169 81.5939 199.216C81.7413 199.263 82.0696 199.316 82.3041 199.363L84.582 199.88L90.2298 201.187C95.5092 202.407 100.949 202.676 106.356 202.937C110.345 203.241 114.357 202.842 118.208 201.757C118.878 201.563 118.737 199.249 117.933 199.497V199.511Z" fill="black"/>
<path d="M108.098 171.147L108.768 177.657C109.196 181.908 109.88 212.101 107.019 212.39C106.202 212.477 105.525 210.606 105.183 209.755C104.359 207.537 103.67 205.271 103.12 202.969C101.673 197.337 100.507 191.57 99.4683 185.784C99.1333 183.913 98.7983 182.043 98.5304 180.158C98.2592 179.099 98.1686 178.002 98.2624 176.913C98.5537 175.073 99.3037 173.336 100.443 171.863C101.582 170.39 103.074 169.228 104.781 168.485C105.451 168.163 106.302 167.814 107.059 168.357C107.816 168.901 107.997 170.134 108.098 171.147Z" fill="#FF5758" stroke="black" stroke-width="1.77" stroke-miterlimit="10"/>
<g style="mix-blend-mode:multiply">
<path d="M180.688 292C221.323 292 254.265 289.497 254.265 286.408C254.265 283.32 221.323 280.816 180.688 280.816C140.053 280.816 107.112 283.32 107.112 286.408C107.112 289.497 140.053 292 180.688 292Z" fill="#C7C7C7"/>
</g>
<path d="M232.223 251.715L232.625 278.106C232.595 278.868 232.692 279.629 232.913 280.359C233.804 282.759 236.31 284.074 233.817 286.427C231.988 288.15 229.597 287.614 227.332 287.614C223.761 287.614 220.19 287.473 216.613 287.205C211.923 286.85 214.087 257.823 215.427 253.425" fill="#FF5758"/>
<path d="M231.573 251.716L231.787 265.75L231.894 272.763C231.928 275.036 231.794 277.39 232.048 279.65C232.137 280.57 232.403 281.465 232.832 282.285C233.207 282.955 233.703 283.626 234.072 284.296C234.44 284.967 233.998 284.155 234.253 284.162C234.253 284.162 233.482 285.134 233.415 285.188C232.682 285.779 231.782 286.126 230.842 286.18C228.909 286.263 226.972 286.245 225.04 286.127C222.767 286.086 220.498 285.993 218.234 285.845C217.691 285.812 217.148 285.798 216.612 285.731C216.552 285.731 216.317 285.657 216.478 285.731C216.392 285.698 216.31 285.657 216.23 285.61C216.116 285.537 216.016 285.436 216.096 285.517C216.016 285.436 215.949 285.349 215.882 285.268C215.815 285.188 215.668 284.933 215.735 285.047C215.802 285.161 215.627 284.833 215.601 284.766C215.574 284.699 215.473 284.471 215.413 284.316C215.299 284.021 215.493 284.571 215.413 284.256C215.413 284.176 215.359 284.095 215.339 284.015C215.319 283.934 215.239 283.673 215.199 283.498C215.158 283.324 215.111 283.136 215.071 282.948L215.011 282.66C214.944 282.345 215.011 282.828 215.011 282.526C214.85 281.574 214.736 280.615 214.656 279.65C214.328 274.995 214.328 270.324 214.656 265.669C214.81 263.229 215.011 260.788 215.326 258.361C215.433 257.476 215.554 256.591 215.694 255.679C215.694 255.578 215.828 254.968 215.748 255.391C215.748 255.236 215.808 255.075 215.842 254.915C215.875 254.754 215.956 254.412 216.029 254.17C216.136 253.838 216.17 253.486 216.13 253.139C216.089 252.792 215.975 252.458 215.795 252.159C215.346 251.669 215.031 252.273 214.904 252.695C214.526 254.122 214.269 255.577 214.133 257.047C213.852 259.28 213.658 261.519 213.497 263.752C213.069 269.045 213.013 274.362 213.329 279.663C213.42 281.649 213.727 283.618 214.247 285.537C214.589 286.663 215.132 288.339 216.445 288.655C217.156 288.768 217.875 288.824 218.595 288.822C219.888 288.903 221.188 288.97 222.488 289.01C224.699 289.09 226.91 289.077 229.127 289.157C231.043 289.224 232.859 289.03 234.273 287.595C234.923 286.91 235.352 286.044 235.503 285.111C235.653 284.178 235.519 283.221 235.117 282.365C234.762 281.581 234.212 280.91 233.777 280.166C233.174 279.086 233.281 277.98 233.261 276.773L233.134 268.419L232.879 251.716C232.879 251.334 232.805 250.234 232.209 250.234C231.613 250.234 231.539 251.368 231.539 251.716H231.573Z" fill="black"/>
<path d="M142.011 251.938C139.715 260.735 137.422 269.532 135.13 278.329C134.929 279.093 130.179 283.21 131.982 286.65C132.973 288.547 135.606 287.837 137.71 287.843C141.06 287.843 144.41 287.696 147.759 287.428C152.215 287.079 157.34 258.046 157.179 253.647" fill="#FF5758"/>
<path d="M141.448 251.194C140.135 256.236 138.82 261.278 137.502 266.32L135.573 273.696C135.258 274.923 134.903 276.157 134.608 277.397C134.534 277.739 134.889 277.015 134.541 277.451L133.998 278.121C131.988 280.562 130.206 283.546 131.184 286.838C131.378 287.621 131.842 288.311 132.494 288.786C133.146 289.26 133.944 289.49 134.749 289.433C135.593 289.433 136.437 289.346 137.281 289.319C138.5 289.279 139.713 289.319 140.926 289.265C142.138 289.212 143.304 289.185 144.49 289.118C145.61 289.113 146.73 289.034 147.84 288.883C148.395 288.75 148.888 288.434 149.24 287.984C150.426 286.69 151.116 284.88 151.726 283.291C153.525 278.196 154.905 272.962 155.853 267.641C156.409 264.812 156.911 261.969 157.313 259.112C157.636 257.313 157.801 255.489 157.809 253.661C157.809 253.279 157.742 252.179 157.139 252.179C156.536 252.179 156.469 253.319 156.469 253.661C156.469 253.889 156.469 254.11 156.469 254.332C156.469 254.774 156.469 254.224 156.469 254.405C156.469 254.586 156.469 254.761 156.422 254.935C156.355 255.76 156.255 256.578 156.147 257.396C155.859 259.629 155.477 261.848 155.089 264.067C154.209 269.135 153.012 274.143 151.505 279.06C150.976 280.838 150.281 282.562 149.428 284.21C149.27 284.484 149.098 284.751 148.912 285.007C148.757 285.219 148.585 285.416 148.396 285.597C148.244 285.731 148.072 285.839 147.887 285.919C147.84 285.919 147.887 285.919 147.753 285.919C147.15 286.013 146.52 286.013 145.91 286.053C143.539 286.208 141.167 286.308 138.788 286.328C137.167 286.328 135.372 286.677 133.77 286.382C130.421 285.772 133.395 282.191 134.514 280.81C134.847 280.439 135.147 280.039 135.412 279.617C135.835 278.61 136.139 277.556 136.316 276.479L138.326 268.754C139.72 263.39 141.118 258.026 142.52 252.662C142.624 252.329 142.657 251.978 142.616 251.631C142.576 251.285 142.463 250.951 142.286 250.651C141.844 250.174 141.502 250.758 141.395 251.187L141.448 251.194Z" fill="black"/>
<path d="M225.544 102.352L224.465 88.506C224.436 87.8356 224.225 87.1859 223.854 86.6272C223.482 86.0686 222.965 85.6224 222.358 85.3371C221.751 85.0517 221.078 84.9381 220.411 85.0086C219.745 85.0791 219.11 85.3309 218.576 85.7368L207.227 94.6077C191.305 90.0982 174.408 90.3944 158.654 95.4592L149.549 87.3192C147.472 85.4619 143.901 86.9504 143.238 89.9476L139.707 104.598C122.02 116.56 112.238 135.12 107.428 155.798C101.74 180.346 103.736 178.294 103.844 201.628C103.951 223.694 122.047 286.89 150.514 274.405C165.756 267.7 179.108 264.072 196.072 267.445C205.84 269.389 213.913 276.255 223.875 277.181C234.756 278.186 241.61 270.227 247.077 260.713C273.487 214.682 277.654 132.632 225.544 102.352Z" fill="#E8E8E8"/>
<path d="M226.08 102.024L225.41 93.22L225.055 88.6538C224.921 86.9574 224.385 85.2543 222.844 84.3089C219.869 82.4717 217.082 85.6097 214.911 87.2994L210.154 91.014L208.272 92.4824C207.946 92.8052 207.584 93.0887 207.193 93.3273C206.959 93.4077 206.684 93.1931 206.396 93.1127C205.431 92.8512 204.466 92.6098 203.495 92.3818C201.666 91.9527 199.823 91.5906 197.974 91.2822C186.766 89.4533 175.303 89.9094 164.275 92.6232C162.506 93.059 160.771 93.5888 159.029 94.105C158.627 94.219 158.955 94.2593 158.681 94.1386C158.481 94.0056 158.3 93.8454 158.145 93.6625L154.265 90.196L150.386 86.7294C149.301 85.7572 148.162 85.0129 146.601 85.3482C143.023 86.1193 142.621 89.9948 141.911 92.9384L139.399 103.257L139.225 103.982L139.553 103.405C131.45 108.947 124.572 116.098 119.347 124.412C114.143 132.828 110.261 141.993 107.836 151.588C106.497 156.623 105.398 161.746 104.426 166.869C103.745 170.247 103.273 173.664 103.013 177.101C102.537 184.309 103.173 191.57 103.261 198.778C103.306 204.625 103.848 210.457 104.882 216.211C106.132 223.002 107.84 229.7 109.994 236.26C112.163 243.095 114.932 249.725 118.268 256.073C121.243 261.605 124.78 266.989 129.456 271.24C133.235 274.687 137.992 277.275 143.218 277.275C146.013 277.188 148.761 276.526 151.291 275.33C156.458 273.013 161.796 271.096 167.256 269.597C172.503 268.195 177.905 267.462 183.335 267.418C188.977 267.418 194.886 268.015 200.246 269.845C209.585 273.044 218.931 280.305 229.322 278.146C238.253 276.289 243.814 268.028 247.988 260.592C251.615 254.067 254.69 247.248 257.18 240.209C259.87 232.69 261.993 224.98 263.531 217.143C265.12 209.11 266.109 200.97 266.492 192.791C266.879 184.671 266.581 176.534 265.601 168.464C264.654 160.589 262.905 152.831 260.382 145.312C257.928 138.003 254.551 131.038 250.333 124.586C246.14 118.208 241.003 112.504 235.097 107.669C232.122 105.248 228.961 103.064 225.644 101.139C224.974 100.736 224.673 103.15 225.349 103.559C233.998 108.614 241.522 115.387 247.458 123.46C253.248 131.47 257.638 140.405 260.442 149.885C263.362 159.676 265.021 169.799 265.38 180.011C265.777 190.467 265.104 200.937 263.37 211.256C261.752 221.292 259.153 231.144 255.612 240.672C253.908 245.227 251.963 249.688 249.783 254.035C247.351 258.863 244.685 263.69 241.194 267.841C237.503 272.226 232.639 275.639 226.763 275.974C219.956 276.37 213.632 273.144 207.629 270.368C204.592 268.883 201.437 267.654 198.195 266.694C194.577 265.761 190.873 265.199 187.141 265.018C180.185 264.647 173.215 265.414 166.506 267.291C163.173 268.214 159.89 269.311 156.671 270.576C153.89 271.656 151.19 273.057 148.35 273.929C145.204 274.936 141.831 274.989 138.655 274.083C131.667 272.072 126.462 265.99 122.576 260.157C117.598 252.654 113.987 244.158 111.146 235.596C108.414 227.522 106.411 219.219 105.163 210.787C104.681 207.53 104.421 204.243 104.386 200.951C104.353 195.486 104.125 190.035 103.998 184.577C103.877 180.836 104.051 177.092 104.52 173.379C105.412 167.382 106.608 161.433 108.104 155.557C111.059 143.206 115.977 131.198 123.728 121.06C127.575 116.006 132.103 111.508 137.181 107.696C137.851 107.227 138.454 106.758 139.104 106.308C139.586 105.973 139.995 105.779 140.183 105.202C140.283 104.887 140.337 104.531 140.417 104.223L141.61 99.2747C142.28 96.3781 142.95 93.4613 143.713 90.558C144.33 88.2314 147.311 86.8233 149.314 88.4325C150.165 89.103 150.949 89.8875 151.76 90.6117L156.269 94.6347L157.944 96.1367C158.258 96.4183 158.399 96.6396 158.801 96.6329C159.329 96.5335 159.844 96.3738 160.335 96.1568C160.791 96.016 161.24 95.8886 161.675 95.7612C162.58 95.5064 163.491 95.265 164.402 95.0438C166.345 94.5699 168.299 94.1654 170.264 93.8301C181.637 91.9111 193.282 92.347 204.48 95.1108L205.82 95.4595C206.244 95.6528 206.696 95.7794 207.16 95.8349C207.32 95.7947 207.334 95.7344 207.468 95.6606C207.874 95.3877 208.259 95.0852 208.62 94.7554L213.055 91.3023L217.437 87.8827C218.449 87.0915 219.447 86.1662 220.787 86.1997C221.609 86.2171 222.392 86.5534 222.97 87.1376C223.549 87.7219 223.879 88.5083 223.889 89.331L224.257 94.0246L224.927 102.634C224.927 102.962 225.142 103.713 225.597 103.512C226.053 103.311 226.133 102.386 226.08 102.024Z" fill="black"/>
<path d="M101.579 139.927C101.392 162.054 110.898 181.197 130.89 191.597C149.522 201.279 171.089 203.062 191.797 202.58C222.495 201.909 258.359 191.852 267.303 158.594C272.663 138.392 268.482 116.158 258.017 98.282C229.925 50.0993 162.948 42.8309 124.64 83.0749C109.923 98.3456 101.662 118.711 101.579 139.927V139.927ZM101.311 139.927C100.909 95.8816 135.171 57.1932 179.456 54.31C223.413 50.5083 264.415 83.4973 270.023 127.302C273.815 155.879 264.663 180.681 237.978 193.97C213.725 205.845 182.585 207.253 156.255 202.493C141.972 199.697 127.808 193.87 117.397 183.45C105.934 172.051 101.197 155.812 101.318 139.934L101.311 139.927Z" fill="black"/>
<g style="mix-blend-mode:multiply">
<path d="M101.458 137.836C101.458 182.498 136.631 199.04 181.292 199.04C225.952 199.04 263.202 182.498 263.202 137.836C263.202 116.37 254.682 95.783 239.515 80.6044C224.349 65.4257 203.779 56.8984 182.33 56.8984C160.882 56.8984 140.311 65.4257 125.145 80.6044C109.978 95.783 101.458 116.37 101.458 137.836V137.836Z" fill="#C9F4FF"/>
</g>
<path d="M124.813 135.344C137.636 99.2902 191.448 92.3505 221.912 110.159C238.581 119.908 253.072 145.448 243.137 168.493C236.691 183.446 221.932 189.011 209.424 191.137C193.264 193.879 175.925 194.395 159.718 191.411C148.543 189.36 135.72 185.256 127.969 173.824C122.997 166.495 121.416 157.008 122.207 147.634C122.538 143.441 123.414 139.309 124.813 135.344V135.344Z" fill="#FFC9C7"/>
<path d="M125.101 136.015C128.257 127.416 133.893 119.949 141.294 114.559C148.798 109.007 157.655 105.446 166.753 103.509C176.142 101.525 185.8 101.151 195.314 102.402C204.419 103.589 213.437 106.258 221.443 110.844C231.245 116.47 238.788 126.045 242.882 136.518C247.357 147.997 247.304 161.434 240.678 172.108C234.869 181.496 224.766 186.705 214.335 189.2C207.808 190.671 201.174 191.619 194.497 192.036C186.942 192.633 179.353 192.633 171.798 192.036C165.258 191.565 158.775 190.483 152.436 188.804C146.796 187.363 141.456 184.932 136.665 181.623C131.453 177.933 127.422 172.809 125.061 166.872C122.528 160.381 122.033 153.167 122.817 146.287C123.211 142.777 123.997 139.323 125.161 135.988C125.252 135.776 125.298 135.548 125.298 135.318C125.298 135.087 125.252 134.859 125.161 134.647C125.001 134.372 124.719 134.252 124.579 134.647C122.196 141.506 121.252 148.783 121.805 156.023C122.307 162.842 124.277 169.648 128.277 175.26C135.392 185.244 147.036 189.843 158.68 192.11C173.855 195.06 189.586 194.912 204.854 192.78C215.855 191.225 227.158 188.321 235.499 180.51C244.664 171.921 248.121 158.765 246.446 146.529C244.812 134.587 238.655 123.302 229.878 115.109C222.676 108.403 213.383 104.38 203.89 102.087C194.277 99.7907 184.335 99.2006 174.518 100.344C164.924 101.444 155.391 104.179 146.956 108.953C138.856 113.533 131.895 120.077 127.426 128.291C126.314 130.34 125.362 132.471 124.579 134.667C124.488 134.879 124.442 135.107 124.442 135.338C124.442 135.568 124.488 135.796 124.579 136.008C124.679 136.29 124.967 136.411 125.101 136.015Z" fill="black"/>
<path d="M207.555 117.601C208.118 119.298 205.545 121.671 201.854 122.905C198.162 124.139 194.678 123.75 194.115 122.053C193.553 120.357 196.125 117.983 199.817 116.756C203.508 115.529 206.992 115.905 207.555 117.601Z" fill="#FF5758"/>
<path d="M155.733 137.35L180.24 138.344L180.585 129.835L156.077 128.842L155.733 137.35Z" fill="#FFC9C7"/>
<path d="M183.168 194.289V233.5" stroke="black" stroke-width="3" stroke-miterlimit="10"/>
<path d="M264.2 175.199C276.93 192.384 272.193 213.224 269.661 228.129C269.346 229.98 269.882 220.251 268.635 221.773C266.512 224.368 263.034 226.741 260.134 225.072C259.015 224.435 255.899 232.045 255.578 230.959C255.776 230.919 255.963 230.838 256.126 230.72C256.29 230.601 256.426 230.449 256.526 230.274C256.626 230.098 256.687 229.903 256.705 229.702C256.722 229.501 256.697 229.299 256.63 229.108C256.462 229.879 255.216 230.335 254.345 230.047C253.898 229.874 253.506 229.584 253.209 229.208C252.912 228.832 252.721 228.383 252.657 227.908C252.228 223.831 257.467 221.726 259.939 219.191C260.096 218.962 260.192 218.696 260.216 218.419C260.241 218.141 260.194 217.863 260.08 217.609C258.84 212.754 256.804 204.125 253.253 199.787" fill="#E8E8E8"/>
<path d="M263.839 176.62C268.286 182.746 270.999 189.96 271.691 197.5C272.361 204.359 271.691 211.279 270.612 218.064C270.338 219.868 270.029 221.665 269.714 223.428C269.567 224.287 269.413 225.138 269.266 225.996L269.065 227.143C269.065 227.311 269.011 227.485 268.977 227.653C269.038 227.351 269.051 227.27 269.024 227.411C268.998 227.552 269.024 227.465 269.252 226.902L269.621 226.674L269.982 226.902C270.049 226.962 270.358 228.182 270.291 227.773C270.291 227.632 270.331 227.485 270.291 228.035C270.291 227.941 270.291 227.847 270.291 227.753C270.291 227.411 270.291 227.083 270.291 226.741C270.291 225.923 270.291 225.105 270.23 224.293C270.209 223.361 270.111 222.433 269.936 221.517C269.835 221.028 269.594 219.955 268.937 219.922C268.809 219.936 268.686 219.978 268.576 220.046C268.466 220.113 268.372 220.203 268.301 220.31C267.718 220.99 267.081 221.622 266.398 222.201C265.247 223.231 263.785 223.845 262.244 223.945C261.576 223.881 260.924 223.704 260.315 223.422C260.177 223.372 260.028 223.358 259.883 223.38C259.738 223.402 259.601 223.46 259.484 223.549C258.869 224.051 258.367 224.677 258.01 225.386C257.461 226.265 256.958 227.21 256.449 228.068C256.241 228.424 256.034 228.792 255.779 229.128C255.719 229.208 255.565 229.342 255.538 229.436C255.652 229.02 255.645 229.47 255.578 229.382C255.578 229.382 256.007 229.476 256.101 229.731L255.779 232.494C257.447 231.964 257.742 229.664 257.273 228.216C257.186 227.934 257.039 227.398 256.643 227.398C256.248 227.398 256.114 227.934 256.02 228.216C256.141 227.854 255.792 228.216 255.571 228.316C255.31 228.411 255.03 228.443 254.754 228.41C254.436 228.361 254.136 228.228 253.886 228.026C253.635 227.823 253.442 227.558 253.327 227.257C253.441 227.539 253.381 227.311 253.381 227.311C253.403 227.193 253.432 227.076 253.468 226.962C253.654 226.497 253.917 226.066 254.245 225.688C255.685 223.924 257.769 222.818 259.477 221.343C259.932 221.007 260.316 220.586 260.61 220.103C260.988 219.18 261.063 218.161 260.824 217.193C260.603 216.086 260.288 214.987 260 213.9C259.33 211.265 258.573 208.65 257.648 206.089C256.748 203.285 255.389 200.65 253.628 198.291C253.173 197.721 252.751 198.445 252.637 198.888C252.522 199.262 252.486 199.656 252.531 200.045C252.576 200.434 252.701 200.809 252.898 201.147C254.534 203.352 255.793 205.812 256.623 208.429C257.575 211.064 258.291 213.793 258.988 216.475C259.129 217.045 259.276 217.615 259.417 218.185C259.442 218.324 259.477 218.461 259.524 218.594C258.801 216.991 259.926 217.581 259.457 217.803C259.214 217.973 258.989 218.168 258.787 218.386C257.829 219.171 256.777 219.868 255.833 220.632C253.722 222.288 252.047 224.24 251.927 227.042C251.86 228.611 252.275 230.502 253.742 231.367C255.21 232.232 256.777 231.367 257.266 229.859H256.014L256.081 228.893C256.029 228.966 255.96 229.026 255.88 229.067C255.712 229.129 255.549 229.201 255.39 229.282C255.035 229.396 254.915 230.154 254.881 230.442C254.813 230.983 254.877 231.533 255.069 232.044C255.431 233.023 256.121 232.507 256.529 231.924C257.085 231.126 257.528 230.241 258.003 229.403C258.46 228.519 259.003 227.684 259.625 226.908C259.728 226.786 259.853 226.684 259.993 226.607C260.114 226.607 259.993 226.607 259.946 226.607C260.174 226.7 260.388 226.835 260.616 226.922C261.047 227.081 261.498 227.181 261.956 227.217C263.698 227.311 265.407 226.419 266.733 225.366C267.422 224.814 268.061 224.201 268.643 223.536C268.774 223.405 268.895 223.263 269.004 223.113C269.004 223.066 269.004 223.167 269.004 223.167C269.004 223.167 268.837 223.167 268.85 223.167C268.649 223.113 268.703 223.039 268.609 222.899C268.776 223.147 268.515 222.604 268.609 222.966C268.703 223.328 268.562 222.671 268.609 222.885L268.649 223.14C268.649 223.334 268.696 223.522 268.709 223.717C268.723 223.911 268.709 223.965 268.709 224.092C268.743 224.447 268.709 223.777 268.709 224.179C268.75 225.091 268.763 226.003 268.776 226.922C268.735 227.649 268.784 228.379 268.924 229.094C269.058 229.597 269.426 230.241 269.942 229.698C270.232 229.205 270.391 228.646 270.405 228.075C270.934 224.964 271.503 221.859 271.986 218.741C273.071 211.741 273.721 204.661 273.138 197.56C272.547 188.958 269.57 180.692 264.542 173.69C264.1 173.087 263.658 173.864 263.551 174.28C263.437 174.654 263.402 175.048 263.447 175.437C263.492 175.826 263.616 176.201 263.812 176.54L263.839 176.62Z" fill="black"/>
<path d="M267.302 182.875C271.487 188.77 274.657 195.324 276.682 202.266C278.779 209.481 280.494 216.347 280.233 223.977C280.212 226.339 279.421 228.63 277.982 230.501C272.562 237.253 265.621 232.841 263.396 232.332C261.916 231.99 267.905 230.421 266.981 229.1C265.641 227.216 268.421 226.518 267.798 224.373C266.405 219.538 264.931 214.557 261.668 210.5" fill="#E8E8E8"/>
<path d="M266.934 184.303C269.73 188.259 272.07 192.519 273.909 197.002C275.73 201.609 277.158 206.362 278.176 211.21C278.708 213.582 279.092 215.985 279.329 218.405C279.64 220.685 279.64 222.997 279.329 225.277C278.943 227.226 277.925 228.993 276.434 230.305C274.943 231.616 273.062 232.399 271.081 232.532C269.467 232.555 267.863 232.275 266.351 231.708C265.728 231.493 265.119 231.245 264.509 231.037C264.275 230.95 264.047 230.869 263.839 230.796C263.722 230.75 263.601 230.714 263.477 230.688C263.379 230.662 263.379 230.662 263.477 230.688C263.216 230.534 263.323 230.756 263.806 231.359L263.879 232.633C263.79 232.952 263.676 233.264 263.538 233.565C263.578 233.598 263.43 233.565 263.578 233.565C263.655 233.527 263.727 233.479 263.792 233.424C264.044 233.277 264.304 233.143 264.569 233.022C265.132 232.74 265.715 232.472 266.251 232.137C266.803 231.844 267.256 231.394 267.551 230.843C267.926 230.038 268.053 228.462 267.39 227.745C267.229 227.571 267.31 227.41 267.316 228.12C267.323 228.831 267.229 228.664 267.316 228.55C267.548 228.271 267.744 227.965 267.899 227.638C268.479 226.646 268.714 225.491 268.569 224.352C268.338 223.075 267.995 221.821 267.544 220.604C267.162 219.37 266.753 218.137 266.298 216.93C265.291 214.115 263.851 211.475 262.03 209.105C261.575 208.528 261.152 209.259 261.032 209.702C260.918 210.076 260.883 210.47 260.928 210.858C260.973 211.247 261.097 211.623 261.293 211.961C263.678 214.965 265.119 218.505 266.244 222.139C266.512 222.991 266.76 223.843 267.008 224.701C267.363 225.914 266.954 224.654 267.229 224.614C267.229 224.614 266.894 225.224 266.881 225.244C266.435 225.841 266.13 226.531 265.991 227.263C265.852 227.995 265.881 228.749 266.077 229.468C266.18 229.827 266.341 230.166 266.552 230.474C267.109 231.258 265.97 228.664 266.552 228.355C266.506 228.355 266.479 228.476 266.432 228.503C266.197 228.664 265.762 228.999 265.393 229.173C264.628 229.516 263.883 229.903 263.162 230.333C262.977 230.477 262.822 230.657 262.706 230.862C262.591 231.067 262.519 231.293 262.492 231.527C262.365 232.197 262.338 233.451 263.022 233.873C263.658 234.153 264.317 234.377 264.991 234.544C267.189 235.382 269.514 236.086 271.885 235.791C275.135 235.382 277.862 233.109 279.389 230.306C281.332 226.732 281.111 222.401 280.823 218.472C280.453 214.29 279.711 210.15 278.605 206.101C277.521 201.675 276.085 197.343 274.311 193.147C272.498 189.029 270.276 185.105 267.678 181.433C267.249 180.823 266.794 181.621 266.686 182.03C266.577 182.405 266.543 182.798 266.588 183.186C266.633 183.574 266.755 183.949 266.948 184.289L266.934 184.303Z" fill="black"/>
<path d="M263.377 212.986L261.387 209.688" stroke="black" stroke-width="2.68" stroke-linecap="round" stroke-linejoin="round"/>
<path d="M257.113 233.598C255.238 232.906 253.683 231.548 252.744 229.783C251.404 226.933 252.55 223.634 254.084 221.127C254.695 220.145 255.427 219.244 256.262 218.445C256.677 218.049 257.079 217.64 257.535 217.285C257.689 217.157 258.834 216.252 259.029 216.406C257.821 215.557 256.699 214.591 255.679 213.523C254.721 212.424 253.18 210.104 253.629 208.454C254.553 205.014 260.134 207.891 261.816 208.897C263.826 210.11 265.695 211.619 267.725 212.826C267.946 213 268.205 213.119 268.481 213.173C268.757 213.228 269.042 213.217 269.313 213.141C269.628 212.993 269.4 213.483 269.313 213.141C268.221 208.749 272.167 206.778 274.324 208.052C275.845 208.957 275.972 210.794 276.026 212.377C276.086 214.056 276.012 215.738 275.805 217.405C275.718 218.156 275.604 218.901 275.47 219.645C275.233 220.414 275.061 221.201 274.954 221.998C274.946 222.046 274.935 222.093 274.92 222.139C274.191 224.754 272.881 227.17 271.087 229.207C269.294 231.243 267.063 232.848 264.563 233.9C262.432 234.765 259.558 234.597 257.113 233.598Z" fill="white"/>
<path d="M256.851 234.25C252.831 232.681 250.453 228.926 251.572 224.581C252.499 220.775 254.871 217.481 258.184 215.395C258.427 215.256 258.705 215.189 258.984 215.201C259.264 215.213 259.535 215.303 259.765 215.462C259.901 215.549 260.018 215.663 260.109 215.797C260.199 215.931 260.261 216.082 260.291 216.24C260.321 216.399 260.317 216.563 260.281 216.72C260.245 216.878 260.178 217.026 260.082 217.156C259.986 217.287 259.865 217.396 259.725 217.477C259.586 217.558 259.431 217.61 259.271 217.629C259.111 217.648 258.948 217.634 258.793 217.588C258.639 217.542 258.495 217.464 258.372 217.36C256.161 215.596 253.816 213.41 253.012 210.554C252.275 208.455 253.421 206.068 255.839 206.055C260.844 205.907 264.609 209.77 268.569 211.982C268.756 212.083 268.937 212.063 268.79 212.083C269.094 211.931 269.445 211.905 269.768 212.009C269.957 212.074 270.127 212.184 270.264 212.33C270.401 212.476 270.5 212.653 270.552 212.846C270.605 213.039 270.61 213.242 270.566 213.437C270.523 213.632 270.432 213.814 270.302 213.966C270.173 214.118 270.008 214.236 269.822 214.31C269.636 214.384 269.435 214.411 269.237 214.389C269.038 214.368 268.848 214.298 268.682 214.185C268.517 214.073 268.381 213.922 268.287 213.746C268.177 213.516 268.107 213.268 268.08 213.015C267.041 209.159 270.759 205.096 274.686 206.88C276.695 207.738 277.258 210.494 277.251 212.197C277.425 215.066 277.2 217.945 276.582 220.752C276.146 223.412 275.105 225.935 273.54 228.128C271.027 231.534 267.329 234.337 263.135 235.135C260.997 235.386 258.831 235.074 256.851 234.23V234.25ZM257.38 232.949C258.653 233.507 260.041 233.752 261.428 233.663C262.815 233.574 264.161 233.155 265.353 232.439C269.416 230.065 272.385 226.188 273.62 221.644L273.58 221.979C273.662 221.081 273.846 220.194 274.129 219.338C274.57 217.015 274.774 214.654 274.739 212.291C274.813 210.058 273.975 208.026 271.617 209.186C271.054 209.564 270.629 210.116 270.409 210.757C270.189 211.399 270.185 212.096 270.398 212.74C270.398 212.773 270.471 212.961 270.337 212.646C270.245 212.48 270.111 212.341 269.948 212.243C269.786 212.145 269.6 212.093 269.41 212.09C269.22 212.087 269.033 212.134 268.867 212.227C268.702 212.319 268.563 212.454 268.466 212.618C268.37 212.781 268.317 212.967 268.315 213.157C268.313 213.347 268.361 213.534 268.454 213.7C268.548 213.865 268.683 214.003 268.847 214.099C269.01 214.196 269.196 214.247 269.386 214.249C269.524 214.252 269.662 214.224 269.788 214.168C268.756 214.671 267.584 214.108 266.813 213.585C264.401 212.076 262.465 210.36 260.06 209.119C259.59 208.9 259.131 208.656 258.687 208.388C252.509 205.465 253.715 210.842 257.172 213.591C257.943 214.262 258.841 214.805 259.765 215.462L258.291 217.313C258.418 217.412 258.564 217.482 258.72 217.518C258.877 217.554 259.039 217.555 259.196 217.521V217.521L259.015 217.641C253.762 221.155 249.374 229.71 257.333 232.949H257.38Z" fill="black"/>
<path d="M263.015 172.06L260.656 176.633C259.115 179.617 250.366 201.75 252.925 203.071C253.655 203.447 254.781 202.32 255.323 201.817C256.669 200.503 257.915 199.088 259.048 197.586C261.896 193.966 264.515 190.13 267.028 186.248C267.845 184.988 268.649 183.727 269.406 182.44C269.938 181.758 270.321 180.972 270.532 180.133C270.718 178.603 270.503 177.05 269.909 175.627C269.194 173.997 268.13 172.544 266.793 171.37C266.543 171.064 266.228 170.818 265.871 170.649C265.514 170.48 265.124 170.392 264.73 170.391C263.959 170.484 263.383 171.343 263.015 172.06Z" fill="#FF5758" stroke="black" stroke-width="1.77" stroke-miterlimit="10"/>
<path d="M231.774 220.097L234.246 225.367L228.833 225.166L226.997 220.473L225.932 220.439L225.764 225.045L220.847 224.871L221.416 209.355L229.161 209.637C232.685 209.771 234.38 211.651 234.246 215.276C234.152 217.761 233.328 219.368 231.774 220.097ZM227.312 213.553L226.186 213.513L226.072 216.617L227.198 216.657C227.639 216.701 228.083 216.653 228.504 216.517C228.779 216.403 228.92 216.128 228.94 215.685L228.973 214.652C229.006 214.488 228.989 214.317 228.923 214.163C228.857 214.008 228.746 213.878 228.605 213.788C228.194 213.625 227.754 213.545 227.312 213.553V213.553Z" fill="#A8A8A8"/>
<path d="M281.68 157.751C281.68 154.648 280.449 151.672 278.256 149.478C276.064 147.283 273.09 146.051 269.989 146.051" stroke="black" stroke-width="3.94" stroke-miterlimit="10"/>
<path d="M236.183 169.45H270.009C273.11 169.45 276.084 168.218 278.276 166.023C280.469 163.829 281.7 160.853 281.7 157.75V157.75" stroke="black" stroke-width="3.94" stroke-miterlimit="10"/>
<path d="M234.729 174.868C238.279 174.025 240.474 170.462 239.632 166.909C238.791 163.357 235.231 161.159 231.681 162.002C228.131 162.844 225.935 166.407 226.777 169.96C227.619 173.513 231.179 175.71 234.729 174.868Z" fill="#FFD15E" stroke="black" stroke-width="3.94" stroke-miterlimit="10"/>
<path d="M205.551 136.048C205.433 136.966 205.046 137.829 204.439 138.527C203.832 139.226 203.032 139.729 202.14 139.974C201.248 140.219 200.304 140.194 199.426 139.903C198.548 139.612 197.776 139.068 197.206 138.339C196.636 137.61 196.294 136.729 196.224 135.806C196.153 134.883 196.357 133.96 196.809 133.152C197.261 132.345 197.942 131.689 198.765 131.268C199.589 130.847 200.519 130.679 201.437 130.785C202.054 130.856 202.651 131.049 203.193 131.353C203.735 131.657 204.211 132.066 204.594 132.556C204.977 133.046 205.258 133.606 205.423 134.206C205.587 134.806 205.63 135.432 205.551 136.048V136.048Z" fill="black"/>
<path d="M213.085 123.034L188.29 124.039L188.639 132.648L213.434 131.643L213.085 123.034Z" fill="#FFC9C7"/>
<path d="M171.825 136.048C171.707 136.966 171.32 137.829 170.713 138.527C170.106 139.226 169.307 139.729 168.415 139.974C167.523 140.219 166.578 140.194 165.7 139.903C164.822 139.612 164.05 139.068 163.48 138.339C162.91 137.61 162.569 136.729 162.498 135.806C162.427 134.883 162.631 133.96 163.083 133.152C163.536 132.345 164.216 131.689 165.04 131.268C165.863 130.847 166.793 130.679 167.712 130.785C168.329 130.856 168.926 131.049 169.468 131.353C170.009 131.657 170.486 132.066 170.868 132.556C171.251 133.046 171.533 133.606 171.697 134.206C171.861 134.806 171.905 135.432 171.825 136.048V136.048Z" fill="black"/>
<path d="M179.476 123.262H154.66V131.878H179.476V123.262Z" fill="#FFC9C7"/>
<path d="M205.933 151.214C206.871 156.652 203.072 160.306 198.899 162.794C192.199 166.777 185.157 167.139 177.533 165.811C171.771 164.806 164.569 162.077 162.486 156.009C160.094 149.042 166.217 144.965 171.195 144.187C171.912 144.073 172.629 144 173.332 143.953C179.934 143.395 186.56 143.183 193.184 143.316C195.79 143.41 198.456 143.611 200.868 144.777C202.157 145.379 203.287 146.275 204.166 147.393C205.046 148.511 205.651 149.82 205.933 151.214Z" fill="#FF5758"/>
<path d="M128.163 133.27L132.337 140.927C134.477 144.938 137.614 148.329 141.444 150.774C145.274 153.219 149.669 154.635 154.205 154.887C154.607 154.887 155.002 154.887 155.391 154.887C155.799 154.887 156.208 154.887 156.617 154.887C166.599 154.431 175.168 147.599 178.364 138.124L179.469 134.825C179.712 134.378 179.834 133.874 179.824 133.365C179.813 132.856 179.671 132.358 179.411 131.92C179.152 131.483 178.783 131.12 178.341 130.867C177.899 130.615 177.399 130.482 176.89 130.48H129.563C129.24 130.482 128.924 130.572 128.649 130.743C128.375 130.913 128.152 131.156 128.007 131.445C127.862 131.734 127.8 132.057 127.828 132.379C127.855 132.701 127.971 133.01 128.163 133.27Z" fill="black"/>
<path d="M238.246 133.27L234.065 140.927C231.926 144.937 228.79 148.327 224.961 150.772C221.133 153.217 216.739 154.634 212.204 154.887C211.802 154.887 211.407 154.887 211.018 154.887C210.61 154.887 210.201 154.887 209.792 154.887C199.81 154.431 191.241 147.599 188.045 138.124L186.933 134.825C186.69 134.377 186.568 133.873 186.579 133.364C186.589 132.854 186.732 132.356 186.992 131.918C187.253 131.48 187.623 131.117 188.066 130.865C188.509 130.613 189.01 130.481 189.519 130.48H236.852C237.175 130.483 237.49 130.575 237.764 130.745C238.038 130.916 238.259 131.159 238.403 131.448C238.547 131.736 238.609 132.059 238.581 132.381C238.553 132.703 238.437 133.01 238.246 133.27V133.27Z" fill="black"/>
<path d="M191.488 130.48H176.89V133.545H191.488V130.48Z" fill="black"/>
<path d="M174.449 112.985L132.187 155.281L136.228 159.326L178.49 117.029L174.449 112.985Z" fill="white"/>
<path d="M170.726 109.286L128.465 151.588L126.488 149.577L168.75 107.281L170.726 109.286Z" fill="white"/>
<path d="M231.286 112.989L189.023 155.285L193.064 159.329L235.327 117.033L231.286 112.989Z" fill="white"/>
<path d="M227.56 109.286L185.299 151.588L183.322 149.577L225.591 107.281L227.56 109.286Z" fill="white"/>
<path d="M235.311 133.131L231.747 139.662C227.727 147.071 220.17 151.892 212.09 152.247C211.735 152.247 211.373 152.247 211.018 152.247C210.663 152.247 210.281 152.247 209.913 152.247C201.277 151.852 193.545 145.918 190.611 137.456L189.834 133.131H235.311V133.131ZM176.575 133.131L175.798 137.456C172.863 145.918 165.132 151.852 156.496 152.247C156.128 152.247 155.752 152.247 155.391 152.247C155.029 152.247 154.674 152.247 154.319 152.247C146.239 151.892 138.708 147.071 134.662 139.662L131.098 133.131H176.555H176.575ZM236.852 130.449H129.563C129.24 130.45 128.924 130.541 128.649 130.711C128.375 130.882 128.152 131.125 128.007 131.414C127.862 131.702 127.8 132.026 127.828 132.348C127.855 132.67 127.971 132.978 128.163 133.239L132.337 140.929C134.477 144.94 137.614 148.331 141.444 150.776C145.274 153.221 149.669 154.638 154.205 154.889C154.607 154.889 155.002 154.889 155.391 154.889C155.779 154.889 156.208 154.889 156.617 154.889C166.599 154.433 175.168 147.601 178.357 138.127L179.181 133.547H187.221L188.045 138.127C191.241 147.601 199.81 154.433 209.792 154.889C210.201 154.889 210.61 154.889 211.018 154.889C211.407 154.889 211.802 154.889 212.204 154.889C216.739 154.637 221.133 153.219 224.961 150.774C228.79 148.329 231.926 144.939 234.065 140.929L238.246 133.272C238.437 133.012 238.553 132.705 238.581 132.383C238.609 132.062 238.547 131.739 238.403 131.45C238.259 131.161 238.038 130.918 237.764 130.748C237.49 130.577 237.175 130.485 236.852 130.483V130.449Z" fill="black"/>
<path d="M167.048 161.319C164.933 160.163 163.31 158.275 162.486 156.009C160.094 149.042 166.217 144.965 171.195 144.187C171.912 144.073 172.629 144 173.332 143.953C179.934 143.395 186.56 143.183 193.184 143.316C195.79 143.41 198.456 143.611 200.868 144.777C202.154 145.381 203.281 146.277 204.159 147.395C205.036 148.513 205.639 149.821 205.92 151.214C206.281 153.78 205.617 156.385 204.071 158.463" fill="#FF5758"/>
<path d="M167.215 159.971C164.187 158.201 161.393 154.419 163.095 150.839C164.435 148.056 167.597 146.346 170.465 145.723C172.828 145.322 175.217 145.097 177.613 145.052C180.26 144.891 182.906 144.757 185.552 144.69C188.199 144.623 190.825 144.616 193.458 144.69C195.816 144.784 198.242 144.979 200.419 145.964C202.455 146.838 204.085 148.45 204.982 150.477C205.92 152.777 205.116 155.264 203.742 157.215C203.578 157.503 203.473 157.822 203.435 158.151C203.397 158.481 203.426 158.815 203.521 159.133C203.615 159.475 203.99 160.166 204.365 159.636C207.293 155.479 207.594 149.357 203.916 145.555C200.064 141.532 194.001 141.82 188.862 141.827C185.72 141.827 182.571 141.961 179.429 142.136C176.561 142.296 173.567 142.296 170.719 142.84C167.175 143.51 163.611 145.595 162.103 149.008C159.893 153.997 162.271 159.985 166.847 162.653C167.604 163.096 167.925 160.387 167.175 159.971H167.215Z" fill="black"/>
<path d="M198.537 154.588C198.5 155.233 198.273 155.852 197.885 156.368C197.496 156.883 196.964 157.272 196.355 157.485C195.746 157.698 195.087 157.725 194.463 157.564C193.838 157.402 193.275 157.059 192.846 156.577C192.416 156.096 192.139 155.497 192.049 154.858C191.958 154.219 192.06 153.567 192.34 152.985C192.62 152.403 193.066 151.918 193.621 151.59C194.177 151.262 194.818 151.106 195.462 151.142C195.89 151.166 196.309 151.274 196.695 151.46C197.082 151.646 197.427 151.907 197.713 152.227C197.999 152.547 198.218 152.92 198.36 153.326C198.501 153.731 198.561 154.16 198.537 154.588V154.588Z" fill="black"/>
<path d="M198.296 154.439C198.24 155.031 198.005 155.593 197.622 156.048C197.239 156.503 196.726 156.831 196.152 156.987C195.57 157.153 194.953 157.148 194.374 156.972C193.796 156.796 193.28 156.456 192.889 155.994C192.515 155.573 192.302 155.034 192.286 154.471C192.27 153.908 192.453 153.358 192.802 152.917C193.17 152.44 193.667 152.08 194.233 151.878C194.799 151.676 195.412 151.641 195.998 151.777C196.644 151.911 197.224 152.263 197.642 152.775C198.059 153.286 198.287 153.926 198.289 154.586C198.289 154.727 198.323 155.143 198.537 155.143C198.751 155.143 198.771 154.714 198.778 154.586C198.835 153.825 198.664 153.063 198.285 152.4C197.907 151.737 197.339 151.202 196.654 150.865C195.987 150.569 195.242 150.493 194.529 150.65C193.815 150.807 193.17 151.188 192.688 151.737C192.187 152.348 191.869 153.088 191.771 153.872C191.673 154.656 191.798 155.453 192.132 156.169C192.437 156.838 192.947 157.393 193.587 157.755C194.228 158.116 194.966 158.265 195.696 158.18C196.524 158.041 197.278 157.621 197.833 156.991C198.388 156.361 198.71 155.559 198.745 154.72C198.745 154.539 198.778 154.137 198.571 154.05C198.363 153.963 198.309 154.311 198.296 154.439Z" fill="black"/>
<path d="M178.204 154.588C178.166 155.231 177.938 155.848 177.55 156.362C177.161 156.875 176.63 157.262 176.022 157.474C175.414 157.685 174.757 157.711 174.134 157.549C173.511 157.387 172.95 157.044 172.522 156.563C172.094 156.082 171.818 155.485 171.729 154.848C171.639 154.21 171.741 153.56 172.021 152.98C172.3 152.4 172.745 151.915 173.3 151.588C173.854 151.261 174.493 151.106 175.135 151.142C175.563 151.166 175.982 151.274 176.368 151.46C176.754 151.647 177.099 151.907 177.384 152.228C177.669 152.548 177.889 152.921 178.029 153.326C178.17 153.731 178.229 154.16 178.204 154.588V154.588Z" fill="black"/>
<path d="M177.968 154.439C177.911 155.032 177.675 155.594 177.291 156.049C176.906 156.504 176.392 156.831 175.818 156.987C175.236 157.151 174.619 157.145 174.041 156.969C173.462 156.794 172.947 156.455 172.555 155.994C172.183 155.572 171.971 155.033 171.957 154.47C171.942 153.907 172.125 153.358 172.474 152.917C172.842 152.44 173.339 152.08 173.905 151.878C174.472 151.676 175.084 151.641 175.67 151.777C176.316 151.912 176.895 152.264 177.313 152.776C177.73 153.287 177.959 153.926 177.962 154.586C177.962 154.727 177.995 155.143 178.203 155.143C178.41 155.143 178.444 154.714 178.451 154.586C178.51 153.828 178.343 153.068 177.969 152.406C177.595 151.743 177.033 151.206 176.354 150.865C175.686 150.569 174.941 150.493 174.228 150.65C173.514 150.807 172.87 151.188 172.387 151.737C171.887 152.348 171.569 153.088 171.47 153.872C171.372 154.656 171.497 155.453 171.831 156.169C172.135 156.837 172.644 157.392 173.283 157.754C173.922 158.115 174.659 158.265 175.389 158.18C176.218 158.042 176.974 157.623 177.53 156.993C178.086 156.363 178.409 155.56 178.444 154.72C178.444 154.539 178.477 154.137 178.27 154.05C178.062 153.963 177.975 154.311 177.968 154.439Z" fill="black"/>
<path d="M173.42 125.112C172.843 126.801 169.4 127.123 165.675 125.883C161.95 124.642 159.451 122.222 160.027 120.519C160.603 118.815 164.047 118.507 167.772 119.747C171.497 120.988 173.996 123.422 173.42 125.112Z" fill="#FF5758"/>
<path d="M188.413 168.662C192.614 168.3 198.53 168.166 201.344 164.512Z" fill="#FF5758"/>
<path d="M188.413 170.309C192.969 169.92 198.61 169.859 201.719 165.93C201.92 165.587 202.047 165.206 202.092 164.811C202.137 164.416 202.099 164.016 201.98 163.637C201.866 163.188 201.444 162.437 200.975 163.034C198.115 166.654 192.581 166.601 188.413 166.956C187.335 167.043 187.422 170.389 188.413 170.309Z" fill="black"/>
<path d="M93.9376 163.528L66.4317 172.69C65.1151 173.129 64.4031 174.552 64.8413 175.87L80.7738 223.775C81.212 225.093 82.6345 225.806 83.951 225.367L111.457 216.204C112.774 215.766 113.486 214.342 113.047 213.025L97.1149 165.119C96.6767 163.802 95.2542 163.089 93.9376 163.528Z" fill="#32D3C2" stroke="black" stroke-width="2.16" stroke-linecap="round" stroke-linejoin="round"/>
<path d="M91.447 169.258L88.472 170.249C87.4082 170.603 86.8329 171.754 87.187 172.818L87.242 172.984C87.5961 174.048 88.7455 174.624 89.8092 174.27L92.7842 173.279C93.848 172.924 94.4233 171.774 94.0692 170.709L94.0142 170.544C93.6602 169.479 92.5108 168.904 91.447 169.258Z" fill="black" stroke="black" stroke-width="2.16" stroke-linecap="round" stroke-linejoin="round"/>
<path d="M72.2009 194.139C73.0227 193.614 73.9875 193.359 74.9612 193.408C76.6562 193.589 77.9425 195.179 78.2574 196.855C78.47 198.549 78.2103 200.268 77.507 201.823C78.2994 201.211 79.3019 200.938 80.2951 201.063C81.2883 201.189 82.1913 201.703 82.8065 202.494C83.3552 203.332 83.5511 204.353 83.3516 205.335C83.1521 206.317 82.5734 207.18 81.7413 207.737C82.4581 207.355 83.2688 208.046 83.7512 208.709C85.042 210.433 85.7232 212.537 85.6874 214.69C85.6521 215.762 85.3358 216.806 84.7702 217.717C84.2046 218.628 83.4095 219.374 82.4648 219.88C79.9055 221.1 76.8237 219.967 74.519 218.318C71.5781 216.255 69.3403 213.339 68.1074 209.963C66.1778 204.505 66.5597 197.398 72.2009 194.139Z" fill="white"/>
<path d="M72.4016 195.788C73.9693 194.917 75.785 194.782 76.9775 196.325C78.0227 197.666 77.5336 199.228 76.9775 200.69C76.7369 201.333 76.6972 202.035 76.8636 202.701C76.9373 202.976 77.2656 203.807 77.6944 203.472C78.3141 202.988 79.0794 202.729 79.8654 202.736C80.6514 202.744 81.4117 203.017 82.0224 203.512C83.0876 204.424 82.6522 205.403 81.54 206.127C80.7829 206.63 80.7829 209.802 81.9353 209.366C83.2752 208.85 84.4879 212.048 84.7291 212.947C84.9258 213.581 84.9707 214.252 84.8602 214.907C84.7496 215.561 84.4867 216.181 84.0926 216.715C81.9554 219.699 78.0629 218.847 75.383 217.164C70.6061 214.167 67.2227 208.407 67.8726 202.748C68.0308 201.314 68.523 199.938 69.3096 198.729C70.0962 197.52 71.1553 196.513 72.4016 195.788C73.286 195.258 72.9175 192.013 72.0063 192.556C65.4741 196.392 65.253 205.557 67.8592 211.88C69.4223 215.726 72.2615 218.916 75.8988 220.912C77.6609 221.817 79.7378 222.381 81.7008 221.824C82.6084 221.534 83.4385 221.041 84.1289 220.384C84.8193 219.727 85.352 218.922 85.6871 218.029C86.6169 215.605 86.6407 212.926 85.7541 210.486C85.2181 208.93 83.7442 205.269 81.5266 206.101L81.9219 209.339C84.2735 207.79 84.7559 204.056 83.5298 201.655C83.2501 201.113 82.8558 200.638 82.3743 200.264C81.8927 199.889 81.3355 199.624 80.7413 199.487C80.1472 199.35 79.5303 199.344 78.9335 199.469C78.3368 199.595 77.7745 199.849 77.2857 200.214L78.0026 203.016C79.041 200.267 79.7043 196.982 78.237 194.226C77.7365 193.186 76.8707 192.367 75.8051 191.926C75.1645 191.739 74.4908 191.694 73.8311 191.795C73.1714 191.895 72.5417 192.139 71.9862 192.509C71.1086 193.019 71.4502 196.278 72.4016 195.788Z" fill="black"/>
</g>
<g clip-path="url(#clip1_997_45756)">
<path d="M43.6189 44.9336H53.4336C56.5445 44.9336 59.0664 47.4558 59.0664 50.567V68.548C59.0664 71.6593 56.5445 74.1814 53.4336 74.1814H43.6189C40.508 74.1814 37.9861 71.6593 37.9861 68.548V50.567C37.9861 47.4558 40.508 44.9336 43.6189 44.9336Z" fill="#73EBE0"/>
<path d="M53.1226 74.8252H44.766C43.4288 74.9451 42.0819 74.7577 40.8282 74.2774C39.8483 73.7967 39.0229 73.0507 38.4459 72.1242C37.8688 71.1977 37.5633 70.1279 37.564 69.0363C37.4678 63.4473 37.564 57.8509 37.564 52.2619C37.5118 51.3161 37.5865 50.3675 37.7861 49.4415C38.0628 48.3513 38.5961 47.3431 39.3416 46.5009C40.0872 45.6587 41.0232 45.007 42.0717 44.6002C43.3184 44.2831 44.6091 44.1756 45.891 44.2819H51.1389C52.19 44.2819 53.2706 44.2153 54.3143 44.2819C55.5255 44.4071 56.6658 44.913 57.5715 45.727C58.4772 46.541 59.1015 47.6212 59.3549 48.8123C59.4929 49.691 59.54 50.5815 59.4955 51.4698V66.0234C59.4955 66.6971 59.4955 67.3781 59.4955 68.0518C59.4589 69.1709 59.1671 70.2668 58.6424 71.2559C58.1178 72.2451 57.3741 73.1013 56.4682 73.7592C55.4905 74.4418 54.3296 74.8133 53.1374 74.8252C52.8709 74.8252 53.389 73.5445 53.7591 73.5371C56.3942 73.4779 58.6073 71.7975 58.6665 69.0437C58.6665 68.4293 58.6665 67.8149 58.6665 67.2005V57.9472C58.6665 55.682 58.7109 53.4019 58.6665 51.1367C58.6592 50.1458 58.3897 49.1744 57.8852 48.3214C57.3808 47.4685 56.6595 46.7643 55.7946 46.2806C54.6125 45.699 53.2966 45.4434 51.9827 45.5403C49.1626 45.5403 46.3351 45.5403 43.5151 45.5403C41.5832 45.5403 39.4145 46.3916 38.6817 48.3311C38.4156 49.2384 38.3178 50.1868 38.393 51.1293V67.689C38.3717 68.4762 38.5132 69.2592 38.8087 69.989C39.1042 70.7189 39.5473 71.3798 40.1102 71.9303C40.6732 72.4808 41.3438 72.909 42.08 73.188C42.8162 73.4671 43.6021 73.591 44.3885 73.5519H53.7443C54.0182 73.5371 53.4853 74.8252 53.1226 74.8252Z" fill="black"/>
<path d="M47.2382 79.8603V45.3714C47.2382 44.3721 49.8066 43.3801 49.8066 44.4979V78.9868C49.8066 79.9862 47.2382 80.9707 47.2382 79.8603Z" fill="black"/>
<path d="M38.0301 63.4102H59.0956C59.6804 63.4102 60.4575 63.8025 60.4501 64.4761C60.4427 65.1498 59.5989 65.4681 59.029 65.4681H37.9487C37.364 65.4681 36.5868 65.0758 36.5942 64.4021C36.6016 63.7285 37.4454 63.4102 38.0301 63.4102Z" fill="black"/>
<path d="M38.0303 54.0391H59.1106C60.0728 54.0391 59.8508 55.3271 59.0144 55.3271H37.9341C36.9718 55.3271 37.1939 54.0391 38.0303 54.0391Z" fill="black"/>
<path d="M14.8354 53.5767L29.7248 63.655C32.3011 65.3988 32.9762 68.9012 31.2325 71.4779L25.7314 79.607C23.9878 82.1836 20.4858 82.8587 17.9095 81.1148L3.02005 71.0366C0.443746 69.2927 -0.231268 65.7903 1.51237 63.2137L7.01349 55.0846C8.75712 52.508 12.2591 51.8329 14.8354 53.5767Z" fill="#73EBE0"/>
<path d="M25.4475 79.3697L29.7405 72.9886C30.419 72.1417 30.9816 71.2082 31.4133 70.2126C31.7434 69.1179 31.7137 67.9462 31.3287 66.8696C30.9437 65.793 30.2236 64.8683 29.2742 64.2313C25.0182 61.2702 20.6437 58.3906 16.3285 55.4665C15.6994 55.0446 15.0776 54.6078 14.4411 54.1933C13.596 53.6094 12.6007 53.2815 11.5742 53.2487C10.5477 53.2158 9.53343 53.4795 8.65286 54.0082C7.72145 54.739 6.95046 55.6537 6.38791 56.6954L3.66406 60.7298C3.05711 61.6181 2.42056 62.499 1.84322 63.4096C1.27604 64.3579 1.02685 65.4628 1.13205 66.5629C1.23725 67.6629 1.69132 68.7005 2.42796 69.5242C3.02219 70.1278 3.69134 70.6527 4.41904 71.0861L7.5796 73.2255L15.7216 78.7108C17.7423 80.0803 19.7629 81.857 22.3832 81.3536C23.6249 81.119 24.7252 80.4067 25.4475 79.3697C25.9656 78.6294 26.58 79.118 26.0619 79.8434C25.4035 80.8187 24.4922 81.5965 23.4256 82.0933C22.359 82.5902 21.1773 82.7874 20.0072 82.6638C18.8496 82.4546 17.7585 81.9725 16.8244 81.2573L9.11917 76.0755C6.97266 74.595 4.80393 73.1959 2.67962 71.7153C1.8873 71.1811 1.23322 70.4663 0.771238 69.6297C0.309255 68.7932 0.0525907 67.8588 0.0223803 66.9036C0.0483147 65.3139 0.57978 63.7738 1.53974 62.5065C3.21255 60.0266 4.88535 57.5393 6.57296 55.1038C8.64546 52.0687 12.4278 51.1212 15.5291 53.2087C20.2663 56.3475 25.0404 59.5824 29.7924 62.8026C30.5172 63.2601 31.1402 63.862 31.6225 64.5707C32.1047 65.2794 32.436 66.0798 32.5957 66.9221C32.7554 67.7643 32.7401 68.6305 32.5507 69.4665C32.3613 70.3026 32.0018 71.0908 31.4948 71.782C29.859 74.2322 28.201 76.6529 26.5504 79.0884L26.0397 79.8286C25.5363 80.5837 24.9294 80.1025 25.4475 79.3697Z" fill="black"/>
<path d="M32.2417 78.8452L22.6194 72.3309L7.20888 61.9006L3.67823 59.5466C3.02687 59.1024 4.32958 58.4584 4.84771 58.8063L14.47 65.3132L29.888 75.7213L33.4186 78.105C34.0774 78.5565 32.7746 79.1932 32.2565 78.8452H32.2417Z" fill="black"/>
<path d="M27.0016 61.6053L16.6391 76.9066L15.1587 79.0681C14.7294 79.7048 13.3231 79.2236 13.7894 78.5425L24.1741 63.2487L25.6545 61.0871C26.0838 60.4505 27.4827 60.9317 27.0164 61.6127L27.0016 61.6053Z" fill="black"/>
<path d="M18.926 56.1755L8.56353 71.4767L7.08317 73.6383C6.90553 73.8974 5.60281 73.1867 5.72864 73.0387L16.0911 57.7374L17.5715 55.5758C17.7491 55.3168 19.0519 56.0274 18.926 56.1755V56.1755Z" fill="black"/>
<path d="M40.8427 112.674C31.0359 112.674 23.0858 104.723 23.0858 94.9152C23.0858 85.1072 31.0359 77.1562 40.8427 77.1562C50.6496 77.1562 58.5996 85.1072 58.5996 94.9152C58.5996 104.723 50.6496 112.674 40.8427 112.674Z" fill="#FFB15E"/>
<path d="M46.9882 63.6533L72.1055 88.7734L53.4049 107.476L28.2877 82.356L46.9882 63.6533Z" fill="#FFB15E"/>
<path d="M44.5293 108.987C34.7224 108.987 26.7724 101.036 26.7724 91.2277C26.7724 81.4197 34.7224 73.4688 44.5293 73.4688C54.3361 73.4688 62.2861 81.4197 62.2861 91.2277C62.2861 101.036 54.3361 108.987 44.5293 108.987Z" fill="#330315"/>
<path d="M47.8232 105.686C38.0163 105.686 30.0663 97.7349 30.0663 87.9269C30.0663 78.1189 38.0163 70.168 47.8232 70.168C57.6301 70.168 65.5801 78.1189 65.5801 87.9269C65.5801 97.7349 57.6301 105.686 47.8232 105.686Z" fill="#FFB15E"/>
<path d="M51.1982 102.311C41.3913 102.311 33.4413 94.3599 33.4413 84.5519C33.4413 74.7439 41.3913 66.793 51.1982 66.793C61.0051 66.793 68.9551 74.7439 68.9551 84.5519C68.9551 94.3599 61.0051 102.311 51.1982 102.311Z" fill="#330315"/>
<path d="M54.4921 99.0179C44.6853 99.0179 36.7353 91.0669 36.7353 81.2589C36.7353 71.4509 44.6853 63.5 54.4921 63.5C64.299 63.5 72.249 71.4509 72.249 81.2589C72.249 91.0669 64.299 99.0179 54.4921 99.0179Z" fill="#FFB15E"/>
<path d="M59.54 93.9671C49.7331 93.9671 41.7831 86.0161 41.7831 76.2081C41.7831 66.4002 49.7331 58.4492 59.54 58.4492C69.3468 58.4492 77.2969 66.4002 77.2969 76.2081C77.2969 86.0161 69.3468 93.9671 59.54 93.9671Z" fill="#FFB15E"/>
<path d="M27.631 82.2777L44.4627 65.4663C45.2028 64.7261 45.8838 64.0228 46.6166 63.3196C49.285 60.7988 52.6277 59.1067 56.2389 58.4486C59.8177 57.7724 63.5163 58.161 66.8765 59.5663C70.2367 60.9716 73.1109 63.3318 75.1431 66.3547C77.0998 69.4122 78.0924 72.9873 77.9921 76.6161C77.8918 80.2449 76.7032 83.7598 74.5805 86.7045C73.6672 87.8916 72.6598 89.0031 71.568 90.0283L67.4008 94.2034L56.8606 104.745L54.1516 107.447C52.3661 109.239 50.2386 110.655 47.8954 111.609C45.5523 112.563 43.0413 113.037 40.5116 113.002C37.9819 112.966 35.485 112.423 33.1694 111.404C30.8537 110.385 28.7664 108.911 27.0315 107.069C24.5647 104.33 22.9934 100.903 22.5277 97.2464C22.0621 93.5898 22.7244 89.8781 24.426 86.6083C25.2824 85.0193 26.3617 83.561 27.631 82.2777C27.9271 81.9742 29.3556 82.0038 28.9411 82.4258C26.4329 84.9847 24.7571 88.2424 24.1336 91.7711C23.5101 95.2998 23.9681 98.9346 25.4475 102.198C28.5414 108.942 35.9358 113.228 43.3376 112.17C46.9105 111.627 50.2155 109.954 52.7675 107.395C53.3818 106.795 53.9814 106.181 54.5883 105.574L64.0996 96.0392C66.5126 93.6358 68.9256 91.2275 71.3385 88.8143C73.5864 86.5688 75.191 83.7615 75.9852 80.6848C76.7793 77.6082 76.7339 74.3749 75.8536 71.3218C74.81 67.7962 72.6821 64.6891 69.7721 62.442C66.8622 60.1949 63.3183 58.9219 59.6437 58.804C56.0632 58.7638 52.5657 59.883 49.6735 61.9945C48.5724 62.8442 47.5403 63.7799 46.587 64.7927L29.4 81.9668L28.9411 82.4258C28.645 82.7219 27.2091 82.6923 27.631 82.2777Z" fill="black"/>
<path d="M66.6748 76.6172C64.062 78.7862 60.0132 78.4012 57.7927 76.6172" stroke="black" stroke-width="2.5" stroke-miterlimit="10"/>
<path d="M69.3172 75.6823C68.4342 75.6823 67.7184 74.9664 67.7184 74.0833C67.7184 73.2003 68.4342 72.4844 69.3172 72.4844C70.2002 72.4844 70.916 73.2003 70.916 74.0833C70.916 74.9664 70.2002 75.6823 69.3172 75.6823Z" fill="black"/>
<path d="M55.2616 75.6823C54.3786 75.6823 53.6628 74.9664 53.6628 74.0833C53.6628 73.2003 54.3786 72.4844 55.2616 72.4844C56.1446 72.4844 56.8604 73.2003 56.8604 74.0833C56.8604 74.9664 56.1446 75.6823 55.2616 75.6823Z" fill="black"/>
<path d="M69.4218 63.3226L75.4616 54.0323C75.726 53.5764 75.8047 53.0362 75.6814 52.5239C75.5581 52.0115 75.2423 51.5663 74.7995 51.2806C74.3567 50.9949 73.821 50.8907 73.3034 50.9895C72.7858 51.0884 72.3262 51.3827 72.0198 51.8115C71.9322 51.946 71.8602 52.0901 71.8052 52.2409L68.1043 62.6786C68.024 62.8534 68.0149 63.0526 68.0789 63.234C68.143 63.4154 68.2751 63.5648 68.4473 63.6504C68.6196 63.7361 68.8184 63.7513 69.0017 63.6929C69.1849 63.6344 69.3383 63.507 69.4292 63.3374L69.4218 63.3226Z" fill="black"/>
<path d="M59.0593 62.6173L54.3814 52.0981C54.272 51.8507 54.115 51.6273 53.9193 51.4406C53.7236 51.2538 53.4931 51.1075 53.2408 51.0099C52.9886 50.9123 52.7196 50.8653 52.4492 50.8717C52.1788 50.878 51.9123 50.9376 51.6649 51.047C51.4176 51.1563 51.1941 51.3133 51.0074 51.5091C50.8207 51.7048 50.6744 51.9354 50.5768 52.1876C50.4792 52.4399 50.4323 52.7089 50.4386 52.9794C50.445 53.2498 50.5045 53.5163 50.6139 53.7637C50.6796 53.9021 50.7589 54.0335 50.8507 54.1561L57.7862 63.3649C57.894 63.5132 58.0529 63.6161 58.2322 63.6539C58.4115 63.6917 58.5984 63.6616 58.7569 63.5695C58.9153 63.4774 59.0339 63.3298 59.0898 63.1553C59.1456 62.9807 59.1348 62.7917 59.0593 62.6247V62.6173Z" fill="black"/>
</g>
<defs>
<clipPath id="clip0_997_45756">
<rect width="219" height="292" fill="white" transform="translate(64)"/>
</clipPath>
<clipPath id="clip1_997_45756">
<rect width="78" height="69" fill="white" transform="matrix(-1 0 0 1 78 44)"/>
</clipPath>
</defs>
</svg>
