<svg width="327" height="158" viewBox="0 0 327 158" fill="none" xmlns="http://www.w3.org/2000/svg">
<g clip-path="url(#clip0_1294_82301)">
<path d="M125.789 113.376C125.789 104.299 133.158 96.9375 142.243 96.9375" stroke="black" stroke-width="1.7779" stroke-miterlimit="10"/>
<path d="M146.092 181.888C150.279 176.639 149.609 169.633 147.076 163.818C140.043 147.819 135.438 129.895 135.438 112.348C135.438 66.2113 172.866 28.8164 219.045 28.8164C265.223 28.8164 302.652 66.2113 302.652 112.348C302.652 121.613 300.914 130.837 298.318 139.683C296.979 144.18 295.409 148.614 293.629 152.964C292.08 156.729 289.694 160.451 288.71 164.425C288.082 166.997 286.91 169.403 286.387 171.996C285.675 175.551 287.329 178.647 289.987 180.843" fill="#73EBE0"/>
<path d="M146.092 181.888C150.279 176.639 149.609 169.633 147.076 163.818C140.043 147.819 135.438 129.895 135.438 112.348C135.438 66.2112 172.866 28.8164 219.045 28.8164C265.223 28.8164 302.652 66.2112 302.652 112.348C302.652 121.613 300.914 130.837 298.318 139.683C296.979 144.18 295.409 148.614 293.629 152.964C292.08 156.729 289.694 160.451 288.71 164.425C288.082 166.997 286.91 169.403 286.387 171.996C285.675 175.551 287.329 178.647 289.987 180.843" stroke="black" stroke-width="0.4275" stroke-miterlimit="10"/>
<path d="M146.783 184.571C155.826 172.252 145.674 157.571 141.989 145.294C137.552 130.549 135.312 114.738 137.866 99.4287C141.906 75.3354 157.564 54.0864 178.832 42.2698C200.686 30.1395 227.69 28.5709 250.779 38.1706C273.115 47.4566 290.971 66.6141 297.941 89.85C302.882 106.268 301.73 123.062 296.748 139.333C294.132 147.866 289.798 155.646 287.161 164.117C284.9 171.416 283.225 178.088 289.61 183.818C290.824 184.906 291.808 179.175 290.343 177.837C287.831 175.578 287.349 173.716 288.459 170.37C289.045 168.613 289.568 166.857 290.133 165.1C291.452 161.042 293.713 157.32 295.283 153.346C298.318 145.67 300.747 137.744 302.275 129.65C304.828 116.181 304.514 102.273 300.935 88.9925C294.739 65.924 278.85 45.9089 257.499 34.9707C235.582 23.7606 209.29 22.7568 186.577 32.21C164.534 41.3705 147.097 60.0261 139.163 82.4881C134.223 96.5007 133.135 111.329 134.914 126.032C136.044 135.339 138.221 144.499 141.215 153.367C142.659 157.654 144.418 161.816 146.113 166.02C147.976 170.642 148.521 174.992 145.402 179.217C144.376 180.618 145.339 186.537 146.783 184.571Z" fill="black"/>
<path d="M208.875 101.056C208.875 105.259 205.463 108.689 201.234 108.689C197.027 108.689 193.594 105.28 193.594 101.056C193.594 96.8309 197.006 93.4219 201.234 93.4219C205.463 93.4219 208.875 96.8309 208.875 101.056Z" fill="#2D2D2D"/>
<path d="M242.91 101.286C242.91 105.49 239.498 108.92 235.27 108.92C231.041 108.92 227.629 105.511 227.629 101.286C227.629 97.0614 231.041 93.6523 235.27 93.6523C239.498 93.6523 242.91 97.0823 242.91 101.286Z" fill="#2D2D2D"/>
<path d="M207.367 33.0823L215.74 12.168H217.352L227.17 33.0823" fill="#73EBE0"/>
<path d="M207.367 33.0823L215.74 12.168H217.352L227.17 33.0823" stroke="black" stroke-width="1.6775" stroke-miterlimit="10"/>
<path d="M225.432 11.2921C225.432 16.186 221.476 20.1388 216.577 20.1388C211.679 20.1388 207.723 16.186 207.723 11.2921C207.723 6.39812 211.679 2.44531 216.577 2.44531C221.455 2.44531 225.432 6.39812 225.432 11.2921Z" fill="#73EBE0" stroke="black" stroke-width="0.4275" stroke-miterlimit="10"/>
<path d="M225.432 11.2921C225.432 16.186 221.476 20.1388 216.577 20.1388C211.679 20.1388 207.723 16.186 207.723 11.2921C207.723 6.39812 211.679 2.44531 216.577 2.44531C221.455 2.44531 225.432 6.39812 225.432 11.2921Z" stroke="black" stroke-width="1.6775" stroke-miterlimit="10"/>
<path d="M217.246 15.1807L215.781 14.9297L209.689 31.6403L220.951 24.0274L217.246 15.1807Z" fill="#73EBE0"/>
<path d="M165.853 81.9823C165.853 86.1442 162.483 89.5114 158.317 89.5114C154.151 89.5114 150.781 86.1442 150.781 81.9823C150.781 77.8203 154.151 74.4531 158.317 74.4531C162.483 74.4531 165.853 77.8203 165.853 81.9823Z" fill="#0CAB9F"/>
<path d="M172.029 67.1711C172.029 69.2834 170.312 70.9984 168.198 70.9984C166.084 70.9984 164.367 69.2834 164.367 67.1711C164.367 65.0587 166.084 63.3438 168.198 63.3438C170.312 63.3438 172.029 65.0587 172.029 67.1711Z" fill="#0CAB9F"/>
<path d="M242.909 124.996C242.909 133.195 231.647 139.824 217.748 139.824C203.848 139.824 192.586 133.195 192.586 124.996C192.586 116.819 203.848 110.168 217.748 110.168C231.647 110.168 242.909 116.798 242.909 124.996Z" fill="white"/>
<path d="M242.909 124.996C242.909 133.195 231.647 139.824 217.748 139.824C203.848 139.824 192.586 133.195 192.586 124.996C192.586 116.819 203.848 110.168 217.748 110.168C231.647 110.168 242.909 116.798 242.909 124.996Z" stroke="black" stroke-width="1.4808" stroke-miterlimit="10"/>
<path d="M207.871 125.94C214.319 129.307 222.838 128.24 228.239 123.346C228.825 122.803 229.432 122.008 229.055 121.297" stroke="black" stroke-width="1.4808" stroke-miterlimit="10"/>
<path d="M221.684 94.362H214.295L205.838 76.543H212.327L216.346 85.7244C216.639 86.3727 216.932 87.042 217.205 87.7321C217.477 88.4223 217.728 89.0916 217.979 89.7608C218.209 89.0916 218.461 88.4223 218.754 87.7321C219.026 87.042 219.319 86.3936 219.612 85.7244L223.631 76.543H230.141L221.684 94.362Z" fill="#2D2D2D"/>
<path d="M310.943 129.532H300.246V89.418H310.943C314.795 89.418 317.914 92.5342 317.914 96.3825V122.567C317.914 126.415 314.795 129.532 310.943 129.532Z" fill="white" stroke="black" stroke-width="1.4808" stroke-miterlimit="10"/>
<path d="M189.865 129.81H142.243C133.158 129.81 125.789 122.448 125.789 113.371" stroke="black" stroke-width="1.7779" stroke-miterlimit="10"/>
<path d="M203.347 128.397C203.347 133.542 199.182 137.704 194.032 137.704C188.882 137.704 184.717 133.542 184.717 128.397C184.717 123.252 188.882 119.09 194.032 119.09C199.182 119.09 203.347 123.252 203.347 128.397Z" fill="#2FD7E6" stroke="black" stroke-width="1.1293" stroke-miterlimit="10"/>
<g clip-path="url(#clip1_1294_82301)">
<path d="M77.7322 16.8202L66.1987 28.3228C64.2034 30.3127 64.2034 33.5389 66.1987 35.5288L72.494 41.8072C74.4892 43.7971 77.7242 43.7971 79.7194 41.8072L91.253 30.3047C93.2482 28.3148 93.2482 25.0885 91.253 23.0986L84.9577 16.8202C82.9624 14.8303 79.7275 14.8303 77.7322 16.8202Z" fill="#73EBE0"/>
<path d="M72.3451 41.5575L67.4286 36.6542C66.5649 35.7929 65.5882 35.0044 65.2029 33.7984C64.6115 31.963 65.163 30.0083 66.4851 28.6433C69.827 25.2044 73.2819 21.8648 76.6836 18.4723C77.1154 18.0416 77.5406 17.6043 77.9791 17.1802C79.4607 15.7556 81.6333 15.2653 83.5534 16.067C84.6364 16.5176 85.3938 17.3724 86.2043 18.1808L89.3469 21.3149C90.018 21.9841 90.7488 22.6335 91.38 23.3425C92.9413 25.105 92.7885 27.8548 91.3202 29.624C90.1641 31.0155 88.7357 32.2347 87.46 33.5069L81.3144 39.636C79.6601 41.2859 78.1253 43.1279 75.5209 42.9556C74.2918 42.8761 73.1822 42.346 72.2986 41.5045C72.1723 41.3853 72.3252 41.6503 72.3318 41.6702C72.4182 41.8358 72.5643 41.9949 72.6972 42.1208C74.3183 43.6646 76.7367 44.1152 78.7498 43.055C79.5405 42.6376 80.1318 41.9949 80.7563 41.3786L86.902 35.2495C88.4301 33.7255 89.9914 32.2214 91.4929 30.6709C92.9081 29.2065 93.3931 27.0862 92.649 25.1713C92.2237 24.0713 91.4531 23.2099 90.6292 22.3883C88.729 20.4933 86.8422 18.5916 84.9287 16.7031C83.7129 15.5038 82.1449 14.8213 80.4108 15.0466C79.0754 15.2189 78.0389 15.9279 77.1154 16.8489C73.448 20.5065 69.7672 24.1508 66.1197 27.8151C63.7146 30.2336 64.1465 33.5665 66.432 35.879C68.2989 37.7674 70.1991 39.636 72.0793 41.5112L72.6441 42.0744C72.8766 42.3063 72.4315 41.6371 72.3384 41.5509L72.3451 41.5575Z" fill="black"/>
<path d="M66.2334 42.3725L73.7145 34.9115L85.5872 23.0707L88.3444 20.3209C88.4707 20.195 87.9325 19.5523 87.8528 19.6318L80.3717 27.0927L68.499 38.9335L65.7417 41.6834C65.6155 41.8093 66.1537 42.452 66.2334 42.3725Z" fill="black"/>
<path d="M68.4654 25.7067L80.3049 37.5143L81.9924 39.1974C82.1452 39.3498 82.9425 39.3829 82.7432 39.1775L70.9037 27.3698L69.2161 25.6868C69.0633 25.5344 68.2661 25.5013 68.4654 25.7067Z" fill="black"/>
<path d="M74.7557 19.3134L86.5952 31.121L88.2828 32.8041C88.409 32.93 88.5951 33.0757 88.7678 33.1221C88.801 33.1287 89.0867 33.2281 88.9538 33.1022L77.1143 21.2946L75.4268 19.6116C75.3005 19.4857 75.1145 19.3399 74.9418 19.2935C74.9085 19.2869 74.6228 19.1875 74.7557 19.3134Z" fill="black"/>
<path d="M44.2933 61.4817L40.9447 64.8213L40.4663 65.2983C40.1474 65.6164 40.8982 65.9344 41.1374 65.6959L44.4859 62.3564L44.9643 61.8793C45.2832 61.5612 44.5324 61.2432 44.2933 61.4817Z" fill="black"/>
<path d="M30.4334 62.3476L18.8999 73.8501C16.9046 75.84 16.9046 79.0663 18.8999 81.0562L25.1951 87.3345C27.1904 89.3244 30.4254 89.3244 32.4206 87.3345L43.9541 75.832C45.9494 73.8421 45.9494 70.6158 43.9541 68.6259L37.6589 62.3476C35.6636 60.3577 32.4286 60.3577 30.4334 62.3476Z" fill="#73EBE0"/>
<path d="M37.2846 62.5209L42.1546 67.3778C42.8257 68.047 43.6163 68.7096 44.1611 69.4915C45.47 71.3799 45.2972 73.9972 43.7492 75.6935C42.54 77.0187 41.1979 78.2445 39.9289 79.5101L33.8165 85.6061C33.2783 86.1428 32.7402 86.6862 32.202 87.2162C30.8068 88.5878 28.8668 89.0053 27.0596 88.1903C26.0431 87.7331 25.3056 86.8849 24.5283 86.1163L21.4521 83.0484C20.7412 82.3394 20.0237 81.6437 19.3261 80.9281C17.9242 79.4836 17.4259 77.3964 18.1634 75.5013C18.5288 74.5737 19.1733 73.9177 19.8576 73.2418L22.183 70.9227L28.4083 64.7141C30.0095 63.1172 31.6306 60.924 34.142 61.0697C35.3446 61.1426 36.4276 61.6926 37.2913 62.5142C37.464 62.6799 38.2214 62.3486 38.042 62.1763C36.4874 60.6921 34.255 60.2812 32.2419 61.0035C31.2054 61.3745 30.4148 62.0305 29.6507 62.7925L23.8307 68.597C22.1232 70.2999 20.409 71.9895 18.7148 73.699C17.592 74.8189 16.9343 76.217 17.0007 77.8072C17.0671 79.3975 17.8777 80.5835 18.954 81.657C20.8542 83.552 22.7543 85.4603 24.6611 87.3488C26.9998 89.6613 30.5875 89.4691 32.8863 87.203C36.5671 83.5719 40.208 79.9011 43.8688 76.2501C44.6993 75.4218 45.4102 74.5339 45.6959 73.3677C46.141 71.5522 45.5497 69.7102 44.2475 68.3916C42.3739 66.4965 40.4737 64.6279 38.5868 62.7461L38.0221 62.1829C37.8494 62.0107 37.092 62.342 37.2713 62.5209H37.2846Z" fill="black"/>
<path d="M40.4663 65.386L24.0492 81.759L21.7105 84.0914C21.3517 84.4492 22.149 84.542 22.3882 84.3034L38.8054 67.9304L41.144 65.598C41.5028 65.2402 40.7055 65.1475 40.4663 65.386Z" fill="black"/>
<path d="M41.6833 78.636L29.8438 66.8284L28.1562 65.1453C27.9835 64.9731 27.4985 64.8869 27.4121 64.8008L39.2516 76.6084L40.9392 78.2915C41.1119 78.4637 41.5969 78.5499 41.6833 78.636Z" fill="black"/>
<path d="M35.3568 84.5851L23.5173 72.7774L21.8297 71.0944C21.5573 70.8227 20.8398 70.9354 21.2318 71.3263L33.0713 83.134L34.7588 84.817C35.0312 85.0887 35.7488 84.976 35.3568 84.5851Z" fill="black"/>
<path d="M64.5034 75.74C73.0603 75.74 79.9971 68.8219 79.9971 60.2879C79.9971 51.754 73.0603 44.8359 64.5034 44.8359C55.9465 44.8359 49.0098 51.754 49.0098 60.2879C49.0098 68.8219 55.9465 75.74 64.5034 75.74Z" fill="#FFB15E"/>
<path d="M59.1527 33.0976L37.2461 54.9453L53.5575 71.2128L75.4641 49.3651L59.1527 33.0976Z" fill="#FFB15E"/>
<path d="M61.2886 72.5329C69.8455 72.5329 76.7822 65.6148 76.7822 57.0809C76.7822 48.547 69.8455 41.6289 61.2886 41.6289C52.7317 41.6289 45.7949 48.547 45.7949 57.0809C45.7949 65.6148 52.7317 72.5329 61.2886 72.5329Z" fill="#330315"/>
<path d="M58.4116 69.6657C66.9685 69.6657 73.9053 62.7476 73.9053 54.2137C73.9053 45.6798 66.9685 38.7617 58.4116 38.7617C49.8547 38.7617 42.918 45.6798 42.918 54.2137C42.918 62.7476 49.8547 69.6657 58.4116 69.6657Z" fill="#FFB15E"/>
<path d="M55.4683 66.7282C64.0252 66.7282 70.9619 59.8101 70.9619 51.2762C70.9619 42.7423 64.0252 35.8242 55.4683 35.8242C46.9114 35.8242 39.9746 42.7423 39.9746 51.2762C39.9746 59.8101 46.9114 66.7282 55.4683 66.7282Z" fill="#330315"/>
<path d="M52.5991 63.8689C61.156 63.8689 68.0928 56.9508 68.0928 48.4169C68.0928 39.8829 61.156 32.9648 52.5991 32.9648C44.0422 32.9648 37.1055 39.8829 37.1055 48.4169C37.1055 56.9508 44.0422 63.8689 52.5991 63.8689Z" fill="#FFB15E"/>
<path d="M48.1929 59.4743C56.7498 59.4743 63.6865 52.5562 63.6865 44.0223C63.6865 35.4884 56.7498 28.5703 48.1929 28.5703C39.636 28.5703 32.6992 35.4884 32.6992 44.0223C32.6992 52.5562 39.636 59.4743 48.1929 59.4743Z" fill="#FFB15E"/>
<path d="M75.5533 49.0002L60.8436 34.3301C60.239 33.7271 59.641 33.1109 59.0232 32.5212C56.7111 30.2948 53.7412 28.8238 50.5654 28.3335C44.154 27.3462 37.6828 30.5533 34.527 36.1987C31.3711 41.8441 31.9225 48.5232 35.5767 53.4994C36.3408 54.5396 37.2576 55.4342 38.1678 56.3486L41.822 59.9929L51.0039 69.1501C51.7879 69.932 52.5719 70.7139 53.3559 71.4958C55.1896 73.3179 57.3755 74.6962 59.8536 75.4582C66.0192 77.3731 72.8492 75.2064 76.8156 70.1374C80.7821 65.0685 81.2206 58.3364 78.3769 52.8699C77.6328 51.4386 76.6761 50.1466 75.54 49.0002C75.2942 48.7485 75.1812 49.5568 75.354 49.7291C80.0114 54.4469 81.174 61.6892 77.8919 67.5201C74.6098 73.3511 68.225 76.1605 61.8933 75.1004C58.7707 74.5769 55.8806 73.0661 53.6283 70.8464C53.0901 70.3163 52.5652 69.7862 52.0271 69.2495L43.669 60.9139C41.5895 58.84 39.5033 56.766 37.4237 54.6854C33.2912 50.5441 31.7232 44.4084 33.8028 38.8756C36.0617 32.8525 42.0878 28.857 48.5124 28.9961C51.6484 29.0624 54.7245 30.0961 57.2559 31.9447C58.2657 32.6802 59.1295 33.5549 60.0065 34.4295L74.9487 49.3316L75.3473 49.7291C75.5998 49.9809 75.7061 49.1725 75.5333 49.0002H75.5533Z" fill="black"/>
<path d="M46.9102 48.5669C49.8601 48.2952 52.119 45.5653 52.3981 43.0938" stroke="black" stroke-width="1.59" stroke-miterlimit="10"/>
<path d="M43.7214 50.0251C44.492 50.0251 45.1166 49.4022 45.1166 48.6337C45.1166 47.8652 44.492 47.2422 43.7214 47.2422C42.9508 47.2422 42.3262 47.8652 42.3262 48.6337C42.3262 49.4022 42.9508 50.0251 43.7214 50.0251Z" fill="black"/>
<path d="M53.376 39.0013C53.9208 39.5446 53.9208 40.4259 53.376 40.9692C52.8312 41.5125 51.9475 41.5125 51.4027 40.9692C50.8579 40.4259 50.8579 39.5446 51.4027 39.0013C51.9475 38.4579 52.8312 38.4579 53.376 39.0013Z" fill="black"/>
<path d="M36.0492 38.6601L28.03 36.7319C27.3988 36.5795 27.0134 35.95 27.1662 35.3205C27.3191 34.691 27.9502 34.3067 28.5814 34.4591C28.6478 34.4724 28.7209 34.4989 28.7807 34.5254L36.3216 37.8517C36.5342 37.9444 36.6339 38.1962 36.5408 38.4083C36.4545 38.6004 36.2485 38.6932 36.0492 38.6468V38.6601Z" fill="black"/>
<path d="M41.2296 32.9297L38.3661 24.8724C38.1469 24.2628 38.4658 23.6002 39.077 23.3815C39.6882 23.1629 40.3526 23.4809 40.5719 24.0905C40.5918 24.1502 40.6118 24.2231 40.625 24.2893L42.0535 32.7177C42.0934 32.9496 41.9339 33.1683 41.708 33.208C41.502 33.2411 41.3027 33.1219 41.2363 32.9297H41.2296Z" fill="black"/>
</g>
</g>
<defs>
<clipPath id="clip0_1294_82301">
<rect width="327" height="158" fill="white"/>
</clipPath>
<clipPath id="clip1_1294_82301">
<rect width="76" height="74" fill="white" transform="translate(17 15)"/>
</clipPath>
</defs>
</svg>
