<svg width="57" height="57" viewBox="0 0 57 57" fill="none" xmlns="http://www.w3.org/2000/svg">
<path d="M53.2545 0H3.74549C1.67691 0 0 1.67691 0 3.74549V53.2545C0 55.3231 1.67691 57 3.74549 57H53.2545C55.3231 57 57 55.3231 57 53.2545V3.74549C57 1.67691 55.3231 0 53.2545 0Z" fill="#FFE600"/>
<path d="M28.9744 15C19.9455 15 12.625 20.7809 12.625 27.9127C12.625 32.5016 15.6048 36.5145 20.2137 38.8388L18.6642 44.5899C18.638 44.6742 18.6353 44.764 18.6563 44.8498C18.6773 44.9355 18.7212 45.0139 18.7834 45.0766C18.8277 45.1208 18.8804 45.1559 18.9384 45.1797C18.9963 45.2036 19.0584 45.2158 19.1211 45.2156C19.2239 45.2139 19.3227 45.1751 19.3992 45.1064L26.0343 40.6366C27.0212 40.7789 28.0171 40.8487 29.0142 40.8452C38.0431 40.8452 45.3735 35.0643 45.3735 27.9325C45.3735 20.8008 38.0431 15.0199 29.0142 15.0199" fill="#392020"/>
<path d="M18.356 25.8779H16.5979C16.3774 25.8827 16.1602 25.8241 15.9721 25.7091C15.8794 25.6616 15.7984 25.5943 15.7349 25.5119C15.6714 25.4294 15.6269 25.3339 15.6046 25.2323V25.0436C15.5982 24.9276 15.6203 24.8118 15.6687 24.7062C15.7172 24.6006 15.7906 24.5085 15.8827 24.4377C16.0874 24.2894 16.3352 24.2126 16.5879 24.2191H22.0311C22.2516 24.2144 22.4687 24.273 22.6569 24.388C22.743 24.4388 22.8169 24.5077 22.8736 24.5901C22.9302 24.6725 22.9681 24.7662 22.9847 24.8648C22.9945 24.924 22.9945 24.9844 22.9847 25.0436C22.9913 25.16 22.9705 25.2764 22.9239 25.3834C22.8773 25.4904 22.8063 25.5849 22.7165 25.6594C22.5166 25.8097 22.2711 25.8868 22.0212 25.8779H20.2432V32.0065C20.2502 32.2689 20.158 32.5242 19.985 32.7216C19.8081 32.8752 19.5851 32.9654 19.3513 32.978C19.1174 32.9906 18.886 32.9248 18.6937 32.7912C18.5224 32.6602 18.4085 32.4679 18.3758 32.2548C18.3655 32.1723 18.3655 32.0889 18.3758 32.0065L18.356 25.8779Z" fill="#FFE600"/>
<path d="M23.4417 24.6645C23.5006 24.4763 23.6236 24.3147 23.7893 24.2076C23.9627 24.1037 24.1637 24.0552 24.3654 24.0686H24.8223C25.0373 24.0623 25.2499 24.1137 25.4382 24.2176C25.6269 24.3577 25.7633 24.5571 25.8256 24.7837L28.1002 31.3692C28.1592 31.5419 28.2089 31.7176 28.2492 31.8956C28.2559 31.9716 28.2559 32.0481 28.2492 32.1241C28.2501 32.2374 28.2276 32.3497 28.1832 32.4539C28.1387 32.5582 28.0733 32.6522 27.9909 32.73C27.9082 32.8107 27.8103 32.8742 27.7029 32.9168C27.5955 32.9594 27.4807 32.9803 27.3651 32.9783C27.1843 32.9992 27.0017 32.9573 26.848 32.8596C26.6943 32.762 26.5788 32.6145 26.5209 32.4419L26.0341 31.0116H23.0245L22.5577 32.4419C22.5013 32.6156 22.3862 32.7642 22.2321 32.8621C22.0779 32.96 21.8945 33.0011 21.7134 32.9783C21.514 32.9879 21.3175 32.9283 21.1571 32.8095C21.0025 32.69 20.8994 32.5158 20.8691 32.3228C20.8249 32.1433 20.8249 31.9559 20.8691 31.7764C20.8691 31.6473 20.9485 31.5083 20.9982 31.3692L23.4417 24.6645ZM24.5442 26.1942L23.4516 29.6508H25.6567L24.5442 26.1942Z" fill="#FFE600"/>
<path d="M28.5777 25.041C28.5682 24.7812 28.6609 24.528 28.836 24.3358C28.9246 24.245 29.0316 24.1741 29.1498 24.1279C29.2679 24.0816 29.3946 24.0611 29.5213 24.0676C29.7385 24.0625 29.9513 24.1288 30.1272 24.2563C30.288 24.3963 30.3994 24.5844 30.4451 24.7927C30.4555 24.8751 30.4555 24.9585 30.4451 25.041V31.1795H33.5938C33.8181 31.1685 34.0402 31.2275 34.2295 31.3483C34.3129 31.4011 34.3843 31.4709 34.439 31.553C34.4938 31.6351 34.5307 31.7278 34.5473 31.8251C34.5473 31.8251 34.5473 31.9443 34.5473 32.0039C34.5537 32.1199 34.5317 32.2357 34.4832 32.3412C34.4347 32.4468 34.3613 32.539 34.2692 32.6098C34.0666 32.7623 33.8173 32.8395 33.564 32.8283H29.5909C29.3431 32.8411 29.0973 32.7788 28.8856 32.6495C28.7879 32.5828 28.7054 32.496 28.6438 32.395C28.5821 32.294 28.5427 32.181 28.528 32.0635C28.5167 31.9379 28.5167 31.8116 28.528 31.6861L28.5777 25.041Z" fill="#FFE600"/>
<path d="M34.7761 25.041C34.7665 24.7812 34.8592 24.528 35.0343 24.3358C35.123 24.245 35.2299 24.1741 35.3481 24.1279C35.4663 24.0816 35.5929 24.0611 35.7197 24.0676C35.9368 24.0625 36.1497 24.1288 36.3256 24.2563C36.4899 24.3934 36.6021 24.5827 36.6434 24.7927C36.6483 24.8754 36.6483 24.9583 36.6434 25.041V27.8917L39.6233 24.4947C39.7292 24.3718 39.8492 24.2617 39.9809 24.1669C40.0977 24.0971 40.2322 24.0626 40.3682 24.0676C40.5697 24.0651 40.7672 24.124 40.9344 24.2364C41.0962 24.3412 41.2103 24.5053 41.2523 24.6933C41.2489 24.7197 41.2489 24.7464 41.2523 24.7728C41.2466 24.799 41.2466 24.8261 41.2523 24.8523C41.2509 24.9768 41.2203 25.0993 41.1629 25.2098C41.1001 25.3248 41.0234 25.4316 40.9344 25.5277L38.9478 27.6335L41.3119 31.2887L41.3814 31.398C41.5046 31.5651 41.5956 31.7538 41.6496 31.9542C41.6496 31.9542 41.6496 31.9542 41.6496 32.0238C41.6618 32.1573 41.642 32.2918 41.5919 32.4161C41.5419 32.5405 41.4629 32.6512 41.3615 32.7389C41.165 32.8885 40.9229 32.9657 40.6762 32.9575C40.5146 32.9654 40.3537 32.9311 40.2093 32.8581C40.0582 32.7512 39.9327 32.6121 39.8418 32.4509L37.6665 28.9545L36.6732 30.0372V32.0238C36.6793 32.1541 36.6595 32.2843 36.6152 32.407C36.5709 32.5297 36.5029 32.6425 36.415 32.7389C36.3254 32.8279 36.2181 32.897 36.1 32.9415C35.9818 32.986 35.8556 33.005 35.7296 32.9972C35.5124 33.0022 35.2996 32.9359 35.1237 32.8085C34.9554 32.6748 34.8423 32.4839 34.8059 32.2721C34.7955 32.1896 34.7955 32.1062 34.8059 32.0238L34.7761 25.041Z" fill="#FFE600"/>
</svg>
