<svg width="68" height="68" viewBox="0 0 68 68" fill="none" xmlns="http://www.w3.org/2000/svg">
<circle cx="34" cy="34" r="34" fill="#73EBE0" fill-opacity="0.08"/>
<g clip-path="url(#clip0_13172_280049)">
<path d="M24.7571 39H29.7171V37.76H28.0971C27.7471 37.76 27.2571 37.8 26.8871 37.84C28.2071 36.46 29.3671 35.16 29.3671 33.9C29.3671 32.54 28.4371 31.65 27.0371 31.65C26.0271 31.65 25.3671 32.05 24.6871 32.78L25.4871 33.58C25.8671 33.17 26.3071 32.81 26.8471 32.81C27.5571 32.81 27.9571 33.25 27.9571 33.98C27.9571 35.05 26.6871 36.31 24.7571 38.15V39ZM31.8558 36.08L33.0058 34.26C33.2158 33.86 33.4158 33.49 33.5958 33.1H33.6358C33.6158 33.53 33.5858 34.21 33.5858 34.64V36.08H31.8558ZM33.5858 39H34.9558V37.21H35.8258V36.08H34.9558V31.79H33.1858L30.4258 36.2V37.21H33.5858V39ZM37.0145 39H38.4945V35.8H41.2945V39H42.7645V31.59H41.2945V34.51H38.4945V31.59H37.0145V39Z" fill="#499690"/>
<path d="M30.1579 19.8218C38.6934 17.5347 47.4668 22.6 49.7539 31.1355C52.0409 39.671 46.9756 48.4443 38.4401 50.7314C29.9047 53.0185 21.1313 47.9532 18.8442 39.4177C17.877 35.8078 18.2248 32.1554 19.5941 28.9691" stroke="black" stroke-width="1.5" stroke-linecap="round"/>
<path d="M31.8822 16.9638L29.6314 20.155L33.1762 21.7934" stroke="black" stroke-width="1.5" stroke-linecap="round"/>
</g>
<defs>
<clipPath id="clip0_13172_280049">
<rect width="40" height="40" fill="white" transform="translate(14 14)"/>
</clipPath>
</defs>
</svg>
