<svg width="68" height="68" viewBox="0 0 68 68" fill="none" xmlns="http://www.w3.org/2000/svg">
<circle cx="34" cy="34" r="34" fill="#F4FDFD"/>
<g clip-path="url(#clip0_13341_281037)">
<path fill-rule="evenodd" clip-rule="evenodd" d="M35.9252 45.8038C38.2376 48.1163 42.6151 49.0577 45.2029 47.0581L48.1004 44.8191C49.6152 43.6486 49.661 41.3779 48.1946 40.1472L46.0386 38.3379C45.3291 37.7425 44.3037 37.7121 43.5602 38.2644L40.9393 40.2114C39.5725 41.5783 37.3564 41.5783 35.9896 40.2114L27.5043 31.7261C26.1375 30.3593 26.1375 28.1432 27.5043 26.7764L29.4513 24.1555C30.0036 23.412 29.9732 22.3866 29.3778 21.6772L27.5685 19.5212C26.3379 18.0547 24.0672 18.1005 22.8966 19.6153L20.6576 22.5129C18.658 25.1006 19.5994 29.4781 21.9119 31.7906L35.9252 45.8038ZM19.4707 21.5957C17.0096 24.7806 18.0051 30.0051 20.8512 32.8512L34.8645 46.8645C37.7106 49.7106 42.9351 50.7061 46.12 48.245L49.4817 45.6474C51.4695 44.1113 51.566 41.1445 49.682 39.4826L46.7164 36.8665C45.6245 35.9033 43.9987 35.8631 42.8606 36.7713L39.8787 39.1508C39.0976 39.9318 37.8313 39.9318 37.0503 39.1508L28.565 30.6655C27.7839 29.8844 27.7839 28.6181 28.565 27.837L30.9444 24.8551C31.8526 23.7171 31.8125 22.0912 30.8493 20.9993L28.2331 18.0337C26.5712 16.1498 23.6044 16.2462 22.0683 18.234L19.4707 21.5957Z" fill="black"/>
<path d="M25.5 51.8167C29.7862 51.8167 33.25 48.3259 33.25 44.0333C33.25 39.7408 29.7862 36.25 25.5 36.25C21.2138 36.25 17.75 39.7408 17.75 44.0333C17.75 48.3259 21.2138 51.8167 25.5 51.8167Z" stroke="#F4FDFD" stroke-width="2.5"/>
<path d="M25.5 50.5667C29.0899 50.5667 32 47.6416 32 44.0333C32 40.4251 29.0899 37.5 25.5 37.5C21.9102 37.5 19 40.4251 19 44.0333C19 47.6416 21.9102 50.5667 25.5 50.5667Z" fill="#F4FDFD" stroke="#499690" stroke-width="1.5"/>
<path d="M25.0194 45.48H25.9794L26.1894 41.79L26.2394 40.4H24.7594L24.8094 41.79L25.0194 45.48ZM25.4994 48.14C26.0194 48.14 26.4194 47.72 26.4194 47.18C26.4194 46.63 26.0194 46.22 25.4994 46.22C24.9794 46.22 24.5894 46.63 24.5894 47.18C24.5894 47.72 24.9794 48.14 25.4994 48.14Z" fill="#499690"/>
<path d="M37.7028 19.8284C40.4604 19.18 43.4088 19.8776 45.481 21.9497C47.5532 24.0219 48.2508 26.9703 47.6023 29.7279" stroke="black" stroke-width="1.5" stroke-linecap="round"/>
<path d="M37.0037 23.3635C38.8405 22.7049 41.0754 23.1926 42.6605 24.7777C44.2457 26.3629 44.7333 28.5977 44.0747 30.4346" stroke="black" stroke-width="1.5" stroke-linecap="round"/>
</g>
<defs>
<clipPath id="clip0_13341_281037">
<rect width="40" height="40" fill="white" transform="translate(14 14)"/>
</clipPath>
</defs>
</svg>
