<svg width="68" height="68" viewBox="0 0 68 68" fill="none" xmlns="http://www.w3.org/2000/svg">
<circle cx="34" cy="34" r="34" fill="#F4FDFD"/>
<path fill-rule="evenodd" clip-rule="evenodd" d="M30.1067 20C23.4204 20 18 25.4204 18 32.1067C18 36.1378 19.9701 39.7087 23 41.9092V47.4997C23 47.9023 23.4516 48.1398 23.7834 47.9116L29.2074 44.1805C29.5043 44.2023 29.8042 44.2134 30.1067 44.2134H38.8933C45.5796 44.2134 51 38.7931 51 32.1067C51 25.4204 45.5796 20 38.8933 20H30.1067Z" fill="#F4FDFD"/>
<path d="M23 41.9092H23.75V41.5269L23.4407 41.3023L23 41.9092ZM23.7834 47.9116L24.2084 48.5295H24.2084L23.7834 47.9116ZM29.2074 44.1805L29.2623 43.4326L28.9994 43.4133L28.7823 43.5626L29.2074 44.1805ZM18.75 32.1067C18.75 25.8346 23.8346 20.75 30.1067 20.75V19.25C23.0062 19.25 17.25 25.0062 17.25 32.1067H18.75ZM23.4407 41.3023C20.5968 39.2369 18.75 35.8875 18.75 32.1067H17.25C17.25 36.3881 19.3434 40.1805 22.5593 42.516L23.4407 41.3023ZM23.75 47.4997V41.9092H22.25V47.4997H23.75ZM23.3583 47.2937C23.5242 47.1796 23.75 47.2983 23.75 47.4997H22.25C22.25 48.5063 23.3791 49.1 24.2084 48.5295L23.3583 47.2937ZM28.7823 43.5626L23.3583 47.2937L24.2084 48.5295L29.6324 44.7985L28.7823 43.5626ZM30.1067 43.4634C29.8226 43.4634 29.541 43.453 29.2623 43.4326L29.1524 44.9285C29.4676 44.9517 29.7859 44.9634 30.1067 44.9634V43.4634ZM38.8933 43.4634H30.1067V44.9634H38.8933V43.4634ZM50.25 32.1067C50.25 38.3789 45.1654 43.4634 38.8933 43.4634V44.9634C45.9938 44.9634 51.75 39.2073 51.75 32.1067H50.25ZM38.8933 20.75C45.1654 20.75 50.25 25.8346 50.25 32.1067H51.75C51.75 25.0062 45.9938 19.25 38.8933 19.25V20.75ZM30.1067 20.75H38.8933V19.25H30.1067V20.75Z" fill="black"/>
<path d="M24.4581 36H25.9381V29.83H28.0381V28.59H22.3781V29.83H24.4581V36ZM30.3989 32.14C30.6189 31.37 30.8389 30.53 31.0289 29.72H31.0789C31.2889 30.52 31.4889 31.37 31.7189 32.14L31.9389 32.95H30.1789L30.3989 32.14ZM27.8389 36H29.3389L29.8589 34.1H32.2589L32.7789 36H34.3289L31.9489 28.59H30.2089L27.8389 36ZM35.1952 36H39.6852V34.76H36.6752V28.59H35.1952V36ZM40.9764 36H42.4564V33.92L43.4264 32.67L45.3464 36H46.9664L44.3064 31.51L46.5664 28.59H44.9364L42.4864 31.81H42.4564V28.59H40.9764V36Z" fill="#499690"/>
</svg>
