<svg width="35" height="35" viewBox="0 0 35 35" fill="none" xmlns="http://www.w3.org/2000/svg">
<g clip-path="url(#clip0_13151_278650)">
<path d="M32.25 29C32.25 29.3513 32.029 29.8145 31.3271 30.3499C30.6366 30.8765 29.5902 31.383 28.2299 31.8218C25.5177 32.6966 21.724 33.25 17.5 33.25C13.276 33.25 9.48226 32.6966 6.7701 31.8218C5.40981 31.383 4.36338 30.8765 3.67289 30.3499C2.97098 29.8145 2.75 29.3513 2.75 29C2.75 28.6487 2.97098 28.1855 3.67289 27.6501C4.36338 27.1235 5.40981 26.617 6.7701 26.1782C9.48226 25.3034 13.276 24.75 17.5 24.75C21.724 24.75 25.5177 25.3034 28.2299 26.1782C29.5902 26.617 30.6366 27.1235 31.3271 27.6501C32.029 28.1855 32.25 28.6487 32.25 29Z" stroke="black" stroke-width="1.5"/>
<path d="M17.8852 28.9101C17.7102 29.2 17.2898 29.2 17.1148 28.9101L9.68377 16.5958C6.01218 10.5114 10.3937 2.75001 17.5 2.75001C24.6063 2.75001 28.9878 10.5114 25.3162 16.5958L17.8852 28.9101Z" fill="white" stroke="black" stroke-width="1.5"/>
<circle cx="17.5" cy="12" r="4" stroke="#499690" stroke-width="1.5"/>
</g>
<defs>
<clipPath id="clip0_13151_278650">
<rect width="35" height="35" fill="white"/>
</clipPath>
</defs>
</svg>
