<svg width="68" height="68" viewBox="0 0 68 68" fill="none" xmlns="http://www.w3.org/2000/svg">
<circle cx="34" cy="34" r="34" fill="#F4FDFD"/>
<mask id="path-2-outside-1_13172_280037" maskUnits="userSpaceOnUse" x="16" y="24.0371" width="30" height="27" fill="black">
<rect fill="white" x="16" y="24.0371" width="30" height="27"/>
<path fill-rule="evenodd" clip-rule="evenodd" d="M44 26.0371H18V42.4392C18 42.4394 18 42.4396 18 42.4398C18 46.0632 23.8203 49.0006 31 49.0006C32.8052 49.0006 34.5245 48.8149 36.087 48.4793C40.7386 47.4801 44 45.1521 44 42.4398C44 42.4396 44 42.4394 44 42.4392V26.0371Z"/>
</mask>
<path fill-rule="evenodd" clip-rule="evenodd" d="M44 26.0371H18V42.4392C18 42.4394 18 42.4396 18 42.4398C18 46.0632 23.8203 49.0006 31 49.0006C32.8052 49.0006 34.5245 48.8149 36.087 48.4793C40.7386 47.4801 44 45.1521 44 42.4398C44 42.4396 44 42.4394 44 42.4392V26.0371Z" fill="#F4FDFD"/>
<path d="M18 26.0371V24.5371H16.5V26.0371H18ZM44 26.0371H45.5V24.5371H44V26.0371ZM36.087 48.4793L36.402 49.9458L36.087 48.4793ZM18 27.5371H44V24.5371H18V27.5371ZM19.5 42.4392V26.0371H16.5V42.4392H19.5ZM19.5 42.4398C19.5 42.4398 19.5 42.4398 19.5 42.4398C19.5 42.4398 19.5 42.4398 19.5 42.4397V42.4397V42.4397V42.4397C19.5 42.4397 19.5 42.4397 19.5 42.4397C19.5 42.4397 19.5 42.4397 19.5 42.4397C19.5 42.4397 19.5 42.4397 19.5 42.4397C19.5 42.4397 19.5 42.4397 19.5 42.4397V42.4397V42.4397V42.4397C19.5 42.4397 19.5 42.4397 19.5 42.4397C19.5 42.4397 19.5 42.4397 19.5 42.4397C19.5 42.4397 19.5 42.4397 19.5 42.4397C19.5 42.4397 19.5 42.4397 19.5 42.4397V42.4397V42.4397C19.5 42.4397 19.5 42.4397 19.5 42.4397C19.5 42.4397 19.5 42.4397 19.5 42.4397C19.5 42.4397 19.5 42.4397 19.5 42.4397C19.5 42.4397 19.5 42.4397 19.5 42.4397C19.5 42.4397 19.5 42.4397 19.5 42.4397V42.4397V42.4397C19.5 42.4397 19.5 42.4397 19.5 42.4397C19.5 42.4397 19.5 42.4397 19.5 42.4397C19.5 42.4397 19.5 42.4397 19.5 42.4397C19.5 42.4397 19.5 42.4397 19.5 42.4397C19.5 42.4397 19.5 42.4397 19.5 42.4397V42.4397V42.4397C19.5 42.4397 19.5 42.4397 19.5 42.4397C19.5 42.4397 19.5 42.4397 19.5 42.4397C19.5 42.4397 19.5 42.4397 19.5 42.4397C19.5 42.4397 19.5 42.4397 19.5 42.4397C19.5 42.4397 19.5 42.4397 19.5 42.4397V42.4397V42.4397C19.5 42.4397 19.5 42.4397 19.5 42.4397C19.5 42.4397 19.5 42.4397 19.5 42.4397C19.5 42.4397 19.5 42.4397 19.5 42.4397C19.5 42.4397 19.5 42.4397 19.5 42.4397C19.5 42.4397 19.5 42.4397 19.5 42.4397V42.4397V42.4397C19.5 42.4397 19.5 42.4397 19.5 42.4397C19.5 42.4397 19.5 42.4397 19.5 42.4397C19.5 42.4397 19.5 42.4397 19.5 42.4397C19.5 42.4397 19.5 42.4397 19.5 42.4397C19.5 42.4397 19.5 42.4397 19.5 42.4397V42.4397V42.4397C19.5 42.4396 19.5 42.4396 19.5 42.4396C19.5 42.4396 19.5 42.4396 19.5 42.4396C19.5 42.4396 19.5 42.4396 19.5 42.4396C19.5 42.4396 19.5 42.4396 19.5 42.4396C19.5 42.4396 19.5 42.4396 19.5 42.4396V42.4396V42.4396C19.5 42.4396 19.5 42.4396 19.5 42.4396C19.5 42.4396 19.5 42.4396 19.5 42.4396C19.5 42.4396 19.5 42.4396 19.5 42.4396C19.5 42.4396 19.5 42.4396 19.5 42.4396V42.4396V42.4396V42.4396C19.5 42.4396 19.5 42.4396 19.5 42.4396C19.5 42.4396 19.5 42.4396 19.5 42.4396C19.5 42.4396 19.5 42.4396 19.5 42.4396C19.5 42.4396 19.5 42.4396 19.5 42.4396V42.4396V42.4396V42.4396C19.5 42.4396 19.5 42.4396 19.5 42.4396C19.5 42.4396 19.5 42.4396 19.5 42.4396C19.5 42.4396 19.5 42.4396 19.5 42.4396C19.5 42.4396 19.5 42.4396 19.5 42.4396V42.4396V42.4396C19.5 42.4396 19.5 42.4396 19.5 42.4396C19.5 42.4396 19.5 42.4396 19.5 42.4396C19.5 42.4396 19.5 42.4396 19.5 42.4396C19.5 42.4396 19.5 42.4396 19.5 42.4396C19.5 42.4396 19.5 42.4396 19.5 42.4396V42.4396V42.4396C19.5 42.4396 19.5 42.4396 19.5 42.4396C19.5 42.4396 19.5 42.4396 19.5 42.4396C19.5 42.4396 19.5 42.4396 19.5 42.4396C19.5 42.4396 19.5 42.4396 19.5 42.4396C19.5 42.4396 19.5 42.4396 19.5 42.4396V42.4396V42.4396C19.5 42.4396 19.5 42.4396 19.5 42.4396C19.5 42.4396 19.5 42.4396 19.5 42.4396C19.5 42.4396 19.5 42.4396 19.5 42.4396C19.5 42.4396 19.5 42.4396 19.5 42.4396C19.5 42.4396 19.5 42.4396 19.5 42.4396V42.4396V42.4396C19.5 42.4396 19.5 42.4396 19.5 42.4396C19.5 42.4396 19.5 42.4396 19.5 42.4396C19.5 42.4396 19.5 42.4396 19.5 42.4396C19.5 42.4396 19.5 42.4396 19.5 42.4396C19.5 42.4396 19.5 42.4396 19.5 42.4396V42.4395V42.4395C19.5 42.4395 19.5 42.4395 19.5 42.4395C19.5 42.4395 19.5 42.4395 19.5 42.4395C19.5 42.4395 19.5 42.4395 19.5 42.4395C19.5 42.4395 19.5 42.4395 19.5 42.4395C19.5 42.4395 19.5 42.4395 19.5 42.4395V42.4395V42.4395C19.5 42.4395 19.5 42.4395 19.5 42.4395C19.5 42.4395 19.5 42.4395 19.5 42.4395C19.5 42.4395 19.5 42.4395 19.5 42.4395C19.5 42.4395 19.5 42.4395 19.5 42.4395C19.5 42.4395 19.5 42.4395 19.5 42.4395V42.4395V42.4395C19.5 42.4395 19.5 42.4395 19.5 42.4395C19.5 42.4395 19.5 42.4395 19.5 42.4395C19.5 42.4395 19.5 42.4395 19.5 42.4395C19.5 42.4395 19.5 42.4395 19.5 42.4395V42.4395V42.4395V42.4395C19.5 42.4395 19.5 42.4395 19.5 42.4395C19.5 42.4395 19.5 42.4395 19.5 42.4395C19.5 42.4395 19.5 42.4395 19.5 42.4395C19.5 42.4395 19.5 42.4395 19.5 42.4395V42.4395V42.4395V42.4395C19.5 42.4395 19.5 42.4395 19.5 42.4395C19.5 42.4395 19.5 42.4395 19.5 42.4395C19.5 42.4395 19.5 42.4395 19.5 42.4395C19.5 42.4395 19.5 42.4395 19.5 42.4395V42.4395V42.4395V42.4395C19.5 42.4395 19.5 42.4395 19.5 42.4395C19.5 42.4395 19.5 42.4395 19.5 42.4395C19.5 42.4395 19.5 42.4395 19.5 42.4395C19.5 42.4395 19.5 42.4395 19.5 42.4395V42.4395V42.4395V42.4395C19.5 42.4395 19.5 42.4395 19.5 42.4395C19.5 42.4395 19.5 42.4395 19.5 42.4395C19.5 42.4395 19.5 42.4395 19.5 42.4395C19.5 42.4395 19.5 42.4395 19.5 42.4395V42.4395V42.4395C19.5 42.4395 19.5 42.4395 19.5 42.4395C19.5 42.4395 19.5 42.4395 19.5 42.4395C19.5 42.4394 19.5 42.4394 19.5 42.4394C19.5 42.4394 19.5 42.4394 19.5 42.4394C19.5 42.4394 19.5 42.4394 19.5 42.4394V42.4394V42.4394C19.5 42.4394 19.5 42.4394 19.5 42.4394C19.5 42.4394 19.5 42.4394 19.5 42.4394C19.5 42.4394 19.5 42.4394 19.5 42.4394C19.5 42.4394 19.5 42.4394 19.5 42.4394C19.5 42.4394 19.5 42.4394 19.5 42.4394V42.4394V42.4394C19.5 42.4394 19.5 42.4394 19.5 42.4394C19.5 42.4394 19.5 42.4394 19.5 42.4394C19.5 42.4394 19.5 42.4394 19.5 42.4394C19.5 42.4394 19.5 42.4394 19.5 42.4394C19.5 42.4394 19.5 42.4394 19.5 42.4394V42.4394V42.4394C19.5 42.4394 19.5 42.4394 19.5 42.4394C19.5 42.4394 19.5 42.4394 19.5 42.4394C19.5 42.4394 19.5 42.4394 19.5 42.4394C19.5 42.4394 19.5 42.4394 19.5 42.4394C19.5 42.4394 19.5 42.4394 19.5 42.4394V42.4394V42.4394C19.5 42.4394 19.5 42.4394 19.5 42.4394C19.5 42.4394 19.5 42.4394 19.5 42.4394C19.5 42.4394 19.5 42.4394 19.5 42.4394C19.5 42.4394 19.5 42.4394 19.5 42.4394C19.5 42.4394 19.5 42.4394 19.5 42.4394V42.4394V42.4394C19.5 42.4394 19.5 42.4394 19.5 42.4394C19.5 42.4394 19.5 42.4394 19.5 42.4394C19.5 42.4394 19.5 42.4394 19.5 42.4394C19.5 42.4394 19.5 42.4394 19.5 42.4394C19.5 42.4394 19.5 42.4394 19.5 42.4394V42.4394V42.4394C19.5 42.4394 19.5 42.4394 19.5 42.4394C19.5 42.4394 19.5 42.4394 19.5 42.4394C19.5 42.4394 19.5 42.4394 19.5 42.4394C19.5 42.4394 19.5 42.4394 19.5 42.4394V42.4394V42.4394V42.4394C19.5 42.4394 19.5 42.4394 19.5 42.4394C19.5 42.4394 19.5 42.4394 19.5 42.4394C19.5 42.4394 19.5 42.4394 19.5 42.4394C19.5 42.4394 19.5 42.4394 19.5 42.4394V42.4394V42.4394V42.4393C19.5 42.4393 19.5 42.4393 19.5 42.4393C19.5 42.4393 19.5 42.4393 19.5 42.4393C19.5 42.4393 19.5 42.4393 19.5 42.4393C19.5 42.4393 19.5 42.4393 19.5 42.4393V42.4393V42.4393C19.5 42.4393 19.5 42.4393 19.5 42.4393C19.5 42.4393 19.5 42.4393 19.5 42.4393C19.5 42.4393 19.5 42.4393 19.5 42.4393C19.5 42.4393 19.5 42.4393 19.5 42.4393C19.5 42.4393 19.5 42.4393 19.5 42.4393V42.4393V42.4393C19.5 42.4393 19.5 42.4393 19.5 42.4393C19.5 42.4393 19.5 42.4393 19.5 42.4393C19.5 42.4393 19.5 42.4393 19.5 42.4393C19.5 42.4393 19.5 42.4393 19.5 42.4393C19.5 42.4393 19.5 42.4393 19.5 42.4393V42.4393V42.4393C19.5 42.4393 19.5 42.4393 19.5 42.4393C19.5 42.4393 19.5 42.4393 19.5 42.4393C19.5 42.4393 19.5 42.4393 19.5 42.4393C19.5 42.4393 19.5 42.4393 19.5 42.4393C19.5 42.4393 19.5 42.4393 19.5 42.4393V42.4393V42.4393C19.5 42.4393 19.5 42.4393 19.5 42.4393C19.5 42.4393 19.5 42.4393 19.5 42.4393C19.5 42.4393 19.5 42.4393 19.5 42.4393C19.5 42.4393 19.5 42.4393 19.5 42.4393C19.5 42.4393 19.5 42.4393 19.5 42.4393V42.4393V42.4393C19.5 42.4393 19.5 42.4393 19.5 42.4393C19.5 42.4393 19.5 42.4393 19.5 42.4393C19.5 42.4393 19.5 42.4393 19.5 42.4393C19.5 42.4393 19.5 42.4393 19.5 42.4393C19.5 42.4393 19.5 42.4393 19.5 42.4393V42.4393V42.4393C19.5 42.4393 19.5 42.4393 19.5 42.4393C19.5 42.4393 19.5 42.4393 19.5 42.4393C19.5 42.4393 19.5 42.4393 19.5 42.4393C19.5 42.4393 19.5 42.4393 19.5 42.4393C19.5 42.4393 19.5 42.4393 19.5 42.4393V42.4393V42.4393C19.5 42.4393 19.5 42.4393 19.5 42.4393C19.5 42.4393 19.5 42.4393 19.5 42.4393C19.5 42.4393 19.5 42.4393 19.5 42.4393C19.5 42.4393 19.5 42.4393 19.5 42.4392V42.4392V42.4392V42.4392C19.5 42.4392 19.5 42.4392 19.5 42.4392C19.5 42.4392 19.5 42.4392 19.5 42.4392C19.5 42.4392 19.5 42.4392 19.5 42.4392C19.5 42.4392 19.5 42.4392 19.5 42.4392V42.4392V42.4392V42.4392C19.5 42.4392 19.5 42.4392 19.5 42.4392C19.5 42.4392 19.5 42.4392 19.5 42.4392H16.5C16.5 42.4392 16.5 42.4392 16.5 42.4392C16.5 42.4392 16.5 42.4392 16.5 42.4392V42.4392V42.4392V42.4392C16.5 42.4392 16.5 42.4392 16.5 42.4392C16.5 42.4392 16.5 42.4392 16.5 42.4392C16.5 42.4392 16.5 42.4392 16.5 42.4392C16.5 42.4392 16.5 42.4392 16.5 42.4392V42.4392V42.4392V42.4392C16.5 42.4393 16.5 42.4393 16.5 42.4393C16.5 42.4393 16.5 42.4393 16.5 42.4393C16.5 42.4393 16.5 42.4393 16.5 42.4393C16.5 42.4393 16.5 42.4393 16.5 42.4393V42.4393V42.4393C16.5 42.4393 16.5 42.4393 16.5 42.4393C16.5 42.4393 16.5 42.4393 16.5 42.4393C16.5 42.4393 16.5 42.4393 16.5 42.4393C16.5 42.4393 16.5 42.4393 16.5 42.4393C16.5 42.4393 16.5 42.4393 16.5 42.4393V42.4393V42.4393C16.5 42.4393 16.5 42.4393 16.5 42.4393C16.5 42.4393 16.5 42.4393 16.5 42.4393C16.5 42.4393 16.5 42.4393 16.5 42.4393C16.5 42.4393 16.5 42.4393 16.5 42.4393C16.5 42.4393 16.5 42.4393 16.5 42.4393V42.4393V42.4393C16.5 42.4393 16.5 42.4393 16.5 42.4393C16.5 42.4393 16.5 42.4393 16.5 42.4393C16.5 42.4393 16.5 42.4393 16.5 42.4393C16.5 42.4393 16.5 42.4393 16.5 42.4393C16.5 42.4393 16.5 42.4393 16.5 42.4393V42.4393V42.4393C16.5 42.4393 16.5 42.4393 16.5 42.4393C16.5 42.4393 16.5 42.4393 16.5 42.4393C16.5 42.4393 16.5 42.4393 16.5 42.4393C16.5 42.4393 16.5 42.4393 16.5 42.4393C16.5 42.4393 16.5 42.4393 16.5 42.4393V42.4393V42.4393C16.5 42.4393 16.5 42.4393 16.5 42.4393C16.5 42.4393 16.5 42.4393 16.5 42.4393C16.5 42.4393 16.5 42.4393 16.5 42.4393C16.5 42.4393 16.5 42.4393 16.5 42.4393C16.5 42.4393 16.5 42.4393 16.5 42.4393V42.4393V42.4393C16.5 42.4393 16.5 42.4393 16.5 42.4393C16.5 42.4393 16.5 42.4393 16.5 42.4393C16.5 42.4393 16.5 42.4393 16.5 42.4393C16.5 42.4393 16.5 42.4393 16.5 42.4393C16.5 42.4393 16.5 42.4393 16.5 42.4393V42.4393V42.4393C16.5 42.4393 16.5 42.4393 16.5 42.4393C16.5 42.4393 16.5 42.4393 16.5 42.4393C16.5 42.4393 16.5 42.4393 16.5 42.4393C16.5 42.4393 16.5 42.4393 16.5 42.4393V42.4394V42.4394V42.4394C16.5 42.4394 16.5 42.4394 16.5 42.4394C16.5 42.4394 16.5 42.4394 16.5 42.4394C16.5 42.4394 16.5 42.4394 16.5 42.4394C16.5 42.4394 16.5 42.4394 16.5 42.4394V42.4394V42.4394V42.4394C16.5 42.4394 16.5 42.4394 16.5 42.4394C16.5 42.4394 16.5 42.4394 16.5 42.4394C16.5 42.4394 16.5 42.4394 16.5 42.4394C16.5 42.4394 16.5 42.4394 16.5 42.4394V42.4394V42.4394C16.5 42.4394 16.5 42.4394 16.5 42.4394C16.5 42.4394 16.5 42.4394 16.5 42.4394C16.5 42.4394 16.5 42.4394 16.5 42.4394C16.5 42.4394 16.5 42.4394 16.5 42.4394C16.5 42.4394 16.5 42.4394 16.5 42.4394V42.4394V42.4394C16.5 42.4394 16.5 42.4394 16.5 42.4394C16.5 42.4394 16.5 42.4394 16.5 42.4394C16.5 42.4394 16.5 42.4394 16.5 42.4394C16.5 42.4394 16.5 42.4394 16.5 42.4394C16.5 42.4394 16.5 42.4394 16.5 42.4394V42.4394V42.4394C16.5 42.4394 16.5 42.4394 16.5 42.4394C16.5 42.4394 16.5 42.4394 16.5 42.4394C16.5 42.4394 16.5 42.4394 16.5 42.4394C16.5 42.4394 16.5 42.4394 16.5 42.4394C16.5 42.4394 16.5 42.4394 16.5 42.4394V42.4394V42.4394C16.5 42.4394 16.5 42.4394 16.5 42.4394C16.5 42.4394 16.5 42.4394 16.5 42.4394C16.5 42.4394 16.5 42.4394 16.5 42.4394C16.5 42.4394 16.5 42.4394 16.5 42.4394C16.5 42.4394 16.5 42.4394 16.5 42.4394V42.4394V42.4394C16.5 42.4394 16.5 42.4394 16.5 42.4394C16.5 42.4394 16.5 42.4394 16.5 42.4394C16.5 42.4394 16.5 42.4394 16.5 42.4394C16.5 42.4394 16.5 42.4394 16.5 42.4394C16.5 42.4394 16.5 42.4394 16.5 42.4394V42.4394V42.4394C16.5 42.4394 16.5 42.4394 16.5 42.4394C16.5 42.4394 16.5 42.4394 16.5 42.4394C16.5 42.4394 16.5 42.4394 16.5 42.4395C16.5 42.4395 16.5 42.4395 16.5 42.4395C16.5 42.4395 16.5 42.4395 16.5 42.4395V42.4395V42.4395C16.5 42.4395 16.5 42.4395 16.5 42.4395C16.5 42.4395 16.5 42.4395 16.5 42.4395C16.5 42.4395 16.5 42.4395 16.5 42.4395C16.5 42.4395 16.5 42.4395 16.5 42.4395V42.4395V42.4395V42.4395C16.5 42.4395 16.5 42.4395 16.5 42.4395C16.5 42.4395 16.5 42.4395 16.5 42.4395C16.5 42.4395 16.5 42.4395 16.5 42.4395C16.5 42.4395 16.5 42.4395 16.5 42.4395V42.4395V42.4395V42.4395C16.5 42.4395 16.5 42.4395 16.5 42.4395C16.5 42.4395 16.5 42.4395 16.5 42.4395C16.5 42.4395 16.5 42.4395 16.5 42.4395C16.5 42.4395 16.5 42.4395 16.5 42.4395V42.4395V42.4395V42.4395C16.5 42.4395 16.5 42.4395 16.5 42.4395C16.5 42.4395 16.5 42.4395 16.5 42.4395C16.5 42.4395 16.5 42.4395 16.5 42.4395C16.5 42.4395 16.5 42.4395 16.5 42.4395V42.4395V42.4395V42.4395C16.5 42.4395 16.5 42.4395 16.5 42.4395C16.5 42.4395 16.5 42.4395 16.5 42.4395C16.5 42.4395 16.5 42.4395 16.5 42.4395C16.5 42.4395 16.5 42.4395 16.5 42.4395V42.4395V42.4395C16.5 42.4395 16.5 42.4395 16.5 42.4395C16.5 42.4395 16.5 42.4395 16.5 42.4395C16.5 42.4395 16.5 42.4395 16.5 42.4395C16.5 42.4395 16.5 42.4395 16.5 42.4395C16.5 42.4395 16.5 42.4395 16.5 42.4395V42.4395V42.4395C16.5 42.4395 16.5 42.4395 16.5 42.4395C16.5 42.4395 16.5 42.4395 16.5 42.4395C16.5 42.4395 16.5 42.4395 16.5 42.4395C16.5 42.4395 16.5 42.4395 16.5 42.4395C16.5 42.4395 16.5 42.4395 16.5 42.4395V42.4395V42.4396C16.5 42.4396 16.5 42.4396 16.5 42.4396C16.5 42.4396 16.5 42.4396 16.5 42.4396C16.5 42.4396 16.5 42.4396 16.5 42.4396C16.5 42.4396 16.5 42.4396 16.5 42.4396C16.5 42.4396 16.5 42.4396 16.5 42.4396V42.4396V42.4396C16.5 42.4396 16.5 42.4396 16.5 42.4396C16.5 42.4396 16.5 42.4396 16.5 42.4396C16.5 42.4396 16.5 42.4396 16.5 42.4396C16.5 42.4396 16.5 42.4396 16.5 42.4396C16.5 42.4396 16.5 42.4396 16.5 42.4396V42.4396V42.4396C16.5 42.4396 16.5 42.4396 16.5 42.4396C16.5 42.4396 16.5 42.4396 16.5 42.4396C16.5 42.4396 16.5 42.4396 16.5 42.4396C16.5 42.4396 16.5 42.4396 16.5 42.4396C16.5 42.4396 16.5 42.4396 16.5 42.4396V42.4396V42.4396C16.5 42.4396 16.5 42.4396 16.5 42.4396C16.5 42.4396 16.5 42.4396 16.5 42.4396C16.5 42.4396 16.5 42.4396 16.5 42.4396C16.5 42.4396 16.5 42.4396 16.5 42.4396C16.5 42.4396 16.5 42.4396 16.5 42.4396V42.4396V42.4396C16.5 42.4396 16.5 42.4396 16.5 42.4396C16.5 42.4396 16.5 42.4396 16.5 42.4396C16.5 42.4396 16.5 42.4396 16.5 42.4396C16.5 42.4396 16.5 42.4396 16.5 42.4396V42.4396V42.4396V42.4396C16.5 42.4396 16.5 42.4396 16.5 42.4396C16.5 42.4396 16.5 42.4396 16.5 42.4396C16.5 42.4396 16.5 42.4396 16.5 42.4396C16.5 42.4396 16.5 42.4396 16.5 42.4396V42.4396V42.4396V42.4396C16.5 42.4396 16.5 42.4396 16.5 42.4396C16.5 42.4396 16.5 42.4396 16.5 42.4396C16.5 42.4396 16.5 42.4396 16.5 42.4396C16.5 42.4396 16.5 42.4396 16.5 42.4396V42.4396V42.4396C16.5 42.4396 16.5 42.4396 16.5 42.4396C16.5 42.4396 16.5 42.4396 16.5 42.4396C16.5 42.4396 16.5 42.4396 16.5 42.4396C16.5 42.4396 16.5 42.4396 16.5 42.4396C16.5 42.4396 16.5 42.4396 16.5 42.4397V42.4397V42.4397C16.5 42.4397 16.5 42.4397 16.5 42.4397C16.5 42.4397 16.5 42.4397 16.5 42.4397C16.5 42.4397 16.5 42.4397 16.5 42.4397C16.5 42.4397 16.5 42.4397 16.5 42.4397C16.5 42.4397 16.5 42.4397 16.5 42.4397V42.4397V42.4397C16.5 42.4397 16.5 42.4397 16.5 42.4397C16.5 42.4397 16.5 42.4397 16.5 42.4397C16.5 42.4397 16.5 42.4397 16.5 42.4397C16.5 42.4397 16.5 42.4397 16.5 42.4397C16.5 42.4397 16.5 42.4397 16.5 42.4397V42.4397V42.4397C16.5 42.4397 16.5 42.4397 16.5 42.4397C16.5 42.4397 16.5 42.4397 16.5 42.4397C16.5 42.4397 16.5 42.4397 16.5 42.4397C16.5 42.4397 16.5 42.4397 16.5 42.4397C16.5 42.4397 16.5 42.4397 16.5 42.4397V42.4397V42.4397C16.5 42.4397 16.5 42.4397 16.5 42.4397C16.5 42.4397 16.5 42.4397 16.5 42.4397C16.5 42.4397 16.5 42.4397 16.5 42.4397C16.5 42.4397 16.5 42.4397 16.5 42.4397C16.5 42.4397 16.5 42.4397 16.5 42.4397V42.4397V42.4397C16.5 42.4397 16.5 42.4397 16.5 42.4397C16.5 42.4397 16.5 42.4397 16.5 42.4397C16.5 42.4397 16.5 42.4397 16.5 42.4397C16.5 42.4397 16.5 42.4397 16.5 42.4397C16.5 42.4397 16.5 42.4397 16.5 42.4397V42.4397V42.4397C16.5 42.4397 16.5 42.4397 16.5 42.4397C16.5 42.4397 16.5 42.4397 16.5 42.4397C16.5 42.4397 16.5 42.4397 16.5 42.4397C16.5 42.4397 16.5 42.4397 16.5 42.4397V42.4397V42.4397V42.4397C16.5 42.4397 16.5 42.4397 16.5 42.4397C16.5 42.4397 16.5 42.4397 16.5 42.4397C16.5 42.4397 16.5 42.4397 16.5 42.4397C16.5 42.4397 16.5 42.4397 16.5 42.4397V42.4397V42.4397V42.4397C16.5 42.4398 16.5 42.4398 16.5 42.4398C16.5 42.4398 16.5 42.4398 16.5 42.4398H19.5ZM31 47.5006C27.5945 47.5006 24.5856 46.8008 22.4834 45.7398C20.2955 44.6356 19.5 43.3846 19.5 42.4398H16.5C16.5 45.1184 18.6146 47.1477 21.1318 48.4181C23.7347 49.7317 27.2258 50.5006 31 50.5006V47.5006ZM35.7719 47.0127C34.3175 47.3252 32.704 47.5006 31 47.5006V50.5006C32.9065 50.5006 34.7316 50.3046 36.402 49.9458L35.7719 47.0127ZM42.5 42.4398C42.5 43.1453 42.0772 44.0114 40.8888 44.9013C39.7128 45.7818 37.9533 46.5442 35.7719 47.0127L36.402 49.9458C38.8722 49.4152 41.0692 48.514 42.6869 47.3027C44.2921 46.1007 45.5 44.4466 45.5 42.4398H42.5ZM42.5 42.4392C42.5 42.4392 42.5 42.4392 42.5 42.4392C42.5 42.4392 42.5 42.4392 42.5 42.4392V42.4392V42.4392V42.4392C42.5 42.4392 42.5 42.4392 42.5 42.4392C42.5 42.4392 42.5 42.4392 42.5 42.4392C42.5 42.4392 42.5 42.4392 42.5 42.4392C42.5 42.4392 42.5 42.4392 42.5 42.4392V42.4392V42.4392V42.4392C42.5 42.4393 42.5 42.4393 42.5 42.4393C42.5 42.4393 42.5 42.4393 42.5 42.4393C42.5 42.4393 42.5 42.4393 42.5 42.4393C42.5 42.4393 42.5 42.4393 42.5 42.4393V42.4393V42.4393C42.5 42.4393 42.5 42.4393 42.5 42.4393C42.5 42.4393 42.5 42.4393 42.5 42.4393C42.5 42.4393 42.5 42.4393 42.5 42.4393C42.5 42.4393 42.5 42.4393 42.5 42.4393C42.5 42.4393 42.5 42.4393 42.5 42.4393V42.4393V42.4393C42.5 42.4393 42.5 42.4393 42.5 42.4393C42.5 42.4393 42.5 42.4393 42.5 42.4393C42.5 42.4393 42.5 42.4393 42.5 42.4393C42.5 42.4393 42.5 42.4393 42.5 42.4393C42.5 42.4393 42.5 42.4393 42.5 42.4393V42.4393V42.4393C42.5 42.4393 42.5 42.4393 42.5 42.4393C42.5 42.4393 42.5 42.4393 42.5 42.4393C42.5 42.4393 42.5 42.4393 42.5 42.4393C42.5 42.4393 42.5 42.4393 42.5 42.4393C42.5 42.4393 42.5 42.4393 42.5 42.4393V42.4393V42.4393C42.5 42.4393 42.5 42.4393 42.5 42.4393C42.5 42.4393 42.5 42.4393 42.5 42.4393C42.5 42.4393 42.5 42.4393 42.5 42.4393C42.5 42.4393 42.5 42.4393 42.5 42.4393C42.5 42.4393 42.5 42.4393 42.5 42.4393V42.4393V42.4393C42.5 42.4393 42.5 42.4393 42.5 42.4393C42.5 42.4393 42.5 42.4393 42.5 42.4393C42.5 42.4393 42.5 42.4393 42.5 42.4393C42.5 42.4393 42.5 42.4393 42.5 42.4393C42.5 42.4393 42.5 42.4393 42.5 42.4393V42.4393V42.4393C42.5 42.4393 42.5 42.4393 42.5 42.4393C42.5 42.4393 42.5 42.4393 42.5 42.4393C42.5 42.4393 42.5 42.4393 42.5 42.4393C42.5 42.4393 42.5 42.4393 42.5 42.4393C42.5 42.4393 42.5 42.4393 42.5 42.4393V42.4393V42.4393C42.5 42.4393 42.5 42.4393 42.5 42.4393C42.5 42.4393 42.5 42.4393 42.5 42.4393C42.5 42.4393 42.5 42.4393 42.5 42.4393C42.5 42.4393 42.5 42.4393 42.5 42.4393V42.4394V42.4394V42.4394C42.5 42.4394 42.5 42.4394 42.5 42.4394C42.5 42.4394 42.5 42.4394 42.5 42.4394C42.5 42.4394 42.5 42.4394 42.5 42.4394C42.5 42.4394 42.5 42.4394 42.5 42.4394V42.4394V42.4394V42.4394C42.5 42.4394 42.5 42.4394 42.5 42.4394C42.5 42.4394 42.5 42.4394 42.5 42.4394C42.5 42.4394 42.5 42.4394 42.5 42.4394C42.5 42.4394 42.5 42.4394 42.5 42.4394V42.4394V42.4394C42.5 42.4394 42.5 42.4394 42.5 42.4394C42.5 42.4394 42.5 42.4394 42.5 42.4394C42.5 42.4394 42.5 42.4394 42.5 42.4394C42.5 42.4394 42.5 42.4394 42.5 42.4394C42.5 42.4394 42.5 42.4394 42.5 42.4394V42.4394V42.4394C42.5 42.4394 42.5 42.4394 42.5 42.4394C42.5 42.4394 42.5 42.4394 42.5 42.4394C42.5 42.4394 42.5 42.4394 42.5 42.4394C42.5 42.4394 42.5 42.4394 42.5 42.4394C42.5 42.4394 42.5 42.4394 42.5 42.4394V42.4394V42.4394C42.5 42.4394 42.5 42.4394 42.5 42.4394C42.5 42.4394 42.5 42.4394 42.5 42.4394C42.5 42.4394 42.5 42.4394 42.5 42.4394C42.5 42.4394 42.5 42.4394 42.5 42.4394C42.5 42.4394 42.5 42.4394 42.5 42.4394V42.4394V42.4394C42.5 42.4394 42.5 42.4394 42.5 42.4394C42.5 42.4394 42.5 42.4394 42.5 42.4394C42.5 42.4394 42.5 42.4394 42.5 42.4394C42.5 42.4394 42.5 42.4394 42.5 42.4394C42.5 42.4394 42.5 42.4394 42.5 42.4394V42.4394V42.4394C42.5 42.4394 42.5 42.4394 42.5 42.4394C42.5 42.4394 42.5 42.4394 42.5 42.4394C42.5 42.4394 42.5 42.4394 42.5 42.4394C42.5 42.4394 42.5 42.4394 42.5 42.4394C42.5 42.4394 42.5 42.4394 42.5 42.4394V42.4394V42.4394C42.5 42.4394 42.5 42.4394 42.5 42.4394C42.5 42.4394 42.5 42.4394 42.5 42.4394C42.5 42.4394 42.5 42.4394 42.5 42.4395C42.5 42.4395 42.5 42.4395 42.5 42.4395C42.5 42.4395 42.5 42.4395 42.5 42.4395V42.4395V42.4395C42.5 42.4395 42.5 42.4395 42.5 42.4395C42.5 42.4395 42.5 42.4395 42.5 42.4395C42.5 42.4395 42.5 42.4395 42.5 42.4395C42.5 42.4395 42.5 42.4395 42.5 42.4395V42.4395V42.4395V42.4395C42.5 42.4395 42.5 42.4395 42.5 42.4395C42.5 42.4395 42.5 42.4395 42.5 42.4395C42.5 42.4395 42.5 42.4395 42.5 42.4395C42.5 42.4395 42.5 42.4395 42.5 42.4395V42.4395V42.4395V42.4395C42.5 42.4395 42.5 42.4395 42.5 42.4395C42.5 42.4395 42.5 42.4395 42.5 42.4395C42.5 42.4395 42.5 42.4395 42.5 42.4395C42.5 42.4395 42.5 42.4395 42.5 42.4395V42.4395V42.4395V42.4395C42.5 42.4395 42.5 42.4395 42.5 42.4395C42.5 42.4395 42.5 42.4395 42.5 42.4395C42.5 42.4395 42.5 42.4395 42.5 42.4395C42.5 42.4395 42.5 42.4395 42.5 42.4395V42.4395V42.4395V42.4395C42.5 42.4395 42.5 42.4395 42.5 42.4395C42.5 42.4395 42.5 42.4395 42.5 42.4395C42.5 42.4395 42.5 42.4395 42.5 42.4395C42.5 42.4395 42.5 42.4395 42.5 42.4395V42.4395V42.4395C42.5 42.4395 42.5 42.4395 42.5 42.4395C42.5 42.4395 42.5 42.4395 42.5 42.4395C42.5 42.4395 42.5 42.4395 42.5 42.4395C42.5 42.4395 42.5 42.4395 42.5 42.4395C42.5 42.4395 42.5 42.4395 42.5 42.4395V42.4395V42.4395C42.5 42.4395 42.5 42.4395 42.5 42.4395C42.5 42.4395 42.5 42.4395 42.5 42.4395C42.5 42.4395 42.5 42.4395 42.5 42.4395C42.5 42.4395 42.5 42.4395 42.5 42.4395C42.5 42.4395 42.5 42.4395 42.5 42.4395V42.4395V42.4396C42.5 42.4396 42.5 42.4396 42.5 42.4396C42.5 42.4396 42.5 42.4396 42.5 42.4396C42.5 42.4396 42.5 42.4396 42.5 42.4396C42.5 42.4396 42.5 42.4396 42.5 42.4396C42.5 42.4396 42.5 42.4396 42.5 42.4396V42.4396V42.4396C42.5 42.4396 42.5 42.4396 42.5 42.4396C42.5 42.4396 42.5 42.4396 42.5 42.4396C42.5 42.4396 42.5 42.4396 42.5 42.4396C42.5 42.4396 42.5 42.4396 42.5 42.4396C42.5 42.4396 42.5 42.4396 42.5 42.4396V42.4396V42.4396C42.5 42.4396 42.5 42.4396 42.5 42.4396C42.5 42.4396 42.5 42.4396 42.5 42.4396C42.5 42.4396 42.5 42.4396 42.5 42.4396C42.5 42.4396 42.5 42.4396 42.5 42.4396C42.5 42.4396 42.5 42.4396 42.5 42.4396V42.4396V42.4396C42.5 42.4396 42.5 42.4396 42.5 42.4396C42.5 42.4396 42.5 42.4396 42.5 42.4396C42.5 42.4396 42.5 42.4396 42.5 42.4396C42.5 42.4396 42.5 42.4396 42.5 42.4396C42.5 42.4396 42.5 42.4396 42.5 42.4396V42.4396V42.4396C42.5 42.4396 42.5 42.4396 42.5 42.4396C42.5 42.4396 42.5 42.4396 42.5 42.4396C42.5 42.4396 42.5 42.4396 42.5 42.4396C42.5 42.4396 42.5 42.4396 42.5 42.4396V42.4396V42.4396V42.4396C42.5 42.4396 42.5 42.4396 42.5 42.4396C42.5 42.4396 42.5 42.4396 42.5 42.4396C42.5 42.4396 42.5 42.4396 42.5 42.4396C42.5 42.4396 42.5 42.4396 42.5 42.4396V42.4396V42.4396V42.4396C42.5 42.4396 42.5 42.4396 42.5 42.4396C42.5 42.4396 42.5 42.4396 42.5 42.4396C42.5 42.4396 42.5 42.4396 42.5 42.4396C42.5 42.4396 42.5 42.4396 42.5 42.4396V42.4396V42.4396C42.5 42.4396 42.5 42.4396 42.5 42.4396C42.5 42.4396 42.5 42.4396 42.5 42.4396C42.5 42.4396 42.5 42.4396 42.5 42.4396C42.5 42.4396 42.5 42.4396 42.5 42.4396C42.5 42.4396 42.5 42.4396 42.5 42.4397V42.4397V42.4397C42.5 42.4397 42.5 42.4397 42.5 42.4397C42.5 42.4397 42.5 42.4397 42.5 42.4397C42.5 42.4397 42.5 42.4397 42.5 42.4397C42.5 42.4397 42.5 42.4397 42.5 42.4397C42.5 42.4397 42.5 42.4397 42.5 42.4397V42.4397V42.4397C42.5 42.4397 42.5 42.4397 42.5 42.4397C42.5 42.4397 42.5 42.4397 42.5 42.4397C42.5 42.4397 42.5 42.4397 42.5 42.4397C42.5 42.4397 42.5 42.4397 42.5 42.4397C42.5 42.4397 42.5 42.4397 42.5 42.4397V42.4397V42.4397C42.5 42.4397 42.5 42.4397 42.5 42.4397C42.5 42.4397 42.5 42.4397 42.5 42.4397C42.5 42.4397 42.5 42.4397 42.5 42.4397C42.5 42.4397 42.5 42.4397 42.5 42.4397C42.5 42.4397 42.5 42.4397 42.5 42.4397V42.4397V42.4397C42.5 42.4397 42.5 42.4397 42.5 42.4397C42.5 42.4397 42.5 42.4397 42.5 42.4397C42.5 42.4397 42.5 42.4397 42.5 42.4397C42.5 42.4397 42.5 42.4397 42.5 42.4397C42.5 42.4397 42.5 42.4397 42.5 42.4397V42.4397V42.4397C42.5 42.4397 42.5 42.4397 42.5 42.4397C42.5 42.4397 42.5 42.4397 42.5 42.4397C42.5 42.4397 42.5 42.4397 42.5 42.4397C42.5 42.4397 42.5 42.4397 42.5 42.4397C42.5 42.4397 42.5 42.4397 42.5 42.4397V42.4397V42.4397C42.5 42.4397 42.5 42.4397 42.5 42.4397C42.5 42.4397 42.5 42.4397 42.5 42.4397C42.5 42.4397 42.5 42.4397 42.5 42.4397C42.5 42.4397 42.5 42.4397 42.5 42.4397V42.4397V42.4397V42.4397C42.5 42.4397 42.5 42.4397 42.5 42.4397C42.5 42.4397 42.5 42.4397 42.5 42.4397C42.5 42.4397 42.5 42.4397 42.5 42.4397C42.5 42.4397 42.5 42.4397 42.5 42.4397V42.4397V42.4397V42.4397C42.5 42.4398 42.5 42.4398 42.5 42.4398C42.5 42.4398 42.5 42.4398 42.5 42.4398H45.5C45.5 42.4398 45.5 42.4398 45.5 42.4398C45.5 42.4398 45.5 42.4398 45.5 42.4397V42.4397V42.4397V42.4397C45.5 42.4397 45.5 42.4397 45.5 42.4397C45.5 42.4397 45.5 42.4397 45.5 42.4397C45.5 42.4397 45.5 42.4397 45.5 42.4397C45.5 42.4397 45.5 42.4397 45.5 42.4397V42.4397V42.4397V42.4397C45.5 42.4397 45.5 42.4397 45.5 42.4397C45.5 42.4397 45.5 42.4397 45.5 42.4397C45.5 42.4397 45.5 42.4397 45.5 42.4397C45.5 42.4397 45.5 42.4397 45.5 42.4397V42.4397V42.4397C45.5 42.4397 45.5 42.4397 45.5 42.4397C45.5 42.4397 45.5 42.4397 45.5 42.4397C45.5 42.4397 45.5 42.4397 45.5 42.4397C45.5 42.4397 45.5 42.4397 45.5 42.4397C45.5 42.4397 45.5 42.4397 45.5 42.4397V42.4397V42.4397C45.5 42.4397 45.5 42.4397 45.5 42.4397C45.5 42.4397 45.5 42.4397 45.5 42.4397C45.5 42.4397 45.5 42.4397 45.5 42.4397C45.5 42.4397 45.5 42.4397 45.5 42.4397C45.5 42.4397 45.5 42.4397 45.5 42.4397V42.4397V42.4397C45.5 42.4397 45.5 42.4397 45.5 42.4397C45.5 42.4397 45.5 42.4397 45.5 42.4397C45.5 42.4397 45.5 42.4397 45.5 42.4397C45.5 42.4397 45.5 42.4397 45.5 42.4397C45.5 42.4397 45.5 42.4397 45.5 42.4397V42.4397V42.4397C45.5 42.4397 45.5 42.4397 45.5 42.4397C45.5 42.4397 45.5 42.4397 45.5 42.4397C45.5 42.4397 45.5 42.4397 45.5 42.4397C45.5 42.4397 45.5 42.4397 45.5 42.4397C45.5 42.4397 45.5 42.4397 45.5 42.4397V42.4397V42.4397C45.5 42.4397 45.5 42.4397 45.5 42.4397C45.5 42.4397 45.5 42.4397 45.5 42.4397C45.5 42.4397 45.5 42.4397 45.5 42.4397C45.5 42.4397 45.5 42.4397 45.5 42.4397C45.5 42.4397 45.5 42.4397 45.5 42.4397V42.4397V42.4397C45.5 42.4396 45.5 42.4396 45.5 42.4396C45.5 42.4396 45.5 42.4396 45.5 42.4396C45.5 42.4396 45.5 42.4396 45.5 42.4396C45.5 42.4396 45.5 42.4396 45.5 42.4396C45.5 42.4396 45.5 42.4396 45.5 42.4396V42.4396V42.4396C45.5 42.4396 45.5 42.4396 45.5 42.4396C45.5 42.4396 45.5 42.4396 45.5 42.4396C45.5 42.4396 45.5 42.4396 45.5 42.4396C45.5 42.4396 45.5 42.4396 45.5 42.4396V42.4396V42.4396V42.4396C45.5 42.4396 45.5 42.4396 45.5 42.4396C45.5 42.4396 45.5 42.4396 45.5 42.4396C45.5 42.4396 45.5 42.4396 45.5 42.4396C45.5 42.4396 45.5 42.4396 45.5 42.4396V42.4396V42.4396V42.4396C45.5 42.4396 45.5 42.4396 45.5 42.4396C45.5 42.4396 45.5 42.4396 45.5 42.4396C45.5 42.4396 45.5 42.4396 45.5 42.4396C45.5 42.4396 45.5 42.4396 45.5 42.4396V42.4396V42.4396C45.5 42.4396 45.5 42.4396 45.5 42.4396C45.5 42.4396 45.5 42.4396 45.5 42.4396C45.5 42.4396 45.5 42.4396 45.5 42.4396C45.5 42.4396 45.5 42.4396 45.5 42.4396C45.5 42.4396 45.5 42.4396 45.5 42.4396V42.4396V42.4396C45.5 42.4396 45.5 42.4396 45.5 42.4396C45.5 42.4396 45.5 42.4396 45.5 42.4396C45.5 42.4396 45.5 42.4396 45.5 42.4396C45.5 42.4396 45.5 42.4396 45.5 42.4396C45.5 42.4396 45.5 42.4396 45.5 42.4396V42.4396V42.4396C45.5 42.4396 45.5 42.4396 45.5 42.4396C45.5 42.4396 45.5 42.4396 45.5 42.4396C45.5 42.4396 45.5 42.4396 45.5 42.4396C45.5 42.4396 45.5 42.4396 45.5 42.4396C45.5 42.4396 45.5 42.4396 45.5 42.4396V42.4396V42.4396C45.5 42.4396 45.5 42.4396 45.5 42.4396C45.5 42.4396 45.5 42.4396 45.5 42.4396C45.5 42.4396 45.5 42.4396 45.5 42.4396C45.5 42.4396 45.5 42.4396 45.5 42.4396C45.5 42.4396 45.5 42.4396 45.5 42.4396V42.4395V42.4395C45.5 42.4395 45.5 42.4395 45.5 42.4395C45.5 42.4395 45.5 42.4395 45.5 42.4395C45.5 42.4395 45.5 42.4395 45.5 42.4395C45.5 42.4395 45.5 42.4395 45.5 42.4395C45.5 42.4395 45.5 42.4395 45.5 42.4395V42.4395V42.4395C45.5 42.4395 45.5 42.4395 45.5 42.4395C45.5 42.4395 45.5 42.4395 45.5 42.4395C45.5 42.4395 45.5 42.4395 45.5 42.4395C45.5 42.4395 45.5 42.4395 45.5 42.4395C45.5 42.4395 45.5 42.4395 45.5 42.4395V42.4395V42.4395C45.5 42.4395 45.5 42.4395 45.5 42.4395C45.5 42.4395 45.5 42.4395 45.5 42.4395C45.5 42.4395 45.5 42.4395 45.5 42.4395C45.5 42.4395 45.5 42.4395 45.5 42.4395V42.4395V42.4395V42.4395C45.5 42.4395 45.5 42.4395 45.5 42.4395C45.5 42.4395 45.5 42.4395 45.5 42.4395C45.5 42.4395 45.5 42.4395 45.5 42.4395C45.5 42.4395 45.5 42.4395 45.5 42.4395V42.4395V42.4395V42.4395C45.5 42.4395 45.5 42.4395 45.5 42.4395C45.5 42.4395 45.5 42.4395 45.5 42.4395C45.5 42.4395 45.5 42.4395 45.5 42.4395C45.5 42.4395 45.5 42.4395 45.5 42.4395V42.4395V42.4395V42.4395C45.5 42.4395 45.5 42.4395 45.5 42.4395C45.5 42.4395 45.5 42.4395 45.5 42.4395C45.5 42.4395 45.5 42.4395 45.5 42.4395C45.5 42.4395 45.5 42.4395 45.5 42.4395V42.4395V42.4395V42.4395C45.5 42.4395 45.5 42.4395 45.5 42.4395C45.5 42.4395 45.5 42.4395 45.5 42.4395C45.5 42.4395 45.5 42.4395 45.5 42.4395C45.5 42.4395 45.5 42.4395 45.5 42.4395V42.4395V42.4395C45.5 42.4395 45.5 42.4395 45.5 42.4395C45.5 42.4395 45.5 42.4395 45.5 42.4395C45.5 42.4394 45.5 42.4394 45.5 42.4394C45.5 42.4394 45.5 42.4394 45.5 42.4394C45.5 42.4394 45.5 42.4394 45.5 42.4394V42.4394V42.4394C45.5 42.4394 45.5 42.4394 45.5 42.4394C45.5 42.4394 45.5 42.4394 45.5 42.4394C45.5 42.4394 45.5 42.4394 45.5 42.4394C45.5 42.4394 45.5 42.4394 45.5 42.4394C45.5 42.4394 45.5 42.4394 45.5 42.4394V42.4394V42.4394C45.5 42.4394 45.5 42.4394 45.5 42.4394C45.5 42.4394 45.5 42.4394 45.5 42.4394C45.5 42.4394 45.5 42.4394 45.5 42.4394C45.5 42.4394 45.5 42.4394 45.5 42.4394C45.5 42.4394 45.5 42.4394 45.5 42.4394V42.4394V42.4394C45.5 42.4394 45.5 42.4394 45.5 42.4394C45.5 42.4394 45.5 42.4394 45.5 42.4394C45.5 42.4394 45.5 42.4394 45.5 42.4394C45.5 42.4394 45.5 42.4394 45.5 42.4394C45.5 42.4394 45.5 42.4394 45.5 42.4394V42.4394V42.4394C45.5 42.4394 45.5 42.4394 45.5 42.4394C45.5 42.4394 45.5 42.4394 45.5 42.4394C45.5 42.4394 45.5 42.4394 45.5 42.4394C45.5 42.4394 45.5 42.4394 45.5 42.4394C45.5 42.4394 45.5 42.4394 45.5 42.4394V42.4394V42.4394C45.5 42.4394 45.5 42.4394 45.5 42.4394C45.5 42.4394 45.5 42.4394 45.5 42.4394C45.5 42.4394 45.5 42.4394 45.5 42.4394C45.5 42.4394 45.5 42.4394 45.5 42.4394C45.5 42.4394 45.5 42.4394 45.5 42.4394V42.4394V42.4394C45.5 42.4394 45.5 42.4394 45.5 42.4394C45.5 42.4394 45.5 42.4394 45.5 42.4394C45.5 42.4394 45.5 42.4394 45.5 42.4394C45.5 42.4394 45.5 42.4394 45.5 42.4394V42.4394V42.4394V42.4394C45.5 42.4394 45.5 42.4394 45.5 42.4394C45.5 42.4394 45.5 42.4394 45.5 42.4394C45.5 42.4394 45.5 42.4394 45.5 42.4394C45.5 42.4394 45.5 42.4394 45.5 42.4394V42.4394V42.4394V42.4393C45.5 42.4393 45.5 42.4393 45.5 42.4393C45.5 42.4393 45.5 42.4393 45.5 42.4393C45.5 42.4393 45.5 42.4393 45.5 42.4393C45.5 42.4393 45.5 42.4393 45.5 42.4393V42.4393V42.4393C45.5 42.4393 45.5 42.4393 45.5 42.4393C45.5 42.4393 45.5 42.4393 45.5 42.4393C45.5 42.4393 45.5 42.4393 45.5 42.4393C45.5 42.4393 45.5 42.4393 45.5 42.4393C45.5 42.4393 45.5 42.4393 45.5 42.4393V42.4393V42.4393C45.5 42.4393 45.5 42.4393 45.5 42.4393C45.5 42.4393 45.5 42.4393 45.5 42.4393C45.5 42.4393 45.5 42.4393 45.5 42.4393C45.5 42.4393 45.5 42.4393 45.5 42.4393C45.5 42.4393 45.5 42.4393 45.5 42.4393V42.4393V42.4393C45.5 42.4393 45.5 42.4393 45.5 42.4393C45.5 42.4393 45.5 42.4393 45.5 42.4393C45.5 42.4393 45.5 42.4393 45.5 42.4393C45.5 42.4393 45.5 42.4393 45.5 42.4393C45.5 42.4393 45.5 42.4393 45.5 42.4393V42.4393V42.4393C45.5 42.4393 45.5 42.4393 45.5 42.4393C45.5 42.4393 45.5 42.4393 45.5 42.4393C45.5 42.4393 45.5 42.4393 45.5 42.4393C45.5 42.4393 45.5 42.4393 45.5 42.4393C45.5 42.4393 45.5 42.4393 45.5 42.4393V42.4393V42.4393C45.5 42.4393 45.5 42.4393 45.5 42.4393C45.5 42.4393 45.5 42.4393 45.5 42.4393C45.5 42.4393 45.5 42.4393 45.5 42.4393C45.5 42.4393 45.5 42.4393 45.5 42.4393C45.5 42.4393 45.5 42.4393 45.5 42.4393V42.4393V42.4393C45.5 42.4393 45.5 42.4393 45.5 42.4393C45.5 42.4393 45.5 42.4393 45.5 42.4393C45.5 42.4393 45.5 42.4393 45.5 42.4393C45.5 42.4393 45.5 42.4393 45.5 42.4393C45.5 42.4393 45.5 42.4393 45.5 42.4393V42.4393V42.4393C45.5 42.4393 45.5 42.4393 45.5 42.4393C45.5 42.4393 45.5 42.4393 45.5 42.4393C45.5 42.4393 45.5 42.4393 45.5 42.4393C45.5 42.4393 45.5 42.4393 45.5 42.4392V42.4392V42.4392V42.4392C45.5 42.4392 45.5 42.4392 45.5 42.4392C45.5 42.4392 45.5 42.4392 45.5 42.4392C45.5 42.4392 45.5 42.4392 45.5 42.4392C45.5 42.4392 45.5 42.4392 45.5 42.4392V42.4392V42.4392V42.4392C45.5 42.4392 45.5 42.4392 45.5 42.4392C45.5 42.4392 45.5 42.4392 45.5 42.4392H42.5ZM42.5 26.0371V42.4392H45.5V26.0371H42.5Z" fill="black" mask="url(#path-2-outside-1_13172_280037)"/>
<path d="M31 43.75C34.6891 43.75 38.0662 42.9464 40.548 41.6101C42.9992 40.2902 44.75 38.3411 44.75 36C44.75 33.6589 42.9992 31.7098 40.548 30.3899C38.0662 29.0536 34.6891 28.25 31 28.25C27.3109 28.25 23.9338 29.0536 21.452 30.3899C19.0008 31.7098 17.25 33.6589 17.25 36C17.25 38.3411 19.0008 40.2902 21.452 41.6101C23.9338 42.9464 27.3109 43.75 31 43.75Z" fill="#F4FDFD" stroke="black" stroke-width="1.5"/>
<rect x="27" y="39" width="23" height="12" fill="#F4FDFD"/>
<path d="M31 38.25C34.6891 38.25 38.0662 37.4464 40.548 36.1101C42.9992 34.7902 44.75 32.8411 44.75 30.5C44.75 28.1589 42.9992 26.2098 40.548 24.8899C38.0662 23.5536 34.6891 22.75 31 22.75C27.3109 22.75 23.9338 23.5536 21.452 24.8899C19.0008 26.2098 17.25 28.1589 17.25 30.5C17.25 32.8411 19.0008 34.7902 21.452 36.1101C23.9338 37.4464 27.3109 38.25 31 38.25Z" fill="#F4FDFD" stroke="black" stroke-width="1.5"/>
<path d="M31 32.75C34.6891 32.75 38.0662 31.9464 40.548 30.6101C42.9992 29.2902 44.75 27.3411 44.75 25C44.75 22.6589 42.9992 20.7098 40.548 19.3899C38.0662 18.0536 34.6891 17.25 31 17.25C27.3109 17.25 23.9338 18.0536 21.452 19.3899C19.0008 20.7098 17.25 22.6589 17.25 25C17.25 27.3411 19.0008 29.2902 21.452 30.6101C23.9338 31.9464 27.3109 32.75 31 32.75Z" fill="#F4FDFD" stroke="black" stroke-width="1.5"/>
<path d="M29.499 48.5H32.782V47.45H30.752V43.285H29.499V48.5ZM33.7335 48.5H34.9865V44.328H36.4005V43.285H32.3265V44.328H33.7335V48.5ZM37.2031 48.5H40.5841V47.45H38.4561V46.344H40.1991V45.294H38.4561V44.328H40.5071V43.285H37.2031V48.5ZM41.1153 49.781H41.9273L43.4673 42.809H42.6623L41.1153 49.781ZM45.6566 48.598C46.6926 48.598 47.5816 48.066 47.5816 47.114C47.5816 46.463 47.1546 46.05 46.5806 45.882V45.847C47.1266 45.616 47.4136 45.238 47.4136 44.727C47.4136 43.831 46.7066 43.32 45.6286 43.32C45.0126 43.32 44.4946 43.572 44.0116 43.971L44.6416 44.734C44.9566 44.454 45.2226 44.293 45.5726 44.293C45.9576 44.293 46.1676 44.482 46.1676 44.825C46.1676 45.203 45.8876 45.469 44.9986 45.469V46.351C46.0906 46.351 46.3286 46.603 46.3286 47.03C46.3286 47.394 46.0136 47.59 45.5306 47.59C45.1246 47.59 44.7606 47.38 44.4456 47.086L43.8716 47.87C44.2496 48.311 44.8306 48.598 45.6566 48.598ZM50.9162 48.598C51.6442 48.598 52.2882 48.311 52.6522 47.961V45.525H50.7132V46.547H51.5392V47.387C51.4272 47.471 51.2312 47.52 51.0492 47.52C50.0762 47.52 49.6142 46.918 49.6142 45.882C49.6142 44.867 50.1672 44.265 50.9372 44.265C51.3712 44.265 51.6442 44.44 51.9032 44.671L52.5612 43.873C52.2042 43.516 51.6582 43.194 50.8952 43.194C49.5022 43.194 48.3332 44.188 48.3332 45.924C48.3332 47.688 49.4742 48.598 50.9162 48.598Z" fill="#499690"/>
</svg>
