<svg width="35" height="35" viewBox="0 0 35 35" fill="none" xmlns="http://www.w3.org/2000/svg">
<path d="M31.411 7.59961H3.3814C2.06619 7.59961 1 8.66202 1 9.97257V30.0216C1 31.3322 2.06619 32.3946 3.3814 32.3946H31.411C32.7262 32.3946 33.7924 31.3322 33.7924 30.0216V9.97257C33.7924 8.66202 32.7262 7.59961 31.411 7.59961Z" stroke="black" stroke-width="1.5" stroke-miterlimit="10"/>
<path d="M12 2L15 7.19615" stroke="black" stroke-width="1.5"/>
<path d="M23 2L20 7.19615" stroke="black" stroke-width="1.5"/>
<path d="M22.25 19.567C22.5833 19.7594 22.5833 20.2406 22.25 20.433L14.75 24.7631C14.4167 24.9556 14 24.715 14 24.3301L14 15.6699C14 15.285 14.4167 15.0444 14.75 15.2369L22.25 19.567Z" stroke="#499690" stroke-width="1.5"/>
</svg>
