<svg width="68" height="68" viewBox="0 0 68 68" fill="none" xmlns="http://www.w3.org/2000/svg">
<circle cx="34" cy="34" r="34" fill="#F4FDFD"/>
<path fill-rule="evenodd" clip-rule="evenodd" d="M43.3138 37.3077V30.8672H23.9922V37.3077H23.9925C23.9923 37.3171 23.9922 37.3265 23.9922 37.3359C23.9922 39.1309 28.3175 40.5859 33.653 40.5859C38.9885 40.5859 43.3138 39.1309 43.3138 37.3359C43.3138 37.3265 43.3137 37.3171 43.3135 37.3077H43.3138Z" fill="#F6FDFD"/>
<path d="M43.3138 30.8672H44.0638C44.0638 30.453 43.728 30.1172 43.3138 30.1172V30.8672ZM43.3138 37.3077V38.0577C43.728 38.0577 44.0638 37.7219 44.0638 37.3077H43.3138ZM23.9922 30.8672V30.1172C23.578 30.1172 23.2422 30.453 23.2422 30.8672H23.9922ZM23.9922 37.3077H23.2422C23.2422 37.7219 23.578 38.0577 23.9922 38.0577V37.3077ZM23.9925 37.3077L24.7423 37.3267C24.7474 37.1245 24.6707 36.9289 24.5295 36.7841C24.3884 36.6394 24.1947 36.5577 23.9925 36.5577V37.3077ZM43.3135 37.3077V36.5577C43.1113 36.5577 42.9177 36.6394 42.7765 36.7841C42.6353 36.9289 42.5586 37.1245 42.5637 37.3266L43.3135 37.3077ZM42.5638 30.8672V37.3077H44.0638V30.8672H42.5638ZM23.9922 31.6172H43.3138V30.1172H23.9922V31.6172ZM24.7422 37.3077V30.8672H23.2422V37.3077H24.7422ZM23.9925 36.5577H23.9922V38.0577H23.9925V36.5577ZM24.7422 37.3359C24.7422 37.3328 24.7422 37.3298 24.7423 37.3267L23.2428 37.2888C23.2424 37.3045 23.2422 37.3202 23.2422 37.3359H24.7422ZM33.653 39.8359C31.044 39.8359 28.7133 39.4791 27.0609 38.9232C26.2309 38.6439 25.6132 38.3281 25.2182 38.014C24.8156 37.6938 24.7422 37.4593 24.7422 37.3359H23.2422C23.2422 38.11 23.7094 38.7305 24.2845 39.188C24.8673 39.6515 25.6644 40.036 26.5826 40.3449C28.4268 40.9653 30.9265 41.3359 33.653 41.3359V39.8359ZM42.5638 37.3359C42.5638 37.4593 42.4904 37.6938 42.0878 38.014C41.6928 38.3281 41.0751 38.6439 40.2451 38.9232C38.5927 39.4791 36.262 39.8359 33.653 39.8359V41.3359C36.3795 41.3359 38.8792 40.9653 40.7234 40.3449C41.6416 40.036 42.4387 39.6515 43.0215 39.188C43.5966 38.7305 44.0638 38.11 44.0638 37.3359H42.5638ZM42.5637 37.3266C42.5638 37.3298 42.5638 37.3329 42.5638 37.3359H44.0638C44.0638 37.3201 44.0636 37.3044 44.0632 37.2889L42.5637 37.3266ZM43.3138 36.5577H43.3135V38.0577H43.3138V36.5577Z" fill="black"/>
<path d="M16 28.5L33.284 21.5L51 28.5L33.284 35.5L16 28.5Z" fill="#F6FDFD" stroke="black" stroke-width="1.5" stroke-linejoin="round"/>
<path d="M34 28.5L41 30.8685V42.5" stroke="#F6FDFD" stroke-width="4" stroke-linecap="round" stroke-linejoin="round"/>
<path d="M34 28.5L41 30.8685V42.5" stroke="#499690" stroke-width="1.5" stroke-linecap="round" stroke-linejoin="round"/>
<path d="M39 46.3182L41 42.5L43 46.3182L41 49.5L39 46.3182Z" stroke="#499690" stroke-width="1.5" stroke-linecap="round" stroke-linejoin="round"/>
<path d="M22.5322 31.382L21 20.7832C23.0383 20.2691 25.1723 20.2691 27.2105 20.7832L25.6783 31.382V32.5933L26.8224 44.4505C25.0203 44.7102 23.1903 44.7102 21.3882 44.4505L22.5322 32.5933V31.382Z" fill="#F6FDFD" stroke="black" stroke-width="1.22951" stroke-linecap="round" stroke-linejoin="round"/>
<rect x="21.3906" y="31.1348" width="5.43421" height="3.13267" rx="1.56634" fill="#F6FDFD" stroke="black" stroke-width="1.22951"/>
</svg>
