<svg width="10" height="14" viewBox="0 0 10 14" fill="none" xmlns="http://www.w3.org/2000/svg">
<g clip-path="url(#clip0_1077_112115)">
<path d="M9.36612 4.93766C8.93947 3.76754 7.88947 2.56453 7.88947 2.56453C7.88947 2.56453 8.00987 3.02396 7.88947 3.70176C7.76908 4.37989 7.42993 4.81729 7.42993 4.81729C7.42993 4.81729 7.27665 3.84383 6.5329 2.43331C5.78914 1.02246 4.06086 0 4.06086 0C4.06086 0 4.06086 1.25201 3.64507 2.69575C3.22928 4.13949 2.23388 5.3642 2.23388 5.3642C2.11349 4.47822 1.5227 3.71294 1.5227 3.71294C1.55559 4.12863 1.1398 5.39709 0.953947 5.82363C0.768092 6.25018 0 7.43115 0 8.97322C0.0851974 11.1605 1.33684 12.3089 1.89474 12.7681C2.45263 13.2275 3.69967 13.6978 3.69967 13.6978L3.77467 13.706C3.66875 13.5166 3.24013 12.6918 3.24013 11.762C3.24013 10.7011 3.55724 10.6028 3.75428 9.93582C3.95132 9.26887 3.95132 8.47038 3.95132 8.47038C3.95132 8.47038 4.29046 8.86404 4.45461 9.46554C4.61875 10.067 4.67336 10.5044 4.67336 10.5044C4.67336 10.5044 5.15461 9.62964 5.25296 8.79826C5.35132 7.96721 5.08882 7.05953 5.08882 7.05953C5.08882 7.05953 6.11711 7.91261 6.5329 9.23599C6.94868 10.5594 6.89375 11.4013 6.72993 12.0577C6.59934 12.5799 6.2125 13.4278 6.05987 13.7517C6.41908 13.5781 6.90099 13.3238 7.34243 13.02C8.18487 12.4405 8.58947 11.9373 9.18026 11.0625C9.77105 10.1877 10 8.744 10 7.84717C10 6.95034 9.79276 6.10843 9.36612 4.93798V4.93766Z" fill="white"/>
</g>
<defs>
<clipPath id="clip0_1077_112115">
<rect width="10" height="14" fill="white"/>
</clipPath>
</defs>
</svg>
