<svg width="35" height="35" viewBox="0 0 35 35" fill="none" xmlns="http://www.w3.org/2000/svg">
<path fill-rule="evenodd" clip-rule="evenodd" d="M13.1067 4C6.42036 4 1 9.42036 1 16.1067C1 20.1378 2.97011 23.7087 6 25.9092V31.4997C6 31.9023 6.45163 32.1398 6.78337 31.9116L12.2074 28.1805C12.5043 28.2023 12.8042 28.2134 13.1067 28.2134H21.8933C28.5796 28.2134 34 22.7931 34 16.1067C34 9.42036 28.5796 4 21.8933 4H13.1067Z" fill="white"/>
<path d="M6 25.9092H6.75V25.5269L6.44072 25.3023L6 25.9092ZM6.78337 31.9116L7.20843 32.5295H7.20843L6.78337 31.9116ZM12.2074 28.1805L12.2623 27.4326L11.9994 27.4133L11.7823 27.5626L12.2074 28.1805ZM1.75 16.1067C1.75 9.83458 6.83458 4.75 13.1067 4.75V3.25C6.00615 3.25 0.25 9.00615 0.25 16.1067H1.75ZM6.44072 25.3023C3.59677 23.2369 1.75 19.8875 1.75 16.1067H0.25C0.25 20.3881 2.34345 24.1805 5.55928 26.516L6.44072 25.3023ZM6.75 31.4997V25.9092H5.25V31.4997H6.75ZM6.35832 31.2937C6.52419 31.1796 6.75 31.2983 6.75 31.4997H5.25C5.25 32.5063 6.37908 33.1 7.20843 32.5295L6.35832 31.2937ZM11.7823 27.5626L6.35831 31.2937L7.20843 32.5295L12.6324 28.7985L11.7823 27.5626ZM13.1067 27.4634C12.8226 27.4634 12.541 27.453 12.2623 27.4326L12.1524 28.9285C12.4676 28.9517 12.7859 28.9634 13.1067 28.9634V27.4634ZM21.8933 27.4634H13.1067V28.9634H21.8933V27.4634ZM33.25 16.1067C33.25 22.3789 28.1654 27.4634 21.8933 27.4634V28.9634C28.9938 28.9634 34.75 23.2073 34.75 16.1067H33.25ZM21.8933 4.75C28.1654 4.75 33.25 9.83458 33.25 16.1067H34.75C34.75 9.00615 28.9938 3.25 21.8933 3.25V4.75ZM13.1067 4.75H21.8933V3.25H13.1067V4.75Z" fill="black"/>
<circle cx="11.5" cy="16.5" r="1.5" fill="#499690"/>
<circle cx="17.5" cy="16.5" r="1.5" fill="#499690"/>
<circle cx="23.5" cy="16.5" r="1.5" fill="#499690"/>
</svg>
