<svg width="68" height="68" viewBox="0 0 68 68" fill="none" xmlns="http://www.w3.org/2000/svg">
<circle cx="34" cy="34" r="34" fill="#F4FDFD"/>
<rect x="20" y="23" width="28" height="20" rx="3" stroke="black" stroke-width="1.5"/>
<path d="M21 25L34 34L47 25" stroke="black" stroke-width="1.5" stroke-linecap="square"/>
<path d="M25.5 51.8167C29.7862 51.8167 33.25 48.3259 33.25 44.0333C33.25 39.7408 29.7862 36.25 25.5 36.25C21.2138 36.25 17.75 39.7408 17.75 44.0333C17.75 48.3259 21.2138 51.8167 25.5 51.8167Z" stroke="#F4FDFD" stroke-width="2.5"/>
<path d="M25.5 50.5667C29.0899 50.5667 32 47.6416 32 44.0333C32 40.4251 29.0899 37.5 25.5 37.5C21.9102 37.5 19 40.4251 19 44.0333C19 47.6416 21.9102 50.5667 25.5 50.5667Z" fill="#F4FDFD" stroke="#499690" stroke-width="1.5"/>
<path d="M25.0194 45.48H25.9794L26.1894 41.79L26.2394 40.4H24.7594L24.8094 41.79L25.0194 45.48ZM25.4994 48.14C26.0194 48.14 26.4194 47.72 26.4194 47.18C26.4194 46.63 26.0194 46.22 25.4994 46.22C24.9794 46.22 24.5894 46.63 24.5894 47.18C24.5894 47.72 24.9794 48.14 25.4994 48.14Z" fill="#499690"/>
</svg>
