<svg width="273" height="183" viewBox="0 0 273 183" fill="none" xmlns="http://www.w3.org/2000/svg">
<path d="M195 122C195 91.0721 169.033 66 137 66C104.967 66 79 91.0721 79 122" stroke="#499690" stroke-dasharray="2 6"/>
<path d="M5.95156 172.87H3.71156V171.77H2.89156V172.87H0.661563V173.53H5.95156V172.87ZM1.94156 175.69C1.94156 175.07 2.49156 174.67 3.30156 174.67C4.11156 174.67 4.67156 175.07 4.67156 175.69C4.67156 176.32 4.11156 176.72 3.30156 176.72C2.49156 176.72 1.94156 176.32 1.94156 175.69ZM5.45156 175.69C5.45156 174.69 4.57156 174.03 3.30156 174.03C2.03156 174.03 1.16156 174.69 1.16156 175.69C1.16156 176.7 2.03156 177.36 3.30156 177.36C4.57156 177.36 5.45156 176.7 5.45156 175.69ZM2.83156 177.97H2.01156V180.54H7.99156V179.87H2.83156V177.97ZM7.59156 174.73V171.77H6.77156V178.5H7.59156V175.42H8.91156V174.73H7.59156ZM17.9708 176.07V175.4H16.7008C16.9208 174.34 16.9208 173.52 16.9208 172.85V172.2H10.8708V172.86H16.1108C16.1108 173.53 16.1108 174.32 15.8708 175.4H9.83078V176.07H13.4808V177.71H10.6908V178.37H16.1508V180.73H16.9708V177.71H14.3008V176.07H17.9708ZM22.21 172.55H21.4V174.16C21.4 175.86 20.31 177.58 18.99 178.21L19.49 178.88C20.54 178.34 21.4 177.22 21.81 175.87C22.24 177.15 23.1 178.21 24.12 178.71L24.61 178.05C23.28 177.45 22.21 175.8 22.21 174.16V172.55ZM25.55 171.77V180.76H26.37V171.77H25.55ZM28.6092 172.47V173.14H31.9092C31.7392 174.72 30.3592 175.99 28.2492 176.65L28.5792 177.3C31.1592 176.49 32.7892 174.79 32.7892 172.47H28.6092ZM30.4192 177.66H29.5992V180.54H35.5792V179.87H30.4192V177.66ZM35.1892 174.5V171.78H34.3692V178.33H35.1892V175.18H36.5092V174.5H35.1892Z" fill="#555555"/>
<path d="M131.479 166.156C133.207 166.156 134.335 164.62 134.335 161.548C134.335 158.5 133.207 157 131.479 157C129.751 157 128.623 158.488 128.623 161.548C128.623 164.62 129.751 166.156 131.479 166.156ZM131.479 165.064C130.579 165.064 129.943 164.104 129.943 161.548C129.943 159.016 130.579 158.092 131.479 158.092C132.379 158.092 133.015 159.016 133.015 161.548C133.015 164.104 132.379 165.064 131.479 165.064ZM139.51 156.988H138.274V158.764C138.274 160.852 137.146 162.928 135.418 163.708L136.15 164.74C137.458 164.104 138.418 162.82 138.91 161.248C139.402 162.712 140.35 163.912 141.598 164.5L142.318 163.516C140.614 162.748 139.51 160.756 139.51 158.764V156.988ZM143.182 156.076V166.948H144.43V156.076H143.182Z" fill="black"/>
<rect x="98" y="55" width="78" height="25" rx="12.5" fill="#499690"/>
<path d="M110.443 65.488H113.095V64.228H108.883V71.572H109.639C111.259 71.572 112.351 71.524 113.587 71.284L113.455 69.988C112.483 70.18 111.595 70.252 110.443 70.276V65.488ZM114.259 67.012H112.339V68.296H114.259V73.54H115.735V63.184H114.259V67.012ZM116.551 62.968V74.02H118.051V62.968H116.551ZM127.17 62.968V74.056H128.754V62.968H127.17ZM122.814 63.748C121.146 63.748 119.91 65.26 119.91 67.684C119.91 70.12 121.146 71.644 122.814 71.644C124.482 71.644 125.718 70.12 125.718 67.684C125.718 65.26 124.482 63.748 122.814 63.748ZM122.814 65.176C123.63 65.176 124.194 66.052 124.194 67.684C124.194 69.328 123.63 70.204 122.814 70.204C121.998 70.204 121.434 69.328 121.434 67.684C121.434 66.052 121.998 65.176 122.814 65.176ZM132.713 68.212H135.881V66.976H132.713V65.176H136.253V63.904H131.141V71.548H132.041C133.901 71.548 135.317 71.512 136.913 71.26L136.769 69.988C135.413 70.204 134.201 70.264 132.713 70.276V68.212ZM138.329 62.968V66.868H136.433V68.14H138.329V74.056H139.913V62.968H138.329ZM151.967 62.968V74.056H153.551V62.968H151.967ZM147.611 63.748C145.943 63.748 144.707 65.26 144.707 67.684C144.707 70.12 145.943 71.644 147.611 71.644C149.279 71.644 150.515 70.12 150.515 67.684C150.515 65.26 149.279 63.748 147.611 63.748ZM147.611 65.176C148.427 65.176 148.991 66.052 148.991 67.684C148.991 69.328 148.427 70.204 147.611 70.204C146.795 70.204 146.231 69.328 146.231 67.684C146.231 66.052 146.795 65.176 147.611 65.176ZM160.402 72.844C158.926 72.844 158.17 72.592 158.17 72.028C158.17 71.464 158.926 71.224 160.402 71.224C161.878 71.224 162.634 71.464 162.634 72.028C162.634 72.592 161.878 72.844 160.402 72.844ZM160.402 70.024C158.014 70.024 156.574 70.744 156.574 72.028C156.574 73.312 158.014 74.044 160.402 74.044C162.79 74.044 164.242 73.312 164.242 72.028C164.242 70.744 162.79 70.024 160.402 70.024ZM159.262 67.3C159.622 67.348 160.006 67.372 160.426 67.372C160.834 67.372 161.218 67.348 161.566 67.312V68.224H159.262V67.3ZM160.426 64.348C161.938 64.348 162.802 64.648 162.802 65.272C162.802 65.872 161.938 66.184 160.426 66.184C158.926 66.184 158.062 65.872 158.062 65.272C158.062 64.648 158.926 64.348 160.426 64.348ZM163.15 68.224V66.904C163.966 66.544 164.434 65.992 164.434 65.272C164.434 63.952 162.874 63.148 160.426 63.148C157.99 63.148 156.43 63.952 156.43 65.272C156.43 65.98 156.886 66.532 157.678 66.892V68.224H155.434V69.472H165.418V68.224H163.15Z" fill="white"/>
<path d="M66.1687 166H71.2087V164.86H69.4807V157.156H68.4367C67.9327 157.48 67.3447 157.684 66.5167 157.84V158.716H68.1007V164.86H66.1687V166ZM72.5085 166H78.2085V164.824H76.0005C75.5685 164.824 75.0165 164.86 74.5605 164.908C76.4325 163.12 77.7885 161.356 77.7885 159.652C77.7885 158.056 76.7445 157 75.1245 157C73.9725 157 73.1925 157.492 72.4365 158.32L73.2165 159.088C73.6845 158.548 74.2605 158.104 74.9565 158.104C75.9525 158.104 76.4565 158.764 76.4565 159.724C76.4565 161.176 75.1125 162.892 72.5085 165.196V166ZM83.4322 156.988H82.1962V158.764C82.1962 160.852 81.0682 162.928 79.3402 163.708L80.0722 164.74C81.3802 164.104 82.3402 162.82 82.8322 161.248C83.3242 162.712 84.2722 163.912 85.5202 164.5L86.2402 163.516C84.5362 162.748 83.4322 160.756 83.4322 158.764V156.988ZM87.1042 156.076V166.948H88.3522V156.076H87.1042Z" fill="black"/>
<mask id="path-7-inside-1_13172_280072" fill="white">
<path fill-rule="evenodd" clip-rule="evenodd" d="M77 0C75.8954 0 75 0.895431 75 2V40V64.8074C75 65.9085 76.5196 66.2011 76.9285 65.1788L87 40H158C159.105 40 160 39.1046 160 38V2C160 0.895431 159.105 0 158 0H77Z"/>
</mask>
<path fill-rule="evenodd" clip-rule="evenodd" d="M77 0C75.8954 0 75 0.895431 75 2V40V64.8074C75 65.9085 76.5196 66.2011 76.9285 65.1788L87 40H158C159.105 40 160 39.1046 160 38V2C160 0.895431 159.105 0 158 0H77Z" fill="#F4FDFD"/>
<path d="M76.9285 65.1788L77.857 65.5502H77.857L76.9285 65.1788ZM87 40V39H86.323L86.0715 39.6286L87 40ZM76 2C76 1.44772 76.4477 1 77 1V-1C75.3431 -1 74 0.343147 74 2H76ZM76 40V2H74V40H76ZM76 64.8074V40H74V64.8074H76ZM76 64.8074C75.9959 64.8178 75.9926 64.8233 75.9914 64.8252C75.9903 64.8271 75.9904 64.8265 75.9923 64.8244C75.9942 64.8223 75.997 64.8197 76.0005 64.8171C76.004 64.8145 76.0075 64.8124 76.0105 64.8109C76.0166 64.8079 76.0191 64.808 76.0164 64.8084C76.0135 64.8087 76.0076 64.8089 76 64.8074C75.9924 64.806 75.987 64.8036 75.9844 64.8022C75.9821 64.8009 75.9844 64.8017 75.9889 64.8068C75.9912 64.8093 75.9936 64.8125 75.9959 64.8162C75.9982 64.82 75.9998 64.8234 76.0008 64.826C76.0018 64.8287 76.0017 64.8293 76.0013 64.8271C76.0009 64.8249 76 64.8186 76 64.8074H74C74 67.0096 77.0391 67.5948 77.857 65.5502L76 64.8074ZM86.0715 39.6286L76 64.8074L77.857 65.5502L87.9285 40.3714L86.0715 39.6286ZM158 39H87V41H158V39ZM159 38C159 38.5523 158.552 39 158 39V41C159.657 41 161 39.6569 161 38H159ZM159 2V38H161V2H159ZM158 1C158.552 1 159 1.44772 159 2H161C161 0.343145 159.657 -1 158 -1V1ZM77 1H158V-1H77V1Z" fill="#73EBE0" fill-opacity="0.2" mask="url(#path-7-inside-1_13172_280072)"/>
<path d="M89.3321 16.312C88.8441 16.312 88.5001 15.92 88.5001 15.32C88.5001 14.72 88.8441 14.32 89.3321 14.32C89.8201 14.32 90.1641 14.72 90.1641 15.32C90.1641 15.92 89.8201 16.312 89.3321 16.312ZM89.3321 13.64C88.4201 13.64 87.7641 14.32 87.7641 15.32C87.7641 16.312 88.4201 17 89.3321 17C90.2441 17 90.9001 16.312 90.9001 15.32C90.9001 14.32 90.2441 13.64 89.3321 13.64ZM89.7401 11.6H88.9241V12.568H87.5561V13.232H91.0921V12.568H89.7401V11.6ZM92.9401 11.392V14.384H92.1721V11.544H91.4041V18.28H92.1721V15.064H92.9401V18.616H93.7241V11.392H92.9401ZM96.1074 13.576C96.1074 12.944 96.5954 12.544 97.2594 12.544C97.9314 12.544 98.4194 12.944 98.4194 13.576C98.4194 14.2 97.9314 14.6 97.2594 14.6C96.5954 14.6 96.1074 14.2 96.1074 13.576ZM97.6754 15.28C98.5874 15.128 99.2274 14.464 99.2274 13.576C99.2274 12.552 98.3874 11.84 97.2594 11.84C96.1314 11.84 95.2994 12.552 95.2994 13.576C95.2994 14.464 95.9314 15.128 96.8434 15.28V16.408C96.1714 16.432 95.5154 16.432 94.9634 16.432L95.0674 17.112C96.3474 17.112 98.0754 17.096 99.6674 16.792L99.6114 16.192C98.9874 16.288 98.3234 16.336 97.6754 16.376V15.28ZM100.043 11.384V18.624H100.875V11.384H100.043ZM103.915 16.304C103.419 16.304 103.115 15.656 103.115 14.512C103.115 13.368 103.419 12.728 103.915 12.728C104.411 12.728 104.715 13.368 104.715 14.512C104.715 15.656 104.411 16.304 103.915 16.304ZM106.227 14.128H105.451C105.363 12.776 104.779 11.952 103.915 11.952C102.979 11.952 102.363 12.928 102.363 14.512C102.363 16.096 102.979 17.08 103.915 17.08C104.795 17.08 105.387 16.216 105.459 14.808H106.227V18.272H106.995V11.528H106.227V14.128ZM107.675 11.392V18.608H108.459V11.392H107.675ZM112.266 11.976H111.434V13.168C111.434 14.52 110.73 15.912 109.602 16.464L110.122 17.12C110.946 16.696 111.538 15.856 111.858 14.832C112.17 15.8 112.754 16.592 113.57 17L114.058 16.336C112.954 15.824 112.266 14.512 112.266 13.168V11.976ZM114.818 11.376V13.752H113.274V14.424H114.818V18.624H115.65V11.376H114.818ZM124.982 12.16H122.478V11.368H121.654V12.16H119.126V12.816H124.974L124.982 12.16ZM123.614 14.376C123.614 14.76 123.078 14.968 122.07 14.968C121.062 14.968 120.518 14.76 120.518 14.376C120.518 13.992 121.062 13.784 122.07 13.784C123.078 13.784 123.614 13.992 123.614 14.376ZM119.662 14.376C119.662 15.152 120.566 15.592 122.07 15.592C123.574 15.592 124.478 15.152 124.478 14.376C124.478 13.6 123.574 13.168 122.07 13.168C120.566 13.168 119.662 13.6 119.662 14.376ZM125.35 16.016H118.798V16.68H120.414V18.64H121.238V16.68H122.91V18.64H123.734V16.68H125.358L125.35 16.016ZM127.214 12.92H129.078V12.248H126.406V16.896H126.886C127.902 16.896 128.646 16.864 129.518 16.696L129.446 16.016C128.702 16.168 128.046 16.208 127.214 16.216V12.92ZM131.542 11.384V14.24H130.686V11.536H129.91V18.256H130.686V14.912H131.542V18.608H132.326V11.384H131.542ZM135.173 16.464H134.341V18.48H139.325V17.808H135.173V16.464ZM135.949 12.36H137.613V13.808H135.949V12.36ZM137.197 15.24V14.472H139.413V13.808H138.437V12.36H139.453V11.696H134.101V12.36H135.125V13.808H134.141V14.472H136.365V15.24H133.509V15.912H140.061V15.24H137.197ZM144.149 12.12C145.269 12.12 145.869 12.336 145.869 12.752C145.869 13.16 145.269 13.376 144.149 13.376C143.029 13.376 142.429 13.16 142.429 12.752C142.429 12.336 143.029 12.12 144.149 12.12ZM144.149 13.992C145.765 13.992 146.725 13.552 146.725 12.752C146.725 11.944 145.765 11.504 144.149 11.504C142.525 11.504 141.573 11.944 141.573 12.752C141.573 13.552 142.525 13.992 144.149 13.992ZM142.485 17.32H146.597V15.592H141.653V16.216H145.789V16.736H141.669V18.552H146.805V17.92H142.485V17.32ZM140.877 14.416V15.072H147.421V14.416H140.877ZM95.5133 23.456V24.472H93.7773V25.144H95.5133V26.752H96.3373V21.392H95.5133V22.792H94.0333C94.0733 22.528 94.0973 22.256 94.0973 21.96H90.8493V22.624H93.2333C93.2093 22.888 93.1533 23.128 93.0813 23.36L90.4893 23.464L90.6173 24.12L92.7693 23.96C92.3533 24.56 91.6333 25.048 90.4973 25.416L90.8333 26.064C92.5373 25.504 93.4813 24.624 93.8733 23.456H95.5133ZM92.5293 27.808V26.224H91.7053V28.48H96.5213V27.808H92.5293ZM102.174 21.992H101.35V23.176C101.35 24.568 100.598 25.952 99.4456 26.472L99.9336 27.16C100.806 26.736 101.446 25.88 101.774 24.832C102.102 25.808 102.734 26.608 103.566 27L104.046 26.344C102.91 25.832 102.174 24.504 102.174 23.176V21.992ZM104.622 21.384V28.632H105.454V21.384H104.622ZM111.157 24.768C110.085 24.392 109.469 23.488 109.469 22.592V22.472H110.973V21.808H107.109V22.472H108.637V22.592C108.637 23.576 107.981 24.528 106.861 24.92L107.285 25.568C108.141 25.272 108.749 24.64 109.069 23.864C109.373 24.568 109.957 25.128 110.757 25.408L111.157 24.768ZM108.917 26.576H112.045V27.872H108.917V26.576ZM108.109 28.528H112.853V25.92H108.109V28.528ZM112.029 21.384V23.144H110.749V23.816H112.029V25.592H112.853V21.384H112.029ZM119.14 24.168H115.836V23.248H119.14V24.168ZM119.964 21.672H119.14V22.584H115.836V21.672H115.012V24.832H119.964V21.672ZM120.772 25.616H114.22V26.28H117.06V28.624H117.884V26.28H120.772V25.616ZM122.732 24.704H124.964V24.048H122.732V22.696H125.26V22.016H121.908V26.936H122.476C123.788 26.936 124.692 26.904 125.724 26.72L125.652 26.056C124.708 26.216 123.884 26.256 122.732 26.264V24.704ZM126.756 21.376V24.032H125.372V24.712H126.756V28.624H127.588V21.376H126.756ZM135.04 24.816C133.96 24.44 133.344 23.536 133.344 22.64V22.504H134.848V21.84H130.984V22.504H132.512V22.648C132.512 23.624 131.856 24.576 130.736 24.96L131.16 25.608C132.016 25.312 132.624 24.688 132.944 23.912C133.256 24.608 133.832 25.176 134.632 25.456L135.04 24.816ZM131.856 26.728H135.904V28.616H136.728V26.064H131.856V26.728ZM135.904 21.384V23.2H134.64V23.88H135.904V25.704H136.728V21.384H135.904ZM141.351 27.984C140.295 27.984 139.703 27.76 139.703 27.32C139.703 26.888 140.295 26.656 141.351 26.656C142.407 26.656 143.007 26.888 143.007 27.32C143.007 27.76 142.407 27.984 141.351 27.984ZM141.351 26.024C139.799 26.024 138.863 26.496 138.863 27.32C138.863 28.152 139.799 28.616 141.351 28.616C142.911 28.616 143.839 28.152 143.839 27.32C143.839 26.496 142.911 26.024 141.351 26.024ZM140.471 24.168C140.735 24.208 141.047 24.232 141.367 24.232C141.687 24.232 141.983 24.208 142.247 24.168V24.904H140.471V24.168ZM141.367 22.152C142.439 22.152 143.087 22.408 143.087 22.872C143.087 23.336 142.439 23.6 141.367 23.6C140.287 23.6 139.639 23.336 139.639 22.872C139.639 22.408 140.287 22.152 141.367 22.152ZM143.071 24.904V23.952C143.623 23.712 143.943 23.344 143.943 22.872C143.943 22.024 142.943 21.512 141.367 21.512C139.783 21.512 138.791 22.024 138.791 22.872C138.791 23.344 139.103 23.712 139.647 23.944V24.904H138.095V25.56H144.631V24.904H143.071Z" fill="#333333"/>
<mask id="path-10-inside-2_13172_280072" fill="white">
<path fill-rule="evenodd" clip-rule="evenodd" d="M195 15C193.895 15 193 15.8954 193 17V55V64.5858C193 65.4767 194.077 65.9229 194.707 65.2929L205 55H269C270.105 55 271 54.1046 271 53V17C271 15.8954 270.105 15 269 15H195Z"/>
</mask>
<path fill-rule="evenodd" clip-rule="evenodd" d="M195 15C193.895 15 193 15.8954 193 17V55V64.5858C193 65.4767 194.077 65.9229 194.707 65.2929L205 55H269C270.105 55 271 54.1046 271 53V17C271 15.8954 270.105 15 269 15H195Z" fill="#F4F4F4"/>
<path d="M194.707 65.2929L194 64.5858H194L194.707 65.2929ZM205 55V54H204.586L204.293 54.2929L205 55ZM194 17C194 16.4477 194.448 16 195 16V14C193.343 14 192 15.3431 192 17H194ZM194 55V17H192V55H194ZM194 64.5858V55H192V64.5858H194ZM194 64.5858H194H192C192 66.3676 194.154 67.2599 195.414 66L194 64.5858ZM204.293 54.2929L194 64.5858L195.414 66L205.707 55.7071L204.293 54.2929ZM269 54H205V56H269V54ZM270 53C270 53.5523 269.552 54 269 54V56C270.657 56 272 54.6569 272 53H270ZM270 17V53H272V17H270ZM269 16C269.552 16 270 16.4477 270 17H272C272 15.3431 270.657 14 269 14V16ZM195 16H269V14H195V16Z" fill="#777777" fill-opacity="0.08" mask="url(#path-10-inside-2_13172_280072)"/>
<path d="M211.74 27.16H209.236V26.368H208.412V27.16H205.884V27.816H211.732L211.74 27.16ZM210.372 29.376C210.372 29.76 209.836 29.968 208.828 29.968C207.82 29.968 207.276 29.76 207.276 29.376C207.276 28.992 207.82 28.784 208.828 28.784C209.836 28.784 210.372 28.992 210.372 29.376ZM206.42 29.376C206.42 30.152 207.324 30.592 208.828 30.592C210.332 30.592 211.236 30.152 211.236 29.376C211.236 28.6 210.332 28.168 208.828 28.168C207.324 28.168 206.42 28.6 206.42 29.376ZM212.108 31.016H205.556V31.68H207.172V33.64H207.996V31.68H209.668V33.64H210.492V31.68H212.116L212.108 31.016ZM213.972 27.92H215.836V27.248H213.164V31.896H213.644C214.66 31.896 215.404 31.864 216.276 31.696L216.204 31.016C215.46 31.168 214.804 31.208 213.972 31.216V27.92ZM218.3 26.384V29.24H217.444V26.536H216.668V33.256H217.444V29.912H218.3V33.608H219.084V26.384H218.3ZM221.931 31.464H221.099V33.48H226.083V32.808H221.931V31.464ZM222.707 27.36H224.371V28.808H222.707V27.36ZM223.955 30.24V29.472H226.171V28.808H225.195V27.36H226.211V26.696H220.859V27.36H221.883V28.808H220.899V29.472H223.123V30.24H220.267V30.912H226.819V30.24H223.955ZM232.047 33.104C233.559 33.104 234.615 31.928 234.615 30.032C234.615 28.136 233.559 27 232.047 27C230.535 27 229.487 28.136 229.487 30.032C229.487 31.928 230.535 33.104 232.047 33.104ZM232.047 32.296C231.071 32.296 230.439 31.408 230.439 30.032C230.439 28.648 231.071 27.808 232.047 27.808C233.023 27.808 233.663 28.648 233.663 30.032C233.663 31.408 233.023 32.296 232.047 32.296ZM235.839 33H236.767V30.464H238.943V29.688H236.767V27.888H239.327V27.104H235.839V33ZM240.37 33H241.298V30.464H243.474V29.688H241.298V27.888H243.858V27.104H240.37V33ZM245.637 29.72H248.109V27.032H244.805V27.704H247.293V29.056H244.821V31.912H245.413C246.749 31.912 247.717 31.864 248.829 31.664L248.741 30.992C247.725 31.176 246.821 31.224 245.637 31.232V29.72ZM251.253 29.2H250.141V26.376H249.309V33.624H250.141V29.888H251.253V29.2ZM254.748 29.792H253.012V27.648H254.748V29.792ZM257.052 28.272V29.152H255.548V28.272H257.052ZM255.548 29.816H257.052V31.664H257.876V26.392H257.052V27.6H255.548V26.992H252.204V30.448H255.548V29.816ZM254.004 32.808V31.184H253.172V33.48H258.044V32.808H254.004ZM221.753 37.072V41.848H225.145V37.072H221.753ZM224.337 37.728V41.184H222.561V37.728H224.337ZM226.481 36.384V43.632H227.313V36.384H226.481ZM233.64 39.168H230.336V38.248H233.64V39.168ZM234.464 36.672H233.64V37.584H230.336V36.672H229.512V39.832H234.464V36.672ZM235.272 40.616H228.72V41.28H231.56V43.624H232.384V41.28H235.272V40.616ZM239.872 40.456C240.072 39.176 240.072 38.264 240.072 37.632V37.152H236.4V37.816H239.264C239.264 38.424 239.248 39.264 239.064 40.384L239.872 40.456ZM238.256 39.224H237.448V41.4C236.944 41.408 236.456 41.416 236.016 41.416L236.104 42.096C237.368 42.096 239.024 42.064 240.512 41.816L240.472 41.216C239.768 41.304 239.008 41.352 238.256 41.384V39.224ZM242.752 39.36H241.688V36.392H240.856V43.616H241.688V40.056H242.752V39.36Z" fill="#333333"/>
<path d="M184.169 166H189.209V164.86H187.481V157.156H186.437C185.933 157.48 185.345 157.684 184.517 157.84V158.716H186.101V164.86H184.169V166ZM190.508 166H196.208V164.824H194C193.568 164.824 193.016 164.86 192.56 164.908C194.432 163.12 195.788 161.356 195.788 159.652C195.788 158.056 194.744 157 193.124 157C191.972 157 191.192 157.492 190.436 158.32L191.216 159.088C191.684 158.548 192.26 158.104 192.956 158.104C193.952 158.104 194.456 158.764 194.456 159.724C194.456 161.176 193.112 162.892 190.508 165.196V166ZM201.432 156.988H200.196V158.764C200.196 160.852 199.068 162.928 197.34 163.708L198.072 164.74C199.38 164.104 200.34 162.82 200.832 161.248C201.324 162.712 202.272 163.912 203.52 164.5L204.24 163.516C202.536 162.748 201.432 160.756 201.432 158.764V156.988ZM205.104 156.076V166.948H206.352V156.076H205.104Z" fill="black"/>
<path d="M12.4786 166.156C14.2066 166.156 15.3346 164.62 15.3346 161.548C15.3346 158.5 14.2066 157 12.4786 157C10.7506 157 9.62259 158.488 9.62259 161.548C9.62259 164.62 10.7506 166.156 12.4786 166.156ZM12.4786 165.064C11.5786 165.064 10.9426 164.104 10.9426 161.548C10.9426 159.016 11.5786 158.092 12.4786 158.092C13.3786 158.092 14.0146 159.016 14.0146 161.548C14.0146 164.104 13.3786 165.064 12.4786 165.064ZM20.5103 156.988H19.2743V158.764C19.2743 160.852 18.1463 162.928 16.4183 163.708L17.1503 164.74C18.4583 164.104 19.4183 162.82 19.9103 161.248C20.4023 162.712 21.3503 163.912 22.5983 164.5L23.3183 163.516C21.6143 162.748 20.5103 160.756 20.5103 158.764V156.988ZM24.1823 156.076V166.948H25.4303V156.076H24.1823Z" fill="black"/>
<path d="M249.479 166.156C251.207 166.156 252.335 164.62 252.335 161.548C252.335 158.5 251.207 157 249.479 157C247.751 157 246.623 158.488 246.623 161.548C246.623 164.62 247.751 166.156 249.479 166.156ZM249.479 165.064C248.579 165.064 247.943 164.104 247.943 161.548C247.943 159.016 248.579 158.092 249.479 158.092C250.379 158.092 251.015 159.016 251.015 161.548C251.015 164.104 250.379 165.064 249.479 165.064ZM257.51 156.988H256.274V158.764C256.274 160.852 255.146 162.928 253.418 163.708L254.15 164.74C255.458 164.104 256.418 162.82 256.91 161.248C257.402 162.712 258.35 163.912 259.598 164.5L260.318 163.516C258.614 162.748 257.51 160.756 257.51 158.764V156.988ZM261.182 156.076V166.948H262.43V156.076H261.182Z" fill="black"/>
<rect x="1" y="128" width="272" height="1" fill="#CCCCCC"/>
<circle cx="78" cy="129" r="3" fill="#CCCCCC"/>
<circle cx="196" cy="129" r="3" fill="#CCCCCC"/>
<circle cx="137.5" cy="128.5" r="17.5" fill="#777777"/>
<path d="M127.04 134H133.984V132.264H131.744C131.254 132.264 130.568 132.32 130.05 132.376C131.94 130.528 133.494 128.512 133.494 126.636C133.494 124.704 132.192 123.444 130.232 123.444C128.818 123.444 127.894 123.99 126.942 125.012L128.062 126.132C128.594 125.558 129.21 125.068 129.966 125.068C130.96 125.068 131.52 125.698 131.52 126.748C131.52 128.344 129.854 130.29 127.04 132.81V134ZM145.995 122.31H144.133V128.764H145.995V122.31ZM137.259 125.628C137.259 124.718 137.973 124.172 138.925 124.172C139.877 124.172 140.563 124.718 140.563 125.628C140.563 126.552 139.877 127.084 138.925 127.084C137.973 127.084 137.259 126.552 137.259 125.628ZM142.355 125.628C142.355 123.92 140.885 122.688 138.925 122.688C136.951 122.688 135.467 123.92 135.467 125.628C135.467 127.35 136.951 128.582 138.925 128.582C140.885 128.582 142.355 127.35 142.355 125.628ZM139.247 133.622V132.81H145.995V129.296H137.399V130.71H144.161V131.494H137.413V135.05H146.317V133.622H139.247Z" fill="white"/>
<circle cx="255.5" cy="128.5" r="17.5" fill="#777777"/>
<path d="M248.274 134.196C250.248 134.196 251.914 133.09 251.914 131.186C251.914 129.828 251.018 128.96 249.856 128.638V128.568C250.948 128.134 251.578 127.322 251.578 126.202C251.578 124.438 250.22 123.444 248.218 123.444C247 123.444 246.006 123.934 245.11 124.718L246.16 125.978C246.776 125.404 247.378 125.068 248.12 125.068C249.002 125.068 249.506 125.544 249.506 126.356C249.506 127.28 248.89 127.938 246.986 127.938V129.408C249.24 129.408 249.842 130.052 249.842 131.06C249.842 131.998 249.128 132.516 248.078 132.516C247.14 132.516 246.384 132.054 245.768 131.452L244.802 132.754C245.53 133.58 246.636 134.196 248.274 134.196ZM263.995 122.31H262.133V128.764H263.995V122.31ZM255.259 125.628C255.259 124.718 255.973 124.172 256.925 124.172C257.877 124.172 258.563 124.718 258.563 125.628C258.563 126.552 257.877 127.084 256.925 127.084C255.973 127.084 255.259 126.552 255.259 125.628ZM260.355 125.628C260.355 123.92 258.885 122.688 256.925 122.688C254.951 122.688 253.467 123.92 253.467 125.628C253.467 127.35 254.951 128.582 256.925 128.582C258.885 128.582 260.355 127.35 260.355 125.628ZM257.247 133.622V132.81H263.995V129.296H255.399V130.71H262.161V131.494H255.413V135.05H264.317V133.622H257.247Z" fill="white"/>
<circle cx="18.5" cy="128.5" r="17.5" fill="#777777"/>
<path d="M8.58648 134H14.8165V132.334H12.8705V123.626H11.3445C10.6865 124.046 9.97248 124.312 8.93648 124.508V125.782H10.8125V132.334H8.58648V134ZM26.9946 122.31H25.1326V128.764H26.9946V122.31ZM18.2586 125.628C18.2586 124.718 18.9726 124.172 19.9246 124.172C20.8766 124.172 21.5626 124.718 21.5626 125.628C21.5626 126.552 20.8766 127.084 19.9246 127.084C18.9726 127.084 18.2586 126.552 18.2586 125.628ZM23.3546 125.628C23.3546 123.92 21.8846 122.688 19.9246 122.688C17.9506 122.688 16.4666 123.92 16.4666 125.628C16.4666 127.35 17.9506 128.582 19.9246 128.582C21.8846 128.582 23.3546 127.35 23.3546 125.628ZM20.2466 133.622V132.81H26.9946V129.296H18.3986V130.71H25.1606V131.494H18.4126V135.05H27.3166V133.622H20.2466Z" fill="white"/>
</svg>
