<svg width="268" height="421" viewBox="0 0 268 421" fill="none" xmlns="http://www.w3.org/2000/svg">
<path d="M0 25C0 11.1929 11.1929 0 25 0H243C256.807 0 268 11.1929 268 25V420H0V25Z" fill="#807E89" fill-opacity="0.5"/>
<path d="M0 25C0 11.1929 11.1929 0 25 0H243C256.807 0 268 11.1929 268 25V420H0V25Z" fill="#807E89" fill-opacity="0.5"/>
<path d="M9 28.711C9 17.6653 17.9543 8.71094 29 8.71094H238C249.046 8.71094 258 17.6652 258 28.7109V420.001H9V28.711Z" fill="white"/>
<path d="M66.4844 8.71094H200.484C200.484 18.3314 192.685 26.1303 183.065 26.1303H83.9037C74.2833 26.1303 66.4844 18.3314 66.4844 8.71094Z" fill="#807E89" fill-opacity="0.5"/>
<path d="M66.4844 8.71094H200.484C200.484 18.3314 192.685 26.1303 183.065 26.1303H83.9037C74.2833 26.1303 66.4844 18.3314 66.4844 8.71094Z" fill="#807E89" fill-opacity="0.5"/>
<rect x="268" y="420" width="268" height="48" transform="rotate(-180 268 420)" fill="url(#paint0_linear_14151_286019)"/>
<path d="M47.2872 233.042V235.374H50.4332V239.862H53.3372V227.63H50.4332V233.042H47.2872ZM48.5632 237.002C45.3292 236.144 43.8772 234.098 43.8332 232.008H47.8372V229.72H43.8332V227.564H40.9292V229.72H36.9692V232.008H40.9292C40.8852 234.274 39.4772 236.562 36.2652 237.486L37.6292 239.73C39.9832 239.048 41.5672 237.618 42.4692 235.77C43.3932 237.376 44.9772 238.63 47.2432 239.224L48.5632 237.002ZM46.4952 245.67C43.8112 245.67 42.4472 245.164 42.4472 244.064C42.4472 242.964 43.8112 242.436 46.4952 242.436C49.1352 242.436 50.5212 242.964 50.5212 244.064C50.5212 245.164 49.1352 245.67 46.4952 245.67ZM46.4952 240.214C42.1832 240.214 39.5432 241.622 39.5432 244.064C39.5432 246.484 42.1832 247.892 46.4952 247.892C50.7852 247.892 53.4252 246.484 53.4252 244.064C53.4252 241.622 50.7852 240.214 46.4952 240.214ZM74.3675 236.87C69.7475 236.122 67.2615 233.086 67.2615 230.204V228.752H64.1595V230.204C64.1595 233.02 61.6515 236.122 57.0755 236.87L58.2635 239.268C61.8055 238.63 64.3795 236.716 65.6995 234.23C67.0195 236.738 69.6155 238.63 73.1795 239.268L74.3675 236.87ZM67.1735 243.162V238.63H64.2695V243.162H56.6355V245.494H74.9835V243.162H67.1735ZM90.9097 242.524H93.8137V227.63H90.9097V229.874H86.0037V232.162H90.9097V233.658H86.0037V235.946H90.9097V242.524ZM88.0277 236.914C85.5417 237.354 83.2977 237.508 80.8557 237.552V228.906H77.9737V239.928H79.6017C82.6377 239.928 85.3217 239.818 88.3137 239.268L88.0277 236.914ZM83.3637 245.23V241.204H80.4597V247.54H94.2757V245.23H83.3637ZM112.7 243.294V240.28H118.838V237.948H107.09V235.682H118.376V228.928H104.186V231.238H115.516V233.416H104.208V240.28H109.796V243.294H102.096V245.67H120.444V243.294H112.7ZM123.347 229.038V238.146H133.181V229.038H123.347ZM130.343 231.326V235.858H126.207V231.326H130.343ZM136.239 227.63V239.554H139.165V227.63H136.239ZM132.323 239.906C128.077 239.906 125.415 241.38 125.415 243.91C125.415 246.418 128.077 247.892 132.323 247.892C136.591 247.892 139.253 246.418 139.253 243.91C139.253 241.38 136.591 239.906 132.323 239.906ZM132.323 242.172C134.963 242.172 136.371 242.722 136.371 243.91C136.371 245.076 134.963 245.67 132.323 245.67C129.705 245.67 128.297 245.076 128.297 243.91C128.297 242.722 129.705 242.172 132.323 242.172ZM164.387 227.63H161.461V237.772H164.387V227.63ZM150.659 232.844C150.659 231.414 151.781 230.556 153.277 230.556C154.773 230.556 155.851 231.414 155.851 232.844C155.851 234.296 154.773 235.132 153.277 235.132C151.781 235.132 150.659 234.296 150.659 232.844ZM158.667 232.844C158.667 230.16 156.357 228.224 153.277 228.224C150.175 228.224 147.843 230.16 147.843 232.844C147.843 235.55 150.175 237.486 153.277 237.486C156.357 237.486 158.667 235.55 158.667 232.844ZM153.783 245.406V244.13H164.387V238.608H150.879V240.83H161.505V242.062H150.901V247.65H164.893V245.406H153.783ZM175.65 229.192H172.746V232.14C172.746 236.078 171.074 239.994 167.532 241.512L169.27 243.91C171.69 242.766 173.34 240.588 174.242 237.882C175.144 240.368 176.706 242.37 179.038 243.426L180.688 241.072C177.256 239.598 175.65 235.902 175.65 232.14V229.192ZM181.678 227.608V247.936H184.582V227.608H181.678ZM204.832 230.622H200.41V227.982H197.506V230.622H193.018V232.976H204.832V230.622ZM198.936 241.314C197.704 241.314 196.758 240.412 196.758 238.916C196.758 237.42 197.704 236.518 198.936 236.518C200.19 236.518 201.158 237.42 201.158 238.916C201.158 240.412 200.19 241.314 198.936 241.314ZM198.936 234.076C196.164 234.076 194.074 236.122 194.074 238.916C194.074 241.71 196.164 243.756 198.936 243.756C201.73 243.756 203.82 241.71 203.82 238.916C203.82 236.122 201.73 234.076 198.936 234.076ZM207.12 227.63V235.594H204.458V237.948H207.12V247.892H210.024V227.63H207.12ZM222.365 245.714C219.659 245.714 218.273 245.252 218.273 244.218C218.273 243.184 219.659 242.744 222.365 242.744C225.071 242.744 226.457 243.184 226.457 244.218C226.457 245.252 225.071 245.714 222.365 245.714ZM222.365 240.544C217.987 240.544 215.347 241.864 215.347 244.218C215.347 246.572 217.987 247.914 222.365 247.914C226.743 247.914 229.405 246.572 229.405 244.218C229.405 241.864 226.743 240.544 222.365 240.544ZM220.275 235.55C220.935 235.638 221.639 235.682 222.409 235.682C223.157 235.682 223.861 235.638 224.499 235.572V237.244H220.275V235.55ZM222.409 230.138C225.181 230.138 226.765 230.688 226.765 231.832C226.765 232.932 225.181 233.504 222.409 233.504C219.659 233.504 218.075 232.932 218.075 231.832C218.075 230.688 219.659 230.138 222.409 230.138ZM227.403 237.244V234.824C228.899 234.164 229.757 233.152 229.757 231.832C229.757 229.412 226.897 227.938 222.409 227.938C217.943 227.938 215.083 229.412 215.083 231.832C215.083 233.13 215.919 234.142 217.371 234.802V237.244H213.257V239.532H231.561V237.244H227.403Z" fill="#499690"/>
<path d="M98.6236 270.188H101.036V269.168H94.9636V270.188H97.3756V271.22C97.3756 273.08 96.2596 275.096 94.5796 275.876L95.2876 276.86C96.5596 276.248 97.5316 274.964 98.0116 273.452C98.5156 274.856 99.4876 276.032 100.748 276.584L101.432 275.612C99.7396 274.892 98.6236 273.02 98.6236 271.22V270.188ZM102.296 268.088V278.924H103.544V268.088H102.296ZM111.487 270.812V271.82H113.407V274.544H114.643V268.088H113.407V270.812H111.487ZM112.111 273.224C110.491 272.66 109.567 271.316 109.567 269.96V269.816H111.823V268.82H106.027V269.816H108.319V269.972C108.319 271.46 107.347 272.9 105.667 273.5L106.303 274.484C107.587 274.028 108.499 273.068 108.979 271.88C109.435 272.924 110.299 273.776 111.499 274.196L112.111 273.224ZM111.043 277.976C109.495 277.976 108.619 277.592 108.619 276.884C108.619 276.176 109.495 275.792 111.043 275.792C112.567 275.792 113.455 276.176 113.455 276.884C113.455 277.592 112.567 277.976 111.043 277.976ZM111.043 274.832C108.775 274.832 107.383 275.6 107.383 276.884C107.383 278.18 108.775 278.936 111.043 278.936C113.299 278.936 114.691 278.18 114.691 276.884C114.691 275.6 113.299 274.832 111.043 274.832ZM125.634 268.076H124.398V276.224H125.634V268.076ZM123.63 273.632C122.766 273.728 121.854 273.788 120.918 273.824V272.54H122.946V271.532H118.914V269.768H122.886V268.76H117.678V272.54H119.682V273.872C118.65 273.908 117.642 273.92 116.742 273.92L116.91 274.916C118.926 274.916 121.434 274.856 123.714 274.532L123.63 273.632ZM119.73 277.712V275.66H118.494V278.72H125.97V277.712H119.73ZM131.052 269.228V270.236H134.916C134.7 272.732 133.356 274.64 130.512 276.008L131.172 276.992C134.892 275.192 136.188 272.456 136.188 269.228H131.052ZM138.144 268.088V278.924H139.38V268.088H138.144ZM141.899 268.916V269.924H145.679C145.463 271.64 143.927 273.044 141.443 273.8L141.959 274.784C145.115 273.824 147.023 271.784 147.023 268.916H141.899ZM144.311 275.144H143.063V278.72H150.359V277.712H144.311V275.144ZM149.927 271.256V268.088H148.691V275.936H149.927V272.276H151.475V271.256H149.927ZM154.954 275.456C154.21 275.456 153.754 274.484 153.754 272.768C153.754 271.052 154.21 270.092 154.954 270.092C155.698 270.092 156.154 271.052 156.154 272.768C156.154 274.484 155.698 275.456 154.954 275.456ZM158.422 272.192H157.258C157.126 270.164 156.25 268.928 154.954 268.928C153.55 268.928 152.626 270.392 152.626 272.768C152.626 275.144 153.55 276.62 154.954 276.62C156.274 276.62 157.162 275.324 157.27 273.212H158.422V278.408H159.574V268.292H158.422V272.192ZM160.594 268.088V278.912H161.77V268.088H160.594ZM167.793 273.14H165.153V270.008H167.793V273.14ZM169.005 269.012H163.929V274.136H169.005V269.012ZM166.401 275.252H165.153V278.72H172.449V277.712H166.401V275.252ZM172.017 271.304V268.076H170.781V276.02H172.017V272.324H173.553V271.304H172.017ZM50.5888 293.632V291.784H53.9728V290.788H47.4808V289.276H53.7328V285.844H46.2448V286.84H52.5088V288.292H46.2688V291.784H49.3528V293.632H45.0808V294.652H54.8968V293.632H50.5888ZM56.6718 285.868V290.656H61.8078V285.868H56.6718ZM60.6078 286.852V289.672H57.8838V286.852H60.6078ZM63.8118 285.1V291.532H65.0478V285.1H63.8118ZM61.4358 291.712C59.1798 291.712 57.7638 292.492 57.7638 293.812C57.7638 295.144 59.1798 295.924 61.4358 295.924C63.7038 295.924 65.1078 295.144 65.1078 293.812C65.1078 292.492 63.7038 291.712 61.4358 291.712ZM61.4358 292.684C62.9718 292.684 63.8718 293.092 63.8718 293.812C63.8718 294.544 62.9718 294.952 61.4358 294.952C59.8998 294.952 58.9998 294.544 58.9998 293.812C58.9998 293.092 59.8998 292.684 61.4358 292.684ZM73.7782 285.964H72.5302V287.752C72.5302 289.78 71.4742 291.868 69.7822 292.696L70.5622 293.68C71.7982 293.044 72.6862 291.784 73.1662 290.248C73.6342 291.7 74.5102 292.888 75.7342 293.5L76.4662 292.504C74.8102 291.736 73.7782 289.768 73.7782 287.752V285.964ZM77.6062 285.064V288.628H75.2902V289.636H77.6062V295.936H78.8542V285.064H77.6062ZM88.5613 285.076V295.948H89.8093V285.076H88.5613ZM81.4693 285.976V293.368H86.6773V285.976H85.4413V288.736H82.6933V285.976H81.4693ZM82.6933 289.72H85.4413V292.372H82.6933V289.72ZM101.328 290.38C99.1923 289.996 97.4523 288.328 97.4523 286.6V285.784H96.1443V286.6C96.1443 288.316 94.4043 289.984 92.2683 290.38L92.7963 291.4C94.5603 291.04 96.0843 289.912 96.7923 288.424C97.5003 289.912 99.0243 291.04 100.788 291.4L101.328 290.38ZM91.9323 293.512V294.532H101.748V293.512H91.9323ZM113.335 285.076V295.948H114.583V285.076H113.335ZM108.811 285.88C107.203 285.88 106.027 287.368 106.027 289.696C106.027 292.048 107.203 293.524 108.811 293.524C110.431 293.524 111.607 292.048 111.607 289.696C111.607 287.368 110.431 285.88 108.811 285.88ZM108.811 286.996C109.759 286.996 110.419 288.016 110.419 289.696C110.419 291.4 109.759 292.42 108.811 292.42C107.875 292.42 107.215 291.4 107.215 289.696C107.215 288.016 107.875 286.996 108.811 286.996ZM121.578 294.976C119.994 294.976 119.106 294.64 119.106 293.98C119.106 293.332 119.994 292.984 121.578 292.984C123.162 292.984 124.062 293.332 124.062 293.98C124.062 294.64 123.162 294.976 121.578 294.976ZM121.578 292.036C119.25 292.036 117.846 292.744 117.846 293.98C117.846 295.228 119.25 295.924 121.578 295.924C123.918 295.924 125.31 295.228 125.31 293.98C125.31 292.744 123.918 292.036 121.578 292.036ZM120.258 289.252C120.654 289.312 121.122 289.348 121.602 289.348C122.082 289.348 122.526 289.312 122.922 289.252V290.356H120.258V289.252ZM121.602 286.228C123.21 286.228 124.182 286.612 124.182 287.308C124.182 288.004 123.21 288.4 121.602 288.4C119.982 288.4 119.01 288.004 119.01 287.308C119.01 286.612 119.982 286.228 121.602 286.228ZM124.158 290.356V288.928C124.986 288.568 125.466 288.016 125.466 287.308C125.466 286.036 123.966 285.268 121.602 285.268C119.226 285.268 117.738 286.036 117.738 287.308C117.738 288.016 118.206 288.568 119.022 288.916V290.356H116.694V291.34H126.498V290.356H124.158ZM130.968 286.228V287.236H134.76C134.508 289.732 133.08 291.64 130.428 292.996L131.112 293.944C134.652 292.156 135.996 289.372 135.996 286.228H130.968ZM140.472 289.36H138.828V285.076H137.592V295.912H138.828V290.392H140.472V289.36ZM150.167 287.968H143.999V285.292H142.763V288.964H150.167V287.968ZM146.351 294.94C144.767 294.94 143.879 294.568 143.879 293.908C143.879 293.224 144.767 292.876 146.351 292.876C147.935 292.876 148.835 293.224 148.835 293.908C148.835 294.568 147.935 294.94 146.351 294.94ZM146.351 291.904C144.035 291.904 142.619 292.636 142.619 293.908C142.619 295.168 144.035 295.9 146.351 295.9C148.679 295.9 150.083 295.168 150.083 293.908C150.083 292.636 148.679 291.904 146.351 291.904ZM141.479 290.056V291.064H151.283V290.056H141.479ZM157.414 285.7C155.146 285.7 153.43 286.924 153.43 288.76C153.43 290.608 155.146 291.82 157.414 291.82C159.67 291.82 161.398 290.608 161.398 288.76C161.398 286.924 159.67 285.7 157.414 285.7ZM157.414 286.72C159.01 286.72 160.198 287.512 160.198 288.76C160.198 290.008 159.01 290.8 157.414 290.8C155.806 290.8 154.63 290.008 154.63 288.76C154.63 287.512 155.806 286.72 157.414 286.72ZM152.518 293.536V294.556H162.334V293.536H152.518ZM169.065 293.632V291.784H172.449V290.788H165.957V289.276H172.209V285.844H164.721V286.84H170.985V288.292H164.745V291.784H167.829V293.632H163.557V294.652H173.373V293.632H169.065ZM183.7 286.324H181.12V285.088H179.884V286.324H177.304V287.308H183.7V286.324ZM179.056 289.864C179.056 289.18 179.644 288.772 180.496 288.772C181.36 288.772 181.948 289.18 181.948 289.864C181.948 290.548 181.36 290.956 180.496 290.956C179.644 290.956 179.056 290.548 179.056 289.864ZM183.124 289.864C183.124 288.64 182.056 287.812 180.496 287.812C178.948 287.812 177.868 288.64 177.868 289.864C177.868 291.1 178.948 291.916 180.496 291.916C182.056 291.916 183.124 291.1 183.124 289.864ZM180.136 292.588H178.888V295.72H186.184V294.712H180.136V292.588ZM185.752 288.544V285.088H184.516V293.212H185.752V289.564H187.288V288.544H185.752ZM194.151 287.812V288.82H196.071V291.544H197.307V285.088H196.071V287.812H194.151ZM194.775 290.224C193.155 289.66 192.231 288.316 192.231 286.96V286.816H194.487V285.82H188.691V286.816H190.983V286.972C190.983 288.46 190.011 289.9 188.331 290.5L188.967 291.484C190.251 291.028 191.163 290.068 191.643 288.88C192.099 289.924 192.963 290.776 194.163 291.196L194.775 290.224ZM193.707 294.976C192.159 294.976 191.283 294.592 191.283 293.884C191.283 293.176 192.159 292.792 193.707 292.792C195.231 292.792 196.119 293.176 196.119 293.884C196.119 294.592 195.231 294.976 193.707 294.976ZM193.707 291.832C191.439 291.832 190.047 292.6 190.047 293.884C190.047 295.18 191.439 295.936 193.707 295.936C195.963 295.936 197.355 295.18 197.355 293.884C197.355 292.6 195.963 291.832 193.707 291.832ZM204.177 288.628C204.177 287.452 205.341 286.708 206.961 286.708C208.569 286.708 209.733 287.452 209.733 288.628C209.733 289.804 208.569 290.548 206.961 290.548C205.341 290.548 204.177 289.804 204.177 288.628ZM207.573 293.584V291.52C209.553 291.34 210.945 290.236 210.945 288.628C210.945 286.864 209.253 285.724 206.961 285.724C204.657 285.724 202.977 286.864 202.977 288.628C202.977 290.236 204.357 291.328 206.337 291.508V293.584H202.065V294.592H211.881V293.584H207.573ZM219.236 288.76H216.74V286.588H219.236V288.76ZM215.504 288.76H214.028V289.756H221.936V288.76H220.472V286.588H221.996V285.592H213.968V286.588H215.504V288.76ZM215.576 292.648H214.328V295.72H221.804V294.712H215.576V292.648ZM213.092 290.776V291.784H222.908V290.776H213.092Z" fill="black"/>
<path fill-rule="evenodd" clip-rule="evenodd" d="M132.018 330.002C132.345 330.001 132.671 330 132.998 330C133.325 330 133.651 330.001 133.976 330.002C134.529 330.005 134.979 329.559 134.981 329.007C134.984 328.454 134.538 328.005 133.986 328.002C133.657 328.001 133.328 328 132.998 328C132.668 328 132.339 328.001 132.009 328.002C131.457 328.005 131.011 328.455 131.014 329.007C131.016 329.559 131.466 330.005 132.018 330.002ZM139.879 328.109C139.327 328.092 138.865 328.525 138.848 329.077C138.83 329.629 139.263 330.091 139.815 330.108C140.466 330.129 141.115 330.153 141.763 330.179C142.315 330.202 142.78 329.773 142.803 329.221C142.826 328.669 142.397 328.204 141.845 328.181C141.191 328.154 140.536 328.13 139.879 328.109ZM126.15 330.109C126.702 330.092 127.136 329.63 127.118 329.078C127.1 328.526 126.638 328.093 126.086 328.11C125.427 328.131 124.77 328.155 124.114 328.182C123.562 328.205 123.133 328.671 123.156 329.223C123.179 329.775 123.644 330.204 124.196 330.181C124.846 330.154 125.497 330.13 126.15 330.109ZM147.73 328.505C147.179 328.467 146.701 328.882 146.663 329.433C146.625 329.984 147.041 330.462 147.592 330.5C148.238 330.545 148.882 330.592 149.524 330.643C150.075 330.686 150.556 330.274 150.599 329.724C150.642 329.173 150.231 328.692 149.681 328.649C149.032 328.598 148.382 328.55 147.73 328.505ZM118.336 330.505C118.887 330.466 119.303 329.989 119.265 329.438C119.226 328.887 118.749 328.471 118.198 328.509C117.54 328.555 116.884 328.604 116.23 328.655C115.679 328.699 115.268 329.181 115.311 329.731C115.355 330.282 115.836 330.693 116.387 330.649C117.035 330.598 117.685 330.55 118.336 330.505ZM155.553 329.195C155.004 329.135 154.511 329.533 154.452 330.082C154.393 330.631 154.79 331.124 155.339 331.183C155.988 331.253 156.635 331.326 157.279 331.401C157.828 331.466 158.325 331.073 158.389 330.525C158.454 329.976 158.061 329.479 157.513 329.415C156.862 329.339 156.209 329.265 155.553 329.195ZM110.544 331.195C111.093 331.136 111.49 330.643 111.431 330.094C111.371 329.545 110.878 329.148 110.329 329.207C109.673 329.278 109.019 329.352 108.368 329.429C107.819 329.493 107.427 329.991 107.492 330.539C107.557 331.088 108.054 331.48 108.602 331.415C109.247 331.339 109.895 331.266 110.544 331.195ZM163.358 330.19C162.811 330.109 162.303 330.487 162.222 331.033C162.141 331.579 162.519 332.088 163.065 332.168C163.706 332.263 164.344 332.361 164.98 332.462C165.525 332.548 166.037 332.176 166.124 331.63C166.21 331.085 165.838 330.572 165.292 330.486C164.65 330.384 164.005 330.286 163.358 330.19ZM102.786 332.19C103.332 332.109 103.709 331.6 103.628 331.054C103.547 330.508 103.038 330.131 102.492 330.212C101.839 330.309 101.188 330.409 100.54 330.512C99.995 330.599 99.6232 331.112 99.7101 331.657C99.7969 332.202 100.309 332.574 100.855 332.487C101.496 332.385 102.14 332.286 102.786 332.19ZM171.104 331.499C170.561 331.396 170.037 331.752 169.934 332.294C169.831 332.837 170.187 333.36 170.729 333.464C171.371 333.586 172.009 333.711 172.645 333.84C173.186 333.949 173.714 333.599 173.823 333.057C173.932 332.516 173.582 331.988 173.041 331.879C172.398 331.749 171.752 331.623 171.104 331.499ZM95.0768 333.5C95.6192 333.396 95.9746 332.872 95.8706 332.33C95.7666 331.787 95.2426 331.432 94.7002 331.536C94.0512 331.66 93.4052 331.788 92.762 331.919C92.2208 332.028 91.8711 332.556 91.981 333.097C92.0908 333.639 92.6187 333.988 93.1599 333.879C93.7959 333.749 94.4349 333.623 95.0768 333.5ZM178.803 333.142C178.265 333.014 177.726 333.347 177.599 333.884C177.472 334.422 177.804 334.961 178.342 335.088C178.972 335.237 179.599 335.389 180.222 335.545C180.758 335.678 181.301 335.352 181.434 334.816C181.567 334.28 181.241 333.737 180.705 333.604C180.074 333.447 179.44 333.293 178.803 333.142ZM87.4341 335.14C87.9713 335.012 88.3031 334.473 88.1751 333.936C88.0472 333.399 87.5079 333.067 86.9706 333.195C86.327 333.348 85.6868 333.505 85.0499 333.664C84.5142 333.798 84.1887 334.341 84.3229 334.877C84.4571 335.413 85.0002 335.738 85.5359 335.604C86.1652 335.447 86.798 335.292 87.4341 335.14ZM186.413 335.133C185.883 334.98 185.329 335.287 185.176 335.818C185.023 336.348 185.33 336.902 185.861 337.055C186.487 337.235 187.108 337.418 187.726 337.604C188.255 337.763 188.813 337.463 188.972 336.934C189.131 336.406 188.832 335.848 188.303 335.689C187.677 335.5 187.047 335.315 186.413 335.133ZM79.8797 337.129C80.4103 336.975 80.716 336.421 80.5625 335.89C80.409 335.36 79.8546 335.054 79.324 335.208C78.6875 335.392 78.0548 335.579 77.4261 335.77C76.8976 335.93 76.5989 336.488 76.759 337.016C76.9191 337.545 77.4774 337.844 78.006 337.684C78.6266 337.496 79.2512 337.311 79.8797 337.129ZM193.916 337.497C193.394 337.317 192.825 337.595 192.645 338.117C192.465 338.639 192.743 339.209 193.265 339.388C193.883 339.601 194.496 339.817 195.105 340.036C195.624 340.222 196.197 339.953 196.384 339.433C196.571 338.913 196.301 338.341 195.781 338.154C195.164 337.932 194.542 337.713 193.916 337.497ZM72.435 339.491C72.9568 339.31 73.2332 338.74 73.0523 338.218C72.8714 337.697 72.3017 337.42 71.7799 337.601C71.1538 337.818 70.5321 338.038 69.9151 338.262C69.3959 338.45 69.1274 339.024 69.3155 339.543C69.5037 340.062 70.0771 340.33 70.5964 340.142C71.2046 339.922 71.8175 339.705 72.435 339.491ZM201.298 340.273C200.787 340.064 200.203 340.308 199.994 340.819C199.784 341.33 200.029 341.914 200.54 342.124C201.139 342.369 201.733 342.618 202.322 342.87C202.83 343.087 203.417 342.852 203.635 342.344C203.852 341.836 203.617 341.249 203.109 341.031C202.51 340.775 201.907 340.523 201.298 340.273ZM65.139 342.255C65.6495 342.044 65.8924 341.459 65.6816 340.949C65.4708 340.438 64.886 340.195 64.3756 340.406C63.7616 340.66 63.153 340.917 62.5498 341.177C62.0427 341.396 61.8089 341.984 62.0277 342.491C62.2465 342.998 62.8349 343.232 63.342 343.013C63.9355 342.757 64.5346 342.504 65.139 342.255ZM208.497 343.495C208.001 343.252 207.402 343.458 207.16 343.955C206.918 344.451 207.124 345.05 207.62 345.292C208.201 345.576 208.776 345.862 209.345 346.152C209.837 346.403 210.439 346.208 210.69 345.716C210.941 345.224 210.745 344.622 210.253 344.371C209.674 344.075 209.089 343.783 208.497 343.495ZM58.0326 345.461C58.5281 345.217 58.732 344.617 58.4881 344.122C58.2441 343.626 57.6447 343.422 57.1492 343.666C56.8528 343.812 56.5579 343.959 56.2646 344.107C55.9709 344.255 55.6788 344.403 55.3883 344.553C54.8973 344.806 54.7042 345.409 54.9569 345.9C55.2097 346.391 55.8127 346.584 56.3037 346.331C56.5889 346.184 56.8756 346.038 57.164 345.893C57.4519 345.748 57.7415 345.604 58.0326 345.461ZM215.46 347.216C214.983 346.937 214.371 347.097 214.092 347.574C213.813 348.05 213.973 348.663 214.449 348.942C215.008 349.269 215.56 349.599 216.103 349.933C216.574 350.222 217.19 350.075 217.479 349.604C217.768 349.133 217.62 348.518 217.15 348.229C216.594 347.888 216.031 347.55 215.46 347.216ZM51.2553 349.114C51.7309 348.833 51.8889 348.22 51.6081 347.744C51.3274 347.268 50.7142 347.111 50.2386 347.391C49.6715 347.726 49.1117 348.064 48.5595 348.406C48.0899 348.697 47.9449 349.313 48.2355 349.783C48.5262 350.252 49.1425 350.397 49.6121 350.107C50.1523 349.772 50.7 349.441 51.2553 349.114ZM222.105 351.506C221.655 351.186 221.031 351.29 220.71 351.739C220.389 352.189 220.493 352.813 220.943 353.134C221.469 353.51 221.985 353.888 222.493 354.27C222.934 354.602 223.561 354.514 223.893 354.073C224.225 353.631 224.137 353.004 223.695 352.672C223.174 352.28 222.644 351.891 222.105 351.506ZM44.8253 353.298C45.2736 352.976 45.3757 352.351 45.0532 351.903C44.7307 351.454 44.1058 351.352 43.6574 351.675C43.121 352.06 42.5936 352.45 42.0753 352.843C41.6353 353.177 41.5493 353.804 41.8831 354.244C42.2169 354.684 42.8442 354.77 43.2842 354.437C43.7886 354.054 44.3024 353.674 44.8253 353.298Z" fill="#499690"/>
<circle cx="51" cy="356" r="16" fill="#777777"/>
<path d="M40.9809 352.108V353.392H44.5929C44.3049 355.84 42.9369 357.592 40.3689 358.912L41.2569 360.124C44.9289 358.264 46.1889 355.42 46.1889 352.108H40.9809ZM50.6769 355.192H49.1289V350.968H47.5449V362.008H49.1289V356.5H50.6769V355.192ZM59.1 350.98V356.92H60.696V350.98H59.1ZM53.352 357.4V361.9H60.696V357.4H59.124V358.432H54.924V357.4H53.352ZM54.924 359.644H59.124V360.64H54.924V359.644ZM54.684 351.436C52.968 351.436 51.672 352.528 51.672 354.04C51.672 355.564 52.968 356.656 54.684 356.656C56.4 356.656 57.684 355.564 57.684 354.04C57.684 352.528 56.4 351.436 54.684 351.436ZM54.684 352.744C55.524 352.744 56.136 353.236 56.136 354.04C56.136 354.868 55.524 355.348 54.684 355.348C53.844 355.348 53.22 354.868 53.22 354.04C53.22 353.236 53.844 352.744 54.684 352.744Z" fill="white"/>
<circle cx="217" cy="356" r="16" fill="#777777"/>
<path d="M207.437 355.576C209.525 355.372 210.881 354.604 211.469 353.548C212.045 354.604 213.413 355.372 215.489 355.576L216.041 354.328C213.977 354.16 212.897 353.44 212.621 352.696H215.561V351.436H207.389V352.696H210.317C210.041 353.44 208.961 354.16 206.897 354.328L207.437 355.576ZM211.445 360.856C209.957 360.856 209.213 360.628 209.213 360.088C209.213 359.56 209.957 359.32 211.445 359.32C212.933 359.32 213.677 359.56 213.677 360.088C213.677 360.628 212.933 360.856 211.445 360.856ZM211.445 358.132C209.045 358.132 207.617 358.84 207.617 360.088C207.617 361.336 209.045 362.032 211.445 362.032C213.845 362.032 215.285 361.336 215.285 360.088C215.285 358.84 213.845 358.132 211.445 358.132ZM212.249 356.272V354.952H210.665V356.272H206.477V357.532H216.461V356.272H212.249ZM221.608 357.832H223.54V359.524H221.608V357.832ZM225.1 359.524V357.832H226.648V356.572H220.24V355.36H226.396V351.688H218.656V352.948H224.836V354.124H218.668V357.832H220.048V359.524H217.504V360.82H227.524V359.524H225.1Z" fill="white"/>
<rect x="78" y="322" width="112" height="24" rx="12" fill="#499690"/>
<path d="M96.9325 331.344H99.2125V330.036H93.0205V331.344H95.3245V331.956C95.3245 333.84 94.4245 335.868 92.5765 336.696L93.4765 337.956C94.7725 337.368 95.6605 336.156 96.1525 334.716C96.6445 336.048 97.5205 337.128 98.8045 337.68L99.6685 336.432C97.8205 335.664 96.9325 333.756 96.9325 331.956V331.344ZM100.233 328.98V340.032H101.817V328.98H100.233ZM109.7 331.644V332.928H111.356V335.556H112.94V328.98H111.356V331.644H109.7ZM110.36 334.02C108.68 333.468 107.912 332.172 107.864 330.912H110.012V329.64H104.072V330.912H106.244C106.196 332.292 105.392 333.696 103.64 334.308L104.444 335.556C105.728 335.124 106.604 334.224 107.084 333.108C107.564 334.08 108.392 334.86 109.592 335.256L110.36 334.02ZM109.208 338.844C107.756 338.844 107 338.544 107 337.92C107 337.296 107.756 336.996 109.208 336.996C110.648 336.996 111.404 337.296 111.404 337.92C111.404 338.544 110.648 338.844 109.208 338.844ZM109.208 335.796C106.856 335.796 105.416 336.576 105.416 337.92C105.416 339.264 106.856 340.044 109.208 340.044C111.548 340.044 112.988 339.264 112.988 337.92C112.988 336.576 111.548 335.796 109.208 335.796ZM123.943 328.968H122.347V337.296H123.943V328.968ZM121.687 334.536C120.883 334.608 120.031 334.668 119.179 334.704V333.624H121.111V332.364H117.283V330.9H121.039V329.64H115.699V333.624H117.595V334.764C116.623 334.788 115.663 334.788 114.787 334.788L114.991 336.048C117.019 336.048 119.491 336 121.795 335.664L121.687 334.536ZM118.051 338.58V336.696H116.455V339.84H124.231V338.58H118.051ZM129.108 330.12V331.38H132.792C132.564 333.828 131.34 335.556 128.52 336.912L129.348 338.16C133.272 336.264 134.412 333.504 134.412 330.12H129.108ZM136.104 328.968V340.02H137.7V328.968H136.104ZM139.932 329.808V331.068H143.532C143.28 332.616 141.912 333.9 139.452 334.572L140.112 335.832C143.4 334.884 145.248 332.808 145.248 329.808H139.932ZM142.68 336.096H141.096V339.84H148.608V338.58H142.68V336.096ZM148.224 332.064V328.98H146.64V336.888H148.224V333.36H149.7V332.064H148.224ZM158.261 338.844C156.785 338.844 156.029 338.592 156.029 338.016C156.029 337.44 156.785 337.176 158.261 337.176C159.737 337.176 160.493 337.44 160.493 338.016C160.493 338.592 159.737 338.844 158.261 338.844ZM158.261 335.976C155.873 335.976 154.433 336.708 154.433 338.016C154.433 339.312 155.873 340.044 158.261 340.044C160.649 340.044 162.101 339.312 162.101 338.016C162.101 336.708 160.649 335.976 158.261 335.976ZM159.089 334.176V333.264H162.161V332.004H156.089V330.708H162.101V329.448H154.517V333.264H157.505V334.176H153.305V335.436H163.301V334.176H159.089ZM165.964 332.496C165.964 331.596 166.588 331.056 167.416 331.056C168.232 331.056 168.868 331.596 168.868 332.496C168.868 333.396 168.232 333.936 167.416 333.936C166.588 333.936 165.964 333.396 165.964 332.496ZM170.404 332.496C170.404 330.864 169.096 329.688 167.416 329.688C165.724 329.688 164.416 330.864 164.416 332.496C164.416 334.116 165.724 335.304 167.416 335.304C169.096 335.304 170.404 334.116 170.404 332.496ZM167.488 336.192H165.904V339.84H173.428V338.58H167.488V336.192ZM173.032 332.148V328.98H171.448V337.02H173.032V333.444H174.496V332.148H173.032Z" fill="white"/>
<path d="M70.0176 63.042V65.374H73.1636V69.862H76.0676V57.63H73.1636V63.042H70.0176ZM71.2936 67.002C68.0596 66.144 66.6076 64.098 66.5636 62.008H70.5676V59.72H66.5636V57.564H63.6596V59.72H59.6996V62.008H63.6596C63.6156 64.274 62.2076 66.562 58.9956 67.486L60.3596 69.73C62.7136 69.048 64.2976 67.618 65.1996 65.77C66.1236 67.376 67.7076 68.63 69.9736 69.224L71.2936 67.002ZM69.2256 75.67C66.5416 75.67 65.1776 75.164 65.1776 74.064C65.1776 72.964 66.5416 72.436 69.2256 72.436C71.8656 72.436 73.2516 72.964 73.2516 74.064C73.2516 75.164 71.8656 75.67 69.2256 75.67ZM69.2256 70.214C64.9136 70.214 62.2736 71.622 62.2736 74.064C62.2736 76.484 64.9136 77.892 69.2256 77.892C73.5156 77.892 76.1556 76.484 76.1556 74.064C76.1556 71.622 73.5156 70.214 69.2256 70.214ZM97.0979 66.87C92.4779 66.122 89.9919 63.086 89.9919 60.204V58.752H86.8899V60.204C86.8899 63.02 84.3819 66.122 79.8059 66.87L80.9939 69.268C84.5359 68.63 87.1099 66.716 88.4299 64.23C89.7499 66.738 92.3459 68.63 95.9099 69.268L97.0979 66.87ZM89.9039 73.162V68.63H86.9999V73.162H79.3659V75.494H97.7139V73.162H89.9039ZM113.64 72.524H116.544V57.63H113.64V59.874H108.734V62.162H113.64V63.658H108.734V65.946H113.64V72.524ZM110.758 66.914C108.272 67.354 106.028 67.508 103.586 67.552V58.906H100.704V69.928H102.332C105.368 69.928 108.052 69.818 111.044 69.268L110.758 66.914ZM106.094 75.23V71.204H103.19V77.54H117.006V75.23H106.094ZM135.431 73.294V70.28H141.569V67.948H129.821V65.682H141.107V58.928H126.917V61.238H138.247V63.416H126.939V70.28H132.527V73.294H124.827V75.67H143.175V73.294H135.431ZM146.077 59.038V68.146H155.911V59.038H146.077ZM153.073 61.326V65.858H148.937V61.326H153.073ZM158.969 57.63V69.554H161.895V57.63H158.969ZM155.053 69.906C150.807 69.906 148.145 71.38 148.145 73.91C148.145 76.418 150.807 77.892 155.053 77.892C159.321 77.892 161.983 76.418 161.983 73.91C161.983 71.38 159.321 69.906 155.053 69.906ZM155.053 72.172C157.693 72.172 159.101 72.722 159.101 73.91C159.101 75.076 157.693 75.67 155.053 75.67C152.435 75.67 151.027 75.076 151.027 73.91C151.027 72.722 152.435 72.172 155.053 72.172ZM182.102 60.622H177.68V57.982H174.776V60.622H170.288V62.976H182.102V60.622ZM176.206 71.314C174.974 71.314 174.028 70.412 174.028 68.916C174.028 67.42 174.974 66.518 176.206 66.518C177.46 66.518 178.428 67.42 178.428 68.916C178.428 70.412 177.46 71.314 176.206 71.314ZM176.206 64.076C173.434 64.076 171.344 66.122 171.344 68.916C171.344 71.71 173.434 73.756 176.206 73.756C179 73.756 181.09 71.71 181.09 68.916C181.09 66.122 179 64.076 176.206 64.076ZM184.39 57.63V65.594H181.728V67.948H184.39V77.892H187.294V57.63H184.39ZM199.634 75.714C196.928 75.714 195.542 75.252 195.542 74.218C195.542 73.184 196.928 72.744 199.634 72.744C202.34 72.744 203.726 73.184 203.726 74.218C203.726 75.252 202.34 75.714 199.634 75.714ZM199.634 70.544C195.256 70.544 192.616 71.864 192.616 74.218C192.616 76.572 195.256 77.914 199.634 77.914C204.012 77.914 206.674 76.572 206.674 74.218C206.674 71.864 204.012 70.544 199.634 70.544ZM197.544 65.55C198.204 65.638 198.908 65.682 199.678 65.682C200.426 65.682 201.13 65.638 201.768 65.572V67.244H197.544V65.55ZM199.678 60.138C202.45 60.138 204.034 60.688 204.034 61.832C204.034 62.932 202.45 63.504 199.678 63.504C196.928 63.504 195.344 62.932 195.344 61.832C195.344 60.688 196.928 60.138 199.678 60.138ZM204.672 67.244V64.824C206.168 64.164 207.026 63.152 207.026 61.832C207.026 59.412 204.166 57.938 199.678 57.938C195.212 57.938 192.352 59.412 192.352 61.832C192.352 63.13 193.188 64.142 194.64 64.802V67.244H190.526V69.532H208.83V67.244H204.672Z" fill="#FF5758"/>
<path d="M99.188 99.324H96.608V98.088H95.372V99.324H92.792V100.308H99.188V99.324ZM94.544 102.864C94.544 102.18 95.132 101.772 95.984 101.772C96.848 101.772 97.436 102.18 97.436 102.864C97.436 103.548 96.848 103.956 95.984 103.956C95.132 103.956 94.544 103.548 94.544 102.864ZM98.612 102.864C98.612 101.64 97.544 100.812 95.984 100.812C94.436 100.812 93.356 101.64 93.356 102.864C93.356 104.1 94.436 104.916 95.984 104.916C97.544 104.916 98.612 104.1 98.612 102.864ZM95.624 105.588H94.376V108.72H101.672V107.712H95.624V105.588ZM101.24 101.544V98.088H100.004V106.212H101.24V102.564H102.776V101.544H101.24ZM108.091 103.332H105.535V101.568H108.091V103.332ZM109.303 102.072H111.559V106.116H112.795V98.088H111.559V101.064H109.303V98.808H108.091V100.596H105.535V98.808H104.311V104.34H109.303V102.072ZM106.987 107.712V105.324H105.739V108.72H113.047V107.712H106.987ZM118.081 99.228V100.236H121.873C121.621 102.732 120.193 104.64 117.541 105.996L118.225 106.944C121.765 105.156 123.109 102.372 123.109 99.228H118.081ZM127.585 102.36H125.941V98.076H124.705V108.912H125.941V103.392H127.585V102.36ZM136.284 98.088V103.908H137.52V98.088H136.284ZM130.44 104.412V108.792H137.52V104.412H136.296V105.612H131.664V104.412H130.44ZM131.664 106.572H136.296V107.796H131.664V106.572ZM131.676 98.58C130.02 98.58 128.796 99.612 128.796 101.1C128.796 102.588 130.02 103.62 131.676 103.62C133.332 103.62 134.544 102.588 134.544 101.1C134.544 99.612 133.332 98.58 131.676 98.58ZM131.676 99.6C132.648 99.6 133.344 100.2 133.344 101.1C133.344 102.012 132.648 102.6 131.676 102.6C130.692 102.6 130.008 102.012 130.008 101.1C130.008 100.2 130.692 99.6 131.676 99.6ZM142.272 105.468C141.54 105.468 141.024 104.88 141.024 103.98C141.024 103.08 141.54 102.48 142.272 102.48C143.004 102.48 143.52 103.08 143.52 103.98C143.52 104.88 143.004 105.468 142.272 105.468ZM142.272 101.46C140.904 101.46 139.92 102.48 139.92 103.98C139.92 105.468 140.904 106.5 142.272 106.5C143.64 106.5 144.624 105.468 144.624 103.98C144.624 102.48 143.64 101.46 142.272 101.46ZM142.884 98.4H141.66V99.852H139.608V100.848H144.912V99.852H142.884V98.4ZM147.684 98.088V102.576H146.532V98.316H145.38V108.42H146.532V103.596H147.684V108.924H148.86V98.088H147.684ZM161.994 102.036H155.922V99.696H161.862V98.7H154.65V103.032H161.994V102.036ZM163.182 104.28H153.342V105.3H157.614V108.9H158.85V105.3H163.182V104.28ZM168.689 103.188H166.085V99.972H168.689V103.188ZM172.145 100.908V102.228H169.889V100.908H172.145ZM169.889 103.224H172.145V105.996H173.381V98.088H172.145V99.9H169.889V98.988H164.873V104.172H169.889V103.224ZM167.573 107.712V105.276H166.325V108.72H173.633V107.712H167.573ZM58.2598 122.468C57.5278 122.468 57.0118 121.88 57.0118 120.98C57.0118 120.08 57.5278 119.48 58.2598 119.48C58.9918 119.48 59.5078 120.08 59.5078 120.98C59.5078 121.88 58.9918 122.468 58.2598 122.468ZM58.2598 118.46C56.8918 118.46 55.9078 119.48 55.9078 120.98C55.9078 122.468 56.8918 123.5 58.2598 123.5C59.6278 123.5 60.6118 122.468 60.6118 120.98C60.6118 119.48 59.6278 118.46 58.2598 118.46ZM58.8718 115.4H57.6478V116.852H55.5958V117.848H60.8998V116.852H58.8718V115.4ZM63.6718 115.088V119.576H62.5198V115.316H61.3678V125.42H62.5198V120.596H63.6718V125.924H64.8478V115.088H63.6718ZM70.6549 117.188H73.0669V116.168H66.9949V117.188H69.4069V118.22C69.4069 120.08 68.2909 122.096 66.6109 122.876L67.3189 123.86C68.5909 123.248 69.5629 121.964 70.0429 120.452C70.5469 121.856 71.5189 123.032 72.7789 123.584L73.4629 122.612C71.7709 121.892 70.6549 120.02 70.6549 118.22V117.188ZM74.3269 115.088V125.924H75.5749V115.088H74.3269ZM86.1653 117.992V119.012H88.1333V123.02H89.3693V115.1H88.1333V117.992H86.1653ZM86.8372 120.524C85.2173 119.96 84.2933 118.604 84.2933 117.272V116.9H86.5493V115.904H80.7533V116.9H83.0453V117.272C83.0453 118.736 82.0613 120.164 80.3813 120.752L81.0173 121.724C82.3013 121.28 83.2133 120.332 83.6933 119.156C84.1493 120.224 85.0253 121.076 86.2253 121.484L86.8372 120.524ZM83.5853 124.712V122.336H82.3493V125.72H89.6453V124.712H83.5853ZM91.7203 116.228V117.248H93.4843C93.3763 119.42 92.8483 121.22 91.3003 122.864L92.2843 123.548C94.2163 121.448 94.6483 119.012 94.6483 116.228H91.7203ZM95.0203 116.228V117.248H96.4603C96.3763 119.588 95.9323 121.7 94.3723 123.572L95.3683 124.268C97.3003 121.904 97.6243 119.072 97.6243 116.228H95.0203ZM101.512 119.456H99.9883V115.088H98.7523V125.912H99.9883V120.476H101.512V119.456ZM106.467 117.188H108.879V116.168H102.807V117.188H105.219V118.22C105.219 120.08 104.103 122.096 102.423 122.876L103.131 123.86C104.403 123.248 105.375 121.964 105.855 120.452C106.359 121.856 107.331 123.032 108.591 123.584L109.275 122.612C107.583 121.892 106.467 120.02 106.467 118.22V117.188ZM110.139 115.088V125.924H111.387V115.088H110.139ZM122.098 118.016H120.73C120.814 117.512 120.85 116.972 120.85 116.42H116.662V117.416H119.626C119.446 119.636 118.366 121.4 116.134 122.756L116.842 123.632C118.87 122.42 120.01 120.848 120.514 119.024H122.098V120.74H120.322V121.748H122.098V125.396H123.25V115.352H122.098V118.016ZM124.282 115.088V125.924H125.47V115.088H124.282ZM136.473 118.532C134.301 118.244 132.765 117.044 132.765 115.676V115.268H131.493V115.676C131.493 117.02 129.921 118.244 127.785 118.532L128.241 119.492C129.993 119.228 131.433 118.4 132.117 117.248C132.813 118.412 134.265 119.216 136.005 119.492L136.473 118.532ZM128.325 123.368H134.601V125.936H135.837V122.372H128.325V123.368ZM132.741 120.44V118.904H131.505V120.44H127.233V121.436H137.061V120.44H132.741ZM146.487 123.632V121.784H149.871V120.788H143.379V119.276H149.631V115.844H142.143V116.84H148.407V118.292H142.167V121.784H145.251V123.632H140.979V124.652H150.795V123.632H146.487ZM152.57 115.868V120.656H157.706V115.868H152.57ZM156.506 116.852V119.672H153.782V116.852H156.506ZM159.71 115.1V121.532H160.946V115.1H159.71ZM157.334 121.712C155.078 121.712 153.662 122.492 153.662 123.812C153.662 125.144 155.078 125.924 157.334 125.924C159.602 125.924 161.006 125.144 161.006 123.812C161.006 122.492 159.602 121.712 157.334 121.712ZM157.334 122.684C158.87 122.684 159.77 123.092 159.77 123.812C159.77 124.544 158.87 124.952 157.334 124.952C155.798 124.952 154.898 124.544 154.898 123.812C154.898 123.092 155.798 122.684 157.334 122.684ZM173.421 115.076V125.948H174.669V115.076H173.421ZM168.897 115.88C167.289 115.88 166.113 117.368 166.113 119.696C166.113 122.048 167.289 123.524 168.897 123.524C170.517 123.524 171.693 122.048 171.693 119.696C171.693 117.368 170.517 115.88 168.897 115.88ZM168.897 116.996C169.845 116.996 170.505 118.016 170.505 119.696C170.505 121.4 169.845 122.42 168.897 122.42C167.961 122.42 167.301 121.4 167.301 119.696C167.301 118.016 167.961 116.996 168.897 116.996ZM181.664 124.976C180.08 124.976 179.192 124.64 179.192 123.98C179.192 123.332 180.08 122.984 181.664 122.984C183.248 122.984 184.148 123.332 184.148 123.98C184.148 124.64 183.248 124.976 181.664 124.976ZM181.664 122.036C179.336 122.036 177.932 122.744 177.932 123.98C177.932 125.228 179.336 125.924 181.664 125.924C184.004 125.924 185.396 125.228 185.396 123.98C185.396 122.744 184.004 122.036 181.664 122.036ZM180.344 119.252C180.74 119.312 181.208 119.348 181.688 119.348C182.168 119.348 182.612 119.312 183.008 119.252V120.356H180.344V119.252ZM181.688 116.228C183.296 116.228 184.268 116.612 184.268 117.308C184.268 118.004 183.296 118.4 181.688 118.4C180.068 118.4 179.096 118.004 179.096 117.308C179.096 116.612 180.068 116.228 181.688 116.228ZM184.244 120.356V118.928C185.072 118.568 185.552 118.016 185.552 117.308C185.552 116.036 184.052 115.268 181.688 115.268C179.312 115.268 177.824 116.036 177.824 117.308C177.824 118.016 178.292 118.568 179.108 118.916V120.356H176.78V121.34H186.584V120.356H184.244ZM191.054 116.228V117.236H194.846C194.594 119.732 193.166 121.64 190.514 122.996L191.198 123.944C194.738 122.156 196.082 119.372 196.082 116.228H191.054ZM200.558 119.36H198.914V115.076H197.678V125.912H198.914V120.392H200.558V119.36ZM210.253 117.968H204.085V115.292H202.849V118.964H210.253V117.968ZM206.437 124.94C204.853 124.94 203.965 124.568 203.965 123.908C203.965 123.224 204.853 122.876 206.437 122.876C208.021 122.876 208.921 123.224 208.921 123.908C208.921 124.568 208.021 124.94 206.437 124.94ZM206.437 121.904C204.121 121.904 202.705 122.636 202.705 123.908C202.705 125.168 204.121 125.9 206.437 125.9C208.765 125.9 210.169 125.168 210.169 123.908C210.169 122.636 208.765 121.904 206.437 121.904ZM201.565 120.056V121.064H211.369V120.056H201.565Z" fill="black"/>
<path d="M233 168L223 162.226V173.774L233 168ZM55 169H224V167H55V169Z" fill="#C4C4C4"/>
<circle cx="51" cy="168" r="16" fill="#777777"/>
<path d="M40.9809 164.108V165.392H44.5929C44.3049 167.84 42.9369 169.592 40.3689 170.912L41.2569 172.124C44.9289 170.264 46.1889 167.42 46.1889 164.108H40.9809ZM50.6769 167.192H49.1289V162.968H47.5449V174.008H49.1289V168.5H50.6769V167.192ZM59.1 162.98V168.92H60.696V162.98H59.1ZM53.352 169.4V173.9H60.696V169.4H59.124V170.432H54.924V169.4H53.352ZM54.924 171.644H59.124V172.64H54.924V171.644ZM54.684 163.436C52.968 163.436 51.672 164.528 51.672 166.04C51.672 167.564 52.968 168.656 54.684 168.656C56.4 168.656 57.684 167.564 57.684 166.04C57.684 164.528 56.4 163.436 54.684 163.436ZM54.684 164.744C55.524 164.744 56.136 165.236 56.136 166.04C56.136 166.868 55.524 167.348 54.684 167.348C53.844 167.348 53.22 166.868 53.22 166.04C53.22 165.236 53.844 164.744 54.684 164.744Z" fill="white"/>
<rect x="79" y="156" width="130" height="24" rx="12" fill="#FF5758"/>
<path d="M93.4141 170.336C92.8141 170.336 92.3821 169.856 92.3821 169.028C92.3821 168.2 92.8141 167.708 93.4141 167.708C94.0141 167.708 94.4461 168.2 94.4461 169.028C94.4461 169.856 94.0141 170.336 93.4141 170.336ZM93.4141 166.388C91.9981 166.388 90.9901 167.48 90.9901 169.028C90.9901 170.564 91.9981 171.656 93.4141 171.656C94.8301 171.656 95.8381 170.564 95.8381 169.028C95.8381 167.48 94.8301 166.388 93.4141 166.388ZM94.1941 163.28H92.6341V164.648H90.7501V165.908H96.0301V164.648H94.1941V163.28ZM98.7421 162.968V167.48H97.9021V163.184H96.4261V173.564H97.9021V168.752H98.7421V174.02H100.242V162.968H98.7421ZM106.073 165.344H108.353V164.036H102.161V165.344H104.465V165.956C104.465 167.84 103.565 169.868 101.717 170.696L102.617 171.956C103.913 171.368 104.801 170.156 105.293 168.716C105.785 170.048 106.661 171.128 107.945 171.68L108.809 170.432C106.961 169.664 106.073 167.756 106.073 165.956V165.344ZM109.373 162.98V174.032H110.957V162.98H109.373ZM121.487 165.836V167.12H123.215V171.044H124.799V162.98H123.215V165.836H121.487ZM122.219 168.38C120.479 167.792 119.723 166.436 119.723 165.128V164.984H121.871V163.724H115.931V164.984H118.103V165.14C118.103 166.532 117.311 167.984 115.499 168.572L116.303 169.832C117.587 169.4 118.451 168.524 118.943 167.432C119.423 168.428 120.239 169.22 121.451 169.616L122.219 168.38ZM119.099 172.58V170.372H117.515V173.84H125.051V172.58H119.099ZM126.862 164.108V165.38H128.35C128.266 167.6 127.834 169.196 126.37 170.816L127.606 171.716C129.574 169.532 129.85 167.156 129.85 164.108H126.862ZM130.234 164.108V165.38H131.41C131.326 167.84 130.93 169.688 129.466 171.536L130.714 172.412C132.646 170.024 132.898 167.3 132.898 164.108H130.234ZM136.81 167.3H135.382V162.968H133.786V174.02H135.382V168.608H136.81V167.3ZM141.909 165.344H144.189V164.036H137.997V165.344H140.301V165.956C140.301 167.84 139.401 169.868 137.553 170.696L138.453 171.956C139.749 171.368 140.637 170.156 141.129 168.716C141.621 170.048 142.497 171.128 143.781 171.68L144.645 170.432C142.797 169.664 141.909 167.756 141.909 165.956V165.344ZM145.209 162.98V174.032H146.793V162.98H145.209ZM157.131 165.896H156.063C156.123 165.38 156.159 164.852 156.159 164.288H151.863V165.548H154.587C154.383 167.708 153.423 169.304 151.239 170.636L152.139 171.74C154.203 170.516 155.307 168.98 155.799 167.156H157.131V168.656H155.595V169.928H157.131V173.552H158.607V163.22H157.131V165.896ZM159.399 162.968V174.032H160.899V162.968H159.399ZM171.878 166.304C169.382 166.004 168.218 164.78 168.218 163.496V163.172H166.598V163.496C166.598 164.744 165.41 166.004 162.926 166.304L163.514 167.54C165.362 167.276 166.706 166.496 167.402 165.404C168.098 166.508 169.442 167.276 171.302 167.54L171.878 166.304ZM163.538 171.62H169.634V174.044H171.218V170.372H163.538V171.62ZM168.206 168.332V166.904H166.622V168.332H162.434V169.592H172.43V168.332H168.206ZM183.764 162.968V174.056H185.348V162.968H183.764ZM179.408 163.748C177.74 163.748 176.504 165.26 176.504 167.684C176.504 170.12 177.74 171.644 179.408 171.644C181.076 171.644 182.312 170.12 182.312 167.684C182.312 165.26 181.076 163.748 179.408 163.748ZM179.408 165.176C180.224 165.176 180.788 166.052 180.788 167.684C180.788 169.328 180.224 170.204 179.408 170.204C178.592 170.204 178.028 169.328 178.028 167.684C178.028 166.052 178.592 165.176 179.408 165.176ZM192.199 172.844C190.723 172.844 189.967 172.592 189.967 172.028C189.967 171.464 190.723 171.224 192.199 171.224C193.675 171.224 194.431 171.464 194.431 172.028C194.431 172.592 193.675 172.844 192.199 172.844ZM192.199 170.024C189.811 170.024 188.371 170.744 188.371 172.028C188.371 173.312 189.811 174.044 192.199 174.044C194.587 174.044 196.039 173.312 196.039 172.028C196.039 170.744 194.587 170.024 192.199 170.024ZM191.059 167.3C191.419 167.348 191.803 167.372 192.223 167.372C192.631 167.372 193.015 167.348 193.363 167.312V168.224H191.059V167.3ZM192.223 164.348C193.735 164.348 194.599 164.648 194.599 165.272C194.599 165.872 193.735 166.184 192.223 166.184C190.723 166.184 189.859 165.872 189.859 165.272C189.859 164.648 190.723 164.348 192.223 164.348ZM194.947 168.224V166.904C195.763 166.544 196.231 165.992 196.231 165.272C196.231 163.952 194.671 163.148 192.223 163.148C189.787 163.148 188.227 163.952 188.227 165.272C188.227 165.98 188.683 166.532 189.475 166.892V168.224H187.231V169.472H197.215V168.224H194.947Z" fill="white"/>
<defs>
<linearGradient id="paint0_linear_14151_286019" x1="402" y1="420" x2="402" y2="468" gradientUnits="userSpaceOnUse">
<stop stop-color="white"/>
<stop offset="1" stop-color="white" stop-opacity="0"/>
</linearGradient>
</defs>
</svg>
