<svg width="273" height="176" viewBox="0 0 273 176" fill="none" xmlns="http://www.w3.org/2000/svg">
<rect x="79" width="116" height="115" fill="#73EBE0" fill-opacity="0.08"/>
<path d="M5.95156 165.87H3.71156V164.77H2.89156V165.87H0.661563V166.53H5.95156V165.87ZM1.94156 168.69C1.94156 168.07 2.49156 167.67 3.30156 167.67C4.11156 167.67 4.67156 168.07 4.67156 168.69C4.67156 169.32 4.11156 169.72 3.30156 169.72C2.49156 169.72 1.94156 169.32 1.94156 168.69ZM5.45156 168.69C5.45156 167.69 4.57156 167.03 3.30156 167.03C2.03156 167.03 1.16156 167.69 1.16156 168.69C1.16156 169.7 2.03156 170.36 3.30156 170.36C4.57156 170.36 5.45156 169.7 5.45156 168.69ZM2.83156 170.97H2.01156V173.54H7.99156V172.87H2.83156V170.97ZM7.59156 167.73V164.77H6.77156V171.5H7.59156V168.42H8.91156V167.73H7.59156ZM17.9708 169.07V168.4H16.7008C16.9208 167.34 16.9208 166.52 16.9208 165.85V165.2H10.8708V165.86H16.1108C16.1108 166.53 16.1108 167.32 15.8708 168.4H9.83078V169.07H13.4808V170.71H10.6908V171.37H16.1508V173.73H16.9708V170.71H14.3008V169.07H17.9708ZM22.21 165.55H21.4V167.16C21.4 168.86 20.31 170.58 18.99 171.21L19.49 171.88C20.54 171.34 21.4 170.22 21.81 168.87C22.24 170.15 23.1 171.21 24.12 171.71L24.61 171.05C23.28 170.45 22.21 168.8 22.21 167.16V165.55ZM25.55 164.77V173.76H26.37V164.77H25.55ZM28.6092 165.47V166.14H31.9092C31.7392 167.72 30.3592 168.99 28.2492 169.65L28.5792 170.3C31.1592 169.49 32.7892 167.79 32.7892 165.47H28.6092ZM30.4192 170.66H29.5992V173.54H35.5792V172.87H30.4192V170.66ZM35.1892 167.5V164.78H34.3692V171.33H35.1892V168.18H36.5092V167.5H35.1892Z" fill="#555555"/>
<path d="M131.479 159.156C133.207 159.156 134.335 157.62 134.335 154.548C134.335 151.5 133.207 150 131.479 150C129.751 150 128.623 151.488 128.623 154.548C128.623 157.62 129.751 159.156 131.479 159.156ZM131.479 158.064C130.579 158.064 129.943 157.104 129.943 154.548C129.943 152.016 130.579 151.092 131.479 151.092C132.379 151.092 133.015 152.016 133.015 154.548C133.015 157.104 132.379 158.064 131.479 158.064ZM139.51 149.988H138.274V151.764C138.274 153.852 137.146 155.928 135.418 156.708L136.15 157.74C137.458 157.104 138.418 155.82 138.91 154.248C139.402 155.712 140.35 156.912 141.598 157.5L142.318 156.516C140.614 155.748 139.51 153.756 139.51 151.764V149.988ZM143.182 149.076V159.948H144.43V149.076H143.182Z" fill="black"/>
<path d="M66.1687 159H71.2087V157.86H69.4807V150.156H68.4367C67.9327 150.48 67.3447 150.684 66.5167 150.84V151.716H68.1007V157.86H66.1687V159ZM72.5085 159H78.2085V157.824H76.0005C75.5685 157.824 75.0165 157.86 74.5605 157.908C76.4325 156.12 77.7885 154.356 77.7885 152.652C77.7885 151.056 76.7445 150 75.1245 150C73.9725 150 73.1925 150.492 72.4365 151.32L73.2165 152.088C73.6845 151.548 74.2605 151.104 74.9565 151.104C75.9525 151.104 76.4565 151.764 76.4565 152.724C76.4565 154.176 75.1125 155.892 72.5085 158.196V159ZM83.4322 149.988H82.1962V151.764C82.1962 153.852 81.0682 155.928 79.3402 156.708L80.0722 157.74C81.3802 157.104 82.3402 155.82 82.8322 154.248C83.3242 155.712 84.2722 156.912 85.5202 157.5L86.2402 156.516C84.5362 155.748 83.4322 153.756 83.4322 151.764V149.988ZM87.1042 149.076V159.948H88.3522V149.076H87.1042Z" fill="black"/>
<path d="M184.169 159H189.209V157.86H187.481V150.156H186.437C185.933 150.48 185.345 150.684 184.517 150.84V151.716H186.101V157.86H184.169V159ZM190.508 159H196.208V157.824H194C193.568 157.824 193.016 157.86 192.56 157.908C194.432 156.12 195.788 154.356 195.788 152.652C195.788 151.056 194.744 150 193.124 150C191.972 150 191.192 150.492 190.436 151.32L191.216 152.088C191.684 151.548 192.26 151.104 192.956 151.104C193.952 151.104 194.456 151.764 194.456 152.724C194.456 154.176 193.112 155.892 190.508 158.196V159ZM201.432 149.988H200.196V151.764C200.196 153.852 199.068 155.928 197.34 156.708L198.072 157.74C199.38 157.104 200.34 155.82 200.832 154.248C201.324 155.712 202.272 156.912 203.52 157.5L204.24 156.516C202.536 155.748 201.432 153.756 201.432 151.764V149.988ZM205.104 149.076V159.948H206.352V149.076H205.104Z" fill="black"/>
<path d="M12.4786 159.156C14.2066 159.156 15.3346 157.62 15.3346 154.548C15.3346 151.5 14.2066 150 12.4786 150C10.7506 150 9.62259 151.488 9.62259 154.548C9.62259 157.62 10.7506 159.156 12.4786 159.156ZM12.4786 158.064C11.5786 158.064 10.9426 157.104 10.9426 154.548C10.9426 152.016 11.5786 151.092 12.4786 151.092C13.3786 151.092 14.0146 152.016 14.0146 154.548C14.0146 157.104 13.3786 158.064 12.4786 158.064ZM20.5103 149.988H19.2743V151.764C19.2743 153.852 18.1463 155.928 16.4183 156.708L17.1503 157.74C18.4583 157.104 19.4183 155.82 19.9103 154.248C20.4023 155.712 21.3503 156.912 22.5983 157.5L23.3183 156.516C21.6143 155.748 20.5103 153.756 20.5103 151.764V149.988ZM24.1823 149.076V159.948H25.4303V149.076H24.1823Z" fill="black"/>
<path d="M249.479 159.156C251.207 159.156 252.335 157.62 252.335 154.548C252.335 151.5 251.207 150 249.479 150C247.751 150 246.623 151.488 246.623 154.548C246.623 157.62 247.751 159.156 249.479 159.156ZM249.479 158.064C248.579 158.064 247.943 157.104 247.943 154.548C247.943 152.016 248.579 151.092 249.479 151.092C250.379 151.092 251.015 152.016 251.015 154.548C251.015 157.104 250.379 158.064 249.479 158.064ZM257.51 149.988H256.274V151.764C256.274 153.852 255.146 155.928 253.418 156.708L254.15 157.74C255.458 157.104 256.418 155.82 256.91 154.248C257.402 155.712 258.35 156.912 259.598 157.5L260.318 156.516C258.614 155.748 257.51 153.756 257.51 151.764V149.988ZM261.182 149.076V159.948H262.43V149.076H261.182Z" fill="black"/>
<rect x="1" y="121" width="272" height="1" fill="#CCCCCC"/>
<circle cx="78" cy="122" r="3" fill="#CCCCCC"/>
<circle cx="196" cy="122" r="3" fill="#CCCCCC"/>
<circle cx="137.5" cy="121.5" r="17.5" fill="#777777"/>
<path d="M127.04 127H133.984V125.264H131.744C131.254 125.264 130.568 125.32 130.05 125.376C131.94 123.528 133.494 121.512 133.494 119.636C133.494 117.704 132.192 116.444 130.232 116.444C128.818 116.444 127.894 116.99 126.942 118.012L128.062 119.132C128.594 118.558 129.21 118.068 129.966 118.068C130.96 118.068 131.52 118.698 131.52 119.748C131.52 121.344 129.854 123.29 127.04 125.81V127ZM145.995 115.31H144.133V121.764H145.995V115.31ZM137.259 118.628C137.259 117.718 137.973 117.172 138.925 117.172C139.877 117.172 140.563 117.718 140.563 118.628C140.563 119.552 139.877 120.084 138.925 120.084C137.973 120.084 137.259 119.552 137.259 118.628ZM142.355 118.628C142.355 116.92 140.885 115.688 138.925 115.688C136.951 115.688 135.467 116.92 135.467 118.628C135.467 120.35 136.951 121.582 138.925 121.582C140.885 121.582 142.355 120.35 142.355 118.628ZM139.247 126.622V125.81H145.995V122.296H137.399V123.71H144.161V124.494H137.413V128.05H146.317V126.622H139.247Z" fill="white"/>
<circle cx="255.5" cy="121.5" r="17.5" fill="#777777"/>
<path d="M248.274 127.196C250.248 127.196 251.914 126.09 251.914 124.186C251.914 122.828 251.018 121.96 249.856 121.638V121.568C250.948 121.134 251.578 120.322 251.578 119.202C251.578 117.438 250.22 116.444 248.218 116.444C247 116.444 246.006 116.934 245.11 117.718L246.16 118.978C246.776 118.404 247.378 118.068 248.12 118.068C249.002 118.068 249.506 118.544 249.506 119.356C249.506 120.28 248.89 120.938 246.986 120.938V122.408C249.24 122.408 249.842 123.052 249.842 124.06C249.842 124.998 249.128 125.516 248.078 125.516C247.14 125.516 246.384 125.054 245.768 124.452L244.802 125.754C245.53 126.58 246.636 127.196 248.274 127.196ZM263.995 115.31H262.133V121.764H263.995V115.31ZM255.259 118.628C255.259 117.718 255.973 117.172 256.925 117.172C257.877 117.172 258.563 117.718 258.563 118.628C258.563 119.552 257.877 120.084 256.925 120.084C255.973 120.084 255.259 119.552 255.259 118.628ZM260.355 118.628C260.355 116.92 258.885 115.688 256.925 115.688C254.951 115.688 253.467 116.92 253.467 118.628C253.467 120.35 254.951 121.582 256.925 121.582C258.885 121.582 260.355 120.35 260.355 118.628ZM257.247 126.622V125.81H263.995V122.296H255.399V123.71H262.161V124.494H255.413V128.05H264.317V126.622H257.247Z" fill="white"/>
<circle cx="18.5" cy="121.5" r="17.5" fill="#777777"/>
<path d="M8.58648 127H14.8165V125.334H12.8705V116.626H11.3445C10.6865 117.046 9.97248 117.312 8.93648 117.508V118.782H10.8125V125.334H8.58648V127ZM26.9946 115.31H25.1326V121.764H26.9946V115.31ZM18.2586 118.628C18.2586 117.718 18.9726 117.172 19.9246 117.172C20.8766 117.172 21.5626 117.718 21.5626 118.628C21.5626 119.552 20.8766 120.084 19.9246 120.084C18.9726 120.084 18.2586 119.552 18.2586 118.628ZM23.3546 118.628C23.3546 116.92 21.8846 115.688 19.9246 115.688C17.9506 115.688 16.4666 116.92 16.4666 118.628C16.4666 120.35 17.9506 121.582 19.9246 121.582C21.8846 121.582 23.3546 120.35 23.3546 118.628ZM20.2466 126.622V125.81H26.9946V122.296H18.3986V123.71H25.1606V124.494H18.4126V128.05H27.3166V126.622H20.2466Z" fill="white"/>
<path d="M21 59C46.318 59 67.8472 74.6627 75.7604 96.5" stroke="#FF5758" stroke-linecap="round" stroke-dasharray="2 6"/>
<path d="M252.758 59C227.44 59 205.911 74.6627 197.997 96.5" stroke="#FF5758" stroke-linecap="round" stroke-dasharray="2 6"/>
<path d="M195 115C195 84.0721 169.033 59 137 59C104.967 59 79 84.0721 79 115" stroke="#499690" stroke-dasharray="2 6"/>
<path d="M114.129 13.77H111.979V12.74H110.949V13.77H108.799V14.59H114.129V13.77ZM110.259 16.72C110.259 16.15 110.749 15.81 111.459 15.81C112.179 15.81 112.669 16.15 112.669 16.72C112.669 17.29 112.179 17.63 111.459 17.63C110.749 17.63 110.259 17.29 110.259 16.72ZM113.649 16.72C113.649 15.7 112.759 15.01 111.459 15.01C110.169 15.01 109.269 15.7 109.269 16.72C109.269 17.75 110.169 18.43 111.459 18.43C112.759 18.43 113.649 17.75 113.649 16.72ZM111.159 18.99H110.119V21.6H116.199V20.76H111.159V18.99ZM115.839 15.62V12.74H114.809V19.51H115.839V16.47H117.119V15.62H115.839ZM126.169 17.16V16.33H124.949C125.149 15.3 125.149 14.52 125.149 13.84V13.15H119.009V13.98H124.139C124.139 14.63 124.119 15.36 123.919 16.33H117.989V17.16H121.549V18.64H118.819V19.47H124.159V21.77H125.189V18.64H122.589V17.16H126.169ZM130.518 13.49H129.488V14.97C129.488 16.71 128.548 18.44 127.108 19.09L127.718 19.95C128.808 19.42 129.608 18.35 130.018 17.04C130.428 18.26 131.218 19.26 132.258 19.75L132.858 18.93C131.438 18.29 130.518 16.63 130.518 14.97V13.49ZM133.578 12.73V21.79H134.618V12.73H133.578ZM136.737 13.43V14.27H139.887C139.707 15.7 138.427 16.87 136.357 17.5L136.787 18.32C139.417 17.52 141.007 15.82 141.007 13.43H136.737ZM138.747 18.62H137.707V21.6H143.787V20.76H138.747V18.62ZM143.427 15.38V12.74H142.397V19.28H143.427V16.23H144.717V15.38H143.427ZM148.342 13.69V14.53H151.562C151.382 16.61 150.262 18.2 147.892 19.34L148.442 20.16C151.542 18.66 152.622 16.38 152.622 13.69H148.342ZM154.252 12.74V21.77H155.282V12.74H154.252ZM157.851 16.77C159.411 16.57 160.621 15.85 161.101 14.85C161.591 15.85 162.811 16.57 164.381 16.77L164.761 15.95C163.071 15.75 161.881 14.91 161.801 13.99H164.451V13.16H157.781V13.99H160.411C160.331 14.91 159.161 15.75 157.461 15.95L157.851 16.77ZM159.051 19.02H158.021V21.6H164.301V20.76H159.051V19.02ZM157.021 17.32V18.15H160.681V19.85H161.711V18.15H165.211V17.32H157.021ZM101.893 35H106.643V34.02H104.803C104.443 34.02 103.983 34.05 103.603 34.09C105.163 32.6 106.293 31.13 106.293 29.71C106.293 28.38 105.423 27.5 104.073 27.5C103.113 27.5 102.463 27.91 101.833 28.6L102.483 29.24C102.873 28.79 103.353 28.42 103.933 28.42C104.763 28.42 105.183 28.97 105.183 29.77C105.183 30.98 104.063 32.41 101.893 34.33V35ZM108.516 32.13L109.966 29.91C110.176 29.53 110.376 29.15 110.556 28.77H110.596C110.576 29.18 110.546 29.8 110.546 30.2V32.13H108.516ZM110.546 35H111.626V33.02H112.556V32.13H111.626V27.63H110.286L107.356 32.25V33.02H110.546V35ZM116.699 27.49H115.669V28.97C115.669 30.71 114.729 32.44 113.289 33.09L113.899 33.95C114.989 33.42 115.789 32.35 116.199 31.04C116.609 32.26 117.399 33.26 118.439 33.75L119.039 32.93C117.619 32.29 116.699 30.63 116.699 28.97V27.49ZM119.759 26.73V35.79H120.799V26.73H119.759ZM122.919 27.43V28.27H126.069C125.889 29.7 124.609 30.87 122.539 31.5L122.969 32.32C125.599 31.52 127.189 29.82 127.189 27.43H122.919ZM124.929 32.62H123.889V35.6H129.969V34.76H124.929V32.62ZM129.609 29.38V26.74H128.579V33.28H129.609V30.23H130.899V29.38H129.609ZM139.184 30.59C138.094 30.82 137.124 30.87 135.414 30.88V28.32H138.404V27.48H134.384V31.73H135.114C137.054 31.73 138.114 31.67 139.284 31.42L139.184 30.59ZM136.384 32.61H135.344V35.6H141.424V34.76H136.384V32.61ZM141.064 29.32V26.73H140.034V33.27H141.064V30.17H142.344V29.32H141.064ZM146.153 27.98C146.943 27.98 147.493 28.39 147.493 29.02C147.493 29.66 146.943 30.07 146.153 30.07C145.373 30.07 144.813 29.66 144.813 29.02C144.813 28.39 145.373 27.98 146.153 27.98ZM146.153 30.92C147.503 30.92 148.483 30.14 148.483 29.02C148.483 27.91 147.503 27.13 146.153 27.13C144.803 27.13 143.823 27.91 143.823 29.02C143.823 30.14 144.803 30.92 146.153 30.92ZM149.063 31.26C147.113 31.55 144.843 31.58 143.213 31.58L143.333 32.43C144.033 32.43 144.833 32.42 145.683 32.39V35.5H146.713V32.33C147.513 32.27 148.343 32.18 149.133 32.02L149.063 31.26ZM149.653 26.74V35.78H150.683V26.74H149.653ZM161.108 31.37H162.138V26.73H161.108V28.24H159.278V29.07H161.108V31.37ZM159.988 30.42C158.638 29.98 157.858 28.92 157.858 27.78V27.02H156.828V27.78C156.828 29.02 156.038 30.15 154.628 30.61L155.158 31.42C156.218 31.05 156.968 30.32 157.368 29.38C157.748 30.22 158.468 30.89 159.448 31.22L159.988 30.42ZM157.298 34.85V34.08H162.138V31.8H156.258V32.6H161.118V33.32H156.278V35.66H162.448V34.85H157.298ZM168.708 29.01V29.85H170.308V32.12H171.338V26.74H170.308V29.01H168.708ZM169.228 31.02C167.878 30.55 167.108 29.43 167.108 28.3V28.18H168.988V27.35H164.158V28.18H166.068V28.31C166.068 29.55 165.258 30.75 163.858 31.25L164.388 32.07C165.458 31.69 166.218 30.89 166.618 29.9C166.998 30.77 167.718 31.48 168.718 31.83L169.228 31.02ZM168.338 34.98C167.048 34.98 166.318 34.66 166.318 34.07C166.318 33.48 167.048 33.16 168.338 33.16C169.608 33.16 170.348 33.48 170.348 34.07C170.348 34.66 169.608 34.98 168.338 34.98ZM168.338 32.36C166.448 32.36 165.288 33 165.288 34.07C165.288 35.15 166.448 35.78 168.338 35.78C170.218 35.78 171.378 35.15 171.378 34.07C171.378 33 170.218 32.36 168.338 32.36Z" fill="#333333"/>
<rect x="98" y="48" width="78" height="25" rx="12.5" fill="#499690"/>
<path d="M110.443 58.488H113.095V57.228H108.883V64.572H109.639C111.259 64.572 112.351 64.524 113.587 64.284L113.455 62.988C112.483 63.18 111.595 63.252 110.443 63.276V58.488ZM114.259 60.012H112.339V61.296H114.259V66.54H115.735V56.184H114.259V60.012ZM116.551 55.968V67.02H118.051V55.968H116.551ZM127.17 55.968V67.056H128.754V55.968H127.17ZM122.814 56.748C121.146 56.748 119.91 58.26 119.91 60.684C119.91 63.12 121.146 64.644 122.814 64.644C124.482 64.644 125.718 63.12 125.718 60.684C125.718 58.26 124.482 56.748 122.814 56.748ZM122.814 58.176C123.63 58.176 124.194 59.052 124.194 60.684C124.194 62.328 123.63 63.204 122.814 63.204C121.998 63.204 121.434 62.328 121.434 60.684C121.434 59.052 121.998 58.176 122.814 58.176ZM132.713 61.212H135.881V59.976H132.713V58.176H136.253V56.904H131.141V64.548H132.041C133.901 64.548 135.317 64.512 136.913 64.26L136.769 62.988C135.413 63.204 134.201 63.264 132.713 63.276V61.212ZM138.329 55.968V59.868H136.433V61.14H138.329V67.056H139.913V55.968H138.329ZM151.967 55.968V67.056H153.551V55.968H151.967ZM147.611 56.748C145.943 56.748 144.707 58.26 144.707 60.684C144.707 63.12 145.943 64.644 147.611 64.644C149.279 64.644 150.515 63.12 150.515 60.684C150.515 58.26 149.279 56.748 147.611 56.748ZM147.611 58.176C148.427 58.176 148.991 59.052 148.991 60.684C148.991 62.328 148.427 63.204 147.611 63.204C146.795 63.204 146.231 62.328 146.231 60.684C146.231 59.052 146.795 58.176 147.611 58.176ZM160.402 65.844C158.926 65.844 158.17 65.592 158.17 65.028C158.17 64.464 158.926 64.224 160.402 64.224C161.878 64.224 162.634 64.464 162.634 65.028C162.634 65.592 161.878 65.844 160.402 65.844ZM160.402 63.024C158.014 63.024 156.574 63.744 156.574 65.028C156.574 66.312 158.014 67.044 160.402 67.044C162.79 67.044 164.242 66.312 164.242 65.028C164.242 63.744 162.79 63.024 160.402 63.024ZM159.262 60.3C159.622 60.348 160.006 60.372 160.426 60.372C160.834 60.372 161.218 60.348 161.566 60.312V61.224H159.262V60.3ZM160.426 57.348C161.938 57.348 162.802 57.648 162.802 58.272C162.802 58.872 161.938 59.184 160.426 59.184C158.926 59.184 158.062 58.872 158.062 58.272C158.062 57.648 158.926 57.348 160.426 57.348ZM163.15 61.224V59.904C163.966 59.544 164.434 58.992 164.434 58.272C164.434 56.952 162.874 56.148 160.426 56.148C157.99 56.148 156.43 56.952 156.43 58.272C156.43 58.98 156.886 59.532 157.678 59.892V61.224H155.434V62.472H165.418V61.224H163.15Z" fill="white"/>
<rect x="1" y="48" width="78" height="25" rx="12.5" fill="#FF5758"/>
<path d="M13.443 58.488H16.095V57.228H11.883V64.572H12.639C14.259 64.572 15.351 64.524 16.587 64.284L16.455 62.988C15.483 63.18 14.595 63.252 13.443 63.276V58.488ZM17.259 60.012H15.339V61.296H17.259V66.54H18.735V56.184H17.259V60.012ZM19.551 55.968V67.02H21.051V55.968H19.551ZM30.17 55.968V67.056H31.754V55.968H30.17ZM25.814 56.748C24.146 56.748 22.91 58.26 22.91 60.684C22.91 63.12 24.146 64.644 25.814 64.644C27.482 64.644 28.718 63.12 28.718 60.684C28.718 58.26 27.482 56.748 25.814 56.748ZM25.814 58.176C26.63 58.176 27.194 59.052 27.194 60.684C27.194 62.328 26.63 63.204 25.814 63.204C24.998 63.204 24.434 62.328 24.434 60.684C24.434 59.052 24.998 58.176 25.814 58.176ZM35.7131 61.212H38.8811V59.976H35.7131V58.176H39.2531V56.904H34.1411V64.548H35.0411C36.9011 64.548 38.3171 64.512 39.9131 64.26L39.7691 62.988C38.4131 63.204 37.2011 63.264 35.7131 63.276V61.212ZM41.3291 55.968V59.868H39.4331V61.14H41.3291V67.056H42.9131V55.968H41.3291ZM51.3909 59.04H53.5869V57.78H51.4029V56.244H49.8189V57.78H47.5749V59.04H49.8189V59.424C49.8189 61.08 48.9909 62.952 47.2029 63.78L48.0549 64.992C49.2909 64.44 50.1429 63.324 50.6229 62.004C51.0789 63.228 51.8829 64.26 53.0589 64.8L53.8989 63.6C52.1709 62.772 51.3909 60.984 51.3909 59.424V59.04ZM57.6549 60.276H56.0469V55.992H54.4629V67.032H56.0469V61.584H57.6549V60.276ZM64.686 60.564C63.486 60.816 62.394 60.888 60.426 60.9V58.116H63.798V56.856H58.854V62.172H59.778C62.226 62.172 63.486 62.112 64.842 61.812L64.686 60.564ZM61.59 63.132H60.006V66.84H67.53V65.58H61.59V63.132ZM67.134 58.992V55.98H65.55V63.972H67.134V60.288H68.598V58.992H67.134Z" fill="white"/>
<rect x="195" y="48" width="78" height="25" rx="12.5" fill="#FF5758"/>
<path d="M207.443 58.488H210.095V57.228H205.883V64.572H206.639C208.259 64.572 209.351 64.524 210.587 64.284L210.455 62.988C209.483 63.18 208.595 63.252 207.443 63.276V58.488ZM211.259 60.012H209.339V61.296H211.259V66.54H212.735V56.184H211.259V60.012ZM213.551 55.968V67.02H215.051V55.968H213.551ZM224.17 55.968V67.056H225.754V55.968H224.17ZM219.814 56.748C218.146 56.748 216.91 58.26 216.91 60.684C216.91 63.12 218.146 64.644 219.814 64.644C221.482 64.644 222.718 63.12 222.718 60.684C222.718 58.26 221.482 56.748 219.814 56.748ZM219.814 58.176C220.63 58.176 221.194 59.052 221.194 60.684C221.194 62.328 220.63 63.204 219.814 63.204C218.998 63.204 218.434 62.328 218.434 60.684C218.434 59.052 218.998 58.176 219.814 58.176ZM229.713 61.212H232.881V59.976H229.713V58.176H233.253V56.904H228.141V64.548H229.041C230.901 64.548 232.317 64.512 233.913 64.26L233.769 62.988C232.413 63.204 231.201 63.264 229.713 63.276V61.212ZM235.329 55.968V59.868H233.433V61.14H235.329V67.056H236.913V55.968H235.329ZM245.391 59.04H247.587V57.78H245.403V56.244H243.819V57.78H241.575V59.04H243.819V59.424C243.819 61.08 242.991 62.952 241.203 63.78L242.055 64.992C243.291 64.44 244.143 63.324 244.623 62.004C245.079 63.228 245.883 64.26 247.059 64.8L247.899 63.6C246.171 62.772 245.391 60.984 245.391 59.424V59.04ZM251.655 60.276H250.047V55.992H248.463V67.032H250.047V61.584H251.655V60.276ZM258.686 60.564C257.486 60.816 256.394 60.888 254.426 60.9V58.116H257.798V56.856H252.854V62.172H253.778C256.226 62.172 257.486 62.112 258.842 61.812L258.686 60.564ZM255.59 63.132H254.006V66.84H261.53V65.58H255.59V63.132ZM261.134 58.992V55.98H259.55V63.972H261.134V60.288H262.598V58.992H261.134Z" fill="white"/>
<path d="M179 23.5C178.724 23.5 178.5 23.7239 178.5 24C178.5 24.2761 178.724 24.5 179 24.5V23.5ZM195 24L190 21.1132V26.8868L195 24ZM179 24.5H190.5V23.5H179V24.5Z" fill="#499690"/>
<path d="M95 23.5C95.2761 23.5 95.5 23.7239 95.5 24C95.5 24.2761 95.2761 24.5 95 24.5V23.5ZM79 24L84 21.1132V26.8868L79 24ZM95 24.5H83.5V23.5H95V24.5Z" fill="#499690"/>
</svg>
