<svg width="288" height="233" viewBox="0 0 288 233" fill="none" xmlns="http://www.w3.org/2000/svg">
<rect x="48" y="63" width="62" height="120" rx="4" fill="#F7F8FA"/>
<path d="M64.1938 81H69.2458V79.86H67.5178V72.408H66.4738C65.9578 72.72 65.3818 72.936 64.5418 73.092V73.968H66.1378V79.86H64.1938V81ZM73.4376 81.168C75.1896 81.168 76.2936 79.572 76.2936 76.68C76.2936 73.788 75.1896 72.252 73.4376 72.252C71.6736 72.252 70.5816 73.776 70.5816 76.68C70.5816 79.572 71.6736 81.168 73.4376 81.168ZM73.4376 80.064C72.5376 80.064 71.9016 79.14 71.9016 76.68C71.9016 74.208 72.5376 73.344 73.4376 73.344C74.3376 73.344 74.9616 74.208 74.9616 76.68C74.9616 79.14 74.3376 80.064 73.4376 80.064ZM78.0133 81H79.2733V76.644C79.2733 75.84 79.1653 74.712 79.0933 73.908H79.1413L79.8493 75.948L81.3853 80.16H82.2493L83.7853 75.948L84.5053 73.908H84.5533C84.4813 74.712 84.3733 75.84 84.3733 76.644V81H85.6573V72.168H84.0493L82.4533 76.644C82.2613 77.22 82.0933 77.82 81.8773 78.42H81.8293C81.6253 77.82 81.4453 77.22 81.2293 76.644L79.6213 72.168H78.0133V81ZM87.9743 81H90.9383C92.8943 81 94.3103 80.16 94.3103 78.408C94.3103 77.22 93.5903 76.524 92.5823 76.308V76.26C93.3743 75.984 93.8303 75.192 93.8303 74.34C93.8303 72.744 92.5223 72.168 90.7223 72.168H87.9743V81ZM89.3783 75.852V73.26H90.6023C91.8383 73.26 92.4623 73.608 92.4623 74.532C92.4623 75.348 91.9103 75.852 90.5663 75.852H89.3783ZM89.3783 79.908V76.908H90.7823C92.1863 76.908 92.9423 77.352 92.9423 78.348C92.9423 79.416 92.1503 79.908 90.7823 79.908H89.3783ZM71.0929 86.408V87.2C71.0929 88.688 70.1329 90.14 68.4169 90.74L69.0649 91.736C71.0089 91.052 72.1249 89.252 72.1249 87.2V86.408H71.0929ZM71.3329 86.408V87.2C71.3329 89.144 72.4129 90.812 74.2849 91.46L74.9569 90.512C73.2769 89.948 72.3529 88.604 72.3529 87.2V86.408H71.3329ZM68.7889 85.916V86.924H74.6569V85.916H68.7889ZM75.8089 85.028V93.056H77.0689V85.028H75.8089ZM76.6969 88.304V89.348H78.6169V88.304H76.6969ZM70.1329 94.76V95.78H77.5129V94.76H70.1329ZM70.1329 92.312V95.276H71.3929V92.312H70.1329ZM84.472 87.38V88.4H87.64V87.38H84.472ZM84.472 90.824V91.844H87.64V90.824H84.472ZM82.504 85.832C80.884 85.832 79.732 87.332 79.732 89.696C79.732 92.06 80.884 93.572 82.504 93.572C84.124 93.572 85.276 92.06 85.276 89.696C85.276 87.332 84.124 85.832 82.504 85.832ZM82.504 86.972C83.452 86.972 84.088 87.992 84.088 89.696C84.088 91.412 83.452 92.444 82.504 92.444C81.568 92.444 80.92 91.412 80.92 89.696C80.92 87.992 81.568 86.972 82.504 86.972ZM87.4 85.016V96.008H88.648V85.016H87.4Z" fill="#555555"/>
<path d="M48 103H110V179C110 181.209 108.209 183 106 183H52C49.7909 183 48 181.209 48 179V103Z" fill="#73EBE0" fill-opacity="0.5"/>
<path d="M63.6898 141H69.4018V139.824H67.1578C66.7138 139.824 66.1618 139.872 65.7058 139.92C67.5418 137.988 68.9818 136.404 68.9818 134.844C68.9818 133.272 67.9378 132.252 66.3178 132.252C65.1658 132.252 64.3858 132.744 63.6178 133.56L64.4098 134.328C64.8778 133.8 65.4538 133.356 66.1498 133.356C67.1338 133.356 67.6378 133.968 67.6378 134.904C67.6378 136.26 66.1498 137.784 63.6898 140.196V141ZM73.4376 141.168C75.1896 141.168 76.2936 139.572 76.2936 136.68C76.2936 133.788 75.1896 132.252 73.4376 132.252C71.6736 132.252 70.5816 133.776 70.5816 136.68C70.5816 139.572 71.6736 141.168 73.4376 141.168ZM73.4376 140.064C72.5376 140.064 71.9016 139.14 71.9016 136.68C71.9016 134.208 72.5376 133.344 73.4376 133.344C74.3376 133.344 74.9616 134.208 74.9616 136.68C74.9616 139.14 74.3376 140.064 73.4376 140.064ZM78.0133 141H79.2733V136.644C79.2733 135.84 79.1653 134.712 79.0933 133.908H79.1413L79.8493 135.948L81.3853 140.16H82.2493L83.7853 135.948L84.5053 133.908H84.5533C84.4813 134.712 84.3733 135.84 84.3733 136.644V141H85.6573V132.168H84.0493L82.4533 136.644C82.2613 137.22 82.0933 137.82 81.8773 138.42H81.8293C81.6253 137.82 81.4453 137.22 81.2293 136.644L79.6213 132.168H78.0133V141ZM87.9743 141H90.9383C92.8943 141 94.3103 140.16 94.3103 138.408C94.3103 137.22 93.5903 136.524 92.5823 136.308V136.26C93.3743 135.984 93.8303 135.192 93.8303 134.34C93.8303 132.744 92.5223 132.168 90.7223 132.168H87.9743V141ZM89.3783 135.852V133.26H90.6023C91.8383 133.26 92.4623 133.608 92.4623 134.532C92.4623 135.348 91.9103 135.852 90.5663 135.852H89.3783ZM89.3783 139.908V136.908H90.7823C92.1863 136.908 92.9423 137.352 92.9423 138.348C92.9423 139.416 92.1503 139.908 90.7823 139.908H89.3783ZM71.0929 145.928V147.728C71.0929 149.756 70.0249 151.856 68.3209 152.684L69.0889 153.692C70.9729 152.732 72.1129 150.284 72.1129 147.728V145.928H71.0929ZM71.3329 145.928V147.728C71.3329 150.2 72.4249 152.54 74.2489 153.488L75.0169 152.492C73.3729 151.676 72.3409 149.684 72.3409 147.728V145.928H71.3329ZM75.7489 145.028V155.996H77.0089V145.028H75.7489ZM76.7209 149.372V150.416H78.7129V149.372H76.7209ZM81.892 148.724V150.764H83.14V148.724H81.892ZM85.84 148.724V150.764H87.088V148.724H85.84ZM79.54 150.356V151.352H89.452V150.356H79.54ZM84.484 152.06C82.12 152.06 80.704 152.768 80.704 154.016C80.704 155.276 82.12 155.984 84.484 155.984C86.836 155.984 88.264 155.276 88.264 154.016C88.264 152.768 86.836 152.06 84.484 152.06ZM84.484 153.02C86.092 153.02 86.992 153.368 86.992 154.016C86.992 154.676 86.092 155.024 84.484 155.024C82.876 155.024 81.976 154.676 81.976 154.016C81.976 153.368 82.876 153.02 84.484 153.02ZM84.496 145.208C82.096 145.208 80.596 145.988 80.596 147.284C80.596 148.58 82.096 149.336 84.496 149.336C86.896 149.336 88.408 148.58 88.408 147.284C88.408 145.988 86.896 145.208 84.496 145.208ZM84.496 146.18C86.14 146.18 87.112 146.564 87.112 147.284C87.112 147.992 86.14 148.376 84.496 148.376C82.864 148.376 81.892 147.992 81.892 147.284C81.892 146.564 82.864 146.18 84.496 146.18Z" fill="black"/>
<rect x="178" y="19" width="62" height="40" rx="4" fill="#499690"/>
<path d="M194.195 37H199.547V35.572H197.879V28.348H196.571C195.995 28.696 195.395 28.924 194.495 29.104V30.196H196.115V35.572H194.195V37ZM203.841 37.168C205.653 37.168 206.841 35.584 206.841 32.644C206.841 29.716 205.653 28.192 203.841 28.192C202.005 28.192 200.829 29.704 200.829 32.644C200.829 35.584 202.005 37.168 203.841 37.168ZM203.841 35.788C203.073 35.788 202.497 35.056 202.497 32.644C202.497 30.232 203.073 29.56 203.841 29.56C204.609 29.56 205.173 30.232 205.173 32.644C205.173 35.056 204.609 35.788 203.841 35.788ZM208.471 37H210.055V33.292C210.055 32.452 209.923 31.216 209.827 30.376H209.875L210.595 32.464L211.963 36.208H212.983L214.351 32.464L215.083 30.376H215.143C215.047 31.216 214.903 32.452 214.903 33.292V37H216.523V28.12H214.555L213.079 32.284C212.899 32.836 212.743 33.412 212.539 33.988H212.491C212.299 33.412 212.143 32.836 211.939 32.284L210.427 28.12H208.471V37ZM218.701 37H221.869C223.813 37 225.301 36.172 225.301 34.384C225.301 33.196 224.593 32.512 223.645 32.284V32.236C224.401 31.96 224.845 31.132 224.845 30.316C224.845 28.66 223.453 28.12 221.629 28.12H218.701V37ZM220.477 31.732V29.488H221.533C222.601 29.488 223.117 29.788 223.117 30.568C223.117 31.288 222.637 31.732 221.509 31.732H220.477ZM220.477 35.632V33.052H221.713C222.937 33.052 223.573 33.424 223.573 34.288C223.573 35.2 222.913 35.632 221.713 35.632H220.477ZM206.561 40.944V52.092H208.169V40.944H206.561ZM202.181 41.724C200.501 41.724 199.265 43.26 199.265 45.684C199.265 48.132 200.501 49.668 202.181 49.668C203.861 49.668 205.097 48.132 205.097 45.684C205.097 43.26 203.861 41.724 202.181 41.724ZM202.181 43.176C203.009 43.176 203.561 44.052 203.561 45.684C203.561 47.34 203.009 48.228 202.181 48.228C201.353 48.228 200.789 47.34 200.789 45.684C200.789 44.052 201.353 43.176 202.181 43.176ZM212.668 45.468V47.4H214.264V45.468H212.668ZM217.744 40.956V47.388H219.34V40.956H217.744ZM210.16 45.96C212.236 45.972 214.768 45.948 217.18 45.612L217.096 44.628C214.756 44.856 212.128 44.856 209.992 44.856L210.16 45.96ZM211.564 47.724V48.804H217.756V49.332H211.588V51.204H213.16V50.328H219.34V47.724H211.564ZM211.588 50.904V51.996H219.592V50.904H211.588ZM215.776 46.104V47.052H218.236V46.104H215.776ZM213.52 41.112C211.852 41.112 210.736 41.772 210.736 42.78C210.736 43.8 211.852 44.448 213.52 44.448C215.176 44.448 216.292 43.8 216.292 42.78C216.292 41.772 215.176 41.112 213.52 41.112ZM213.52 42.156C214.312 42.156 214.804 42.372 214.804 42.78C214.804 43.188 214.312 43.392 213.52 43.392C212.716 43.392 212.224 43.188 212.224 42.78C212.224 42.372 212.716 42.156 213.52 42.156Z" fill="white"/>
<rect x="178" y="63" width="62" height="120" rx="4" fill="#73EBE0" fill-opacity="0.5"/>
<path d="M196.378 128.168C198.01 128.168 199.342 127.256 199.342 125.696C199.342 124.544 198.538 123.8 197.518 123.536V123.488C198.454 123.128 199.042 122.468 199.042 121.484C199.042 120.056 197.926 119.252 196.342 119.252C195.322 119.252 194.506 119.696 193.798 120.332L194.53 121.196C195.034 120.692 195.61 120.356 196.282 120.356C197.134 120.356 197.638 120.824 197.638 121.58C197.638 122.408 197.062 123.044 195.334 123.044V124.076C197.314 124.076 197.938 124.688 197.938 125.624C197.938 126.5 197.254 127.028 196.27 127.028C195.346 127.028 194.698 126.584 194.182 126.056L193.498 126.944C194.098 127.616 194.998 128.168 196.378 128.168ZM203.438 128.168C205.19 128.168 206.294 126.572 206.294 123.68C206.294 120.788 205.19 119.252 203.438 119.252C201.674 119.252 200.582 120.776 200.582 123.68C200.582 126.572 201.674 128.168 203.438 128.168ZM203.438 127.064C202.538 127.064 201.902 126.14 201.902 123.68C201.902 121.208 202.538 120.344 203.438 120.344C204.338 120.344 204.962 121.208 204.962 123.68C204.962 126.14 204.338 127.064 203.438 127.064ZM208.013 128H209.273V123.644C209.273 122.84 209.165 121.712 209.093 120.908H209.141L209.849 122.948L211.385 127.16H212.249L213.785 122.948L214.505 120.908H214.553C214.481 121.712 214.373 122.84 214.373 123.644V128H215.657V119.168H214.049L212.453 123.644C212.261 124.22 212.093 124.82 211.877 125.42H211.829C211.625 124.82 211.445 124.22 211.229 123.644L209.621 119.168H208.013V128ZM217.974 128H220.938C222.894 128 224.31 127.16 224.31 125.408C224.31 124.22 223.59 123.524 222.582 123.308V123.26C223.374 122.984 223.83 122.192 223.83 121.34C223.83 119.744 222.522 119.168 220.722 119.168H217.974V128ZM219.378 122.852V120.26H220.602C221.838 120.26 222.462 120.608 222.462 121.532C222.462 122.348 221.91 122.852 220.566 122.852H219.378ZM219.378 126.908V123.908H220.782C222.186 123.908 222.942 124.352 222.942 125.348C222.942 126.416 222.15 126.908 220.782 126.908H219.378Z" fill="black"/>
<path d="M7.98152 127.14C9.34152 127.14 10.4515 126.38 10.4515 125.08C10.4515 124.12 9.78152 123.5 8.93152 123.28V123.24C9.71152 122.94 10.2015 122.39 10.2015 121.57C10.2015 120.38 9.27152 119.71 7.95152 119.71C7.10152 119.71 6.42152 120.08 5.83152 120.61L6.44152 121.33C6.86152 120.91 7.34152 120.63 7.90152 120.63C8.61152 120.63 9.03152 121.02 9.03152 121.65C9.03152 122.34 8.55152 122.87 7.11152 122.87V123.73C8.76152 123.73 9.28152 124.24 9.28152 125.02C9.28152 125.75 8.71152 126.19 7.89152 126.19C7.12152 126.19 6.58152 125.82 6.15152 125.38L5.58152 126.12C6.08152 126.68 6.83152 127.14 7.98152 127.14ZM13.8646 127.14C15.3246 127.14 16.2446 125.81 16.2446 123.4C16.2446 120.99 15.3246 119.71 13.8646 119.71C12.3946 119.71 11.4846 120.98 11.4846 123.4C11.4846 125.81 12.3946 127.14 13.8646 127.14ZM13.8646 126.22C13.1146 126.22 12.5846 125.45 12.5846 123.4C12.5846 121.34 13.1146 120.62 13.8646 120.62C14.6146 120.62 15.1346 121.34 15.1346 123.4C15.1346 125.45 14.6146 126.22 13.8646 126.22ZM17.6778 127H18.7278V123.37C18.7278 122.7 18.6378 121.76 18.5778 121.09H18.6178L19.2078 122.79L20.4878 126.3H21.2078L22.4878 122.79L23.0878 121.09H23.1278C23.0678 121.76 22.9778 122.7 22.9778 123.37V127H24.0478V119.64H22.7078L21.3778 123.37C21.2178 123.85 21.0778 124.35 20.8978 124.85H20.8578C20.6878 124.35 20.5378 123.85 20.3578 123.37L19.0178 119.64H17.6778V127ZM25.9786 127H28.4486C30.0786 127 31.2586 126.3 31.2586 124.84C31.2586 123.85 30.6586 123.27 29.8186 123.09V123.05C30.4786 122.82 30.8586 122.16 30.8586 121.45C30.8586 120.12 29.7686 119.64 28.2686 119.64H25.9786V127ZM27.1486 122.71V120.55H28.1686C29.1986 120.55 29.7186 120.84 29.7186 121.61C29.7186 122.29 29.2586 122.71 28.1386 122.71H27.1486ZM27.1486 126.09V123.59H28.3186C29.4886 123.59 30.1186 123.96 30.1186 124.79C30.1186 125.68 29.4586 126.09 28.3186 126.09H27.1486Z" fill="#777777"/>
<path d="M38 63V183" stroke="#CCCCCC"/>
<path d="M35 63.5H41" stroke="#CCCCCC"/>
<path d="M35 182.5H41" stroke="#CCCCCC"/>
<path d="M240 213H48" stroke="#CCCCCC"/>
<path d="M239.5 210L239.5 216" stroke="#CCCCCC"/>
<path d="M48.5 210L48.5 216" stroke="#CCCCCC"/>
<path d="M67.2992 204H71.5092V203.05H70.0692V196.64H69.1992C68.7692 196.9 68.2892 197.08 67.5892 197.2V197.93H68.9192V203.05H67.2992V204ZM75.1723 195.99C73.8023 195.99 72.7823 196.84 72.7823 198.05C72.7823 199.25 73.8023 200.1 75.1723 200.1C76.5523 200.1 77.5723 199.25 77.5723 198.05C77.5723 196.84 76.5523 195.99 75.1723 195.99ZM75.1723 196.85C75.9723 196.85 76.5523 197.32 76.5523 198.05C76.5523 198.78 75.9723 199.25 75.1723 199.25C74.3823 199.25 73.7923 198.78 73.7923 198.05C73.7923 197.32 74.3823 196.85 75.1723 196.85ZM79.0923 195.69V200.32H80.1423V195.69H79.0923ZM74.1523 200.74V201.56H79.1023V202.31H74.1723V204.34H75.1923V203.08H80.1423V200.74H74.1523ZM74.1723 203.89V204.72H80.4123V203.89H74.1723ZM83.9316 197.95V198.6C83.9316 200.08 83.0916 201.63 81.6816 202.29L82.2616 203.1C83.8016 202.37 84.7516 200.52 84.7516 198.6V197.95H83.9316ZM84.1516 197.95V198.6C84.1516 200.42 85.0416 202.21 86.5516 202.93L87.1216 202.14C85.7616 201.47 84.9616 199.99 84.9616 198.6V197.95H84.1516ZM81.9616 197.23V198.07H86.9016V197.23H81.9616ZM83.9216 195.88V197.68H84.9716V195.88H83.9216ZM87.8416 195.69V204.83H88.8916V195.69H87.8416ZM88.6516 199.35V200.22H90.3116V199.35H88.6516Z" fill="#777777"/>
<path d="M130.75 221.04V229.056H132.01V221.04H130.75ZM124.846 230.76V231.78H132.322V230.76H124.846ZM124.846 228.3V231.264H126.106V228.3H124.846ZM125.698 221.64V222.732C125.698 224.316 124.75 225.888 123.01 226.524L123.658 227.532C125.626 226.788 126.742 224.868 126.742 222.732V221.64H125.698ZM125.938 221.64V222.732C125.938 224.832 127.042 226.632 128.974 227.328L129.622 226.332C127.918 225.744 126.97 224.28 126.97 222.732V221.64H125.938ZM136.617 222.924V223.356C136.617 224.736 135.669 226.032 133.989 226.548L134.589 227.532C136.533 226.92 137.637 225.264 137.637 223.356V222.924H136.617ZM136.845 222.924V223.356C136.845 225.156 137.997 226.692 139.965 227.256L140.529 226.272C138.849 225.804 137.877 224.616 137.877 223.356V222.924H136.845ZM134.313 222.264V223.272H140.181V222.264H134.313ZM136.617 220.98V222.648H137.877V220.98H136.617ZM139.857 224.064V225.084H142.161V224.064H139.857ZM141.837 221.028V227.664H143.097V221.028H141.837ZM139.437 227.904C137.145 227.904 135.741 228.648 135.741 229.944C135.741 231.228 137.145 231.984 139.437 231.984C141.729 231.984 143.133 231.228 143.133 229.944C143.133 228.648 141.729 227.904 139.437 227.904ZM139.437 228.876C140.997 228.876 141.885 229.248 141.885 229.944C141.885 230.628 140.997 231.012 139.437 231.012C137.877 231.012 136.989 230.628 136.989 229.944C136.989 229.248 137.877 228.876 139.437 228.876ZM152.84 221.028V231.996H154.1V221.028H152.84ZM149.624 222.192V222.408C149.624 225.336 148.292 227.508 145.136 229.032L145.796 230.04C149.564 228.204 150.86 225.444 150.86 222.192H149.624ZM145.676 222.192V223.2H150.188V222.192H145.676ZM163.375 221.028V228.972H164.647V221.028H163.375ZM164.275 224.232V225.276H166.195V224.232H164.275ZM160.363 221.868V222.456C160.363 224.4 158.779 225.996 156.055 226.8L156.583 227.808C159.787 226.836 161.695 224.76 161.695 221.868H160.363ZM156.511 221.868V222.888H161.023V221.868H156.511ZM157.699 230.76V231.78H165.079V230.76H157.699ZM157.699 228.168V231.192H158.959V228.168H157.699Z" fill="#777777"/>
<path d="M196.879 204H201.639V203.02H199.799C199.439 203.02 198.969 203.06 198.589 203.1C200.149 201.6 201.289 200.13 201.289 198.72C201.289 197.38 200.419 196.51 199.069 196.51C198.109 196.51 197.459 196.92 196.819 197.61L197.479 198.24C197.869 197.79 198.349 197.43 198.929 197.43C199.749 197.43 200.169 197.98 200.169 198.77C200.169 199.98 199.059 201.41 196.879 203.33V204ZM205.172 195.99C203.802 195.99 202.782 196.84 202.782 198.05C202.782 199.25 203.802 200.1 205.172 200.1C206.552 200.1 207.572 199.25 207.572 198.05C207.572 196.84 206.552 195.99 205.172 195.99ZM205.172 196.85C205.972 196.85 206.552 197.32 206.552 198.05C206.552 198.78 205.972 199.25 205.172 199.25C204.382 199.25 203.792 198.78 203.792 198.05C203.792 197.32 204.382 196.85 205.172 196.85ZM209.092 195.69V200.32H210.142V195.69H209.092ZM204.152 200.74V201.56H209.102V202.31H204.172V204.34H205.192V203.08H210.142V200.74H204.152ZM204.172 203.89V204.72H210.412V203.89H204.172ZM213.932 197.95V198.6C213.932 200.08 213.092 201.63 211.682 202.29L212.262 203.1C213.802 202.37 214.752 200.52 214.752 198.6V197.95H213.932ZM214.152 197.95V198.6C214.152 200.42 215.042 202.21 216.552 202.93L217.122 202.14C215.762 201.47 214.962 199.99 214.962 198.6V197.95H214.152ZM211.962 197.23V198.07H216.902V197.23H211.962ZM213.922 195.88V197.68H214.972V195.88H213.922ZM217.842 195.69V204.83H218.892V195.69H217.842ZM218.652 199.35V200.22H220.312V199.35H218.652Z" fill="#777777"/>
<rect x="48" y="33" width="100" height="12" fill="url(#paint0_linear_13801_282723)"/>
<path d="M158 39L148 29V49L158 39Z" fill="#FF5758"/>
<path d="M51.092 26H53.624C56.24 26 57.908 24.512 57.908 21.524C57.908 18.524 56.24 17.12 53.528 17.12H51.092V26ZM52.868 24.572V18.536H53.408C55.076 18.536 56.096 19.364 56.096 21.524C56.096 23.684 55.076 24.572 53.408 24.572H52.868ZM58.3192 26H60.1192L61.3912 21.38C61.6552 20.456 61.9072 19.436 62.1472 18.476H62.1952C62.4472 19.424 62.6992 20.456 62.9632 21.38L64.2352 26H66.0952L63.2512 17.12H61.1632L58.3192 26ZM60.0832 23.72H64.3072V22.352H60.0832V23.72ZM67.9263 26H69.7023V18.596H72.2103V17.12H65.4183V18.596H67.9263V26ZM71.9129 26H73.7129L74.9849 21.38C75.2489 20.456 75.5009 19.436 75.7409 18.476H75.7889C76.0409 19.424 76.2929 20.456 76.5569 21.38L77.8289 26H79.6889L76.8449 17.12H74.7569L71.9129 26ZM73.6769 23.72H77.9009V22.352H73.6769V23.72ZM90.4672 15.944V27.092H92.0752V15.944H90.4672ZM86.0872 16.724C84.4072 16.724 83.1712 18.26 83.1712 20.684C83.1712 23.132 84.4072 24.668 86.0872 24.668C87.7672 24.668 89.0032 23.132 89.0032 20.684C89.0032 18.26 87.7672 16.724 86.0872 16.724ZM86.0872 18.176C86.9152 18.176 87.4672 19.052 87.4672 20.684C87.4672 22.34 86.9152 23.228 86.0872 23.228C85.2592 23.228 84.6952 22.34 84.6952 20.684C84.6952 19.052 85.2592 18.176 86.0872 18.176ZM96.5742 20.468V22.4H98.1703V20.468H96.5742ZM101.65 15.956V22.388H103.246V15.956H101.65ZM94.0663 20.96C96.1423 20.972 98.6743 20.948 101.086 20.612L101.002 19.628C98.6623 19.856 96.0343 19.856 93.8983 19.856L94.0663 20.96ZM95.4703 22.724V23.804H101.662V24.332H95.4943V26.204H97.0663V25.328H103.246V22.724H95.4703ZM95.4943 25.904V26.996H103.498V25.904H95.4943ZM99.6823 21.104V22.052H102.142V21.104H99.6823ZM97.4263 16.112C95.7583 16.112 94.6423 16.772 94.6423 17.78C94.6423 18.8 95.7583 19.448 97.4263 19.448C99.0823 19.448 100.198 18.8 100.198 17.78C100.198 16.772 99.0823 16.112 97.4263 16.112ZM97.4263 17.156C98.2183 17.156 98.7103 17.372 98.7103 17.78C98.7103 18.188 98.2183 18.392 97.4263 18.392C96.6223 18.392 96.1303 18.188 96.1303 17.78C96.1303 17.372 96.6223 17.156 97.4263 17.156Z" fill="#FF5758"/>
<defs>
<linearGradient id="paint0_linear_13801_282723" x1="48" y1="45" x2="148" y2="45" gradientUnits="userSpaceOnUse">
<stop stop-color="white"/>
<stop offset="1" stop-color="#FF5758"/>
</linearGradient>
</defs>
</svg>
