<svg width="210" height="232" viewBox="0 0 210 232" fill="none" xmlns="http://www.w3.org/2000/svg">
<path d="M43.183 228H44.899V223.983C44.899 223.073 44.756 221.734 44.652 220.824H44.704L45.484 223.086L46.966 227.142H48.071L49.553 223.086L50.346 220.824H50.411C50.307 221.734 50.151 223.073 50.151 223.983V228H51.906V218.38H49.774L48.175 222.891C47.98 223.489 47.811 224.113 47.59 224.737H47.538C47.33 224.113 47.161 223.489 46.94 222.891L45.302 218.38H43.183V228ZM54.266 228H57.698C59.804 228 61.416 227.103 61.416 225.166C61.416 223.879 60.649 223.138 59.622 222.891V222.839C60.441 222.54 60.922 221.643 60.922 220.759C60.922 218.965 59.414 218.38 57.438 218.38H54.266V228ZM56.19 222.293V219.862H57.334C58.491 219.862 59.05 220.187 59.05 221.032C59.05 221.812 58.53 222.293 57.308 222.293H56.19ZM56.19 226.518V223.723H57.529C58.855 223.723 59.544 224.126 59.544 225.062C59.544 226.05 58.829 226.518 57.529 226.518H56.19Z" fill="black"/>
<path d="M24.6562 224.281V225.826H17.4854L17.3896 224.63L21.5391 218.047H23.1045L21.4092 220.884L19.3447 224.281H24.6562ZM23.5283 218.047V228H21.5596V218.047H23.5283ZM32.4219 222.148V223.871C32.4219 224.618 32.3421 225.263 32.1826 225.806C32.0231 226.343 31.793 226.785 31.4922 227.132C31.196 227.474 30.8428 227.727 30.4326 227.891C30.0225 228.055 29.5667 228.137 29.0654 228.137C28.6644 228.137 28.2907 228.087 27.9443 227.986C27.598 227.882 27.2858 227.72 27.0078 227.501C26.7344 227.282 26.4974 227.007 26.2969 226.674C26.1009 226.337 25.9505 225.936 25.8457 225.471C25.7409 225.006 25.6885 224.473 25.6885 223.871V222.148C25.6885 221.401 25.7682 220.761 25.9277 220.228C26.0918 219.69 26.3219 219.25 26.6182 218.908C26.9189 218.566 27.2744 218.316 27.6846 218.156C28.0947 217.992 28.5505 217.91 29.0518 217.91C29.4528 217.91 29.8242 217.963 30.166 218.067C30.5124 218.168 30.8245 218.325 31.1025 218.539C31.3805 218.753 31.6175 219.029 31.8135 219.366C32.0094 219.699 32.1598 220.098 32.2646 220.562C32.3695 221.023 32.4219 221.551 32.4219 222.148ZM30.4463 224.131V221.882C30.4463 221.522 30.4258 221.207 30.3848 220.938C30.3483 220.67 30.2913 220.442 30.2139 220.255C30.1364 220.063 30.0407 219.909 29.9268 219.79C29.8128 219.672 29.6829 219.585 29.5371 219.53C29.3913 219.476 29.2295 219.448 29.0518 219.448C28.8285 219.448 28.6302 219.492 28.457 219.578C28.2884 219.665 28.1449 219.804 28.0264 219.995C27.9079 220.182 27.8167 220.433 27.7529 220.747C27.6937 221.057 27.6641 221.435 27.6641 221.882V224.131C27.6641 224.491 27.6823 224.808 27.7188 225.081C27.7598 225.354 27.819 225.589 27.8965 225.785C27.9785 225.977 28.0742 226.134 28.1836 226.257C28.2975 226.375 28.4274 226.462 28.5732 226.517C28.7236 226.571 28.8877 226.599 29.0654 226.599C29.2842 226.599 29.4779 226.555 29.6465 226.469C29.8197 226.378 29.9655 226.236 30.084 226.045C30.207 225.849 30.2982 225.594 30.3574 225.279C30.4167 224.965 30.4463 224.582 30.4463 224.131ZM40.4609 222.148V223.871C40.4609 224.618 40.3812 225.263 40.2217 225.806C40.0622 226.343 39.832 226.785 39.5312 227.132C39.235 227.474 38.8818 227.727 38.4717 227.891C38.0615 228.055 37.6058 228.137 37.1045 228.137C36.7035 228.137 36.3298 228.087 35.9834 227.986C35.637 227.882 35.3249 227.72 35.0469 227.501C34.7734 227.282 34.5365 227.007 34.3359 226.674C34.14 226.337 33.9896 225.936 33.8848 225.471C33.7799 225.006 33.7275 224.473 33.7275 223.871V222.148C33.7275 221.401 33.8073 220.761 33.9668 220.228C34.1309 219.69 34.361 219.25 34.6572 218.908C34.958 218.566 35.3135 218.316 35.7236 218.156C36.1338 217.992 36.5895 217.91 37.0908 217.91C37.4919 217.91 37.8633 217.963 38.2051 218.067C38.5514 218.168 38.8636 218.325 39.1416 218.539C39.4196 218.753 39.6566 219.029 39.8525 219.366C40.0485 219.699 40.1989 220.098 40.3037 220.562C40.4085 221.023 40.4609 221.551 40.4609 222.148ZM38.4854 224.131V221.882C38.4854 221.522 38.4648 221.207 38.4238 220.938C38.3874 220.67 38.3304 220.442 38.2529 220.255C38.1755 220.063 38.0798 219.909 37.9658 219.79C37.8519 219.672 37.722 219.585 37.5762 219.53C37.4303 219.476 37.2686 219.448 37.0908 219.448C36.8675 219.448 36.6693 219.492 36.4961 219.578C36.3275 219.665 36.1839 219.804 36.0654 219.995C35.9469 220.182 35.8558 220.433 35.792 220.747C35.7327 221.057 35.7031 221.435 35.7031 221.882V224.131C35.7031 224.491 35.7214 224.808 35.7578 225.081C35.7988 225.354 35.8581 225.589 35.9355 225.785C36.0176 225.977 36.1133 226.134 36.2227 226.257C36.3366 226.375 36.4665 226.462 36.6123 226.517C36.7627 226.571 36.9268 226.599 37.1045 226.599C37.3232 226.599 37.5169 226.555 37.6855 226.469C37.8587 226.378 38.0046 226.236 38.123 226.045C38.2461 225.849 38.3372 225.594 38.3965 225.279C38.4557 224.965 38.4854 224.582 38.4854 224.131Z" fill="black"/>
<g filter="url(#filter0_d_14091_282208)">
<g filter="url(#filter1_i_14091_282208)">
<rect x="7" y="183" width="64" height="20" rx="2" fill="#499690" fill-opacity="0.2"/>
</g>
<rect x="6.5" y="182.5" width="65" height="21" rx="2.5" stroke="black"/>
<g filter="url(#filter2_i_14091_282208)">
<rect x="7" y="159" width="64" height="20" rx="2" fill="#499690" fill-opacity="0.2"/>
</g>
<rect x="6.5" y="158.5" width="65" height="21" rx="2.5" stroke="black"/>
<g filter="url(#filter3_i_14091_282208)">
<rect x="7" y="135" width="64" height="20" rx="2" fill="#499690" fill-opacity="0.2"/>
</g>
<rect x="6.5" y="134.5" width="65" height="21" rx="2.5" stroke="black"/>
<g filter="url(#filter4_i_14091_282208)">
<rect x="7" y="111" width="64" height="20" rx="2" fill="#499690" fill-opacity="0.2"/>
</g>
<rect x="6.5" y="110.5" width="65" height="21" rx="2.5" stroke="black"/>
</g>
<path d="M167.183 228H168.899V223.983C168.899 223.073 168.756 221.734 168.652 220.824H168.704L169.484 223.086L170.966 227.142H172.071L173.553 223.086L174.346 220.824H174.411C174.307 221.734 174.151 223.073 174.151 223.983V228H175.906V218.38H173.774L172.175 222.891C171.98 223.489 171.811 224.113 171.59 224.737H171.538C171.33 224.113 171.161 223.489 170.94 222.891L169.302 218.38H167.183V228ZM178.266 228H181.698C183.804 228 185.416 227.103 185.416 225.166C185.416 223.879 184.649 223.138 183.622 222.891V222.839C184.441 222.54 184.922 221.643 184.922 220.759C184.922 218.965 183.414 218.38 181.438 218.38H178.266V228ZM180.19 222.293V219.862H181.334C182.491 219.862 183.05 220.187 183.05 221.032C183.05 221.812 182.53 222.293 181.308 222.293H180.19ZM180.19 226.518V223.723H181.529C182.855 223.723 183.544 224.126 183.544 225.062C183.544 226.05 182.829 226.518 181.529 226.518H180.19Z" fill="black"/>
<path d="M148.39 225.272C148.39 225.897 148.244 226.423 147.952 226.852C147.66 227.275 147.259 227.597 146.749 227.815C146.243 228.03 145.669 228.137 145.026 228.137C144.384 228.137 143.807 228.03 143.297 227.815C142.786 227.597 142.383 227.275 142.087 226.852C141.791 226.423 141.643 225.897 141.643 225.272C141.643 224.853 141.727 224.475 141.896 224.138C142.064 223.796 142.299 223.504 142.6 223.263C142.905 223.017 143.263 222.83 143.673 222.702C144.083 222.57 144.53 222.504 145.013 222.504C145.66 222.504 146.239 222.618 146.749 222.846C147.259 223.074 147.66 223.395 147.952 223.81C148.244 224.224 148.39 224.712 148.39 225.272ZM146.407 225.143C146.407 224.837 146.348 224.575 146.229 224.356C146.116 224.133 145.954 223.962 145.744 223.844C145.535 223.725 145.291 223.666 145.013 223.666C144.735 223.666 144.491 223.725 144.281 223.844C144.072 223.962 143.908 224.133 143.789 224.356C143.675 224.575 143.618 224.837 143.618 225.143C143.618 225.443 143.675 225.703 143.789 225.922C143.908 226.141 144.072 226.309 144.281 226.428C144.495 226.542 144.744 226.599 145.026 226.599C145.309 226.599 145.553 226.542 145.758 226.428C145.967 226.309 146.127 226.141 146.236 225.922C146.35 225.703 146.407 225.443 146.407 225.143ZM148.178 220.686C148.178 221.191 148.043 221.64 147.774 222.032C147.506 222.42 147.132 222.723 146.653 222.941C146.179 223.16 145.637 223.27 145.026 223.27C144.411 223.27 143.864 223.16 143.386 222.941C142.907 222.723 142.534 222.42 142.265 222.032C141.996 221.64 141.861 221.191 141.861 220.686C141.861 220.084 141.996 219.578 142.265 219.168C142.538 218.753 142.912 218.439 143.386 218.225C143.864 218.01 144.407 217.903 145.013 217.903C145.628 217.903 146.173 218.01 146.646 218.225C147.125 218.439 147.499 218.753 147.768 219.168C148.041 219.578 148.178 220.084 148.178 220.686ZM146.209 220.774C146.209 220.506 146.161 220.273 146.065 220.077C145.97 219.877 145.833 219.722 145.655 219.612C145.482 219.503 145.268 219.448 145.013 219.448C144.767 219.448 144.555 219.501 144.377 219.605C144.204 219.71 144.069 219.863 143.974 220.063C143.882 220.259 143.837 220.496 143.837 220.774C143.837 221.043 143.882 221.28 143.974 221.485C144.069 221.686 144.206 221.843 144.384 221.957C144.562 222.071 144.776 222.128 145.026 222.128C145.277 222.128 145.489 222.071 145.662 221.957C145.84 221.843 145.974 221.686 146.065 221.485C146.161 221.28 146.209 221.043 146.209 220.774ZM156.422 222.148V223.871C156.422 224.618 156.342 225.263 156.183 225.806C156.023 226.343 155.793 226.785 155.492 227.132C155.196 227.474 154.843 227.727 154.433 227.891C154.022 228.055 153.567 228.137 153.065 228.137C152.664 228.137 152.291 228.087 151.944 227.986C151.598 227.882 151.286 227.72 151.008 227.501C150.734 227.282 150.497 227.007 150.297 226.674C150.101 226.337 149.951 225.936 149.846 225.471C149.741 225.006 149.688 224.473 149.688 223.871V222.148C149.688 221.401 149.768 220.761 149.928 220.228C150.092 219.69 150.322 219.25 150.618 218.908C150.919 218.566 151.274 218.316 151.685 218.156C152.095 217.992 152.55 217.91 153.052 217.91C153.453 217.91 153.824 217.963 154.166 218.067C154.512 218.168 154.825 218.325 155.103 218.539C155.381 218.753 155.618 219.029 155.813 219.366C156.009 219.699 156.16 220.098 156.265 220.562C156.369 221.023 156.422 221.551 156.422 222.148ZM154.446 224.131V221.882C154.446 221.522 154.426 221.207 154.385 220.938C154.348 220.67 154.291 220.442 154.214 220.255C154.136 220.063 154.041 219.909 153.927 219.79C153.813 219.672 153.683 219.585 153.537 219.53C153.391 219.476 153.229 219.448 153.052 219.448C152.828 219.448 152.63 219.492 152.457 219.578C152.288 219.665 152.145 219.804 152.026 219.995C151.908 220.182 151.817 220.433 151.753 220.747C151.694 221.057 151.664 221.435 151.664 221.882V224.131C151.664 224.491 151.682 224.808 151.719 225.081C151.76 225.354 151.819 225.589 151.896 225.785C151.979 225.977 152.074 226.134 152.184 226.257C152.298 226.375 152.427 226.462 152.573 226.517C152.724 226.571 152.888 226.599 153.065 226.599C153.284 226.599 153.478 226.555 153.646 226.469C153.82 226.378 153.965 226.236 154.084 226.045C154.207 225.849 154.298 225.594 154.357 225.279C154.417 224.965 154.446 224.582 154.446 224.131ZM164.461 222.148V223.871C164.461 224.618 164.381 225.263 164.222 225.806C164.062 226.343 163.832 226.785 163.531 227.132C163.235 227.474 162.882 227.727 162.472 227.891C162.062 228.055 161.606 228.137 161.104 228.137C160.703 228.137 160.33 228.087 159.983 227.986C159.637 227.882 159.325 227.72 159.047 227.501C158.773 227.282 158.536 227.007 158.336 226.674C158.14 226.337 157.99 225.936 157.885 225.471C157.78 225.006 157.728 224.473 157.728 223.871V222.148C157.728 221.401 157.807 220.761 157.967 220.228C158.131 219.69 158.361 219.25 158.657 218.908C158.958 218.566 159.313 218.316 159.724 218.156C160.134 217.992 160.59 217.91 161.091 217.91C161.492 217.91 161.863 217.963 162.205 218.067C162.551 218.168 162.864 218.325 163.142 218.539C163.42 218.753 163.657 219.029 163.853 219.366C164.049 219.699 164.199 220.098 164.304 220.562C164.409 221.023 164.461 221.551 164.461 222.148ZM162.485 224.131V221.882C162.485 221.522 162.465 221.207 162.424 220.938C162.387 220.67 162.33 220.442 162.253 220.255C162.175 220.063 162.08 219.909 161.966 219.79C161.852 219.672 161.722 219.585 161.576 219.53C161.43 219.476 161.269 219.448 161.091 219.448C160.868 219.448 160.669 219.492 160.496 219.578C160.327 219.665 160.184 219.804 160.065 219.995C159.947 220.182 159.856 220.433 159.792 220.747C159.733 221.057 159.703 221.435 159.703 221.882V224.131C159.703 224.491 159.721 224.808 159.758 225.081C159.799 225.354 159.858 225.589 159.936 225.785C160.018 225.977 160.113 226.134 160.223 226.257C160.337 226.375 160.466 226.462 160.612 226.517C160.763 226.571 160.927 226.599 161.104 226.599C161.323 226.599 161.517 226.555 161.686 226.469C161.859 226.378 162.005 226.236 162.123 226.045C162.246 225.849 162.337 225.594 162.396 225.279C162.456 224.965 162.485 224.582 162.485 224.131Z" fill="black"/>
<g filter="url(#filter5_d_14091_282208)">
<g filter="url(#filter6_i_14091_282208)">
<rect x="131" y="159" width="64" height="20" rx="2" fill="#499690" fill-opacity="0.2"/>
</g>
<rect x="130.5" y="158.5" width="65" height="21" rx="2.5" stroke="black"/>
<g filter="url(#filter7_i_14091_282208)">
<rect x="131" y="183" width="64" height="20" rx="2" fill="#499690" fill-opacity="0.2"/>
</g>
<rect x="130.5" y="182.5" width="65" height="21" rx="2.5" stroke="black"/>
<g filter="url(#filter8_i_14091_282208)">
<rect x="131" y="135" width="64" height="20" rx="2" fill="#499690" fill-opacity="0.2"/>
</g>
<rect x="130.5" y="134.5" width="65" height="21" rx="2.5" stroke="black"/>
<g filter="url(#filter9_i_14091_282208)">
<rect x="131" y="111" width="64" height="20" rx="2" fill="#499690" fill-opacity="0.2"/>
</g>
<rect x="130.5" y="110.5" width="65" height="21" rx="2.5" stroke="black"/>
<g filter="url(#filter10_i_14091_282208)">
<rect x="131" y="87" width="64" height="20" rx="2" fill="#499690" fill-opacity="0.2"/>
</g>
<rect x="130.5" y="86.5" width="65" height="21" rx="2.5" stroke="black"/>
<g filter="url(#filter11_i_14091_282208)">
<rect x="131" y="63" width="64" height="20" rx="2" fill="#499690"/>
</g>
<rect x="130.5" y="62.5" width="65" height="21" rx="2.5" stroke="black"/>
<g filter="url(#filter12_i_14091_282208)">
<rect x="131" y="39" width="64" height="20" rx="2" fill="#499690"/>
</g>
<rect x="130.5" y="38.5" width="65" height="21" rx="2.5" stroke="black"/>
<g filter="url(#filter13_i_14091_282208)">
<rect x="131" y="15" width="64" height="20" rx="2" fill="#499690"/>
</g>
<rect x="130.5" y="14.5" width="65" height="21" rx="2.5" stroke="black"/>
</g>
<path d="M194.546 28.2302C202.027 28.2302 208.091 22.1345 208.091 14.6151C208.091 7.09569 202.027 1 194.546 1C187.065 1 181 7.09569 181 14.6151C181 22.1345 187.065 28.2302 194.546 28.2302Z" fill="#FF5758"/>
<path d="M194.5 6.59961V22.5996" stroke="white" stroke-width="3"/>
<path d="M202.5 14.5996L186.5 14.5996" stroke="white" stroke-width="3"/>
<defs>
<filter id="filter0_d_14091_282208" x="0" y="106" width="78" height="106" filterUnits="userSpaceOnUse" color-interpolation-filters="sRGB">
<feFlood flood-opacity="0" result="BackgroundImageFix"/>
<feColorMatrix in="SourceAlpha" type="matrix" values="0 0 0 0 0 0 0 0 0 0 0 0 0 0 0 0 0 0 127 0" result="hardAlpha"/>
<feOffset dy="2"/>
<feGaussianBlur stdDeviation="3"/>
<feComposite in2="hardAlpha" operator="out"/>
<feColorMatrix type="matrix" values="0 0 0 0 0.466667 0 0 0 0 0.466667 0 0 0 0 0.466667 0 0 0 0.08 0"/>
<feBlend mode="normal" in2="BackgroundImageFix" result="effect1_dropShadow_14091_282208"/>
<feBlend mode="normal" in="SourceGraphic" in2="effect1_dropShadow_14091_282208" result="shape"/>
</filter>
<filter id="filter1_i_14091_282208" x="4" y="182" width="68" height="24" filterUnits="userSpaceOnUse" color-interpolation-filters="sRGB">
<feFlood flood-opacity="0" result="BackgroundImageFix"/>
<feBlend mode="normal" in="SourceGraphic" in2="BackgroundImageFix" result="shape"/>
<feColorMatrix in="SourceAlpha" type="matrix" values="0 0 0 0 0 0 0 0 0 0 0 0 0 0 0 0 0 0 127 0" result="hardAlpha"/>
<feMorphology radius="2" operator="erode" in="SourceAlpha" result="effect1_innerShadow_14091_282208"/>
<feOffset dx="-6" dy="2"/>
<feComposite in2="hardAlpha" operator="arithmetic" k2="-1" k3="1"/>
<feColorMatrix type="matrix" values="0 0 0 0 0.286275 0 0 0 0 0.588235 0 0 0 0 0.564706 0 0 0 0.08 0"/>
<feBlend mode="normal" in2="shape" result="effect1_innerShadow_14091_282208"/>
</filter>
<filter id="filter2_i_14091_282208" x="4" y="158" width="68" height="24" filterUnits="userSpaceOnUse" color-interpolation-filters="sRGB">
<feFlood flood-opacity="0" result="BackgroundImageFix"/>
<feBlend mode="normal" in="SourceGraphic" in2="BackgroundImageFix" result="shape"/>
<feColorMatrix in="SourceAlpha" type="matrix" values="0 0 0 0 0 0 0 0 0 0 0 0 0 0 0 0 0 0 127 0" result="hardAlpha"/>
<feMorphology radius="2" operator="erode" in="SourceAlpha" result="effect1_innerShadow_14091_282208"/>
<feOffset dx="-6" dy="2"/>
<feComposite in2="hardAlpha" operator="arithmetic" k2="-1" k3="1"/>
<feColorMatrix type="matrix" values="0 0 0 0 0.286275 0 0 0 0 0.588235 0 0 0 0 0.564706 0 0 0 0.08 0"/>
<feBlend mode="normal" in2="shape" result="effect1_innerShadow_14091_282208"/>
</filter>
<filter id="filter3_i_14091_282208" x="4" y="134" width="68" height="24" filterUnits="userSpaceOnUse" color-interpolation-filters="sRGB">
<feFlood flood-opacity="0" result="BackgroundImageFix"/>
<feBlend mode="normal" in="SourceGraphic" in2="BackgroundImageFix" result="shape"/>
<feColorMatrix in="SourceAlpha" type="matrix" values="0 0 0 0 0 0 0 0 0 0 0 0 0 0 0 0 0 0 127 0" result="hardAlpha"/>
<feMorphology radius="2" operator="erode" in="SourceAlpha" result="effect1_innerShadow_14091_282208"/>
<feOffset dx="-6" dy="2"/>
<feComposite in2="hardAlpha" operator="arithmetic" k2="-1" k3="1"/>
<feColorMatrix type="matrix" values="0 0 0 0 0.286275 0 0 0 0 0.588235 0 0 0 0 0.564706 0 0 0 0.08 0"/>
<feBlend mode="normal" in2="shape" result="effect1_innerShadow_14091_282208"/>
</filter>
<filter id="filter4_i_14091_282208" x="4" y="110" width="68" height="24" filterUnits="userSpaceOnUse" color-interpolation-filters="sRGB">
<feFlood flood-opacity="0" result="BackgroundImageFix"/>
<feBlend mode="normal" in="SourceGraphic" in2="BackgroundImageFix" result="shape"/>
<feColorMatrix in="SourceAlpha" type="matrix" values="0 0 0 0 0 0 0 0 0 0 0 0 0 0 0 0 0 0 127 0" result="hardAlpha"/>
<feMorphology radius="2" operator="erode" in="SourceAlpha" result="effect1_innerShadow_14091_282208"/>
<feOffset dx="-6" dy="2"/>
<feComposite in2="hardAlpha" operator="arithmetic" k2="-1" k3="1"/>
<feColorMatrix type="matrix" values="0 0 0 0 0.286275 0 0 0 0 0.588235 0 0 0 0 0.564706 0 0 0 0.08 0"/>
<feBlend mode="normal" in2="shape" result="effect1_innerShadow_14091_282208"/>
</filter>
<filter id="filter5_d_14091_282208" x="124" y="10" width="78" height="202" filterUnits="userSpaceOnUse" color-interpolation-filters="sRGB">
<feFlood flood-opacity="0" result="BackgroundImageFix"/>
<feColorMatrix in="SourceAlpha" type="matrix" values="0 0 0 0 0 0 0 0 0 0 0 0 0 0 0 0 0 0 127 0" result="hardAlpha"/>
<feOffset dy="2"/>
<feGaussianBlur stdDeviation="3"/>
<feComposite in2="hardAlpha" operator="out"/>
<feColorMatrix type="matrix" values="0 0 0 0 0.466667 0 0 0 0 0.466667 0 0 0 0 0.466667 0 0 0 0.08 0"/>
<feBlend mode="normal" in2="BackgroundImageFix" result="effect1_dropShadow_14091_282208"/>
<feBlend mode="normal" in="SourceGraphic" in2="effect1_dropShadow_14091_282208" result="shape"/>
</filter>
<filter id="filter6_i_14091_282208" x="128" y="158" width="68" height="24" filterUnits="userSpaceOnUse" color-interpolation-filters="sRGB">
<feFlood flood-opacity="0" result="BackgroundImageFix"/>
<feBlend mode="normal" in="SourceGraphic" in2="BackgroundImageFix" result="shape"/>
<feColorMatrix in="SourceAlpha" type="matrix" values="0 0 0 0 0 0 0 0 0 0 0 0 0 0 0 0 0 0 127 0" result="hardAlpha"/>
<feMorphology radius="2" operator="erode" in="SourceAlpha" result="effect1_innerShadow_14091_282208"/>
<feOffset dx="-6" dy="2"/>
<feComposite in2="hardAlpha" operator="arithmetic" k2="-1" k3="1"/>
<feColorMatrix type="matrix" values="0 0 0 0 0.286275 0 0 0 0 0.588235 0 0 0 0 0.564706 0 0 0 0.08 0"/>
<feBlend mode="normal" in2="shape" result="effect1_innerShadow_14091_282208"/>
</filter>
<filter id="filter7_i_14091_282208" x="128" y="182" width="68" height="24" filterUnits="userSpaceOnUse" color-interpolation-filters="sRGB">
<feFlood flood-opacity="0" result="BackgroundImageFix"/>
<feBlend mode="normal" in="SourceGraphic" in2="BackgroundImageFix" result="shape"/>
<feColorMatrix in="SourceAlpha" type="matrix" values="0 0 0 0 0 0 0 0 0 0 0 0 0 0 0 0 0 0 127 0" result="hardAlpha"/>
<feMorphology radius="2" operator="erode" in="SourceAlpha" result="effect1_innerShadow_14091_282208"/>
<feOffset dx="-6" dy="2"/>
<feComposite in2="hardAlpha" operator="arithmetic" k2="-1" k3="1"/>
<feColorMatrix type="matrix" values="0 0 0 0 0.286275 0 0 0 0 0.588235 0 0 0 0 0.564706 0 0 0 0.08 0"/>
<feBlend mode="normal" in2="shape" result="effect1_innerShadow_14091_282208"/>
</filter>
<filter id="filter8_i_14091_282208" x="128" y="134" width="68" height="24" filterUnits="userSpaceOnUse" color-interpolation-filters="sRGB">
<feFlood flood-opacity="0" result="BackgroundImageFix"/>
<feBlend mode="normal" in="SourceGraphic" in2="BackgroundImageFix" result="shape"/>
<feColorMatrix in="SourceAlpha" type="matrix" values="0 0 0 0 0 0 0 0 0 0 0 0 0 0 0 0 0 0 127 0" result="hardAlpha"/>
<feMorphology radius="2" operator="erode" in="SourceAlpha" result="effect1_innerShadow_14091_282208"/>
<feOffset dx="-6" dy="2"/>
<feComposite in2="hardAlpha" operator="arithmetic" k2="-1" k3="1"/>
<feColorMatrix type="matrix" values="0 0 0 0 0.286275 0 0 0 0 0.588235 0 0 0 0 0.564706 0 0 0 0.08 0"/>
<feBlend mode="normal" in2="shape" result="effect1_innerShadow_14091_282208"/>
</filter>
<filter id="filter9_i_14091_282208" x="128" y="110" width="68" height="24" filterUnits="userSpaceOnUse" color-interpolation-filters="sRGB">
<feFlood flood-opacity="0" result="BackgroundImageFix"/>
<feBlend mode="normal" in="SourceGraphic" in2="BackgroundImageFix" result="shape"/>
<feColorMatrix in="SourceAlpha" type="matrix" values="0 0 0 0 0 0 0 0 0 0 0 0 0 0 0 0 0 0 127 0" result="hardAlpha"/>
<feMorphology radius="2" operator="erode" in="SourceAlpha" result="effect1_innerShadow_14091_282208"/>
<feOffset dx="-6" dy="2"/>
<feComposite in2="hardAlpha" operator="arithmetic" k2="-1" k3="1"/>
<feColorMatrix type="matrix" values="0 0 0 0 0.286275 0 0 0 0 0.588235 0 0 0 0 0.564706 0 0 0 0.08 0"/>
<feBlend mode="normal" in2="shape" result="effect1_innerShadow_14091_282208"/>
</filter>
<filter id="filter10_i_14091_282208" x="128" y="86" width="68" height="24" filterUnits="userSpaceOnUse" color-interpolation-filters="sRGB">
<feFlood flood-opacity="0" result="BackgroundImageFix"/>
<feBlend mode="normal" in="SourceGraphic" in2="BackgroundImageFix" result="shape"/>
<feColorMatrix in="SourceAlpha" type="matrix" values="0 0 0 0 0 0 0 0 0 0 0 0 0 0 0 0 0 0 127 0" result="hardAlpha"/>
<feMorphology radius="2" operator="erode" in="SourceAlpha" result="effect1_innerShadow_14091_282208"/>
<feOffset dx="-6" dy="2"/>
<feComposite in2="hardAlpha" operator="arithmetic" k2="-1" k3="1"/>
<feColorMatrix type="matrix" values="0 0 0 0 0.286275 0 0 0 0 0.588235 0 0 0 0 0.564706 0 0 0 0.08 0"/>
<feBlend mode="normal" in2="shape" result="effect1_innerShadow_14091_282208"/>
</filter>
<filter id="filter11_i_14091_282208" x="128" y="62" width="68" height="24" filterUnits="userSpaceOnUse" color-interpolation-filters="sRGB">
<feFlood flood-opacity="0" result="BackgroundImageFix"/>
<feBlend mode="normal" in="SourceGraphic" in2="BackgroundImageFix" result="shape"/>
<feColorMatrix in="SourceAlpha" type="matrix" values="0 0 0 0 0 0 0 0 0 0 0 0 0 0 0 0 0 0 127 0" result="hardAlpha"/>
<feMorphology radius="2" operator="erode" in="SourceAlpha" result="effect1_innerShadow_14091_282208"/>
<feOffset dx="-6" dy="2"/>
<feComposite in2="hardAlpha" operator="arithmetic" k2="-1" k3="1"/>
<feColorMatrix type="matrix" values="0 0 0 0 0.223958 0 0 0 0 0.5375 0 0 0 0 0.513068 0 0 0 1 0"/>
<feBlend mode="normal" in2="shape" result="effect1_innerShadow_14091_282208"/>
</filter>
<filter id="filter12_i_14091_282208" x="128" y="38" width="68" height="24" filterUnits="userSpaceOnUse" color-interpolation-filters="sRGB">
<feFlood flood-opacity="0" result="BackgroundImageFix"/>
<feBlend mode="normal" in="SourceGraphic" in2="BackgroundImageFix" result="shape"/>
<feColorMatrix in="SourceAlpha" type="matrix" values="0 0 0 0 0 0 0 0 0 0 0 0 0 0 0 0 0 0 127 0" result="hardAlpha"/>
<feMorphology radius="2" operator="erode" in="SourceAlpha" result="effect1_innerShadow_14091_282208"/>
<feOffset dx="-6" dy="2"/>
<feComposite in2="hardAlpha" operator="arithmetic" k2="-1" k3="1"/>
<feColorMatrix type="matrix" values="0 0 0 0 0.223958 0 0 0 0 0.5375 0 0 0 0 0.513068 0 0 0 1 0"/>
<feBlend mode="normal" in2="shape" result="effect1_innerShadow_14091_282208"/>
</filter>
<filter id="filter13_i_14091_282208" x="128" y="14" width="68" height="24" filterUnits="userSpaceOnUse" color-interpolation-filters="sRGB">
<feFlood flood-opacity="0" result="BackgroundImageFix"/>
<feBlend mode="normal" in="SourceGraphic" in2="BackgroundImageFix" result="shape"/>
<feColorMatrix in="SourceAlpha" type="matrix" values="0 0 0 0 0 0 0 0 0 0 0 0 0 0 0 0 0 0 127 0" result="hardAlpha"/>
<feMorphology radius="2" operator="erode" in="SourceAlpha" result="effect1_innerShadow_14091_282208"/>
<feOffset dx="-6" dy="2"/>
<feComposite in2="hardAlpha" operator="arithmetic" k2="-1" k3="1"/>
<feColorMatrix type="matrix" values="0 0 0 0 0.223958 0 0 0 0 0.5375 0 0 0 0 0.513068 0 0 0 1 0"/>
<feBlend mode="normal" in2="shape" result="effect1_innerShadow_14091_282208"/>
</filter>
</defs>
</svg>
