<svg width="121" height="127" viewBox="0 0 121 127" fill="none" xmlns="http://www.w3.org/2000/svg">
<g clip-path="url(#clip0_13340_277467)">
<rect x="21.5" y="9.5" width="67" height="116" rx="8.5" fill="#F7F8FA" stroke="black"/>
<path d="M88 23L22 107V23H88Z" fill="white"/>
<g filter="url(#filter0_di_13340_277467)">
<path d="M22 18C22 13.5817 25.5817 10 30 10H80C84.4183 10 88 13.5817 88 18V24H22V18Z" fill="#777777"/>
</g>
<g filter="url(#filter1_di_13340_277467)">
<path d="M22 117C22 121.418 25.5817 125 30 125H80C84.4183 125 88 121.418 88 117V107H22V117Z" fill="#777777"/>
</g>
<path d="M46 17H58" stroke="#555555" stroke-width="2" stroke-linecap="round"/>
<circle cx="62" cy="17" r="1" fill="#555555"/>
<g filter="url(#filter2_i_13340_277467)">
<circle cx="55" cy="116" r="5" fill="#555555"/>
</g>
<rect x="27" y="59" width="56" height="22" rx="2" fill="black"/>
<path d="M32.9849 76H40.9209V74.016H38.3289C37.7689 74.016 36.9849 74.08 36.3929 74.144C38.5049 71.936 40.3609 69.856 40.3609 67.84C40.3609 65.664 38.8729 64.24 36.6329 64.24C35.0169 64.24 33.9609 64.88 32.8729 66.048L34.1529 67.328C34.7609 66.672 35.4649 66.096 36.3289 66.096C37.4649 66.096 38.1049 66.8 38.1049 67.968C38.1049 69.68 36.0729 71.696 32.9849 74.64V76ZM44.3108 76.224C45.1588 76.224 45.7828 75.552 45.7828 74.688C45.7828 73.808 45.1588 73.152 44.3108 73.152C43.4788 73.152 42.8548 73.808 42.8548 74.688C42.8548 75.552 43.4788 76.224 44.3108 76.224ZM51.3379 76.224C53.5299 76.224 55.4819 74.752 55.4819 72.208C55.4819 69.744 53.8179 68.624 51.8339 68.624C51.2899 68.624 50.8899 68.736 50.4099 68.944L50.6339 66.432H54.9379V64.464H48.6019L48.2819 70.224L49.3539 70.912C50.0419 70.464 50.4259 70.288 51.1299 70.288C52.3299 70.288 53.1299 71.008 53.1299 72.288C53.1299 73.584 52.2659 74.304 51.0339 74.304C49.9299 74.304 49.0979 73.76 48.4259 73.104L47.3379 74.608C48.2179 75.488 49.4659 76.224 51.3379 76.224ZM62.8878 76.224C64.5358 76.224 65.9278 75.584 66.7278 74.8V69.456H62.5198V71.392H64.6158V73.728C64.2798 74.016 63.7038 74.176 63.1438 74.176C60.8078 74.176 59.6238 72.624 59.6238 70.048C59.6238 67.504 60.9998 65.968 62.9678 65.968C64.0398 65.968 64.7118 66.4 65.3038 66.96L66.5518 65.456C65.7838 64.672 64.5998 63.936 62.8878 63.936C59.7358 63.936 57.2078 66.224 57.2078 70.128C57.2078 74.08 59.6718 76.224 62.8878 76.224ZM69.2685 76H73.4925C76.1005 76 78.0845 74.896 78.0845 72.512C78.0845 70.912 77.1405 70.016 75.8605 69.712V69.632C76.8685 69.28 77.4765 68.16 77.4765 67.072C77.4765 64.864 75.6205 64.144 73.1885 64.144H69.2685V76ZM71.6365 68.976V65.968H73.0445C74.4685 65.968 75.1725 66.384 75.1725 67.424C75.1725 68.368 74.5165 68.976 73.0125 68.976H71.6365ZM71.6365 74.176V70.72H73.2845C74.9165 70.72 75.7805 71.216 75.7805 72.368C75.7805 73.6 74.9005 74.176 73.2845 74.176H71.6365Z" fill="white"/>
<path d="M38.1235 92.48L37.8735 93.94H37.8335L37.5635 92.48L37.3735 91.56H38.2935L38.1235 92.48ZM34.7435 92.48L34.4735 93.94H34.4335L34.2135 92.48L34.0435 91.56H34.9335L34.7435 92.48ZM36.0935 89.01H36.1335L36.4635 91.03H35.7735L36.0935 89.01ZM40.2835 91.03H39.2335L39.9535 87.71H38.9835L38.3835 91.03H37.2535L36.6535 88.16H35.6235L35.0435 91.03H33.9435L33.3135 87.71H32.2635L33.0335 91.03H32.7535L31.9235 91.08V91.56H33.1535L33.9435 95H34.9435L35.6635 91.56H36.5735L37.3135 95H38.3635L39.1135 91.56H40.2835V91.03ZM41.6315 95H47.3315V93.824H45.1235C44.6915 93.824 44.1395 93.86 43.6835 93.908C45.5555 92.12 46.9115 90.356 46.9115 88.652C46.9115 87.056 45.8675 86 44.2475 86C43.0955 86 42.3155 86.492 41.5595 87.32L42.3395 88.088C42.8075 87.548 43.3835 87.104 44.0795 87.104C45.0755 87.104 45.5795 87.764 45.5795 88.724C45.5795 90.176 44.2355 91.892 41.6315 94.196V95ZM51.1633 95.156C52.7113 95.156 54.1393 94.052 54.1393 92.096C54.1393 90.164 52.9273 89.288 51.4513 89.288C50.9713 89.288 50.6233 89.408 50.2393 89.6L50.4433 87.332H53.7193V86.156H49.2433L48.9793 90.356L49.6513 90.8C50.1673 90.464 50.5033 90.296 51.0673 90.296C52.0753 90.296 52.7473 90.968 52.7473 92.144C52.7473 93.32 51.9913 94.028 50.9953 94.028C50.0713 94.028 49.4353 93.584 48.9313 93.08L48.2713 93.98C48.8953 94.592 49.7713 95.156 51.1633 95.156ZM55.739 97.4C56.975 96.932 57.707 95.96 57.707 94.7C57.707 93.776 57.311 93.212 56.639 93.212C56.111 93.212 55.679 93.56 55.679 94.1C55.679 94.676 56.111 94.988 56.603 94.988C56.651 94.988 56.687 94.988 56.735 94.976C56.735 95.672 56.255 96.284 55.427 96.62L55.739 97.4ZM61.7852 95.156C63.5132 95.156 64.6412 93.62 64.6412 90.548C64.6412 87.5 63.5132 86 61.7852 86C60.0572 86 58.9292 87.488 58.9292 90.548C58.9292 93.62 60.0572 95.156 61.7852 95.156ZM61.7852 94.064C60.8852 94.064 60.2492 93.104 60.2492 90.548C60.2492 88.016 60.8852 87.092 61.7852 87.092C62.6852 87.092 63.3212 88.016 63.3212 90.548C63.3212 93.104 62.6852 94.064 61.7852 94.064ZM68.629 95.156C70.357 95.156 71.485 93.62 71.485 90.548C71.485 87.5 70.357 86 68.629 86C66.901 86 65.773 87.488 65.773 90.548C65.773 93.62 66.901 95.156 68.629 95.156ZM68.629 94.064C67.729 94.064 67.093 93.104 67.093 90.548C67.093 88.016 67.729 87.092 68.629 87.092C69.529 87.092 70.165 88.016 70.165 90.548C70.165 93.104 69.529 94.064 68.629 94.064ZM75.4727 95.156C77.2007 95.156 78.3287 93.62 78.3287 90.548C78.3287 87.5 77.2007 86 75.4727 86C73.7447 86 72.6167 87.488 72.6167 90.548C72.6167 93.62 73.7447 95.156 75.4727 95.156ZM75.4727 94.064C74.5727 94.064 73.9367 93.104 73.9367 90.548C73.9367 88.016 74.5727 87.092 75.4727 87.092C76.3727 87.092 77.0087 88.016 77.0087 90.548C77.0087 93.104 76.3727 94.064 75.4727 94.064Z" fill="black"/>
<g clip-path="url(#clip1_13340_277467)">
<circle cx="44.2175" cy="43.2175" r="8.21753" fill="#DB0000" stroke="black" stroke-width="0.391304"/>
<path d="M39.6812 40.2945C39.7373 40.1596 39.9285 40.1596 39.9847 40.2945L40.5189 41.579C40.5426 41.6359 40.5961 41.6747 40.6575 41.6797L42.0442 41.7908C42.1899 41.8025 42.249 41.9844 42.1379 42.0795L41.0815 42.9845C41.0347 43.0246 41.0142 43.0875 41.0285 43.1474L41.3513 44.5005C41.3852 44.6427 41.2305 44.7551 41.1058 44.6789L39.9186 43.9538C39.866 43.9217 39.7999 43.9217 39.7473 43.9538L38.5601 44.6789C38.4353 44.7551 38.2806 44.6427 38.3146 44.5005L38.6373 43.1474C38.6516 43.0875 38.6312 43.0246 38.5844 42.9845L37.5279 42.0795C37.4169 41.9844 37.476 41.8025 37.6217 41.7908L39.0083 41.6797C39.0698 41.6747 39.1233 41.6359 39.147 41.579L39.6812 40.2945Z" fill="#FFD600"/>
<path d="M43.6232 40.3569C43.6419 40.4019 43.7057 40.4019 43.7244 40.3569L43.9508 39.8126C43.9586 39.7937 43.9765 39.7807 43.997 39.7791L44.5845 39.732C44.6331 39.7281 44.6528 39.6674 44.6158 39.6357L44.1681 39.2523C44.1525 39.2389 44.1457 39.2179 44.1505 39.1979L44.2873 38.6246C44.2986 38.5772 44.247 38.5397 44.2054 38.5651L43.7024 38.8724C43.6848 38.8831 43.6628 38.8831 43.6452 38.8724L43.1422 38.5651C43.1006 38.5397 43.049 38.5772 43.0603 38.6246L43.1971 39.1979C43.2019 39.2179 43.1951 39.2389 43.1795 39.2523L42.7318 39.6357C42.6948 39.6674 42.7145 39.7281 42.763 39.732L43.3506 39.7791C43.3711 39.7807 43.3889 39.7937 43.3968 39.8126L43.6232 40.3569Z" fill="#FFD600"/>
<path d="M46.3576 41.9995C46.3763 42.0445 46.44 42.0445 46.4588 41.9995L46.6851 41.4552C46.693 41.4362 46.7109 41.4233 46.7313 41.4216L47.3189 41.3745C47.3675 41.3706 47.3872 41.31 47.3502 41.2783L46.9025 40.8948C46.8869 40.8815 46.8801 40.8605 46.8849 40.8405L47.0216 40.2671C47.0329 40.2197 46.9814 40.1823 46.9398 40.2077L46.4367 40.5149C46.4192 40.5256 46.3971 40.5256 46.3796 40.5149L45.8766 40.2077C45.835 40.1823 45.7834 40.2197 45.7947 40.2671L45.9315 40.8405C45.9363 40.8605 45.9294 40.8815 45.9138 40.8948L45.4662 41.2783C45.4291 41.31 45.4488 41.3706 45.4974 41.3745L46.085 41.4216C46.1055 41.4233 46.1233 41.4362 46.1312 41.4552L46.3576 41.9995Z" fill="#FFD600"/>
<path d="M43.6232 44.9829C43.6419 44.938 43.7057 44.938 43.7244 44.9829L43.9508 45.5272C43.9586 45.5462 43.9765 45.5591 43.997 45.5608L44.5845 45.6079C44.6331 45.6118 44.6528 45.6724 44.6158 45.7041L44.1681 46.0876C44.1525 46.101 44.1457 46.1219 44.1505 46.1419L44.2873 46.7153C44.2986 46.7627 44.247 46.8002 44.2054 46.7748L43.7024 46.4675C43.6848 46.4568 43.6628 46.4568 43.6452 46.4675L43.1422 46.7748C43.1006 46.8002 43.049 46.7627 43.0603 46.7153L43.1971 46.1419C43.2019 46.1219 43.1951 46.101 43.1795 46.0876L42.7318 45.7041C42.6948 45.6724 42.7145 45.6118 42.763 45.6079L43.3506 45.5608C43.3711 45.5591 43.3889 45.5462 43.3968 45.5272L43.6232 44.9829Z" fill="#FFD600"/>
<path d="M46.3576 43.065C46.3763 43.02 46.44 43.02 46.4588 43.065L46.6851 43.6092C46.693 43.6282 46.7109 43.6412 46.7313 43.6428L47.3189 43.6899C47.3675 43.6938 47.3872 43.7544 47.3502 43.7861L46.9025 44.1696C46.8869 44.183 46.8801 44.204 46.8849 44.2239L47.0216 44.7973C47.0329 44.8447 46.9814 44.8822 46.9398 44.8568L46.4367 44.5495C46.4192 44.5388 46.3971 44.5388 46.3796 44.5495L45.8766 44.8568C45.835 44.8822 45.7834 44.8447 45.7947 44.7973L45.9315 44.2239C45.9363 44.204 45.9294 44.183 45.9138 44.1696L45.4662 43.7861C45.4291 43.7544 45.4488 43.6938 45.4974 43.6899L46.085 43.6428C46.1055 43.6412 46.1233 43.6282 46.1312 43.6092L46.3576 43.065Z" fill="#FFD600"/>
<circle cx="65.655" cy="43.2175" r="8.21753" fill="white" stroke="black" stroke-width="0.391304"/>
<circle cx="65.6532" cy="43.2177" r="2.73918" fill="#DB0000"/>
</g>
<path d="M17 1L17 41" stroke="black" stroke-linecap="round"/>
<path d="M12.5 6C12.5 5.17157 13.1716 4.5 14 4.5H20C20.8284 4.5 21.5 5.17157 21.5 6V8.5H12.5V6Z" fill="#FFD600" stroke="black"/>
<path d="M12.5 33C12.5 33.8284 13.1716 34.5 14 34.5H20C20.8284 34.5 21.5 33.8284 21.5 33V30.5H12.5V33Z" fill="#FFD600" stroke="black"/>
<path d="M32.5 19.5C32.5 26.0195 25.6824 31.5 17 31.5C8.31764 31.5 1.5 26.0195 1.5 19.5C1.5 12.9805 8.31764 7.5 17 7.5C25.6824 7.5 32.5 12.9805 32.5 19.5Z" fill="#DB0000" stroke="black"/>
<path d="M27.5 19.5C27.5 26.1894 22.7408 31.5 17 31.5C11.2592 31.5 6.5 26.1894 6.5 19.5C6.5 12.8106 11.2592 7.5 17 7.5C22.7408 7.5 27.5 12.8106 27.5 19.5Z" fill="#FFD600" stroke="black"/>
<path d="M22.5 19.5C22.5 22.8937 21.8387 25.9417 20.7919 28.1225C19.7278 30.3393 18.3547 31.5 17 31.5C15.6453 31.5 14.2722 30.3393 13.2081 28.1225C12.1613 25.9417 11.5 22.8937 11.5 19.5C11.5 16.1063 12.1613 13.0583 13.2081 10.8775C14.2722 8.66069 15.6453 7.5 17 7.5C18.3547 7.5 19.7278 8.66069 20.7919 10.8775C21.8387 13.0583 22.5 16.1063 22.5 19.5Z" fill="#DB0000" stroke="black"/>
<circle cx="17" cy="39" r="1.5" fill="#DB0000" stroke="black"/>
<path d="M15.5 43C15.5 42.1716 16.1716 41.5 17 41.5C17.8284 41.5 18.5 42.1716 18.5 43V46.5H15.5V43Z" fill="#DB0000" stroke="black"/>
<path d="M102.5 83C102.5 82.1716 103.172 81.5 104 81.5H107C107.828 81.5 108.5 82.1716 108.5 83V95.7381H102.5V83Z" fill="#2E8E37" stroke="black"/>
<path d="M102.5 106.262H108.5V119C108.5 119.828 107.828 120.5 107 120.5H104C103.172 120.5 102.5 119.828 102.5 119V106.262Z" fill="#75C97E" stroke="black"/>
<path d="M93.5 106.262H99.5V119C99.5 119.828 98.8284 120.5 98 120.5H95C94.1716 120.5 93.5 119.828 93.5 119V106.262Z" fill="#75C97E" stroke="black"/>
<path d="M102.5 100.547H108.5V110.845L102.5 109.446V100.547Z" fill="#2E8E37" stroke="black"/>
<path d="M93.5 100.547H99.5V110.845L93.5 109.446V100.547Z" fill="#2E8E37" stroke="black"/>
<path d="M108.5 93.8142V102.274L102.5 100.875V92.1349L108.5 93.8142Z" fill="#75C97E" stroke="black"/>
<path d="M99.5 94.1935V102.274L93.5 100.875V92.794C93.5 92.463 93.8159 92.2233 94.1348 92.3125L99.1348 93.712C99.3507 93.7724 99.5 93.9692 99.5 94.1935Z" fill="#2E8E37" stroke="black"/>
<path d="M91.8252 84.2429C95.4178 83.2803 99.1105 85.4122 100.073 89.0048C100.121 89.1844 100.015 89.369 99.835 89.4172C96.2425 90.3798 92.5498 88.2478 91.5871 84.6553C91.539 84.4756 91.6456 84.291 91.8252 84.2429Z" fill="#75C97E" stroke="black"/>
<path d="M118.831 96.4831C115.238 95.5205 111.546 97.6525 110.583 101.245C110.535 101.425 110.642 101.609 110.821 101.657C114.414 102.62 118.106 100.488 119.069 96.8955C119.117 96.7159 119.011 96.5312 118.831 96.4831Z" fill="#2E8E37" stroke="black"/>
<path d="M118.831 109.417C115.238 110.38 111.546 108.248 110.583 104.655C110.535 104.476 110.642 104.291 110.821 104.243C114.414 103.28 118.106 105.412 119.069 109.005C119.117 109.185 119.011 109.369 118.831 109.417Z" fill="#75C97E" stroke="black"/>
</g>
<defs>
<filter id="filter0_di_13340_277467" x="18" y="6" width="74" height="22" filterUnits="userSpaceOnUse" color-interpolation-filters="sRGB">
<feFlood flood-opacity="0" result="BackgroundImageFix"/>
<feColorMatrix in="SourceAlpha" type="matrix" values="0 0 0 0 0 0 0 0 0 0 0 0 0 0 0 0 0 0 127 0" result="hardAlpha"/>
<feOffset/>
<feGaussianBlur stdDeviation="2"/>
<feComposite in2="hardAlpha" operator="out"/>
<feColorMatrix type="matrix" values="0 0 0 0 0.2 0 0 0 0 0.2 0 0 0 0 0.2 0 0 0 0.25 0"/>
<feBlend mode="normal" in2="BackgroundImageFix" result="effect1_dropShadow_13340_277467"/>
<feBlend mode="normal" in="SourceGraphic" in2="effect1_dropShadow_13340_277467" result="shape"/>
<feColorMatrix in="SourceAlpha" type="matrix" values="0 0 0 0 0 0 0 0 0 0 0 0 0 0 0 0 0 0 127 0" result="hardAlpha"/>
<feOffset dy="2"/>
<feGaussianBlur stdDeviation="2"/>
<feComposite in2="hardAlpha" operator="arithmetic" k2="-1" k3="1"/>
<feColorMatrix type="matrix" values="0 0 0 0 0.2 0 0 0 0 0.2 0 0 0 0 0.2 0 0 0 0.1 0"/>
<feBlend mode="normal" in2="shape" result="effect2_innerShadow_13340_277467"/>
</filter>
<filter id="filter1_di_13340_277467" x="18" y="103" width="74" height="26" filterUnits="userSpaceOnUse" color-interpolation-filters="sRGB">
<feFlood flood-opacity="0" result="BackgroundImageFix"/>
<feColorMatrix in="SourceAlpha" type="matrix" values="0 0 0 0 0 0 0 0 0 0 0 0 0 0 0 0 0 0 127 0" result="hardAlpha"/>
<feOffset/>
<feGaussianBlur stdDeviation="2"/>
<feComposite in2="hardAlpha" operator="out"/>
<feColorMatrix type="matrix" values="0 0 0 0 0.2 0 0 0 0 0.2 0 0 0 0 0.2 0 0 0 0.25 0"/>
<feBlend mode="normal" in2="BackgroundImageFix" result="effect1_dropShadow_13340_277467"/>
<feBlend mode="normal" in="SourceGraphic" in2="effect1_dropShadow_13340_277467" result="shape"/>
<feColorMatrix in="SourceAlpha" type="matrix" values="0 0 0 0 0 0 0 0 0 0 0 0 0 0 0 0 0 0 127 0" result="hardAlpha"/>
<feOffset dy="-2"/>
<feGaussianBlur stdDeviation="2"/>
<feComposite in2="hardAlpha" operator="arithmetic" k2="-1" k3="1"/>
<feColorMatrix type="matrix" values="0 0 0 0 0 0 0 0 0 0 0 0 0 0 0 0 0 0 0.1 0"/>
<feBlend mode="normal" in2="shape" result="effect2_innerShadow_13340_277467"/>
</filter>
<filter id="filter2_i_13340_277467" x="50" y="111" width="10" height="10" filterUnits="userSpaceOnUse" color-interpolation-filters="sRGB">
<feFlood flood-opacity="0" result="BackgroundImageFix"/>
<feBlend mode="normal" in="SourceGraphic" in2="BackgroundImageFix" result="shape"/>
<feColorMatrix in="SourceAlpha" type="matrix" values="0 0 0 0 0 0 0 0 0 0 0 0 0 0 0 0 0 0 127 0" result="hardAlpha"/>
<feOffset/>
<feGaussianBlur stdDeviation="1"/>
<feComposite in2="hardAlpha" operator="arithmetic" k2="-1" k3="1"/>
<feColorMatrix type="matrix" values="0 0 0 0 0.2 0 0 0 0 0.2 0 0 0 0 0.2 0 0 0 1 0"/>
<feBlend mode="normal" in2="shape" result="effect1_innerShadow_13340_277467"/>
</filter>
<clipPath id="clip0_13340_277467">
<rect width="121" height="127" fill="white"/>
</clipPath>
<clipPath id="clip1_13340_277467">
<rect width="40" height="18" fill="white" transform="translate(35 34)"/>
</clipPath>
</defs>
</svg>
