<svg width="248" height="192" viewBox="0 0 248 192" fill="none" xmlns="http://www.w3.org/2000/svg">
<circle cx="50" cy="91" r="50" fill="#73EBE0" fill-opacity="0.08"/>
<circle cx="50" cy="91" r="49" stroke="#73EBE0" stroke-opacity="0.5" stroke-width="2"/>
<path d="M24.8318 85.96H20.7318V84.18H18.0718V85.96H13.9718V88.04H24.8318V85.96ZM17.4118 91.9C17.4118 91 18.2318 90.54 19.4118 90.54C20.5918 90.54 21.4118 91 21.4118 91.9C21.4118 92.82 20.5918 93.28 19.4118 93.28C18.2318 93.28 17.4118 92.82 17.4118 91.9ZM23.9318 91.9C23.9318 89.94 22.0718 88.6 19.4118 88.6C16.7518 88.6 14.8918 89.94 14.8918 91.9C14.8918 93.9 16.7518 95.22 19.4118 95.22C22.0718 95.22 23.9318 93.9 23.9318 91.9ZM19.1118 98.28H25.9118V100.44H19.1118V98.28ZM16.5118 102.5H28.4918V96.2H16.5118V102.5ZM30.9318 88.84H28.4918V84.32H25.8518V95.4H28.4918V91H30.9318V88.84ZM32.7103 86.38V88.52H34.6103C34.4903 92.1 33.9503 94.86 32.1103 97.74L34.1303 98.86C36.4303 95.18 36.8703 91.06 36.8703 86.38H32.7103ZM42.3103 91.22H40.7903C40.9303 89.64 40.9703 88.04 40.9703 86.38H37.4103V88.52H38.7303C38.6503 92.28 38.2303 95.48 36.2103 98.62L38.2303 99.74C39.4703 97.74 40.1703 95.6 40.5503 93.34H42.3103V101.92H44.7503V84.7H42.3103V91.22ZM45.8503 84.3V102.74H48.3703V84.3H45.8503Z" fill="black"/>
<path d="M62.93 101.308C67.242 101.308 70.212 98.074 70.212 92.794C70.212 87.514 67.242 84.412 62.93 84.412C58.618 84.412 55.648 87.492 55.648 92.794C55.648 98.074 58.618 101.308 62.93 101.308ZM62.93 98.492C60.51 98.492 58.97 96.27 58.97 92.794C58.97 89.296 60.51 87.206 62.93 87.206C65.35 87.206 66.89 89.296 66.89 92.794C66.89 96.27 65.35 98.492 62.93 98.492ZM73.3916 101H76.4716V94.466C76.4716 92.596 76.2296 90.55 76.0756 88.79H76.1856L77.8356 92.288L82.5436 101H85.8436V84.698H82.7636V91.21C82.7636 93.058 83.0276 95.214 83.1816 96.908H83.0716L81.4436 93.388L76.7136 84.698H73.3916V101Z" fill="#499690"/>
<circle cx="169" cy="43" r="43" fill="#73EBE0" fill-opacity="0.08"/>
<circle cx="169" cy="43" r="42" stroke="#73EBE0" stroke-opacity="0.5" stroke-width="2"/>
<path d="M147.702 37.524V35.88H151.05V34.608H144.642V33.372H150.798V29.688H143.058V30.948H149.238V32.136H143.07V35.88H146.118V37.524H141.918V38.82H151.926V37.524H147.702ZM153.509 29.748V34.716H158.873V29.748H153.509ZM157.325 30.996V33.468H155.069V30.996H157.325ZM160.541 28.98V35.484H162.137V28.98H160.541ZM158.405 35.676C156.089 35.676 154.637 36.48 154.637 37.86C154.637 39.228 156.089 40.032 158.405 40.032C160.733 40.032 162.185 39.228 162.185 37.86C162.185 36.48 160.733 35.676 158.405 35.676ZM158.405 36.912C159.845 36.912 160.613 37.212 160.613 37.86C160.613 38.496 159.845 38.82 158.405 38.82C156.977 38.82 156.209 38.496 156.209 37.86C156.209 37.212 156.977 36.912 158.405 36.912ZM165.88 31.488H168.532V30.228H164.32V37.572H165.076C166.696 37.572 167.788 37.524 169.024 37.284L168.892 35.988C167.92 36.18 167.032 36.252 165.88 36.276V31.488ZM169.696 33.012H167.776V34.296H169.696V39.54H171.172V29.184H169.696V33.012ZM171.988 28.968V40.02H173.488V28.968H171.988ZM182.608 28.968V40.056H184.192V28.968H182.608ZM178.252 29.748C176.584 29.748 175.348 31.26 175.348 33.684C175.348 36.12 176.584 37.644 178.252 37.644C179.92 37.644 181.156 36.12 181.156 33.684C181.156 31.26 179.92 29.748 178.252 29.748ZM178.252 31.176C179.068 31.176 179.632 32.052 179.632 33.684C179.632 35.328 179.068 36.204 178.252 36.204C177.436 36.204 176.872 35.328 176.872 33.684C176.872 32.052 177.436 31.176 178.252 31.176ZM188.151 34.212H191.319V32.976H188.151V31.176H191.691V29.904H186.579V37.548H187.479C189.339 37.548 190.755 37.512 192.351 37.26L192.207 35.988C190.851 36.204 189.639 36.264 188.151 36.276V34.212ZM193.767 28.968V32.868H191.871V34.14H193.767V40.056H195.351V28.968H193.767Z" fill="black"/>
<path d="M148.164 59H150.828V53.6H155.562V51.368H150.828V47.894H156.372V45.662H148.164V59ZM158.694 59H161.358V53.96H163.212L165.948 59H168.918L165.804 53.546C167.334 52.952 168.342 51.71 168.342 49.712C168.342 46.652 166.128 45.662 163.338 45.662H158.694V59ZM161.358 51.854V47.786H163.086C164.796 47.786 165.75 48.272 165.75 49.712C165.75 51.134 164.796 51.854 163.086 51.854H161.358ZM170.963 59H179.333V56.768H173.627V53.204H178.307V50.972H173.627V47.894H179.135V45.662H170.963V59ZM182.037 59H190.407V56.768H184.701V53.204H189.381V50.972H184.701V47.894H190.209V45.662H182.037V59Z" fill="#499690"/>
<circle cx="205" cy="149" r="43" fill="#73EBE0" fill-opacity="0.08"/>
<circle cx="205" cy="149" r="42" stroke="#73EBE0" stroke-opacity="0.5" stroke-width="2"/>
<path d="M183.702 143.524V141.88H187.05V140.608H180.642V139.372H186.798V135.688H179.058V136.948H185.238V138.136H179.07V141.88H182.118V143.524H177.918V144.82H187.926V143.524H183.702ZM189.509 135.748V140.716H194.873V135.748H189.509ZM193.325 136.996V139.468H191.069V136.996H193.325ZM196.541 134.98V141.484H198.137V134.98H196.541ZM194.405 141.676C192.089 141.676 190.637 142.48 190.637 143.86C190.637 145.228 192.089 146.032 194.405 146.032C196.733 146.032 198.185 145.228 198.185 143.86C198.185 142.48 196.733 141.676 194.405 141.676ZM194.405 142.912C195.845 142.912 196.613 143.212 196.613 143.86C196.613 144.496 195.845 144.82 194.405 144.82C192.977 144.82 192.209 144.496 192.209 143.86C192.209 143.212 192.977 142.912 194.405 142.912ZM201.88 137.488H204.532V136.228H200.32V143.572H201.076C202.696 143.572 203.788 143.524 205.024 143.284L204.892 141.988C203.92 142.18 203.032 142.252 201.88 142.276V137.488ZM205.696 139.012H203.776V140.296H205.696V145.54H207.172V135.184H205.696V139.012ZM207.988 134.968V146.02H209.488V134.968H207.988ZM218.608 134.968V146.056H220.192V134.968H218.608ZM214.252 135.748C212.584 135.748 211.348 137.26 211.348 139.684C211.348 142.12 212.584 143.644 214.252 143.644C215.92 143.644 217.156 142.12 217.156 139.684C217.156 137.26 215.92 135.748 214.252 135.748ZM214.252 137.176C215.068 137.176 215.632 138.052 215.632 139.684C215.632 141.328 215.068 142.204 214.252 142.204C213.436 142.204 212.872 141.328 212.872 139.684C212.872 138.052 213.436 137.176 214.252 137.176ZM224.151 140.212H227.319V138.976H224.151V137.176H227.691V135.904H222.579V143.548H223.479C225.339 143.548 226.755 143.512 228.351 143.26L228.207 141.988C226.851 142.204 225.639 142.264 224.151 142.276V140.212ZM229.767 134.968V138.868H227.871V140.14H229.767V146.056H231.351V134.968H229.767Z" fill="black"/>
<path d="M184.164 165H186.828V159.6H191.562V157.368H186.828V153.894H192.372V151.662H184.164V165ZM194.694 165H197.358V159.96H199.212L201.948 165H204.918L201.804 159.546C203.334 158.952 204.342 157.71 204.342 155.712C204.342 152.652 202.128 151.662 199.338 151.662H194.694V165ZM197.358 157.854V153.786H199.086C200.796 153.786 201.75 154.272 201.75 155.712C201.75 157.134 200.796 157.854 199.086 157.854H197.358ZM206.963 165H215.333V162.768H209.627V159.204H214.307V156.972H209.627V153.894H215.135V151.662H206.963V165ZM218.037 165H226.407V162.768H220.701V159.204H225.381V156.972H220.701V153.894H226.209V151.662H218.037V165Z" fill="#499690"/>
<path d="M98 70L126.191 59.7394" stroke="#499690" stroke-width="2" stroke-dasharray="4 6"/>
<path d="M85 130L160.175 157.362" stroke="#499690" stroke-width="2" stroke-dasharray="4 6"/>
<path d="M182 86L191.298 105.939" stroke="#499690" stroke-width="2" stroke-dasharray="4 6"/>
</svg>
