<svg width="288" height="169" viewBox="0 0 288 169" fill="none" xmlns="http://www.w3.org/2000/svg">
<rect x="61" width="165" height="115" fill="#73EBE0" fill-opacity="0.08"/>
<path d="M12.9613 159.296H11.1693V158.416H10.5133V159.296H8.72925V159.824H12.9613V159.296ZM9.75325 161.552C9.75325 161.056 10.1933 160.736 10.8413 160.736C11.4893 160.736 11.9373 161.056 11.9373 161.552C11.9373 162.056 11.4893 162.376 10.8413 162.376C10.1933 162.376 9.75325 162.056 9.75325 161.552ZM12.5613 161.552C12.5613 160.752 11.8573 160.224 10.8413 160.224C9.82525 160.224 9.12925 160.752 9.12925 161.552C9.12925 162.36 9.82525 162.888 10.8413 162.888C11.8573 162.888 12.5613 162.36 12.5613 161.552ZM10.4653 163.376H9.80925V165.432H14.5933V164.896H10.4653V163.376ZM14.2733 160.784V158.416H13.6173V163.8H14.2733V161.336H15.3293V160.784H14.2733ZM22.5766 161.856V161.32H21.5606C21.7366 160.472 21.7366 159.816 21.7366 159.28V158.76H16.8966V159.288H21.0886C21.0886 159.824 21.0886 160.456 20.8966 161.32H16.0646V161.856H18.9846V163.168H16.7526V163.696H21.1206V165.584H21.7766V163.168H19.6406V161.856H22.5766ZM25.968 159.04H25.32V160.328C25.32 161.688 24.448 163.064 23.392 163.568L23.792 164.104C24.632 163.672 25.32 162.776 25.648 161.696C25.992 162.72 26.68 163.568 27.496 163.968L27.888 163.44C26.824 162.96 25.968 161.64 25.968 160.328V159.04ZM28.64 158.416V165.608H29.296V158.416H28.64ZM31.0874 158.976V159.512H33.7274C33.5914 160.776 32.4874 161.792 30.7994 162.32L31.0634 162.84C33.1274 162.192 34.4314 160.832 34.4314 158.976H31.0874ZM32.5354 163.128H31.8794V165.432H36.6634V164.896H32.5354V163.128ZM36.3514 160.6V158.424H35.6954V163.664H36.3514V161.144H37.4074V160.6H36.3514Z" fill="#777777"/>
<path d="M41.6127 167.97L42.1827 167.7C41.3127 166.28 40.9027 164.59 40.9027 162.89C40.9027 161.19 41.3127 159.51 42.1827 158.08L41.6127 157.82C40.6927 159.31 40.1427 160.93 40.1427 162.89C40.1427 164.86 40.6927 166.47 41.6127 167.97ZM46.3116 158.55H45.5016V160.16C45.5016 161.86 44.4116 163.58 43.0916 164.21L43.5916 164.88C44.6416 164.34 45.5016 163.22 45.9116 161.87C46.3416 163.15 47.2016 164.21 48.2216 164.71L48.7116 164.05C47.3816 163.45 46.3116 161.8 46.3116 160.16V158.55ZM49.6516 157.77V166.76H50.4716V157.77H49.6516ZM57.5408 162.16C56.2208 161.71 55.3608 160.6 55.3608 159.41V159.06H57.3408V158.4H52.5308V159.06H54.5408V159.42C54.5408 160.7 53.6408 161.86 52.2908 162.33L52.7208 162.98C53.7708 162.59 54.5808 161.8 54.9608 160.8C55.3508 161.72 56.1208 162.45 57.1208 162.8L57.5408 162.16ZM53.4508 164.32H58.4708V166.75H59.2908V163.66H53.4508V164.32ZM60.6208 160.13H59.2908V157.78H58.4708V163.18H59.2908V160.81H60.6208V160.13ZM64.71 158.55H63.9V160.16C63.9 161.86 62.81 163.58 61.49 164.21L61.99 164.88C63.04 164.34 63.9 163.22 64.31 161.87C64.74 163.15 65.6 164.21 66.62 164.71L67.11 164.05C65.78 163.45 64.71 161.8 64.71 160.16V158.55ZM68.05 157.77V166.76H68.87V157.77H68.05ZM71.1092 158.47V159.14H74.4092C74.2392 160.72 72.8592 161.99 70.7492 162.65L71.0792 163.3C73.6592 162.49 75.2892 160.79 75.2892 158.47H71.1092ZM72.9192 163.66H72.0992V166.54H78.0792V165.87H72.9192V163.66ZM77.6892 160.5V157.78H76.8692V164.33H77.6892V161.18H79.0092V160.5H77.6892ZM80.3884 167.97C81.3184 166.47 81.8684 164.86 81.8684 162.89C81.8684 160.93 81.3184 159.31 80.3884 157.82L79.8284 158.08C80.6884 159.51 81.1084 161.19 81.1084 162.89C81.1084 164.59 80.6884 166.28 79.8284 167.7L80.3884 167.97Z" fill="#555555"/>
<path d="M49.1687 152H54.2087V150.86H52.4807V143.156H51.4367C50.9327 143.48 50.3447 143.684 49.5167 143.84V144.716H51.1007V150.86H49.1687V152ZM55.5085 152H61.2085V150.824H59.0005C58.5685 150.824 58.0165 150.86 57.5605 150.908C59.4325 149.12 60.7885 147.356 60.7885 145.652C60.7885 144.056 59.7445 143 58.1245 143C56.9725 143 56.1925 143.492 55.4365 144.32L56.2165 145.088C56.6845 144.548 57.2605 144.104 57.9565 144.104C58.9525 144.104 59.4565 144.764 59.4565 145.724C59.4565 147.176 58.1125 148.892 55.5085 151.196V152ZM66.4322 142.988H65.1962V144.764C65.1962 146.852 64.0682 148.928 62.3402 149.708L63.0722 150.74C64.3802 150.104 65.3402 148.82 65.8322 147.248C66.3242 148.712 67.2722 149.912 68.5202 150.5L69.2402 149.516C67.5362 148.748 66.4322 146.756 66.4322 144.764V142.988ZM70.1042 142.076V152.948H71.3522V142.076H70.1042Z" fill="black"/>
<path d="M206.613 167.97L207.183 167.7C206.313 166.28 205.903 164.59 205.903 162.89C205.903 161.19 206.313 159.51 207.183 158.08L206.613 157.82C205.693 159.31 205.143 160.93 205.143 162.89C205.143 164.86 205.693 166.47 206.613 167.97ZM208.882 161.4C210.352 161.23 211.692 160.58 212.192 159.6C212.692 160.58 214.032 161.23 215.512 161.4L215.802 160.75C214.232 160.59 212.792 159.83 212.722 158.84H215.512V158.18H208.882V158.84H211.662C211.592 159.83 210.162 160.59 208.582 160.75L208.882 161.4ZM212.182 166.1C210.762 166.1 209.942 165.77 209.942 165.18C209.942 164.6 210.762 164.27 212.182 164.27C213.592 164.27 214.422 164.6 214.422 165.18C214.422 165.77 213.592 166.1 212.182 166.1ZM212.182 163.64C210.262 163.64 209.112 164.19 209.112 165.18C209.112 166.18 210.262 166.73 212.182 166.73C214.102 166.73 215.252 166.18 215.252 165.18C215.252 164.19 214.102 163.64 212.182 163.64ZM212.592 162.24V160.95H211.772V162.24H208.132V162.9H216.242V162.24H212.592ZM220.411 163.26H222.461V164.96H220.411V163.26ZM223.271 164.96V163.26H224.671V162.59H219.151V161.15H224.461V158.43H218.321V159.1H223.661V160.49H218.341V163.26H219.601V164.96H217.321V165.63H225.471V164.96H223.271ZM229.71 158.55H228.9V160.16C228.9 161.86 227.81 163.58 226.49 164.21L226.99 164.88C228.04 164.34 228.9 163.22 229.31 161.87C229.74 163.15 230.6 164.21 231.62 164.71L232.11 164.05C230.78 163.45 229.71 161.8 229.71 160.16V158.55ZM233.05 157.77V166.76H233.87V157.77H233.05ZM236.109 158.47V159.14H239.409C239.239 160.72 237.859 161.99 235.749 162.65L236.079 163.3C238.659 162.49 240.289 160.79 240.289 158.47H236.109ZM237.919 163.66H237.099V166.54H243.079V165.87H237.919V163.66ZM242.689 160.5V157.78H241.869V164.33H242.689V161.18H244.009V160.5H242.689ZM245.388 167.97C246.318 166.47 246.868 164.86 246.868 162.89C246.868 160.93 246.318 159.31 245.388 157.82L244.828 158.08C245.688 159.51 246.108 161.19 246.108 162.89C246.108 164.59 245.688 166.28 244.828 167.7L245.388 167.97Z" fill="#555555"/>
<path d="M214.169 152H219.209V150.86H217.481V143.156H216.437C215.933 143.48 215.345 143.684 214.517 143.84V144.716H216.101V150.86H214.169V152ZM220.508 152H226.208V150.824H224C223.568 150.824 223.016 150.86 222.56 150.908C224.432 149.12 225.788 147.356 225.788 145.652C225.788 144.056 224.744 143 223.124 143C221.972 143 221.192 143.492 220.436 144.32L221.216 145.088C221.684 144.548 222.26 144.104 222.956 144.104C223.952 144.104 224.456 144.764 224.456 145.724C224.456 147.176 223.112 148.892 220.508 151.196V152ZM231.432 142.988H230.196V144.764C230.196 146.852 229.068 148.928 227.34 149.708L228.072 150.74C229.38 150.104 230.34 148.82 230.832 147.248C231.324 148.712 232.272 149.912 233.52 150.5L234.24 149.516C232.536 148.748 231.432 146.756 231.432 144.764V142.988ZM235.104 142.076V152.948H236.352V142.076H235.104Z" fill="black"/>
<rect x="8" y="121" width="272" height="1" fill="#CCCCCC"/>
<circle cx="45" cy="122" r="10" fill="#777777"/>
<path d="M39.1208 125H42.6808V124.048H41.5688V119.072H40.6968C40.3208 119.312 39.9128 119.464 39.3208 119.576V120.304H40.3928V124.048H39.1208V125ZM49.6398 118.32H48.5758V122.008H49.6398V118.32ZM44.6478 120.216C44.6478 119.696 45.0558 119.384 45.5998 119.384C46.1438 119.384 46.5358 119.696 46.5358 120.216C46.5358 120.744 46.1438 121.048 45.5998 121.048C45.0558 121.048 44.6478 120.744 44.6478 120.216ZM47.5598 120.216C47.5598 119.24 46.7198 118.536 45.5998 118.536C44.4718 118.536 43.6238 119.24 43.6238 120.216C43.6238 121.2 44.4718 121.904 45.5998 121.904C46.7198 121.904 47.5598 121.2 47.5598 120.216ZM45.7838 124.784V124.32H49.6398V122.312H44.7278V123.12H48.5918V123.568H44.7358V125.6H49.8238V124.784H45.7838Z" fill="white"/>
<circle cx="78" cy="122" r="10" fill="#777777"/>
<path d="M71.8088 125H75.7768V124.008H74.4968C74.2168 124.008 73.8248 124.04 73.5288 124.072C74.6088 123.016 75.4968 121.864 75.4968 120.792C75.4968 119.688 74.7528 118.968 73.6328 118.968C72.8248 118.968 72.2968 119.28 71.7528 119.864L72.3928 120.504C72.6968 120.176 73.0488 119.896 73.4808 119.896C74.0488 119.896 74.3688 120.256 74.3688 120.856C74.3688 121.768 73.4168 122.88 71.8088 124.32V125ZM82.6398 118.32H81.5758V122.008H82.6398V118.32ZM77.6478 120.216C77.6478 119.696 78.0558 119.384 78.5998 119.384C79.1438 119.384 79.5358 119.696 79.5358 120.216C79.5358 120.744 79.1438 121.048 78.5998 121.048C78.0558 121.048 77.6478 120.744 77.6478 120.216ZM80.5598 120.216C80.5598 119.24 79.7198 118.536 78.5998 118.536C77.4718 118.536 76.6238 119.24 76.6238 120.216C76.6238 121.2 77.4718 121.904 78.5998 121.904C79.7198 121.904 80.5598 121.2 80.5598 120.216ZM78.7838 124.784V124.32H82.6398V122.312H77.7278V123.12H81.5918V123.568H77.7358V125.6H82.8238V124.784H78.7838Z" fill="white"/>
<circle cx="111" cy="122" r="10" fill="#777777"/>
<path d="M106.657 125.112C107.785 125.112 108.737 124.48 108.737 123.392C108.737 122.616 108.225 122.12 107.561 121.936V121.896C108.185 121.648 108.545 121.184 108.545 120.544C108.545 119.536 107.769 118.968 106.625 118.968C105.929 118.968 105.361 119.248 104.849 119.696L105.449 120.416C105.801 120.088 106.145 119.896 106.569 119.896C107.073 119.896 107.361 120.168 107.361 120.632C107.361 121.16 107.009 121.536 105.921 121.536V122.376C107.209 122.376 107.553 122.744 107.553 123.32C107.553 123.856 107.145 124.152 106.545 124.152C106.009 124.152 105.577 123.888 105.225 123.544L104.673 124.288C105.089 124.76 105.721 125.112 106.657 125.112ZM115.64 118.32H114.576V122.008H115.64V118.32ZM110.648 120.216C110.648 119.696 111.056 119.384 111.6 119.384C112.144 119.384 112.536 119.696 112.536 120.216C112.536 120.744 112.144 121.048 111.6 121.048C111.056 121.048 110.648 120.744 110.648 120.216ZM113.56 120.216C113.56 119.24 112.72 118.536 111.6 118.536C110.472 118.536 109.624 119.24 109.624 120.216C109.624 121.2 110.472 121.904 111.6 121.904C112.72 121.904 113.56 121.2 113.56 120.216ZM111.784 124.784V124.32H115.64V122.312H110.728V123.12H114.592V123.568H110.736V125.6H115.824V124.784H111.784Z" fill="white"/>
<circle cx="144" cy="122" r="10" fill="#777777"/>
<path d="M138.777 122.568L139.697 121.096C139.865 120.776 140.025 120.448 140.169 120.128H140.201C140.185 120.48 140.161 121.016 140.161 121.36V122.568H138.777ZM140.161 125H141.257V123.464H141.953V122.568H141.257V119.072H139.841L137.633 122.664V123.464H140.161V125ZM148.64 118.32H147.576V122.008H148.64V118.32ZM143.648 120.216C143.648 119.696 144.056 119.384 144.6 119.384C145.144 119.384 145.536 119.696 145.536 120.216C145.536 120.744 145.144 121.048 144.6 121.048C144.056 121.048 143.648 120.744 143.648 120.216ZM146.56 120.216C146.56 119.24 145.72 118.536 144.6 118.536C143.472 118.536 142.624 119.24 142.624 120.216C142.624 121.2 143.472 121.904 144.6 121.904C145.72 121.904 146.56 121.2 146.56 120.216ZM144.784 124.784V124.32H148.64V122.312H143.728V123.12H147.592V123.568H143.736V125.6H148.824V124.784H144.784Z" fill="white"/>
<circle cx="177" cy="122" r="10" fill="#777777"/>
<path d="M172.673 125.112C173.769 125.112 174.745 124.352 174.745 123.032C174.745 121.744 173.913 121.152 172.921 121.152C172.649 121.152 172.449 121.208 172.209 121.32L172.321 120.064H174.473V119.072H171.305L171.145 121.952L171.681 122.304C172.025 122.08 172.217 121.992 172.569 121.992C173.169 121.992 173.569 122.376 173.569 123.064C173.569 123.76 173.137 124.152 172.521 124.152C171.969 124.152 171.553 123.88 171.217 123.552L170.673 124.304C171.113 124.744 171.737 125.112 172.673 125.112ZM181.64 118.32H180.576V122.008H181.64V118.32ZM176.648 120.216C176.648 119.696 177.056 119.384 177.6 119.384C178.144 119.384 178.536 119.696 178.536 120.216C178.536 120.744 178.144 121.048 177.6 121.048C177.056 121.048 176.648 120.744 176.648 120.216ZM179.56 120.216C179.56 119.24 178.72 118.536 177.6 118.536C176.472 118.536 175.624 119.24 175.624 120.216C175.624 121.2 176.472 121.904 177.6 121.904C178.72 121.904 179.56 121.2 179.56 120.216ZM177.784 124.784V124.32H181.64V122.312H176.728V123.12H180.592V123.568H176.736V125.6H181.824V124.784H177.784Z" fill="white"/>
<circle cx="210" cy="122" r="10" fill="#777777"/>
<path d="M205.929 122.104C206.441 122.104 206.777 122.432 206.777 123.128C206.777 123.856 206.409 124.224 205.969 124.224C205.473 124.224 205.073 123.808 204.961 122.728C205.233 122.28 205.609 122.104 205.929 122.104ZM205.993 125.112C207.001 125.112 207.849 124.344 207.849 123.128C207.849 121.864 207.145 121.272 206.153 121.272C205.769 121.272 205.257 121.512 204.937 121.912C204.985 120.424 205.545 119.912 206.225 119.912C206.569 119.912 206.929 120.104 207.137 120.344L207.761 119.64C207.401 119.272 206.881 118.968 206.153 118.968C204.961 118.968 203.865 119.912 203.865 122.12C203.865 124.208 204.865 125.112 205.993 125.112ZM214.64 118.32H213.576V122.008H214.64V118.32ZM209.648 120.216C209.648 119.696 210.056 119.384 210.6 119.384C211.144 119.384 211.536 119.696 211.536 120.216C211.536 120.744 211.144 121.048 210.6 121.048C210.056 121.048 209.648 120.744 209.648 120.216ZM212.56 120.216C212.56 119.24 211.72 118.536 210.6 118.536C209.472 118.536 208.624 119.24 208.624 120.216C208.624 121.2 209.472 121.904 210.6 121.904C211.72 121.904 212.56 121.2 212.56 120.216ZM210.784 124.784V124.32H214.64V122.312H209.728V123.12H213.592V123.568H209.736V125.6H214.824V124.784H210.784Z" fill="white"/>
<circle cx="243" cy="122" r="10" fill="#777777"/>
<path d="M237.953 125H239.145C239.241 122.68 239.425 121.472 240.801 119.792V119.072H236.865V120.064H239.529C238.401 121.632 238.057 122.944 237.953 125ZM247.64 118.32H246.576V122.008H247.64V118.32ZM242.648 120.216C242.648 119.696 243.056 119.384 243.6 119.384C244.144 119.384 244.536 119.696 244.536 120.216C244.536 120.744 244.144 121.048 243.6 121.048C243.056 121.048 242.648 120.744 242.648 120.216ZM245.56 120.216C245.56 119.24 244.72 118.536 243.6 118.536C242.472 118.536 241.624 119.24 241.624 120.216C241.624 121.2 242.472 121.904 243.6 121.904C244.72 121.904 245.56 121.2 245.56 120.216ZM243.784 124.784V124.32H247.64V122.312H242.728V123.12H246.592V123.568H242.736V125.6H247.824V124.784H243.784Z" fill="white"/>
<path d="M27 59C42.7196 59 56.0868 74.8716 61 97" stroke="#FF5758" stroke-linecap="round" stroke-dasharray="2 6"/>
<path d="M261 59C245.28 59 231.913 74.8716 227 97" stroke="#FF5758" stroke-linecap="round" stroke-dasharray="2 6"/>
<path d="M226 115C226 84.0721 189.063 59 143.5 59C97.9365 59 61 84.0721 61 115" stroke="#499690" stroke-dasharray="2 6"/>
<path d="M121.629 13.77H119.479V12.74H118.449V13.77H116.299V14.59H121.629V13.77ZM117.759 16.72C117.759 16.15 118.249 15.81 118.959 15.81C119.679 15.81 120.169 16.15 120.169 16.72C120.169 17.29 119.679 17.63 118.959 17.63C118.249 17.63 117.759 17.29 117.759 16.72ZM121.149 16.72C121.149 15.7 120.259 15.01 118.959 15.01C117.669 15.01 116.769 15.7 116.769 16.72C116.769 17.75 117.669 18.43 118.959 18.43C120.259 18.43 121.149 17.75 121.149 16.72ZM118.659 18.99H117.619V21.6H123.699V20.76H118.659V18.99ZM123.339 15.62V12.74H122.309V19.51H123.339V16.47H124.619V15.62H123.339ZM133.669 17.16V16.33H132.449C132.649 15.3 132.649 14.52 132.649 13.84V13.15H126.509V13.98H131.639C131.639 14.63 131.619 15.36 131.419 16.33H125.489V17.16H129.049V18.64H126.319V19.47H131.659V21.77H132.689V18.64H130.089V17.16H133.669ZM138.018 13.49H136.988V14.97C136.988 16.71 136.048 18.44 134.608 19.09L135.218 19.95C136.308 19.42 137.108 18.35 137.518 17.04C137.928 18.26 138.718 19.26 139.758 19.75L140.358 18.93C138.938 18.29 138.018 16.63 138.018 14.97V13.49ZM141.078 12.73V21.79H142.118V12.73H141.078ZM144.237 13.43V14.27H147.387C147.207 15.7 145.927 16.87 143.857 17.5L144.287 18.32C146.917 17.52 148.507 15.82 148.507 13.43H144.237ZM146.247 18.62H145.207V21.6H151.287V20.76H146.247V18.62ZM150.927 15.38V12.74H149.897V19.28H150.927V16.23H152.217V15.38H150.927ZM155.842 13.69V14.53H159.062C158.882 16.61 157.762 18.2 155.392 19.34L155.942 20.16C159.042 18.66 160.122 16.38 160.122 13.69H155.842ZM161.752 12.74V21.77H162.782V12.74H161.752ZM165.351 16.77C166.911 16.57 168.121 15.85 168.601 14.85C169.091 15.85 170.311 16.57 171.881 16.77L172.261 15.95C170.571 15.75 169.381 14.91 169.301 13.99H171.951V13.16H165.281V13.99H167.911C167.831 14.91 166.661 15.75 164.961 15.95L165.351 16.77ZM166.551 19.02H165.521V21.6H171.801V20.76H166.551V19.02ZM164.521 17.32V18.15H168.181V19.85H169.211V18.15H172.711V17.32H164.521ZM100.819 35H105.569V34.02H103.729C103.369 34.02 102.909 34.05 102.529 34.09C104.089 32.6 105.219 31.13 105.219 29.71C105.219 28.38 104.349 27.5 102.999 27.5C102.039 27.5 101.389 27.91 100.759 28.6L101.409 29.24C101.799 28.79 102.279 28.42 102.859 28.42C103.689 28.42 104.109 28.97 104.109 29.77C104.109 30.98 102.989 32.41 100.819 34.33V35ZM107.442 32.13L108.892 29.91C109.102 29.53 109.302 29.15 109.482 28.77H109.522C109.502 29.18 109.472 29.8 109.472 30.2V32.13H107.442ZM109.472 35H110.552V33.02H111.482V32.13H110.552V27.63H109.212L106.282 32.25V33.02H109.472V35ZM115.625 27.49H114.595V28.97C114.595 30.71 113.655 32.44 112.215 33.09L112.825 33.95C113.915 33.42 114.715 32.35 115.125 31.04C115.535 32.26 116.325 33.26 117.365 33.75L117.965 32.93C116.545 32.29 115.625 30.63 115.625 28.97V27.49ZM118.685 26.73V35.79H119.725V26.73H118.685ZM121.844 27.43V28.27H124.994C124.814 29.7 123.534 30.87 121.464 31.5L121.894 32.32C124.524 31.52 126.114 29.82 126.114 27.43H121.844ZM123.854 32.62H122.814V35.6H128.894V34.76H123.854V32.62ZM128.534 29.38V26.74H127.504V33.28H128.534V30.23H129.824V29.38H128.534ZM138.11 30.59C137.02 30.82 136.05 30.87 134.34 30.88V28.32H137.33V27.48H133.31V31.73H134.04C135.98 31.73 137.04 31.67 138.21 31.42L138.11 30.59ZM135.31 32.61H134.27V35.6H140.35V34.76H135.31V32.61ZM139.99 29.32V26.73H138.96V33.27H139.99V30.17H141.27V29.32H139.99ZM145.079 27.98C145.869 27.98 146.419 28.39 146.419 29.02C146.419 29.66 145.869 30.07 145.079 30.07C144.299 30.07 143.739 29.66 143.739 29.02C143.739 28.39 144.299 27.98 145.079 27.98ZM145.079 30.92C146.429 30.92 147.409 30.14 147.409 29.02C147.409 27.91 146.429 27.13 145.079 27.13C143.729 27.13 142.749 27.91 142.749 29.02C142.749 30.14 143.729 30.92 145.079 30.92ZM147.989 31.26C146.039 31.55 143.769 31.58 142.139 31.58L142.259 32.43C142.959 32.43 143.759 32.42 144.609 32.39V35.5H145.639V32.33C146.439 32.27 147.269 32.18 148.059 32.02L147.989 31.26ZM148.579 26.74V35.78H149.609V26.74H148.579ZM155.754 35.13C157.044 35.13 158.234 34.21 158.234 32.58C158.234 30.97 157.224 30.24 155.994 30.24C155.594 30.24 155.304 30.34 154.984 30.5L155.154 28.61H157.884V27.63H154.154L153.934 31.13L154.494 31.5C154.924 31.22 155.204 31.08 155.674 31.08C156.514 31.08 157.074 31.64 157.074 32.62C157.074 33.6 156.444 34.19 155.614 34.19C154.844 34.19 154.314 33.82 153.894 33.4L153.344 34.15C153.864 34.66 154.594 35.13 155.754 35.13ZM166.727 26.73H165.697V31.32H166.727V26.73ZM160.457 29.07C160.457 28.35 161.037 27.88 161.817 27.88C162.607 27.88 163.197 28.35 163.197 29.07C163.197 29.79 162.607 30.26 161.817 30.26C161.037 30.26 160.457 29.79 160.457 29.07ZM164.197 29.07C164.197 27.88 163.187 27.03 161.817 27.03C160.457 27.03 159.457 27.88 159.457 29.07C159.457 30.26 160.457 31.1 161.817 31.1C163.187 31.1 164.197 30.26 164.197 29.07ZM161.837 34.85V34.05H166.727V31.73H160.807V32.54H165.707V33.29H160.827V35.66H166.997V34.85H161.837ZM177.183 31.37H178.213V26.73H177.183V28.24H175.353V29.07H177.183V31.37ZM176.063 30.42C174.713 29.98 173.933 28.92 173.933 27.78V27.02H172.903V27.78C172.903 29.02 172.113 30.15 170.703 30.61L171.233 31.42C172.293 31.05 173.043 30.32 173.443 29.38C173.823 30.22 174.543 30.89 175.523 31.22L176.063 30.42ZM173.373 34.85V34.08H178.213V31.8H172.333V32.6H177.193V33.32H172.353V35.66H178.523V34.85H173.373ZM184.782 29.01V29.85H186.382V32.12H187.412V26.74H186.382V29.01H184.782ZM185.302 31.02C183.952 30.55 183.182 29.43 183.182 28.3V28.18H185.062V27.35H180.232V28.18H182.142V28.31C182.142 29.55 181.332 30.75 179.932 31.25L180.462 32.07C181.532 31.69 182.292 30.89 182.692 29.9C183.072 30.77 183.792 31.48 184.792 31.83L185.302 31.02ZM184.412 34.98C183.122 34.98 182.392 34.66 182.392 34.07C182.392 33.48 183.122 33.16 184.412 33.16C185.682 33.16 186.422 33.48 186.422 34.07C186.422 34.66 185.682 34.98 184.412 34.98ZM184.412 32.36C182.522 32.36 181.362 33 181.362 34.07C181.362 35.15 182.522 35.78 184.412 35.78C186.292 35.78 187.452 35.15 187.452 34.07C187.452 33 186.292 32.36 184.412 32.36Z" fill="#333333"/>
<rect x="105" y="48" width="78" height="25" rx="12.5" fill="#499690"/>
<path d="M117.443 58.488H120.095V57.228H115.883V64.572H116.639C118.259 64.572 119.351 64.524 120.587 64.284L120.455 62.988C119.483 63.18 118.595 63.252 117.443 63.276V58.488ZM121.259 60.012H119.339V61.296H121.259V66.54H122.735V56.184H121.259V60.012ZM123.551 55.968V67.02H125.051V55.968H123.551ZM134.17 55.968V67.056H135.754V55.968H134.17ZM129.814 56.748C128.146 56.748 126.91 58.26 126.91 60.684C126.91 63.12 128.146 64.644 129.814 64.644C131.482 64.644 132.718 63.12 132.718 60.684C132.718 58.26 131.482 56.748 129.814 56.748ZM129.814 58.176C130.63 58.176 131.194 59.052 131.194 60.684C131.194 62.328 130.63 63.204 129.814 63.204C128.998 63.204 128.434 62.328 128.434 60.684C128.434 59.052 128.998 58.176 129.814 58.176ZM139.713 61.212H142.881V59.976H139.713V58.176H143.253V56.904H138.141V64.548H139.041C140.901 64.548 142.317 64.512 143.913 64.26L143.769 62.988C142.413 63.204 141.201 63.264 139.713 63.276V61.212ZM145.329 55.968V59.868H143.433V61.14H145.329V67.056H146.913V55.968H145.329ZM158.967 55.968V67.056H160.551V55.968H158.967ZM154.611 56.748C152.943 56.748 151.707 58.26 151.707 60.684C151.707 63.12 152.943 64.644 154.611 64.644C156.279 64.644 157.515 63.12 157.515 60.684C157.515 58.26 156.279 56.748 154.611 56.748ZM154.611 58.176C155.427 58.176 155.991 59.052 155.991 60.684C155.991 62.328 155.427 63.204 154.611 63.204C153.795 63.204 153.231 62.328 153.231 60.684C153.231 59.052 153.795 58.176 154.611 58.176ZM167.402 65.844C165.926 65.844 165.17 65.592 165.17 65.028C165.17 64.464 165.926 64.224 167.402 64.224C168.878 64.224 169.634 64.464 169.634 65.028C169.634 65.592 168.878 65.844 167.402 65.844ZM167.402 63.024C165.014 63.024 163.574 63.744 163.574 65.028C163.574 66.312 165.014 67.044 167.402 67.044C169.79 67.044 171.242 66.312 171.242 65.028C171.242 63.744 169.79 63.024 167.402 63.024ZM166.262 60.3C166.622 60.348 167.006 60.372 167.426 60.372C167.834 60.372 168.218 60.348 168.566 60.312V61.224H166.262V60.3ZM167.426 57.348C168.938 57.348 169.802 57.648 169.802 58.272C169.802 58.872 168.938 59.184 167.426 59.184C165.926 59.184 165.062 58.872 165.062 58.272C165.062 57.648 165.926 57.348 167.426 57.348ZM170.15 61.224V59.904C170.966 59.544 171.434 58.992 171.434 58.272C171.434 56.952 169.874 56.148 167.426 56.148C164.99 56.148 163.43 56.952 163.43 58.272C163.43 58.98 163.886 59.532 164.678 59.892V61.224H162.434V62.472H172.418V61.224H170.15Z" fill="white"/>
<rect y="48" width="78" height="25" rx="12.5" fill="#FF5758"/>
<path d="M12.443 58.488H15.095V57.228H10.883V64.572H11.639C13.259 64.572 14.351 64.524 15.587 64.284L15.455 62.988C14.483 63.18 13.595 63.252 12.443 63.276V58.488ZM16.259 60.012H14.339V61.296H16.259V66.54H17.735V56.184H16.259V60.012ZM18.551 55.968V67.02H20.051V55.968H18.551ZM29.17 55.968V67.056H30.754V55.968H29.17ZM24.814 56.748C23.146 56.748 21.91 58.26 21.91 60.684C21.91 63.12 23.146 64.644 24.814 64.644C26.482 64.644 27.718 63.12 27.718 60.684C27.718 58.26 26.482 56.748 24.814 56.748ZM24.814 58.176C25.63 58.176 26.194 59.052 26.194 60.684C26.194 62.328 25.63 63.204 24.814 63.204C23.998 63.204 23.434 62.328 23.434 60.684C23.434 59.052 23.998 58.176 24.814 58.176ZM34.7131 61.212H37.8811V59.976H34.7131V58.176H38.2531V56.904H33.1411V64.548H34.0411C35.9011 64.548 37.3171 64.512 38.9131 64.26L38.7691 62.988C37.4131 63.204 36.2011 63.264 34.7131 63.276V61.212ZM40.3291 55.968V59.868H38.4331V61.14H40.3291V67.056H41.9131V55.968H40.3291ZM50.3909 59.04H52.5869V57.78H50.4029V56.244H48.8189V57.78H46.5749V59.04H48.8189V59.424C48.8189 61.08 47.9909 62.952 46.2029 63.78L47.0549 64.992C48.2909 64.44 49.1429 63.324 49.6229 62.004C50.0789 63.228 50.8829 64.26 52.0589 64.8L52.8989 63.6C51.1709 62.772 50.3909 60.984 50.3909 59.424V59.04ZM56.6549 60.276H55.0469V55.992H53.4629V67.032H55.0469V61.584H56.6549V60.276ZM63.686 60.564C62.486 60.816 61.394 60.888 59.426 60.9V58.116H62.798V56.856H57.854V62.172H58.778C61.226 62.172 62.486 62.112 63.842 61.812L63.686 60.564ZM60.59 63.132H59.006V66.84H66.53V65.58H60.59V63.132ZM66.134 58.992V55.98H64.55V63.972H66.134V60.288H67.598V58.992H66.134Z" fill="white"/>
<rect x="210" y="48" width="78" height="25" rx="12.5" fill="#FF5758"/>
<path d="M222.443 58.488H225.095V57.228H220.883V64.572H221.639C223.259 64.572 224.351 64.524 225.587 64.284L225.455 62.988C224.483 63.18 223.595 63.252 222.443 63.276V58.488ZM226.259 60.012H224.339V61.296H226.259V66.54H227.735V56.184H226.259V60.012ZM228.551 55.968V67.02H230.051V55.968H228.551ZM239.17 55.968V67.056H240.754V55.968H239.17ZM234.814 56.748C233.146 56.748 231.91 58.26 231.91 60.684C231.91 63.12 233.146 64.644 234.814 64.644C236.482 64.644 237.718 63.12 237.718 60.684C237.718 58.26 236.482 56.748 234.814 56.748ZM234.814 58.176C235.63 58.176 236.194 59.052 236.194 60.684C236.194 62.328 235.63 63.204 234.814 63.204C233.998 63.204 233.434 62.328 233.434 60.684C233.434 59.052 233.998 58.176 234.814 58.176ZM244.713 61.212H247.881V59.976H244.713V58.176H248.253V56.904H243.141V64.548H244.041C245.901 64.548 247.317 64.512 248.913 64.26L248.769 62.988C247.413 63.204 246.201 63.264 244.713 63.276V61.212ZM250.329 55.968V59.868H248.433V61.14H250.329V67.056H251.913V55.968H250.329ZM260.391 59.04H262.587V57.78H260.403V56.244H258.819V57.78H256.575V59.04H258.819V59.424C258.819 61.08 257.991 62.952 256.203 63.78L257.055 64.992C258.291 64.44 259.143 63.324 259.623 62.004C260.079 63.228 260.883 64.26 262.059 64.8L262.899 63.6C261.171 62.772 260.391 60.984 260.391 59.424V59.04ZM266.655 60.276H265.047V55.992H263.463V67.032H265.047V61.584H266.655V60.276ZM273.686 60.564C272.486 60.816 271.394 60.888 269.426 60.9V58.116H272.798V56.856H267.854V62.172H268.778C271.226 62.172 272.486 62.112 273.842 61.812L273.686 60.564ZM270.59 63.132H269.006V66.84H276.53V65.58H270.59V63.132ZM276.134 58.992V55.98H274.55V63.972H276.134V60.288H277.598V58.992H276.134Z" fill="white"/>
<path d="M196 20.5C195.724 20.5 195.5 20.7239 195.5 21C195.5 21.2761 195.724 21.5 196 21.5L196 20.5ZM226 21L221 18.1133L221 23.8868L226 21ZM196 21.5L221.5 21.5L221.5 20.5L196 20.5L196 21.5Z" fill="#499690"/>
<path d="M91 21.5C91.2761 21.5 91.5 21.2761 91.5 21C91.5 20.7239 91.2761 20.5 91 20.5V21.5ZM61 21L66 23.8868V18.1132L61 21ZM91 20.5L65.5 20.5V21.5L91 21.5V20.5Z" fill="#499690"/>
</svg>
