<svg width="20" height="20" viewBox="0 0 20 20" fill="none" xmlns="http://www.w3.org/2000/svg">
<g clip-path="url(#clip0_927_11930)">
<path fill-rule="evenodd" clip-rule="evenodd" d="M10 17.5C14.1421 17.5 17.5 14.1421 17.5 10C17.5 5.85786 14.1421 2.5 10 2.5C5.85786 2.5 2.5 5.85786 2.5 10C2.5 14.1421 5.85786 17.5 10 17.5ZM10.001 6C10.5533 6 11.001 6.44772 11.001 7V10C11.001 10.5523 10.5533 11 10.001 11C9.44869 11 9.00098 10.5523 9.00098 10V7C9.00098 6.44772 9.44869 6 10.001 6ZM10.001 12.002C9.44869 12.002 9.00098 12.4497 9.00098 13.002C9.00098 13.5542 9.44869 14.002 10.001 14.002H10.0093C10.5616 14.002 11.0093 13.5542 11.0093 13.002C11.0093 12.4497 10.5616 12.002 10.0093 12.002H10.001Z" fill="#EA2A2A"/>
</g>
<defs>
<clipPath id="clip0_927_11930">
<rect width="20" height="20" fill="white"/>
</clipPath>
</defs>
</svg>
