<svg width="20" height="20" viewBox="0 0 20 20" fill="none" xmlns="http://www.w3.org/2000/svg">
<g clip-path="url(#clip0_1536_3775)">
<path fill-rule="evenodd" clip-rule="evenodd" d="M2.84918 4.04287L9.83589 0.986186C10.0991 0.871015 10.3992 0.874648 10.6596 0.996161L17.1729 4.03569C17.525 4.2 17.75 4.55335 17.75 4.94188V10.2444C17.75 13.1113 16.3841 15.8066 14.0723 17.502L13.1134 18.2052C11.3987 19.4627 9.0762 19.498 7.32396 18.2934L6.15124 17.4871C3.70905 15.8081 2.25 13.0344 2.25 10.0707V4.95903C2.25 4.56173 2.48519 4.20212 2.84918 4.04287ZM12.5 7.1058C12.5 8.48651 11.3807 9.6058 10 9.6058C8.61929 9.6058 7.5 8.48651 7.5 7.1058C7.5 5.72508 8.61929 4.6058 10 4.6058C11.3807 4.6058 12.5 5.72508 12.5 7.1058ZM10 15.805C12.2091 15.805 14 14.6857 14 13.305C14 11.9243 12.2091 10.805 10 10.805C7.79086 10.805 6 11.9243 6 13.305C6 14.6857 7.79086 15.805 10 15.805Z" fill="#008A3B"/>
</g>
<defs>
<clipPath id="clip0_1536_3775">
<rect width="20" height="20" fill="white"/>
</clipPath>
</defs>
</svg>
