<svg width="20" height="20" viewBox="0 0 20 20" fill="none" xmlns="http://www.w3.org/2000/svg">
<g clip-path="url(#clip0_739_12243)">
<path d="M16.527 8.025H16.1873C16.077 7.67969 15.9378 7.34425 15.771 7.02197L16.0116 6.78141C16.5948 6.19875 16.5792 5.265 16.0118 4.69812L15.302 3.98844C14.7355 3.42116 13.8016 3.40472 13.2188 3.98822L12.978 4.22897C12.6557 4.06222 12.3203 3.92297 11.975 3.81263V3.47291C11.975 2.66075 11.3142 2 10.502 2H9.49789C8.68574 2 8.02499 2.66075 8.02499 3.47291V3.81263C7.67971 3.92294 7.34424 4.06219 7.02196 4.22897L6.78143 3.98844C6.19977 3.40609 5.26587 3.41975 4.69818 3.98825L3.9884 4.69797C3.42115 5.26459 3.40475 6.19841 3.98821 6.78125L4.22896 7.022C4.06218 7.34428 3.92297 7.67969 3.81262 8.02503H3.47293C2.66078 8.025 2 8.68575 2 9.49791V10.5021C2 11.3142 2.66078 11.975 3.47293 11.975H3.81262C3.92297 12.3203 4.06218 12.6558 4.22896 12.978L3.9884 13.2186C3.40512 13.8012 3.42075 14.735 3.98821 15.3019L4.69793 16.0116C5.26446 16.5788 6.1984 16.5953 6.78121 16.0118L7.02196 15.771C7.34424 15.9378 7.67971 16.077 8.02499 16.1874V16.5271C8.02499 17.3393 8.68577 18 9.49792 18H10.5021C11.3142 18 11.975 17.3393 11.975 16.5271V16.1874C12.3203 16.0771 12.6558 15.9378 12.978 15.771L13.2186 16.0116C13.8002 16.5939 14.7341 16.5802 15.3018 16.0118L16.0116 15.302C16.5788 14.7354 16.5953 13.8016 16.0118 13.2187L15.771 12.978C15.9378 12.6557 16.077 12.3203 16.1874 11.9749H16.5271C17.3392 11.9749 18 11.3142 18 10.502V9.49784C18 8.68575 17.3392 8.025 16.527 8.025ZM9.99998 13.4812C8.08039 13.4812 6.51874 11.9196 6.51874 10C6.51874 8.08044 8.08039 6.51875 9.99998 6.51875C11.9196 6.51875 13.4812 8.08044 13.4812 10C13.4812 11.9196 11.9196 13.4812 9.99998 13.4812Z" fill="#CFCFCF"/>
</g>
<defs>
<clipPath id="clip0_739_12243">
<rect width="20" height="20" fill="white"/>
</clipPath>
</defs>
</svg>
