<svg width="24" height="24" viewBox="0 0 24 24" fill="none" xmlns="http://www.w3.org/2000/svg">
<g clip-path="url(#clip0_881_9154)">
<path d="M20.178 19.1215L15.8507 14.7942C16.9233 13.4864 17.5699 11.8113 17.5699 9.98562C17.5699 5.79786 14.1719 2.3999 9.98415 2.3999C5.79272 2.3999 2.39844 5.79786 2.39844 9.98562C2.39844 14.1734 5.79272 17.5713 9.98415 17.5713C11.8099 17.5713 13.4813 16.9285 14.789 15.8558L19.1164 20.1795C19.4103 20.4734 19.8842 20.4734 20.178 20.1795C20.4719 19.8893 20.4719 19.4117 20.178 19.1215ZM9.98415 16.0615C6.63027 16.0615 3.90456 13.3358 3.90456 9.98562C3.90456 6.63541 6.63027 3.90602 9.98415 3.90602C13.3344 3.90602 16.0637 6.63541 16.0637 9.98562C16.0637 13.3358 13.3344 16.0615 9.98415 16.0615Z" fill="#969696"/>
</g>
<defs>
<clipPath id="clip0_881_9154">
<rect width="24" height="24" fill="white"/>
</clipPath>
</defs>
</svg>
