<svg width="20" height="20" viewBox="0 0 20 20" fill="none" xmlns="http://www.w3.org/2000/svg">
<g clip-path="url(#clip0_739_12249)">
<path d="M3.6 6.8H3.82857C4.70857 6.8 5.42857 7.52 5.42857 8.4V16.4C5.42857 17.28 4.70857 18 3.82857 18H3.6C2.72 18 2 17.28 2 16.4V8.4C2 7.52 2.72 6.8 3.6 6.8ZM10 2C10.88 2 11.6 2.72 11.6 3.6V16.4C11.6 17.28 10.88 18 10 18C9.12 18 8.4 17.28 8.4 16.4V3.6C8.4 2.72 9.12 2 10 2ZM16.4 11.1429C17.28 11.1429 18 11.8629 18 12.7429V16.4C18 17.28 17.28 18 16.4 18C15.52 18 14.8 17.28 14.8 16.4V12.7429C14.8 11.8629 15.52 11.1429 16.4 11.1429Z" fill="#CFCFCF"/>
</g>
<defs>
<clipPath id="clip0_739_12249">
<rect width="20" height="20" fill="white"/>
</clipPath>
</defs>
</svg>
