<svg width="24" height="24" viewBox="0 0 24 24" fill="none" xmlns="http://www.w3.org/2000/svg">
<g clip-path="url(#clip0_927_11765)">
<path d="M11 6.06612C11.3738 6.02274 11.7502 6.00066 12.1269 6C18.3381 6 21 11.7851 21 11.7851C20.6033 12.5761 20.1058 13.3198 19.5182 14" fill="#969696"/>
<path fill-rule="evenodd" clip-rule="evenodd" d="M3 11.9994C3.92684 10.0423 5.35901 8.36778 7.14879 7.14868L9.38518 9.38506C9.03343 9.71905 8.7507 10.119 8.55319 10.5623C8.35097 11.0161 8.24224 11.5061 8.23347 12.0029C8.22471 12.4996 8.31609 12.9931 8.50217 13.4538C8.68826 13.9145 8.96523 14.333 9.31656 14.6843C9.66789 15.0357 10.0864 15.3126 10.5471 15.4987C11.0078 15.6848 11.5012 15.7762 11.998 15.7674C12.4948 15.7586 12.9847 15.6499 13.4386 15.4477C13.8819 15.2502 14.2818 14.9675 14.6158 14.6157L16.8503 16.8502C15.4111 17.7998 13.7238 18.3038 11.9996 18.2991C5.69987 18.2991 3 11.9994 3 11.9994ZM13.2013 13.2012C13.5803 12.8221 14.1945 12.8087 14.5897 13.1771C14.9938 13.5536 15.0161 14.1863 14.6396 14.5904C14.6317 14.5989 14.6238 14.6073 14.6158 14.6157L13.2013 13.2012ZM13.2013 13.2012C13.1929 13.2096 13.1846 13.2182 13.1764 13.227C13.0208 13.394 12.8331 13.5279 12.6246 13.6208C12.4161 13.7137 12.191 13.7637 11.9627 13.7677C11.7345 13.7718 11.5078 13.7298 11.2961 13.6443C11.0845 13.5588 10.8922 13.4315 10.7308 13.2701C10.5694 13.1087 10.4421 12.9164 10.3566 12.7048C10.2711 12.4931 10.2291 12.2664 10.2332 12.0381C10.2372 11.8099 10.2871 11.5848 10.3801 11.3763C10.473 11.1678 10.6069 10.9801 10.7739 10.8245C10.7827 10.8163 10.7913 10.808 10.7997 10.7996L13.2013 13.2012ZM10.7997 10.7996L9.38518 9.38506C9.39357 9.37709 9.40201 9.36916 9.41048 9.36126C9.81454 8.98476 10.4473 9.00709 10.8238 9.41115C11.1921 9.80643 11.1788 10.4206 10.7997 10.7996Z" fill="#969696"/>
<path d="M4 4L20 20" stroke="#969696" stroke-width="2" stroke-linecap="round" stroke-linejoin="round"/>
</g>
<defs>
<clipPath id="clip0_927_11765">
<rect width="24" height="24" fill="white"/>
</clipPath>
</defs>
</svg>
