<svg width="16" height="16" viewBox="0 0 16 16" fill="none" xmlns="http://www.w3.org/2000/svg">
<g clip-path="url(#clip0_855_56164)">
<path d="M11.7741 4.17444C10.6501 3.11111 9.15358 2.5 7.58873 2.5C6.48339 2.5 5.40286 2.82257 4.4838 3.42692C3.56474 4.03126 2.84842 4.89025 2.42542 5.89524C2.00242 6.90023 1.89175 8.0061 2.10739 9.073C2.32303 10.1399 2.85531 11.1199 3.6369 11.8891C4.4185 12.6583 5.41432 13.1821 6.49843 13.3943C7.58253 13.6065 8.70624 13.4976 9.72745 13.0813C10.7487 12.6651 11.6215 11.9601 12.2356 11.0556C12.5864 10.5389 12.8438 9.97036 13 9.375" stroke="#969696" stroke-width="1.4" stroke-linecap="square" stroke-linejoin="round"/>
<path d="M14 2.5V6.5H10" fill="#969696"/>
</g>
<defs>
<clipPath id="clip0_855_56164">
<rect width="16" height="16" fill="white"/>
</clipPath>
</defs>
</svg>
