<svg width="20" height="20" viewBox="0 0 20 20" fill="none" xmlns="http://www.w3.org/2000/svg">
<g clip-path="url(#clip0_739_12228)">
<path d="M16.3992 16.3992L13.1992 13.1992" stroke="#CFCFCF" stroke-width="2.4" stroke-linecap="round" stroke-linejoin="round"/>
<path fill-rule="evenodd" clip-rule="evenodd" d="M16 9C16 12.866 12.866 16 9 16C5.13401 16 2 12.866 2 9C2 5.13401 5.13401 2 9 2C12.866 2 16 5.13401 16 9ZM12.1665 8.16529C12.4789 7.85288 12.4789 7.34634 12.1665 7.03392C11.854 6.7215 11.3475 6.7215 11.0351 7.03392L8.40078 9.66824L7.36647 8.63392C7.05405 8.3215 6.54752 8.3215 6.2351 8.63392C5.92268 8.94634 5.92268 9.45288 6.2351 9.7653L7.8351 11.3653C8.14752 11.6777 8.65405 11.6777 8.96647 11.3653L12.1665 8.16529Z" fill="#CFCFCF"/>
</g>
<defs>
<clipPath id="clip0_739_12228">
<rect width="20" height="20" fill="white"/>
</clipPath>
</defs>
</svg>
