<svg width="24" height="24" viewBox="0 0 24 24" fill="none" xmlns="http://www.w3.org/2000/svg">
<g clip-path="url(#clip0_927_12946)">
<path fill-rule="evenodd" clip-rule="evenodd" d="M12 5.69995C5.7 5.69995 3 12 3 12C3 12 5.7 18.3 12 18.3C18.3 18.3 21 12 21 12C21 12 18.3 5.69995 12 5.69995ZM9.4 12C9.4 10.564 10.5641 9.39995 12 9.39995C13.4359 9.39995 14.6 10.564 14.6 12C14.6 13.4359 13.4359 14.6 12 14.6C10.5641 14.6 9.4 13.4359 9.4 12ZM12 7.39995C9.45949 7.39995 7.4 9.45944 7.4 12C7.4 14.5405 9.45949 16.6 12 16.6C14.5405 16.6 16.6 14.5405 16.6 12C16.6 9.45944 14.5405 7.39995 12 7.39995Z" fill="#969696"/>
</g>
<defs>
<clipPath id="clip0_927_12946">
<rect width="24" height="24" fill="white"/>
</clipPath>
</defs>
</svg>
