<svg width="200" height="25" viewBox="0 0 200 25" fill="none" xmlns="http://www.w3.org/2000/svg">
<path d="M53.8802 1.17969L52.5089 3.86747H45.7072C44.4181 3.86747 43.7325 4.77254 43.7325 5.73246C43.7325 6.69238 44.1439 7.48774 45.2684 7.81686L50.6165 9.40759C53.3317 10.2304 54.4013 12.0131 54.4013 14.0426C54.4013 16.895 52.7283 18.952 49.3549 18.952H40.5236L41.8949 16.2642H49.0532C50.3422 16.2642 51.2473 15.6059 51.2473 14.3169C51.2473 13.3021 50.8085 12.5342 49.7389 12.2051L44.089 10.5595C41.8675 9.90126 40.4688 8.28311 40.4688 5.95187C40.5785 3.42865 42.3063 1.17969 45.6523 1.17969H53.8802Z" fill="#221E1F"/>
<path d="M69.9352 18.8868V10.2749C69.9352 9.12303 69.4141 8.43737 68.2622 8.43737H66.0406V18.8868H63.1334V8.43737H59.4034V18.8868H56.4414V5.88672H68.6324C71.2105 5.88672 72.8561 7.55972 72.8561 10.1927V18.8868H69.9214H69.9352Z" fill="#221E1F"/>
<path d="M78.8992 18.8868C76.2114 18.8868 74.7578 17.1315 74.7578 14.9648C74.7578 12.7982 76.2114 11.0429 78.8992 11.0429H83.6988V10.1927C83.6988 9.01332 83.1228 8.38251 81.8887 8.38251H75.7452L76.9793 5.88672H81.8887C84.9878 5.88672 86.606 7.42259 86.606 10.1927V18.8868H78.8992ZM79.146 13.429C78.1861 13.429 77.7473 14.142 77.7473 14.9374C77.7473 15.7328 78.2135 16.4184 79.1186 16.4184H83.6988V13.429H79.146Z" fill="#221E1F"/>
<path d="M89.1016 18.8868V10.3572C89.1016 7.83399 90.7471 5.88672 93.6543 5.88672H97.2746L95.9856 8.46479H94.0109C92.8041 8.46479 92.0636 9.23273 92.0636 10.4395V18.8868H89.1016Z" fill="#221E1F"/>
<path d="M102.65 19.01C99.7427 19.01 98.2891 17.5564 98.2891 14.7041V2.06055H101.251V6.00994H106.352L105.091 8.58802H101.251V14.7041C101.251 15.8834 101.854 16.4868 102.897 16.4868H106.462L105.173 19.01H102.65Z" fill="#221E1F"/>
<path d="M120.068 1.17969H125.828L124.456 3.89489H120.671C116.887 3.89489 114.912 6.14385 114.912 10.0658C114.912 13.9878 116.887 16.2367 120.671 16.2367H125.828L124.456 18.952H120.068C115.46 18.8971 111.758 15.7431 111.758 10.0658C111.758 4.38857 115.46 1.23454 120.068 1.17969Z" fill="#221E1F"/>
<path d="M133.067 5.59375C137.373 5.59375 139.814 8.39124 139.814 12.4503C139.814 16.5094 137.373 19.3069 133.067 19.3069C128.761 19.3069 126.32 16.5094 126.32 12.4503C126.32 8.39124 128.761 5.59375 133.067 5.59375ZM133.067 16.7014C135.563 16.7014 136.852 15.0833 136.852 12.4503C136.852 9.81741 135.563 8.22668 133.067 8.22668C130.571 8.22668 129.282 9.81741 129.282 12.4503C129.282 15.0833 130.571 16.7014 133.067 16.7014Z" fill="#221E1F"/>
<path d="M145.915 19.01C143.008 19.01 141.555 17.5564 141.555 14.7041V2.06055H144.517V6.00994H149.618L148.356 8.58802H144.517V14.7041C144.517 15.8834 145.12 16.4868 146.162 16.4868H149.728L148.439 19.01H145.915Z" fill="#221E1F"/>
<path d="M155.181 19.01C152.274 19.01 150.82 17.5564 150.82 14.7041V2.06055H153.782V6.00994H158.884L157.622 8.58802H153.782V14.7041C153.782 15.8834 154.386 16.4868 155.428 16.4868H158.993L157.704 19.01H155.181Z" fill="#221E1F"/>
<path d="M163.559 18.8868C160.872 18.8868 159.418 17.1315 159.418 14.9648C159.418 12.7982 160.872 11.0429 163.559 11.0429H168.359V10.1927C168.359 9.01332 167.783 8.38251 166.549 8.38251H160.405L161.639 5.88672H166.549C169.648 5.88672 171.266 7.42259 171.266 10.1927V18.8868H163.559ZM163.806 13.429C162.846 13.429 162.407 14.142 162.407 14.9374C162.407 15.7328 162.874 16.4184 163.779 16.4184H168.359V13.429H163.806Z" fill="#221E1F"/>
<path d="M184.558 18.4206C184.558 21.8214 182.693 23.4396 179.457 23.4396H174.931C175.343 22.6168 175.782 21.794 176.166 20.9712H179.567C181.075 20.9712 181.624 20.2307 181.624 18.8868H179.402C175.837 18.8868 173.039 16.5556 173.039 12.3868C173.039 8.21796 175.837 5.88672 179.402 5.88672H184.558V18.4206ZM181.596 8.40994H179.704C177.318 8.40994 176.056 10.0007 176.056 12.3868C176.056 14.7729 177.263 16.391 179.704 16.391H181.596V8.40994Z" fill="#221E1F"/>
<path d="M192.468 18.9328C188.518 18.9328 186.352 15.9708 186.352 12.2682C186.352 8.56564 188.628 5.57617 192.714 5.57617C196.801 5.57617 199.077 8.3188 199.077 12.3779V13.7218H189.423C189.643 15.3948 190.959 16.437 192.55 16.437H198.255L196.993 18.9328H192.468ZM196.033 11.2534C195.868 9.22387 194.771 8.09939 192.714 8.09939C190.767 8.09939 189.423 9.47071 189.368 11.2534H196.033Z" fill="#221E1F"/>
<path d="M5.21742 1.17969H1.11719V18.952H13.7196V15.4825H5.21742V1.17969Z" fill="#6D6E71"/>
<path d="M22.8049 12.1531H26.151V15.266C25.5339 15.4991 24.3271 15.7322 23.1889 15.7322C19.5001 15.7322 18.2659 13.8535 18.2659 10.0413C18.2659 6.229 19.4315 4.2543 23.1341 4.2543C25.1773 4.2543 26.3704 4.89882 27.3303 6.133L29.8809 3.78805C28.3313 1.56652 25.5887 0.880859 23.0518 0.880859C17.306 0.880859 14.2891 4.02118 14.2891 10.0001C14.2891 15.9791 17.018 19.1742 23.0244 19.1742C25.7807 19.1742 28.4685 18.4749 29.9358 17.4464V8.8345H22.8187V12.1394L22.8049 12.1531Z" fill="#6D6E71"/>
</svg>
