<svg width="160" height="20" viewBox="0 0 160 20" fill="none" xmlns="http://www.w3.org/2000/svg">
<g id="IMG/Logo/img_admin_logo_b">
<path id="Vector" d="M43.1042 0.943359L42.0071 3.09358H36.5657C35.5345 3.09358 34.986 3.81764 34.986 4.58558C34.986 5.35351 35.3151 5.98981 36.2147 6.2531L40.4932 7.52568C42.6654 8.18391 43.5211 9.61008 43.5211 11.2337C43.5211 13.5156 42.1827 15.1612 39.4839 15.1612H32.4189L33.5159 13.0109H39.2426C40.2738 13.0109 40.9978 12.4844 40.9978 11.4531C40.9978 10.6413 40.6468 10.027 39.7911 9.76367L35.2712 8.44721C33.494 7.92062 32.375 6.6261 32.375 4.76111C32.4628 2.74253 33.8451 0.943359 36.5219 0.943359H43.1042Z" fill="#221E1F"/>
<path id="Vector_2" d="M55.9473 15.109V8.21955C55.9473 7.29803 55.5305 6.7495 54.6089 6.7495H52.8317V15.109H50.506V6.7495H47.522V15.109H45.1523V4.70898H54.9051C56.9676 4.70898 58.2841 6.04739 58.2841 8.15373V15.109H55.9364H55.9473Z" fill="#221E1F"/>
<path id="Vector_3" d="M63.1178 15.109C60.9676 15.109 59.8047 13.7048 59.8047 11.9715C59.8047 10.2381 60.9676 8.8339 63.1178 8.8339H66.9575V8.15373C66.9575 7.21027 66.4967 6.70562 65.5094 6.70562H60.5946L61.5819 4.70898H65.5094C67.9887 4.70898 69.2832 5.93768 69.2832 8.15373V15.109H63.1178ZM63.3153 10.7428C62.5473 10.7428 62.1963 11.3132 62.1963 11.9495C62.1963 12.5858 62.5693 13.1344 63.2933 13.1344H66.9575V10.7428H63.3153Z" fill="#221E1F"/>
<path id="Vector_4" d="M71.2812 15.109V8.28538C71.2812 6.2668 72.5977 4.70898 74.9235 4.70898H77.8197L76.7885 6.77144H75.2087C74.2433 6.77144 73.6509 7.38579 73.6509 8.3512V15.109H71.2812Z" fill="#221E1F"/>
<path id="Vector_5" d="M82.1214 15.208C79.7957 15.208 78.6328 14.0451 78.6328 11.7633V1.64844H81.0025V4.80795H85.0835L84.0742 6.87041H81.0025V11.7633C81.0025 12.7067 81.4852 13.1894 82.3189 13.1894H85.1712L84.14 15.208H82.1214Z" fill="#221E1F"/>
<path id="Vector_6" d="M96.0544 0.943359H100.662L99.565 3.11553H96.5371C93.5092 3.11553 91.9295 4.91469 91.9295 8.05227C91.9295 11.1898 93.5092 12.989 96.5371 12.989H100.662L99.565 15.1612H96.0544C92.3683 15.1173 89.4062 12.5941 89.4062 8.05227C89.4062 3.51046 92.3683 0.987242 96.0544 0.943359Z" fill="#221E1F"/>
<path id="Vector_7" d="M106.452 4.47461C109.897 4.47461 111.85 6.7126 111.85 9.95988C111.85 13.2072 109.897 15.4451 106.452 15.4451C103.007 15.4451 101.055 13.2072 101.055 9.95988C101.055 6.7126 103.007 4.47461 106.452 4.47461ZM106.452 13.3607C108.449 13.3607 109.48 12.0662 109.48 9.95988C109.48 7.85353 108.449 6.58095 106.452 6.58095C104.456 6.58095 103.424 7.85353 103.424 9.95988C103.424 12.0662 104.456 13.3607 106.452 13.3607Z" fill="#221E1F"/>
<path id="Vector_8" d="M116.731 15.208C114.405 15.208 113.242 14.0451 113.242 11.7633V1.64844H115.612V4.80795H119.693L118.684 6.87041H115.612V11.7633C115.612 12.7067 116.095 13.1894 116.928 13.1894H119.781L118.749 15.208H116.731Z" fill="#221E1F"/>
<path id="Vector_9" d="M124.145 15.208C121.819 15.208 120.656 14.0451 120.656 11.7633V1.64844H123.026V4.80795H127.107L126.098 6.87041H123.026V11.7633C123.026 12.7067 123.509 13.1894 124.342 13.1894H127.195L126.163 15.208H124.145Z" fill="#221E1F"/>
<path id="Vector_10" d="M130.848 15.109C128.698 15.109 127.535 13.7048 127.535 11.9715C127.535 10.2381 128.698 8.8339 130.848 8.8339H134.688V8.15373C134.688 7.21027 134.227 6.70562 133.24 6.70562H128.325L129.312 4.70898H133.24C135.719 4.70898 137.014 5.93768 137.014 8.15373V15.109H130.848ZM131.046 10.7428C130.278 10.7428 129.927 11.3132 129.927 11.9495C129.927 12.5858 130.3 13.1344 131.024 13.1344H134.688V10.7428H131.046Z" fill="#221E1F"/>
<path id="Vector_11" d="M147.645 14.7361C147.645 17.4567 146.153 18.7513 143.564 18.7513H139.944C140.273 18.093 140.624 17.4348 140.931 16.7766H143.652C144.858 16.7766 145.297 16.1842 145.297 15.109H143.52C140.668 15.109 138.43 13.2441 138.43 9.90902C138.43 6.57397 140.668 4.70898 143.52 4.70898H147.645V14.7361ZM145.275 6.72756H143.761C141.853 6.72756 140.843 8.00014 140.843 9.90902C140.843 11.8179 141.809 13.1124 143.761 13.1124H145.275V6.72756Z" fill="#221E1F"/>
<path id="Vector_12" d="M153.975 15.1462C150.815 15.1462 149.082 12.7766 149.082 9.81456C149.082 6.85251 150.903 4.46094 154.172 4.46094C157.442 4.46094 159.263 6.65504 159.263 9.90232V10.9774H151.539C151.715 12.3158 152.768 13.1496 154.041 13.1496H158.604L157.595 15.1462H153.975ZM156.827 9.00274C156.696 7.3791 155.818 6.47952 154.172 6.47952C152.615 6.47952 151.539 7.57657 151.496 9.00274H156.827Z" fill="#221E1F"/>
<path id="Vector_13" d="M4.17472 0.943359H0.894531V15.1612H10.9765V12.3856H4.17472V0.943359Z" fill="#6D6E71"/>
<path id="Vector_14" d="M18.2424 9.72286H20.9192V12.2132C20.4255 12.3997 19.4601 12.5862 18.5496 12.5862C15.5985 12.5862 14.6111 11.0832 14.6111 8.0334C14.6111 4.98359 15.5436 3.40383 18.5057 3.40383C20.1403 3.40383 21.0947 3.91944 21.8627 4.90679L23.9032 3.03083C22.6635 1.2536 20.4694 0.705078 18.4399 0.705078C13.8432 0.705078 11.4297 3.21733 11.4297 8.00048C11.4297 12.7836 13.6128 15.3398 18.4179 15.3398C20.623 15.3398 22.7732 14.7803 23.9471 13.9575V7.06799H18.2534V9.71189L18.2424 9.72286Z" fill="#6D6E71"/>
</g>
</svg>
