<svg width="18" height="17" viewBox="0 0 18 17" fill="none" xmlns="http://www.w3.org/2000/svg">
<path d="M8.99984 1.69962C5.31794 1.69962 2.33317 4.67694 2.33317 8.34966C2.33317 12.0224 5.31794 14.9997 8.99984 14.9997C12.6817 14.9997 15.6665 12.0224 15.6665 8.34966C15.6665 4.67694 12.6817 1.69962 8.99984 1.69962ZM0.666504 8.34966C0.666504 3.75877 4.39746 0.0371094 8.99984 0.0371094C13.6022 0.0371094 17.3332 3.75877 17.3332 8.34966C17.3332 12.9406 13.6022 16.6622 8.99984 16.6622C4.39746 16.6622 0.666504 12.9406 0.666504 8.34966ZM8.99984 3.36213C9.46008 3.36213 9.83317 3.7343 9.83317 4.19339V8.00534L12.0891 10.2556C12.4145 10.5803 12.4145 11.1066 12.0891 11.4312C11.7637 11.7558 11.236 11.7558 10.9106 11.4312L8.41058 8.93745C8.2543 8.78156 8.1665 8.57012 8.1665 8.34966V4.19339C8.1665 3.7343 8.5396 3.36213 8.99984 3.36213Z" fill="#333333"/>
</svg>
