<svg width="18" height="17" viewBox="0 0 18 17" fill="none" xmlns="http://www.w3.org/2000/svg">
<path d="M2.19416 1.69962H5.93578L7.14179 4.70713L5.20439 5.9955C4.97256 6.14967 4.83331 6.40922 4.83331 6.68715C4.83542 6.76498 4.83331 6.68798 4.83331 6.68798L4.83331 6.68885L4.83331 6.69071L4.83334 6.69491L4.83346 6.70516C4.83359 6.71283 4.8338 6.72213 4.83415 6.73303C4.83485 6.75482 4.83613 6.78299 4.83841 6.81713C4.84297 6.88537 4.85157 6.97762 4.86772 7.09045C4.90002 7.31597 4.96271 7.6249 5.08441 7.98909C5.32877 8.72035 5.80892 9.66715 6.74405 10.6C7.67919 11.5328 8.62836 12.0117 9.36145 12.2555C9.72655 12.3769 10.0363 12.4394 10.2623 12.4716C10.3754 12.4877 10.4679 12.4963 10.5363 12.5008C10.5706 12.5031 10.5988 12.5044 10.6206 12.5051C10.6316 12.5055 10.6409 12.5057 10.6486 12.5058L10.6589 12.5059L10.6631 12.5059L10.6649 12.5059L10.6658 12.5059C10.6658 12.5059 10.7588 12.5008 10.6666 12.5059C10.9823 12.5059 11.2708 12.328 11.412 12.0464L11.9701 10.933L15.6666 11.5476V15.1385C13.9074 15.3923 9.15615 15.6424 5.42256 11.9182C1.68898 8.19388 1.93974 3.45448 2.19416 1.69962ZM6.56135 7.09121L8.06629 6.09042C8.72207 5.65432 8.98196 4.81963 8.68925 4.08968L7.48324 1.08218C7.23014 0.450993 6.61729 0.0371094 5.93578 0.0371094H2.15062C1.39353 0.0371094 0.680881 0.561766 0.556594 1.38117C0.273835 3.24534 -0.111037 8.74949 4.24405 13.0937C8.59914 17.438 14.1171 17.054 15.9859 16.772C16.8073 16.648 17.3333 15.9371 17.3333 15.1819V11.5476C17.3333 10.7349 16.7443 10.0413 15.9406 9.90772L12.2441 9.29316C11.5224 9.17317 10.8066 9.53675 10.4794 10.1896L10.1906 10.7656C10.0999 10.7434 9.99856 10.7149 9.8885 10.6783C9.37159 10.5064 8.65409 10.1541 7.92256 9.42439C7.19103 8.69468 6.83785 7.97898 6.66554 7.46335C6.61898 7.32402 6.58547 7.19875 6.56135 7.09121Z" fill="#333333"/>
</svg>
