<svg width="100" height="100" viewBox="0 0 100 100" fill="none" xmlns="http://www.w3.org/2000/svg">
<path d="M36 50.4675L50.1026 39.8906L64.2051 50.4675V72.5028H36V50.4675Z" fill="#73EBE0"/>
<path d="M29 56.9462L49.8333 38.8906L70.6667 56.9462" stroke="black" stroke-width="3"/>
<path d="M36 51V69.4744C36 71.4215 37.5785 73 39.5256 73H60.4744C62.4215 73 64 71.4215 64 69.4744V51" stroke="black" stroke-width="3"/>
<path d="M8.33301 22.2205C8.33301 16.084 13.3076 11.1094 19.4441 11.1094H79.1663C85.3028 11.1094 90.2775 16.084 90.2775 22.2205V26.3872H8.33301V22.2205Z" fill="#E4E4E4"/>
<path d="M9.72266 26.8789H90.2782" stroke="black" stroke-width="3" stroke-miterlimit="10"/>
<path d="M18.0557 19.9961H23.9135" stroke="black" stroke-width="3" stroke-miterlimit="10"/>
<path d="M27.7773 19.9961H33.6352" stroke="black" stroke-width="3" stroke-miterlimit="10"/>
<path d="M37.5 19.9961H43.3578" stroke="black" stroke-width="3" stroke-miterlimit="10"/>
<path d="M91.6663 76.9786V22.9158C91.6663 16.7793 86.6917 11.8047 80.5552 11.8047H19.4441C13.3076 11.8047 8.33301 16.7793 8.33301 22.9158V75.6936C8.33301 81.8301 13.3076 86.8047 19.4441 86.8047H49.3052" stroke="black" stroke-width="3" stroke-linecap="round"/>
<path fill-rule="evenodd" clip-rule="evenodd" d="M57.9106 65.503C57.3931 63.9101 58.3039 62.1865 59.945 61.6533C61.5862 61.12 63.3361 61.9791 63.8537 63.572L66.1234 70.5575L75.4756 68.6487C78.0794 68.1173 80.5729 69.8073 80.9534 72.3616L82.649 83.7413C82.8672 85.2057 81.9627 86.6273 80.5131 87.0983L70.8577 90.2355C69.3141 90.7371 67.6558 90.0018 67.05 88.5473L66.5414 87.3264C66.3206 86.7962 65.9108 86.3669 65.3915 86.1216L55.8419 81.6114C54.3405 80.9024 53.6755 79.1719 54.3181 77.6464C55.0022 76.0225 56.906 75.2364 58.5474 75.8999L61.7034 77.1758L57.9106 65.503Z" fill="white" stroke="white" stroke-width="9.72222"/>
<path fill-rule="evenodd" clip-rule="evenodd" d="M57.9116 65.4952C57.394 63.9023 58.3049 62.1787 59.946 61.6454C61.5871 61.1122 63.3371 61.9713 63.8547 63.5642L66.1244 70.5497L75.4766 68.6409C78.0804 68.1095 80.5738 69.7995 80.9544 72.3538L82.65 83.7334C82.8682 85.1979 81.9637 86.6195 80.5141 87.0905L70.8587 90.2277C69.3151 90.7292 67.6568 89.994 67.051 88.5395L66.5424 87.3186C66.3216 86.7884 65.9118 86.3591 65.3925 86.1138L55.8428 81.6036C54.3415 80.8945 53.6765 79.1641 54.3191 77.6386C55.0032 76.0147 56.907 75.2285 58.5484 75.8921L61.7043 77.168L57.9116 65.4952Z" fill="white" stroke="black" stroke-width="3"/>
</svg>
