<svg width="100" height="100" viewBox="0 0 100 100" fill="none" xmlns="http://www.w3.org/2000/svg">
<path d="M51.579 65.2557C30.7557 64.2641 18.113 58.232 14.3945 55.3398C14.3945 57.4056 14.6424 62.2809 15.634 65.2557C16.6256 68.2305 21.0051 73.1057 23.0709 75.1716L21.8314 88.8059L25.5499 92.5243H37.9447L41.6631 90.0453V82.6084H57.7764V88.8059L60.2554 92.5243H73.8897L76.3686 90.0453V80.1295L87.524 68.9741H92.4819L97.4398 66.4952V57.8188C90.8292 60.7109 72.4023 66.2473 51.579 65.2557Z" fill="#E4E4E4"/>
<path d="M48.5433 38.8795C57.3465 38.8795 64.483 31.743 64.483 22.9397C64.483 14.1365 57.3465 7 48.5433 7C39.74 7 32.6035 14.1365 32.6035 22.9397C32.6035 31.743 39.74 38.8795 48.5433 38.8795Z" fill="#73EBE0" stroke="black" stroke-width="3" stroke-linecap="round" stroke-linejoin="round"/>
<path d="M32.6044 28.842C32.6044 28.842 14.7311 35.2873 13.6403 52.0699C12.6983 66.4479 22.4407 75.149 22.4407 75.149V88.7585C22.4407 90.9648 24.2255 92.7497 26.4318 92.7497H37.4136C39.6199 92.7497 41.4047 90.9648 41.4047 88.7585V82.8586H57.8898V88.7585C57.8898 90.9648 59.6747 92.7497 61.881 92.7497H72.5901C74.7964 92.7497 76.5812 90.9648 76.5812 88.7585V79.8343C80.6963 77.628 87.563 68.8525 87.563 68.8525H94.0083C96.2146 68.8525 97.9995 67.0676 97.9995 64.8613V49.7644C97.9995 47.5582 96.2146 45.7733 94.0083 45.7733H88.3811C87.0177 39.9973 80.4236 35.8822 80.4236 35.8822C80.4236 35.8822 82.0845 21.8761 80.4236 20.7606C78.7627 19.645 69.5658 26.9332 68.7477 27.2059C68.7477 27.2059 65.3267 26.7349 63.9385 27.0323" stroke="black" stroke-width="3" stroke-linecap="round" stroke-linejoin="round"/>
<path d="M7.31948 38.875C7.31948 38.875 1.19644 42.7422 2.08887 49.3114C2.98129 55.8807 13.3929 56.674 13.3929 56.674" stroke="black" stroke-width="3" stroke-linecap="round" stroke-linejoin="round"/>
<path d="M32.6035 38.875H64.483" stroke="black" stroke-width="3" stroke-linecap="round" stroke-linejoin="round"/>
<path d="M73.9309 53.436C75.6833 53.436 77.104 52.0154 77.104 50.2629C77.104 48.5105 75.6833 47.0898 73.9309 47.0898C72.1784 47.0898 70.7578 48.5105 70.7578 50.2629C70.7578 52.0154 72.1784 53.436 73.9309 53.436Z" fill="black"/>
</svg>
