<svg width="100" height="100" viewBox="0 0 100 100" fill="none" xmlns="http://www.w3.org/2000/svg">
<rect x="25.9648" y="23.2383" width="35.8421" height="55.7545" fill="#E4E4E4"/>
<path d="M71.3883 55.5774C86.1833 55.5774 98.177 43.5837 98.177 28.7887C98.177 13.9937 86.1833 2 71.3883 2C56.5933 2 44.5996 13.9937 44.5996 28.7887C44.5996 43.5837 56.5933 55.5774 71.3883 55.5774Z" fill="#73EBE0" stroke="black" stroke-width="3" stroke-linecap="round" stroke-linejoin="round"/>
<path d="M62.0449 23.2916C62.0449 18.0613 66.2929 13.8398 71.4966 13.8398C76.7004 13.8398 80.9484 18.0878 80.9484 23.2916C80.9484 28.4953 76.7004 32.7433 71.4966 32.7433V36.4868" stroke="black" stroke-width="3" stroke-linecap="round" stroke-linejoin="round"/>
<path d="M69.1614 55.4783V86.4087C69.1614 92.2762 64.4089 97.0021 58.568 97.0021H28.5934C22.7259 97.0021 18 92.2497 18 86.4087V25.7691C18 19.9016 22.7524 15.1758 28.5934 15.1758H48.3198" stroke="black" stroke-width="3" stroke-linecap="round" stroke-linejoin="round"/>
<path d="M71.3902 46.1515C72.7685 46.1515 73.8859 45.0342 73.8859 43.6558C73.8859 42.2775 72.7685 41.1602 71.3902 41.1602C70.0119 41.1602 68.8945 42.2775 68.8945 43.6558C68.8945 45.0342 70.0119 46.1515 71.3902 46.1515Z" fill="black"/>
<path d="M35.2578 86.4609H51.5594" stroke="black" stroke-width="3" stroke-linecap="round" stroke-linejoin="round"/>
</svg>
