<svg width="100" height="100" viewBox="0 0 100 100" fill="none" xmlns="http://www.w3.org/2000/svg">
<path d="M73.9814 51.7065C62.4317 55.5564 44.3051 56.5188 36.6855 56.5188C37.8886 63.7374 35.4824 67.7477 34.2793 69.7529C34.2793 69.7529 37.8886 70.956 40.2948 73.3622C42.701 75.7684 48.7164 87.7993 48.7164 87.7993L83.6062 89.0024L90.8248 87.7993L95.6372 80.5807V28.8477C93.231 34.8631 85.5312 47.8566 73.9814 51.7065Z" fill="#E4E4E4"/>
<path d="M11.5449 40.754V22.876C11.5449 16.8846 16.4054 12 22.4209 12H83.5141C89.5055 12 94.3901 16.8605 94.3901 22.876V77.1596C94.3901 83.151 89.5296 88.0356 83.5141 88.0356H47.9746" stroke="black" stroke-width="3" stroke-linecap="round" stroke-linejoin="round"/>
<path d="M46.3359 32.8047V65.2161" stroke="black" stroke-width="3" stroke-linecap="round" stroke-linejoin="round"/>
<path d="M60.748 45.2227V65.2181" stroke="black" stroke-width="3" stroke-linecap="round" stroke-linejoin="round"/>
<path d="M74.3457 36.4141V65.2162" stroke="black" stroke-width="3" stroke-linecap="round" stroke-linejoin="round"/>
<path d="M19.8435 69.7495C25.1591 69.7495 29.4683 65.4404 29.4683 60.1248C29.4683 54.8092 25.1591 50.5 19.8435 50.5C14.5279 50.5 10.2188 54.8092 10.2188 60.1248C10.2188 65.4404 14.5279 69.7495 19.8435 69.7495Z" fill="#73EBE0" stroke="black" stroke-width="3" stroke-linecap="round" stroke-linejoin="round"/>
<path d="M36.3257 88.0392L30.7915 78.4867C29.3959 76.8264 27.3506 75.8398 25.161 75.8398H14.1647C11.9992 75.8398 9.92983 76.8023 8.53424 78.4867L3 88.0392" fill="#73EBE0"/>
<path d="M36.3257 88.0392L30.7915 78.4867C29.3959 76.8264 27.3506 75.8398 25.161 75.8398H14.1647C11.9992 75.8398 9.92983 76.8023 8.53424 78.4867L3 88.0392" stroke="black" stroke-width="3" stroke-linecap="round" stroke-linejoin="round"/>
</svg>
