<svg width="517" height="199" viewBox="0 0 517 199" fill="none" xmlns="http://www.w3.org/2000/svg">
<g filter="url(#filter0_bd_1056_97054)">
<path fill-rule="evenodd" clip-rule="evenodd" d="M21 5C14.3726 5 9 10.3726 9 17V174C9 180.627 14.3726 186 21 186H464C464.061 186 464.122 186 464.182 185.999H505.799L476 155.97V17C476 10.3726 470.627 5 464 5H21Z" fill="white" fill-opacity="0.5" shape-rendering="crispEdges"/>
<path d="M464.182 185.999V184.999H464.175L464.168 184.999L464.182 185.999ZM505.799 185.999V186.999H508.2L506.509 185.294L505.799 185.999ZM476 155.97H475V156.382L475.29 156.675L476 155.97ZM8 17V18.9625H10V17H8ZM8 22.8875V26.8125H10V22.8875H8ZM8 30.7375V34.6625H10V30.7375H8ZM8 38.5875V42.5125H10V38.5875H8ZM8 46.4375V50.3625H10V46.4375H8ZM8 54.2875V58.2125H10V54.2875H8ZM8 62.1375V66.0625H10V62.1375H8ZM8 69.9875V73.9125H10V69.9875H8ZM8 77.8375V81.7625H10V77.8375H8ZM8 85.6875V89.6125H10V85.6875H8ZM8 93.5375V97.4625H10V93.5375H8ZM8 101.388V105.313H10V101.388H8ZM8 109.238V113.163H10V109.238H8ZM8 117.088V121.013H10V117.088H8ZM8 124.938V128.863H10V124.938H8ZM8 132.788V136.713H10V132.788H8ZM8 140.638V144.563H10V140.638H8ZM8 148.488V152.413H10V148.488H8ZM8 156.338V160.263H10V156.338H8ZM8 164.188V168.113H10V164.188H8ZM8 172.038V174H10V172.038H8ZM8 174C8 174.867 8.085 175.715 8.24742 176.536L10.2094 176.148C10.0721 175.454 10 174.736 10 174H8ZM10.1902 181.224C11.1391 182.641 12.3591 183.861 13.7763 184.81L14.8889 183.148C13.6889 182.344 12.6556 181.311 11.8522 180.111L10.1902 181.224ZM18.464 186.753C19.285 186.915 20.1331 187 21 187V185C20.2641 185 19.546 184.928 18.8521 184.791L18.464 186.753ZM21 187H23.0136V185H21V187ZM27.0409 187H31.0682V185H27.0409V187ZM35.0955 187H39.1227V185H35.0955V187ZM43.15 187H47.1773V185H43.15V187ZM51.2045 187H55.2318V185H51.2045V187ZM59.2591 187H63.2864V185H59.2591V187ZM67.3136 187H71.3409V185H67.3136V187ZM75.3682 187H79.3954V185H75.3682V187ZM83.4227 187H87.45V185H83.4227V187ZM91.4773 187H95.5045V185H91.4773V187ZM99.5318 187H103.559V185H99.5318V187ZM107.586 187H111.614V185H107.586V187ZM115.641 187H119.668V185H115.641V187ZM123.695 187H127.723V185H123.695V187ZM131.75 187H135.777V185H131.75V187ZM139.805 187H143.832V185H139.805V187ZM147.859 187H151.886V185H147.859V187ZM155.914 187H159.941V185H155.914V187ZM163.968 187H167.995V185H163.968V187ZM172.023 187H176.05V185H172.023V187ZM180.077 187H184.105V185H180.077V187ZM188.132 187H192.159V185H188.132V187ZM196.186 187H200.214V185H196.186V187ZM204.241 187H208.268V185H204.241V187ZM212.295 187H216.323V185H212.295V187ZM220.35 187H224.377V185H220.35V187ZM228.404 187H232.432V185H228.404V187ZM236.459 187H240.486V185H236.459V187ZM244.514 187H248.541V185H244.514V187ZM252.568 187H256.595V185H252.568V187ZM260.623 187H264.65V185H260.623V187ZM268.677 187H272.704V185H268.677V187ZM276.732 187H280.759V185H276.732V187ZM284.786 187H288.814V185H284.786V187ZM292.841 187H296.868V185H292.841V187ZM300.895 187H304.923V185H300.895V187ZM308.95 187H312.977V185H308.95V187ZM317.004 187H321.032V185H317.004V187ZM325.059 187H329.086V185H325.059V187ZM333.114 187H337.141V185H333.114V187ZM341.168 187H345.195V185H341.168V187ZM349.223 187H353.25V185H349.223V187ZM357.277 187H361.305V185H357.277V187ZM365.332 187H369.359V185H365.332V187ZM373.386 187H377.414V185H373.386V187ZM381.441 187H385.468V185H381.441V187ZM389.496 187H393.523V185H389.496V187ZM397.55 187H401.577V185H397.55V187ZM405.605 187H409.632V185H405.605V187ZM413.659 187H417.687V185H413.659V187ZM421.714 187H425.741V185H421.714V187ZM429.768 187H433.796V185H429.768V187ZM437.823 187H441.85V185H437.823V187ZM445.878 187H449.905V185H445.878V187ZM453.932 187H457.959V185H453.932V187ZM461.987 187H464V185H461.987V187ZM464 187C464.016 187 464.033 187 464.049 187L464.042 185C464.028 185 464.014 185 464 185V187ZM464.148 186.999C464.164 186.999 464.181 186.999 464.197 186.999L464.168 184.999C464.154 184.999 464.14 184.999 464.126 184.999L464.148 186.999ZM464.182 186.999H466.263V184.999H464.182V186.999ZM470.425 186.999H474.586V184.999H470.425V186.999ZM478.748 186.999H482.91V184.999H478.748V186.999ZM487.071 186.999H491.233V184.999H487.071V186.999ZM495.395 186.999H499.556V184.999H495.395V186.999ZM503.718 186.999H505.799V184.999H503.718V186.999ZM506.509 185.294L505.019 183.793L503.599 185.202L505.089 186.703L506.509 185.294ZM502.039 180.79L499.059 177.787L497.639 179.196L500.619 182.199L502.039 180.79ZM496.079 174.784L493.099 171.781L491.68 173.19L494.659 176.193L496.079 174.784ZM490.119 168.779L487.139 165.776L485.72 167.185L488.7 170.187L490.119 168.779ZM484.16 162.773L481.18 159.77L479.76 161.179L482.74 164.182L484.16 162.773ZM478.2 156.767L476.71 155.266L475.29 156.675L476.78 158.176L478.2 156.767ZM477 155.97V153.927H475V155.97H477ZM477 149.839V145.752H475V149.839H477ZM477 141.664V137.577H475V141.664H477ZM477 133.49V129.402H475V133.49H477ZM477 125.315V121.228H475V125.315H477ZM477 117.14V113.053H475V117.14H477ZM477 108.966V104.878H475V108.966H477ZM477 100.791V96.7035H475V100.791H477ZM477 92.6161V88.5288H475V92.6161H477ZM477 84.4414V80.3541H475V84.4414H477ZM477 76.2667V72.1794H475V76.2667H477ZM477 68.092V64.0047H475V68.092H477ZM477 59.9173V55.8299H475V59.9173H477ZM477 51.7426V47.6552H475V51.7426H477ZM477 43.5679V39.4805H475V43.5679H477ZM477 35.3932V31.3058H475V35.3932H477ZM477 27.2184V23.1311H475V27.2184H477ZM477 19.0437V17H475V19.0437H477ZM477 17C477 16.1331 476.915 15.285 476.753 14.464L474.791 14.8521C474.928 15.546 475 16.2641 475 17H477ZM474.81 9.77629C473.861 8.35906 472.641 7.13906 471.224 6.19025L470.111 7.85218C471.311 8.65556 472.344 9.68894 473.148 10.8889L474.81 9.77629ZM466.536 4.24742C465.715 4.085 464.867 4 464 4V6C464.736 6 465.454 6.07213 466.148 6.2094L466.536 4.24742ZM464 4H461.986V6H464V4ZM457.959 4H453.932V6H457.959V4ZM449.905 4H445.877V6H449.905V4ZM441.85 4H437.823V6H441.85V4ZM433.795 4H429.768V6H433.795V4ZM425.741 4H421.714V6H425.741V4ZM417.686 4H413.659V6H417.686V4ZM409.632 4H405.605V6H409.632V4ZM401.577 4H397.55V6H401.577V4ZM393.523 4H389.495V6H393.523V4ZM385.468 4H381.441V6H385.468V4ZM377.414 4H373.386V6H377.414V4ZM369.359 4H365.332V6H369.359V4ZM361.305 4H357.277V6H361.305V4ZM353.25 4H349.223V6H353.25V4ZM345.195 4H341.168V6H345.195V4ZM337.141 4H333.114V6H337.141V4ZM329.086 4H325.059V6H329.086V4ZM321.032 4H317.005V6H321.032V4ZM312.977 4H308.95V6H312.977V4ZM304.923 4H300.895V6H304.923V4ZM296.868 4H292.841V6H296.868V4ZM288.814 4H284.786V6H288.814V4ZM280.759 4H276.732V6H280.759V4ZM272.705 4H268.677V6H272.705V4ZM264.65 4H260.623V6H264.65V4ZM256.596 4H252.568V6H256.596V4ZM248.541 4H244.514V6H248.541V4ZM240.486 4H236.459V6H240.486V4ZM232.432 4H228.405V6H232.432V4ZM224.377 4H220.35V6H224.377V4ZM216.323 4H212.296V6H216.323V4ZM208.268 4H204.241V6H208.268V4ZM200.214 4H196.186V6H200.214V4ZM192.159 4H188.132V6H192.159V4ZM184.105 4H180.077V6H184.105V4ZM176.05 4H172.023V6H176.05V4ZM167.996 4H163.968V6H167.996V4ZM159.941 4H155.914V6H159.941V4ZM151.886 4H147.859V6H151.886V4ZM143.832 4H139.805V6H143.832V4ZM135.777 4H131.75V6H135.777V4ZM127.723 4H123.695V6H127.723V4ZM119.668 4H115.641V6H119.668V4ZM111.614 4H107.586V6H111.614V4ZM103.559 4H99.5317V6H103.559V4ZM95.5044 4H91.4771V6H95.5044V4ZM87.4499 4H83.4226V6H87.4499V4ZM79.3953 4H75.368V6H79.3953V4ZM71.3407 4H67.3134V6H71.3407V4ZM63.2862 4H59.2589V6H63.2862V4ZM55.2316 4H51.2043V6H55.2316V4ZM47.177 4H43.1497V6H47.177V4ZM39.1225 4H35.0952V6H39.1225V4ZM31.0679 4H27.0406V6H31.0679V4ZM23.0133 4H21V6H23.0133V4ZM21 4C20.1331 4 19.285 4.085 18.464 4.24742L18.8521 6.2094C19.546 6.07213 20.2641 6 21 6V4ZM13.7763 6.19025C12.3591 7.13907 11.1391 8.35906 10.1902 9.7763L11.8522 10.8889C12.6556 9.68894 13.6889 8.65556 14.8889 7.85219L13.7763 6.19025ZM8.24742 14.464C8.085 15.285 8 16.1331 8 17H10C10 16.2641 10.0721 15.546 10.2094 14.8521L8.24742 14.464Z" fill="white"/>
</g>
<defs>
<filter id="filter0_bd_1056_97054" x="-7" y="-11" width="530.2" height="213" filterUnits="userSpaceOnUse" color-interpolation-filters="sRGB">
<feFlood flood-opacity="0" result="BackgroundImageFix"/>
<feGaussianBlur in="BackgroundImage" stdDeviation="7.5"/>
<feComposite in2="SourceAlpha" operator="in" result="effect1_backgroundBlur_1056_97054"/>
<feColorMatrix in="SourceAlpha" type="matrix" values="0 0 0 0 0 0 0 0 0 0 0 0 0 0 0 0 0 0 127 0" result="hardAlpha"/>
<feOffset dy="4"/>
<feGaussianBlur stdDeviation="4"/>
<feComposite in2="hardAlpha" operator="out"/>
<feColorMatrix type="matrix" values="0 0 0 0 0 0 0 0 0 0 0 0 0 0 0 0 0 0 0.1 0"/>
<feBlend mode="normal" in2="effect1_backgroundBlur_1056_97054" result="effect2_dropShadow_1056_97054"/>
<feBlend mode="normal" in="SourceGraphic" in2="effect2_dropShadow_1056_97054" result="shape"/>
</filter>
</defs>
</svg>
