<svg width="330" height="164" viewBox="0 0 330 164" fill="none" xmlns="http://www.w3.org/2000/svg">
<g filter="url(#filter0_d_1056_97395)">
<path fill-rule="evenodd" clip-rule="evenodd" d="M172.583 16L164.5 2L156.417 16H17C10.3726 16 5 21.3726 5 28V143C5 149.627 10.3726 155 17 155H313C319.627 155 325 149.627 325 143V28C325 21.3726 319.627 16 313 16H172.583Z" fill="white" fill-opacity="0.6" shape-rendering="crispEdges"/>
<path d="M164.5 2L165.366 1.5L164.5 -4.76837e-07L163.634 1.5L164.5 2ZM172.583 16L171.717 16.5L172.006 17H172.583V16ZM156.417 16V17H156.994L157.283 16.5L156.417 16ZM163.634 1.5L162.624 3.25L164.356 4.25L165.366 2.5L163.634 1.5ZM160.603 6.75L158.582 10.25L160.314 11.25L162.335 7.75L160.603 6.75ZM156.561 13.75L155.551 15.5L157.283 16.5L158.293 14.75L156.561 13.75ZM156.417 15H154.367V17H156.417V15ZM150.266 15H146.166V17H150.266V15ZM142.065 15H137.965V17H142.065V15ZM133.864 15H129.764V17H133.864V15ZM125.663 15H121.563V17H125.663V15ZM117.462 15H113.362V17H117.462V15ZM109.261 15H105.161V17H109.261V15ZM101.06 15H96.9598V17H101.06V15ZM92.8593 15H88.7588V17H92.8593V15ZM84.6583 15H80.5578V17H84.6583V15ZM76.4573 15H72.3568V17H76.4573V15ZM68.2563 15H64.1558V17H68.2563V15ZM60.0553 15H55.9548V17H60.0553V15ZM51.8543 15H47.7538V17H51.8543V15ZM43.6533 15H39.5528V17H43.6533V15ZM35.4523 15H31.3518V17H35.4523V15ZM27.2513 15H23.1508V17H27.2513V15ZM19.0503 15H17V17H19.0503V15ZM17 15C16.1331 15 15.285 15.085 14.464 15.2474L14.8521 17.2094C15.546 17.0721 16.2641 17 17 17V15ZM9.77629 17.1902C8.35906 18.1391 7.13906 19.3591 6.19025 20.7763L7.85218 21.8889C8.65556 20.6889 9.68893 19.6556 10.8889 18.8522L9.77629 17.1902ZM4.24742 25.464C4.085 26.285 4 27.1331 4 28H6C6 27.2641 6.07213 26.546 6.2094 25.8521L4.24742 25.464ZM4 28V30.0536H6V28H4ZM4 34.1607V38.2679H6V34.1607H4ZM4 42.375V46.4821H6V42.375H4ZM4 50.5893V54.6964H6V50.5893H4ZM4 58.8036V62.9107H6V58.8036H4ZM4 67.0179V71.125H6V67.0179H4ZM4 75.2321V79.3393H6V75.2321H4ZM4 83.4464V87.5536H6V83.4464H4ZM4 91.6607V95.7679H6V91.6607H4ZM4 99.875V103.982H6V99.875H4ZM4 108.089V112.196H6V108.089H4ZM4 116.304V120.411H6V116.304H4ZM4 124.518V128.625H6V124.518H4ZM4 132.732V136.839H6V132.732H4ZM4 140.946V143H6V140.946H4ZM4 143C4 143.867 4.085 144.715 4.24742 145.536L6.2094 145.148C6.07213 144.454 6 143.736 6 143H4ZM6.19025 150.224C7.13907 151.641 8.35906 152.861 9.7763 153.81L10.8889 152.148C9.68894 151.344 8.65557 150.311 7.85219 149.111L6.19025 150.224ZM14.464 155.753C15.285 155.915 16.1331 156 17 156V154C16.2641 154 15.546 153.928 14.8521 153.791L14.464 155.753ZM17 156H19V154H17V156ZM23 156H27V154H23V156ZM31 156H35V154H31V156ZM39 156H43V154H39V156ZM47 156H51V154H47V156ZM55 156H59V154H55V156ZM63 156H67V154H63V156ZM71 156H75V154H71V156ZM79 156H83V154H79V156ZM87 156H91V154H87V156ZM95 156H99V154H95V156ZM103 156H107V154H103V156ZM111 156H115V154H111V156ZM119 156H123V154H119V156ZM127 156H131V154H127V156ZM135 156H139V154H135V156ZM143 156H147V154H143V156ZM151 156H155V154H151V156ZM159 156H163V154H159V156ZM167 156H171V154H167V156ZM175 156H179V154H175V156ZM183 156H187V154H183V156ZM191 156H195V154H191V156ZM199 156H203V154H199V156ZM207 156H211V154H207V156ZM215 156H219V154H215V156ZM223 156H227V154H223V156ZM231 156H235V154H231V156ZM239 156H243V154H239V156ZM247 156H251V154H247V156ZM255 156H259V154H255V156ZM263 156H267V154H263V156ZM271 156H275V154H271V156ZM279 156H283V154H279V156ZM287 156H291V154H287V156ZM295 156H299V154H295V156ZM303 156H307V154H303V156ZM311 156H313V154H311V156ZM313 156C313.867 156 314.715 155.915 315.536 155.753L315.148 153.791C314.454 153.928 313.736 154 313 154V156ZM320.224 153.81C321.641 152.861 322.861 151.641 323.81 150.224L322.148 149.111C321.344 150.311 320.311 151.344 319.111 152.148L320.224 153.81ZM325.753 145.536C325.915 144.715 326 143.867 326 143H324C324 143.736 323.928 144.454 323.791 145.148L325.753 145.536ZM326 143V140.946H324V143H326ZM326 136.839V132.732H324V136.839H326ZM326 128.625V124.518H324V128.625H326ZM326 120.411V116.304H324V120.411H326ZM326 112.196V108.089H324V112.196H326ZM326 103.982V99.875H324V103.982H326ZM326 95.7678V91.6607H324V95.7678H326ZM326 87.5536V83.4464H324V87.5536H326ZM326 79.3393V75.2321H324V79.3393H326ZM326 71.125V67.0178H324V71.125H326ZM326 62.9107V58.8036H324V62.9107H326ZM326 54.6964V50.5893H324V54.6964H326ZM326 46.4821V42.375H324V46.4821H326ZM326 38.2679V34.1607H324V38.2679H326ZM326 30.0536V28H324V30.0536H326ZM326 28C326 27.1331 325.915 26.285 325.753 25.464L323.791 25.8521C323.928 26.546 324 27.2641 324 28H326ZM323.81 20.7763C322.861 19.3591 321.641 18.1391 320.224 17.1902L319.111 18.8522C320.311 19.6556 321.344 20.6889 322.148 21.8889L323.81 20.7763ZM315.536 15.2474C314.715 15.085 313.867 15 313 15V17C313.736 17 314.454 17.0721 315.148 17.2094L315.536 15.2474ZM313 15H311.05V17H313V15ZM307.149 15H303.249V17H307.149V15ZM299.348 15H295.448V17H299.348V15ZM291.547 15H287.647V17H291.547V15ZM283.746 15H279.846V17H283.746V15ZM275.945 15H272.045V17H275.945V15ZM268.145 15H264.244V17H268.145V15ZM260.344 15H256.443V17H260.344V15ZM252.543 15H248.642V17H252.543V15ZM244.742 15H240.841V17H244.742V15ZM236.941 15H233.04V17H236.941V15ZM229.14 15H225.239V17H229.14V15ZM221.339 15H217.438V17H221.339V15ZM213.538 15H209.637V17H213.538V15ZM205.737 15H201.836V17H205.737V15ZM197.936 15H194.036V17H197.936V15ZM190.135 15H186.235V17H190.135V15ZM182.334 15H178.434V17H182.334V15ZM174.533 15H172.583V17H174.533V15ZM173.449 15.5L172.439 13.75L170.707 14.75L171.717 16.5L173.449 15.5ZM170.418 10.25L168.397 6.75L166.665 7.75L168.686 11.25L170.418 10.25ZM166.376 3.25L165.366 1.5L163.634 2.5L164.644 4.25L166.376 3.25Z" fill="white"/>
</g>
<defs>
<filter id="filter0_d_1056_97395" x="0" y="0" width="330" height="164" filterUnits="userSpaceOnUse" color-interpolation-filters="sRGB">
<feFlood flood-opacity="0" result="BackgroundImageFix"/>
<feColorMatrix in="SourceAlpha" type="matrix" values="0 0 0 0 0 0 0 0 0 0 0 0 0 0 0 0 0 0 127 0" result="hardAlpha"/>
<feOffset dy="4"/>
<feGaussianBlur stdDeviation="2"/>
<feComposite in2="hardAlpha" operator="out"/>
<feColorMatrix type="matrix" values="0 0 0 0 0 0 0 0 0 0 0 0 0 0 0 0 0 0 0.1 0"/>
<feBlend mode="normal" in2="BackgroundImageFix" result="effect1_dropShadow_1056_97395"/>
<feBlend mode="normal" in="SourceGraphic" in2="effect1_dropShadow_1056_97395" result="shape"/>
</filter>
</defs>
</svg>
