<svg width="508" height="870" viewBox="0 0 508 870" fill="none" xmlns="http://www.w3.org/2000/svg">
<g filter="url(#filter0_dii_1056_96781)">
<g clip-path="url(#clip0_1056_96781)">
<rect x="10" width="468" height="830" rx="40" fill="#F7F7F7"/>
<g filter="url(#filter1_i_1056_96781)">
<g clip-path="url(#clip1_1056_96781)">
<rect x="40" y="30" width="408" height="770" rx="24" fill="#87EDE4"/>
<g clip-path="url(#clip2_1056_96781)">
<path d="M40 50C40 38.9543 48.9543 30 60 30H428C439.046 30 448 38.9543 448 50V415H40V50Z" fill="#FFC9C7"/>
<g style="mix-blend-mode:multiply">
<path d="M251.041 372.999C293.485 372.999 327.892 370.087 327.892 366.496C327.892 362.904 293.485 359.992 251.041 359.992C208.597 359.992 174.189 362.904 174.189 366.496C174.189 370.087 208.597 372.999 251.041 372.999Z" fill="#C7C7C7"/>
</g>
<path d="M432.71 216.258L409.058 213.871L406.622 214.339C402.401 215.322 399.068 216.806 394.284 223.713C389.634 230.439 388.254 246.951 388.254 246.951C388.254 246.951 393.935 242.882 402.932 242.557C411.93 242.232 415.286 243.961 415.286 243.961C415.286 243.961 414.881 232.889 418.499 227.132C423.006 219.962 432.718 216.258 432.718 216.258H432.71Z" fill="#9EAF61"/>
<path d="M390.578 243.46L390.721 242.144C390.729 242.041 391.007 239.511 391.737 236.1C392.728 231.492 394.022 227.67 395.585 224.719C398.743 218.771 404.558 215.06 412.858 213.68L413.064 214.853C405.225 216.162 399.774 220.278 396.862 225.751C394.093 230.953 392.832 238.147 392.403 241.073C394.426 240.558 398.782 239.503 401.535 239.225C405.526 238.813 410.493 239.598 412.413 239.947C412.588 238.02 413.08 233.713 414.286 229.978C415.659 225.727 417.92 223.094 419.57 221.634C421.371 220.04 422.855 219.453 422.918 219.43L423.379 221.214C423.379 221.214 422.03 221.761 420.411 223.197C418.269 225.108 416.682 227.622 415.698 230.676C414.214 235.283 413.857 241.041 413.85 241.105L413.786 242.128L412.961 241.953C412.897 241.937 406.415 240.613 401.655 241.097C398.14 241.454 391.689 243.175 391.626 243.191L390.57 243.476L390.578 243.46Z" fill="#639334"/>
<path d="M410.636 214.641C408.256 215.124 404.923 220.589 410.565 221.929C416.682 223.388 420.332 221.842 422.276 220.708C424.219 219.574 416.349 215.124 416.349 215.124L410.644 214.641H410.636Z" fill="#639334"/>
<path d="M406.631 214.339C406.631 214.339 412.09 213.03 421.23 221.707C427.07 227.25 437.384 244.73 437.384 244.73C437.384 244.73 439.812 239.726 444.454 235.927C451.999 229.749 456.411 228.028 456.411 228.028C456.411 228.028 451.103 219.201 443.502 216.044C425.165 208.43 406.623 214.347 406.623 214.347L406.631 214.339Z" fill="#BDE377"/>
<path d="M453.45 227.701L454.632 227.296L453.752 226.241C453.53 225.972 448.222 219.651 441.985 215.971C441.073 215.432 440.113 214.924 439.129 214.448C435.741 213.401 432.393 212.767 429.211 212.426C432.393 213.108 436.487 213.227 441.922 217.327C446.262 220.603 450.142 224.568 451.895 226.503C450.205 227.249 446.936 228.914 443.604 231.88C440.938 234.244 438.335 237.234 437.201 238.574C435.178 235.219 427.481 222.657 423.657 219.104C420.269 215.955 416.508 213.933 413.945 212.791C413.906 212.775 413.914 212.791 413.866 212.767C412.652 212.941 411.7 213.163 410.756 213.354C413.382 214.274 418.373 216.383 422.8 220.499C426.974 224.37 436.447 240.255 436.542 240.414L437.026 241.231L437.613 240.517C437.645 240.477 441.049 236.306 444.437 233.292C448.92 229.303 453.411 227.725 453.458 227.709L453.45 227.701Z" fill="#6BA638"/>
<path d="M413.858 212.76C415.119 213.49 422.45 216.171 427.417 215.274C432.384 214.378 433.535 213.339 431.519 212.824C429.504 212.3 427.465 211.904 422.887 211.935C418.309 211.967 413.85 212.76 413.85 212.76H413.858Z" fill="#6BA638"/>
<path d="M439.986 224.508C439.002 225.246 437.883 225.182 437.486 224.373C437.082 223.564 437.558 222.311 438.534 221.574C439.517 220.836 440.636 220.899 441.033 221.708C441.438 222.517 440.961 223.77 439.986 224.508Z" fill="#6BA638"/>
<path d="M405.876 232.403C404.734 232.26 403.869 231.38 403.948 230.436C404.028 229.492 405.012 228.842 406.154 228.984C407.297 229.127 408.162 230.008 408.082 230.951C408.003 231.895 407.019 232.545 405.876 232.403Z" fill="#639334"/>
<path d="M391.729 240.219C392.379 236.927 395.236 238.894 393.95 241.527C392.578 244.327 389.594 241.837 391.729 239.37V240.219Z" fill="#639334"/>
<path d="M411.151 240.505C409.215 240.299 410.794 236.056 412.984 237.143C415.674 238.475 412.389 242.504 411.032 240.933L411.143 240.505H411.151Z" fill="#639334"/>
<path d="M435.29 237.252C435.036 235.967 434.568 234.587 435.893 234.032C436.924 233.596 438.495 234.373 438.749 235.697C438.955 236.784 438.051 238.473 437.392 239.132C436.25 240.266 435.742 239.036 435.068 237.966L435.298 237.26L435.29 237.252Z" fill="#6BA638"/>
<path d="M145.568 119.261C140.038 116.668 134.421 114.066 129.914 111.663L122.527 107.761L98.748 99.4102L118.592 117.921C118.592 117.921 129.009 122.529 143.513 124.099C153.487 125.178 159.636 124.178 159.636 124.178C159.636 124.178 150.829 121.736 145.568 119.269V119.261Z" fill="#9EAF61"/>
<path d="M139.635 122.829C136.882 122.456 133.819 121.917 130.859 121.124C124.345 119.395 119.426 117.626 119.426 117.626C119.426 117.626 116.006 114.795 114.269 113.233C112.706 111.821 108.842 107.958 108.715 107.792L109.699 107.078C109.699 107.078 113.825 110.774 115.284 112.098C116.824 113.486 119.617 115.81 120.188 116.278C120.973 116.556 125.393 118.094 131.248 119.649C136.358 121.005 144.213 122.107 147.799 122.385C144.11 121.354 137.54 118.451 135.152 117.309C129.574 114.652 119.997 108.688 119.902 108.625L120.711 107.332C120.807 107.387 130.312 113.312 135.81 115.929C139.77 117.817 149.672 122.131 149.775 122.171L153.25 123.685L149.457 123.63C149.394 123.63 145.101 123.559 139.635 122.821V122.829Z" fill="#639334"/>
<path d="M109.506 107.749C110.339 108.622 113.076 110.081 116.052 110.152C119.027 110.224 122.772 109.502 121.177 108.336C119.582 107.17 109.506 107.749 109.506 107.749Z" fill="#639334"/>
<path d="M54.791 101.359C54.791 101.359 66.2719 96.2038 71.3261 95.3473C86.1949 92.8173 98.977 96.418 100.286 96.5925C104.523 97.1635 130.032 111.717 130.032 111.717C130.032 111.717 117.924 104.46 100.421 110.559C91.6378 113.62 83.648 117.292 83.648 117.292L54.791 101.359Z" fill="#BDE377"/>
<path d="M121.425 106.927C120.06 106.181 119.616 105.912 118.124 105.103C114.8 104.944 108.785 104.595 102.636 106.094C96.4952 107.585 86.252 111.852 84.0622 112.78L61.6478 101.312C62.9093 100.765 64.7898 99.9954 67.059 99.2578C70.8992 98.0047 76.9768 96.3868 82.5864 96.2361C91.3776 95.9982 99.4943 97.2592 105.667 98.8295C105.485 98.6471 105.056 98.3695 103.35 97.632C97.003 96.1806 89.3623 94.9355 82.3484 95.0068C76.4373 95.0703 70.4469 96.1965 66.448 97.5051C62.1318 98.9168 59.2358 100.384 59.1088 100.439L57.4902 101.264L83.9908 114.818L84.3875 114.644C84.5065 114.596 96.4635 109.497 103.073 107.887C109.484 106.332 114.585 106.253 117.735 106.467C119.282 106.57 120.52 106.752 121.417 106.919L121.425 106.927Z" fill="#6BA638"/>
<path d="M104.411 98.1613C101.999 97.7886 98.9835 97.6617 101.53 100.184C105.529 104.141 114.924 105.878 117.359 106.068C119.795 106.259 120.858 106.497 120.668 106.465C120.485 106.441 116.994 104.546 113.019 102.404C109.044 100.255 104.403 98.1613 104.403 98.1613H104.411Z" fill="#6BA638"/>
<path d="M84.7188 101.342C86.0756 102.175 86.8532 103.373 86.4564 104.023C86.0597 104.673 84.6316 104.531 83.2748 103.706C81.918 102.873 81.1405 101.675 81.5372 101.025C81.9339 100.375 83.3621 100.518 84.7188 101.342Z" fill="#6BA638"/>
<path d="M126.313 115.096C127.821 115.611 128.924 116.372 128.773 116.793C128.63 117.213 127.289 117.142 125.79 116.618C124.29 116.095 123.179 115.341 123.33 114.921C123.473 114.501 124.814 114.572 126.313 115.096Z" fill="#639334"/>
<path d="M83.6012 113.647C80.7369 112.632 80.7846 109.182 84.3074 109.682C85.3864 109.833 86.8939 110.491 86.8543 111.807C86.8067 113.386 84.9738 113.41 83.871 113.806C83.5774 113.711 83.871 113.671 83.8869 113.505L83.6012 113.647Z" fill="#6BA638"/>
<path d="M143.76 122.848C143.133 122.308 142.149 122.063 141.61 121.468C140.467 120.215 141.649 119.588 143.054 119.866C144.982 120.246 147.116 121.603 148.131 123.236C146.338 123.411 144.569 122.824 142.744 122.848C142.554 122.689 142.847 122.792 142.903 122.697L143.752 122.84L143.76 122.848Z" fill="#639334"/>
<path d="M118.139 115.916C118.972 113.624 122.534 115.123 122.074 117.304C120.749 117.836 119.25 116.892 118.416 115.916H118.131H118.139Z" fill="#639334"/>
<path d="M93.5813 357.884C95.1681 358.09 99.0083 358.677 106.522 354.791C111.418 352.261 115.892 347.137 115.892 347.137L78.2126 339.762L68.9453 349.778L93.5813 357.876V357.884Z" fill="#9EAF61"/>
<path d="M91.1537 357.201C88.5036 357.201 86.6946 356.907 86.6153 356.891L86.9406 355.25C86.9406 355.25 88.94 355.575 91.7249 355.527C94.2718 355.488 98.0327 355.115 101.508 353.6C104.531 352.284 107.689 349.999 109.418 348.651C102.531 347.319 80.7756 343.107 80.3789 343.02L80.8232 341.402C81.339 341.513 101.167 345.352 111.584 347.366L113.298 347.699L112.013 348.794C111.807 348.968 106.998 353.053 102.293 355.107C98.5087 356.757 94.4543 357.153 91.717 357.201C91.5266 357.201 91.3362 357.201 91.1537 357.201Z" fill="#639334"/>
<path d="M38.1758 311.027C38.1758 311.027 43.6187 316.825 44.9596 323.701C45.6578 327.294 46.4512 334.78 48.4348 342.894C50.2597 350.333 55.7185 353.362 55.7185 353.362L93.6206 357.883C93.6206 357.883 85.7815 354.949 82.0365 344.226C79.9339 338.214 78.3074 324.954 77.1807 321.06C75.094 313.835 70.0399 311.86 70.0399 311.86L38.1758 311.027Z" fill="#BDE377"/>
<path d="M82.4645 349.74C78.6481 343.181 77.4103 335.647 76.2122 328.358C75.7759 325.701 75.3633 323.187 74.8317 320.752C73.5701 314.971 69.0793 313.456 68.8889 313.393L68.7461 313.345L41.1348 312.473L42.1186 313.924C42.1583 313.98 45.9826 319.666 46.5063 323.179C47.5139 330.024 48.4502 336.075 49.6641 340.81C50.9653 345.886 52.5681 349.28 54.6945 351.477C55.4244 352.23 56.1623 352.904 56.8526 353.475L59.8914 353.824C58.9552 353.206 57.892 352.032 56.1861 350.271C52.1396 346.092 50.5766 337.154 48.4819 322.933C48.0773 320.174 45.9826 316.438 44.7449 314.416L68.3652 315.161C68.6509 315.28 69.3808 315.621 70.1901 316.319C71.5548 317.509 72.4673 319.119 72.9036 321.109C73.4273 323.497 73.832 325.987 74.2683 328.628C74.8634 332.268 75.4823 336.035 76.4503 339.747C77.5452 343.982 78.9496 347.535 80.7348 350.596C82.3058 353.301 84.2735 355.418 86.0031 356.957L89.5656 357.385C87.6931 356.045 84.6623 353.491 82.4803 349.74H82.4645Z" fill="#6BA638"/>
<path d="M82.5822 352.53C80.4876 349.191 75.5207 342.41 62.2784 343.219C52.1463 343.837 53.4634 348.77 55.3279 350.904C56.0976 351.784 57.3353 352.839 58.9539 353.735L79.5672 356.21C81.0112 356.233 83.8358 354.512 82.5822 352.53Z" fill="#6BA638"/>
<path d="M64.8105 328.246C64.8105 329.53 63.1285 330.569 61.0576 330.569C58.9868 330.569 57.3047 329.53 57.3047 328.246C57.3047 326.961 58.9868 325.922 61.0576 325.922C63.1285 325.922 64.8105 326.961 64.8105 328.246Z" fill="#6BA638"/>
<path d="M92.1288 350.721C91.8114 351.625 89.9548 351.887 87.9791 351.3C86.0114 350.713 84.6705 349.508 84.9879 348.603C85.3053 347.699 87.1698 347.438 89.1375 348.024C91.1052 348.611 92.4461 349.817 92.1288 350.721Z" fill="#639334"/>
<path d="M71.5716 355.248L76.4829 355.835C76.7527 355.351 76.9352 354.764 76.9907 354.042L78.5379 354.185L78.4665 352.036L76.9669 351.996C76.7051 348.974 75.3801 347.007 72.0318 346.857C67.5251 346.651 67.0888 349.863 66.2795 351.48C65.4702 353.098 65.2083 354.232 63.9309 354.129C62.6535 354.026 61.8839 353.431 61.7966 351.829C61.6379 349.046 63.677 349.363 63.677 349.363L63.6135 346.674C63.6135 346.674 58.9085 346.325 58.6308 350.814L57.2344 350.767L57.282 352.559L58.7657 352.773C58.8371 353.122 58.9323 353.447 59.0513 353.749L68.0805 354.827C68.4376 354.201 68.6518 353.55 68.8343 353.027C69.4849 351.124 70.1514 349.87 71.4764 349.91C73.222 349.958 74.0154 350.997 73.8488 352.884C73.6901 354.605 72.4761 355.105 71.5954 355.248H71.5716Z" fill="#BDE377"/>
<path d="M44.3319 316.246C45.3237 316.761 46.4186 317.594 47.4739 316.991C48.5054 316.397 48.5847 314.906 47.6961 314.152C46.1251 312.812 41.7771 313.391 44.3319 315.96V316.246Z" fill="#6BA638"/>
<path d="M65.2793 314.55C65.795 315.55 66.644 316.509 67.6755 316.985C68.3181 317.287 70.6587 318.024 71.1903 317.207C72.0473 315.883 67.0724 313.281 66.2711 314.836L65.2793 314.55Z" fill="#6BA638"/>
<path d="M107.742 347.511C105.275 347.21 103.275 350.549 106.616 350.906C107.607 351.009 109.456 350.557 109.988 349.597C110.662 348.384 109.48 348.13 108.591 347.797L107.742 347.511Z" fill="#639334"/>
<path d="M437.564 275.625C437.564 275.625 430.416 282.596 428.575 291.368C426.742 300.139 429.083 319.61 426.187 326.177C423.299 332.743 419.752 338.906 419.752 338.906L453.393 355.204C453.393 355.204 459.987 339.945 460.669 332.989C461.621 323.306 457.337 310.68 459.55 304.311C462.185 296.761 470.412 283.27 470.412 283.27L437.557 275.633L437.564 275.625Z" fill="#BDE377"/>
<path d="M438.547 277.86C438.547 277.86 433.017 285.021 431.351 293.134C429.685 301.248 431.2 319.132 428.725 325.231C426.249 331.33 423.25 337.08 423.25 337.08L451.52 351.07C451.52 351.07 455.995 342.013 457.899 332.702C459.446 325.175 455.241 310.027 456.995 304.063C458.748 298.099 465.81 284.926 465.81 284.926L438.539 277.852L438.547 277.86Z" fill="#6BA638"/>
<path d="M454.606 303.54C456.265 296.577 462.43 286.291 462.43 286.291L439.999 280.176C439.999 280.176 435.556 285.022 433.351 293.841C431.438 301.494 433.009 319.497 430.827 325.342C428.646 331.187 426.035 336.699 426.035 336.699L450.044 347.239C450.044 347.239 453.654 340.292 455.622 332.195C457.883 322.892 453.242 309.29 454.606 303.54Z" fill="#BDE377"/>
<path d="M431.748 309.039C431.677 303.94 434.637 301.235 442.277 302.774C451.068 304.543 456.17 309.983 456.083 313.544C455.996 317.105 455.416 324.687 444.84 322.609C437.81 321.229 431.328 315.677 431.336 313.187C431.344 310.697 431.741 309.039 431.741 309.039H431.748Z" fill="#6BA638"/>
<path d="M452.305 315.856L452.575 313.738L451.234 313.484C451.472 310.486 450.591 308.377 447.608 307.742C443.593 306.886 442.696 309.971 441.713 311.438C440.729 312.905 440.316 313.984 439.189 313.691C438.055 313.405 437.46 312.715 437.634 311.129C437.928 308.377 439.713 308.987 439.713 308.987L440.078 306.346C440.078 306.346 435.913 305.323 434.945 309.685L433.699 309.44L433.461 311.2L434.762 311.621C434.826 314.206 436.262 315.768 437.92 316.292C441.752 317.505 443.022 314.801 443.76 313.326C444.64 311.557 445.442 310.423 446.624 310.653C448.179 310.954 448.734 312.088 448.282 313.913C447.632 316.546 445.061 315.8 445.061 315.8L444.68 318.275C444.68 318.275 449.813 320.178 450.94 315.499L452.305 315.864V315.856Z" fill="#BDE377"/>
<path d="M449.704 292.329C449.236 293.376 447.958 293.82 446.863 293.32C445.769 292.828 445.261 291.575 445.729 290.536C446.197 289.49 447.474 289.045 448.569 289.545C449.664 290.045 450.172 291.29 449.704 292.329Z" fill="#6BA638"/>
<path d="M441.889 336.13C441.421 337.176 440.144 337.621 439.049 337.121C437.954 336.629 437.446 335.376 437.914 334.337C438.383 333.29 439.66 332.846 440.755 333.346C441.85 333.838 442.358 335.091 441.889 336.13Z" fill="#6BA638"/>
<path d="M437.492 281.486C438.5 282.264 442.641 283.247 442.308 280.773C441.951 278.124 438.206 280.321 437.635 280.773L437.492 281.478V281.486Z" fill="#6BA638"/>
<path d="M449.952 348.833C447.247 348.293 446.398 344.082 449.524 343.598C453.19 343.027 452.809 347.778 450.516 348.975L449.952 348.833Z" fill="#6BA638"/>
<path d="M424.473 336.381C425.591 335.628 425.385 333.986 427.02 334.121C428.186 334.216 428.829 335.168 428.86 336.247C428.956 339.086 425.02 338.364 424.473 336.81V336.381Z" fill="#6BA638"/>
<path d="M290.026 34.4126L321.945 23C321.945 23 324.373 26.6641 326.253 27.7744C330.213 30.1061 347.819 35.9432 354.682 40.1228C368.083 48.2758 380.548 60.1563 380.548 60.1563L362.021 69.5861L334.989 68.8882C334.989 68.8882 326.134 56.5398 318.795 51.4164C308.79 44.4372 296.801 42.9224 294.794 41.3997C290.486 38.1401 290.018 34.4126 290.018 34.4126H290.026Z" fill="#BDE377"/>
<path d="M351.658 40.9378C345.556 37.3134 330.227 31.8252 326.49 30.2232C324.047 29.1763 321.595 25.2188 321.595 25.2188L293.865 35.4655C293.865 35.4655 293.634 38.1461 299.395 40.9457C301.394 41.9212 311.844 43.5788 320.738 49.638C327.268 54.0793 338.487 68.0774 338.487 68.0774L358.529 68.5453L376.706 59.4644C376.706 59.4644 363.575 48.0201 351.658 40.9457V40.9378ZM356.085 67.1415L341.288 67.4905C341.288 67.4905 331.037 54.9358 324.507 50.4866C315.612 44.4274 306.98 41.4295 304.814 40.9378C297.126 39.193 296.427 36.1634 296.427 36.1634L321.127 27.3125C321.127 27.3125 324.158 31.389 330.331 33.6017C335.393 35.4179 345.779 38.963 352.118 43.0316C364.821 51.1845 372.969 58.9885 372.969 58.9885L356.077 67.1415H356.085Z" fill="#6BA638"/>
<path d="M334.996 68.8856C334.996 68.8856 340.59 67.3708 342.922 65.9749C345.255 64.5791 351.428 60.8516 351.428 60.8516C351.428 60.8516 354.443 65.0867 356.085 66.2049C358.648 67.9497 362.028 69.5835 362.028 69.5835L334.996 68.8856Z" fill="#9EAF61"/>
<path d="M339.139 68.9432C339.139 68.9432 341.828 68.5546 345.002 67.0001C348.255 65.406 350.873 63.3281 350.873 63.3281C350.873 63.3281 351.968 65.8026 353.738 67.0239C356.205 68.737 359.569 69.5063 359.569 69.5063L354.753 69.3556C354.753 69.3556 353.143 68.7767 352.238 68.0708C351.397 67.4125 350.326 65.977 350.326 65.977C350.326 65.977 348.128 67.3094 347.144 67.8249C345.153 68.8718 343.955 69.1177 343.955 69.1177L339.139 68.9353V68.9432Z" fill="#639334"/>
<path d="M345.598 38.8402L342.686 37.4443C339.076 36.0485 333.252 35.8106 327.071 39.1891C322.247 41.8222 317.748 45.2484 321.827 49.4359C326.595 54.3372 332.506 54.6941 339.536 51.1807C348.16 46.8742 349.787 40.236 345.598 38.8323V38.8402Z" fill="#6BA638"/>
<path d="M342.742 40.4359L343.996 39.7776L341.981 38.6038L340.584 39.4128C339.497 39.04 338.228 38.6435 337.387 38.6038C334.983 38.4848 329.849 40.1028 331.031 42.3393C332.047 44.2665 336.593 45.7337 332.848 47.1295C331.055 47.7957 327.905 46.2889 327.921 44.8851C327.937 43.8303 328.818 43.2275 328.818 43.2275L327.326 41.8079C327.326 41.8079 322.93 44.4251 326.247 47.7323H326.255L324.795 48.5888L326.667 49.7388L328.088 48.9933C330.436 50.1116 333.404 50.6033 336.181 49.3264C338.95 48.0574 338.601 45.6068 336.633 44.4092C335.157 43.5051 333.61 42.03 334.975 41.2289C336.339 40.4279 338.735 40.2931 340.053 41.3162C342.044 42.8548 340.314 43.8858 340.314 43.8858L342.393 45.5671C342.393 45.5671 344.75 43.5448 343.996 41.8079C343.782 41.3083 343.321 40.8562 342.734 40.4596L342.742 40.4359Z" fill="#BDE377"/>
<path d="M356.372 55.7791C357.006 56.9687 356.3 58.5945 354.793 59.4035C353.285 60.2125 351.54 59.8952 350.905 58.7056C350.27 57.5159 350.976 55.8901 352.484 55.0812C353.991 54.2722 355.737 54.5894 356.372 55.7791Z" fill="#6BA638"/>
<path d="M319.89 34.6655C320.271 35.5379 319.517 36.7037 318.2 37.2748C316.891 37.8458 315.518 37.592 315.145 36.7196C314.764 35.8472 315.526 34.6814 316.835 34.1103C318.144 33.5393 319.517 33.7931 319.89 34.6655Z" fill="#6BA638"/>
<path d="M296.397 37.677C297.937 37.5343 300.547 35.3612 297.81 34.9884C297.127 34.8933 295.945 35.385 295.509 35.9401C294.795 36.8443 295.136 37.0108 295.834 37.6691H296.397V37.677Z" fill="#6BA638"/>
<path d="M318.334 27.7847C319.056 28.665 322.658 31.2188 322.872 28.3557C323.063 25.7702 319.326 26.9202 318.334 27.4992V27.7847Z" fill="#6BA638"/>
<path d="M9 143.018C9 143.018 10.3409 149.878 16.9581 156.969C20.8142 161.101 34.7071 158.15 41.2211 169.309C46.9418 179.104 45.9738 193.538 45.9738 193.538L78.2187 174.718C78.2187 174.718 78.8852 161.14 70.2924 152.059C64.4765 145.913 51.1707 148.998 43.7046 141.598C40.3166 138.244 35.7306 131.605 35.7306 131.605L9 143.018Z" fill="#BDE377"/>
<path d="M11.373 144.214C11.373 144.214 13.0392 149.901 18.9741 155.54C22.4572 158.847 38.0322 156.777 43.5942 166.207C48.4817 174.494 48.6404 188.572 48.6404 188.572L76.1803 172.813C76.1803 172.813 75.3393 160.092 67.9921 152.423C63.0173 147.228 48.9895 149.48 42.6024 143.231C39.7064 140.399 35.5567 133.531 35.5567 133.531L11.373 144.206V144.214Z" fill="#6BA638"/>
<path d="M13.6406 145.28C13.6406 145.28 14.8308 149.317 20.4879 154.306C25.6055 158.818 39.7524 155.123 44.9017 164.632C49.4242 172.991 50.305 184.935 50.305 184.935L73.8618 171.46C73.8618 171.46 73.6952 161.61 66.9987 153.814C62.4603 148.532 46.3695 150.031 40.8235 143.432C38.1417 140.236 35.3726 135.398 35.3726 135.398L13.6406 145.272V145.28Z" fill="#BDE377"/>
<path d="M37.7853 159.845C35.1115 158.711 32.4693 155.959 37.4203 152.715C43.1013 148.988 50.2659 147.98 55.5026 148.861C60.7392 149.733 63.8653 153.556 57.3751 157.593C50.8848 161.629 45.0293 162.859 42.6252 162.303C40.2211 161.748 37.7932 159.845 37.7932 159.845H37.7853Z" fill="#6BA638"/>
<path d="M63.9147 167.185C64.3194 168.382 63.7164 169.667 62.558 170.064C61.3996 170.46 60.1301 169.81 59.7254 168.612C59.3208 167.415 59.9238 166.13 61.0822 165.733C62.2406 165.337 63.5101 165.987 63.9147 167.185Z" fill="#6BA638"/>
<path d="M53.3846 151.17L54.3446 150.567L52.6625 149.75L51.5993 150.48C50.7107 150.25 49.7903 150.139 49.1238 150.186C47.4418 150.297 43.3794 151.495 44.4585 153.208C45.3868 154.691 48.7985 155.77 45.8867 157.11C44.4982 157.752 41.8878 156.737 41.8164 155.611C41.7608 154.77 42.4352 154.231 42.4352 154.231L41.1578 153.184C41.1578 153.184 37.8096 155.54 40.658 157.982H40.6659L39.5472 158.752L41.1102 159.553L42.1972 158.871C44.1411 159.616 46.6563 159.513 48.3304 158.617C50.2902 157.57 49.8697 155.5 48.743 154.683C47.6243 153.866 46.1882 152.962 47.2276 152.24C48.2669 151.519 50.1791 151.257 51.2899 152.002C52.4007 152.748 51.6549 154.041 51.6549 154.041L53.5909 154.85C53.5909 154.85 55.1777 153.501 54.4716 152.161C54.2653 151.78 53.8765 151.439 53.3766 151.162L53.3846 151.17Z" fill="#BDE377"/>
<path d="M421.129 117.535C422.089 117.884 425.366 124.07 438.029 128.258C443.726 130.137 454.858 127.219 454.858 127.219L473.368 153.129C473.368 153.129 467.941 155.437 460.586 155.826C443.472 156.738 436.736 151.456 436.736 151.456L432.396 147.53L421.129 117.535Z" fill="#A8C469"/>
<path d="M428.412 125.477C428.412 125.477 435.426 129.942 440.631 130.346C444.9 130.679 454.286 129.022 454.286 129.022L470.218 151.783C470.218 151.783 457.928 154.861 451.921 153.933C433.125 151.038 432.474 147.049 432.474 147.049L431.61 145.375C431.61 145.375 439.845 151.125 451.342 152.109C460.284 152.878 467.266 150.483 467.266 150.483L453.611 130.695C453.611 130.695 445.645 132.234 440.948 131.853C436.243 131.48 428.444 127.34 428.444 127.34L428.42 125.477H428.412Z" fill="#639334"/>
<path d="M424.723 126.133C427.23 127.513 432.038 129.726 434.696 132.866C436.513 135.007 439.711 141.186 439.25 143.739C438.941 145.476 437.33 147.522 433.871 145.881C430.412 144.239 427.119 141.963 427.119 141.963L424.723 126.141V126.133Z" fill="#639334"/>
<path d="M429.705 131.386L429.403 130.355L431.109 130.831L431.403 132.021C432.18 132.418 432.894 132.917 433.339 133.369C434.457 134.503 436.576 137.914 434.735 138.445C433.148 138.905 430.054 137.525 431.26 140.301C431.839 141.633 434.322 142.553 435.084 141.808C435.655 141.245 435.513 140.444 435.513 140.444L437.076 140.507C437.076 140.507 437.956 144.282 434.41 144.219H434.402L434.711 145.464L433.101 145.044L432.759 143.878C430.911 143.188 429.197 141.53 428.578 139.833C427.856 137.858 429.451 136.661 430.76 136.795C432.069 136.922 433.656 137.192 433.37 136.026C433.085 134.86 431.902 133.472 430.649 133.298C429.395 133.123 429.11 134.511 429.11 134.511L427.237 133.861C427.237 133.861 426.967 131.91 428.308 131.402C428.697 131.26 429.181 131.268 429.713 131.386H429.705Z" fill="#A8C469"/>
<path d="M410.029 89.0664L433.84 112.153C433.84 112.153 429.897 124.002 430.365 130.442C431.508 146.28 436.776 151.483 436.776 151.483C436.776 151.483 430.738 148.112 423.954 138.754C413.616 124.494 407.832 112.296 407.832 112.296C407.832 112.296 406.388 107.537 406.792 102.668C407.197 97.7983 410.029 89.0664 410.029 89.0664Z" fill="#BDE377"/>
<path d="M433.713 149.284C433.713 149.284 429.167 143.399 428.191 133.446C427.62 127.632 431.396 113.238 431.396 113.238L410.854 92.3477C410.854 92.3477 408.95 98.7638 408.3 102.721C407.324 108.701 408.696 114.142 408.696 114.142L410.275 117.116C410.275 117.116 409.133 113.182 409.863 105.362C410.148 102.356 412.005 96.1624 412.06 96.3131C412.116 96.4638 429.278 113.975 429.278 113.975C429.278 113.975 426.501 127.759 426.636 132.383C426.905 141.353 431.301 147.293 431.301 147.293L433.697 149.284H433.713Z" fill="#6BA638"/>
<path d="M427.485 143.239C427.485 143.239 426.866 141.01 424.018 135.07C421.82 130.494 417.853 126.449 416.758 126.243C416.036 126.108 415.814 126.314 415.742 126.481C418.035 130.2 420.804 134.427 424.002 138.845C425.192 140.495 426.366 141.954 427.485 143.239Z" fill="#6BA638"/>
<path d="M420.288 117.333C419.367 118.134 417.781 117.808 416.741 116.619C415.702 115.421 415.607 113.803 416.527 113.01C417.447 112.209 419.034 112.534 420.074 113.724C421.113 114.922 421.208 116.539 420.288 117.333Z" fill="#6BA638"/>
<path d="M428.724 112.253C427.605 110.897 426.74 112.713 426.74 113.807C426.74 114.91 427.066 116.48 427.978 117.233C429.224 118.256 429.755 116.845 430.104 115.504C430.438 114.204 430.033 113.498 429.144 112.53L428.716 112.245L428.724 112.253Z" fill="#6BA638"/>
<path d="M443.508 216.039C442.08 215.444 440.66 214.945 439.239 214.508C439.2 214.493 439.168 214.469 439.136 214.453C438.882 214.374 438.629 214.31 438.367 214.239H438.351C435.709 213.462 433.106 212.938 430.591 212.605C428.83 212.201 426.775 211.923 422.903 211.947C418.325 211.978 413.866 212.772 413.866 212.772C412.993 212.898 412.255 213.049 411.549 213.192C408.462 213.755 406.63 214.342 406.63 214.342C406.63 214.342 406.653 214.342 406.701 214.326L406.63 214.342C402.409 215.325 399.076 216.808 394.292 223.716C389.642 230.442 388.262 246.954 388.262 246.954C388.262 246.954 393.943 242.885 402.94 242.56C411.938 242.235 415.294 243.964 415.294 243.964C415.294 243.964 414.889 232.892 418.507 227.134C419.539 225.485 420.856 224.025 422.26 222.749C428.203 229.157 437.391 244.725 437.391 244.725C437.391 244.725 439.819 239.721 444.46 235.922C452.006 229.744 456.417 228.023 456.417 228.023C456.417 228.023 451.117 219.196 443.508 216.039V216.039Z" stroke="black" stroke-width="1.8" stroke-miterlimit="10"/>
<path d="M129.913 111.649L129.278 111.316C129.54 111.451 129.762 111.562 129.881 111.626C129.127 111.197 125.287 109.016 120.566 106.439C120.606 106.439 120.622 106.455 120.638 106.455C120.606 106.447 120.527 106.415 120.408 106.352C120.13 106.201 119.844 106.042 119.551 105.884C119.154 105.662 118.718 105.424 118.115 105.099H118.107C116.083 104.004 113.989 102.886 111.958 101.831C111.513 101.601 111.061 101.363 110.617 101.141C108.443 100.023 106.388 99.0155 104.666 98.2224C104.341 98.0638 103.92 97.8735 103.341 97.6197C103.309 97.6197 103.278 97.6038 103.246 97.5959C101.921 97.0328 100.873 96.66 100.278 96.5807C98.9692 96.4063 86.1871 92.8056 71.3183 95.3356C66.2641 96.2001 54.7832 101.347 54.7832 101.347L83.6402 117.28C83.6402 117.28 91.63 113.616 100.413 110.547C103.293 109.54 106.007 108.929 108.57 108.556L118.583 117.899C118.583 117.899 129.001 122.507 143.504 124.077C153.478 125.156 159.627 124.156 159.627 124.156C159.627 124.156 150.82 121.714 145.559 119.247C140.029 116.654 134.412 114.053 129.905 111.649H129.913Z" stroke="black" stroke-width="1.5" stroke-miterlimit="10"/>
<path d="M129.891 111.625C129.978 111.673 130.041 111.712 130.041 111.712C130.041 111.712 129.994 111.681 129.891 111.625Z" stroke="black" stroke-width="1.5" stroke-miterlimit="10"/>
<path d="M120.648 106.453H120.673C120.673 106.453 120.689 106.461 120.648 106.453Z" stroke="black" stroke-width="1.5" stroke-miterlimit="10"/>
<path d="M77.1768 321.068C75.0901 313.843 70.036 311.868 70.036 311.868L38.1719 311.035C38.1719 311.035 43.6148 316.833 44.9557 323.709C45.6539 327.301 46.4473 334.788 48.4309 342.902C50.2479 350.333 55.7146 353.37 55.7146 353.37L93.5691 357.891C95.1559 358.097 98.9961 358.684 106.51 354.806C111.405 352.276 115.88 347.153 115.88 347.153L80.9139 340.308C79.3349 333.686 78.0813 324.256 77.161 321.068H77.1768Z" stroke="black" stroke-width="1.5" stroke-miterlimit="10"/>
<path d="M470.422 283.259L437.566 275.621C437.566 275.621 430.417 282.592 428.577 291.364C426.744 300.136 429.084 319.606 426.196 326.173C423.308 332.739 419.762 338.902 419.762 338.902L453.403 355.2C453.403 355.2 459.996 339.941 460.679 332.985C461.631 323.302 457.346 310.676 459.56 304.307C462.194 296.757 470.422 283.266 470.422 283.266V283.259Z" stroke="black" stroke-width="1.5" stroke-miterlimit="10"/>
<path d="M380.55 60.1562C380.55 60.1562 368.085 48.2757 354.684 40.1227C347.821 35.9431 330.214 30.106 326.255 27.7822C324.367 26.6719 321.947 23.0078 321.947 23.0078L290.027 34.4204C290.027 34.4204 290.495 38.1479 294.804 41.4075C296.811 42.9302 308.8 44.445 318.805 51.4242C326.144 56.5476 334.999 68.896 334.999 68.896L343.806 69.126H343.965L362.031 69.5939L380.558 60.1641L380.55 60.1562Z" stroke="black" stroke-width="1.5" stroke-miterlimit="10"/>
<path d="M45.9777 193.538L78.2226 174.726C78.2226 174.726 78.8891 161.148 70.2963 152.067C64.4804 145.921 51.1746 149.006 43.7085 141.606C40.3285 138.251 35.7345 131.613 35.7345 131.613L9.00391 143.018C9.00391 143.018 10.3448 149.878 16.962 156.968C20.8181 161.1 34.711 158.15 41.225 169.309C46.9457 179.104 45.9777 193.538 45.9777 193.538V193.538Z" stroke="black" stroke-width="1.5" stroke-miterlimit="10"/>
<path d="M438.033 128.253C435.106 127.286 432.694 126.207 430.678 125.12C431.567 119.006 433.844 112.145 433.844 112.145L410.033 89.0586C410.033 89.0586 407.193 97.7905 406.796 102.66C406.391 107.53 407.836 112.288 407.836 112.288C407.836 112.288 408.129 112.899 408.669 113.962C408.692 114.065 408.708 114.128 408.708 114.128L410.287 117.102C410.287 117.102 410.271 117.047 410.256 116.967C411.89 120.005 414.35 124.319 417.531 129.292C417.555 129.332 417.587 129.379 417.611 129.419C418.158 130.268 418.721 131.14 419.309 132.028C419.451 132.25 419.594 132.464 419.745 132.686C420.237 133.424 420.745 134.178 421.268 134.931C421.467 135.216 421.657 135.494 421.855 135.787C422.435 136.62 423.038 137.469 423.649 138.317C423.768 138.484 423.887 138.651 424.006 138.825C424.125 138.992 424.244 139.134 424.363 139.293C424.72 139.777 425.077 140.253 425.434 140.705C425.711 141.062 425.981 141.403 426.259 141.736C426.426 141.942 426.592 142.14 426.759 142.338C427.005 142.632 427.251 142.949 427.489 143.219V143.187C428.782 144.686 430.012 145.955 431.131 147.01C431.25 147.192 431.321 147.279 431.321 147.279L432.63 148.366C435.137 150.547 436.772 151.467 436.772 151.467C437.121 151.729 443.929 156.693 460.583 155.805C467.938 155.416 473.365 153.109 473.365 153.109L454.854 127.198C454.854 127.198 443.722 130.117 438.026 128.237L438.033 128.253Z" stroke="black" stroke-width="1.5" stroke-miterlimit="10"/>
<path d="M194.629 325.352C194.471 335.582 194.312 345.805 194.161 356.036C194.145 356.924 194.129 357.837 193.828 358.653C192.789 361.445 189.877 362.976 192.781 365.704C194.907 367.703 197.692 367.084 200.326 367.084C204.476 367.084 208.633 366.917 212.775 366.608C218.242 366.196 215.711 332.45 214.156 327.342" fill="#FF5758"/>
<path d="M193.804 325.352C193.717 331.118 193.63 336.892 193.534 342.657C193.487 345.544 193.447 348.423 193.4 351.31L193.336 355.244C193.32 356.513 193.304 357.425 192.638 358.527C191.535 360.351 190.456 361.914 190.734 364.174C191.011 366.434 192.749 368.195 194.891 368.774C197.033 369.353 199.612 368.972 201.865 368.956C204.722 368.932 207.578 368.821 210.427 368.647C211.506 368.583 212.95 368.766 213.846 368.028C214.449 367.529 214.846 366.807 215.139 366.101C215.981 364.095 216.298 361.858 216.528 359.709C217.163 353.737 216.988 347.662 216.639 341.682C216.457 338.533 216.211 335.385 215.846 332.252C215.616 330.309 215.417 328.286 214.854 326.407C214.687 325.86 214.291 325.146 213.727 325.733C213.196 326.288 213.235 327.628 213.434 328.294C213.505 328.532 213.561 328.77 213.616 329.008C213.648 329.159 213.68 329.31 213.711 329.452C213.838 330.039 213.688 329.254 213.759 329.722C213.902 330.586 214.029 331.451 214.14 332.315C214.449 334.711 214.671 337.122 214.846 339.533C215.235 344.822 215.441 350.588 215.147 356.14C215.116 356.743 215.163 355.942 215.139 356.298C215.132 356.449 215.116 356.608 215.108 356.758C215.084 357.06 215.06 357.361 215.036 357.663C214.989 358.257 214.925 358.86 214.854 359.455C214.79 359.955 214.719 360.446 214.64 360.938C214.632 360.994 214.536 361.485 214.616 361.073C214.6 361.168 214.584 361.263 214.56 361.35C214.505 361.62 214.449 361.882 214.378 362.144C214.33 362.35 214.267 362.548 214.211 362.754C214.187 362.834 214.164 362.905 214.14 362.984C214.029 363.365 214.259 362.683 214.124 363.04C214.06 363.206 213.997 363.373 213.926 363.539C213.886 363.635 213.68 364.047 213.751 363.912C213.838 363.753 213.648 364.079 213.608 364.134C213.529 364.237 213.449 364.34 213.362 364.443C213.315 364.499 213.457 364.388 213.243 364.539C213.132 364.61 213.021 364.673 212.902 364.721C213.108 364.634 212.839 364.721 212.751 364.737C212.109 364.808 211.45 364.832 210.807 364.872C209.514 364.951 208.213 365.022 206.92 365.078C204.309 365.189 201.691 365.141 199.08 365.244C197.065 365.324 194.875 365.506 193.225 364.118C192.955 363.888 192.685 363.619 192.487 363.325C192.487 363.333 192.257 362.913 192.249 362.913C193.098 363.198 192.146 363.769 192.336 363.635C192.392 363.595 192.519 363.254 192.543 363.222C193.011 362.381 193.606 361.62 194.042 360.764C195.312 358.273 194.978 355.22 195.018 352.5C195.066 349.486 195.113 346.472 195.161 343.45C195.256 337.423 195.343 331.387 195.439 325.36C195.439 324.876 195.328 323.488 194.613 323.488C193.899 323.488 193.796 324.924 193.788 325.36L193.804 325.352Z" fill="black"/>
<path d="M306.808 325.352L307.244 356.036C307.26 356.924 307.276 357.837 307.553 358.653C308.514 361.445 311.227 362.976 308.521 365.704C306.546 367.703 303.959 367.084 301.508 367.084C297.652 367.084 293.787 366.917 289.939 366.608C284.853 366.196 287.21 332.45 288.654 327.342" fill="#FF5758"/>
<path d="M305.984 325.352L306.214 341.476C306.285 346.654 306.198 351.857 306.452 357.028C306.515 358.234 306.706 359.399 307.19 360.51C307.586 361.414 308.174 362.215 308.626 363.087C308.665 363.159 308.792 363.5 308.832 363.516C309.07 363.635 308.245 363.468 308.896 363.278C308.491 363.397 309.38 362.715 308.769 363.293C308.562 363.484 308.42 363.761 308.221 363.968C307.444 364.761 306.436 365.149 305.349 365.252C304.373 365.348 303.389 365.26 302.405 365.229C301.207 365.181 300.017 365.205 298.819 365.181C296.185 365.126 293.543 364.999 290.916 364.8C290.559 364.777 290.187 364.785 289.837 364.713C289.79 364.705 289.933 364.761 289.726 364.666C289.631 364.618 289.552 364.555 289.464 364.491C289.282 364.356 289.591 364.626 289.488 364.515C289.433 364.451 289.369 364.388 289.322 364.324C289.242 364.213 289.171 364.102 289.1 363.991C289.266 364.261 289.1 363.976 289.036 363.849C288.973 363.714 288.917 363.579 288.862 363.436C288.822 363.341 288.79 363.238 288.75 363.135C288.893 363.531 288.758 363.159 288.743 363.087C288.631 362.683 288.52 362.286 288.433 361.874C288.409 361.755 288.282 361.097 288.354 361.501C288.314 361.255 288.274 361.017 288.235 360.771C288.068 359.645 287.949 358.511 287.87 357.385C287.79 356.362 287.735 355.133 287.703 353.792C287.671 352.452 287.663 351.048 287.671 349.676C287.695 346.797 287.798 343.918 287.965 341.047C288.1 338.739 288.338 335.67 288.631 333.077C288.75 332.03 288.877 330.983 289.036 329.944C289.068 329.746 289.1 329.548 289.131 329.349C289.219 328.802 289.068 329.611 289.163 329.175C289.226 328.881 289.29 328.58 289.369 328.286C289.568 327.565 289.615 326.32 289.076 325.725C288.536 325.13 288.1 325.86 287.949 326.399C287.489 328.041 287.306 329.785 287.108 331.475C286.807 334.021 286.6 336.582 286.434 339.136C286.037 345.235 285.831 351.373 286.211 357.48C286.354 359.836 286.576 362.239 287.179 364.531C287.513 365.8 288.052 367.743 289.385 368.338C289.917 368.575 290.544 368.536 291.099 368.575C292.638 368.687 294.185 368.782 295.725 368.845C298.248 368.948 300.771 368.917 303.286 369.028C305.539 369.123 307.626 368.845 309.189 367.061C310.752 365.276 310.855 362.818 309.943 360.771C309.491 359.764 308.777 358.892 308.348 357.869C307.864 356.727 308.055 355.283 308.039 354.07L307.904 344.632L307.626 325.36C307.626 324.876 307.531 323.488 306.801 323.488C306.071 323.488 305.968 324.924 305.976 325.36L305.984 325.352Z" fill="black"/>
<path d="M339.387 213.484C332.801 183.909 315.211 157.238 286.584 145.539C261.377 135.237 232.179 136.435 207.884 148.87C186.906 159.609 170.839 178.477 164.039 201.333C151.55 243.32 157.073 297.773 178.614 335.754C184.898 346.834 192.769 356.097 205.289 354.915C216.747 353.837 226.038 345.834 237.273 343.566C256.767 339.625 265.035 344.328 282.561 352.1C315.298 366.621 336.507 323.961 340.069 301.001C344.243 274.06 345.734 241.979 339.395 213.476L339.387 213.484Z" fill="#E8E8E8"/>
<path d="M339.768 212.979C337.404 202.431 333.674 192.161 328.414 182.715C323.154 173.269 316.695 165.069 308.705 158.137C300.192 150.746 290.218 145.353 279.475 141.974C267.439 138.191 254.681 136.851 242.113 138.009C229.545 139.167 217.405 142.751 206.369 148.652C196.578 153.886 187.803 160.992 180.63 169.463C173.457 177.933 167.927 187.823 164.428 198.387C160.929 208.951 158.842 220.633 157.803 231.958C156.764 243.283 156.772 255.759 157.874 267.608C158.977 279.456 161.128 291.281 164.412 302.741C167.697 314.202 171.759 324.48 177.242 334.536C181.971 343.213 188.263 353.103 198.585 355.49C210.288 358.194 220.976 350.121 231.386 346.266C237.082 344.157 243.366 343.213 249.428 343.141C254.53 343.078 259.544 343.927 264.392 345.513C269.653 347.234 274.691 349.597 279.737 351.858C284.157 353.832 288.544 355.577 293.416 355.966C301.43 356.592 309.07 353.563 315.259 348.606C321.821 343.348 326.851 336.353 330.834 329.001C334.817 321.649 337.65 314.257 339.482 306.398C340.593 301.663 341.18 296.801 341.783 291.979C342.6 285.444 343.219 278.893 343.608 272.319C344.41 258.891 344.314 245.385 342.862 232.006C342.172 225.613 341.156 219.261 339.76 212.979C339.681 212.615 339.474 212.401 339.165 212.623C338.856 212.845 338.943 213.669 339.006 213.979C341.871 226.922 343.077 240.19 343.219 253.435C343.362 266.68 342.466 279.559 340.799 292.511C340.212 297.055 339.641 301.623 338.554 306.072C337.65 309.776 336.483 313.416 335.103 316.969C332.072 324.773 328.049 332.3 322.781 338.827C317.853 344.934 311.585 350.335 304 352.754C300.247 353.951 296.256 354.316 292.345 353.864C287.275 353.277 282.776 351.199 278.166 349.137C273.556 347.075 268.526 344.791 263.48 343.237C258.807 341.801 253.99 341.072 249.103 341.159C243.279 341.262 237.265 342.174 231.766 344.125C226.268 346.076 221.016 349.058 215.525 351.255C210.36 353.317 204.671 354.752 199.109 353.634C194.237 352.651 190.056 349.732 186.716 346.139C183.058 342.206 180.241 337.566 177.694 332.863C175.147 328.16 172.727 322.981 170.665 317.85C166.325 307.056 163.183 295.786 161.08 284.358C158.977 272.929 157.882 261.025 157.882 249.263C157.882 237.502 158.906 226.113 161.199 214.772C163.492 203.431 166.682 193.247 172.291 183.588C177.901 173.928 185.153 165.672 193.801 158.891C203.028 151.658 213.708 146.328 224.991 143.148C236.908 139.785 249.484 138.786 261.782 140.19C273.596 141.538 285.299 145.059 295.653 150.952C304.778 156.147 312.768 163.173 319.29 171.39C325.812 179.606 330.953 189.092 334.619 199.005C336.42 203.883 337.872 208.887 339.006 213.963C339.086 214.328 339.284 214.55 339.601 214.32C339.919 214.09 339.824 213.273 339.76 212.964L339.768 212.979Z" fill="black"/>
<path d="M251.723 258.59V304.177" stroke="black" stroke-width="3" stroke-miterlimit="10"/>
<path d="M158.977 258.596C150.067 259.365 144.355 258.849 136.27 255.05C132.596 253.321 129.113 251.204 125.788 248.88C122.964 246.905 117.489 244.566 118.782 240.537C119.203 239.236 120.028 238.102 120.917 237.063C123.107 234.525 125.725 233.661 128.954 234.835C130.716 235.469 132.62 235.897 134.445 236.318C138.301 237.19 155.272 232.638 159.2 232.051" fill="#E8E8E8"/>
<path d="M158.978 257.602C155.487 257.896 151.964 258.07 148.473 257.689C144.982 257.309 141.673 256.365 138.468 255.025C134.762 253.47 131.24 251.488 127.891 249.275C126.606 248.426 125.36 247.546 124.051 246.737C122.885 246.015 121.703 245.286 120.679 244.373C119.917 243.691 118.886 242.613 119.045 241.487C119.291 239.742 120.989 237.846 122.314 236.776C123.52 235.808 124.956 235.261 126.511 235.324C128.288 235.396 129.97 236.213 131.676 236.657C132.866 236.966 134.104 237.363 135.334 237.418C136.167 237.458 137 237.378 137.833 237.291C140.174 237.045 142.49 236.601 144.799 236.133C149.6 235.166 154.36 233.786 159.2 233.04C159.851 232.937 159.755 230.97 159.2 231.058C154.678 231.755 150.218 233.04 145.736 233.96C143.212 234.484 140.666 234.983 138.103 235.277C137.19 235.38 136.262 235.467 135.334 235.427C133.985 235.372 132.62 234.92 131.327 234.579C129.51 234.095 127.756 233.223 125.828 233.35C124.297 233.445 122.885 234.135 121.75 235.15C119.473 237.18 117.331 240.44 118.473 243.588C119.402 246.15 122.139 247.601 124.313 248.958C127.709 251.075 130.922 253.383 134.501 255.199C138.277 257.118 142.268 258.681 146.458 259.395C150.647 260.108 154.812 259.942 158.986 259.585C159.621 259.529 159.573 257.555 158.986 257.602H158.978Z" fill="black"/>
<path d="M159.574 230.515L160.011 236.638C160.296 240.635 160.368 268.925 158.011 269.091C157.345 269.139 156.813 267.362 156.551 266.553C155.893 264.507 155.417 262.302 154.965 260.129C153.87 254.8 153.005 249.351 152.243 243.903C151.997 242.142 151.759 240.381 151.561 238.605C151.442 237.55 151.212 236.582 151.394 235.551C151.711 233.735 152.386 232.165 153.219 230.975C154.258 229.492 155.552 228.548 156.885 227.906C157.456 227.628 158.146 227.343 158.757 227.866C159.32 228.35 159.503 229.564 159.566 230.515H159.574Z" fill="#FF5758" stroke="black" stroke-width="1.94" stroke-miterlimit="10"/>
<path d="M301.804 293.586L300.479 287.13C299.487 287.297 298.44 287.352 297.305 287.297L295.592 293.142L290.514 293.697L293.687 274.084C294.87 273.83 298.353 273.362 300.614 273.33C305.414 273.243 308.802 275.725 308.033 280.421C307.676 282.562 306.517 284.315 304.78 285.512L307.652 293.055L301.804 293.586ZM298.607 282.181L299.9 282.15C302.082 282.126 303.454 280.785 303.708 279.255C303.875 277.724 302.717 276.947 300.923 277.058L299.789 277.145L298.607 282.181Z" fill="#A8A8A8"/>
<path d="M227.238 145.346L210.743 131.277C207.474 128.485 202.785 130.888 202.452 135.52L200.643 153.927" fill="#E8E8E8"/>
<path d="M227.411 143.909L211.836 130.625C210.836 129.776 209.892 128.967 208.551 128.689C205.782 128.118 203.306 130.188 202.37 132.655C201.87 133.979 201.791 135.391 201.656 136.787L201.093 142.553L200.014 153.521C199.966 153.981 199.926 155.115 200.474 155.353C201.021 155.591 201.244 154.679 201.275 154.314C201.878 148.191 202.45 142.069 203.076 135.954C203.314 133.614 205.123 131.608 207.575 131.568C209.083 131.545 210.17 132.361 211.249 133.281L219.643 140.443L227.062 146.772C227.538 147.184 227.831 145.971 227.863 145.733C227.942 145.146 227.895 144.321 227.403 143.901L227.411 143.909Z" fill="black"/>
<path d="M306.009 157.653L306.207 138.587C306.294 133.94 301.851 131.005 298.344 133.392L279.357 146.336" fill="#E8E8E8"/>
<path d="M306.657 157.653L306.76 148.025C306.792 144.75 306.959 141.451 306.855 138.167C306.76 135.169 305.237 131.957 302.103 131.196C300.413 130.783 298.929 131.442 297.572 132.37L287.94 138.936L279.181 144.908C278.411 145.432 278.784 148.279 279.53 147.779L296.723 136.058C297.453 135.558 298.167 134.995 298.945 134.574C301.468 133.194 304.666 134.749 305.411 137.477C305.689 138.5 305.53 139.73 305.523 140.776L305.459 146.851L305.348 157.661C305.348 158.042 305.435 159.152 305.999 159.152C306.562 159.152 306.649 158.01 306.649 157.661L306.657 157.653Z" fill="black"/>
<g style="mix-blend-mode:multiply">
<path d="M164.217 197.64C164.217 245.154 204.182 262.753 254.93 262.753C305.677 262.753 347.999 245.162 347.999 197.64C347.999 150.118 306.859 111.605 256.104 111.605C205.348 111.605 164.209 150.126 164.209 197.64H164.217Z" fill="#C9F4FF"/>
</g>
<path d="M145.386 213.23L115.484 223.179C114.05 223.656 113.274 225.205 113.751 226.639L131.074 278.659C131.551 280.093 133.101 280.869 134.535 280.391L164.437 270.443C165.872 269.966 166.648 268.416 166.17 266.983L148.848 214.962C148.37 213.528 146.82 212.753 145.386 213.23Z" fill="#32D3C2" stroke="black" stroke-width="1.5" stroke-linecap="round" stroke-linejoin="round"/>
<path d="M145.386 213.23L115.484 223.179C114.05 223.656 113.274 225.205 113.751 226.639L131.074 278.659C131.551 280.093 133.101 280.869 134.535 280.391L164.437 270.443C165.872 269.966 166.648 268.416 166.17 266.983L148.848 214.962C148.37 213.528 146.82 212.753 145.386 213.23Z" fill="#32D3C2" stroke="black" stroke-width="1.5" stroke-linecap="round" stroke-linejoin="round"/>
<path d="M142.677 219.451L139.433 220.53C138.277 220.915 137.652 222.163 138.036 223.319L138.097 223.499C138.481 224.654 139.73 225.279 140.886 224.895L144.131 223.815C145.287 223.431 145.912 222.182 145.527 221.027L145.467 220.846C145.082 219.691 143.833 219.066 142.677 219.451Z" fill="black" stroke="black" stroke-width="1.5" stroke-linecap="round" stroke-linejoin="round"/>
<path d="M125.189 252.979C126.101 252.464 127.125 252.051 128.109 252.035C129.831 252.012 130.981 253.265 131.124 254.692C131.267 256.128 130.6 257.69 129.799 259.157C131.513 257.857 134.155 257.849 135.178 259.142C136.202 260.434 135.377 262.758 133.504 263.853C134.282 263.44 135.043 263.956 135.448 264.487C136.519 265.883 137.138 267.643 136.781 269.523C136.424 271.403 134.98 273.409 132.893 274.432C130.124 275.789 127.077 275.13 124.887 273.941C122.126 272.442 120.063 270.134 119.214 267.31C117.842 262.742 119.024 256.453 125.189 252.971V252.979Z" fill="#FFC9C7"/>
<path d="M125.3 253.929C126.697 253.167 128.625 252.461 129.989 253.683C131.457 254.999 130.219 257.077 129.482 258.449C129.347 258.695 129.347 260.503 129.91 260.107C131.132 259.234 132.996 258.751 134.393 259.536C136.075 260.488 134.48 262.209 133.393 262.899C132.933 263.192 132.957 265.072 133.623 264.81C135.266 264.175 136.345 266.943 136.44 268.165C136.559 269.735 135.615 271.25 134.504 272.289C132.052 274.581 128.442 274.644 125.522 273.256C120.722 270.972 118.032 265.873 119.603 260.702C120.5 257.743 122.674 255.451 125.308 253.929C125.832 253.627 125.625 251.7 125.078 252.017C119.437 255.285 116.866 262.098 119 268.3C120.183 271.734 123.118 274.541 126.562 275.675C130.299 276.905 134.369 275.707 136.345 272.186C137.313 270.465 137.567 268.387 137.067 266.475C136.662 264.921 135.416 262.113 133.385 262.899L133.615 264.81C135.527 263.604 136.733 260.971 135.702 258.798C134.623 256.506 131.37 256.99 129.672 258.196L130.1 259.853C131.219 257.783 132.259 255.063 131.053 252.795C129.775 250.407 127.07 250.931 125.078 252.017C124.546 252.303 124.745 254.238 125.308 253.929H125.3Z" fill="black"/>
<path d="M256.133 104.142V98.9629L262.711 97.6781L248.992 94.1092L255.847 92.2533V84.9648" stroke="black" stroke-width="3" stroke-linejoin="round"/>
<path d="M261.617 84.4103C262.935 81.2296 261.424 77.5831 258.242 76.2656C255.06 74.9481 251.412 76.4586 250.094 79.6393C248.776 82.82 250.287 86.4665 253.469 87.784C256.651 89.1015 260.299 87.591 261.617 84.4103Z" fill="#E8E8E8" stroke="black" stroke-width="3" stroke-miterlimit="10"/>
<path d="M156.773 197.654C156.567 222.676 167.627 243.772 190.28 255.256C211.321 265.875 235.632 267.913 258.887 267.334C287.403 266.391 320.116 259.816 337.246 234.77C347.252 220.042 349.037 201.238 346.323 184.004C340.983 149.053 313.959 119.146 280.12 109.383C220.962 91.316 156.868 134.698 156.781 197.661L156.773 197.654ZM156.535 197.654C157.21 117.052 249.398 74.7642 312.468 123.476C336.159 141.725 350.195 171.704 348.41 201.587C347.45 226.831 333.668 247.126 310.778 257.698C278.422 273.33 221.263 274.155 189.581 256.572C167.024 244.454 156.297 222.81 156.543 197.654H156.535Z" fill="black"/>
<path d="M340.375 230.234C344.905 236.619 353.086 239.022 356.386 246.088C360.108 254.067 363.797 261.823 364.368 270.706C364.543 273.513 364.527 276.464 363.178 278.938C361.282 282.42 354.157 284.18 350.475 283.657C346.818 283.141 343.707 280.239 342.597 276.717C341.787 274.156 342.113 271.697 342.819 269.167C343.85 265.463 343.557 265.908 341.018 262.751" fill="#E8E8E8"/>
<path d="M340.151 231.086C343.634 235.908 349.157 238.43 353.187 242.673C355.472 245.076 356.686 248.058 358.043 251.033C359.606 254.467 361.09 257.956 362.177 261.573C363.264 265.189 363.978 268.948 364.002 272.732C364.01 274.595 363.819 276.602 362.851 278.243C362.256 279.251 361.272 279.988 360.273 280.559C355.663 283.224 348.998 283.962 345.078 279.742C343.769 278.331 342.841 276.546 342.603 274.627C342.333 272.47 343.016 270.455 343.515 268.393C343.777 267.307 343.968 266.125 343.547 265.046C343.087 263.849 342.016 262.873 341.214 261.89C340.715 261.271 340.413 263.159 340.77 263.603C341.238 264.182 341.73 264.753 342.206 265.332C342.444 265.633 342.841 266.022 342.912 266.418C342.984 266.815 342.762 267.378 342.658 267.775C342.405 268.75 342.127 269.71 341.944 270.693C341.302 274.183 341.802 277.831 343.991 280.694C345.8 283.065 348.546 284.644 351.545 284.715C354.243 284.786 357.075 284.128 359.503 282.986C360.669 282.439 361.788 281.733 362.661 280.773C363.692 279.639 364.224 278.077 364.525 276.602C365.263 272.962 364.795 268.996 364.105 265.38C363.375 261.541 362.113 257.821 360.638 254.213C359.868 252.341 359.043 250.493 358.194 248.653C357.432 247.004 356.742 245.299 355.79 243.752C352.045 237.677 344.721 235.123 340.58 229.381C340.31 229.008 340.056 229.5 339.985 229.738C339.858 230.135 339.889 230.745 340.143 231.094L340.151 231.086Z" fill="black"/>
<path d="M349.902 279.371L347.521 275.438" stroke="black" stroke-width="2.94" stroke-linecap="round" stroke-linejoin="round"/>
<path d="M340.372 230.237L339.475 236.304C338.888 240.262 337.547 268.599 340.943 269.098C341.911 269.241 342.752 267.536 343.164 266.759C344.212 264.808 344.997 262.658 345.735 260.549C347.552 255.37 349.036 250.032 350.377 244.679C350.813 242.95 351.234 241.213 351.591 239.468C351.805 238.43 352.178 237.494 351.971 236.439C351.599 234.575 350.686 232.91 349.528 231.593C348.084 229.959 346.267 228.833 344.362 227.992C343.545 227.636 342.569 227.247 341.657 227.691C340.824 228.096 340.506 229.285 340.364 230.229L340.372 230.237Z" fill="#FF5758" stroke="black" stroke-width="1.94" stroke-miterlimit="10"/>
<path d="M319.647 190.076C304.714 148.161 242.089 140.095 206.639 160.803C187.239 172.136 170.371 201.821 181.931 228.596C189.437 245.981 206.607 252.452 221.166 254.919C239.97 258.107 260.131 258.71 279.015 255.244C292.019 252.857 306.944 248.09 315.965 234.798C321.749 226.28 323.59 215.248 322.677 204.351C322.249 199.22 321.21 194.462 319.647 190.076Z" fill="#FFC9C7"/>
<path d="M319.956 189.379C316.251 179.045 309.348 170.234 300.525 163.754C291.702 157.274 280.983 153.039 270.144 150.819C259.306 148.598 247.056 148.241 235.638 149.97C224.856 151.604 213.898 154.998 204.695 160.97C193.341 168.346 184.819 180.195 180.566 192.971C175.98 206.747 176.734 222.657 184.7 235.077C191.778 246.108 203.925 252.12 216.374 254.959C224.372 256.783 232.655 257.688 240.835 258.211C249.92 258.79 259.06 258.703 268.121 257.775C282.173 256.339 297.415 253.294 308.562 244.023C314.402 239.169 318.686 232.84 320.995 225.615C323.487 217.835 323.852 209.373 322.796 201.299C322.265 197.23 321.313 193.233 319.948 189.363C319.805 188.958 319.504 189.069 319.329 189.363C319.099 189.752 319.186 190.362 319.329 190.767C324.59 205.677 323.899 224.346 313.497 236.925C304.682 247.584 291.115 252.128 277.912 254.436C260.528 257.481 242.605 257.14 225.181 254.555C212.78 252.715 200.109 249.186 190.825 240.279C180.384 230.263 176.774 214.956 179.456 200.998C182.137 187.039 189.596 175.198 199.966 166.53C208.368 159.511 219.032 155.355 229.648 153.039C240.264 150.724 251.832 150.208 262.877 151.596C273.921 152.984 284.513 156.148 294.058 161.613C303.603 167.077 311.149 174.286 316.163 183.621C317.401 185.921 318.448 188.308 319.329 190.759C319.472 191.163 319.773 191.052 319.948 190.759C320.178 190.37 320.091 189.759 319.948 189.355L319.956 189.379Z" fill="black"/>
<path d="M277.317 197.983C276.182 200.965 272.842 202.456 269.867 201.322C266.883 200.188 265.392 196.849 266.526 193.867C267.661 190.885 271.001 189.394 273.977 190.528C276.96 191.662 278.452 195.001 277.317 197.975V197.983Z" fill="black"/>
<path d="M286.766 195.159L256.494 197.312L257.241 207.81L287.514 205.657L286.766 195.159Z" fill="#FFC9C7"/>
<path d="M235.543 196.341C235.733 199.522 233.313 202.258 230.124 202.456C226.942 202.646 224.205 200.228 224.007 197.039C223.816 193.859 226.236 191.123 229.426 190.925C232.607 190.734 235.345 193.153 235.543 196.341Z" fill="black"/>
<path d="M244.194 198.359L213.979 195.52L212.993 205.998L243.209 208.837L244.194 198.359Z" fill="#FFC9C7"/>
<path d="M277.524 205.951C278.666 212.597 274.025 217.062 268.923 220.1C260.727 224.97 252.118 225.406 242.795 223.78C235.742 222.551 226.935 219.22 224.388 211.812C221.468 203.302 228.958 198.314 235.059 197.362C235.932 197.227 236.813 197.132 237.67 197.077C245.755 196.513 253.848 196.03 261.949 196.307C265.138 196.418 268.407 196.664 271.351 198.092C274.294 199.519 276.905 202.343 277.532 205.951H277.524Z" fill="#FF5758"/>
<path d="M192.657 188.275L197.069 196.34C201.726 204.866 210.422 210.624 220.126 211.044C220.546 211.06 220.967 211.068 221.379 211.068C221.808 211.068 222.244 211.06 222.673 211.036C233.201 210.56 242.239 203.359 245.611 193.374L246.785 189.9C247.904 187.838 246.404 185.324 244.056 185.324H194.133C192.618 185.324 191.753 187.053 192.657 188.267V188.275Z" fill="black"/>
<path d="M308.781 188.275L304.37 196.34C299.712 204.866 291.016 210.624 281.313 211.044C280.892 211.06 280.471 211.068 280.059 211.068C279.63 211.068 279.194 211.06 278.766 211.036C268.237 210.56 259.2 203.359 255.828 193.374L254.653 189.9C253.535 187.838 255.034 185.324 257.383 185.324H307.305C308.821 185.324 309.686 187.053 308.781 188.267V188.275Z" fill="black"/>
<path d="M259.457 185.332H244.057V188.56H259.457V185.332Z" fill="black"/>
<path d="M241.494 166.902L196.908 211.469L201.172 215.731L245.758 171.164L241.494 166.902Z" fill="white"/>
<path d="M237.562 163.004L192.979 207.568L190.893 205.45L235.475 160.887L237.562 163.004Z" fill="white"/>
<path d="M301.451 166.902L256.865 211.469L261.129 215.731L305.715 171.164L301.451 166.902Z" fill="white"/>
<path d="M297.511 163.004L252.928 207.568L250.85 205.45L295.432 160.887L297.511 163.004Z" fill="white"/>
<path d="M305.271 188.373L301.708 194.893C297.487 202.617 289.616 207.654 281.182 208.018C280.809 208.034 280.436 208.042 280.063 208.042C279.69 208.042 279.294 208.034 278.905 208.018C269.907 207.614 261.846 201.436 258.776 192.624L258.006 188.373H305.263H305.271ZM243.423 188.373L242.653 192.624C239.591 201.436 231.521 207.614 222.524 208.018C222.135 208.034 221.746 208.042 221.365 208.042C220.985 208.042 220.62 208.034 220.247 208.018C211.805 207.654 203.942 202.617 199.721 194.893L196.158 188.373H243.415H243.423ZM307.286 185.336H194.135C192.62 185.336 191.755 187.065 192.659 188.278L197.071 196.344C201.728 204.87 210.424 210.628 220.128 211.048C220.548 211.064 220.969 211.072 221.381 211.072C221.794 211.072 222.246 211.064 222.675 211.04C233.203 210.564 242.241 203.363 245.613 193.378L246.477 188.556H254.959L255.824 193.378C259.196 203.363 268.233 210.564 278.762 211.04C279.198 211.056 279.627 211.072 280.055 211.072C280.484 211.072 280.881 211.064 281.309 211.048C291.021 210.628 299.709 204.87 304.366 196.344L308.777 188.278C309.682 187.065 308.817 185.336 307.302 185.336H307.286Z" fill="black"/>
<path d="M229.975 218.304C227.547 216.924 225.389 214.711 224.398 211.816C221.478 203.306 228.968 198.318 235.069 197.366C235.942 197.231 236.823 197.136 237.679 197.08C245.765 196.517 253.858 196.034 261.958 196.311C265.148 196.422 268.417 196.668 271.361 198.096C274.304 199.523 276.915 202.347 277.541 205.955C278.081 209.08 277.049 212.371 275.28 214.814" fill="#FF5758"/>
<path d="M230.188 216.504C226.65 214.442 223.182 209.993 225.11 205.75C226.681 202.292 230.625 200.159 234.195 199.397C237.107 198.779 240.177 198.771 243.137 198.589C246.271 198.398 249.397 198.24 252.531 198.16C255.665 198.081 259.037 198.065 262.29 198.192C265.29 198.311 268.384 198.565 271.121 199.897C273.478 201.047 275.588 203.03 276.469 205.536C277.397 208.185 276.39 211 274.842 213.197C274.35 213.887 274.335 214.958 274.549 215.751C274.668 216.211 275.176 217.123 275.675 216.417C279.301 211.286 279.682 203.672 275.144 198.945C270.375 193.965 262.822 194.33 256.459 194.361C252.666 194.377 248.881 194.528 245.097 194.734C241.566 194.932 237.884 194.917 234.409 195.614C230.069 196.479 225.729 199.025 223.896 203.212C221.199 209.375 224.071 216.798 229.744 220.097C230.759 220.684 231.188 217.083 230.18 216.497L230.188 216.504Z" fill="black"/>
<path d="M269.025 210.069C268.898 212.266 267.018 213.948 264.82 213.821C262.622 213.694 260.94 211.814 261.067 209.617C261.194 207.421 263.075 205.739 265.272 205.866C267.47 205.993 269.152 207.873 269.025 210.069Z" fill="black"/>
<path d="M268.707 209.873C268.604 211.333 267.501 212.554 266.105 212.943C264.708 213.331 263.074 212.887 262.13 211.737C261.185 210.587 261.154 209.231 262.027 208.081C262.899 206.931 264.478 206.376 265.922 206.693C267.469 207.042 268.771 208.446 268.699 210.064C268.691 210.254 268.747 210.809 269.025 210.809C269.302 210.809 269.342 210.238 269.35 210.064C269.429 208.2 268.525 206.281 266.771 205.487C265.018 204.694 263.113 205.178 261.9 206.55C260.606 208.01 260.392 210.325 261.209 212.062C262.027 213.799 263.748 214.775 265.589 214.529C267.739 214.235 269.199 212.356 269.342 210.262C269.358 210.016 269.39 209.485 269.112 209.35C268.834 209.215 268.723 209.699 268.707 209.865V209.873Z" fill="black"/>
<path d="M244.16 210.069C244.033 212.266 242.153 213.948 239.955 213.821C237.757 213.694 236.075 211.814 236.202 209.617C236.329 207.421 238.209 205.739 240.407 205.866C242.605 205.993 244.287 207.873 244.16 210.069Z" fill="black"/>
<path d="M243.842 209.873C243.739 211.333 242.636 212.554 241.239 212.943C239.843 213.331 238.209 212.887 237.264 211.737C236.32 210.587 236.288 209.231 237.161 208.081C238.034 206.931 239.613 206.376 241.057 206.693C242.604 207.042 243.905 208.446 243.834 210.064C243.826 210.254 243.882 210.809 244.159 210.809C244.437 210.809 244.477 210.238 244.485 210.064C244.564 208.2 243.659 206.281 241.906 205.487C240.152 204.694 238.248 205.178 237.034 206.55C235.741 208.01 235.527 210.325 236.344 212.062C237.161 213.799 238.883 214.775 240.724 214.529C242.874 214.235 244.334 212.356 244.477 210.262C244.493 210.016 244.524 209.485 244.247 209.35C243.969 209.215 243.858 209.699 243.842 209.865V209.873Z" fill="black"/>
<path d="M238.409 182.003C237.702 184.073 233.465 184.493 228.935 182.946C224.412 181.4 221.318 178.473 222.024 176.403C222.73 174.333 226.967 173.913 231.498 175.46C236.02 177.006 239.115 179.933 238.409 182.003Z" fill="#FF5758"/>
<path d="M280.158 176.478C280.849 178.548 277.722 181.451 273.184 182.95C268.646 184.449 264.409 183.989 263.726 181.919C263.036 179.849 266.162 176.946 270.701 175.447C275.239 173.948 279.476 174.408 280.158 176.478Z" fill="#FF5758"/>
<path d="M268.923 228.524C272.542 227.16 275.755 225.383 278.937 222.346C279.127 222.163 279.333 221.973 279.595 221.941C280.182 221.878 280.492 222.631 280.539 223.218C280.738 225.439 281.491 229.23 279.976 231.046C277.905 233.544 274.303 233.972 271.312 233.758C269.955 233.663 268.598 233.465 267.305 233.06C266.313 232.751 263.02 230.396 262.203 230.626C264.623 229.951 266.837 229.301 268.923 228.516V228.524Z" fill="black" stroke="black" stroke-width="2" stroke-miterlimit="10"/>
<path d="M337.039 284.917C335.318 284.212 333.683 283.014 332.882 281.293C331.612 278.589 332.691 275.448 334.175 273.069C334.754 272.133 335.452 271.268 336.246 270.499C336.643 270.118 337.023 269.73 337.452 269.397C337.603 269.278 338.69 268.421 338.872 268.564C337.761 267.692 336.603 266.906 335.667 265.828C334.754 264.781 333.286 262.576 333.715 261.006C334.596 257.738 339.904 260.466 341.506 261.426C343.434 262.584 345.196 264.012 347.132 265.154C347.592 265.423 348.155 265.685 348.639 265.455C348.941 265.312 348.719 265.78 348.639 265.455C347.6 261.283 351.353 259.404 353.408 260.617C354.86 261.474 354.979 263.226 355.034 264.725C355.09 266.32 355.018 267.922 354.82 269.5C354.733 270.214 354.63 270.919 354.503 271.625C354.376 272.323 354.011 273.164 354.011 273.862C354.003 273.909 353.987 273.949 353.979 273.997C352.702 278.922 348.853 283.212 344.125 285.171C342.109 286.012 339.372 285.853 337.047 284.902L337.039 284.917Z" fill="#FFC9C7"/>
<path d="M336.849 285.402C328.319 282.055 331.795 272.094 337.809 268.049C338.245 267.755 338.935 267.486 339.427 267.89C339.808 268.176 339.887 268.723 339.594 269.104C339.292 269.5 338.721 269.564 338.34 269.238C336.722 267.946 334.905 266.439 333.953 264.512C332.921 262.799 332.453 259.872 334.937 259.039C336.357 258.667 337.848 259.063 339.134 259.476C342.458 260.411 345.283 263.504 348.242 264.71C348.52 264.607 348.75 264.528 349.075 264.654C350.313 265.218 349.258 267.01 348.179 266.225C347.742 265.868 347.79 265.313 347.679 264.869C347.187 262.394 349.02 259.539 351.694 259.388C354.788 259.111 356.026 262.061 355.978 264.583C356.097 267.264 355.907 270.024 355.304 272.625C354.812 275.195 353.995 277.479 352.447 279.572C349.02 284.387 342.688 288.098 336.857 285.394L336.849 285.402ZM337.245 284.442C342.649 286.853 347.933 282.84 350.861 278.494C351.837 276.987 352.606 275.361 353.035 273.632L353.003 273.886C353.058 272.577 353.534 271.848 353.638 270.682C353.987 268.691 354.145 266.685 354.082 264.67C354.082 262.973 353.749 261.07 351.829 261.173C349.98 261.3 348.964 263.251 349.417 264.995L349.448 265.162C349.448 265.162 349.504 265.352 349.417 265.146C349.107 264.52 348.052 264.67 347.965 265.384C347.861 265.86 348.385 266.368 348.845 266.272C348.893 266.264 348.948 266.249 348.996 266.233C348.806 266.32 348.52 266.391 348.298 266.391C347.362 266.375 346.854 265.939 346.409 265.693C343.728 263.964 341.466 262.085 338.618 260.792C332.588 258.04 333.524 263.282 336.952 266.074C337.698 266.709 338.547 267.264 339.411 267.89L338.34 269.254C338.515 269.405 338.777 269.453 338.975 269.413C339.007 269.405 338.975 269.413 338.959 269.429C333.723 272.752 329.47 281.341 337.245 284.45V284.442Z" fill="black"/>
<path d="M359.054 211.914C359.054 205.554 353.896 200.398 347.533 200.398" stroke="black" stroke-width="4.11" stroke-miterlimit="10"/>
<path d="M309.391 223.43H347.531C353.894 223.43 359.051 218.275 359.051 211.914" stroke="black" stroke-width="4.11" stroke-miterlimit="10"/>
<path d="M311.995 224.744C313.358 221.454 311.795 217.682 308.504 216.319C305.213 214.956 301.439 216.519 300.076 219.809C298.713 223.099 300.276 226.87 303.567 228.233C306.858 229.596 310.632 228.034 311.995 224.744Z" fill="#FFD15E"/>
<path d="M298.229 221.643C298.276 224.997 300.625 227.25 303.545 228.519C306.464 229.788 309.765 229.748 312.058 227.337C314.089 225.204 314.391 221.849 312.812 219.366C311.947 218.002 310.606 217.043 309.178 216.337C307.671 215.591 306.012 215.06 304.306 215.171C300.918 215.401 298.268 218.272 298.229 221.643C298.229 222.015 299.197 222.388 299.466 222.515C299.562 222.563 300.926 223.094 300.926 222.896C300.958 220.477 302.307 218.177 304.521 217.122C305.608 216.598 306.837 216.384 308.028 216.551C308.25 216.583 308.48 216.614 308.686 216.694C308.662 216.694 308.512 216.598 308.583 216.646C309.083 216.94 309.519 217.415 309.86 217.875C311.328 219.826 311.527 222.499 310.384 224.656C309.241 226.814 306.972 228.162 304.56 228.051C304.227 228.035 303.902 227.979 303.576 227.916C303.354 227.868 303.323 227.829 303.497 227.916C303.029 227.67 302.608 227.21 302.291 226.806C301.402 225.687 300.942 224.323 300.918 222.896C300.918 222.515 299.958 222.158 299.681 222.023C299.585 221.984 298.213 221.452 298.221 221.643H298.229Z" fill="black"/>
</g>
<g clip-path="url(#clip3_1056_96781)">
<path d="M244.669 491.988V487.53L239.016 486.421L250.804 483.342L244.91 481.744V475.461" stroke="black" stroke-width="4.59" stroke-linejoin="round"/>
<path d="M246.954 477.89C249.69 476.759 250.995 473.619 249.868 470.875C248.74 468.131 245.608 466.823 242.872 467.953C240.136 469.084 238.832 472.224 239.959 474.968C241.086 477.712 244.218 479.02 246.954 477.89Z" fill="#FFD15E" stroke="black" stroke-width="3" stroke-miterlimit="10"/>
<path d="M237.34 460.767C241.434 458.032 247.198 458.108 251.216 460.946" stroke="#F7F7F7" stroke-width="4.3" stroke-linecap="round" stroke-linejoin="round"/>
<path d="M231.35 454.044C235.361 451.22 240.342 449.814 245.233 450.124C250.124 450.434 254.891 452.46 258.519 455.766" stroke="#F7F7F7" stroke-width="4.3" stroke-linecap="round" stroke-linejoin="round"/>
<path d="M224.549 447.595C230.56 443.365 238.027 441.257 245.363 441.719C252.693 442.18 259.837 445.218 265.271 450.178" stroke="#F7F7F7" stroke-width="4.3" stroke-linecap="round" stroke-linejoin="round"/>
<path d="M166.467 617.841C166.261 619.674 165.279 618.186 163.939 618.737C161.233 619.846 154.356 622.76 154.04 625.881C153.779 628.409 154.405 632.143 153.999 634.774C154.714 627.183 151.945 622.223 149.465 615.313C146.216 615.072 142.96 614.831 139.711 614.59C136.86 619.887 136.867 626.239 137.423 632.232C138.041 638.846 139.56 646.41 144.684 651.06C146.491 652.7 148.861 653.864 151.293 653.692C154.37 653.478 156.919 651.239 158.925 648.89C160.457 647.099 163.507 644.026 163.788 641.574C163.802 641.45 166.474 617.848 166.474 617.848L166.467 617.841Z" fill="#E8E8E8" stroke="black" stroke-width="2.9" stroke-linejoin="round"/>
<g style="mix-blend-mode:multiply">
<path d="M248.373 762.003C290.037 762.003 323.813 759.43 323.813 756.257C323.813 753.084 290.037 750.512 248.373 750.512C206.708 750.512 172.932 753.084 172.932 756.257C172.932 759.43 206.708 762.003 248.373 762.003Z" fill="#C7C7C7"/>
</g>
<path d="M186.431 743.457C186.919 744.607 187.09 745.896 186.919 747.143C185.023 747.129 183.12 747.508 181.375 748.259C180.571 748.603 179.781 749.037 179.238 749.719C178.167 751.069 178.318 752.998 178.524 754.714C178.558 755.017 178.62 755.354 178.874 755.52C179.019 755.609 179.204 755.623 179.376 755.637C182.687 755.83 185.909 755.754 189.22 755.754C193.52 755.754 197.82 755.63 202.114 755.402C207.781 755.099 205.755 748.837 204.14 745.069" fill="#FF5758"/>
<path d="M185.957 744.538C186.245 745.255 186.362 745.971 186.273 746.743L186.918 745.627C184.803 745.634 182.632 746.068 180.722 747.011C178.936 747.893 178.022 749.471 177.789 751.42C177.665 752.433 177.713 753.459 177.81 754.472C177.885 755.251 177.933 756.525 178.703 756.993C179.087 757.228 179.63 757.179 180.063 757.2C180.688 757.228 181.306 757.248 181.931 757.262C183.113 757.29 184.301 757.297 185.483 757.29C190.236 757.283 194.99 757.255 199.744 757.042C201.338 756.973 203.295 757.131 204.676 756.16C205.693 755.443 206.187 754.279 206.394 753.094C206.936 750.001 205.81 746.798 204.614 743.994C204.374 743.429 203.927 743.484 203.673 743.994C203.371 744.6 203.412 745.53 203.673 746.143C204.381 747.811 205.198 749.891 205.191 751.537C205.191 751.737 205.191 751.944 205.116 752.171C204.992 752.529 204.786 752.839 204.498 753.094C203.57 753.907 202.251 753.887 201.097 753.942C197.257 754.135 193.41 754.238 189.556 754.238C187.688 754.238 185.826 754.259 183.958 754.245C182.996 754.245 182.041 754.224 181.079 754.19C180.64 754.176 180.152 754.093 179.712 754.135C179.76 754.135 178.902 754.169 179.163 754.314C179.094 754.272 179.101 753.735 179.094 753.659C179.032 753.012 178.964 752.295 179.204 751.675C179.513 750.883 180.228 750.38 180.956 750.008C182.79 749.064 184.871 748.679 186.918 748.672C187.372 748.672 187.523 747.866 187.564 747.556C187.77 745.792 187.564 744.042 186.905 742.396C186.671 741.817 186.211 741.9 185.964 742.396C185.655 743.016 185.709 743.925 185.964 744.545L185.957 744.538Z" fill="black"/>
<path d="M311.064 743.457C310.576 744.607 310.404 745.896 310.576 747.143C312.472 747.129 314.375 747.508 316.12 748.259C316.923 748.603 317.713 749.037 318.256 749.719C319.328 751.069 319.177 752.998 318.97 754.714C318.936 755.017 318.874 755.354 318.62 755.52C318.476 755.609 318.29 755.623 318.119 755.637C314.808 755.83 311.586 755.754 308.275 755.754C303.974 755.754 299.674 755.63 295.381 755.402C289.713 755.099 291.74 748.837 293.354 745.069" fill="#FF5758"/>
<path d="M310.597 742.383C309.937 744.037 309.731 745.779 309.937 747.543C309.972 747.86 310.123 748.659 310.583 748.659C312.424 748.659 314.251 748.983 315.948 749.72C317.239 750.278 318.407 751.07 318.455 752.599C318.462 752.909 318.448 753.213 318.421 753.523C318.407 753.653 318.414 753.915 318.366 754.046C318.146 754.659 318.448 754.074 318.126 754.108C317.116 754.205 316.078 754.205 315.062 754.218C313.145 754.253 311.222 754.232 309.305 754.225C305.451 754.212 301.604 754.156 297.758 753.991C296.04 753.915 292.647 754.115 292.331 751.911C292.289 751.628 292.303 751.311 292.351 750.891C292.413 750.367 292.53 749.865 292.667 749.355C292.963 748.253 293.382 747.185 293.828 746.138C294.096 745.511 294.137 744.608 293.828 743.988C293.574 743.472 293.134 743.403 292.887 743.988C291.836 746.455 290.881 749.148 290.984 751.862C291.032 753.144 291.293 754.556 292.166 755.555C293.079 756.602 294.405 756.864 295.724 756.94C300.478 757.201 305.225 757.256 309.985 757.277C312.41 757.284 314.842 757.305 317.267 757.194C318.29 757.146 319.012 757.16 319.403 756.085C319.747 755.148 319.761 753.977 319.781 752.992C319.836 750.87 319.335 748.618 317.459 747.385C315.584 746.151 312.877 745.621 310.576 745.614L311.222 746.73C311.132 745.959 311.249 745.249 311.538 744.526C311.792 743.892 311.854 743.003 311.538 742.376C311.284 741.873 310.83 741.784 310.597 742.376V742.383Z" fill="black"/>
<path d="M332.916 593.847C326.473 563.529 305.919 537.434 275.274 529.139C246.814 521.437 212.879 527.093 190.848 546.596C182.776 553.74 176.147 562.496 171.765 572.367C162.326 593.627 161.955 617.896 162.037 640.754C162.147 671.203 168.618 699.434 177.693 728.402C179.603 734.499 183.092 742.993 190.024 744.688C202.774 747.808 218.498 739.686 229.146 735.615C235.637 733.135 242.074 732.095 248.943 732.019C265.918 731.833 273.488 737 288.752 743.578C329.028 760.939 332.058 686.572 335.025 664.252C338.137 640.885 337.835 616.946 332.923 593.84L332.916 593.847Z" fill="#E8E8E8"/>
<path d="M333.493 593.083C331.171 582.254 327.077 571.81 321.21 562.414C315.344 553.017 308 545.081 299.152 538.826C289.961 532.33 279.471 528.162 268.452 526.054C256.657 523.794 244.43 523.732 232.6 525.792C220.771 527.852 209.533 531.958 199.551 538.406C188.986 545.239 180.131 554.746 174.038 565.769C167.381 577.81 164.235 591.602 162.724 605.187C161.948 612.138 161.604 619.123 161.453 626.116C161.302 633.108 161.247 640.259 161.48 647.32C161.968 661.883 163.892 676.35 166.852 690.61C168.322 697.671 170.04 704.677 171.943 711.635C173.846 718.593 175.618 725.048 177.905 731.586C179.547 736.263 181.855 741.292 185.95 744.309C190.422 747.609 196.989 747.244 202.182 746.39C208.289 745.384 214.17 743.221 219.892 740.913C225.614 738.605 231.501 735.898 237.739 734.658C244.464 733.322 251.533 733.17 258.327 734.072C263.836 734.803 269.091 736.49 274.195 738.647C279.588 740.92 284.802 743.683 290.284 745.742C293.471 746.941 296.851 747.74 300.265 747.706C306.193 747.644 311.421 744.854 315.426 740.583C319.98 735.726 322.941 729.45 325.188 723.243C327.812 716.01 329.563 708.487 330.944 700.923C332.325 693.359 333.211 686.463 334.029 679.188C334.764 672.63 335.554 666.078 336.289 659.527C337.944 644.654 338.205 629.615 336.79 614.708C336.103 607.44 334.997 600.22 333.486 593.076C333.383 592.58 333.033 592.112 332.572 592.532C332.112 592.952 332.222 594.075 332.332 594.613C335.375 609.017 336.612 623.76 336.33 638.474C336.186 645.859 335.657 653.238 334.784 660.567C334.413 663.654 334.008 666.726 333.671 669.812C332.978 676.198 332.311 682.591 331.432 688.957C330.415 696.328 329.151 703.678 327.324 710.898C325.6 717.704 323.395 724.504 319.974 730.662C317.178 735.691 313.338 740.445 308.034 742.932C302.291 745.618 295.779 744.854 290.036 742.58C284.596 740.431 279.389 737.724 273.989 735.478C269.05 733.425 263.96 731.813 258.65 731.076C252.014 730.153 245.096 730.256 238.508 731.468C232.456 732.584 226.878 734.975 221.218 737.296C215.557 739.618 209.739 741.878 203.687 743.076C200.808 743.648 197.861 743.972 194.928 743.855C192.283 743.745 189.501 743.379 187.207 741.981C182.893 739.356 180.578 734.272 178.95 729.691C176.696 723.353 174.931 716.781 173.159 710.292C169.408 696.597 166.365 682.695 164.565 668.593C162.765 654.491 162.497 640.445 162.793 626.302C163.088 612.159 164.118 599.021 167.787 585.891C169.58 579.478 171.991 573.202 175.274 567.401C178.558 561.601 182.446 556.551 186.973 551.922C195.244 543.455 205.452 537.166 216.533 533.108C227.613 529.05 239.491 527.19 251.272 527.356C263.053 527.521 274.374 529.512 284.953 534.024C294.804 538.22 303.686 544.564 310.954 552.438C318.215 560.306 323.875 569.564 327.812 579.519C329.749 584.417 331.246 589.473 332.346 594.619C332.455 595.115 332.799 595.584 333.259 595.164C333.719 594.743 333.616 593.614 333.5 593.083H333.493Z" fill="black"/>
<path d="M338.067 582.819C338.198 599.911 333.121 617.312 320.797 629.582C308.556 641.803 291.677 648.051 274.881 650.765C247.348 654.761 216.738 653.238 191.424 640.886C162.771 626.613 152.975 599.966 157.069 569.241C163.128 522.197 207.066 486.767 254.197 490.852C301.666 493.966 338.486 535.513 338.067 582.819ZM337.799 582.819C338.108 548.733 316.751 516.334 286.086 502.109C244.484 482.055 192.901 497.817 169.812 537.993C158.588 557.241 154.122 581.166 159.886 602.915C169.51 638.682 207.986 649.532 240.953 650.29C263.176 650.827 286.36 648.898 306.358 638.448C327.818 627.219 337.992 606.669 337.799 582.819Z" fill="black"/>
<g style="mix-blend-mode:multiply">
<path d="M335.334 580.862C335.334 627.824 298.06 645.212 250.736 645.212C203.412 645.212 163.939 627.824 163.939 580.862C163.939 533.9 202.306 495.832 249.636 495.832C296.967 495.832 335.334 533.9 335.334 580.862Z" fill="#C9F4FF"/>
</g>
<path d="M313.068 570.723C309.42 563.793 303.567 557.648 297.433 553.053C282.897 542.148 264.15 540.377 246.571 540.798C233.409 541.114 219.725 542.761 207.628 548.265C189.589 556.47 174.05 578.211 185.041 598.017C192.179 610.872 208.26 615.763 221.875 617.685C239.461 620.165 258.291 620.758 275.904 618.34C288.029 616.673 301.933 613.269 310.265 603.549C315.61 597.315 317.245 589.206 316.31 581.174C315.885 577.523 314.772 573.968 313.061 570.723H313.068Z" fill="#73EBE0"/>
<path d="M313.33 570.138C307.725 559.578 297.956 550.966 287.082 546.172C276.207 541.377 264.481 540.054 252.865 539.923C240.273 539.786 227.399 540.681 215.33 544.491C209.855 546.22 204.6 548.555 199.894 551.869C195.655 554.852 191.85 558.489 188.745 562.643C182.679 570.751 179.409 581.112 181.868 591.17C183.105 596.227 185.688 600.953 189.294 604.7C192.901 608.448 197.057 611.024 201.604 613.063C211.744 617.596 223.017 618.953 233.967 619.904C247.596 621.089 261.383 621.082 274.957 619.305C285.495 617.927 296.658 615.557 305.334 609.047C309.785 605.706 313.33 601.304 315.192 596.02C317.053 590.736 317.41 584.481 316.339 578.798C315.769 575.78 314.745 572.866 313.33 570.145C312.918 569.353 312.595 570.903 312.815 571.323C318.276 581.836 317.266 595.497 308.879 604.17C301.514 611.782 290.757 615.013 280.624 616.79C268.122 618.981 255.303 619.429 242.636 618.829C236.069 618.519 229.515 617.906 222.996 617.018C218.078 616.349 213.18 615.419 208.433 613.945C199.186 611.073 189.968 605.995 185.179 597.198C182.734 592.7 181.477 587.623 181.8 582.49C182.123 577.358 183.812 572.646 186.299 568.333C191.348 559.571 199.496 552.647 208.721 548.638C220.276 543.616 233.012 542.038 245.507 541.673C256.808 541.343 268.342 541.839 279.257 545.021C290.173 548.204 300.532 554.852 307.931 564.007C309.778 566.294 311.434 568.733 312.815 571.33C313.234 572.122 313.557 570.572 313.33 570.152V570.138Z" fill="black"/>
<path d="M158.767 628.293C158.121 631.876 158.114 635.575 158.746 639.164C158.966 640.411 159.31 641.727 160.258 642.567C160.374 642.671 160.512 642.774 160.67 642.795C160.841 642.815 160.58 643.745 160.732 643.676C162.099 643.063 163.892 641.451 165.259 640.838C165.719 640.631 166.193 640.418 166.523 640.039C166.811 639.708 166.962 639.288 167.093 638.875C168.357 634.838 167.965 630.456 167.484 626.316C167.299 624.746 167.086 622.748 165.52 621.935C164.221 621.26 162.703 621.797 161.611 622.624C159.825 623.974 159.152 626.192 158.767 628.307V628.293Z" fill="#E8E8E8"/>
<path d="M250.275 619.859V680.854" stroke="black" stroke-width="3" stroke-miterlimit="10"/>
<path d="M166.104 619.805L166.626 626.081C166.969 630.18 166.963 659.258 164.022 659.506C163.184 659.575 162.532 657.763 162.209 656.944C161.391 654.863 160.801 652.611 160.251 650.385C158.898 644.943 157.847 639.37 156.912 633.79C156.61 631.985 156.322 630.18 156.081 628.368C155.937 627.287 155.655 626.302 155.882 625.241C156.28 623.367 157.125 621.734 158.176 620.48C159.482 618.924 161.096 617.911 162.758 617.208C163.473 616.905 164.332 616.588 165.101 617.112C165.802 617.587 166.021 618.827 166.104 619.812V619.805Z" fill="#FF5758" stroke="black" stroke-width="2.16" stroke-linecap="round" stroke-linejoin="round"/>
<path d="M240.746 593.324C241.557 596.652 242.031 599.876 244.366 602.535C246.173 604.581 248.749 605.945 251.517 605.807C254.293 605.669 256.725 604.051 258.318 601.825C260.125 599.304 261.32 595.763 261.258 592.656" fill="white"/>
<path d="M241.838 598.075C243.418 602.781 247.224 606.025 251.517 605.812C255.652 605.605 259.025 602.25 260.255 597.676" fill="white"/>
<path d="M241.426 599.011C242.903 603.282 246.565 607.312 251.401 607.14C256.237 606.968 259.541 602.71 260.757 598.343C260.901 597.833 260.929 596.944 260.544 596.524C260.159 596.104 259.85 596.62 259.747 596.999C258.655 600.919 255.468 604.453 251.174 604.481C246.881 604.508 243.59 601.002 242.251 597.123C242.065 596.593 241.639 596.71 241.426 597.123C241.138 597.681 241.234 598.439 241.426 599.004V599.011Z" fill="black"/>
<path d="M256.319 593.085C256.512 597.005 254.251 600.305 251.263 600.457C248.275 600.608 245.699 597.549 245.5 593.623C245.307 589.703 247.567 586.403 250.556 586.251C253.544 586.1 256.12 589.159 256.319 593.085Z" fill="black"/>
<path d="M256.025 593.085C256.114 595.482 255.194 598.162 252.94 599.319C250.845 600.401 248.523 599.409 247.204 597.611C245.659 595.503 245.356 592.541 246.414 590.15C247.307 588.139 249.265 586.561 251.56 586.995C254.404 587.539 255.874 590.626 256.038 593.257C256.052 593.45 256.155 593.822 256.403 593.733C256.65 593.643 256.622 593.078 256.609 592.892C256.444 590.157 255.152 586.968 252.432 585.886C249.712 584.804 247.397 586.458 246.201 588.752C244.8 591.439 244.855 595.021 246.243 597.701C247.397 599.926 249.725 601.731 252.329 600.932C255.53 599.953 256.732 596.089 256.616 593.071C256.616 592.899 256.581 592.389 256.32 592.389C256.059 592.389 256.018 592.913 256.025 593.071V593.085Z" fill="black"/>
<path d="M244.937 580.59C242.794 580.831 240.685 581.671 239.091 583.132C237.498 584.599 236.467 586.714 236.495 588.877C236.515 590.262 236.982 591.674 237.965 592.646C238.878 593.548 240.142 593.996 241.406 594.237C244.175 594.767 247.417 594.202 249.08 591.915C250.673 589.725 250.35 586.721 249.897 584.041" fill="white"/>
<path d="M244.937 579.259C242.135 579.604 239.414 580.871 237.718 583.193C236.021 585.514 235.396 588.924 236.419 591.756C237.443 594.587 240.053 595.586 242.76 595.737C245.178 595.875 247.802 595.152 249.32 593.14C251.326 590.481 250.976 586.775 250.467 583.689C250.412 583.358 250.254 582.538 249.746 582.759C249.286 582.958 249.279 584.026 249.341 584.398C249.664 586.341 250.09 588.614 249.025 590.412C247.96 592.21 245.892 592.954 243.934 593.071C241.977 593.189 239.339 592.803 237.972 591.17C236.605 589.537 237.058 587.243 238.247 585.576C239.792 583.399 242.348 582.228 244.944 581.918C245.803 581.815 245.707 579.163 244.944 579.252L244.937 579.259Z" fill="black"/>
<path d="M255.606 580.59C257.749 580.831 259.858 581.671 261.452 583.132C263.045 584.599 264.076 586.714 264.048 588.877C264.028 590.262 263.561 591.674 262.578 592.646C261.665 593.548 260.401 593.996 259.137 594.237C256.368 594.767 253.126 594.202 251.463 591.915C249.87 589.725 250.193 586.721 250.646 584.041" fill="white"/>
<path d="M255.606 581.926C257.894 582.209 260.209 583.139 261.761 584.909C263.073 586.397 264.035 588.574 263.039 590.482C262.043 592.39 259.446 593.059 257.392 593.1C255.455 593.141 253.298 592.618 251.993 591.081C250.406 589.208 250.839 586.638 251.203 584.413C251.271 583.993 251.258 583.001 250.797 582.773C250.296 582.532 250.124 583.407 250.076 583.703C249.616 586.48 249.279 589.662 250.653 592.246C251.876 594.547 254.273 595.663 256.801 595.759C259.329 595.856 262.29 595.105 263.643 592.769C265.148 590.172 264.852 586.679 263.41 584.124C261.789 581.258 258.8 579.653 255.599 579.26C254.844 579.17 254.727 581.816 255.599 581.926H255.606Z" fill="black"/>
<path d="M250.324 583.896C252.728 583.992 255.181 581.003 253.36 579.232C252.089 577.999 249.039 578.096 247.603 578.964C245.295 580.355 246.944 582.787 248.971 583.586C249.396 583.751 249.857 583.882 250.324 583.896Z" fill="#EB1D25"/>
<path d="M250.324 584.722C251.849 584.763 253.278 583.737 253.951 582.407C254.693 580.953 254.445 578.907 252.941 578.046C251.67 577.323 249.953 577.323 248.579 577.716C247.858 577.922 247.164 578.26 246.683 578.859C246.113 579.576 246.01 580.581 246.202 581.456C246.6 583.296 248.51 584.618 250.324 584.722C250.818 584.749 250.853 583.089 250.324 583.055C249.046 582.986 247.562 582.187 246.992 581.05C246.965 580.988 246.937 580.933 246.91 580.871C246.896 580.843 246.882 580.809 246.875 580.781C246.875 580.795 246.903 580.871 246.882 580.795C246.875 580.767 246.834 580.588 246.848 580.678C246.868 580.781 246.848 580.65 246.848 580.623C246.855 580.506 246.848 580.781 246.848 580.657C246.848 580.561 246.848 580.726 246.841 580.726C246.841 580.699 246.841 580.664 246.855 580.637C246.875 580.547 246.848 580.678 246.848 580.685C246.855 580.657 246.861 580.623 246.875 580.595C246.903 580.519 246.875 580.602 246.875 580.616C246.889 580.588 246.896 580.554 246.916 580.526C246.958 580.451 246.951 580.457 246.992 580.395C247.335 579.899 247.906 579.596 248.469 579.41C249.609 579.031 251.038 578.983 252.178 579.376C252.701 579.555 253.202 579.844 253.511 580.32C253.552 580.382 253.539 580.354 253.566 580.423C253.587 580.464 253.6 580.499 253.621 580.54C253.621 580.526 253.594 580.444 253.621 580.519C253.628 580.547 253.669 580.726 253.655 580.637C253.642 580.561 253.635 580.836 253.655 580.63C253.649 580.719 253.628 580.795 253.655 580.657C253.642 580.719 253.621 580.843 253.655 580.712C253.642 580.788 253.621 580.857 253.6 580.933C253.58 581.009 253.6 580.933 253.6 580.919C253.587 580.96 253.566 581.002 253.552 581.043C253.051 582.214 251.663 583.089 250.351 583.055C249.85 583.041 249.829 584.708 250.351 584.722H250.324Z" fill="black"/>
<path d="M228.285 583.975C231.506 583.975 234.118 581.356 234.118 578.126C234.118 574.896 231.506 572.277 228.285 572.277C225.064 572.277 222.453 574.896 222.453 578.126C222.453 581.356 225.064 583.975 228.285 583.975Z" fill="black"/>
<path d="M277.878 578.963C278.621 575.82 276.682 572.668 273.548 571.923C270.414 571.178 267.271 573.123 266.528 576.266C265.786 579.409 267.724 582.561 270.859 583.306C273.993 584.05 277.136 582.106 277.878 578.963Z" fill="black"/>
<path d="M234.18 564.783C233.314 566.058 230.36 565.555 227.578 563.653C224.796 561.759 223.243 559.189 224.109 557.915C224.974 556.64 227.928 557.143 230.71 559.045C233.493 560.939 235.045 563.509 234.18 564.783Z" fill="#0CAB9F"/>
<path d="M265.566 569.193C266.431 570.468 269.385 569.965 272.167 568.064C274.95 566.169 276.502 563.599 275.637 562.325C274.771 561.051 271.817 561.553 269.035 563.455C266.253 565.349 264.7 567.919 265.566 569.193Z" fill="#0CAB9F"/>
<path d="M147.899 608.836L127.518 537.77" stroke="black" stroke-width="4.59" stroke-linejoin="round"/>
<path d="M141.654 598.923C142.575 598.385 143.633 598.007 144.697 598.117C146.566 598.317 147.981 600.073 148.331 601.926C148.682 603.78 148.173 605.681 147.5 607.438C149.183 606.012 152.055 606.363 153.346 608.161C154.637 609.952 154.06 612.804 152.171 613.948C152.961 613.527 153.854 614.292 154.37 615.022C155.723 616.951 156.637 619.28 156.506 621.636C156.375 623.992 155.077 626.348 152.954 627.367C150.131 628.718 146.731 627.464 144.189 625.645C140.988 623.358 138.425 620.127 137.12 616.407C135.011 610.386 135.43 602.519 141.654 598.923Z" fill="white"/>
<path d="M141.875 600.709C143.599 599.751 145.591 599.6 146.91 601.288C148.078 602.776 147.535 604.512 146.924 606.131C146.663 606.833 146.601 607.646 146.793 608.376C146.876 608.679 147.24 609.603 147.714 609.231C149.081 608.142 151.197 608.115 152.536 609.313C152.832 609.582 153.024 609.885 153.189 610.243C153.278 610.436 153.251 610.422 153.203 610.595C153.031 611.235 152.529 611.793 151.959 612.172C151.114 612.723 151.135 616.237 152.392 615.747C153.869 615.169 155.195 618.717 155.469 619.681C155.889 621.155 155.689 622.581 154.796 623.842C152.426 627.183 148.078 626.232 145.097 624.338C142.115 622.444 139.628 619.619 138.2 616.388C137.623 615.086 137.203 613.681 136.984 612.275C136.764 610.87 136.716 609.637 136.867 608.356C137.252 605.139 139.058 602.383 141.861 600.723C142.843 600.144 142.438 596.555 141.428 597.147C134.236 601.412 133.989 611.504 136.826 618.503C138.488 622.609 141.696 626.405 145.632 628.478C147.528 629.477 149.802 630.145 151.932 629.601C154.061 629.057 155.662 627.431 156.507 625.42C157.592 622.85 157.558 619.867 156.692 617.242C156.122 615.493 154.439 611.187 151.952 612.165L152.385 615.741C154.995 614.032 155.518 609.871 154.151 607.226C152.866 604.746 149.507 603.885 147.281 605.655L148.071 608.748C149.218 605.69 149.94 602.018 148.305 598.994C147.707 597.898 146.814 596.913 145.612 596.486C144.169 595.976 142.72 596.417 141.435 597.134C140.446 597.685 140.824 601.288 141.868 600.709H141.875Z" fill="black"/>
<path d="M336.961 652.218L281.394 656.516C280.707 656.571 280.15 657.143 280.047 657.887L279.855 659.348C279.752 660.133 280.185 660.884 280.872 661.118L323.861 675.716C324.06 675.785 324.273 675.805 324.479 675.771L379.14 667.959C380.727 667.732 380.878 665.272 379.339 664.804L337.449 652.252C337.291 652.204 337.126 652.19 336.961 652.197V652.218Z" fill="#FF5758" stroke="black" stroke-width="2.16" stroke-linecap="round" stroke-linejoin="round"/>
<path d="M337.621 648.105L281.353 656.144C280.604 656.247 280.522 657.405 281.243 657.639L324.569 671.665C324.665 671.692 324.761 671.706 324.857 671.692L383.488 663.315C384.244 663.205 384.32 662.034 383.585 661.814L337.896 648.125C337.806 648.098 337.717 648.091 337.621 648.105Z" fill="#FF5758" stroke="black" stroke-width="2.16" stroke-linecap="round" stroke-linejoin="round"/>
<path d="M336.02 652.004L296.115 657.701L327.296 667.8L368.904 661.855L336.02 652.004Z" fill="#AFADAD" stroke="black" stroke-miterlimit="10"/>
<path d="M397.324 605.022L337.95 611.36C336.707 611.49 335.697 612.248 335.416 613.261L319.224 672.354C318.764 674.021 320.468 675.558 322.528 675.337L384.478 668.724C385.755 668.586 386.786 667.787 387.033 666.747L400.648 607.929C401.026 606.282 399.343 604.815 397.324 605.029V605.022Z" fill="#FF5758" stroke="black" stroke-width="2.16" stroke-linecap="round" stroke-linejoin="round"/>
<path d="M400.642 605.303L341.269 611.641C340.025 611.772 339.016 612.529 338.734 613.542L322.543 672.636C322.082 674.303 323.786 675.839 325.847 675.618L387.796 669.005C389.081 668.867 390.104 668.068 390.351 667.028L403.967 608.21C404.345 606.564 402.662 605.096 400.642 605.31V605.303Z" fill="#FF5758" stroke="black" stroke-width="2.16" stroke-linecap="round" stroke-linejoin="round"/>
<path d="M358.766 668.04C358.787 667.441 358.697 666.814 358.368 666.318C357.777 665.443 356.534 665.195 355.531 665.505C354.521 665.815 353.71 666.573 353.023 667.365C353.284 666.152 352.357 664.816 351.127 664.644C349.898 664.472 348.64 665.512 348.572 666.745C348.572 666.242 347.96 665.994 347.459 665.932C346.147 665.767 344.759 665.925 343.626 666.607C341.606 667.826 341.64 670.141 340.638 672.029C340.356 672.559 340.012 673.076 339.545 673.455C338.954 673.937 338.213 674.171 337.478 674.371C336.688 674.585 335.884 674.764 335.08 674.901C335.252 674.874 336.317 675.783 336.557 675.907C339.099 677.244 342.506 677.195 345.295 676.899C348.448 676.569 351.601 675.604 354.335 673.978C356.575 672.649 358.677 670.83 358.773 668.026L358.766 668.04Z" fill="white"/>
<path d="M359.143 668.04C359.157 666.511 358.655 664.933 356.993 664.582C355.331 664.231 353.874 665.443 352.823 666.628L353.38 667.599C353.613 666.104 352.974 664.224 351.346 663.831C349.718 663.438 348.379 664.995 348.2 666.525H348.928C348.633 664.871 346.854 664.878 345.466 665.099C343.934 665.347 342.649 666.166 341.901 667.537C341.2 668.819 341.008 670.32 340.273 671.588C339.208 673.42 336.982 673.71 335.072 674.054C334.537 674.151 334.53 675.687 335.072 675.776C335.354 675.825 335.684 676.19 335.904 676.362C336.24 676.617 336.549 676.824 336.934 676.989C338.068 677.492 339.311 677.747 340.541 677.871C343.268 678.132 346.132 677.836 348.777 677.147C353.091 676.024 358.827 673.414 359.136 668.274C359.15 668.033 359.191 667.317 358.875 667.214C358.559 667.11 358.422 667.572 358.408 667.813C358.271 670.141 356.505 671.74 354.65 672.911C352.404 674.323 349.876 675.267 347.273 675.763C344.903 676.217 342.382 676.403 339.984 676.08C338.837 675.928 337.587 675.666 336.591 675.053C336.117 674.757 335.656 674.151 335.086 674.054V675.776C336.563 675.508 338.445 675.274 339.654 674.295C340.678 673.469 341.193 672.16 341.598 670.94C342.031 669.645 342.416 668.295 343.625 667.51C344.346 667.041 345.191 666.807 346.05 666.752C346.476 666.724 346.909 666.731 347.328 666.78C347.513 666.8 347.678 666.828 347.85 666.89C347.925 666.917 348.248 667.145 348.214 666.972C348.344 667.696 348.846 667.758 348.942 666.972C349.045 666.084 350.069 665.457 350.907 665.484C351.697 665.505 352.809 666.228 352.665 667.131C352.624 667.379 352.775 668.605 353.222 668.102C353.977 667.248 354.912 666.373 356.1 666.249C357.288 666.125 358.415 666.724 358.408 668.033C358.408 668.254 358.456 668.894 358.786 668.894C359.116 668.894 359.164 668.233 359.164 668.033L359.143 668.04Z" fill="black"/>
</g>
<rect x="-61" y="853.941" width="864" height="248" transform="rotate(-45 -61 853.941)" fill="url(#paint0_linear_1056_96781)" fill-opacity="0.2"/>
</g>
</g>
<rect x="-150" y="675.941" width="864" height="248" transform="rotate(-45 -150 675.941)" fill="url(#paint1_linear_1056_96781)" fill-opacity="0.3"/>
</g>
</g>
<defs>
<filter id="filter0_dii_1056_96781" x="0" y="-4" width="508" height="874" filterUnits="userSpaceOnUse" color-interpolation-filters="sRGB">
<feFlood flood-opacity="0" result="BackgroundImageFix"/>
<feColorMatrix in="SourceAlpha" type="matrix" values="0 0 0 0 0 0 0 0 0 0 0 0 0 0 0 0 0 0 127 0" result="hardAlpha"/>
<feOffset dx="10" dy="20"/>
<feGaussianBlur stdDeviation="10"/>
<feComposite in2="hardAlpha" operator="out"/>
<feColorMatrix type="matrix" values="0 0 0 0 0 0 0 0 0 0 0 0 0 0 0 0 0 0 0.15 0"/>
<feBlend mode="normal" in2="BackgroundImageFix" result="effect1_dropShadow_1056_96781"/>
<feBlend mode="normal" in="SourceGraphic" in2="effect1_dropShadow_1056_96781" result="shape"/>
<feColorMatrix in="SourceAlpha" type="matrix" values="0 0 0 0 0 0 0 0 0 0 0 0 0 0 0 0 0 0 127 0" result="hardAlpha"/>
<feOffset dx="-6" dy="-4"/>
<feGaussianBlur stdDeviation="4"/>
<feComposite in2="hardAlpha" operator="arithmetic" k2="-1" k3="1"/>
<feColorMatrix type="matrix" values="0 0 0 0 0 0 0 0 0 0 0 0 0 0 0 0 0 0 0.25 0"/>
<feBlend mode="normal" in2="shape" result="effect2_innerShadow_1056_96781"/>
<feColorMatrix in="SourceAlpha" type="matrix" values="0 0 0 0 0 0 0 0 0 0 0 0 0 0 0 0 0 0 127 0" result="hardAlpha"/>
<feOffset dx="8" dy="8"/>
<feGaussianBlur stdDeviation="3"/>
<feComposite in2="hardAlpha" operator="arithmetic" k2="-1" k3="1"/>
<feColorMatrix type="matrix" values="0 0 0 0 1 0 0 0 0 1 0 0 0 0 1 0 0 0 1 0"/>
<feBlend mode="normal" in2="effect2_innerShadow_1056_96781" result="effect3_innerShadow_1056_96781"/>
</filter>
<filter id="filter1_i_1056_96781" x="40" y="30" width="410" height="772" filterUnits="userSpaceOnUse" color-interpolation-filters="sRGB">
<feFlood flood-opacity="0" result="BackgroundImageFix"/>
<feBlend mode="normal" in="SourceGraphic" in2="BackgroundImageFix" result="shape"/>
<feColorMatrix in="SourceAlpha" type="matrix" values="0 0 0 0 0 0 0 0 0 0 0 0 0 0 0 0 0 0 127 0" result="hardAlpha"/>
<feOffset dx="2" dy="2"/>
<feGaussianBlur stdDeviation="6"/>
<feComposite in2="hardAlpha" operator="arithmetic" k2="-1" k3="1"/>
<feColorMatrix type="matrix" values="0 0 0 0 0 0 0 0 0 0 0 0 0 0 0 0 0 0 0.25 0"/>
<feBlend mode="normal" in2="shape" result="effect1_innerShadow_1056_96781"/>
</filter>
<linearGradient id="paint0_linear_1056_96781" x1="371" y1="853.941" x2="371" y2="1101.94" gradientUnits="userSpaceOnUse">
<stop stop-color="white" stop-opacity="0"/>
<stop offset="0.0713057" stop-color="white"/>
<stop offset="1" stop-color="white" stop-opacity="0"/>
</linearGradient>
<linearGradient id="paint1_linear_1056_96781" x1="282" y1="675.941" x2="282" y2="923.941" gradientUnits="userSpaceOnUse">
<stop stop-color="white" stop-opacity="0"/>
<stop offset="0.0713057" stop-color="white"/>
<stop offset="1" stop-color="white" stop-opacity="0"/>
</linearGradient>
<clipPath id="clip0_1056_96781">
<rect x="10" width="468" height="830" rx="40" fill="white"/>
</clipPath>
<clipPath id="clip1_1056_96781">
<rect x="40" y="30" width="408" height="770" rx="24" fill="white"/>
</clipPath>
<clipPath id="clip2_1056_96781">
<path d="M40 50C40 38.9543 48.9543 30 60 30H428C439.046 30 448 38.9543 448 50V415H40V50Z" fill="white"/>
</clipPath>
<clipPath id="clip3_1056_96781">
<rect width="303" height="325" fill="white" transform="translate(126 437)"/>
</clipPath>
</defs>
</svg>
