<svg width="517" height="199" viewBox="0 0 517 199" fill="none" xmlns="http://www.w3.org/2000/svg">
<g filter="url(#filter0_bd_1056_97057)">
<path fill-rule="evenodd" clip-rule="evenodd" d="M496 186C502.627 186 508 180.627 508 174L508 17C508 10.3726 502.627 5 496 5L53 4.99996C52.9381 4.99996 52.8763 5.00043 52.8146 5.00136L11.2012 5.00136L41 35.0298L41 174C41 180.627 46.3726 186 53 186L496 186Z" fill="white" fill-opacity="0.5" shape-rendering="crispEdges"/>
<path d="M52.8146 5.00136L52.8146 6.00136L52.8221 6.00136L52.8296 6.00125L52.8146 5.00136ZM11.2012 5.00136L11.2012 4.00136L8.80005 4.00136L10.4914 5.70575L11.2012 5.00136ZM41 35.0298L42 35.0298L42 34.6178L41.7098 34.3254L41 35.0298ZM509 174L509 172.037L507 172.037L507 174L509 174ZM509 168.112L509 164.187L507 164.187L507 168.112L509 168.112ZM509 160.262L509 156.337L507 156.337L507 160.262L509 160.262ZM509 152.412L509 148.487L507 148.487L507 152.412L509 152.412ZM509 144.562L509 140.637L507 140.637L507 144.562L509 144.562ZM509 136.712L509 132.787L507 132.787L507 136.712L509 136.712ZM509 128.862L509 124.938L507 124.938L507 128.862L509 128.862ZM509 121.013L509 117.088L507 117.088L507 121.013L509 121.013ZM509 113.163L509 109.237L507 109.237L507 113.163L509 113.163ZM509 105.312L509 101.387L507 101.387L507 105.312L509 105.312ZM509 97.4625L509 93.5375L507 93.5375L507 97.4625L509 97.4625ZM509 89.6125L509 85.6875L507 85.6875L507 89.6125L509 89.6125ZM509 81.7625L509 77.8375L507 77.8375L507 81.7625L509 81.7625ZM509 73.9125L509 69.9875L507 69.9875L507 73.9125L509 73.9125ZM509 66.0625L509 62.1375L507 62.1375L507 66.0625L509 66.0625ZM509 58.2125L509 54.2875L507 54.2875L507 58.2125L509 58.2125ZM509 50.3625L509 46.4375L507 46.4375L507 50.3625L509 50.3625ZM509 42.5124L509 38.5875L507 38.5875L507 42.5124L509 42.5124ZM509 34.6624L509 30.7374L507 30.7374L507 34.6624L509 34.6624ZM509 26.8124L509 22.8874L507 22.8874L507 26.8124L509 26.8124ZM509 18.9624L509 17L507 17L507 18.9624L509 18.9624ZM509 17C509 16.1331 508.915 15.285 508.753 14.464L506.791 14.8521C506.928 15.546 507 16.2641 507 17L509 17ZM506.81 9.77629C505.861 8.35906 504.641 7.13906 503.224 6.19025L502.111 7.85218C503.311 8.65556 504.344 9.68894 505.148 10.8889L506.81 9.77629ZM498.536 4.24742C497.715 4.085 496.867 4 496 4L496 6C496.736 6 497.454 6.07213 498.148 6.2094L498.536 4.24742ZM496 4L493.986 4L493.986 6L496 6L496 4ZM489.959 4L485.932 4L485.932 6L489.959 6L489.959 4ZM481.905 4L477.877 4L477.877 6L481.905 6L481.905 4ZM473.85 4L469.823 4L469.823 6L473.85 6L473.85 4ZM465.795 4L461.768 4L461.768 6L465.795 6L465.795 4ZM457.741 4L453.714 4L453.714 6L457.741 6L457.741 4ZM449.686 3.99999L445.659 3.99999L445.659 5.99999L449.686 5.99999L449.686 3.99999ZM441.632 3.99999L437.605 3.99999L437.605 5.99999L441.632 5.99999L441.632 3.99999ZM433.577 3.99999L429.55 3.99999L429.55 5.99999L433.577 5.99999L433.577 3.99999ZM425.523 3.99999L421.495 3.99999L421.495 5.99999L425.523 5.99999L425.523 3.99999ZM417.468 3.99999L413.441 3.99999L413.441 5.99999L417.468 5.99999L417.468 3.99999ZM409.414 3.99999L405.386 3.99999L405.386 5.99999L409.414 5.99999L409.414 3.99999ZM401.359 3.99999L397.332 3.99999L397.332 5.99999L401.359 5.99999L401.359 3.99999ZM393.305 3.99999L389.277 3.99999L389.277 5.99999L393.305 5.99999L393.305 3.99999ZM385.25 3.99999L381.223 3.99999L381.223 5.99999L385.25 5.99999L385.25 3.99999ZM377.195 3.99999L373.168 3.99999L373.168 5.99999L377.195 5.99999L377.195 3.99999ZM369.141 3.99999L365.114 3.99999L365.114 5.99999L369.141 5.99999L369.141 3.99999ZM361.086 3.99999L357.059 3.99999L357.059 5.99999L361.086 5.99999L361.086 3.99999ZM353.032 3.99999L349.005 3.99999L349.005 5.99999L353.032 5.99999L353.032 3.99999ZM344.977 3.99999L340.95 3.99999L340.95 5.99999L344.977 5.99999L344.977 3.99999ZM336.923 3.99999L332.895 3.99998L332.895 5.99998L336.923 5.99999L336.923 3.99999ZM328.868 3.99998L324.841 3.99998L324.841 5.99998L328.868 5.99998L328.868 3.99998ZM320.814 3.99998L316.786 3.99998L316.786 5.99998L320.814 5.99998L320.814 3.99998ZM312.759 3.99998L308.732 3.99998L308.732 5.99998L312.759 5.99998L312.759 3.99998ZM304.705 3.99998L300.677 3.99998L300.677 5.99998L304.705 5.99998L304.705 3.99998ZM296.65 3.99998L292.623 3.99998L292.623 5.99998L296.65 5.99998L296.65 3.99998ZM288.596 3.99998L284.568 3.99998L284.568 5.99998L288.596 5.99998L288.596 3.99998ZM280.541 3.99998L276.514 3.99998L276.514 5.99998L280.541 5.99998L280.541 3.99998ZM272.486 3.99998L268.459 3.99998L268.459 5.99998L272.486 5.99998L272.486 3.99998ZM264.432 3.99998L260.405 3.99998L260.405 5.99998L264.432 5.99998L264.432 3.99998ZM256.377 3.99998L252.35 3.99998L252.35 5.99998L256.377 5.99998L256.377 3.99998ZM248.323 3.99998L244.296 3.99998L244.296 5.99998L248.323 5.99998L248.323 3.99998ZM240.268 3.99998L236.241 3.99998L236.241 5.99998L240.268 5.99998L240.268 3.99998ZM232.214 3.99998L228.187 3.99998L228.187 5.99998L232.214 5.99998L232.214 3.99998ZM224.159 3.99998L220.132 3.99997L220.132 5.99997L224.159 5.99998L224.159 3.99998ZM216.105 3.99997L212.077 3.99997L212.077 5.99997L216.105 5.99997L216.105 3.99997ZM208.05 3.99997L204.023 3.99997L204.023 5.99997L208.05 5.99997L208.05 3.99997ZM199.996 3.99997L195.968 3.99997L195.968 5.99997L199.996 5.99997L199.996 3.99997ZM191.941 3.99997L187.914 3.99997L187.914 5.99997L191.941 5.99997L191.941 3.99997ZM183.886 3.99997L179.859 3.99997L179.859 5.99997L183.886 5.99997L183.886 3.99997ZM175.832 3.99997L171.805 3.99997L171.805 5.99997L175.832 5.99997L175.832 3.99997ZM167.777 3.99997L163.75 3.99997L163.75 5.99997L167.777 5.99997L167.777 3.99997ZM159.723 3.99997L155.695 3.99997L155.695 5.99997L159.723 5.99997L159.723 3.99997ZM151.668 3.99997L147.641 3.99997L147.641 5.99997L151.668 5.99997L151.668 3.99997ZM143.614 3.99997L139.586 3.99997L139.586 5.99997L143.614 5.99997L143.614 3.99997ZM135.559 3.99997L131.532 3.99997L131.532 5.99997L135.559 5.99997L135.559 3.99997ZM127.504 3.99997L123.477 3.99997L123.477 5.99997L127.504 5.99997L127.504 3.99997ZM119.45 3.99997L115.423 3.99997L115.423 5.99997L119.45 5.99997L119.45 3.99997ZM111.395 3.99997L107.368 3.99996L107.368 5.99996L111.395 5.99997L111.395 3.99997ZM103.341 3.99996L99.3135 3.99996L99.3135 5.99996L103.341 5.99996L103.341 3.99996ZM95.2862 3.99996L91.2589 3.99996L91.2589 5.99996L95.2862 5.99996L95.2862 3.99996ZM87.2316 3.99996L83.2043 3.99996L83.2043 5.99996L87.2316 5.99996L87.2316 3.99996ZM79.1771 3.99996L75.1498 3.99996L75.1498 5.99996L79.1771 5.99996L79.1771 3.99996ZM71.1225 3.99996L67.0952 3.99996L67.0952 5.99996L71.1225 5.99996L71.1225 3.99996ZM63.0679 3.99996L59.0406 3.99996L59.0406 5.99996L63.0679 5.99996L63.0679 3.99996ZM55.0134 3.99996L53 3.99996L53 5.99996L55.0134 5.99996L55.0134 3.99996ZM53 3.99996C52.9833 3.99996 52.9666 3.99999 52.9498 4.00006L52.9575 6.00004C52.9716 5.99999 52.9858 5.99996 53 5.99996L53 3.99996ZM52.8496 4.00082C52.8329 4.00101 52.8162 4.00123 52.7995 4.00148L52.8296 6.00125C52.8438 6.00104 52.8581 6.00085 52.8723 6.00069L52.8496 4.00082ZM52.8146 4.00136L50.7339 4.00136L50.7339 6.00136L52.8146 6.00136L52.8146 4.00136ZM46.5726 4.00136L42.4112 4.00136L42.4112 6.00136L46.5726 6.00136L46.5726 4.00136ZM38.2499 4.00136L34.0886 4.00136L34.0886 6.00136L38.2499 6.00136L38.2499 4.00136ZM29.9272 4.00136L25.7659 4.00136L25.7659 6.00136L29.9272 6.00136L29.9272 4.00136ZM21.6046 4.00136L17.4432 4.00136L17.4432 6.00136L21.6046 6.00136L21.6046 4.00136ZM13.2819 4.00136L11.2012 4.00136L11.2012 6.00136L13.2819 6.00136L13.2819 4.00136ZM10.4914 5.70575L11.9813 7.20717L13.401 5.79839L11.911 4.29697L10.4914 5.70575ZM14.9612 10.21L17.9411 13.2129L19.3607 11.8041L16.3809 8.80124L14.9612 10.21ZM20.921 16.2157L23.9009 19.2185L25.3205 17.8098L22.3406 14.8069L20.921 16.2157ZM26.8807 22.2214L29.8606 25.2242L31.2802 23.8154L28.3004 20.8126L26.8807 22.2214ZM32.8405 28.2271L35.8204 31.2299L37.24 29.8211L34.2601 26.8183L32.8405 28.2271ZM38.8003 34.2327L40.2902 35.7342L41.7098 34.3254L40.2199 32.824L38.8003 34.2327ZM40 35.0298L40 37.0735L42 37.0735L42 35.0298L40 35.0298ZM40 41.1608L40 45.2482L42 45.2482L42 41.1608L40 41.1608ZM40 49.3355L40 53.4229L42 53.4229L42 49.3355L40 49.3355ZM40 57.5102L40 61.5976L42 61.5976L42 57.5102L40 57.5102ZM40 65.685L40 69.7723L42 69.7723L42 65.685L40 65.685ZM40 73.8597L40 77.947L42 77.947L42 73.8597L40 73.8597ZM40 82.0344L40 86.1217L42 86.1217L42 82.0344L40 82.0344ZM40 90.2091L40 94.2965L42 94.2965L42 90.2091L40 90.2091ZM40 98.3838L40 102.471L42 102.471L42 98.3838L40 98.3838ZM40 106.559L40 110.646L42 110.646L42 106.559L40 106.559ZM40 114.733L40 118.821L42 118.821L42 114.733L40 114.733ZM40 122.908L40 126.995L42 126.995L42 122.908L40 122.908ZM40 131.083L40 135.17L42 135.17L42 131.083L40 131.083ZM40 139.257L40 143.345L42 143.345L42 139.257L40 139.257ZM40 147.432L40 151.519L42 151.519L42 147.432L40 147.432ZM40 155.607L40 159.694L42 159.694L42 155.607L40 155.607ZM40 163.782L40 167.869L42 167.869L42 163.782L40 163.782ZM40 171.956L40 174L42 174L42 171.956L40 171.956ZM40 174C40 174.867 40.085 175.715 40.2474 176.536L42.2094 176.148C42.0721 175.454 42 174.736 42 174L40 174ZM42.1902 181.224C43.1391 182.641 44.3591 183.861 45.7763 184.81L46.8889 183.148C45.6889 182.344 44.6556 181.311 43.8522 180.111L42.1902 181.224ZM50.464 186.753C51.285 186.915 52.1331 187 53 187L53 185C52.2641 185 51.546 184.928 50.8521 184.791L50.464 186.753ZM53 187L55.0136 187L55.0136 185L53 185L53 187ZM59.0409 187L63.0682 187L63.0682 185L59.0409 185L59.0409 187ZM67.0955 187L71.1227 187L71.1227 185L67.0955 185L67.0955 187ZM75.15 187L79.1773 187L79.1773 185L75.15 185L75.15 187ZM83.2045 187L87.2318 187L87.2318 185L83.2045 185L83.2045 187ZM91.2591 187L95.2864 187L95.2864 185L91.2591 185L91.2591 187ZM99.3136 187L103.341 187L103.341 185L99.3136 185L99.3136 187ZM107.368 187L111.395 187L111.395 185L107.368 185L107.368 187ZM115.423 187L119.45 187L119.45 185L115.423 185L115.423 187ZM123.477 187L127.505 187L127.505 185L123.477 185L123.477 187ZM131.532 187L135.559 187L135.559 185L131.532 185L131.532 187ZM139.586 187L143.614 187L143.614 185L139.586 185L139.586 187ZM147.641 187L151.668 187L151.668 185L147.641 185L147.641 187ZM155.695 187L159.723 187L159.723 185L155.695 185L155.695 187ZM163.75 187L167.777 187L167.777 185L163.75 185L163.75 187ZM171.805 187L175.832 187L175.832 185L171.805 185L171.805 187ZM179.859 187L183.886 187L183.886 185L179.859 185L179.859 187ZM187.914 187L191.941 187L191.941 185L187.914 185L187.914 187ZM195.968 187L199.995 187L199.995 185L195.968 185L195.968 187ZM204.023 187L208.05 187L208.05 185L204.023 185L204.023 187ZM212.077 187L216.105 187L216.105 185L212.077 185L212.077 187ZM220.132 187L224.159 187L224.159 185L220.132 185L220.132 187ZM228.186 187L232.214 187L232.214 185L228.186 185L228.186 187ZM236.241 187L240.268 187L240.268 185L236.241 185L236.241 187ZM244.295 187L248.323 187L248.323 185L244.295 185L244.295 187ZM252.35 187L256.377 187L256.377 185L252.35 185L252.35 187ZM260.404 187L264.432 187L264.432 185L260.404 185L260.404 187ZM268.459 187L272.486 187L272.486 185L268.459 185L268.459 187ZM276.514 187L280.541 187L280.541 185L276.514 185L276.514 187ZM284.568 187L288.595 187L288.595 185L284.568 185L284.568 187ZM292.623 187L296.65 187L296.65 185L292.623 185L292.623 187ZM300.677 187L304.704 187L304.704 185L300.677 185L300.677 187ZM308.732 187L312.759 187L312.759 185L308.732 185L308.732 187ZM316.786 187L320.814 187L320.814 185L316.786 185L316.786 187ZM324.841 187L328.868 187L328.868 185L324.841 185L324.841 187ZM332.895 187L336.923 187L336.923 185L332.895 185L332.895 187ZM340.95 187L344.977 187L344.977 185L340.95 185L340.95 187ZM349.004 187L353.032 187L353.032 185L349.004 185L349.004 187ZM357.059 187L361.086 187L361.086 185L357.059 185L357.059 187ZM365.114 187L369.141 187L369.141 185L365.114 185L365.114 187ZM373.168 187L377.195 187L377.195 185L373.168 185L373.168 187ZM381.223 187L385.25 187L385.25 185L381.223 185L381.223 187ZM389.277 187L393.305 187L393.305 185L389.277 185L389.277 187ZM397.332 187L401.359 187L401.359 185L397.332 185L397.332 187ZM405.386 187L409.414 187L409.414 185L405.386 185L405.386 187ZM413.441 187L417.468 187L417.468 185L413.441 185L413.441 187ZM421.496 187L425.523 187L425.523 185L421.496 185L421.496 187ZM429.55 187L433.577 187L433.577 185L429.55 185L429.55 187ZM437.605 187L441.632 187L441.632 185L437.605 185L437.605 187ZM445.659 187L449.687 187L449.687 185L445.659 185L445.659 187ZM453.714 187L457.741 187L457.741 185L453.714 185L453.714 187ZM461.768 187L465.796 187L465.796 185L461.768 185L461.768 187ZM469.823 187L473.85 187L473.85 185L469.823 185L469.823 187ZM477.878 187L481.905 187L481.905 185L477.878 185L477.878 187ZM485.932 187L489.959 187L489.959 185L485.932 185L485.932 187ZM493.987 187L496 187L496 185L493.987 185L493.987 187ZM496 187C496.867 187 497.715 186.915 498.536 186.753L498.148 184.791C497.454 184.928 496.736 185 496 185L496 187ZM503.224 184.81C504.641 183.861 505.861 182.641 506.81 181.224L505.148 180.111C504.344 181.311 503.311 182.344 502.111 183.148L503.224 184.81ZM508.753 176.536C508.915 175.715 509 174.867 509 174L507 174C507 174.736 506.928 175.454 506.791 176.148L508.753 176.536Z" fill="white"/>
</g>
<defs>
<filter id="filter0_bd_1056_97057" x="-6.2002" y="-11" width="530.2" height="213" filterUnits="userSpaceOnUse" color-interpolation-filters="sRGB">
<feFlood flood-opacity="0" result="BackgroundImageFix"/>
<feGaussianBlur in="BackgroundImage" stdDeviation="7.5"/>
<feComposite in2="SourceAlpha" operator="in" result="effect1_backgroundBlur_1056_97057"/>
<feColorMatrix in="SourceAlpha" type="matrix" values="0 0 0 0 0 0 0 0 0 0 0 0 0 0 0 0 0 0 127 0" result="hardAlpha"/>
<feOffset dy="4"/>
<feGaussianBlur stdDeviation="4"/>
<feComposite in2="hardAlpha" operator="out"/>
<feColorMatrix type="matrix" values="0 0 0 0 0 0 0 0 0 0 0 0 0 0 0 0 0 0 0.1 0"/>
<feBlend mode="normal" in2="effect1_backgroundBlur_1056_97057" result="effect2_dropShadow_1056_97057"/>
<feBlend mode="normal" in="SourceGraphic" in2="effect2_dropShadow_1056_97057" result="shape"/>
</filter>
</defs>
</svg>
