<svg width="330" height="164" viewBox="0 0 330 164" fill="none" xmlns="http://www.w3.org/2000/svg">
<g filter="url(#filter0_d_1056_97389)">
<path fill-rule="evenodd" clip-rule="evenodd" d="M17 1C10.3726 1 5 6.37258 5 13V128C5 134.627 10.3726 140 17 140H156.417L164.5 154L172.583 140H313C319.627 140 325 134.627 325 128V13C325 6.37258 319.627 1 313 1H17Z" fill="white" fill-opacity="0.6" shape-rendering="crispEdges"/>
<path d="M156.417 140L157.283 139.5L156.994 139H156.417V140ZM164.5 154L163.634 154.5L164.5 156L165.366 154.5L164.5 154ZM172.583 140V139H172.006L171.717 139.5L172.583 140ZM4 13V15.0536H6V13H4ZM4 19.1607V23.2679H6V19.1607H4ZM4 27.375V31.4821H6V27.375H4ZM4 35.5893V39.6964H6V35.5893H4ZM4 43.8036V47.9107H6V43.8036H4ZM4 52.0179V56.125H6V52.0179H4ZM4 60.2321V64.3393H6V60.2321H4ZM4 68.4464V72.5536H6V68.4464H4ZM4 76.6607V80.7679H6V76.6607H4ZM4 84.875V88.9821H6V84.875H4ZM4 93.0893V97.1964H6V93.0893H4ZM4 101.304V105.411H6V101.304H4ZM4 109.518V113.625H6V109.518H4ZM4 117.732V121.839H6V117.732H4ZM4 125.946V128H6V125.946H4ZM4 128C4 128.867 4.085 129.715 4.24742 130.536L6.2094 130.148C6.07213 129.454 6 128.736 6 128H4ZM6.19025 135.224C7.13907 136.641 8.35906 137.861 9.7763 138.81L10.8889 137.148C9.68894 136.344 8.65557 135.311 7.85219 134.111L6.19025 135.224ZM14.464 140.753C15.285 140.915 16.1331 141 17 141V139C16.2641 139 15.546 138.928 14.8521 138.791L14.464 140.753ZM17 141H19.0503V139H17V141ZM23.1508 141H27.2513V139H23.1508V141ZM31.3518 141H35.4523V139H31.3518V141ZM39.5528 141H43.6533V139H39.5528V141ZM47.7538 141H51.8543V139H47.7538V141ZM55.9548 141H60.0553V139H55.9548V141ZM64.1558 141H68.2563V139H64.1558V141ZM72.3568 141H76.4573V139H72.3568V141ZM80.5578 141H84.6583V139H80.5578V141ZM88.7588 141H92.8593V139H88.7588V141ZM96.9598 141H101.06V139H96.9598V141ZM105.161 141H109.261V139H105.161V141ZM113.362 141H117.462V139H113.362V141ZM121.563 141H125.663V139H121.563V141ZM129.764 141H133.864V139H129.764V141ZM137.965 141H142.065V139H137.965V141ZM146.166 141H150.266V139H146.166V141ZM154.367 141H156.417V139H154.367V141ZM155.551 140.5L156.561 142.25L158.293 141.25L157.283 139.5L155.551 140.5ZM158.582 145.75L160.603 149.25L162.335 148.25L160.314 144.75L158.582 145.75ZM162.624 152.75L163.634 154.5L165.366 153.5L164.356 151.75L162.624 152.75ZM165.366 154.5L166.376 152.75L164.644 151.75L163.634 153.5L165.366 154.5ZM168.397 149.25L170.418 145.75L168.686 144.75L166.665 148.25L168.397 149.25ZM172.439 142.25L173.449 140.5L171.717 139.5L170.707 141.25L172.439 142.25ZM172.583 141H174.533V139H172.583V141ZM178.434 141H182.334V139H178.434V141ZM186.235 141H190.135V139H186.235V141ZM194.036 141H197.936V139H194.036V141ZM201.836 141H205.737V139H201.836V141ZM209.637 141H213.538V139H209.637V141ZM217.438 141H221.339V139H217.438V141ZM225.239 141H229.14V139H225.239V141ZM233.04 141H236.941V139H233.04V141ZM240.841 141H244.742V139H240.841V141ZM248.642 141H252.543V139H248.642V141ZM256.443 141H260.344V139H256.443V141ZM264.244 141H268.145V139H264.244V141ZM272.045 141H275.945V139H272.045V141ZM279.846 141H283.746V139H279.846V141ZM287.647 141H291.547V139H287.647V141ZM295.448 141H299.348V139H295.448V141ZM303.249 141H307.149V139H303.249V141ZM311.05 141H313V139H311.05V141ZM313 141C313.867 141 314.715 140.915 315.536 140.753L315.148 138.791C314.454 138.928 313.736 139 313 139V141ZM320.224 138.81C321.641 137.861 322.861 136.641 323.81 135.224L322.148 134.111C321.344 135.311 320.311 136.344 319.111 137.148L320.224 138.81ZM325.753 130.536C325.915 129.715 326 128.867 326 128H324C324 128.736 323.928 129.454 323.791 130.148L325.753 130.536ZM326 128V125.946H324V128H326ZM326 121.839V117.732H324V121.839H326ZM326 113.625V109.518H324V113.625H326ZM326 105.411V101.304H324V105.411H326ZM326 97.1964V93.0893H324V97.1964H326ZM326 88.9821V84.875H324V88.9821H326ZM326 80.7678V76.6607H324V80.7678H326ZM326 72.5536V68.4464H324V72.5536H326ZM326 64.3393V60.2321H324V64.3393H326ZM326 56.125V52.0178H324V56.125H326ZM326 47.9107V43.8036H324V47.9107H326ZM326 39.6964V35.5893H324V39.6964H326ZM326 31.4821V27.375H324V31.4821H326ZM326 23.2679V19.1607H324V23.2679H326ZM326 15.0536V13H324V15.0536H326ZM326 13C326 12.1331 325.915 11.285 325.753 10.464L323.791 10.8521C323.928 11.546 324 12.2641 324 13H326ZM323.81 5.77629C322.861 4.35906 321.641 3.13907 320.224 2.19025L319.111 3.85219C320.311 4.65556 321.344 5.68894 322.148 6.88893L323.81 5.77629ZM315.536 0.247421C314.715 0.0849994 313.867 0 313 0V2C313.736 2 314.454 2.07213 315.148 2.2094L315.536 0.247421ZM313 0H311V2H313V0ZM307 0H303V2H307V0ZM299 0H295V2H299V0ZM291 0H287V2H291V0ZM283 0H279V2H283V0ZM275 0H271V2H275V0ZM267 0H263V2H267V0ZM259 0H255V2H259V0ZM251 0H247V2H251V0ZM243 0H239V2H243V0ZM235 0H231V2H235V0ZM227 0H223V2H227V0ZM219 0H215V2H219V0ZM211 0H207V2H211V0ZM203 0H199V2H203V0ZM195 0H191V2H195V0ZM187 0H183V2H187V0ZM179 0H175V2H179V0ZM171 0H167V2H171V0ZM163 0H159V2H163V0ZM155 0H151V2H155V0ZM147 0H143V2H147V0ZM139 0H135V2H139V0ZM131 0H127V2H131V0ZM123 0H119V2H123V0ZM115 0H111V2H115V0ZM107 0H103V2H107V0ZM99 0H95V2H99V0ZM91 0H87V2H91V0ZM83 0H79V2H83V0ZM75 0H71V2H75V0ZM67 0H63V2H67V0ZM59 0H55V2H59V0ZM51 0H47V2H51V0ZM43 0H39V2H43V0ZM35 0H31V2H35V0ZM27 0H23V2H27V0ZM19 0H17V2H19V0ZM17 0C16.1331 0 15.285 0.0849992 14.464 0.247421L14.8521 2.2094C15.546 2.07213 16.2641 2 17 2V0ZM9.77629 2.19025C8.35906 3.13906 7.13906 4.35906 6.19025 5.77629L7.85218 6.88893C8.65556 5.68894 9.68893 4.65556 10.8889 3.85218L9.77629 2.19025ZM4.24742 10.464C4.085 11.285 4 12.1331 4 13H6C6 12.2641 6.07213 11.546 6.2094 10.8521L4.24742 10.464Z" fill="white"/>
</g>
<defs>
<filter id="filter0_d_1056_97389" x="0" y="0" width="330" height="164" filterUnits="userSpaceOnUse" color-interpolation-filters="sRGB">
<feFlood flood-opacity="0" result="BackgroundImageFix"/>
<feColorMatrix in="SourceAlpha" type="matrix" values="0 0 0 0 0 0 0 0 0 0 0 0 0 0 0 0 0 0 127 0" result="hardAlpha"/>
<feOffset dy="4"/>
<feGaussianBlur stdDeviation="2"/>
<feComposite in2="hardAlpha" operator="out"/>
<feColorMatrix type="matrix" values="0 0 0 0 0 0 0 0 0 0 0 0 0 0 0 0 0 0 0.1 0"/>
<feBlend mode="normal" in2="BackgroundImageFix" result="effect1_dropShadow_1056_97389"/>
<feBlend mode="normal" in="SourceGraphic" in2="effect1_dropShadow_1056_97389" result="shape"/>
</filter>
</defs>
</svg>
