<svg width="52" height="64" viewBox="0 0 52 64" fill="none" xmlns="http://www.w3.org/2000/svg">
<path d="M50.423 24C50.423 17.3561 46.3989 11.6276 40.5948 9M1.49219 24C1.49219 17.3561 5.51634 11.6276 11.3204 9" stroke="#00AAD2" stroke-width="3"/>
<path d="M41.4406 24C41.4406 19.5707 38.5649 15.7517 34.4171 14M10.4844 24C10.4844 19.5707 13.3601 15.7517 17.5079 14" stroke="#00AAD2" stroke-width="3"/>
<path d="M23.1094 23.7742V4.89913C23.1094 3.29799 24.4074 2 26.0085 2V2C27.6096 2 28.9076 3.29798 28.9076 4.89913V23.7742" stroke="#00AAD2" stroke-width="3"/>
<path d="M28.9042 30.9632L46.0891 40.8989C47.4767 41.7012 49.2506 41.2259 50.0511 39.8373V39.8373C50.8517 38.4487 50.3758 36.6727 48.9882 35.8704L29.9643 24.8714L29.6993 24.7182L29.5668 24.6416" stroke="#00AAD2" stroke-width="3"/>
<path d="M23.0958 30.9632L5.91093 40.8989C4.52332 41.7012 2.74945 41.2259 1.94887 39.8373V39.8373C1.1483 38.4487 1.62419 36.6727 3.0118 35.8704L22.0357 24.8714L22.3007 24.7182L22.4332 24.6416" stroke="#00AAD2" stroke-width="3"/>
<path d="M30.3075 27.1658C30.3075 29.5462 28.3811 31.4723 26.0092 31.4723C23.6373 31.4723 21.7109 29.5462 21.7109 27.1658C21.7109 24.7854 23.6373 22.8594 26.0092 22.8594C28.3811 22.8594 30.3075 24.7854 30.3075 27.1658Z" stroke="#00AAD2" stroke-width="3"/>
<path d="M23.5895 30.5469L18.2422 61.9985H33.7686L28.9045 30.5469" stroke="#00AAD2" stroke-width="3"/>
</svg>
