<svg width="63" height="67" viewBox="0 0 63 67" fill="none" xmlns="http://www.w3.org/2000/svg">
<path d="M40.2383 35.4334L40.2384 35.4335C42.5884 39.4631 41.9397 44.5856 38.6659 47.8882C36.6844 49.8871 34.0947 50.8846 31.5012 50.8863C28.9076 50.8846 26.3179 49.8871 24.3364 47.8882C21.0626 44.5856 20.414 39.4631 22.7639 35.4335L22.764 35.4334L31.5012 20.4484L40.2383 35.4334Z" stroke="#00AAD2" stroke-width="3" stroke-miterlimit="10"/>
<circle cx="31.5006" cy="5.82089" r="4.32089" stroke="#00AAD2" stroke-width="3"/>
<circle cx="54.7896" cy="50.4459" r="4.32089" stroke="#00AAD2" stroke-width="3"/>
<circle cx="8.21933" cy="50.4459" r="4.32089" stroke="#00AAD2" stroke-width="3"/>
<path d="M20.8313 7.80469C10.0368 12.1373 2.39844 22.8484 2.39844 35.3755C2.39844 37.5526 2.62913 39.6748 3.067 41.7182M42.1746 7.80469C52.969 12.1373 60.6074 22.8484 60.6074 35.3755C60.6074 37.5526 60.3767 39.6748 59.9388 41.7182M14.0402 59.0782C18.9045 62.7974 24.9509 65.0012 31.5029 65.0012C38.0549 65.0012 44.1013 62.7974 48.9656 59.0782" stroke="#00AAD2" stroke-width="3"/>
</svg>
