<svg width="67" height="66" viewBox="0 0 67 66" fill="none" xmlns="http://www.w3.org/2000/svg">
<path fill-rule="evenodd" clip-rule="evenodd" d="M18.3359 52.6436V33.8686C19.3628 33.8155 20.3654 33.6709 21.3359 33.443V52.6385L18.3359 52.6436ZM18.3359 57.9741V62L22.5 65.9977H62.5L66.4977 62V22L62.5 17.8359H34.3686C34.3155 18.8628 34.1709 19.8654 33.943 20.8359H61.2214L63.4977 23.207V60.7574L61.2574 62.9977H23.707L21.3359 60.7214V57.9725L18.3359 57.9741Z" fill="#00AAD2"/>
<path d="M56.2082 47.4115L56.206 29.5195C56.2058 27.9915 54.9681 26.7539 53.4401 26.7539V26.7539C51.9098 26.7539 50.668 27.995 50.6671 29.5252L50.6561 48.7887" stroke="#00AAD2" stroke-width="3"/>
<path d="M50.6335 35.934L50.6671 55.2005C50.6697 56.7291 49.4323 57.9687 47.9037 57.9687V57.9687C46.3749 57.9687 45.1343 56.7288 45.1335 55.2L45.1231 35.934" stroke="#00AAD2" stroke-width="3"/>
<path d="M64.5 57.9687L58.9891 57.9687V57.9687C57.4604 57.9687 56.22 56.729 56.2191 55.2003L56.2088 35.934" stroke="#00AAD2" stroke-width="3"/>
<path d="M39.5554 35.934L39.5889 55.2005C39.5916 56.7291 38.3542 57.9687 36.8255 57.9687V57.9687C35.2967 57.9687 34.0562 56.7288 34.0553 55.2L34.045 35.934" stroke="#00AAD2" stroke-width="3"/>
<path d="M28.4694 35.934L28.503 55.2003C28.5057 56.729 27.2681 57.9687 25.7394 57.9687V57.9687" stroke="#00AAD2" stroke-width="3"/>
<path d="M39.6017 48.7887L39.5674 29.5221C39.5647 27.9935 40.8021 26.7539 42.3307 26.7539V26.7539C43.8595 26.7539 45.1001 27.9938 45.101 29.5226L45.112 48.7887" stroke="#00AAD2" stroke-width="3"/>
<path d="M28.5314 48.7887L28.4971 29.5221C28.4944 27.9935 29.7318 26.7539 31.2604 26.7539V26.7539C32.7892 26.7539 34.0298 27.9938 34.0307 29.5226L34.0418 48.7887" stroke="#00AAD2" stroke-width="3"/>
<circle cx="17.4459" cy="16.9459" r="15.5459" stroke="#00AAD2" stroke-width="2.8"/>
<path d="M9.5 10H11.242V14.9412H15.758V10H17.5V22H15.758V16.9353H11.242V22H9.5V10Z" fill="#00AAD2" stroke="#00AAD2" stroke-width="0.6"/>
<path d="M19.5 22.4978C19.6996 22.1698 19.9515 21.8676 20.2556 21.5914C20.5692 21.3065 20.8971 21.0432 21.2393 20.8014C21.5815 20.5511 21.9236 20.318 22.2658 20.1022C22.6174 19.8777 22.9311 19.6576 23.2067 19.4417C23.4823 19.2173 23.7057 18.9928 23.8768 18.7683C24.0574 18.5439 24.1477 18.3065 24.1477 18.0561C24.1477 17.9094 24.1239 17.7626 24.0764 17.6158C24.0289 17.4604 23.9481 17.3266 23.834 17.2144C23.7295 17.0935 23.5821 16.9986 23.3921 16.9295C23.2115 16.8518 22.9786 16.8129 22.6935 16.8129C22.2943 16.8129 21.9664 16.9079 21.7098 17.0978C21.4627 17.2791 21.2726 17.5295 21.1395 17.8489L19.5 16.9942C19.5855 16.7698 19.7138 16.541 19.8849 16.3079C20.056 16.0748 20.2746 15.8633 20.5407 15.6734C20.8069 15.4748 21.1253 15.3151 21.4959 15.1942C21.8666 15.0647 22.299 15 22.7933 15C23.3635 15 23.8673 15.0777 24.3045 15.2331C24.7417 15.3885 25.1076 15.6 25.4022 15.8676C25.7064 16.1266 25.9345 16.4374 26.0866 16.8C26.2386 17.154 26.3147 17.5295 26.3147 17.9266C26.3147 18.3496 26.2386 18.7295 26.0866 19.0662C25.9345 19.3942 25.7349 19.6921 25.4878 19.9597C25.2502 20.2187 24.9793 20.4561 24.6752 20.6719C24.3805 20.8791 24.0859 21.0734 23.7912 21.2547C23.5061 21.436 23.2352 21.6086 22.9786 21.7727C22.7315 21.9281 22.5319 22.0878 22.3798 22.2518H26.5V24H19.5V22.4978Z" fill="#00AAD2" stroke="#00AAD2" stroke-width="0.6"/>
<path d="M6.96699 52.7714L25.9225 52.7389C27.3674 52.7364 28.5391 53.906 28.5391 55.3509V55.3509C28.5391 56.7959 27.3671 57.9685 25.9221 57.9693L6.96699 57.9798" stroke="#00AAD2" stroke-width="3"/>
</svg>
