<svg width="11" height="9" viewBox="0 0 11 9" fill="none" xmlns="http://www.w3.org/2000/svg">
<path d="M5.31491e-05 2.14821C-0.00034548 2.29849 0.0255582 2.44697 0.0758617 2.58275C0.126165 2.71852 0.19959 2.83815 0.290741 2.93282L5.00458 7.79146C5.14516 7.93942 5.32149 8.0203 5.50346 8.02031C5.68544 8.02032 5.86177 7.93944 6.00235 7.7915L10.7162 2.76219C10.8766 2.59146 10.9775 2.34611 10.9967 2.08013C11.0158 1.81414 10.9517 1.54931 10.8183 1.34388C10.685 1.13846 10.4933 1.00927 10.2856 0.984739C10.0779 0.960209 9.87101 1.04234 9.71057 1.21308L5.49953 5.70928L1.2885 1.36366C1.17318 1.24065 1.03276 1.16251 0.88384 1.13849C0.734923 1.11446 0.583747 1.14556 0.448202 1.22809C0.312658 1.31063 0.198416 1.44115 0.118996 1.60421C0.0395753 1.76727 -0.00169971 1.95605 5.31491e-05 2.14821Z" fill="black"/>
<path d="M5.31491e-05 2.14821C-0.00034548 2.29849 0.0255582 2.44697 0.0758617 2.58275C0.126165 2.71852 0.19959 2.83815 0.290741 2.93282L5.00458 7.79146C5.14516 7.93942 5.32149 8.0203 5.50346 8.02031C5.68544 8.02032 5.86177 7.93944 6.00235 7.7915L10.7162 2.76219C10.8766 2.59146 10.9775 2.34611 10.9967 2.08013C11.0158 1.81414 10.9517 1.54931 10.8183 1.34388C10.685 1.13846 10.4933 1.00927 10.2856 0.984739C10.0779 0.960209 9.87101 1.04234 9.71057 1.21308L5.49953 5.70928L1.2885 1.36366C1.17318 1.24065 1.03276 1.16251 0.88384 1.13849C0.734923 1.11446 0.583747 1.14556 0.448202 1.22809C0.312658 1.31063 0.198416 1.44115 0.118996 1.60421C0.0395753 1.76727 -0.00169971 1.95605 5.31491e-05 2.14821Z" stroke="black"/>
</svg>
