<svg width="62" height="32" viewBox="0 0 62 32" fill="none" xmlns="http://www.w3.org/2000/svg">
<g clip-path="url(#clip0_17_8707)">
<path d="M19.6377 3.66499C20.2867 3.53699 20.7117 3.53699 20.8627 3.70599C20.9168 3.77602 20.9461 3.86202 20.9461 3.9505C20.9461 4.03898 20.9168 4.12497 20.8627 4.195C20.7836 4.32671 20.694 4.45178 20.5947 4.569C15.1107 11.084 10.9387 20.689 9.75072 23.469C9.66372 23.661 9.57072 23.85 9.49972 23.975C9.45448 24.078 9.38249 24.167 9.29122 24.2328C9.19995 24.2985 9.09273 24.3387 8.98071 24.349C8.74856 24.3473 8.52273 24.2732 8.33472 24.137C4.69472 21.874 2.53471 19.058 2.53471 16C2.53471 10.483 9.57071 5.741 19.6347 3.671M25.2557 7.822C25.7747 6.622 26.6647 4.03499 28.7087 3.00999C29.3568 2.70705 30.0614 2.54385 30.7767 2.531C30.9307 2.524 31.0407 2.531 31.0847 2.531C36.3335 2.48817 41.5599 3.21867 46.5957 4.699C46.6257 4.709 46.7327 4.75 46.7627 4.763C47.1747 4.901 47.3847 5.08999 47.3847 5.32999C47.38 5.42737 47.3549 5.52269 47.3112 5.60983C47.2674 5.69696 47.206 5.774 47.1307 5.836C47.0707 5.9 46.9737 5.981 46.8497 6.085C43.8302 8.39284 40.465 10.2092 36.8787 11.467C34.5139 12.4392 32.076 13.223 29.5877 13.811C28.0087 14.148 22.1747 15.042 25.2557 7.822ZM52.4957 8.028C52.541 7.92446 52.6134 7.83506 52.7053 7.76923C52.7972 7.70341 52.9051 7.6636 53.0177 7.654C53.2505 7.65248 53.4775 7.72729 53.6637 7.867C57.3037 10.126 59.4637 12.946 59.4637 15.997C59.4637 21.518 52.4247 26.259 42.3637 28.333C41.7177 28.461 41.2867 28.458 41.1427 28.293C41.0841 28.2229 41.052 28.1344 41.052 28.043C41.052 27.9516 41.0841 27.8631 41.1427 27.793C41.2187 27.6603 41.3071 27.5351 41.4067 27.419C46.8907 20.904 51.0627 11.303 52.2507 8.531C52.3377 8.331 52.4277 8.14999 52.4987 8.02499M36.8357 24.145C36.3207 25.359 35.4357 27.939 33.3857 28.964C32.7372 29.2657 32.0329 29.4288 31.3177 29.443H31.0067C25.7617 29.4835 20.5392 28.7527 15.5067 27.274C15.4697 27.264 15.3667 27.223 15.3367 27.21C14.9247 27.072 14.7147 26.879 14.7147 26.643C14.7196 26.5448 14.745 26.4487 14.7895 26.361C14.8339 26.2733 14.8964 26.196 14.9727 26.134C15.0327 26.07 15.1297 25.993 15.2507 25.885C18.2719 23.5802 21.6362 21.7641 25.2207 20.503C27.588 19.5302 30.0291 18.7478 32.5207 18.163C34.0927 17.826 39.9277 16.925 36.8437 24.146M31.0117 32C48.1317 32 62.0117 24.837 62.0117 16C62.0117 7.163 48.1337 0 31.0117 0C13.8897 0 0.0117188 7.163 0.0117188 16C0.0117188 24.837 13.8937 32 31.0117 32Z" fill="white"/>
</g>
<defs>
<clipPath id="clip0_17_8707">
<rect width="62" height="32" fill="white"/>
</clipPath>
</defs>
</svg>
