<svg width="55" height="53" viewBox="0 0 55 53" fill="none" xmlns="http://www.w3.org/2000/svg">
<path d="M28.5204 51.1562H18.8497C9.54386 51.1562 2 43.6123 2 34.3065V34.3065C2 31.3852 2.75952 28.514 4.20402 25.9748L10.4831 14.9373C12.0944 12.1048 15.1022 10.3555 18.3609 10.3555H27.172H28.5204" stroke="#00AAD2" stroke-width="3" stroke-linejoin="bevel"/>
<path d="M27.1596 51.1562H36.0102C45.3934 51.1562 53 43.5495 53 34.1663V34.1663C53 31.3332 52.2915 28.5451 50.9391 26.0556L45.0198 15.1603C43.411 12.1992 40.3111 10.3555 36.9412 10.3555H28.4735H27.1596" stroke="#00AAD2" stroke-width="3" stroke-linejoin="bevel"/>
<path d="M34.3338 26.5359C34.3338 24.3263 31.9333 22.5329 28.9716 22.5329M28.9716 22.5329C26.0099 22.5329 23.6094 24.3263 23.6094 26.5359C23.6094 28.7455 26.0099 30.5388 28.9716 30.5388C31.9333 30.5388 34.3338 32.3321 34.3338 34.5417C34.3338 36.7513 31.9333 38.5446 28.9716 38.5446C26.0099 38.5446 23.6094 36.7513 23.6094 34.5417M28.9716 22.5329V20.2305M28.9716 40.8891C28.9716 39.721 28.9716 38.5866 28.9716 38.5866" stroke="#00AAD2" stroke-width="3" stroke-linecap="square"/>
<path d="M15.9404 10.7111L9.82031 2.21094H27.8406H45.5209L39.4008 10.7111" stroke="#00AAD2" stroke-width="3" stroke-linejoin="round"/>
</svg>
