<svg width="77" height="77" viewBox="0 0 77 77" fill="none" xmlns="http://www.w3.org/2000/svg">
<path d="M61.234 20.0762H18.7204C18.0576 20.0756 17.4161 20.3478 16.9101 20.8443C16.4041 21.3409 16.0663 22.0295 15.957 22.7878L8.14062 67.3762H71.8137L63.9974 22.7888C63.8878 22.0306 63.5501 21.3419 63.0441 20.8453C62.5382 20.3486 61.8968 20.0761 61.234 20.0762Z" stroke="#00AAD2" stroke-width="3" stroke-linecap="square"/>
<path d="M27.2422 32.8066H30.5215V43.4134L35.6599 37.802H39.4029V37.9044L34.3431 43.4402L39.9768 50.9221V50.9989H36.1036L32.2774 45.695L30.5168 47.6167V50.9943H27.2422V32.8066Z" fill="#00AAD2"/>
<path d="M45.753 49.9341C44.9339 49.9467 44.1202 49.7949 43.3564 49.487C42.6668 49.206 42.0456 48.7698 41.5374 48.2097C41.027 47.6383 40.6342 46.9645 40.3833 46.2297C39.841 44.5601 39.841 42.7516 40.3833 41.0819C40.6317 40.3407 41.0246 39.6607 41.5374 39.0846C42.0472 38.5247 42.6694 38.0886 43.3597 37.8072C44.1235 37.4993 44.9372 37.3475 45.7563 37.3601C46.5183 37.3467 47.2723 37.5218 47.9563 37.871C48.5809 38.195 49.1359 38.6474 49.5875 39.2007V37.6678H52.7092V48.5766C52.7326 49.6397 52.5447 50.6965 52.1573 51.6806C51.8225 52.5071 51.3189 53.248 50.6813 53.8522C50.0654 54.4246 49.3428 54.8594 48.5585 55.1296C47.7587 55.4101 46.92 55.5525 46.0759 55.5511C45.3779 55.559 44.6813 55.4862 43.9988 55.3339C43.4311 55.2034 42.8789 55.0087 42.352 54.7533C41.9011 54.5363 41.4829 54.2523 41.1106 53.9103C40.7816 53.6033 40.485 53.2607 40.2257 52.8884L42.1184 50.8445C42.5285 51.4086 43.0423 51.8823 43.6301 52.238C44.3396 52.6178 45.1322 52.7983 45.9295 52.7618C46.3846 52.7622 46.8369 52.689 47.2703 52.5446C47.6995 52.4026 48.0969 52.1723 48.4389 51.8676C48.8009 51.533 49.0861 51.1184 49.2736 50.6541C49.5003 50.0747 49.6091 49.4527 49.5931 48.8275V48.1121C49.1423 48.6641 48.5855 49.1123 47.9585 49.4278C47.2723 49.7691 46.5191 49.9397 45.7586 49.926M46.5206 47.139C47.1672 47.1503 47.8046 46.9781 48.3641 46.6408C48.8996 46.3158 49.328 45.83 49.5931 45.2473V42.0539C49.3261 41.4695 48.8984 40.9806 48.3641 40.6488C47.8072 40.3037 47.1688 40.1268 46.5206 40.1378C46.0695 40.1138 45.6186 40.1864 45.1957 40.3512C44.7728 40.516 44.3871 40.7695 44.0625 41.0958C43.4751 41.802 43.1519 42.7043 43.1519 43.6378C43.1519 44.5713 43.4751 45.4736 44.0625 46.1798C44.3871 46.5062 44.7728 46.7596 45.1957 46.9244C45.6186 47.0892 46.0695 47.163 46.5206 47.139Z" fill="#00AAD2"/>
<circle cx="39.9745" cy="10.0683" r="8.50577" stroke="#00AAD2" stroke-width="3"/>
</svg>
