<svg width="81" height="100" viewBox="0 0 81 100" fill="none" xmlns="http://www.w3.org/2000/svg">
<path d="M43 45.0097L66.6138 19L63.9655 39.7621H75L50.7241 66L54.0345 45.0097H43Z" stroke="#00AAD2" stroke-width="5"/>
<path d="M15 63C15 63.1854 15 65.1733 15 67.9961C15 77.9372 23.0589 86 33 86V86" stroke="#00AAD2" stroke-width="5"/>
<path d="M47.5 25.5L41.9465 16.3381L35.0409 5L7.4257 50.3526C0.0232501 62.5073 2.06052 77.9591 12.3856 87.9329C18.6432 93.9776 26.842 97 35.0444 97C43.2469 97 51.4457 93.9776 57.7033 87.9329C61.7931 83.9823 64.5828 79.1705 66 74.0441C66.5 72.1961 67.5 68.2 67.5 67" stroke="#00AAD2" stroke-width="5" stroke-miterlimit="10"/>
</svg>
