<svg width="72" height="72" viewBox="0 0 72 72" fill="none" xmlns="http://www.w3.org/2000/svg">
<path d="M57 48.2247C57 45.8316 55.0932 43.8829 52.7471 43.8829H52.5894C51.5491 43.8829 50.5947 44.2661 49.854 44.9021C49.1132 44.2661 48.1608 43.8829 47.1186 43.8829H46.9608C45.9206 43.8829 44.9662 44.2661 44.2254 44.9021C43.4846 44.2661 42.5322 43.8829 41.49 43.8829H41.3323C40.909 43.8829 40.5016 43.9461 40.1143 44.0643V30.3418C40.1143 27.9487 38.2075 26 35.8614 26H35.7037C33.3596 26 31.4508 27.9467 31.4508 30.3418V55.461L27.3936 51.3189C26.575 50.4832 25.4888 50.0246 24.3307 50.0246C23.1727 50.0246 22.0865 50.4852 21.2679 51.3189C20.4492 52.1547 20 53.2636 20 54.4458C20 55.6281 20.4512 56.737 21.2679 57.5727L32.4611 69L34.6075 66.8087L23.4143 55.3815C23.1687 55.1307 23.0349 54.7985 23.0349 54.4458C23.0349 54.0932 23.1687 53.7609 23.4143 53.5102C23.6599 53.2595 23.9853 53.1229 24.3307 53.1229C24.6762 53.1229 25.0016 53.2615 25.2472 53.5102L34.4857 62.9398V30.3418C34.4857 29.6569 35.0308 29.0984 35.7037 29.0984H35.8614C36.5323 29.0984 37.0794 29.6569 37.0794 30.3418V48.2247H40.1143C40.1143 47.5397 40.6594 46.9812 41.3323 46.9812H41.49C42.1609 46.9812 42.7079 47.5397 42.7079 48.2247H45.7429C45.7429 47.5397 46.288 46.9812 46.9608 46.9812H47.1186C47.7894 46.9812 48.3365 47.5397 48.3365 48.2247H51.3714C51.3714 47.5397 51.9165 46.9812 52.5894 46.9812H52.7471C53.418 46.9812 53.9651 47.5397 53.9651 48.2247V68.9246H57V48.2247Z" fill="#00AAD2"/>
<path d="M21.6962 10.6037L21.9627 10.3501L21.6962 10.0965L21.006 9.4398L20.7647 9.21024L20.5234 9.4398L14.8691 14.8198L12.0018 12.0916L11.7605 11.8621L11.5193 12.0916L10.8291 12.7484L10.5626 13.002L10.8291 13.2555L14.6278 16.87L14.8691 17.0996L15.1104 16.87L21.6962 10.6037Z" fill="#00AAD2" stroke="#00AAD2" stroke-width="0.7"/>
<path d="M26.6535 2.76953V2.41953H26.3035H6.22656H5.87656V2.76953V22.8465V23.1965H6.22656H26.3035H26.6535V22.8465V2.76953ZM24.7573 21.3003H7.77274V4.31571H24.7573V21.3003Z" fill="#00AAD2" stroke="#00AAD2" stroke-width="0.7"/>
<path d="M66.1144 2.76953V2.41953H65.7644H45.6875H45.3375V2.76953V22.8465V23.1965H45.6875H65.7644H66.1144V22.8465V2.76953ZM64.2182 21.3003H47.2337V4.31571H64.2182V21.3003Z" fill="#00AAD2" stroke="#00AAD2" stroke-width="0.7"/>
</svg>
