<svg width="70" height="70" viewBox="0 0 70 70" fill="none" xmlns="http://www.w3.org/2000/svg">
<g clip-path="url(#clip0_5144_10312)">
<path d="M50.71 37.3248C50.6546 41.456 48.9746 45.3992 46.0336 48.301C43.0926 51.2029 39.1272 52.8298 34.9956 52.8298C30.8641 52.8298 26.8987 51.2029 23.9577 48.301C21.0167 45.3992 19.3367 41.456 19.2812 37.3248C19.2812 25.9785 34.9961 10.9062 34.9961 10.9062C34.9961 10.9062 50.71 25.9785 50.71 37.3248Z" stroke="#00AAD2" stroke-width="3" stroke-miterlimit="10"/>
<path d="M35 10.9062V59.0968" stroke="#00AAD2" stroke-width="3" stroke-miterlimit="10"/>
<path d="M43.8879 34.748L34.9982 43.6368L26.1094 34.748" stroke="#00AAD2" stroke-width="3" stroke-miterlimit="10"/>
<path d="M41.3145 26.0566L34.9898 32.3814L28.6641 26.0566" stroke="#00AAD2" stroke-width="3" stroke-miterlimit="10"/>
<path d="M34.9964 67.9811C53.2112 67.9811 67.9772 53.2151 67.9772 35.0003C67.9772 16.7855 53.2112 2.01953 34.9964 2.01953C16.7816 2.01953 2.01562 16.7855 2.01562 35.0003C2.01562 53.2151 16.7816 67.9811 34.9964 67.9811Z" stroke="#00AAD2" stroke-width="3" stroke-miterlimit="10"/>
</g>
<defs>
<clipPath id="clip0_5144_10312">
<rect width="70" height="70" fill="white"/>
</clipPath>
</defs>
</svg>
