<svg width="104" height="104" viewBox="0 0 104 104" fill="none" xmlns="http://www.w3.org/2000/svg">
<g clip-path="url(#clip0_1_646)">
<path d="M83.5547 62.6562L87.2295 80.1576L104.733 76.4841" stroke="#00AAD2" stroke-width="5"/>
<path d="M26.5977 13.6892C35.5652 7.69778 46.3697 5.08723 57.0835 6.32329C67.7973 7.55936 77.7235 12.5616 85.0911 20.4377C92.4587 28.3137 96.7885 38.5511 97.308 49.3235C97.8275 60.0958 94.5028 70.7024 87.9272 79.2508" stroke="#00AAD2" stroke-width="5"/>
<path d="M20.1811 40.3636L16.5039 22.8672L-1 26.5407" stroke="#00AAD2" stroke-width="5"/>
<path d="M77.1324 89.3391C68.165 95.3257 57.3628 97.9326 46.652 96.695C35.9412 95.4573 26.0182 90.4555 18.6525 82.5815C11.2868 74.7075 6.95728 64.4732 6.43603 53.7038C5.91479 42.9343 9.23569 32.3298 15.8065 23.7812" stroke="#00AAD2" stroke-width="5"/>
<path d="M34.4531 9.47534C39.9716 7.18779 45.8859 6.00697 51.8598 6V6.02992C57.8337 6.02294 63.7502 7.19633 69.2693 9.48271C74.7884 11.7691 79.8015 15.1234 84.0204 19.3529" stroke="#00AAD2" stroke-width="5"/>
<path d="M48.3417 23.5078L41.9844 51.5337H58.314L51.8968 79.5621" stroke="#00AAD2" stroke-width="5" stroke-miterlimit="10"/>
</g>
<defs>
<clipPath id="clip0_1_646">
<rect width="104" height="104" fill="white"/>
</clipPath>
</defs>
</svg>
