<svg width="104" height="104" viewBox="0 0 104 104" fill="none" xmlns="http://www.w3.org/2000/svg">
<path d="M74.4062 58.1719V87.5675" stroke="#00AAD2" stroke-width="5" stroke-miterlimit="10"/>
<path d="M87.0975 74.875L74.4081 87.5644L61.7188 74.875" stroke="#00AAD2" stroke-width="5" stroke-miterlimit="10"/>
<path d="M15.6354 5.96094L5 13.7054L15.6354 21.4347L5 29.1792L15.6354 36.9237L5 44.6529L15.6354 52.3974L5 60.1419L15.6354 67.8864L5 75.6309" stroke="#00AAD2" stroke-width="5" stroke-miterlimit="10"/>
<path d="M37.4986 5.96094L26.8633 13.7054L37.4986 21.4347L26.8633 29.1792L37.4986 36.9237L26.8633 44.6529L37.4986 52.3974L26.8633 60.1419L37.4986 67.8864L26.8633 75.6309" stroke="#00AAD2" stroke-width="5" stroke-miterlimit="10"/>
<path d="M59.3732 5.96094L48.7227 13.7054L59.3732 21.4347L48.7227 29.1792L59.3732 36.9237L48.7227 44.6529" stroke="#00AAD2" stroke-width="5" stroke-miterlimit="10"/>
<path d="M81.2408 5.96094L70.6055 13.7054L81.2408 21.4347L70.6055 29.1792L81.2408 36.9237" stroke="#00AAD2" stroke-width="5" stroke-miterlimit="10"/>
<path d="M74.3935 99.0057C88.8299 99.0057 100.533 87.3026 100.533 72.8661C100.533 58.4296 88.8299 46.7266 74.3935 46.7266C59.957 46.7266 48.2539 58.4296 48.2539 72.8661C48.2539 87.3026 59.957 99.0057 74.3935 99.0057Z" stroke="#00AAD2" stroke-width="5" stroke-miterlimit="10"/>
</svg>
