<svg width="104" height="104" viewBox="0 0 104 104" fill="none" xmlns="http://www.w3.org/2000/svg">
<path d="M97.0365 56.4323C97.0365 65.2464 94.4228 73.8626 89.5259 81.1913C84.629 88.52 77.6689 94.2321 69.5257 97.6051C61.3825 100.978 52.4219 101.861 43.7772 100.141C35.1324 98.4215 27.1916 94.1771 20.9591 87.9446C14.7265 81.712 10.4821 73.7713 8.76258 65.1265C7.04302 56.4817 7.92556 47.5212 11.2986 39.378C14.6716 31.2348 20.3836 24.2746 27.7123 19.3778C35.041 14.4809 43.6572 11.8672 52.4714 11.8672C64.2908 11.8672 75.6261 16.5624 83.9837 24.92C92.3412 33.2776 97.0365 44.6129 97.0365 56.4323Z" stroke="#00AAD2" stroke-width="5" stroke-miterlimit="10"/>
<path d="M62.2569 56.4402C62.2566 58.375 61.6827 60.2662 60.6077 61.8748C59.5326 63.4833 58.0048 64.737 56.2173 65.4773C54.4297 66.2176 52.4629 66.4112 50.5653 66.0337C48.6678 65.6562 46.9248 64.7245 45.5567 63.3564C44.1886 61.9884 43.257 60.2454 42.8794 58.3478C42.5019 56.4503 42.6956 54.4834 43.4358 52.6959C44.1761 50.9084 45.4298 49.3805 47.0384 48.3055C48.6469 47.2304 50.5382 46.6565 52.4729 46.6562C55.0678 46.6562 57.5564 47.6871 59.3912 49.5219C61.2261 51.3568 62.2569 53.8454 62.2569 56.4402Z" stroke="#00AAD2" stroke-width="5" stroke-miterlimit="10"/>
<path d="M56.6406 47.7494L71.0082 27.1172" stroke="#00AAD2" stroke-width="5" stroke-miterlimit="10"/>
<path d="M39.9453 3.85938H64.4273" stroke="#00AAD2" stroke-width="5" stroke-miterlimit="10"/>
<path d="M52.4688 3V11.9874" stroke="#00AAD2" stroke-width="5" stroke-miterlimit="10"/>
</svg>
