<svg width="104" height="104" viewBox="0 0 104 104" fill="none" xmlns="http://www.w3.org/2000/svg">
<g clip-path="url(#clip0_517_9299)">
<path d="M27.1367 16.0625H61.1757C71.1081 16.0625 79.1577 24.1121 79.1577 34.0446C79.1577 43.977 71.1081 52.0266 61.1757 52.0266H20.9805" stroke="#00AAD2" stroke-width="5" stroke-miterlimit="10"/>
<path d="M79.1593 87.9954H20.9821C11.0496 87.9954 3 79.9458 3 70.0133C3 60.0809 11.0496 52.0312 20.9821 52.0312H61.1773" stroke="#00AAD2" stroke-width="5" stroke-miterlimit="10"/>
<path d="M15.0691 28.1383C21.7347 28.1383 27.1383 22.7347 27.1383 16.0691C27.1383 9.40354 21.7347 4 15.0691 4C8.40354 4 3 9.40354 3 16.0691C3 22.7347 8.40354 28.1383 15.0691 28.1383Z" stroke="#00AAD2" stroke-width="5" stroke-miterlimit="10"/>
<path d="M64.7891 73.625L79.1641 88.0001L64.7891 102.375" stroke="#00AAD2" stroke-width="5" stroke-miterlimit="10"/>
</g>
<defs>
<clipPath id="clip0_517_9299">
<rect width="104" height="104" fill="white"/>
</clipPath>
</defs>
</svg>
