<svg width="130" height="91" viewBox="0 0 130 91" fill="none" xmlns="http://www.w3.org/2000/svg">
<path d="M65.6562 39.4922L65.6562 90.6554" stroke="#00AAD2" stroke-width="5" stroke-linejoin="round"/>
<path d="M65.3459 51.1157L39.9766 36.4688" stroke="#00AAD2" stroke-width="5" stroke-linejoin="round"/>
<path d="M64.6541 51.1158L90.0234 36.4688" stroke="#00AAD2" stroke-width="5" stroke-linejoin="round"/>
<path d="M12.5663 29.9859L11.1115 19.7934L20.6659 15.957C25.8504 13.8753 31.5018 13.2363 37.0202 14.1079C44.7109 15.3226 51.6609 19.3925 56.4832 25.5055L56.6983 25.7781C59.7727 29.6753 61.8928 34.2377 62.8892 39.1005L65.3494 51.1076L53.7208 54.9805C49.0113 56.5491 44.0001 56.9942 39.0878 56.2803L38.7442 56.2303C31.039 55.1106 24.0394 51.1267 19.1421 45.0737C15.6281 40.7304 13.3557 35.5166 12.5663 29.9859Z" stroke="#00AAD2" stroke-width="5" stroke-linejoin="round"/>
<path d="M109.331 15.9562L118.885 19.7926L117.43 29.9851C116.641 35.5158 114.368 40.7296 110.854 45.0729C105.957 51.1259 98.9574 55.1098 91.2523 56.2296L90.9086 56.2795C85.9964 56.9934 80.9852 56.5483 76.2756 54.9798L64.647 51.1069L67.1073 39.0997C68.1037 34.2369 70.2238 29.6745 73.2982 25.7773L73.5132 25.5047C78.3356 19.3917 85.2855 15.3218 92.9763 14.1071C98.4947 13.2355 104.146 13.8745 109.331 15.9562Z" stroke="#00AAD2" stroke-width="5" stroke-linejoin="round"/>
</svg>
