<svg width="68" height="68" viewBox="0 0 68 68" fill="none" xmlns="http://www.w3.org/2000/svg">
<path d="M24.0916 9.01097C25.5325 9.01097 26.929 9.19248 28.2625 9.53697V3.26953H14.6016V9.53697C15.9351 9.19248 17.3315 9.01097 18.7724 9.01097H24.0916Z" stroke="#00AAD2" stroke-width="3" stroke-miterlimit="10"/>
<path d="M40.7581 27.7142V25.6843C40.7581 17.9167 35.4464 11.3937 28.2603 9.54162C26.9268 9.19713 25.5304 9.01562 24.0894 9.01562H18.7703C17.3294 9.01562 15.9329 9.19713 14.5994 9.54162C7.41332 11.39 2.10156 17.9167 2.10156 25.6806V48.9131C2.10156 58.1179 9.56544 65.5818 18.7703 65.5818H24.0894C25.5304 65.5818 26.9268 65.4003 28.2603 65.0558" stroke="#00AAD2" stroke-width="3" stroke-miterlimit="10"/>
<path d="M56.0516 37.7302L40.7609 32.1406L25.4701 37.7302C25.4701 37.7302 22.4846 60.7589 40.7609 65.5855C59.0372 60.7589 56.0516 37.7302 56.0516 37.7302Z" stroke="#00AAD2" stroke-width="3" stroke-miterlimit="10"/>
<path d="M33.7031 46.7909L40.3521 53.4399L49.5051 44.2832" stroke="#00AAD2" stroke-width="3" stroke-miterlimit="10"/>
</svg>
