<svg width="22" height="22" viewBox="0 0 22 22" fill="none" xmlns="http://www.w3.org/2000/svg">
<circle cx="11" cy="11" r="11" fill="#F6F3F2"/>
<path d="M9.0011 13.0005L12.997 9.00478M7.50218 10.5029L6.50337 11.5016C6.24099 11.764 6.03286 12.0755 5.89086 12.4183C5.74887 12.761 5.67578 13.1284 5.67578 13.4995C5.67578 13.8705 5.74887 14.2379 5.89086 14.5807C6.03286 14.9235 6.24099 15.235 6.50337 15.4973C6.76575 15.7597 7.07723 15.9678 7.42005 16.1098C7.76286 16.2518 8.13028 16.3248 8.50134 16.3248C8.8724 16.3248 9.23982 16.2518 9.58263 16.1098C9.92545 15.9678 10.2369 15.7597 10.4993 15.4973L11.4967 14.4986M10.4986 7.50596L11.4974 6.50722C11.7598 6.24486 12.0713 6.03674 12.4141 5.89476C12.7569 5.75277 13.1243 5.67969 13.4954 5.67969C13.8664 5.67969 14.2339 5.75277 14.5767 5.89476C14.9195 6.03674 15.231 6.24486 15.4934 6.50722C15.7557 6.76958 15.9639 7.08105 16.1059 7.42384C16.2479 7.76663 16.3209 8.13403 16.3209 8.50506C16.3209 8.87609 16.2479 9.24349 16.1059 9.58628C15.9639 9.92907 15.7557 10.2405 15.4934 10.5029L14.4945 11.5016" stroke="#00AAD2" stroke-width="1.5" stroke-linecap="round" stroke-linejoin="round"/>
</svg>
