<svg width="24" height="24" viewBox="0 0 24 24" fill="none" xmlns="http://www.w3.org/2000/svg">
<path d="M9.86967 14.4697L9.33934 15L10.4 16.0607L10.9303 15.5303L9.86967 14.4697ZM13.4 12L13.9303 12.5303C14.1448 12.3158 14.209 11.9932 14.0929 11.713C13.9768 11.4327 13.7033 11.25 13.4 11.25V12ZM8 12L7.46967 11.4697C7.25517 11.6842 7.191 12.0068 7.30709 12.287C7.42318 12.5673 7.69665 12.75 8 12.75V12ZM11.5303 9.53033L12.0607 9L11 7.93934L10.4697 8.46967L11.5303 9.53033ZM10.9303 15.5303L13.9303 12.5303L12.8697 11.4697L9.86967 14.4697L10.9303 15.5303ZM8.53033 12.5303L11.5303 9.53033L10.4697 8.46967L7.46967 11.4697L8.53033 12.5303ZM13.4 11.25H10.7V12.75H13.4V11.25ZM10.7 11.25H8V12.75H10.7V11.25Z" fill="black"/>
<rect x="2.75" y="5.75" width="16.5" height="12.5" stroke="black" stroke-width="1.5"/>
<path d="M22 8L22 16" stroke="black" stroke-width="1.5"/>
</svg>
