<svg width="72" height="72" viewBox="0 0 72 72" fill="none" xmlns="http://www.w3.org/2000/svg">
<path d="M63.4041 30.0547L41.6719 46.9911" stroke="#00AAD2" stroke-width="3" stroke-miterlimit="10"/>
<path d="M9 30.0547L30.7322 46.9911" stroke="#00AAD2" stroke-width="3" stroke-miterlimit="10"/>
<path d="M55.5979 24.2051L63.4062 30.0588V63.7553L39.2609 45.1162C38.3712 44.4557 37.3091 44.0673 36.2031 43.9978" stroke="#00AAD2" stroke-width="3" stroke-miterlimit="10" stroke-linejoin="round"/>
<path d="M16.8047 36.188V11H36.1995H55.5943V36.188" stroke="#00AAD2" stroke-width="3" stroke-miterlimit="10"/>
<path d="M36.2031 43.9978C35.0972 44.0673 34.0351 44.4557 33.1453 45.1162L9 63.7553V30.0588L16.8083 24.2051" stroke="#00AAD2" stroke-width="3" stroke-miterlimit="10" stroke-linejoin="round"/>
<path d="M39.035 45.119C38.1861 44.3964 37.111 44 36 44C34.889 44 33.8139 44.3964 32.965 45.119L9 63.7731V64H63V63.7731L39.035 45.119Z" stroke="#00AAD2" stroke-width="3" stroke-miterlimit="10"/>
<path d="M29 27L35 33L44 24" stroke="#00AAD2" stroke-width="3"/>
</svg>
