<svg width="30" height="30" viewBox="0 0 30 30" fill="none" xmlns="http://www.w3.org/2000/svg">
<path d="M16.028 5.00123C16.7577 4.99843 17.4874 5.00576 18.2169 5.02323L18.4109 5.03023C18.6349 5.03823 18.8559 5.04823 19.1229 5.06023C20.1868 5.11023 20.9128 5.27822 21.5497 5.52521C22.2097 5.7792 22.7657 6.12319 23.3216 6.67917C23.83 7.17876 24.2234 7.78308 24.4746 8.45011C24.7216 9.08709 24.8896 9.81407 24.9396 10.878C24.9516 11.144 24.9616 11.366 24.9696 11.59L24.9756 11.784C24.9933 12.5132 25.001 13.2425 24.9986 13.9719L24.9996 14.7179V16.0279C25.002 16.7576 24.9943 17.4873 24.9766 18.2168L24.9706 18.4108C24.9626 18.6348 24.9526 18.8558 24.9406 19.1227C24.8906 20.1867 24.7206 20.9127 24.4746 21.5497C24.2242 22.2174 23.8307 22.8222 23.3216 23.3216C22.8216 23.8299 22.217 24.2233 21.5497 24.4746C20.9128 24.7216 20.1868 24.8896 19.1229 24.9396C18.8559 24.9516 18.6349 24.9615 18.4109 24.9696L18.2169 24.9756C17.4874 24.9933 16.7577 25.001 16.028 24.9986L15.282 24.9995H13.9731C13.2434 25.002 12.5137 24.9943 11.7842 24.9766L11.5902 24.9706C11.3529 24.9619 11.1155 24.9519 10.8783 24.9406C9.81433 24.8906 9.08837 24.7206 8.4504 24.4746C7.78312 24.2239 7.1787 23.8304 6.67949 23.3216C6.17056 22.8219 5.77676 22.2172 5.52555 21.5497C5.27856 20.9127 5.11057 20.1867 5.06057 19.1227C5.04944 18.8855 5.03944 18.6481 5.03058 18.4108L5.02558 18.2168C5.00714 17.4873 4.99881 16.7576 5.00058 16.0279V13.9719C4.99779 13.2426 5.00512 12.5132 5.02258 11.784L5.02958 11.59C5.03758 11.366 5.04757 11.144 5.05957 10.878C5.10957 9.81307 5.27756 9.08809 5.52455 8.45011C5.77591 7.78276 6.17048 7.1786 6.68049 6.68017C7.17936 6.17094 7.7834 5.77678 8.4504 5.52521C9.08837 5.27822 9.81333 5.11023 10.8783 5.06023L11.5902 5.03023L11.7842 5.02523C12.5134 5.0068 13.2427 4.99847 13.9721 5.00023L16.028 5.00123ZM15.0001 10.0011C14.3376 9.99169 13.6799 10.1141 13.0651 10.3611C12.4504 10.6082 11.8909 10.9749 11.4191 11.4401C10.9473 11.9052 10.5727 12.4595 10.317 13.0707C10.0613 13.6819 9.92962 14.3379 9.92962 15.0004C9.92962 15.6629 10.0613 16.3189 10.317 16.9301C10.5727 17.5413 10.9473 18.0956 11.4191 18.5607C11.8909 19.0259 12.4504 19.3926 13.0651 19.6397C13.6799 19.8867 14.3376 20.0091 15.0001 19.9997C16.3261 19.9997 17.5978 19.473 18.5354 18.5353C19.4731 17.5977 19.9998 16.3259 19.9998 14.9999C19.9998 13.6739 19.4731 12.4021 18.5354 11.4645C17.5978 10.5268 16.3261 10.0011 15.0001 10.0011ZM15.0001 12.001C15.3986 11.9936 15.7945 12.0658 16.1648 12.2132C16.5351 12.3606 16.8723 12.5803 17.1567 12.8595C17.4412 13.1387 17.6671 13.4718 17.8214 13.8393C17.9756 14.2068 18.0551 14.6013 18.0552 14.9999C18.0552 15.3984 17.9759 15.793 17.8217 16.1606C17.6676 16.5281 17.4418 16.8613 17.1574 17.1406C16.8731 17.4198 16.536 17.6397 16.1657 17.7872C15.7955 17.9347 15.3996 18.007 15.0011 17.9998C14.2055 17.9998 13.4424 17.6837 12.8799 17.1211C12.3173 16.5585 12.0012 15.7955 12.0012 14.9999C12.0012 14.2043 12.3173 13.4412 12.8799 12.8786C13.4424 12.3161 14.2055 12 15.0011 12L15.0001 12.001ZM20.2498 8.50111C19.9272 8.51402 19.6221 8.65126 19.3984 8.88407C19.1748 9.11688 19.0498 9.42721 19.0498 9.75007C19.0498 10.0729 19.1748 10.3833 19.3984 10.6161C19.6221 10.8489 19.9272 10.9861 20.2498 10.999C20.5813 10.999 20.8992 10.8673 21.1336 10.6329C21.368 10.3985 21.4997 10.0806 21.4997 9.74907C21.4997 9.41756 21.368 9.09963 21.1336 8.86522C20.8992 8.6308 20.5813 8.49911 20.2498 8.49911V8.50111Z" fill="#A4A4A4"/>
</svg>
