<svg width="31" height="31" viewBox="0 0 31 31" fill="none" xmlns="http://www.w3.org/2000/svg">
<path d="M15.625 11.4294C16.2587 11.5414 16.7868 11.7061 17.2093 11.9234C17.6318 12.1342 17.9982 12.3977 18.3085 12.7138C19.1139 13.5108 19.6486 14.3901 19.9126 15.3518C20.1767 16.3069 20.1734 17.2619 19.9027 18.217C19.6387 19.1721 19.1106 20.0448 18.3184 20.8352L14.9318 24.224C14.1463 25.0079 13.2749 25.5315 12.3177 25.795C11.3605 26.065 10.4 26.0683 9.43616 25.8048C8.47895 25.5414 7.59766 25.0079 6.79229 24.2043C5.99351 23.4073 5.4621 22.5313 5.19804 21.5762C4.93399 20.6145 4.93399 19.6562 5.19804 18.7011C5.4687 17.7461 5.99682 16.8733 6.78239 16.0829L9.69362 13.1881C9.6408 13.5108 9.6309 13.85 9.66391 14.2057C9.70352 14.5548 9.79264 14.8841 9.93127 15.1937L7.99045 17.1302C7.41612 17.7032 7.03324 18.3356 6.8418 19.0272C6.65036 19.7188 6.65036 20.4137 6.8418 21.1118C7.03324 21.8034 7.41612 22.4391 7.99045 23.0187C8.56477 23.5917 9.19851 23.9705 9.89166 24.1549C10.5914 24.3459 11.2879 24.3459 11.981 24.1549C12.6742 23.9639 13.3079 23.5818 13.8822 23.0088L17.1202 19.7879C17.6945 19.2149 18.0741 18.5826 18.259 17.891C18.4504 17.1994 18.4504 16.5078 18.259 15.8162C18.0675 15.118 17.6846 14.4791 17.1103 13.8994C16.7868 13.5767 16.4007 13.3198 15.9518 13.1288C15.5095 12.9378 14.9616 12.8159 14.308 12.7632L15.625 11.4294ZM15.3774 19.5706C14.7437 19.4586 14.2156 19.2972 13.7931 19.0864C13.3706 18.8691 13.0042 18.6023 12.694 18.2862C11.8886 17.4892 11.3539 16.6131 11.0898 15.6581C10.8258 14.6964 10.8258 13.7381 11.0898 12.783C11.3605 11.8279 11.8919 10.9552 12.6841 10.1648L16.0607 6.78584C16.8529 5.99544 17.7276 5.46851 18.6848 5.20504C19.642 4.93499 20.5992 4.93169 21.5564 5.19516C22.5202 5.45863 23.4048 5.99215 24.2102 6.79572C25.0089 7.59271 25.5403 8.47203 25.8044 9.43368C26.0685 10.3887 26.0652 11.3438 25.7945 12.2989C25.5304 13.2539 25.0056 14.1267 24.2201 14.9171L21.3088 17.8119C21.3616 17.4892 21.3682 17.1533 21.3286 16.8042C21.2956 16.4551 21.2098 16.1224 21.0712 15.8063L23.012 13.8698C23.5863 13.2968 23.9692 12.6644 24.1606 11.9728C24.3521 11.2812 24.3521 10.5896 24.1606 9.89804C23.9692 9.19985 23.5863 8.56424 23.012 7.9912C22.4311 7.41157 21.794 7.02955 21.1009 6.84512C20.4077 6.65411 19.7146 6.65411 19.0214 6.84512C18.3283 7.03613 17.6912 7.41816 17.1103 7.9912L13.8822 11.2121C13.3079 11.7851 12.925 12.4174 12.7336 13.109C12.5421 13.8006 12.5421 14.4955 12.7336 15.1937C12.925 15.8853 13.3112 16.5209 13.8921 17.1006C14.2156 17.4233 14.5985 17.6802 15.0408 17.8712C15.4897 18.0622 16.0409 18.1841 16.6944 18.2368L15.3774 19.5706Z" fill="#A4A4A4"/>
</svg>
