<svg width="24" height="24" viewBox="0 0 24 24" fill="none" xmlns="http://www.w3.org/2000/svg">
<path d="M5.5 9C7.433 9 9 7.433 9 5.5C9 3.567 7.433 2 5.5 2C3.567 2 2 3.567 2 5.5C2 7.433 3.567 9 5.5 9Z" stroke="black" stroke-width="1.5"/>
<path d="M11.9977 5H14.6777C16.5277 5 17.3877 7.29 15.9977 8.51L8.00775 15.5C6.61775 16.71 7.47775 19 9.31775 19H11.9977" stroke="black" stroke-width="1.5" stroke-linecap="square" stroke-linejoin="round"/>
<path d="M19 21L18.49 21.5499C18.7776 21.8167 19.2224 21.8167 19.51 21.5499L19 21ZM21.25 16.1304C21.25 16.4848 21.1184 16.9278 20.8624 17.4324C20.6109 17.9281 20.2672 18.4292 19.9098 18.8851C19.5542 19.3386 19.1967 19.7325 18.9273 20.0137C18.793 20.1538 18.6816 20.2648 18.6047 20.34C18.5663 20.3775 18.5365 20.406 18.5169 20.4247C18.5071 20.434 18.4998 20.4409 18.4953 20.4451C18.493 20.4473 18.4914 20.4488 18.4905 20.4496C18.4901 20.45 18.4898 20.4503 18.4897 20.4504C18.4897 20.4504 18.4897 20.4504 18.4897 20.4504C18.4897 20.4503 18.4898 20.4503 18.4898 20.4503C18.4899 20.4502 18.49 20.4501 19 21C19.51 21.5499 19.5101 21.5498 19.5103 21.5497C19.5103 21.5496 19.5105 21.5495 19.5106 21.5494C19.5108 21.5492 19.5111 21.5489 19.5114 21.5486C19.512 21.548 19.5128 21.5473 19.5138 21.5463C19.5158 21.5445 19.5185 21.542 19.5219 21.5388C19.5287 21.5324 19.5383 21.5234 19.5505 21.5118C19.5748 21.4887 19.6095 21.4554 19.6531 21.4128C19.7403 21.3276 19.8633 21.2049 20.0102 21.0515C20.3033 20.7457 20.6958 20.3136 21.0902 19.8106C21.4828 19.3099 21.8891 18.7241 22.2001 18.1111C22.5066 17.507 22.75 16.8196 22.75 16.1304H21.25ZM19 21C19.51 20.4501 19.5101 20.4502 19.5102 20.4503C19.5102 20.4503 19.5103 20.4503 19.5103 20.4504C19.5103 20.4504 19.5103 20.4504 19.5103 20.4504C19.5102 20.4503 19.5099 20.45 19.5095 20.4496C19.5086 20.4488 19.507 20.4473 19.5047 20.4451C19.5002 20.4409 19.4929 20.434 19.4831 20.4247C19.4635 20.406 19.4337 20.3775 19.3953 20.34C19.3184 20.2648 19.207 20.1538 19.0727 20.0137C18.8033 19.7325 18.4458 19.3386 18.0902 18.8851C17.7328 18.4292 17.3891 17.9281 17.1376 17.4324C16.8816 16.9278 16.75 16.4848 16.75 16.1304H15.25C15.25 16.8196 15.4934 17.507 15.7999 18.1111C16.1109 18.7241 16.5172 19.3099 16.9098 19.8106C17.3042 20.3136 17.6967 20.7457 17.9898 21.0515C18.1367 21.2049 18.2597 21.3276 18.3469 21.4128C18.3905 21.4554 18.4252 21.4887 18.4495 21.5118C18.4617 21.5234 18.4713 21.5324 18.4781 21.5388C18.4815 21.542 18.4842 21.5445 18.4862 21.5463C18.4872 21.5473 18.488 21.548 18.4886 21.5486C18.4889 21.5489 18.4892 21.5492 18.4894 21.5494C18.4895 21.5495 18.4897 21.5496 18.4897 21.5497C18.4899 21.5498 18.49 21.5499 19 21ZM16.75 16.1304C16.75 14.7854 17.7871 13.75 19 13.75V12.25C16.8992 12.25 15.25 14.0177 15.25 16.1304H16.75ZM19 13.75C20.2129 13.75 21.25 14.7854 21.25 16.1304H22.75C22.75 14.0177 21.1008 12.25 19 12.25V13.75Z" fill="black"/>
</svg>
