<svg width="28" height="31" viewBox="0 0 28 31" fill="none" xmlns="http://www.w3.org/2000/svg">
<path d="M23 10.25C21.4004 6.75 18.5996 5 14.6 5C8.6 5 5 7.91667 5 15.5C5 23.0833 9.2 26 14.6 26C20 26 22.7038 22.5 22.7038 20.1667C23 17.6 21.8 14.3333 14.6 14.3333C11.6 14.3333 11 15.7917 11 17.25C11 19 12.2 20.1667 14 20.1667C17 20.1667 18.2 18.4167 18.2 14.3333C18.2 10.25 15.8 9.66667 14.6 9.66667C13.4 9.66667 12.4004 10.0552 11.6 10.8333" stroke="#A4A4A4" stroke-width="1.8" stroke-linecap="square" stroke-linejoin="round"/>
</svg>
