<svg width="16" height="24" viewBox="0 0 16 24" fill="none" xmlns="http://www.w3.org/2000/svg">
<g clip-path="url(#clip0_2189_25563)">
<path d="M0.710938 4.60938L1.20599 15.8456C1.24559 16.6979 1.94526 17.3665 2.80335 17.3665H11.1532" stroke="#231815" stroke-width="1.5"/>
<path d="M14.8583 24.0014L13.0497 15.2573C12.9991 15.0087 12.7904 14.8272 12.5501 14.8272H8.36373L8.00959 8.08599C7.96533 7.2257 7.29501 6.54688 6.47924 6.54688H4.96153C4.08884 6.54688 3.39323 7.31307 3.43117 8.24058L3.70942 15.5531" stroke="#231815" stroke-width="1.5"/>
<path d="M7.59831 2.57928C7.59831 1.55005 6.75343 0.710938 5.71713 0.710938C4.68082 0.710938 3.83594 1.55005 3.83594 2.57928C3.83594 3.60851 4.68082 4.44762 5.71713 4.44762C6.75343 4.44762 7.59831 3.60851 7.59831 2.57928Z" stroke="#231815" stroke-width="1.5"/>
</g>
<defs>
<clipPath id="clip0_2189_25563">
<rect width="16" height="24" fill="white"/>
</clipPath>
</defs>
</svg>
