<svg width="11" height="9" viewBox="0 0 11 9" fill="none" xmlns="http://www.w3.org/2000/svg">
<path d="M5.31491e-05 2.14724C-0.00034548 2.29751 0.0255582 2.44599 0.0758617 2.58177C0.126165 2.71755 0.19959 2.83717 0.290741 2.93184L5.00458 7.79049C5.14516 7.93844 5.32149 8.01933 5.50346 8.01933C5.68544 8.01934 5.86177 7.93847 6.00235 7.79052L10.7162 2.76122C10.8766 2.59048 10.9775 2.34514 10.9967 2.07915C11.0158 1.81317 10.9517 1.54833 10.8183 1.34291C10.685 1.13748 10.4933 1.00829 10.2856 0.983762C10.0779 0.959231 9.87101 1.04137 9.71057 1.2121L5.49953 5.7083L1.2885 1.36268C1.17318 1.23968 1.03276 1.16154 0.88384 1.13751C0.734923 1.11348 0.583747 1.14458 0.448202 1.22711C0.312657 1.30965 0.198416 1.44017 0.118996 1.60323C0.0395763 1.76629 -0.00170067 1.95508 5.31491e-05 2.14724Z" fill="#00AAD2"/>
<path d="M5.31491e-05 2.14724C-0.00034548 2.29751 0.0255582 2.44599 0.0758617 2.58177C0.126165 2.71755 0.19959 2.83717 0.290741 2.93184L5.00458 7.79049C5.14516 7.93844 5.32149 8.01933 5.50346 8.01933C5.68544 8.01934 5.86177 7.93847 6.00235 7.79052L10.7162 2.76122C10.8766 2.59048 10.9775 2.34514 10.9967 2.07915C11.0158 1.81317 10.9517 1.54833 10.8183 1.34291C10.685 1.13748 10.4933 1.00829 10.2856 0.983762C10.0779 0.959231 9.87101 1.04137 9.71057 1.2121L5.49953 5.7083L1.2885 1.36268C1.17318 1.23968 1.03276 1.16154 0.88384 1.13751C0.734923 1.11348 0.583747 1.14458 0.448202 1.22711C0.312657 1.30965 0.198416 1.44017 0.118996 1.60323C0.0395763 1.76629 -0.00170067 1.95508 5.31491e-05 2.14724Z" stroke="#00AAD2"/>
</svg>
