<svg width="203" height="56" viewBox="0 0 203 56" fill="none" xmlns="http://www.w3.org/2000/svg">
<g id="Union">
<mask id="path-1-inside-1_6202_15385" fill="white">
<path fill-rule="evenodd" clip-rule="evenodd" d="M4 56C1.79086 56 0 54.2091 0 52V14C0 11.7909 1.79087 10 4.00001 10H91.4983L101.607 0L111.715 10H199C201.209 10 203 11.7909 203 14V52C203 54.2091 201.209 56 199 56H4Z"/>
</mask>
<path fill-rule="evenodd" clip-rule="evenodd" d="M4 56C1.79086 56 0 54.2091 0 52V14C0 11.7909 1.79087 10 4.00001 10H91.4983L101.607 0L111.715 10H199C201.209 10 203 11.7909 203 14V52C203 54.2091 201.209 56 199 56H4Z" fill="#F6F3F2"/>
<path d="M91.4983 10L92.2016 10.7109L91.9093 11H91.4983V10ZM101.607 0L100.903 -0.710907L101.607 -1.40665L102.31 -0.710907L101.607 0ZM111.715 10V11H111.304L111.012 10.7109L111.715 10ZM1 52C1 53.6569 2.34315 55 4 55V57C1.23858 57 -1 54.7614 -1 52H1ZM1 14V52H-1V14H1ZM4.00001 11C2.34315 11 1 12.3432 1 14H-1C-1 11.2386 1.23858 9 4.00001 9V11ZM91.4983 11H4.00001V9H91.4983V11ZM102.31 0.710907L92.2016 10.7109L90.795 9.28909L100.903 -0.710907L102.31 0.710907ZM111.012 10.7109L100.903 0.710907L102.31 -0.710907L112.418 9.28909L111.012 10.7109ZM199 11H111.715V9H199V11ZM202 14C202 12.3431 200.657 11 199 11V9C201.761 9 204 11.2386 204 14H202ZM202 52V14H204V52H202ZM199 55C200.657 55 202 53.6569 202 52H204C204 54.7614 201.761 57 199 57V55ZM4 55H199V57H4V55Z" fill="#828282" mask="url(#path-1-inside-1_6202_15385)"/>
</g>
</svg>
