<svg width="178" height="56" viewBox="0 0 178 56" fill="none" xmlns="http://www.w3.org/2000/svg">
<mask id="path-1-inside-1_5303_8920" fill="white">
<path fill-rule="evenodd" clip-rule="evenodd" d="M4 0C1.79086 0 0 1.79086 0 4V42.4963C0 44.7055 1.79086 46.4963 4 46.4963H79L88.6066 56L98.2132 46.4963H174C176.209 46.4963 178 44.7055 178 42.4963V4C178 1.79086 176.209 0 174 0H4Z"/>
</mask>
<path fill-rule="evenodd" clip-rule="evenodd" d="M4 0C1.79086 0 0 1.79086 0 4V42.4963C0 44.7055 1.79086 46.4963 4 46.4963H79L88.6066 56L98.2132 46.4963H174C176.209 46.4963 178 44.7055 178 42.4963V4C178 1.79086 176.209 0 174 0H4Z" fill="#F6F3F2"/>
<path d="M79 46.4963L79.7033 45.7854L79.4111 45.4963H79V46.4963ZM88.6066 56L87.9033 56.7109L88.6066 57.4067L89.3099 56.7109L88.6066 56ZM98.2132 46.4963V45.4963H97.8021L97.5099 45.7854L98.2132 46.4963ZM1 4C1 2.34315 2.34315 1 4 1V-1C1.23858 -1 -1 1.23858 -1 4H1ZM1 42.4963V4H-1V42.4963H1ZM4 45.4963C2.34314 45.4963 1 44.1532 1 42.4963H-1C-1 45.2578 1.23858 47.4963 4 47.4963V45.4963ZM79 45.4963H4V47.4963H79V45.4963ZM89.3099 55.2891L79.7033 45.7854L78.2967 47.2072L87.9033 56.7109L89.3099 55.2891ZM97.5099 45.7854L87.9033 55.2891L89.3099 56.7109L98.9165 47.2072L97.5099 45.7854ZM174 45.4963H98.2132V47.4963H174V45.4963ZM177 42.4963C177 44.1532 175.657 45.4963 174 45.4963V47.4963C176.761 47.4963 179 45.2578 179 42.4963H177ZM177 4V42.4963H179V4H177ZM174 1C175.657 1 177 2.34315 177 4H179C179 1.23858 176.761 -1 174 -1V1ZM4 1H174V-1H4V1Z" fill="#828282" mask="url(#path-1-inside-1_5303_8920)"/>
</svg>
