<svg width="39" height="46" viewBox="0 0 39 46" fill="none" xmlns="http://www.w3.org/2000/svg">
<path d="M5.94426 40.7155H1.65593V37.1406H0V45.8207H1.65593V42.1561H5.94426V45.8207H7.60019V37.1406H5.94426V40.7155Z" fill="white"/>
<path d="M8.74023 38.5934H11.5232V45.8207H13.175V38.5934H15.958V37.1406H8.74023V38.5934Z" fill="white"/>
<path d="M26.0486 43.6129L24.0753 37.1406H22.2404L20.2671 43.6129L18.4728 37.1406H16.8047L19.315 45.8207H21.1459L23.1599 39.3974L25.1698 45.8207H27.0129L29.511 37.1406H27.8429L26.0486 43.6129Z" fill="white"/>
<path d="M34.2011 36.9609C31.6419 36.9609 29.7988 38.8871 29.7988 41.4785C29.7988 44.0699 31.646 46.0002 34.2011 46.0002C36.7602 46.0002 38.6074 44.0699 38.6074 41.4785C38.6074 38.8871 36.7602 36.9609 34.2011 36.9609ZM34.2011 44.4535C32.5329 44.4535 31.5036 43.1639 31.5036 41.4785C31.5036 39.7931 32.537 38.5035 34.2011 38.5035C35.8692 38.5035 36.8986 39.7931 36.8986 41.4785C36.8986 43.1639 35.8692 44.4535 34.2011 44.4535Z" fill="white"/>
<path d="M38.1272 0H34.2051V29.8968H38.1272V0Z" fill="#00A2CE"/>
<path d="M3.92215 0H0V29.8968H3.92215V0Z" fill="#00A2CE"/>
<path d="M17.055 28.0854H21.0666V17.0221H31.7468V12.8758H21.0666V1.8125H17.055V12.8758H6.37891V17.0221H17.055V28.0854Z" fill="#00A2CE"/>
</svg>
