<svg width="47" height="56" viewBox="0 0 47 56" fill="none" xmlns="http://www.w3.org/2000/svg">
<path d="M7.23648 49.5669H2.01591V45.2148H0V55.7819H2.01591V51.3206H7.23648V55.7819H9.2524V45.2148H7.23648V49.5669Z" fill="black"/>
<path d="M10.6406 46.9835H14.0285V55.7819H16.0395V46.9835H19.4274V45.2148H10.6406V46.9835Z" fill="black"/>
<path d="M31.7105 53.0942L29.3082 45.2148H27.0744L24.6721 53.0942L22.4878 45.2148H20.457L23.5131 55.7819H25.742L28.1938 47.9622L30.6406 55.7819H32.8844L35.9256 45.2148H33.8948L31.7105 53.0942Z" fill="black"/>
<path d="M41.6366 44.9961C38.5211 44.9961 36.2773 47.341 36.2773 50.4957C36.2773 53.6505 38.5261 56.0004 41.6366 56.0004C44.7521 56.0004 47.0008 53.6505 47.0008 50.4957C47.0008 47.341 44.7521 44.9961 41.6366 44.9961ZM41.6366 54.1175C39.6058 54.1175 38.3527 52.5475 38.3527 50.4957C38.3527 48.4439 39.6108 46.874 41.6366 46.874C43.6674 46.874 44.9205 48.4439 44.9205 50.4957C44.9205 52.5475 43.6674 54.1175 41.6366 54.1175Z" fill="black"/>
<path d="M46.4154 0H41.6406V36.396H46.4154V0Z" fill="#00A2CE"/>
<path d="M4.77479 0H0V36.396H4.77479V0Z" fill="#00A2CE"/>
<path d="M20.7626 34.1904H25.6463V20.722H38.6482V15.6745H25.6463V2.20605H20.7626V15.6745H7.76562V20.722H20.7626V34.1904Z" fill="#00A2CE"/>
</svg>
