<svg xmlns="http://www.w3.org/2000/svg" xmlns:xlink="http://www.w3.org/1999/xlink" width="30" height="30" viewBox="0 0 30 30">
  <defs>
    <clipPath id="clip-_공통_Play_btn_on_">
      <rect width="30" height="30"/>
    </clipPath>
  </defs>
  <g id="_공통_Play_btn_on_" data-name="[공통] Play_btn(on)" clip-path="url(#clip-_공통_Play_btn_on_)">
    <g id="Ellipse_3" data-name="Ellipse 3" fill="none">
      <path d="M15,0A15,15,0,1,1,0,15,15,15,0,0,1,15,0Z" stroke="none"/>
      <path d="M 15 2 C 11.5275707244873 2 8.262990951538086 3.352239608764648 5.807609558105469 5.807609558105469 C 3.352239608764648 8.262990951538086 2 11.5275707244873 2 15 C 2 18.47243118286133 3.352239608764648 21.73701095581055 5.807609558105469 24.19239044189453 C 8.262990951538086 26.64776039123535 11.5275707244873 28 15 28 C 18.47243118286133 28 21.73701095581055 26.64776039123535 24.19239044189453 24.19239044189453 C 26.64776039123535 21.73701095581055 28 18.47243118286133 28 15 C 28 11.5275707244873 26.64776039123535 8.262990951538086 24.19239044189453 5.807609558105469 C 21.73701095581055 3.352239608764648 18.47243118286133 2 15 2 M 15 0 C 23.28426933288574 0 30 6.715730667114258 30 15 C 30 23.28426933288574 23.28426933288574 30 15 30 C 6.715730667114258 30 0 23.28426933288574 0 15 C 0 6.715730667114258 6.715730667114258 0 15 0 Z" stroke="none" fill="#007da9"/>
    </g>
    <path id="Shape_16" data-name="Shape 16" d="M938.03,3532.614a1.09,1.09,0,0,0-1.066,1.114v8.173a1.09,1.09,0,0,0,1.066,1.114,1.022,1.022,0,0,0,.531-.151l6.775-4.087a1.138,1.138,0,0,0,0-1.927l-6.775-4.087a1.021,1.021,0,0,0-.531-.151" transform="translate(-925.964 -3522.614)" fill="#007da9"/>
  </g>
</svg>
