<svg width="20" height="20" viewBox="0 0 20 20" fill="none" xmlns="http://www.w3.org/2000/svg">
<g clip-path="url(#clip0_2939_29293)">
<path d="M19.5 10C19.5 4.75 15.25 0.5 10 0.5C4.75 0.5 0.5 4.75 0.5 10C0.5 15.25 4.75 19.5 10 19.5C15.25 19.5 19.5 15.25 19.5 10Z" fill="white"/>
<path fill-rule="evenodd" clip-rule="evenodd" d="M1 10C1 14.97 5.03 19 10 19C14.97 19 19 14.97 19 10C19 5.03 14.97 1 10 1C5.03 1 1 5.03 1 10ZM10 20C4.48 20 0 15.52 0 10C0 4.48 4.48 0 10 0C15.52 0 20 4.48 20 10C20 15.52 15.52 20 10 20Z" fill="#DDDDDD"/>
<path fill-rule="evenodd" clip-rule="evenodd" d="M5.95983 8.40999C6.24983 8.10999 6.71983 8.09999 7.01983 8.37999L10.2498 11.46L13.4798 8.37999C13.7798 8.08999 14.2498 8.10999 14.5398 8.40999C14.8298 8.70999 14.8098 9.17999 14.5098 9.46999L10.7598 13.04C10.4698 13.32 10.0198 13.32 9.72983 13.04L5.97983 9.46999C5.67983 9.17999 5.66983 8.70999 5.94983 8.40999H5.95983Z" fill="#0F0F0F"/>
</g>
<defs>
<clipPath id="clip0_2939_29293">
<rect width="20" height="20" fill="white"/>
</clipPath>
</defs>
</svg>
