<svg width="20" height="20" viewBox="0 0 20 20" fill="none" xmlns="http://www.w3.org/2000/svg">
<g clip-path="url(#clip0_2928_75096)">
<path d="M19.5 10C19.5 15.25 15.25 19.5 10 19.5C4.75 19.5 0.5 15.25 0.5 10C0.5 4.75 4.75 0.5 10 0.5C15.25 0.5 19.5 4.75 19.5 10Z" fill="white"/>
<path fill-rule="evenodd" clip-rule="evenodd" d="M1 10C1 5.03 5.03 1 10 1C14.97 1 19 5.03 19 10C19 14.97 14.97 19 10 19C5.03 19 1 14.97 1 10ZM10 0C4.48 0 0 4.48 0 10C0 15.52 4.48 20 10 20C15.52 20 20 15.52 20 10C20 4.48 15.52 0 10 0Z" fill="#DDDDDD"/>
<path fill-rule="evenodd" clip-rule="evenodd" d="M5.95983 11.59C6.24983 11.89 6.71983 11.9 7.01983 11.62L10.2498 8.54L13.4798 11.62C13.7798 11.91 14.2498 11.89 14.5398 11.59C14.8298 11.29 14.8098 10.82 14.5098 10.53L10.7598 6.96C10.4698 6.68 10.0198 6.68 9.72983 6.96L5.97983 10.53C5.67983 10.82 5.66983 11.29 5.94983 11.59H5.95983Z" fill="#0F0F0F"/>
</g>
<defs>
<clipPath id="clip0_2928_75096">
<rect width="20" height="20" fill="white"/>
</clipPath>
</defs>
</svg>
