<svg width="18" height="18" viewBox="0 0 18 18" fill="none" xmlns="http://www.w3.org/2000/svg">
<path d="M8.9979 1.5C10.9233 1.49946 12.7752 2.23944 14.17 3.56671C15.5649 4.89398 16.3959 6.70686 16.4909 8.62994C16.5859 10.553 15.9376 12.439 14.6804 13.8973C13.4231 15.3555 11.6532 16.2744 9.73711 16.4637C7.82101 16.6529 5.90553 16.098 4.38732 14.9138C2.86912 13.7296 1.86449 12.0069 1.58148 10.1024C1.29848 8.19786 1.75877 6.25746 2.86705 4.68298C3.97532 3.10851 5.64668 2.02057 7.53501 1.64447C8.01671 1.54841 8.50671 1.50002 8.9979 1.5Z" stroke="#0F0F0F" stroke-width="0.9" stroke-miterlimit="10"/>
<path d="M8.91014 12.5078C8.82856 12.5128 8.74681 12.501 8.67002 12.473C8.59323 12.445 8.52305 12.4014 8.46389 12.345C8.36194 12.2314 8.30611 12.0838 8.30735 11.9312C8.3086 11.7786 8.36684 11.6319 8.47064 11.52C8.52954 11.4654 8.59878 11.4233 8.67428 11.396C8.74977 11.3686 8.82998 11.3568 8.91014 11.361C8.99148 11.3569 9.07278 11.3695 9.14912 11.3978C9.22545 11.4262 9.29521 11.4698 9.35414 11.526C9.40766 11.5807 9.44964 11.6456 9.4776 11.7169C9.50556 11.7881 9.51892 11.8642 9.51689 11.9408C9.51915 12.0152 9.50643 12.0893 9.47951 12.1588C9.45258 12.2282 9.41199 12.2915 9.36014 12.345C9.30031 12.4016 9.22949 12.4452 9.15207 12.4732C9.07465 12.5012 8.9923 12.5129 8.91014 12.5078ZM8.88389 10.611C8.81665 10.6153 8.74922 10.606 8.68568 10.5836C8.62213 10.5611 8.56379 10.5261 8.51414 10.4805C8.43954 10.4009 8.39636 10.297 8.39264 10.188C8.37984 9.87123 8.42823 9.55496 8.53514 9.2565C8.66143 9.01588 8.83548 8.80355 9.04664 8.6325L9.10064 8.58075C9.29912 8.40055 9.48086 8.20274 9.64364 7.98975C9.75807 7.81806 9.81913 7.61634 9.81914 7.41C9.83463 7.18101 9.7613 6.95485 9.61439 6.7785C9.53513 6.70235 9.44078 6.64364 9.33744 6.60618C9.2341 6.56872 9.12405 6.55333 9.01439 6.561C8.79152 6.55078 8.57332 6.6271 8.40539 6.774C8.32782 6.84814 8.26706 6.93805 8.22721 7.03768C8.18736 7.1373 8.16935 7.24432 8.17439 7.3515C8.17439 7.35825 8.16839 8.03325 7.64939 8.03325C7.13039 8.03325 7.11014 7.359 7.11014 7.35C7.10292 7.11886 7.14668 6.88897 7.23832 6.67664C7.32997 6.46432 7.46724 6.27479 7.64039 6.1215C8.02202 5.79111 8.51273 5.61417 9.01739 5.625C9.52212 5.61026 10.0139 5.78589 10.3951 6.117C10.5629 6.27785 10.6939 6.47305 10.7792 6.68922C10.8645 6.9054 10.9021 7.13745 10.8894 7.3695C10.8604 7.90922 10.6204 8.41591 10.2211 8.78025L9.68864 9.225C9.47707 9.4997 9.37067 9.84099 9.38864 10.1873C9.38455 10.2487 9.36809 10.3086 9.34024 10.3635C9.31239 10.4184 9.27373 10.4671 9.22658 10.5067C9.17944 10.5463 9.12478 10.5759 9.06589 10.5939C9.007 10.6118 8.9451 10.6176 8.88389 10.611Z" fill="#0F0F0F"/>
</svg>
