<svg width="12" height="12" viewBox="0 0 12 12" fill="none" xmlns="http://www.w3.org/2000/svg">
<path fill-rule="evenodd" clip-rule="evenodd" d="M6.00044 1C7.28404 1.00011 8.51844 1.49387 9.44802 2.37905C10.3776 3.26423 10.9311 4.473 10.994 5.75507C11.0569 7.03714 10.6243 8.29428 9.7858 9.26617C8.9473 10.2381 7.76714 10.8502 6.48971 10.976C5.21227 11.1017 3.93542 10.7313 2.92355 9.94149C1.91168 9.15169 1.24232 8.003 1.05408 6.73327C0.865832 5.46354 1.17312 4.17005 1.91231 3.12065C2.65151 2.07125 3.76597 1.34632 5.02494 1.096C5.34616 1.03205 5.67291 0.999895 6.00044 1Z" stroke="#0F0F0F" stroke-width="1.2" stroke-linecap="square"/>
<path fill-rule="evenodd" clip-rule="evenodd" d="M6.60033 8.14395C6.60148 8.22288 6.58647 8.30122 6.5562 8.37413C6.52594 8.44704 6.48106 8.51299 6.42435 8.5679C6.36943 8.62462 6.30349 8.66949 6.23058 8.69976C6.15766 8.73002 6.07933 8.74504 6.00039 8.74388C5.92145 8.74504 5.84312 8.73002 5.77021 8.69976C5.69729 8.66949 5.63135 8.62462 5.57643 8.5679C5.51972 8.51299 5.47485 8.44704 5.44458 8.37413C5.41432 8.30122 5.3993 8.22288 5.40045 8.14395C5.3993 8.06501 5.41432 7.98667 5.44458 7.91376C5.47485 7.84085 5.51972 7.7749 5.57643 7.71999C5.63135 7.66327 5.69729 7.6184 5.77021 7.58814C5.84312 7.55787 5.92145 7.54285 6.00039 7.54401C6.07933 7.54285 6.15766 7.55787 6.23058 7.58814C6.30349 7.6184 6.36943 7.66327 6.42435 7.71999C6.48106 7.7749 6.52594 7.84085 6.5562 7.91376C6.58647 7.98667 6.60148 8.06501 6.60033 8.14395Z" fill="#0F0F0F"/>
<path d="M6 4V6.5" stroke="#0F0F0F" stroke-width="1.2" stroke-linecap="round" stroke-linejoin="round"/>
</svg>
