<svg width="17" height="16" viewBox="0 0 17 16" fill="none" xmlns="http://www.w3.org/2000/svg">
<g clip-path="url(#clip0_1758_18333)">
<path fill-rule="evenodd" clip-rule="evenodd" d="M9 7.5V2.5C9 2.224 8.8208 2 8.6 2C8.3792 2 8.2 2.224 8.2 2.5V7.5H3C2.724 7.5 2.5 7.6792 2.5 7.9C2.5 8.1208 2.724 8.3 3 8.3H8.2V13.5C8.2 13.776 8.3792 14 8.6 14C8.8208 14 9 13.776 9 13.5V8.3H14C14.276 8.3 14.5 8.1208 14.5 7.9C14.5 7.6792 14.276 7.5 14 7.5H9Z" fill="#0F0F0F"/>
</g>
<defs>
<clipPath id="clip0_1758_18333">
<rect width="16" height="16" fill="white" transform="translate(0.5)"/>
</clipPath>
</defs>
</svg>
