<svg width="36" height="36" viewBox="0 0 36 36" fill="none" xmlns="http://www.w3.org/2000/svg">
<path d="M18 36C17.413 36 16.8194 35.9708 16.2358 35.9133C15.6519 35.8558 15.064 35.7686 14.4883 35.6542C13.9126 35.5396 13.3361 35.3952 12.775 35.2249C12.2136 35.0547 11.654 34.8545 11.1118 34.6298C10.5699 34.4054 10.0327 34.1514 9.51491 33.8746C8.99744 33.598 8.48769 33.2925 7.99978 32.9665C7.5115 32.6402 7.03418 32.2862 6.58102 31.9142C6.12771 31.5422 5.68732 31.1432 5.27197 30.7279C4.85691 30.3127 4.4578 29.8724 4.08589 29.4191C3.71356 28.9654 3.35952 28.4881 3.03354 28.0002C2.70751 27.5123 2.40197 27.0026 2.12542 26.4851C1.84864 25.9674 1.59456 25.4301 1.37023 24.8884C1.1455 24.3459 0.945301 23.7864 0.775133 23.2252C0.6048 22.6638 0.460375 22.0873 0.345824 21.5116C0.23138 20.936 0.144189 20.3481 0.0867187 19.7643C0.0291777 19.1806 0 18.587 0 18C0 17.413 0.0291777 16.8194 0.0867069 16.2358C0.144189 15.6519 0.23138 15.064 0.345848 14.4883C0.460375 13.9127 0.6048 13.3362 0.775086 12.775C0.945301 12.2136 1.1455 11.6541 1.37017 11.1118C1.59456 10.5699 1.84864 10.0326 2.12539 9.51489C2.40197 8.99744 2.70751 8.48769 3.03354 7.99978C3.3598 7.5115 3.71383 7.03418 4.08579 6.58102C4.45776 6.12771 4.85685 5.68732 5.27211 5.27197C5.68732 4.85685 6.12771 4.45776 6.58089 4.08589C7.03418 3.71383 7.5115 3.3598 7.99977 3.03354C8.48769 2.70751 8.99744 2.40197 9.51486 2.12542C10.0326 1.84864 10.5699 1.59456 11.1116 1.37023C11.6541 1.1455 12.2136 0.945301 12.7748 0.775133C13.3362 0.6048 13.9127 0.460375 14.4884 0.345824C15.064 0.23138 15.6519 0.144189 16.2357 0.0867187C16.8194 0.0291777 17.413 0 18 0C18.587 0 19.1806 0.0291777 19.7642 0.0867069C20.3481 0.144189 20.936 0.23138 21.5117 0.345848C22.0873 0.460363 22.6638 0.604788 23.2251 0.775098C23.7865 0.945325 24.346 1.14553 24.8882 1.37017C25.4301 1.59456 25.9674 1.84864 26.4851 2.12539C27.0026 2.40197 27.5123 2.70751 28.0002 3.03354C28.4885 3.3598 28.9658 3.71383 29.419 4.08579C29.8724 4.4578 30.3127 4.85691 30.728 5.2721C31.1432 5.68732 31.5422 6.12771 31.9141 6.58089C32.2862 7.03418 32.6402 7.5115 32.9665 7.99977C33.2925 8.48769 33.598 8.99744 33.8746 9.51486C34.1514 10.0327 34.4054 10.5699 34.6298 11.1116C34.8545 11.654 35.0547 12.2136 35.2249 12.7748C35.3952 13.3361 35.5396 13.9126 35.6542 14.4884C35.7686 15.064 35.8558 15.6519 35.9133 16.2357C35.9708 16.8194 36 17.413 36 18C36 18.587 35.9708 19.1806 35.9133 19.7642C35.8558 20.3481 35.7686 20.936 35.6542 21.5117C35.5396 22.0873 35.3952 22.6639 35.2249 23.2251C35.0547 23.7865 34.8545 24.346 34.6298 24.8882C34.4054 25.4301 34.1514 25.9673 33.8746 26.4851C33.598 27.0026 33.2925 27.5123 32.9665 28.0002C32.6402 28.4885 32.2862 28.9658 31.9142 29.419C31.5422 29.8724 31.1431 30.3127 30.7279 30.728C30.3127 31.1431 29.8724 31.5422 29.4191 31.9141C28.9654 32.2864 28.4881 32.6405 28.0002 32.9665C27.5123 33.2925 27.0026 33.598 26.4851 33.8746C25.9673 34.1514 25.4301 34.4054 24.8884 34.6298C24.346 34.8545 23.7864 35.0547 23.2252 35.2249C22.6639 35.3952 22.0874 35.5396 21.5116 35.6542C20.936 35.7686 20.3481 35.8558 19.7643 35.9133C19.1806 35.9708 18.587 36 18 36Z" fill="black" fill-opacity="0.35"/>
<path fill-rule="evenodd" clip-rule="evenodd" d="M13.9902 24.1364V11.8636C13.9902 11.6828 14.0188 11.5089 14.0758 11.3418C14.1329 11.1747 14.2143 11.0272 14.3197 10.8994C14.4252 10.7716 14.5469 10.673 14.6847 10.6038C14.8226 10.5346 14.9661 10.5 15.1152 10.5C15.2644 10.5 15.4079 10.5346 15.5458 10.6038C15.6836 10.673 15.8053 10.7716 15.9107 10.8994C16.0162 11.0272 16.0975 11.1747 16.1546 11.3418C16.2117 11.5089 16.2402 11.6828 16.2402 11.8636V24.1364C16.2402 24.3172 16.2117 24.4911 16.1546 24.6582C16.0975 24.8253 16.0162 24.9727 15.9107 25.1006C15.8053 25.2284 15.6836 25.327 15.5458 25.3962C15.4079 25.4654 15.2644 25.5 15.1152 25.5C14.9661 25.5 14.8226 25.4654 14.6847 25.3962C14.5469 25.327 14.4252 25.2284 14.3197 25.1006C14.2143 24.9727 14.1329 24.8253 14.0758 24.6582C14.0188 24.4911 13.9902 24.3172 13.9902 24.1364Z" fill="white"/>
<path fill-rule="evenodd" clip-rule="evenodd" d="M19.7598 24.1364V11.8636C19.7598 11.6828 19.7883 11.5089 19.8454 11.3418C19.9025 11.1747 19.9838 11.0272 20.0893 10.8994C20.1947 10.7716 20.3164 10.673 20.4542 10.6038C20.5921 10.5346 20.7356 10.5 20.8848 10.5C21.0339 10.5 21.1774 10.5346 21.3153 10.6038C21.4531 10.673 21.5748 10.7716 21.6803 10.8994C21.7857 11.0272 21.8671 11.1747 21.9242 11.3418C21.9812 11.5089 22.0098 11.6828 22.0098 11.8636V24.1364C22.0098 24.3172 21.9812 24.4911 21.9242 24.6582C21.8671 24.8253 21.7857 24.9727 21.6803 25.1006C21.5748 25.2284 21.4531 25.327 21.3153 25.3962C21.1774 25.4654 21.0339 25.5 20.8848 25.5C20.7356 25.5 20.5921 25.4654 20.4542 25.3962C20.3164 25.327 20.1947 25.2284 20.0893 25.1006C19.9838 24.9727 19.9025 24.8253 19.8454 24.6582C19.7883 24.4911 19.7598 24.3172 19.7598 24.1364Z" fill="white"/>
</svg>
