<svg width="38" height="38" viewBox="0 0 38 38" fill="none" xmlns="http://www.w3.org/2000/svg">
<path d="M5.42885 8.1423H23.0717C24.5708 8.1423 25.786 9.35753 25.786 10.8566V25.7852H5.42885C3.92979 25.7852 2.71456 24.5699 2.71456 23.0709V10.8566C2.71456 9.35753 3.92979 8.1423 5.42885 8.1423Z" stroke="#499690" stroke-width="2.71429"/>
<path d="M25.7868 13.572H32.2335C32.8204 13.572 33.3408 13.9492 33.5233 14.507L35.2195 19.6899C35.2641 19.8261 35.2868 19.9686 35.2868 20.112V24.4291C35.2868 25.1787 34.6792 25.7863 33.9297 25.7863H25.7868V13.572Z" stroke="#499690" stroke-width="2.71429"/>
<line x1="25.7871" y1="18.9978" x2="2.71568" y2="18.9978" stroke="#499690" stroke-width="2.71429"/>
<circle cx="8.82227" cy="26.4648" r="3.39286" fill="white" stroke="#499690" stroke-width="2.71429"/>
<circle cx="26.4648" cy="26.4648" r="3.39286" fill="white" stroke="#499690" stroke-width="2.71429"/>
</svg>
