<svg width="30" height="30" viewBox="0 0 30 30" fill="none" xmlns="http://www.w3.org/2000/svg">
<path d="M18 12H23" stroke="#499690" stroke-width="1.5" stroke-linecap="square"/>
<path d="M18 15H23" stroke="#499690" stroke-width="1.5" stroke-linecap="square"/>
<path d="M18 18H23" stroke="#499690" stroke-width="1.5" stroke-linecap="square"/>
<path d="M4 23V8.78258C4 8.35869 4.26532 7.97861 4.66563 7.8392C6.57014 7.17598 9.57376 6.33547 14.3278 7.84901C14.7317 7.9776 15 8.35827 15 8.78215V23" stroke="#499690" stroke-width="1.5" stroke-linecap="round"/>
<path d="M4 23C5.92064 22.3691 9.2381 21.1067 15 22.9996" stroke="#499690" stroke-width="1.5" stroke-linecap="round"/>
<path d="M26 23V8.78258C26 8.35869 25.7347 7.97861 25.3344 7.8392C23.4299 7.17598 20.4262 6.33547 15.6722 7.84901C15.2683 7.9776 15 8.35827 15 8.78215V23" stroke="#499690" stroke-width="1.5" stroke-linecap="round"/>
<path d="M26 23C24.0794 22.3691 20.7619 21.1067 15 22.9996" stroke="#499690" stroke-width="1.5" stroke-linecap="round"/>
</svg>
