<svg width="19" height="19" viewBox="0 0 19 19" fill="none" xmlns="http://www.w3.org/2000/svg">
<path fill-rule="evenodd" clip-rule="evenodd" d="M14.2939 12.3495V12.824L14.5638 13.2142L15.4114 14.4395H3.73067L4.57823 13.2142L4.84816 12.824V12.3495V7.89012C4.84816 5.18204 6.99153 3.03953 9.57102 3.03953C12.1505 3.03953 14.2939 5.18204 14.2939 7.89012V12.3495ZM17.4862 14.7672L15.8139 12.3495V7.89012C15.8139 4.37174 13.0189 1.51953 9.57102 1.51953C6.12319 1.51953 3.32816 4.37174 3.32816 7.89012V12.3495L1.65581 14.7672C1.30712 15.2713 1.66792 15.9595 2.28084 15.9595H6.23533C6.58163 17.4816 7.94322 18.6176 9.57015 18.6176C11.1971 18.6176 12.5587 17.4816 12.905 15.9595H16.8612C17.4741 15.9595 17.8349 15.2713 17.4862 14.7672ZM11.3112 15.9595H7.82908C8.12271 16.6295 8.79177 17.0976 9.57015 17.0976C10.3485 17.0976 11.0176 16.6295 11.3112 15.9595Z" fill="black"/>
</svg>
