<svg width="14" height="14" viewBox="0 0 14 14" fill="none" xmlns="http://www.w3.org/2000/svg">
<path d="M11.3134 2.68665C10.1694 1.54268 8.61782 0.9 7 0.9C5.38218 0.9 3.83062 1.54268 2.68665 2.68665C1.54268 3.83062 0.9 5.38218 0.9 7C0.9 8.61782 1.54268 10.1694 2.68665 11.3134C3.83062 12.4573 5.38218 13.1 7 13.1C8.61782 13.1 10.1694 12.4573 11.3134 11.3134C12.4573 10.1694 13.1 8.61782 13.1 7C13.1 5.38218 12.4573 3.83062 11.3134 2.68665ZM10.5658 10.5658C9.62012 11.5116 8.33745 12.0429 7 12.0429C5.66255 12.0429 4.37988 11.5116 3.43416 10.5658C2.48844 9.62012 1.95714 8.33745 1.95714 7C1.95714 5.66255 2.48844 4.37988 3.43416 3.43416C4.37988 2.48844 5.66255 1.95714 7 1.95714C8.33745 1.95714 9.62012 2.48844 10.5658 3.43416C11.5116 4.37988 12.0429 5.66255 12.0429 7C12.0429 8.33745 11.5116 9.62012 10.5658 10.5658ZM7.52528 10.311C7.66459 10.1717 7.74286 9.98273 7.74286 9.78571C7.74286 9.5887 7.66459 9.39975 7.52528 9.26044C7.38597 9.12112 7.19702 9.04286 7 9.04286C6.80298 9.04286 6.61403 9.12112 6.47472 9.26044C6.33541 9.39975 6.25714 9.5887 6.25714 9.78571C6.25714 9.98273 6.33541 10.1717 6.47472 10.311C6.61403 10.4503 6.80298 10.5286 7 10.5286C7.19702 10.5286 7.38597 10.4503 7.52528 10.311ZM7.37376 3.62624C7.27463 3.52712 7.14019 3.47143 7 3.47143C6.85981 3.47143 6.72537 3.52712 6.62624 3.62624C6.52712 3.72537 6.47143 3.85981 6.47143 4V7.85714C6.47143 7.99733 6.52712 8.13177 6.62624 8.2309C6.72537 8.33003 6.85981 8.38571 7 8.38571C7.14019 8.38571 7.27463 8.33003 7.37376 8.2309C7.47288 8.13177 7.52857 7.99733 7.52857 7.85714V4C7.52857 3.85981 7.47288 3.72537 7.37376 3.62624Z" fill="#777777" stroke="#777777" stroke-width="0.2"/>
</svg>
