<svg width="20" height="20" viewBox="0 0 20 20" fill="none" xmlns="http://www.w3.org/2000/svg">
<path d="M10.6594 1.91107C10.9849 1.58563 11.5125 1.58563 11.838 1.91107L14.338 4.41107C14.6634 4.73651 14.6634 5.26414 14.338 5.58958L11.838 8.08958C11.5125 8.41502 10.9849 8.41502 10.6594 8.08958C10.334 7.76414 10.334 7.23651 10.6594 6.91107L11.7369 5.83366H10.4154C7.45894 5.83366 4.9987 8.2939 4.9987 11.2503C4.9987 14.2068 7.45894 16.667 10.4154 16.667C13.3718 16.667 15.832 14.2068 15.832 11.2503C15.832 10.7901 16.2051 10.417 16.6654 10.417C17.1256 10.417 17.4987 10.7901 17.4987 11.2503C17.4987 15.1272 14.2923 18.3337 10.4154 18.3337C6.53846 18.3337 3.33203 15.1272 3.33203 11.2503C3.33203 7.37342 6.53846 4.16699 10.4154 4.16699H11.7369L10.6594 3.08958C10.334 2.76414 10.334 2.23651 10.6594 1.91107Z" fill="#499690"/>
</svg>
