<svg width="18" height="19" viewBox="0 0 18 19" fill="none" xmlns="http://www.w3.org/2000/svg">
<mask id="path-1-outside-1_1024_22320" maskUnits="userSpaceOnUse" x="0" y="-0.5" width="18" height="19" fill="black">
<rect fill="white" y="-0.5" width="18" height="19"/>
<path fill-rule="evenodd" clip-rule="evenodd" d="M5.66667 5.5C5.66667 3.65905 7.15905 2.16667 9 2.16667C10.8409 2.16667 12.3333 3.65905 12.3333 5.5C12.3333 7.34095 10.8409 8.83333 9 8.83333C7.15905 8.83333 5.66667 7.34095 5.66667 5.5ZM9 0.5C6.23858 0.5 4 2.73858 4 5.5C4 8.26142 6.23858 10.5 9 10.5C11.7614 10.5 14 8.26142 14 5.5C14 2.73858 11.7614 0.5 9 0.5ZM5.44445 13.9636C3.97169 13.9636 2.77778 16.3733 2.77778 18H1C1 15.2888 2.98985 12 5.44445 12H12.5556C15.0102 12 17 15.2888 17 18H15.2222C15.2222 16.3733 14.0283 13.9636 12.5556 13.9636H5.44445Z"/>
</mask>
<path fill-rule="evenodd" clip-rule="evenodd" d="M5.66667 5.5C5.66667 3.65905 7.15905 2.16667 9 2.16667C10.8409 2.16667 12.3333 3.65905 12.3333 5.5C12.3333 7.34095 10.8409 8.83333 9 8.83333C7.15905 8.83333 5.66667 7.34095 5.66667 5.5ZM9 0.5C6.23858 0.5 4 2.73858 4 5.5C4 8.26142 6.23858 10.5 9 10.5C11.7614 10.5 14 8.26142 14 5.5C14 2.73858 11.7614 0.5 9 0.5ZM5.44445 13.9636C3.97169 13.9636 2.77778 16.3733 2.77778 18H1C1 15.2888 2.98985 12 5.44445 12H12.5556C15.0102 12 17 15.2888 17 18H15.2222C15.2222 16.3733 14.0283 13.9636 12.5556 13.9636H5.44445Z" fill="#499690"/>
<path fill-rule="evenodd" clip-rule="evenodd" d="M5.66667 5.5C5.66667 3.65905 7.15905 2.16667 9 2.16667C10.8409 2.16667 12.3333 3.65905 12.3333 5.5C12.3333 7.34095 10.8409 8.83333 9 8.83333C7.15905 8.83333 5.66667 7.34095 5.66667 5.5ZM9 0.5C6.23858 0.5 4 2.73858 4 5.5C4 8.26142 6.23858 10.5 9 10.5C11.7614 10.5 14 8.26142 14 5.5C14 2.73858 11.7614 0.5 9 0.5ZM5.44445 13.9636C3.97169 13.9636 2.77778 16.3733 2.77778 18H1C1 15.2888 2.98985 12 5.44445 12H12.5556C15.0102 12 17 15.2888 17 18H15.2222C15.2222 16.3733 14.0283 13.9636 12.5556 13.9636H5.44445Z" fill="black"/>
<path d="M2.77778 18V18.2C2.88823 18.2 2.97778 18.1105 2.97778 18H2.77778ZM1 18H0.8C0.8 18.1105 0.889543 18.2 1 18.2V18ZM17 18V18.2C17.1105 18.2 17.2 18.1105 17.2 18H17ZM15.2222 18H15.0222C15.0222 18.1105 15.1118 18.2 15.2222 18.2V18ZM9 1.96667C7.04859 1.96667 5.46667 3.54859 5.46667 5.5H5.86667C5.86667 3.76951 7.26951 2.36667 9 2.36667V1.96667ZM12.5333 5.5C12.5333 3.54859 10.9514 1.96667 9 1.96667V2.36667C10.7305 2.36667 12.1333 3.76951 12.1333 5.5H12.5333ZM9 9.03333C10.9514 9.03333 12.5333 7.45141 12.5333 5.5H12.1333C12.1333 7.23049 10.7305 8.63333 9 8.63333V9.03333ZM5.46667 5.5C5.46667 7.45141 7.04859 9.03333 9 9.03333V8.63333C7.26951 8.63333 5.86667 7.23049 5.86667 5.5H5.46667ZM4.2 5.5C4.2 2.84903 6.34903 0.7 9 0.7V0.3C6.12812 0.3 3.8 2.62812 3.8 5.5H4.2ZM9 10.3C6.34903 10.3 4.2 8.15097 4.2 5.5H3.8C3.8 8.37188 6.12812 10.7 9 10.7V10.3ZM13.8 5.5C13.8 8.15097 11.651 10.3 9 10.3V10.7C11.8719 10.7 14.2 8.37188 14.2 5.5H13.8ZM9 0.7C11.651 0.7 13.8 2.84903 13.8 5.5H14.2C14.2 2.62812 11.8719 0.3 9 0.3V0.7ZM2.97778 18C2.97778 17.2278 3.26368 16.2538 3.73041 15.4746C4.20383 14.6841 4.81847 14.1636 5.44445 14.1636V13.7636C4.59766 13.7636 3.87896 14.448 3.38725 15.269C2.88883 16.1012 2.57778 17.1454 2.57778 18H2.97778ZM1 18.2H2.77778V17.8H1V18.2ZM5.44445 11.8C4.12422 11.8 2.96013 12.6816 2.13734 13.8694C1.31188 15.0611 0.8 16.6003 0.8 18H1.2C1.2 16.6885 1.68304 15.2277 2.46616 14.0972C3.25194 12.9628 4.31007 12.2 5.44445 12.2V11.8ZM12.5556 11.8H5.44445V12.2H12.5556V11.8ZM17.2 18C17.2 16.6003 16.6881 15.0611 15.8627 13.8694C15.0399 12.6816 13.8758 11.8 12.5556 11.8V12.2C13.6899 12.2 14.7481 12.9628 15.5338 14.0972C16.317 15.2277 16.8 16.6885 16.8 18H17.2ZM15.2222 18.2H17V17.8H15.2222V18.2ZM12.5556 14.1636C13.1815 14.1636 13.7962 14.6841 14.2696 15.4746C14.7363 16.2538 15.0222 17.2278 15.0222 18H15.4222C15.4222 17.1454 15.1112 16.1012 14.6128 15.269C14.121 14.448 13.4023 13.7636 12.5556 13.7636V14.1636ZM5.44445 14.1636H12.5556V13.7636H5.44445V14.1636Z" fill="black" mask="url(#path-1-outside-1_1024_22320)"/>
</svg>
