<svg width="16" height="16" viewBox="0 0 16 16" fill="none" xmlns="http://www.w3.org/2000/svg">
<path d="M8.0026 2.66732C6.58812 2.66732 5.23156 3.22922 4.23137 4.22941C3.23117 5.22961 2.66927 6.58616 2.66927 8.00065C2.66927 9.41514 3.23117 10.7717 4.23137 11.7719C5.23156 12.7721 6.58812 13.334 8.0026 13.334C9.41709 13.334 10.7736 12.7721 11.7738 11.7719C12.774 10.7717 13.3359 9.41514 13.3359 8.00065C13.3359 6.58616 12.774 5.22961 11.7738 4.22941C10.7736 3.22922 9.41709 2.66732 8.0026 2.66732ZM1.33594 8.00065C1.33594 4.31865 4.3206 1.33398 8.0026 1.33398C11.6846 1.33398 14.6693 4.31865 14.6693 8.00065C14.6693 11.6827 11.6846 14.6673 8.0026 14.6673C4.3206 14.6673 1.33594 11.6827 1.33594 8.00065Z" fill="#333333"/>
<path d="M8 6.66667C8.17681 6.66667 8.34638 6.7369 8.4714 6.86193C8.59643 6.98695 8.66667 7.15652 8.66667 7.33333V11.3333C8.66667 11.5101 8.59643 11.6797 8.4714 11.8047C8.34638 11.9298 8.17681 12 8 12C7.82319 12 7.65362 11.9298 7.5286 11.8047C7.40357 11.6797 7.33333 11.5101 7.33333 11.3333V7.33333C7.33333 7.15652 7.40357 6.98695 7.5286 6.86193C7.65362 6.7369 7.82319 6.66667 8 6.66667ZM9 5C9 5.26522 8.89464 5.51957 8.70711 5.70711C8.51957 5.89464 8.26522 6 8 6C7.73478 6 7.48043 5.89464 7.29289 5.70711C7.10536 5.51957 7 5.26522 7 5C7 4.73478 7.10536 4.48043 7.29289 4.29289C7.48043 4.10536 7.73478 4 8 4C8.26522 4 8.51957 4.10536 8.70711 4.29289C8.89464 4.48043 9 4.73478 9 5Z" fill="#333333"/>
</svg>
