<svg width="17" height="17" viewBox="0 0 17 17" fill="none" xmlns="http://www.w3.org/2000/svg">
<circle cx="8.5" cy="8.5" r="8.5" fill="#CCCCCC"/>
<path d="M7.85 12.5C7.85 12.859 8.14101 13.15 8.5 13.15C8.85899 13.15 9.15 12.859 9.15 12.5L7.85 12.5ZM8.95962 4.04038C8.70578 3.78654 8.29422 3.78654 8.04038 4.04038L3.90381 8.17696C3.64997 8.4308 3.64997 8.84235 3.90381 9.09619C4.15765 9.35003 4.5692 9.35003 4.82304 9.09619L8.5 5.41924L12.177 9.09619C12.4308 9.35003 12.8424 9.35003 13.0962 9.09619C13.35 8.84235 13.35 8.4308 13.0962 8.17696L8.95962 4.04038ZM9.15 12.5L9.15 4.5L7.85 4.5L7.85 12.5L9.15 12.5Z" fill="white"/>
</svg>
