<svg width="20" height="20" viewBox="0 0 20 20" fill="none" xmlns="http://www.w3.org/2000/svg">
<path fill-rule="evenodd" clip-rule="evenodd" d="M9.64652 2.06051C9.84178 1.86525 10.1584 1.86525 10.3536 2.06051L16.5001 8.20696V8.49985V16.4998C16.5001 16.776 16.2762 16.9998 16.0001 16.9998H4.00008C3.72393 16.9998 3.50008 16.776 3.50008 16.4998V8.49985V8.20696L9.64652 2.06051ZM2.50008 9.20696L1.35363 10.3534L1.00008 10.707L0.292969 9.99985L0.646522 9.6463L8.93942 1.3534C9.5252 0.767615 10.4749 0.767617 11.0607 1.3534L19.3536 9.6463L19.7072 9.99985L19.0001 10.707L18.6465 10.3534L17.5001 9.20696V16.4998C17.5001 17.3283 16.8285 17.9998 16.0001 17.9998H4.00008C3.17165 17.9998 2.50008 17.3283 2.50008 16.4998V9.20696Z" fill="white"/>
<g opacity="0.2">
<path fill-rule="evenodd" clip-rule="evenodd" d="M9.64645 2.06051C9.84171 1.86525 10.1583 1.86525 10.3536 2.06051L16.5 8.20696V8.49985V16.4998C16.5 16.776 16.2761 16.9998 16 16.9998H4C3.72386 16.9998 3.5 16.776 3.5 16.4998V8.49985V8.20696L9.64645 2.06051Z" fill="white"/>
<path d="M10.3536 2.06051C10.1583 1.86525 9.84171 1.86525 9.64645 2.06051L3.5 8.20696V8.49985V16.4998C3.5 16.776 3.72386 16.9998 4 16.9998H16C16.2761 16.9998 16.5 16.776 16.5 16.4998V8.49985V8.20696L10.3536 2.06051Z" fill="white"/>
</g>
<path d="M12 16.5L12 11.5L8 11.5L8 16.5" stroke="white" stroke-linecap="square"/>
</svg>
