<svg width="60" height="60" viewBox="0 0 60 60" fill="none" xmlns="http://www.w3.org/2000/svg">
<circle cx="30.0014" cy="21.4091" r="15.9545" fill="#B0B0FF"/>
<path d="M18.6271 31.7795C18.2158 30.9633 18.8091 30 19.7231 30H40.2833C41.1973 30 41.7906 30.9633 41.3793 31.7795L39.26 35.9858C39.2097 36.0857 39.1732 36.192 39.1517 36.3018L38.1749 41.2817C38.0619 41.8574 37.5573 42.2727 36.9705 42.2727H23.0358C22.4491 42.2727 21.9445 41.8574 21.8315 41.2817L20.8547 36.3018C20.8332 36.192 20.7967 36.0857 20.7464 35.9858L18.6271 31.7795Z" fill="#B0B0FF"/>
<path d="M19.5703 23.8632L20.0305 21.3983C20.7976 18.9541 23.1467 16.7734 26.2628 18.9461C26.6783 19.3548 27.6339 20.6969 28.1325 21.6777C28.4441 22.2908 28.7749 23.2496 28.7749 25.0905C28.7749 25.7041 27.2044 27.9034 25.0163 26.582C22.1661 24.8607 25.8473 19.9678 28.1325 17.72C29.3789 16.494 31.8303 15.168 33.326 19.0914C34.4702 22.0928 34.9112 23.1766 34.9112 25.0905C34.9112 25.9078 34.2976 27.545 32.495 27.195C30.3133 26.7715 31.6641 23.1081 32.495 21.6777C33.1183 20.656 34.3647 18.333 36.2344 18.333C38.104 18.333 39.8203 18.9541 39.9737 22.6243V24.3002" stroke="#3535A8" stroke-width="1.84091"/>
<rect x="21.4102" y="42.2729" width="17.1818" height="7.36364" rx="1.22727" fill="#3535A8"/>
<path d="M22.6367 49.6362H37.364V53.318C37.364 53.9959 36.8145 54.5453 36.1367 54.5453H23.864C23.1862 54.5453 22.6367 53.9959 22.6367 53.318V49.6362Z" fill="#3535A8"/>
</svg>
