<svg width="60" height="60" viewBox="0 0 60 60" fill="none" xmlns="http://www.w3.org/2000/svg">
<path d="M25.2389 27.6793C25.1593 26.9529 25.7282 26.3184 26.4589 26.3184H51.9481C52.6788 26.3184 53.2476 26.9529 53.1681 27.6792L50.6142 50.9974C50.546 51.6198 50.0203 52.0911 49.3942 52.0911H29.0128C28.3867 52.0911 27.861 51.6198 27.7928 50.9974L25.2389 27.6793Z" fill="#FFC200"/>
<rect x="23.8633" y="22.6362" width="30.6818" height="6.13636" rx="1.22727" fill="#FFD54E"/>
<rect x="31.2266" y="9.13623" width="9.81818" height="9.81818" rx="4.90909" fill="#B0B0FF"/>
<rect x="42.2695" y="7.90918" width="4.90909" height="4.90909" rx="2.45455" fill="#B0B0FF"/>
<rect x="15.2695" y="6.68164" width="4.90909" height="39.2727" rx="2.45455" fill="#CDD2DE"/>
<path d="M5.45312 39.8183C5.45312 38.4627 6.55206 37.3638 7.90767 37.3638H27.544C28.8996 37.3638 29.9986 38.4627 29.9986 39.8183V54.5456H12.8168C8.74993 54.5456 5.45312 51.2488 5.45312 47.182V39.8183Z" fill="#6666DD"/>
<path d="M5.45312 38.5908C5.45312 37.2352 6.55206 36.1362 7.90767 36.1362H27.544C28.8996 36.1362 29.9986 37.2352 29.9986 38.5908V42.2726H5.45312V38.5908Z" fill="#6666DD"/>
<rect x="15.2695" y="30" width="4.90909" height="6.13636" fill="#3535A8"/>
<path d="M20.1836 50.8635C20.1836 50.1857 20.7331 49.6362 21.4109 49.6362H33.6836C35.0392 49.6362 36.1381 50.7352 36.1381 52.0908V53.318C36.1381 53.9959 35.5887 54.5453 34.9109 54.5453H23.8654C21.832 54.5453 20.1836 52.8969 20.1836 50.8635Z" fill="#6666DD"/>
</svg>
