<svg width="60" height="60" viewBox="0 0 60 60" fill="none" xmlns="http://www.w3.org/2000/svg">
<rect x="46.4648" y="52.6885" width="34.2071" height="11.4987" rx="1.22727" transform="rotate(-140.019 46.4648 52.6885)" fill="#1FB279"/>
<rect x="43.5039" y="45.1108" width="3.51506" height="3.51506" rx="1.75753" transform="rotate(-50.0194 43.5039 45.1108)" fill="#00824D"/>
<path fill-rule="evenodd" clip-rule="evenodd" d="M7.73597 26.3178C6.87935 26.3178 6.29133 27.1744 6.70727 27.9232C7.39772 29.1663 8.32327 30.3063 9.47789 31.2745C14.536 35.5158 22.0746 34.8537 26.3159 29.7956C30.5572 24.7375 29.8951 17.1989 24.837 12.9576C19.779 8.71626 12.2403 9.37838 7.999 14.4365C7.55352 14.9677 7.16214 15.5263 6.82427 16.1056C6.388 16.8536 6.97507 17.7269 7.841 17.7269L15.9855 17.7269C16.3469 17.7269 16.6899 17.8861 16.9231 18.1622L19.5148 21.2304C19.9011 21.6877 19.9011 22.357 19.5148 22.8143L16.9231 25.8825C16.6899 26.1585 16.3469 26.3178 15.9855 26.3178L7.73597 26.3178Z" fill="#1FB279"/>
<path d="M45.1405 13.1422C46.696 11.4902 49.2963 11.4119 50.9484 12.9674C52.6005 14.5229 52.6787 17.1232 51.1232 18.7753L34.1655 36.7856L28.1828 31.1526L45.1405 13.1422Z" fill="#0F36B2"/>
<rect x="29.6914" y="32.4731" width="4.20698" height="9.61791" transform="rotate(43.2757 29.6914 32.4731)" fill="#CDD2DE"/>
<path d="M23.5775 39.0998L26.623 41.9673L26.1183 45.5544L18.6023 53.537L12.5112 47.8019L20.0272 39.8193L23.5775 39.0998Z" fill="#CDD2DE"/>
</svg>
