<svg width="60" height="62" viewBox="0 0 60 62" fill="none" xmlns="http://www.w3.org/2000/svg">
<rect x="10.0547" y="55.6221" width="9.11431" height="39.9218" rx="2.45455" transform="rotate(-135 10.0547 55.6221)" fill="#554435"/>
<rect x="18.4961" y="47.1592" width="9.08454" height="10.788" transform="rotate(-135 18.4961 47.1592)" fill="#7C614A"/>
<rect x="33.4023" y="47.0086" width="29.9537" height="29.9537" rx="14.9768" transform="rotate(-135 33.4023 47.0086)" fill="white" stroke="#D1B69F" stroke-width="6.13636"/>
<path d="M31.6755 29.1214C31.68 28.3529 31.7501 27.7314 31.8857 27.2567C32.0213 26.7821 32.2134 26.4024 32.462 26.1176C32.7107 25.8283 33.0474 25.5503 33.4723 25.2836C33.9424 24.9853 34.3041 24.6779 34.5572 24.3615C34.8149 24.045 34.9437 23.6789 34.9437 23.263C34.9437 22.9556 34.8691 22.6821 34.7199 22.4426C34.5708 22.203 34.3674 22.0177 34.1097 21.8866C33.8566 21.7555 33.574 21.6899 33.2621 21.6899C32.9593 21.6899 32.6768 21.7577 32.4146 21.8933C32.1524 22.0244 31.9377 22.2211 31.7704 22.4832C31.6032 22.7409 31.5128 23.0483 31.4992 23.4054H28.7734C28.7915 22.5375 28.9995 21.8052 29.3972 21.2085C29.7996 20.6073 30.3375 20.1598 31.011 19.866C31.6891 19.5676 32.4462 19.4185 33.2825 19.4185C34.1775 19.4185 34.9686 19.5676 35.6557 19.866C36.3473 20.1643 36.8852 20.5983 37.2694 21.1678C37.6582 21.7329 37.8525 22.4019 37.8525 23.1749C37.8525 23.9298 37.674 24.5762 37.3169 25.1141C36.9598 25.6475 36.4445 26.1153 35.7709 26.5177C35.3957 26.7437 35.0974 26.9719 34.8759 27.2025C34.6544 27.4285 34.4871 27.6952 34.3741 28.0026C34.2657 28.31 34.2114 28.6829 34.2114 29.1214V29.3383H31.6755V29.1214Z" fill="#554435"/>
<path d="M34.3741 33.4948L31.551 33.4948L31.551 31.0402H33.0011H34.3741L34.3741 33.4948Z" fill="#554435"/>
</svg>
