<svg width="50" height="50" viewBox="0 0 50 50" fill="none" xmlns="http://www.w3.org/2000/svg">
<path d="M46.7145 0H3.28552C1.47098 0 0 1.47098 0 3.28552V46.7145C0 48.529 1.47098 50 3.28552 50H46.7145C48.529 50 50 48.529 50 46.7145V3.28552C50 1.47098 48.529 0 46.7145 0Z" fill="#1D1D1B"/>
<path fill-rule="evenodd" clip-rule="evenodd" d="M35.9223 19.3569C34.4277 17.9103 33.1254 16.5118 30.3765 16.3662C28.1578 16.2701 27.1454 17.6205 25.071 17.6686C23.1422 17.7166 23.2865 16.1739 19.2834 16.608C15.8105 16.994 12.7717 20.4669 13.0135 25.3382C13.2553 30.5956 16.9205 37.8779 20.3439 37.8779C22.7549 37.8298 23.3346 36.6718 25.3114 36.6718C27.7705 36.6718 28.3502 38.1183 30.2789 37.8285C33.6062 37.3463 36.7411 32.0889 36.7411 30.4019C34.9085 29.4375 33.0759 27.7973 32.8342 25.0484C32.6418 22.2995 34.3288 20.563 35.921 19.3569H35.9223Z" fill="white"/>
<path fill-rule="evenodd" clip-rule="evenodd" d="M24.3948 16.752C24.153 14.8233 25.4554 10.6264 30.0382 10C30.5685 13.2311 27.9157 16.9444 24.3948 16.752Z" fill="white"/>
</svg>
