<svg width="80" height="80" viewBox="0 0 80 80" fill="none" xmlns="http://www.w3.org/2000/svg">
<path d="M64.6892 51.4094L57.6678 43.1367L42.4688 54.9684L43.5277 58.1428L50.1647 63.5297L58.7261 65.9345L64.1131 65.165L67.5762 62.0868L67.0952 57.5656L64.6892 51.4094Z" fill="#EBEEEC"/>
<path d="M42.8672 57.9526C49.5137 65.1641 56.968 66.0053 59.6659 66.0053C63.5355 66.0053 67.8201 65.2597 67.8201 60.351C67.5269 57.7526 66.4831 50.9583 57.2644 42.5586" stroke="#2A2A2A" stroke-width="2.42003" stroke-linejoin="round"/>
<path d="M55.9851 40.753C57.5052 40.7018 57.4974 42.481 56.9194 43.2968L43.4532 57.7847C40.4196 58.4275 40.7187 56.6388 41.7945 54.9917L53.2169 42.5243C53.9797 41.6917 54.8566 40.7911 55.9851 40.753Z" fill="white" stroke="#2A2A2A" stroke-width="2.42003" stroke-linejoin="round"/>
<path d="M52.703 54.9447C54.6865 55.9501 55.7494 55.2538 56.1672 54.208C56.7431 52.7668 55.6018 51.3512 54.4964 50.2616L22.9341 19.1508C22.1319 18.3601 21.0532 17.7533 19.9577 18.0152C18.7303 18.3086 18.2489 19.1145 18.127 19.9689C17.9491 21.2156 18.8076 22.3046 19.7266 23.1657C30.7904 33.5318 49.3807 53.2607 52.703 54.9447Z" fill="white" stroke="#2A2A2A" stroke-width="2.42003" stroke-linejoin="round"/>
<path d="M21.2232 23.6537L24.2602 20.6043C24.4295 19.4276 24.5654 16.5448 23.755 14.4265C22.9446 12.3083 20.9973 13.0091 20.125 13.6242C18.0991 15.5231 14.4302 18.7721 13.4087 19.9711C12.419 21.9134 13.3614 22.927 14.7898 23.3949C14.8596 23.4177 14.9326 23.4296 15.006 23.4322L21.2232 23.6537Z" fill="#617963" stroke="#2A2A2A" stroke-width="2.42003" stroke-linejoin="round"/>
<path d="M60.9609 51.582C62.1087 52.9346 64.3796 56.5498 64.2814 60.1903" stroke="#2A2A2A" stroke-width="2.42003" stroke-linecap="round" stroke-linejoin="round"/>
</svg>
