<svg width="120" height="120" viewBox="0 0 120 120" fill="none" xmlns="http://www.w3.org/2000/svg">
<g clip-path="url(#clip0_586_15886)">
<rect width="51" height="37" transform="matrix(-1 0 0 1 72.002 35)" fill="#7A8F7C"/>
<rect width="83.52" height="11.5195" transform="matrix(-1 0 0 1 106.434 71.6055)" fill="#A4B2A5"/>
<path d="M99.2556 49.8379H92.0556C90.465 49.8379 89.1756 51.1273 89.1756 52.7178V62.7973H105.016" stroke="#333333" stroke-width="3"/>
<mask id="path-4-inside-1_586_15886" fill="white">
<path d="M109.002 73.8015C109.002 71.702 107.3 70 105.2 70H22.2152C21.1655 70 20.3145 70.851 20.3145 71.9008V83.0992C20.3145 84.149 21.1655 85 22.2152 85H107.101C108.151 85 109.002 84.149 109.002 83.0992V73.8015Z"/>
</mask>
<path d="M109.002 73.8015C109.002 71.702 107.3 70 105.2 70H22.2152C21.1655 70 20.3145 70.851 20.3145 71.9008V83.0992C20.3145 84.149 21.1655 85 22.2152 85H107.101C108.151 85 109.002 84.149 109.002 83.0992V73.8015Z" stroke="#333333" stroke-width="6" mask="url(#path-4-inside-1_586_15886)"/>
<path d="M80.4217 85.32C80.4217 89.7401 84.0051 93.3235 88.4257 93.3235C92.8462 93.3235 96.4297 89.7401 96.4297 85.32C96.4297 80.8998 92.8462 77.3164 88.4257 77.3164C84.0051 77.3164 80.4217 80.8998 80.4217 85.32Z" fill="#969696" stroke="#333333" stroke-width="3"/>
<path d="M70.462 44.0781H86.302H93.0612C94.2465 44.0781 95.364 44.631 96.0831 45.5733L99.262 49.7386L102.802 54.3775C103.308 55.0401 103.582 55.8504 103.582 56.6839V59.1726V71.4368" stroke="#333333" stroke-width="3"/>
<path d="M71.8945 71.4383V53.4391V37.8015C71.8945 35.702 70.1925 34 68.093 34H25.6223C23.5228 34 21.8208 35.702 21.8208 37.8015V53.4391V71.7655" stroke="#333333" stroke-width="3"/>
<path d="M32.8983 85.32C32.8983 89.7401 36.4817 93.3235 40.9023 93.3235C45.3228 93.3235 48.9062 89.7401 48.9062 85.32C48.9062 80.8998 45.3228 77.3164 40.9023 77.3164C36.4817 77.3164 32.8983 80.8998 32.8983 85.32Z" fill="#969696" stroke="#333333" stroke-width="3"/>
<path d="M18.0137 61.625L27.7943 61.625" stroke="#333333" stroke-width="3" stroke-linecap="round"/>
<path d="M11.7285 67.3047L24.3036 67.3047" stroke="#333333" stroke-width="3" stroke-linecap="round"/>
</g>
<defs>
<clipPath id="clip0_586_15886">
<rect width="120" height="120" fill="white"/>
</clipPath>
</defs>
</svg>
