<svg width="80" height="80" viewBox="0 0 80 80" fill="none" xmlns="http://www.w3.org/2000/svg">
<path d="M29.2812 17.8878L33.2656 25.5684H39.4282L40.8506 17.8878C38.3852 16.2758 36.9042 17.2239 34.0604 17.8877C31.7854 18.4188 29.6615 18.109 29.2812 17.8878Z" fill="#617963" stroke="#2A2A2A" stroke-width="2" stroke-linecap="round" stroke-linejoin="round"/>
<path d="M20.2652 49.9912C18.4285 38.2783 26.5807 29.2261 30.8863 26.1641L41.2264 26.4399C56.1544 31.2626 59.9293 39.0825 60.3121 42.5275C64.3311 57.3406 48.7812 62.0008 40.5038 62.4793C34.523 63.197 22.102 61.7041 20.2652 49.9912Z" fill="#A4B2A5" stroke="#2A2A2A" stroke-width="2" stroke-linecap="round" stroke-linejoin="round"/>
<path d="M31.7158 24.2699L39.8642 23.9387C40.951 23.8946 42.1728 24.4291 42.1832 25.5167C42.1931 26.5436 41.4216 27.0904 40.905 27.2679C37.9253 27.2679 31.4749 28.452 30.5112 26.7429C29.5474 25.0337 30.9127 24.3821 31.7158 24.2699Z" fill="white" stroke="#2A2A2A" stroke-width="2" stroke-linecap="round" stroke-linejoin="round"/>
<path d="M33.9062 40.7589L36.0158 49.4939C36.1151 49.9051 36.7015 49.9008 36.7948 49.4882L38.8343 40.4648L41.184 49.5129C41.2902 49.9217 41.8752 49.9083 41.9625 49.4951L43.8098 40.7589" stroke="#39583C" stroke-width="2" stroke-linecap="round" stroke-linejoin="round"/>
<path d="M31.6719 44.2344C32.2186 44.4402 41.4785 44.3201 46.04 44.2344" stroke="#39583C" stroke-width="2" stroke-linecap="round" stroke-linejoin="round"/>
</svg>
