<svg width="80" height="80" viewBox="0 0 80 80" fill="none" xmlns="http://www.w3.org/2000/svg">
<g clip-path="url(#clip0_647_20648)">
<g clip-path="url(#clip1_647_20648)">
<path d="M37.1874 41.1512L39.3735 52.9857C39.3883 53.0656 39.3957 53.1467 39.3957 53.2279L39.3957 53.2523C39.3957 53.8385 39.0129 54.3559 38.4523 54.5273L31.4187 56.6786L13.2362 59.7527C12.9937 59.7937 12.7447 59.7669 12.5166 59.6752L10.8663 59.0117C10.4864 58.859 10.1977 58.5402 10.0834 58.147L8.65956 53.2512C8.63146 53.1546 8.61439 53.0551 8.60867 52.9546L7.77537 38.3035C7.75891 38.014 7.83725 37.7271 7.99853 37.4861L10.9555 33.0684C11.072 32.8943 11.228 32.7501 11.4106 32.6475L16.7886 29.627C16.9466 29.5382 17.121 29.4826 17.3012 29.4636L23.3146 28.827C23.5138 28.8059 23.7151 28.8299 23.9037 28.8973L30.9767 31.4255C31.2628 31.5277 31.5053 31.7246 31.6643 31.9835L37.0125 40.6959C37.0983 40.8356 37.1576 40.99 37.1874 41.1512Z" fill="#617963"/>
<path d="M42.3748 48.0149L39.3897 48.0149L39.8605 51.2371L41.196 52.2584L42.3748 48.0149Z" fill="#617963"/>
<path d="M40.4104 47.1521L42.9243 41.5745L41.8253 40.2391L39.8605 34.9757C38.8919 33.4833 36.7345 30.4984 35.8539 30.4984C34.9733 30.4984 34.2307 28.2723 33.4981 27.5127L29.4131 25.3125C27.4492 25.496 22.9085 25.9414 20.4575 26.2557C17.3937 26.6484 16.7653 27.0409 16.216 27.1195C15.6668 27.198 13.9372 27.984 13.2302 28.2197C12.6645 28.4082 11.6335 29.4504 11.1887 29.948L9.30273 34.5043L11.1887 33.326L12.7592 31.9119L16.216 30.4984L22.6568 29.4754L30.1194 30.4984L35.8539 36.9396L38.6036 47.1521L40.4104 47.1521Z" fill="#617963"/>
<path d="M40.4808 54.2344C41.6505 52.3347 42.8202 50.4351 43.9899 48.5354L44.4828 47.739C44.717 47.3557 44.666 46.8494 44.2786 46.5798C43.925 46.3337 43.3505 46.4011 43.1122 46.7852C41.9425 48.6849 40.7728 50.5845 39.6031 52.4841C39.4374 52.7498 39.2759 53.0148 39.1102 53.2805C38.876 53.6639 38.9269 54.1702 39.3144 54.4398C39.6679 54.6858 40.2425 54.6184 40.4808 54.2344Z" fill="#333333"/>
<path d="M12.8921 47.8931L12.0137 45.3452L13.2258 44.4265L18.1563 43.7578L24.8 41.794L30.984 40.373C31.3462 41.4038 32.0704 43.5238 32.0704 43.7578C32.0704 43.9918 31.3462 44.3011 30.984 44.4265L17.3207 47.4349L12.8921 47.8931Z" fill="#D9D9D9" stroke="black" stroke-width="0.666667"/>
<path d="M44.387 44.131C44.2052 44.788 44.0187 45.4418 43.837 46.0988L43.7595 46.3828C43.6959 46.6009 43.6874 46.8178 43.7882 47.0282C43.8749 47.2072 44.0601 47.3899 44.2539 47.4529C44.4616 47.5219 44.7052 47.5297 44.9031 47.4231C45.086 47.3275 45.2704 47.1683 45.3313 46.9591C45.513 46.302 45.6996 45.6483 45.8813 44.9912L45.9588 44.7072C46.0223 44.4891 46.0309 44.2722 45.9301 44.0619C45.8433 43.8829 45.6581 43.7001 45.4643 43.6371C45.2567 43.5681 45.0131 43.5603 44.8152 43.667C44.6323 43.7625 44.4479 43.9217 44.387 44.131Z" fill="#333333"/>
<path d="M48.2249 43.4552C48.0431 44.1123 47.8566 44.766 47.6748 45.4231L47.5974 45.707C47.5338 45.9252 47.5253 46.1421 47.6261 46.3524C47.7128 46.5314 47.898 46.7142 48.0918 46.7772C48.2995 46.8462 48.543 46.8539 48.741 46.7473C48.9239 46.6517 49.1083 46.4925 49.1692 46.2833C49.3509 45.6262 49.5375 44.9725 49.7192 44.3154L49.7967 44.0315C49.8602 43.8133 49.8688 43.5964 49.768 43.3861C49.6812 43.2071 49.496 43.0243 49.3022 42.9613C49.0946 42.8923 48.851 42.8845 48.6531 42.9912C48.4702 43.0868 48.2857 43.2459 48.2249 43.4552Z" fill="#333333"/>
<path d="M52.1057 42.7716C51.924 43.4287 51.7374 44.0824 51.5557 44.7395L51.4782 45.0234C51.4147 45.2416 51.4061 45.4585 51.5069 45.6688C51.5937 45.8478 51.7789 46.0306 51.9727 46.0936C52.1803 46.1626 52.4239 46.1704 52.6218 46.0637C52.8047 45.9681 52.9892 45.8089 53.05 45.5997C53.2318 44.9426 53.4183 44.2889 53.6001 43.6318L53.6775 43.3479C53.7411 43.1297 53.7496 42.9128 53.6488 42.7025C53.5621 42.5235 53.3769 42.3407 53.1831 42.2777C52.9754 42.2087 52.7319 42.2009 52.5339 42.3076C52.351 42.4032 52.1666 42.5624 52.1057 42.7716Z" fill="#333333"/>
<path d="M56.0022 41.8907C55.8205 42.5478 55.6339 43.2015 55.4522 43.8586L55.3747 44.1426C55.3112 44.3607 55.3026 44.5776 55.4034 44.7879C55.4902 44.9669 55.6753 45.1497 55.8692 45.2127C56.0768 45.2817 56.3204 45.2895 56.5183 45.1828C56.7012 45.0873 56.8856 44.9281 56.9465 44.7188C57.1282 44.0618 57.3148 43.408 57.4965 42.751L57.574 42.467C57.6376 42.2489 57.6461 42.032 57.5453 41.8216C57.4585 41.6427 57.2734 41.4599 57.0796 41.3969C56.8719 41.3279 56.6283 41.3201 56.4304 41.4267C56.2475 41.5223 56.0631 41.6815 56.0022 41.8907Z" fill="#333333"/>
<path d="M60.0608 41.1759C59.8791 41.833 59.6925 42.4867 59.5108 43.1438L59.4333 43.4277C59.3698 43.6459 59.3612 43.8628 59.462 44.0731C59.5488 44.2521 59.7339 44.4349 59.9278 44.4979C60.1354 44.5669 60.379 44.5747 60.5769 44.468C60.7598 44.3724 60.9442 44.2132 61.0051 44.004C61.1868 43.3469 61.3734 42.6932 61.5551 42.0361L61.6326 41.7522C61.6962 41.534 61.7047 41.3171 61.6039 41.1068C61.5171 40.9278 61.332 40.745 61.1382 40.682C60.9305 40.613 60.6869 40.6052 60.489 40.7119C60.3061 40.8075 60.1217 40.9666 60.0608 41.1759Z" fill="#333333"/>
<path d="M63.8284 40.2247C63.6466 40.8818 63.4601 41.5355 63.2784 42.1926L63.2009 42.4765C63.1373 42.6947 63.1288 42.9116 63.2296 43.1219C63.3163 43.3009 63.5015 43.4837 63.6953 43.5467C63.903 43.6157 64.1466 43.6235 64.3445 43.5168C64.5274 43.4213 64.7118 43.2621 64.7727 43.0528C64.9544 42.3957 65.141 41.742 65.3227 41.0849L65.4002 40.801C65.4637 40.5829 65.4723 40.3659 65.3715 40.1556C65.2847 39.9766 65.0995 39.7939 64.9057 39.7309C64.6981 39.6618 64.4545 39.6541 64.2566 39.7607C64.0737 39.8563 63.8893 40.0155 63.8284 40.2247Z" fill="#333333"/>
<path d="M67.6585 39.3224C67.4767 39.9794 67.2902 40.6332 67.1084 41.2902L67.031 41.5742C66.9674 41.7923 66.9589 42.0092 67.0597 42.2196C67.1464 42.3986 67.3316 42.5813 67.5254 42.6443C67.733 42.7134 67.9766 42.7211 68.1746 42.6145C68.3575 42.5189 68.5419 42.3597 68.6028 42.1505C68.7845 41.4934 68.9711 40.8397 69.1528 40.1826L69.2303 39.8987C69.2938 39.6805 69.3024 39.4636 69.2016 39.2533C69.1148 39.0743 68.9296 38.8915 68.7358 38.8285C68.5282 38.7595 68.2846 38.7517 68.0867 38.8584C67.9038 38.9539 67.7193 39.1131 67.6585 39.3224Z" fill="#333333"/>
<path d="M42.694 43.4713C46.3588 42.6611 50.0284 41.8542 53.6932 41.044L71.0324 37.2171L73.8999 36.5853C74.2069 36.5185 74.6813 36.3167 74.9858 36.3813L74.5863 36.2363C74.4413 36.1605 74.6084 35.903 74.5206 36.1043C74.4746 36.2053 74.4752 36.353 74.4561 36.462L74.2456 37.6309C74.1081 38.3943 73.9933 39.1663 73.8338 39.925C73.8033 40.0656 73.8534 40.0609 73.732 40.095C73.6956 40.1056 73.6537 40.1088 73.6124 40.1161C73.4039 40.1866 73.1654 40.2075 72.9484 40.2542C70.6196 40.7361 68.2867 41.2188 65.9586 41.7049C62.4123 42.4394 58.8618 43.1745 55.3161 43.9131C51.9586 44.6101 48.6052 45.3063 45.247 45.9992C44.0987 46.2352 42.9471 46.4761 41.7988 46.7121C41.2535 46.825 40.6659 46.8905 40.1341 47.056C40.1094 47.0604 40.0847 47.0647 40.0599 47.0691L40.9901 48.1765C41.5447 46.9342 42.1034 45.6913 42.658 44.449C42.8776 43.9584 43.1514 43.4625 43.3296 42.9539C43.5077 42.4453 43.176 41.8406 43.0242 41.3647C42.8463 40.8132 42.6602 40.2632 42.4624 39.7194C40.9648 35.6076 38.8309 31.5023 35.573 28.4947C34.0051 27.0476 32.2157 25.8635 30.203 25.1241C28.0357 24.3275 25.7271 24.0795 23.4281 24.2479C20.6884 24.4475 17.9204 25.2349 15.4419 26.4105C13.3553 27.3989 11.4519 28.752 9.95085 30.5073C8.44977 32.2626 7.24579 34.5949 7.13135 36.9126C7.1296 36.9509 7.12785 36.9892 7.1261 37.0276C7.11009 38.0947 8.77821 38.2528 8.7935 37.1816C8.79883 36.8259 8.86331 36.4682 8.93336 36.118C8.95901 35.9741 8.98239 35.8897 8.95314 36.0131C8.97848 35.9157 9.00382 35.8183 9.02916 35.721C9.0886 35.5035 9.15629 35.2847 9.22881 35.0692C9.39746 34.5791 9.59857 34.1044 9.83141 33.6411C10.0271 33.2561 10.4658 32.5622 10.8196 32.0859C11.2428 31.5215 11.7125 31.0037 12.2314 30.5238C13.6412 29.2153 15.309 28.2374 17.0874 27.5018C20.6833 26.0111 24.8667 25.2742 28.6682 26.3743C31.8829 27.3032 34.5067 29.4131 36.521 32.019C38.9739 35.1854 40.5818 38.9821 41.7329 42.7916L41.7714 42.3583C40.987 44.1056 40.2068 45.8522 39.4225 47.5995C39.1665 48.1725 39.7538 48.8293 40.3527 48.7069C41.6115 48.4472 42.8737 48.1826 44.1325 47.9229L53.0369 46.0757C56.4892 45.3621 59.9449 44.6436 63.3972 43.9299C66.1154 43.3667 68.8335 42.8035 71.5517 42.2402L73.6586 41.8016C73.7781 41.7805 73.9018 41.7587 74.0191 41.7254C74.915 41.5042 75.3556 40.8691 75.5143 40.0091C75.6501 39.2841 75.7769 38.5565 75.9078 37.8281C76.0065 37.2785 76.158 36.7155 76.2085 36.1575C76.2965 35.234 75.5007 34.5759 74.6042 34.7211C74.4352 34.7509 74.265 34.7978 74.0967 34.8316L67.8789 36.2014C64.5616 36.9335 61.2401 37.6663 57.9228 38.3984L48.1954 40.5426C46.3544 40.9471 44.5141 41.3557 42.669 41.7609L42.4115 41.819C41.3643 42.0499 41.6447 43.6899 42.7001 43.4575L42.694 43.4713Z" fill="#333333"/>
<path d="M10.9352 58.3638C10.5879 57.6225 10.5275 56.7969 10.3792 56.0037C10.212 55.0786 9.99056 54.1589 9.80689 53.2367C9.42728 51.3228 9.0964 49.396 8.85765 47.4615C8.61889 45.5269 8.45463 43.5328 8.45492 41.5562C8.45544 39.9427 8.41134 38.1724 9.03587 36.6517C9.66041 35.1311 11.0907 33.8908 12.3615 32.9026C13.4339 32.0675 14.6102 31.3873 15.8619 30.8458C18.2193 29.8266 20.83 29.3288 23.3971 29.4763C25.9643 29.6239 28.4658 30.4123 30.5196 31.9638C32.9804 33.8238 34.5941 36.7367 35.7891 39.5165C37.1481 42.6728 37.9737 46.0329 38.5607 49.4139C38.7057 50.2372 38.8302 51.0643 38.9456 51.8886C39.0157 52.3831 39.121 52.9812 38.8892 53.4021C38.9536 53.2852 38.7734 53.5408 38.8198 53.4904C38.8198 53.4904 38.6839 53.6114 38.6312 53.6503C38.5034 53.7446 38.2189 53.8665 37.9967 53.9563C37.2609 54.2422 36.488 54.4375 35.7331 54.6633C31.9533 55.7852 28.1396 56.8117 24.2759 57.6021C22.3605 57.9944 20.4316 58.3341 18.4924 58.5912C16.5532 58.8483 14.6313 59.1066 12.7023 59.1084C11.9849 59.1123 11.2937 59.0483 10.9276 58.3694C10.4219 57.4279 8.90672 58.1383 9.41321 59.0838C10.4339 60.9947 12.4913 60.8055 14.3765 60.6761C16.4845 60.5329 18.5861 60.281 20.6774 59.9464C24.8812 59.2778 29.0225 58.278 33.1207 57.1296C34.9793 56.608 36.9127 56.1492 38.7148 55.4517C39.9203 54.9859 40.6916 54.0814 40.6925 52.7593C40.6924 51.9146 40.5218 51.0662 40.3918 50.2317C40.2466 49.3112 40.085 48.3936 39.9021 47.4755C39.5354 45.6353 39.074 43.8118 38.5001 42.025C37.3981 38.5911 35.822 35.1436 33.4227 32.4028C31.4867 30.1928 28.8561 28.7682 25.9927 28.1449C20.0536 26.8512 13.4522 29.0107 9.31543 33.4137C8.05925 34.75 7.23903 36.1489 6.96578 37.9751C6.66976 39.9616 6.75078 42.0379 6.86414 44.0326C6.98286 46.1783 7.25285 48.3143 7.59631 50.4331C7.93977 52.552 8.42819 54.4806 8.7703 56.5194C8.91502 57.3893 9.03985 58.2669 9.42001 59.0742C9.8751 60.0415 11.3903 59.3311 10.9344 58.3597L10.9352 58.3638Z" fill="#333333"/>
<path d="M31.4823 44.418L13.5156 48.3126L13.7461 50.664L16.2907 52.7845L17.1774 54.0953L25.5051 53.1315L30.4785 49.5845L31.8279 45.7677L31.4823 44.418Z" fill="#A4B2A5"/>
<path d="M29.9996 40.0163L12.2033 44.2645L12.4732 41.3344L14.3238 38.8211L16.29 37.0934L21.8107 35.1713L27.524 36.255L29.9224 38.8211L29.9996 40.0163Z" fill="#A4B2A5"/>
<path d="M20.0976 36.0948C22.2503 35.5298 24.5201 35.5819 26.5242 36.61C28.1311 37.4336 29.4672 38.7947 30.2886 40.3943C31.11 41.994 31.4317 43.8928 31.0392 45.6935C30.6746 47.3627 29.6948 48.8446 28.4134 49.9656C27.0659 51.1448 25.4309 51.9227 23.7081 52.3951C21.8679 52.9008 19.847 53.1766 17.9648 52.7436C14.4629 51.9456 12.7013 48.0239 12.8254 44.6993C12.9792 40.5543 16.1813 37.1901 20.0983 36.0989C20.5314 35.9762 20.862 35.6096 20.7783 35.1345C20.7062 34.7248 20.2469 34.3369 19.8097 34.4604C15.6333 35.6226 12.1751 38.8122 11.3293 43.1298C10.58 46.9573 12.2013 51.892 15.8411 53.7385C17.8616 54.7637 20.2962 54.7615 22.4847 54.376C24.6732 53.9905 26.6485 53.2625 28.4292 52.0577C30.1149 50.9161 31.4968 49.3043 32.2517 47.4143C33.0653 45.3747 33.0536 43.1129 32.37 41.0414C31.6215 38.77 30.0001 36.7538 27.9454 35.5108C25.4911 34.0256 22.5761 33.7366 19.8097 34.4604C18.7739 34.7315 19.0542 36.3715 20.0983 36.0989L20.0976 36.0948Z" fill="#333333"/>
<path d="M12.1138 45.4871C14.2389 45.0072 16.3641 44.5272 18.4893 44.0473C21.8772 43.2817 25.2617 42.5208 28.6496 41.7552C29.4262 41.5804 30.1986 41.4063 30.9752 41.2315C32.0217 40.9965 31.7413 39.3565 30.6866 39.5929C28.5615 40.0728 26.4363 40.5527 24.3111 41.0326C20.9232 41.7983 17.5387 42.5592 14.1508 43.3248C13.3742 43.4996 12.6018 43.6737 11.8252 43.8485C10.7787 44.0835 11.0591 45.7235 12.1138 45.4871Z" fill="#333333"/>
<path d="M12.9857 48.9858C15.1454 48.5336 17.3101 48.0847 19.4699 47.6325C22.9173 46.9155 26.3641 46.1944 29.8115 45.4773C30.6026 45.3126 31.3979 45.1472 32.189 44.9825C33.2425 44.7632 32.958 43.1239 31.9004 43.344C29.7406 43.7962 27.576 44.245 25.4162 44.6972C21.9687 45.4143 18.522 46.1354 15.0746 46.8524C14.2834 47.0171 13.4882 47.1825 12.697 47.3472C11.6436 47.5666 11.9281 49.2059 12.9857 48.9858Z" fill="#333333"/>
<path d="M45.4648 30.9479L47.989 28.4238" stroke="#333333" stroke-width="1.33333" stroke-linecap="round"/>
<path d="M42.8816 29.5902L44.1644 26.2591" stroke="#333333" stroke-width="1.33333" stroke-linecap="round"/>
</g>
</g>
<defs>
<clipPath id="clip0_647_20648">
<rect width="80" height="80" fill="white"/>
</clipPath>
<clipPath id="clip1_647_20648">
<rect width="91.7391" height="36.2997" fill="white" transform="translate(-18 29.9141) rotate(-9.98938)"/>
</clipPath>
</defs>
</svg>
