<svg width="80" height="80" viewBox="0 0 80 80" fill="none" xmlns="http://www.w3.org/2000/svg">
<g clip-path="url(#clip0_647_20636)">
<rect width="34" height="24.6667" transform="matrix(-1 0 0 1 48 23.334)" fill="#7A8F7C"/>
<rect width="55.68" height="7.67964" transform="matrix(-1 0 0 1 70.9531 47.7383)" fill="#A4B2A5"/>
<path d="M66.1717 33.2266H61.3717C60.3113 33.2266 59.4517 34.0862 59.4517 35.1465V41.8662H70.0117" stroke="#333333" stroke-width="2"/>
<mask id="path-4-inside-1_647_20636" fill="white">
<path d="M72.668 49.2023C72.668 47.8026 71.5333 46.668 70.1336 46.668H14.8101C14.1103 46.668 13.543 47.2353 13.543 47.9351V55.4008C13.543 56.1006 14.1103 56.668 14.8101 56.668H71.4008C72.1006 56.668 72.668 56.1006 72.668 55.4008V49.2023Z"/>
</mask>
<path d="M72.668 49.2023C72.668 47.8026 71.5333 46.668 70.1336 46.668H14.8101C14.1103 46.668 13.543 47.2353 13.543 47.9351V55.4008C13.543 56.1006 14.1103 56.668 14.8101 56.668H71.4008C72.1006 56.668 72.668 56.1006 72.668 55.4008V49.2023Z" stroke="#333333" stroke-width="4" mask="url(#path-4-inside-1_647_20636)"/>
<path d="M53.6132 56.8806C53.6132 59.8274 56.0021 62.2163 58.9492 62.2163C61.8962 62.2163 64.2852 59.8274 64.2852 56.8806C64.2852 53.9338 61.8962 51.5449 58.9492 51.5449C56.0021 51.5449 53.6132 53.9338 53.6132 56.8806Z" fill="#969696" stroke="#333333" stroke-width="2"/>
<path d="M46.9747 29.3867H57.5347H62.0408C62.831 29.3867 63.576 29.7553 64.0554 30.3835L66.1747 33.1603L68.535 36.253C68.8721 36.6947 69.0547 37.2349 69.0547 37.7906V39.4497V47.6259" stroke="#333333" stroke-width="2"/>
<path d="M47.9297 47.6268V35.6274V25.2023C47.9297 23.8026 46.795 22.668 45.3953 22.668H17.0815C15.6818 22.668 14.5472 23.8026 14.5472 25.2023V35.6274V47.845" stroke="#333333" stroke-width="2"/>
<path d="M21.9335 56.8806C21.9335 59.8274 24.3224 62.2163 27.2695 62.2163C30.2165 62.2163 32.6055 59.8274 32.6055 56.8806C32.6055 53.9338 30.2165 51.5449 27.2695 51.5449C24.3224 51.5449 21.9335 53.9338 21.9335 56.8806Z" fill="#969696" stroke="#333333" stroke-width="2"/>
<path d="M12.0078 41.084L18.5282 41.084" stroke="#333333" stroke-width="2" stroke-linecap="round"/>
<path d="M7.82031 44.8691L16.2037 44.8691" stroke="#333333" stroke-width="2" stroke-linecap="round"/>
</g>
<defs>
<clipPath id="clip0_647_20636">
<rect width="80" height="80" fill="white"/>
</clipPath>
</defs>
</svg>
