<svg width="120" height="120" viewBox="0 0 120 120" fill="none" xmlns="http://www.w3.org/2000/svg">
<g clip-path="url(#clip0_586_15903)">
<path d="M28.8833 86.9686L40.7203 75.3609L56.873 59.5939C57.6635 58.8222 57.966 57.6785 57.6603 56.6169L56.3444 52.0476C53.6355 38.0517 60.797 32.0427 64.6346 29.5594C71.7219 25.4431 77.8454 27.0718 81.3976 29.045C82.8658 29.8605 82.9392 31.797 81.7794 33.0118L72.2432 42.9999C71.4979 43.7805 71.5064 45.0116 72.2624 45.7819L74.9148 48.4843C75.6696 49.2534 76.8981 49.2862 77.6928 48.5584L87.6721 39.4205C89.0975 38.1153 91.3838 38.4841 92.1513 40.2579C97.7702 53.2443 90.8239 60.5987 85.9938 63.7318C81.0267 66.2153 72.1464 65.835 67.3747 64.9144C66.1717 64.6823 64.8972 65.0512 64.1152 65.9943L40.0695 94.9922C33.7132 103.019 29.4877 98.1266 27.7895 95.8625C24.9911 90.9763 26.5309 89.8668 28.8833 86.9686Z" stroke="#333333" stroke-width="3"/>
<path d="M57.1448 74.0583L49.2402 67.0215L36.8817 78.9732L27.4961 89.507V92.073L29.6568 97.4074L33.3719 98.5553L36.8817 97.8125L57.1448 74.0583Z" fill="#617963" stroke="#333333" stroke-width="3"/>
</g>
<defs>
<clipPath id="clip0_586_15903">
<rect width="120" height="120" fill="white"/>
</clipPath>
</defs>
</svg>
