<svg width="80" height="80" viewBox="0 0 80 80" fill="none" xmlns="http://www.w3.org/2000/svg">
<g clip-path="url(#clip0_647_20642)">
<path d="M19.2555 57.979L27.1469 50.2406L37.9153 39.7293C38.4424 39.2148 38.644 38.4523 38.4402 37.7446L37.5629 34.6984C35.757 25.3678 40.5313 21.3618 43.0897 19.7063C47.8146 16.9621 51.8969 18.0478 54.2651 19.3633C55.2439 19.907 55.2928 21.198 54.5196 22.0078L48.1622 28.6666C47.6653 29.187 47.671 30.0078 48.175 30.5213L49.9432 32.3229C50.4464 32.8356 51.2654 32.8574 51.7952 32.3723L58.4481 26.2803C59.3983 25.4102 60.9226 25.6561 61.4342 26.8386C65.1802 35.4962 60.5493 40.3991 57.3292 42.4879C54.0178 44.1435 48.0976 43.89 44.9164 43.2763C44.1144 43.1215 43.2648 43.3675 42.7434 43.9962L26.713 63.3281C22.4755 68.6791 19.6585 65.4178 18.5263 63.9083C16.6607 60.6509 17.6873 59.9112 19.2555 57.979Z" stroke="#333333" stroke-width="2"/>
<path d="M38.0978 49.3729L32.8281 44.6816L24.5891 52.6495L18.332 59.672V61.3826L19.7725 64.9389L22.2492 65.7042L24.5891 65.209L38.0978 49.3729Z" fill="#617963" stroke="#333333" stroke-width="2"/>
</g>
<defs>
<clipPath id="clip0_647_20642">
<rect width="80" height="80" fill="white"/>
</clipPath>
</defs>
</svg>
