<svg width="80" height="80" viewBox="0 0 80 80" fill="none" xmlns="http://www.w3.org/2000/svg">
<g clip-path="url(#clip0_647_20645)">
<path d="M7.67372 53.929C10.0157 51.4921 13.3938 47.9428 14.0752 47.0961C14.1421 47.0129 14.2195 46.9426 14.3129 46.891L23.5459 41.7885C23.6494 41.7313 23.7663 41.7027 23.8845 41.7056L73.356 42.9063C73.9993 42.9219 74.2493 43.7499 73.7221 44.1189L55.4988 56.8753C55.379 56.9591 55.235 57.0012 55.089 56.9952L8.12783 55.0587C7.55309 55.035 7.27512 54.3437 7.67372 53.929Z" fill="#617963"/>
<path d="M74.9904 34.5357C50.3519 31.7871 32.7895 22.9945 31.9669 22.666C23.3604 28.2573 11.6924 35.7115 4.66797 39.4398C18.2152 50.0113 40.8477 54.0213 51.5371 53.9117L74.9904 34.5357Z" fill="#EBEEEC" stroke="#333333" stroke-width="2"/>
<path d="M25.1609 40.8466L33.176 34.3357C33.7307 33.8852 34.4836 33.7648 35.1511 34.0199L48.8959 39.2737C49.3501 39.4473 49.4716 40.0331 49.1239 40.373L41.3185 48.0059C40.7573 48.5547 39.9271 48.7245 39.1956 48.4401L25.5186 43.1242C24.5651 42.7536 24.3669 41.4916 25.1609 40.8466Z" fill="#DADADA"/>
<path d="M63.0571 29.9294C63.8051 29.4654 67.644 26.1533 65.3239 24.9176C63.0039 23.682 60.0859 29.8222 68.9535 24.916" stroke="#333333" stroke-width="0.666667" stroke-linecap="round"/>
<path d="M37.0469 30.7617L52.6785 36.6236" stroke="#BBBBBB" stroke-width="1.33333" stroke-linecap="round"/>
<path d="M53.9842 35.3397L51.561 38.1844" stroke="#BBBBBB" stroke-width="1.33333" stroke-linecap="round"/>
<path d="M38.0794 29.367L35.3753 31.946" stroke="#BBBBBB" stroke-width="1.33333" stroke-linecap="round"/>
</g>
<defs>
<clipPath id="clip0_647_20645">
<rect width="80" height="80" fill="white"/>
</clipPath>
</defs>
</svg>
