<svg width="80" height="80" viewBox="0 0 80 80" fill="none" xmlns="http://www.w3.org/2000/svg">
<g clip-path="url(#clip0_647_20639)">
<path d="M13.2068 20.3998L44.454 17.3952C44.8065 17.3614 45.111 17.6351 45.1174 17.9891C45.3536 31.2052 52.5944 48.4451 56.583 56.2128C56.7691 56.5751 56.5525 57.016 56.1513 57.0861L25.0786 62.5099C24.9021 62.5407 24.7259 62.497 24.5939 62.3758C18.2199 56.5223 12.6296 33.2687 12.6682 20.9786C12.6691 20.6734 12.903 20.429 13.2068 20.3998Z" fill="#EBEEEC" stroke="#333333" stroke-width="2"/>
<path d="M33.9165 25.0183C32.542 25.2108 30.5277 25.4972 29.7797 25.6182C29.6206 25.6439 29.4832 25.7372 29.3955 25.8724L26.2524 30.7184C26.1712 30.8435 26.1396 30.9943 26.1636 31.1415L27.8165 41.2796C27.8704 41.6103 28.1848 41.8328 28.5146 41.7736L35.0922 40.5933C35.2798 40.5597 35.4403 40.4388 35.5245 40.2677L37.9902 35.2582C38.0456 35.1457 38.0644 35.0186 38.0438 34.8949L37.2799 30.2959C37.2479 30.1034 37.1243 29.9385 36.9485 29.8537L35.4522 29.1326C35.2765 29.048 35.1529 28.8832 35.1208 28.6909L34.5903 25.5135C34.5367 25.193 34.2383 24.9732 33.9165 25.0183Z" fill="#617963" stroke="#333333" stroke-width="2"/>
<path d="M58.2563 22.5713L55.2057 21.1194C54.8417 20.9901 53.9847 20.9564 53.4688 21.8554L50.359 26.2835" stroke="#333333" stroke-width="2"/>
<path d="M62.0994 19.0494C59.4894 18.1343 57.9377 19.7741 57.4881 20.7084L45.6332 39.0415C45.5628 39.1503 45.5295 39.279 45.5384 39.4083L45.9285 45.1036C45.9554 45.4958 46.3459 45.7567 46.7185 45.6313L51.7402 43.9416C51.8735 43.8968 51.9868 43.8065 52.0603 43.6867L64.6461 23.1656C64.8927 22.6099 64.7095 19.9644 62.0994 19.0494Z" fill="#EBEEEC" stroke="#333333" stroke-width="2"/>
<path d="M43.9891 46.97C43.6705 47.4211 43.778 48.0451 44.2291 48.3637C44.6802 48.6823 45.3042 48.5748 45.6228 48.1237L43.9891 46.97ZM45.6228 48.1237L47.3613 45.662L45.7276 44.5083L43.9891 46.97L45.6228 48.1237Z" fill="#333333"/>
<path d="M55.8242 24.043L61.4744 27.5245" stroke="#333333" stroke-width="2"/>
<path d="M28.1289 48.2559L42.8591 45.9811" stroke="#333333" stroke-width="2" stroke-linecap="round"/>
<path d="M29.2305 52.9902L44.0337 50.5108" stroke="#333333" stroke-width="2" stroke-linecap="round"/>
</g>
<defs>
<clipPath id="clip0_647_20639">
<rect width="80" height="80" fill="white"/>
</clipPath>
</defs>
</svg>
