<svg width="177" height="22" viewBox="0 0 177 22" fill="none" xmlns="http://www.w3.org/2000/svg">
<path d="M47.6846 1.28711L46.471 3.6658H40.4514C39.3106 3.6658 38.7038 4.46678 38.7038 5.31631C38.7038 6.16584 39.0679 6.86974 40.0631 7.16101L44.7962 8.5688C47.1991 9.29697 48.1458 10.8747 48.1458 12.6708C48.1458 15.1951 46.6651 17.0156 43.6797 17.0156H35.864L37.0776 14.6369H43.4127C44.5535 14.6369 45.3544 14.0543 45.3544 12.9135C45.3544 12.0155 44.9661 11.3358 44.0195 11.0446L39.0194 9.58824C37.0533 9.0057 35.8154 7.57364 35.8154 5.51049C35.9125 3.27744 37.4417 1.28711 40.4029 1.28711H47.6846Z" fill="#221E1F"/>
<path d="M61.8853 16.9582V9.33669C61.8853 8.31726 61.4242 7.71045 60.4047 7.71045H58.4387V16.9582H55.8658V7.71045H52.5648V16.9582H49.9434V5.45312H60.7324C63.014 5.45312 64.4703 6.93374 64.4703 9.26388V16.9582H61.8732H61.8853Z" fill="#221E1F"/>
<path d="M69.8194 16.9582C67.4407 16.9582 66.1543 15.4048 66.1543 13.4873C66.1543 11.5697 67.4407 10.0163 69.8194 10.0163H74.0671V9.26388C74.0671 8.22017 73.5574 7.6619 72.4651 7.6619H67.0281L68.1204 5.45312H72.4651C75.2079 5.45312 76.6399 6.81237 76.6399 9.26388V16.9582H69.8194ZM70.0379 12.128C69.1883 12.128 68.8 12.7591 68.8 13.463C68.8 14.1669 69.2126 14.7737 70.0136 14.7737H74.0671V12.128H70.0379Z" fill="#221E1F"/>
<path d="M78.8496 16.9582V9.40951C78.8496 7.17646 80.3059 5.45312 82.8788 5.45312H86.0828L84.942 7.73472H83.1943C82.1264 7.73472 81.471 8.41435 81.471 9.48233V16.9582H78.8496Z" fill="#221E1F"/>
<path d="M90.8466 17.0686C88.2737 17.0686 86.9873 15.7822 86.9873 13.2579V2.06836H89.6087V5.56357H94.1234L93.0068 7.84517H89.6087V13.2579C89.6087 14.3016 90.1427 14.8356 91.0651 14.8356H94.2205L93.0797 17.0686H90.8466Z" fill="#221E1F"/>
<path d="M106.256 1.28711H111.353L110.139 3.69007H106.79C103.44 3.69007 101.693 5.6804 101.693 9.15134C101.693 12.6223 103.44 14.6126 106.79 14.6126H111.353L110.139 17.0156H106.256C102.178 16.967 98.9014 14.1757 98.9014 9.15134C98.9014 4.12697 102.178 1.33565 106.256 1.28711Z" fill="#221E1F"/>
<path d="M117.763 5.19336C121.574 5.19336 123.734 7.66913 123.734 11.2614C123.734 14.8537 121.574 17.3295 117.763 17.3295C113.952 17.3295 111.792 14.8537 111.792 11.2614C111.792 7.66913 113.952 5.19336 117.763 5.19336ZM117.763 15.0236C119.972 15.0236 121.113 13.5916 121.113 11.2614C121.113 8.93129 119.972 7.5235 117.763 7.5235C115.554 7.5235 114.413 8.93129 114.413 11.2614C114.413 13.5916 115.554 15.0236 117.763 15.0236Z" fill="#221E1F"/>
<path d="M129.128 17.0686C126.555 17.0686 125.269 15.7822 125.269 13.2579V2.06836H127.89V5.56357H132.405L131.288 7.84517H127.89V13.2579C127.89 14.3016 128.424 14.8356 129.346 14.8356H132.502L131.361 17.0686H129.128Z" fill="#221E1F"/>
<path d="M137.331 17.0686C134.758 17.0686 133.472 15.7822 133.472 13.2579V2.06836H136.093V5.56357H140.608L139.491 7.84517H136.093V13.2579C136.093 14.3016 136.627 14.8356 137.549 14.8356H140.705L139.564 17.0686H137.331Z" fill="#221E1F"/>
<path d="M144.754 16.9582C142.375 16.9582 141.089 15.4048 141.089 13.4873C141.089 11.5697 142.375 10.0163 144.754 10.0163H149.002V9.26388C149.002 8.22017 148.492 7.6619 147.4 7.6619H141.963L143.055 5.45312H147.4C150.142 5.45312 151.575 6.81237 151.575 9.26388V16.9582H144.754ZM144.972 12.128C144.123 12.128 143.735 12.7591 143.735 13.463C143.735 14.1669 144.147 14.7737 144.948 14.7737H149.002V12.128H144.972Z" fill="#221E1F"/>
<path d="M163.327 16.5456C163.327 19.5553 161.677 20.9874 158.813 20.9874H154.808C155.172 20.2592 155.56 19.5311 155.9 18.8029H158.91C160.245 18.8029 160.73 18.1475 160.73 16.9582H158.764C155.609 16.9582 153.133 14.8951 153.133 11.2057C153.133 7.51627 155.609 5.45312 158.764 5.45312H163.327V16.5456ZM160.706 7.68618H159.031C156.919 7.68618 155.803 9.09397 155.803 11.2057C155.803 13.3174 156.871 14.7494 159.031 14.7494H160.706V7.68618Z" fill="#221E1F"/>
<path d="M170.331 16.9983C166.835 16.9983 164.918 14.3769 164.918 11.1002C164.918 7.82342 166.933 5.17773 170.549 5.17773C174.166 5.17773 176.18 7.60496 176.18 11.1973V12.3866H167.636C167.831 13.8672 168.996 14.7896 170.404 14.7896H175.452L174.336 16.9983H170.331ZM173.486 10.2021C173.34 8.40595 172.37 7.41079 170.549 7.41079C168.826 7.41079 167.636 8.6244 167.588 10.2021H173.486Z" fill="#221E1F"/>
<path d="M4.61309 1.28711H0.984375V17.0156H12.1375V13.9451H4.61309V1.28711Z" fill="#6D6E71"/>
<path d="M20.1752 11.0013H23.1364V13.7562C22.5903 13.9625 21.5223 14.1688 20.515 14.1688C17.2504 14.1688 16.1582 12.5062 16.1582 9.13234C16.1582 5.75849 17.1897 4.01088 20.4665 4.01088C22.2748 4.01088 23.3306 4.58128 24.1802 5.67354L26.4375 3.59825C25.0661 1.6322 22.6389 1.02539 20.3937 1.02539C15.3086 1.02539 12.6387 3.80457 12.6387 9.09593C12.6387 14.3873 15.0538 17.215 20.3694 17.215C22.8088 17.215 25.1875 16.5961 26.486 15.6859V8.06436H20.1874V10.9892L20.1752 11.0013Z" fill="#6D6E71"/>
</svg>
