<svg width="80" height="80" viewBox="0 0 80 80" fill="none" xmlns="http://www.w3.org/2000/svg">
<path d="M12.8494 57.0443C16.2126 60.273 22.2614 60.9654 24.323 60.7938C25.7739 63.6106 29.2376 63.9363 31.4477 64.5878C28.4882 62.6372 28.487 60.4075 28.7392 58.81C32.1306 58.6417 38.6274 56.5226 37.4839 49.3928C36.0546 40.4806 26.1335 37.4541 17.2213 39.8083C8.30913 42.1625 8.64544 53.0084 12.8494 57.0443Z" stroke="#2A2A2A" stroke-width="2.2" stroke-linejoin="round"/>
<path d="M40.8977 41.8389L45.5662 43.505L44.2317 48.3401H47.399L52.2333 44.6728L64.7357 41.8389L70.5702 34.004V27.0026L66.236 19.1668L52.2333 15L47.399 16.2535L42.3771 17.334L36.0634 22.1684L32.0625 29.836L33.8971 37.6709L40.8977 41.8389Z" fill="#EBEEEC"/>
<path d="M67.0227 40.4938C62.355 44.9748 55.4018 44.7957 52.5406 44.5576C50.527 48.4668 44.2881 48.8803 41.2208 49.7845C44.9698 46.939 45.3198 45.1614 44.9698 42.9444C40.2631 42.7108 31.2464 39.7698 32.8334 29.8747C34.8171 17.5058 48.5862 13.3055 60.9551 16.5727C73.3239 19.84 72.8572 34.8927 67.0227 40.4938Z" stroke="#2A2A2A" stroke-width="2.2" stroke-linejoin="round"/>
<path d="M40.3438 35.3521C43.9117 34.4699 50.1181 31.6462 49.0748 26.9874C48.8493 25.9806 47.8499 25.1729 47.0043 25.764C46.4674 26.1393 45.9058 26.8616 45.4666 28.1547C44.2994 31.5914 46.4393 36.0008 52.2751 33.9258C56.3281 32.4847 57.7501 28.7891 58.058 26.4535C58.1408 25.8254 58.0299 25.1637 57.612 24.6875C56.9842 23.9722 56.0094 23.6462 54.9874 25.496C53.2676 28.6086 53.7366 35.4092 64.7976 32.048" stroke="#2A2A2A" stroke-width="2.2" stroke-linecap="round" stroke-linejoin="round"/>
<path d="M15.4297 52.8061C18.1404 52.2034 22.9147 50.2351 21.7921 46.9785C21.6261 46.4971 21.17 46.1159 20.6874 46.2784C20.2007 46.4423 19.6302 46.9185 19.2108 48.0289C18.3493 50.31 19.9287 53.2367 24.2361 51.8594C27.2986 50.8802 28.3258 48.3325 28.5192 46.7908C28.5624 46.4457 28.4886 46.0891 28.2632 45.8242C27.8063 45.2874 27.0419 44.9555 26.2379 46.2642C24.9686 48.3301 25.3148 52.844 33.4787 50.613" stroke="#2A2A2A" stroke-width="2.2" stroke-linecap="round" stroke-linejoin="round"/>
</svg>
