<svg width="120" height="120" viewBox="0 0 120 120" fill="none" xmlns="http://www.w3.org/2000/svg">
<g clip-path="url(#clip0_586_15895)">
<path d="M19.8083 30.6017L66.6791 26.0948C67.2077 26.044 67.6646 26.4547 67.6741 26.9857C68.0285 46.8097 78.8897 72.6695 84.8726 84.3212C85.1516 84.8646 84.8268 85.526 84.225 85.6311L37.6159 93.7669C37.3512 93.8131 37.0869 93.7475 36.889 93.5657C27.3279 84.7853 18.9424 49.9049 19.0003 31.4699C19.0017 31.012 19.3525 30.6455 19.8083 30.6017Z" fill="#EBEEEC" stroke="#333333" stroke-width="3"/>
<path d="M50.8747 37.5304C48.813 37.8192 45.7916 38.2488 44.6695 38.4302C44.4309 38.4688 44.2248 38.6088 44.0933 38.8116L39.3786 46.0806C39.2569 46.2682 39.2094 46.4944 39.2454 46.7151L41.7247 61.9223C41.8056 62.4184 42.2772 62.7521 42.7719 62.6633L52.6382 60.8929C52.9197 60.8424 53.1605 60.6611 53.2868 60.4045L56.9854 52.8902C57.0684 52.7214 57.0965 52.5308 57.0657 52.3453L55.9199 45.4468C55.8719 45.158 55.6865 44.9106 55.4228 44.7835L53.1782 43.7018C52.9148 43.5749 52.7294 43.3278 52.6812 43.0393L51.8854 38.2732C51.8051 37.7924 51.3575 37.4627 50.8747 37.5304Z" fill="#617963" stroke="#333333" stroke-width="3"/>
<path d="M87.3845 33.8599L82.8086 31.682C82.2626 31.4881 80.9771 31.4376 80.2033 32.786L75.5386 39.4281" stroke="#333333" stroke-width="3"/>
<path d="M93.1492 28.578C89.2341 27.2054 86.9066 29.6651 86.2322 31.0665L68.4497 58.5661C68.3442 58.7293 68.2943 58.9224 68.3076 59.1163L68.8928 67.6594C68.9331 68.2477 69.5188 68.6389 70.0777 68.4509L77.6102 65.9164C77.8102 65.8491 77.9801 65.7137 78.0904 65.5339L96.9692 34.7524C97.339 33.9187 97.0642 29.9506 93.1492 28.578Z" fill="#EBEEEC" stroke="#333333" stroke-width="3"/>
<path d="M65.9857 70.4569C65.5078 71.1336 65.6689 72.0696 66.3456 72.5475C67.0223 73.0254 67.9583 72.8642 68.4362 72.1875L65.9857 70.4569ZM68.4362 72.1875L71.0438 68.495L68.5933 66.7644L65.9857 70.4569L68.4362 72.1875Z" fill="#333333"/>
<path d="M83.7363 36.0684L92.2115 41.2906" stroke="#333333" stroke-width="3"/>
<path d="M42.1914 72.3848L64.2867 68.9727" stroke="#333333" stroke-width="3" stroke-linecap="round"/>
<path d="M43.8418 79.4863L66.0467 75.7672" stroke="#333333" stroke-width="3" stroke-linecap="round"/>
</g>
<defs>
<clipPath id="clip0_586_15895">
<rect width="120" height="120" fill="white"/>
</clipPath>
</defs>
</svg>
