<svg width="154" height="110" viewBox="0 0 154 110" fill="none" xmlns="http://www.w3.org/2000/svg">
<g clip-path="url(#clip0_527_21026)">
<path d="M18.1616 109.999C19.7125 95.004 27.9988 56.4609 35.1204 33.8184L96.0555 46.1979C92.2596 49.4985 87.3528 93.4479 83.7725 121.531C83.39 124.531 81.0857 126.438 78.1112 125.889C64.7032 123.416 29.0866 114.925 19.7379 112.31C18.7089 112.022 18.0516 111.062 18.1616 109.999Z" fill="#F7F4F1" stroke="#333333" stroke-width="1.62"/>
<path d="M40.2266 45.6406L49.9039 46.9101" stroke="#333333" stroke-width="1.62" stroke-linecap="round"/>
<path d="M43.2525 57.8575C43.2087 58.3027 43.5341 58.6992 43.9793 58.743C44.4245 58.7868 44.8209 58.4614 44.8647 58.0162L43.2525 57.8575ZM44.3796 46.405L43.2525 57.8575L44.8647 58.0162L45.9918 46.5637L44.3796 46.405Z" fill="#333333"/>
<path d="M53.1008 47.7732C54.5701 47.283 55.5336 47.701 56.139 48.4096C57.2095 49.6629 56.8872 51.5154 56.5802 53.1348C56.2252 55.0073 55.8363 56.4524 54.8958 57.4817C53.7877 58.6946 52.6114 58.5838 51.6634 57.9971C50.1823 57.0806 49.83 55.1423 50.0205 53.4111C50.2768 51.0821 51.0892 48.4444 53.1008 47.7732Z" stroke="#333333" stroke-width="1.62"/>
<path d="M79.1242 52.4138C79.808 52.1857 80.3822 52.1543 80.8618 52.2572C83.4804 52.8196 82.8886 56.7033 81.9344 59.206C81.5595 60.1893 81.1708 61.0274 80.8577 61.6321C80.6384 62.0556 80.3666 62.4611 79.982 62.7431C78.6492 63.7203 77.4366 62.8603 76.6453 61.8109C76.121 61.1156 75.9266 60.2365 75.9526 59.366C76.0283 56.8301 76.7191 53.2163 79.1242 52.4138Z" stroke="#333333" stroke-width="1.62"/>
<path d="M60.0391 53.6445L64.1131 54.5295" stroke="#333333" stroke-width="1.62" stroke-linecap="round"/>
<path d="M67.1372 60.0985L67.9579 50.8833C68.0034 50.3728 68.4567 49.9861 68.9535 50.1124C71.2264 50.6899 72.6976 52.6341 73.5201 54.389C74.117 55.6625 73.9128 57.1436 73.0934 58.2867C72.2383 59.4796 71.0528 60.8041 69.7312 61.5074C67.6133 62.6346 67.1194 61.0378 67.1372 60.0985Z" stroke="#333333" stroke-width="1.62"/>
<path d="M34.8823 70.9411L36.443 65.1253C36.5096 64.8769 36.7648 64.7292 37.0134 64.7953L44.1386 66.6884C44.3987 66.7575 44.5465 67.0317 44.4614 67.2869L42.6119 72.8353C42.5355 73.0647 42.2965 73.1976 42.0613 73.1417L35.2249 71.516C34.9692 71.4551 34.8141 71.1951 34.8823 70.9411Z" stroke="#333333" stroke-width="1.62"/>
<path d="M31.3276 84.1521L32.8883 78.3362C32.955 78.0878 33.2101 77.9402 33.4587 78.0062L40.5839 79.8994C40.844 79.9685 40.9918 80.2426 40.9068 80.4979L39.0572 86.0463C38.9808 86.2756 38.7418 86.4086 38.5067 86.3526L31.6703 84.7269C31.4145 84.6661 31.2594 84.406 31.3276 84.1521Z" stroke="#333333" stroke-width="1.62"/>
<path d="M28.5073 97.4489L30.068 91.6331C30.1346 91.3847 30.3898 91.2371 30.6384 91.3031L37.7636 93.1963C38.0237 93.2654 38.1715 93.5395 38.0864 93.7947L36.2369 99.3431C36.1605 99.5725 35.9215 99.7054 35.6863 99.6495L28.8499 98.0238C28.5942 97.9629 28.4391 97.7029 28.5073 97.4489Z" stroke="#333333" stroke-width="1.62"/>
<path d="M50.5781 71.2578C51.4429 71.4314 69.9421 75.3358 77.6531 76.6329" stroke="#333333" stroke-width="1.62" stroke-linecap="round"/>
<path d="M47.2891 84.9062C48.1539 85.0798 66.5208 88.8686 74.2319 90.1657" stroke="#333333" stroke-width="1.62" stroke-linecap="round"/>
<path d="M44.6172 98.4414C45.482 98.615 64.4653 102.978 72.1764 104.275" stroke="#333333" stroke-width="1.62" stroke-linecap="round"/>
<path d="M33.1187 27.8837C31.3992 29.7936 31.5892 33.4503 34.4585 34.8829L94.5273 47.1034L97.9313 38.447L66.4553 32.1969L37.2651 27.1522C35.7951 26.8981 34.1169 26.775 33.1187 27.8837Z" fill="#F7F4F1" stroke="#333333" stroke-width="1.62"/>
<path d="M83.998 124.997C88.524 95.0279 96.3054 54.5171 97.5679 47.9933C97.785 46.8714 99.7252 45.6069 100.137 43.2043C100.521 40.966 100.391 38.3862 97.9525 38.4831C94.741 39.4805 91.7318 44.6548 93.6793 46.6118C93.9945 46.9286 94.2314 47.3631 94.1233 47.7967C85.9441 80.6172 82.0312 110.673 79.5198 120.618L79.5118 120.65C79.3997 121.094 79.2792 121.572 78.9471 122.077C78.1207 123.332 76.396 123.447 74.9212 123.157L20.6772 112.49L19.8147 116.193C19.6942 116.71 20.0289 117.223 20.5507 117.322L79.237 128.379C81.4969 128.805 83.6546 127.271 83.998 124.997Z" fill="#F7F4F1" stroke="#333333" stroke-width="1.62"/>
<path d="M106.982 47.206C105.903 50.6818 103.847 52.9075 102.358 54.0294C102.074 54.2431 102.211 54.7866 102.565 54.8049C126.494 56.0402 142.85 47.4329 138.001 32.8129C133.063 17.9264 116.904 20.3711 110.846 27.5557C104.788 34.7403 108.72 41.6101 106.982 47.206Z" fill="#F7F4F1" stroke="#333333" stroke-width="1.296"/>
<path d="M118.655 33.9029C118.701 32.6608 119.61 30.2514 121.818 30.4533C124.563 30.7042 127.043 33.1482 121.613 38.7601C121.558 38.8172 121.522 38.8936 121.514 38.9727L121.333 40.9663" stroke="#333333" stroke-width="1.296" stroke-linecap="round"/>
<path d="M120.106 43.5936C120.12 43.4508 120.19 43.3507 120.245 43.2864C120.257 43.2716 120.272 43.2581 120.288 43.2466C120.754 42.9042 121.224 43.3113 121.25 43.4514C121.268 43.5537 121.257 43.7771 121.216 43.9386C121.207 43.9738 121.19 44.0067 121.165 44.0333C121.034 44.1741 120.742 44.3408 120.428 44.1646C119.995 43.9218 120.087 43.7937 120.106 43.5936Z" fill="#333333" stroke="#333333" stroke-width="1.296"/>
</g>
<defs>
<clipPath id="clip0_527_21026">
<rect width="154" height="110" fill="white"/>
</clipPath>
</defs>
</svg>
