<svg width="24" height="24" viewBox="0 0 24 24" fill="none" xmlns="http://www.w3.org/2000/svg">
<g clip-path="url(#clip0_3352_154147)">
<path d="M19 3.5H5V20.5H19V3.5ZM14.36 5.91H15.36V9.65H14.36V5.91ZM12.45 7.19H13.45V9.65H12.45V7.19ZM10.55 8.12H11.55V9.65H10.55V8.12ZM8.64 7H9.64V9.65H8.64V7ZM14.94 14.68V13.68L12.36 16.27L11.26 15.1L9.1 17.25L8.4 16.54L11.27 13.68L12.36 14.8L14.22 12.94H13.22V12H15.46C15.5926 12 15.7198 12.0527 15.8136 12.1464C15.9073 12.2402 15.96 12.3674 15.96 12.5V14.74L14.94 14.68Z" fill="#1D6CEB"/>
</g>
<defs>
<clipPath id="clip0_3352_154147">
<rect width="24" height="24" fill="white"/>
</clipPath>
</defs>
</svg>
