<svg width="24" height="24" viewBox="0 0 24 24" fill="none" xmlns="http://www.w3.org/2000/svg">
<g clip-path="url(#clip0_3352_154190)">
<path d="M13.4999 19.3797V16.8497H18.4999V5.71973H5.1499V16.8497H10.1499L12.9199 19.6197C12.9651 19.6727 13.026 19.7101 13.0938 19.7264C13.1615 19.7426 13.2327 19.7371 13.2971 19.7104C13.3615 19.6838 13.4158 19.6374 13.4522 19.578C13.4887 19.5186 13.5053 19.4492 13.4999 19.3797ZM12.5799 14.9997H11.0799V13.7597H12.5799V14.9997ZM12.5799 12.1097V12.9697H11.0799V12.1097C11.0759 11.7817 11.1686 11.4598 11.3465 11.1841C11.5243 10.9085 11.7794 10.6913 12.0799 10.5597C12.1915 10.5088 12.2865 10.4273 12.3537 10.3246C12.4209 10.222 12.4578 10.1024 12.4599 9.97973C12.4599 9.81264 12.3935 9.6524 12.2754 9.53425C12.1572 9.4161 11.997 9.34973 11.8299 9.34973C11.6628 9.34973 11.5026 9.4161 11.3844 9.53425C11.2663 9.6524 11.1999 9.81264 11.1999 9.97973H9.6999C9.70993 9.59909 9.82181 9.2281 10.0239 8.90539C10.226 8.58267 10.5109 8.32002 10.8489 8.14479C11.187 7.96956 11.5658 7.88815 11.946 7.90904C12.3262 7.92993 12.6939 8.05236 13.0107 8.26357C13.3275 8.47478 13.5819 8.76706 13.7474 9.10997C13.9129 9.45289 13.9835 9.8339 13.9518 10.2133C13.92 10.5928 13.7872 10.9568 13.567 11.2674C13.3468 11.5781 13.0474 11.8241 12.6999 11.9797C12.6513 11.9905 12.6086 12.0191 12.5799 12.0597V12.1097Z" fill="#1D6CEB"/>
</g>
<defs>
<clipPath id="clip0_3352_154190">
<rect width="24" height="24" fill="white"/>
</clipPath>
</defs>
</svg>
