<svg width="18" height="18" viewBox="0 0 18 18" fill="none" xmlns="http://www.w3.org/2000/svg">
<g clip-path="url(#clip0_1759_125667)">
<path d="M13.5751 8.76761L8.85009 13.5001C8.36673 13.9845 7.71076 14.257 7.02649 14.2577C6.34222 14.2584 5.68569 13.9872 5.20134 13.5039C4.71699 13.0205 4.44448 12.3645 4.44378 11.6803C4.44308 10.996 4.71423 10.3395 5.19759 9.85511L10.8301 4.22261C11.1347 3.93626 11.537 3.77685 11.9551 3.77685C12.3732 3.77685 12.7755 3.93626 13.0801 4.22261C13.3786 4.52385 13.5458 4.931 13.5451 5.35511C13.5461 5.5641 13.5055 5.7712 13.4257 5.96435C13.3458 6.15749 13.2284 6.33282 13.0801 6.48011L7.50009 12.0601C7.38415 12.1715 7.22961 12.2337 7.06884 12.2337C6.90807 12.2337 6.75353 12.1715 6.63759 12.0601C6.52363 11.9438 6.45912 11.7879 6.45759 11.6251C6.45772 11.5455 6.4737 11.4667 6.5046 11.3933C6.53551 11.3199 6.58071 11.2534 6.63759 11.1976L11.3101 6.52511L10.7776 6.00011L6.11259 10.6651C5.98468 10.7901 5.88306 10.9395 5.81367 11.1043C5.74429 11.2692 5.70855 11.4462 5.70855 11.6251C5.70855 11.804 5.74429 11.981 5.81367 12.1459C5.88306 12.3107 5.98468 12.4601 6.11259 12.5851C6.23814 12.7121 6.38764 12.8129 6.55242 12.8817C6.71721 12.9505 6.89401 12.986 7.07259 12.986C7.25116 12.986 7.42796 12.9505 7.59275 12.8817C7.75754 12.8129 7.90703 12.7121 8.03259 12.5851L13.6126 7.00511C13.8316 6.78822 14.0055 6.53007 14.1242 6.24557C14.2429 5.96107 14.304 5.65587 14.304 5.34761C14.304 5.03935 14.2429 4.73415 14.1242 4.44965C14.0055 4.16515 13.8316 3.907 13.6126 3.69011C13.1679 3.26028 12.5736 3.02002 11.9551 3.02002C11.3366 3.02002 10.7423 3.26028 10.2976 3.69011L4.66509 9.32261C4.0415 9.94819 3.69196 10.7959 3.69336 11.6792C3.69477 12.5625 4.04701 13.409 4.67259 14.0326C5.29817 14.6562 6.14584 15.0057 7.02914 15.0043C7.91244 15.0029 8.759 14.6507 9.38259 14.0251L14.1076 9.30011L13.5751 8.76761Z" fill="#262626"/>
</g>
<defs>
<clipPath id="clip0_1759_125667">
<rect width="18" height="18" fill="white"/>
</clipPath>
</defs>
</svg>
