<svg width="40" height="40" viewBox="0 0 40 40" fill="none" xmlns="http://www.w3.org/2000/svg">
<path d="M16.8269 18.4527C16.7739 17.9684 17.1531 17.5454 17.6402 17.5454H34.633C35.1202 17.5454 35.4994 17.9684 35.4464 18.4527L33.7438 33.9981C33.6983 34.413 33.3478 34.7272 32.9304 34.7272H19.3428C18.9254 34.7272 18.5749 34.413 18.5295 33.9981L16.8269 18.4527Z" fill="#FFC200"/>
<rect x="15.9093" y="15.0908" width="20.4545" height="4.09091" rx="0.818182" fill="#FFD54E"/>
<rect x="20.8185" y="6.09082" width="6.54545" height="6.54545" rx="3.27273" fill="#B0B0FF"/>
<rect x="28.182" y="5.27295" width="3.27273" height="3.27273" rx="1.63636" fill="#B0B0FF"/>
<rect x="10.182" y="4.45459" width="3.27273" height="26.1818" rx="1.63636" fill="#CDD2DE"/>
<path d="M3.6366 26.5455C3.6366 25.6418 4.36922 24.9092 5.27296 24.9092H18.3639C19.2676 24.9092 20.0002 25.6418 20.0002 26.5455V36.3637H8.54568C5.83447 36.3637 3.6366 34.1659 3.6366 31.4546V26.5455Z" fill="#6666DD"/>
<path d="M3.6366 25.7272C3.6366 24.8234 4.36922 24.0908 5.27296 24.0908H18.3639C19.2676 24.0908 20.0002 24.8234 20.0002 25.7272V28.1817H3.6366V25.7272Z" fill="#6666DD"/>
<rect x="10.182" y="20" width="3.27273" height="4.09091" fill="#3535A8"/>
<path d="M13.4548 33.909C13.4548 33.4571 13.8211 33.0908 14.273 33.0908H22.4548C23.3586 33.0908 24.0912 33.8234 24.0912 34.7272V35.5454C24.0912 35.9972 23.7249 36.3635 23.273 36.3635H15.9094C14.5538 36.3635 13.4548 35.2646 13.4548 33.909Z" fill="#6666DD"/>
</svg>
