<svg width="40" height="40" viewBox="0 0 40 40" fill="none" xmlns="http://www.w3.org/2000/svg">
<circle cx="20.0005" cy="14.2726" r="10.6364" fill="#B0B0FF"/>
<path d="M12.4163 21.1863C12.1422 20.6422 12.5377 20 13.147 20H26.8538C27.4632 20 27.8587 20.6422 27.5845 21.1863L26.1716 23.9905C26.1381 24.0571 26.1138 24.128 26.0994 24.2012L25.4482 27.5211C25.3729 27.905 25.0365 28.1818 24.6453 28.1818H15.3555C14.9644 28.1818 14.6279 27.905 14.5526 27.5211L13.9014 24.2012C13.8871 24.128 13.8628 24.0571 13.8292 23.9905L12.4163 21.1863Z" fill="#B0B0FF"/>
<path d="M13.0461 15.9086L13.353 14.2653C13.8643 12.6359 15.4304 11.1821 17.5078 12.6306C17.7848 12.903 18.4219 13.7977 18.7542 14.4516C18.962 14.8603 19.1825 15.4995 19.1825 16.7268C19.1825 17.1359 18.1355 18.6021 16.6768 17.7212C14.7767 16.5736 17.2308 13.3117 18.7542 11.8132C19.5852 10.9958 21.2195 10.1118 22.2166 12.7275C22.9794 14.7283 23.2734 15.4509 23.2734 16.7268C23.2734 17.2717 22.8643 18.3632 21.6626 18.1299C20.2081 17.8475 21.1086 15.4053 21.6626 14.4516C22.0781 13.7705 22.9091 12.2219 24.1555 12.2219C25.402 12.2219 26.5461 12.6359 26.6484 15.0827V16.1999" stroke="#3535A8" stroke-width="1.22727"/>
<rect x="14.2733" y="28.1821" width="11.4545" height="4.90909" rx="0.818182" fill="#3535A8"/>
<path d="M15.0914 33.0908H24.9096V35.5454C24.9096 35.9972 24.5433 36.3635 24.0914 36.3635H15.9096C15.4577 36.3635 15.0914 35.9972 15.0914 35.5454V33.0908Z" fill="#3535A8"/>
</svg>
