<svg width="40" height="40" viewBox="0 0 40 40" fill="none" xmlns="http://www.w3.org/2000/svg">
<rect x="30.9763" y="35.126" width="22.8047" height="7.66577" rx="0.818182" transform="rotate(-140.019 30.9763 35.126)" fill="#1FB279"/>
<rect x="29.0006" y="30.0742" width="2.34337" height="2.34337" rx="1.17169" transform="rotate(-50.0194 29.0006 30.0742)" fill="#00824D"/>
<path fill-rule="evenodd" clip-rule="evenodd" d="M5.15624 17.5454C4.58517 17.5454 4.19315 18.1164 4.47043 18.6157C4.93074 19.4444 5.54781 20.2045 6.3176 20.85C9.68965 23.6775 14.7154 23.2361 17.543 19.8641C20.3705 16.492 19.9291 11.4662 16.557 8.6387C13.185 5.81116 8.15921 6.25257 5.33168 9.62463C5.03474 9.97875 4.77385 10.3511 4.54862 10.7373C4.25776 11.2359 4.64914 11.8181 5.22643 11.8181L10.656 11.8181C10.8969 11.8181 11.1256 11.9243 11.2811 12.1083L13.0089 14.1538C13.2664 14.4586 13.2664 14.9048 13.0089 15.2097L11.2811 17.2552C11.1256 17.4392 10.8969 17.5454 10.656 17.5454L5.15624 17.5454Z" fill="#1FB279"/>
<path d="M30.092 8.76181C31.1291 7.66043 32.8626 7.60824 33.964 8.64526C35.0653 9.68227 35.1175 11.4158 34.0805 12.5172L22.7754 24.5241L18.7869 20.7687L30.092 8.76181Z" fill="#0F36B2"/>
<rect x="19.7944" y="21.6489" width="2.80465" height="6.41194" transform="rotate(43.2757 19.7944 21.6489)" fill="#CDD2DE"/>
<path d="M15.7186 26.0667L17.7489 27.9784L17.4125 30.3698L12.4018 35.6915L8.34105 31.8681L13.3517 26.5464L15.7186 26.0667Z" fill="#CDD2DE"/>
</svg>
