<svg width="32" height="32" viewBox="0 0 32 32" fill="none" xmlns="http://www.w3.org/2000/svg">
<g clip-path="url(#clip0_3549_39417)">
<path d="M4.35979 13.1201C3.88007 15.0101 3.88007 16.9901 4.35979 18.8801C4.39788 19.0246 4.48251 19.1526 4.60061 19.2441C4.7187 19.3357 4.86368 19.3859 5.01312 19.3868H7.30646C7.62603 20.2541 8.07561 21.0679 8.63979 21.8001L7.47979 23.8001C7.40437 23.9282 7.3739 24.0778 7.39322 24.2251C7.41255 24.3725 7.48056 24.5092 7.58646 24.6134C8.28406 25.2881 9.05822 25.8788 9.89312 26.3734C10.7341 26.8554 11.6292 27.2358 12.5598 27.5068H12.7465C12.8629 27.514 12.9791 27.4892 13.0825 27.4352C13.1859 27.3811 13.2726 27.2998 13.3331 27.2001L14.4931 25.2134C15.4554 25.3733 16.4375 25.3733 17.3998 25.2134L18.6665 27.2001C18.7409 27.3286 18.8561 27.4285 18.9938 27.484C19.1314 27.5396 19.2837 27.5476 19.4265 27.5068C20.357 27.2358 21.2522 26.8554 22.0931 26.3734C22.928 25.8788 23.7022 25.2881 24.3998 24.6134C24.5057 24.5092 24.5737 24.3725 24.593 24.2251C24.6123 24.0778 24.5819 23.9282 24.5065 23.8001L23.3465 21.8001C23.9389 21.0755 24.4115 20.2608 24.7465 19.3868H27.0398C27.1892 19.3859 27.3342 19.3357 27.4523 19.2441C27.5704 19.1526 27.655 19.0246 27.6931 18.8801C28.1728 16.9901 28.1728 15.0101 27.6931 13.1201C27.655 12.9756 27.5704 12.8477 27.4523 12.7561C27.3342 12.6645 27.1892 12.6144 27.0398 12.6134H24.6931C24.3582 11.7395 23.8855 10.9247 23.2931 10.2001L24.4531 8.20011C24.5285 8.07205 24.559 7.92246 24.5397 7.7751C24.5204 7.62774 24.4524 7.49106 24.3465 7.38678C23.6488 6.71215 22.8747 6.12147 22.0398 5.62678C21.1989 5.14486 20.3037 4.76443 19.3731 4.49345C19.238 4.46309 19.0968 4.47643 18.9698 4.53155C18.8428 4.58667 18.7366 4.68071 18.6665 4.80011L17.5065 6.78678C16.5442 6.62689 15.5621 6.62689 14.5998 6.78678L13.3331 4.80011C13.2587 4.67167 13.1435 4.57176 13.0058 4.51621C12.8681 4.46065 12.7159 4.45264 12.5731 4.49345C11.6425 4.76443 10.7474 5.14486 9.90646 5.62678C9.0902 6.12489 8.33409 6.71546 7.65312 7.38678C7.54723 7.49106 7.47921 7.62774 7.45989 7.7751C7.44056 7.92246 7.47103 8.07205 7.54646 8.20011L8.70646 10.2001C8.13759 10.9293 7.68759 11.7438 7.37312 12.6134H5.01312C4.86368 12.6144 4.7187 12.6645 4.60061 12.7561C4.48251 12.8477 4.39788 12.9756 4.35979 13.1201ZM5.54645 13.9468H7.77312C7.91355 13.9466 8.05047 13.9028 8.16506 13.8217C8.27966 13.7405 8.36631 13.6258 8.41312 13.4934C8.74756 12.4517 9.29211 11.4897 10.0131 10.6668C10.1057 10.5624 10.1632 10.4317 10.1775 10.293C10.1919 10.1543 10.1624 10.0145 10.0931 9.89345L8.95979 8.00011C9.98931 7.07739 11.1961 6.37419 12.5065 5.93345L13.6265 7.85345C13.6969 7.97637 13.8047 8.07365 13.9341 8.13119C14.0636 8.18873 14.208 8.20353 14.3465 8.17345C15.437 7.94664 16.5626 7.94664 17.6531 8.17345C17.7916 8.20573 17.9368 8.19195 18.0668 8.1342C18.1967 8.07644 18.3043 7.97787 18.3731 7.85345L19.4931 5.93345C20.8035 6.37419 22.0103 7.07739 23.0398 8.00011L21.9065 9.93345C21.8372 10.0545 21.8077 10.1943 21.8221 10.333C21.8364 10.4717 21.8939 10.6024 21.9865 10.7068C22.7049 11.5187 23.2534 12.4662 23.5998 13.4934C23.6424 13.6259 23.7261 13.7413 23.8388 13.8228C23.9515 13.9043 24.0873 13.9478 24.2265 13.9468H26.4531C26.7376 15.3009 26.7376 16.6993 26.4531 18.0534H24.2265C24.086 18.0537 23.9491 18.0974 23.8345 18.1785C23.7199 18.2597 23.6333 18.3744 23.5865 18.5068C23.252 19.5485 22.7075 20.5105 21.9865 21.3334C21.8939 21.4378 21.8364 21.5685 21.8221 21.7072C21.8077 21.846 21.8372 21.9857 21.9065 22.1068L23.0398 24.0001C22.0103 24.9228 20.8035 25.626 19.4931 26.0668L18.3731 24.1468C18.3043 24.0224 18.1967 23.9238 18.0668 23.866C17.9368 23.8083 17.7916 23.7945 17.6531 23.8268C16.5626 24.0536 15.437 24.0536 14.3465 23.8268C14.208 23.7967 14.0636 23.8115 13.9341 23.869C13.8047 23.9266 13.6969 24.0239 13.6265 24.1468L12.5065 26.0668C11.1961 25.626 9.98931 24.9228 8.95979 24.0001L10.0931 22.0668C10.1534 21.9502 10.178 21.8185 10.1638 21.688C10.1496 21.5576 10.0972 21.4342 10.0131 21.3334C9.29681 20.5223 8.75249 19.5743 8.41312 18.5468C8.36631 18.4144 8.27966 18.2997 8.16506 18.2185C8.05047 18.1374 7.91355 18.0937 7.77312 18.0934H5.54645C5.26196 16.7393 5.26196 15.3409 5.54645 13.9868V13.9468Z" fill="#262626"/>
<path d="M16.0002 19.32C16.6606 19.3226 17.3069 19.129 17.8571 18.7638C18.4073 18.3985 18.8366 17.878 19.0906 17.2684C19.3445 16.6588 19.4116 15.9875 19.2834 15.3396C19.1552 14.6918 18.8375 14.0966 18.3705 13.6296C17.9036 13.1627 17.3084 12.8449 16.6605 12.7167C16.0127 12.5885 15.3414 12.6557 14.7318 12.9096C14.1221 13.1636 13.6017 13.5929 13.2364 14.1431C12.8712 14.6933 12.6776 15.3396 12.6802 16C12.6837 16.8794 13.0346 17.7218 13.6565 18.3437C14.2783 18.9655 15.1208 19.3165 16.0002 19.32ZM16.0002 13.9866C16.3958 13.9866 16.7824 14.1039 17.1113 14.3237C17.4402 14.5435 17.6966 14.8558 17.848 15.2213C17.9993 15.5867 18.0389 15.9888 17.9618 16.3768C17.8846 16.7648 17.6941 17.1211 17.4144 17.4008C17.1347 17.6805 16.7783 17.871 16.3904 17.9482C16.0024 18.0254 15.6003 17.9858 15.2348 17.8344C14.8694 17.683 14.557 17.4267 14.3373 17.0978C14.1175 16.7689 14.0002 16.3822 14.0002 15.9866C14.0002 15.4562 14.2109 14.9475 14.586 14.5724C14.9611 14.1973 15.4698 13.9866 16.0002 13.9866Z" fill="#262626"/>
</g>
<defs>
<clipPath id="clip0_3549_39417">
<rect width="32" height="32" fill="white"/>
</clipPath>
</defs>
</svg>
