<svg width="24" height="24" viewBox="0 0 24 24" fill="none" xmlns="http://www.w3.org/2000/svg">
<g clip-path="url(#clip0_3352_154316)">
<path d="M11.9995 20.5C13.6807 20.5 15.324 20.0015 16.7219 19.0675C18.1197 18.1335 19.2091 16.806 19.8525 15.2528C20.4958 13.6996 20.6642 11.9906 20.3362 10.3417C20.0082 8.6929 19.1987 7.17834 18.0099 5.9896C16.8212 4.80085 15.3066 3.9913 13.6578 3.66333C12.0089 3.33535 10.2999 3.50368 8.7467 4.14703C7.19353 4.79037 5.86601 5.87984 4.93202 7.27766C3.99803 8.67548 3.49951 10.3189 3.49951 12C3.50216 14.2535 4.39854 16.414 5.99203 18.0075C7.58551 19.601 9.74598 20.4974 11.9995 20.5ZM12.9995 16.18H10.9995V11.18H12.9995V16.18ZM11.9995 7.7C12.2238 7.69803 12.4437 7.76287 12.631 7.88627C12.8184 8.00967 12.9648 8.18605 13.0515 8.39293C13.1383 8.59982 13.1615 8.82784 13.1182 9.04797C13.075 9.2681 12.9671 9.47036 12.8085 9.62899C12.6499 9.78762 12.4476 9.89545 12.2275 9.93873C12.0074 9.98201 11.7793 9.95879 11.5724 9.87203C11.3656 9.78526 11.1892 9.63888 11.0658 9.45153C10.9424 9.26418 10.8775 9.04434 10.8795 8.82C10.8795 8.52296 10.9975 8.23808 11.2076 8.02804C11.4176 7.818 11.7025 7.7 11.9995 7.7Z" fill="#1D6CEB"/>
</g>
<defs>
<clipPath id="clip0_3352_154316">
<rect width="24" height="24" fill="white"/>
</clipPath>
</defs>
</svg>
