<svg width="24" height="24" viewBox="0 0 24 24" fill="none" xmlns="http://www.w3.org/2000/svg">
<g clip-path="url(#clip0_3352_154178)">
<path opacity="0.9" fill-rule="evenodd" clip-rule="evenodd" d="M10.5697 3.17989C9.37655 3.18355 8.20199 3.47566 7.14612 4.03133C6.09026 4.58699 5.18441 5.38973 4.50581 6.3711C3.8272 7.35248 3.39596 8.4834 3.24885 9.66745C3.10174 10.8515 3.24311 12.0536 3.66092 13.1712C4.07873 14.2888 4.76059 15.2888 5.64837 16.0859C6.53615 16.8831 7.60352 17.4537 8.75949 17.7493C9.91547 18.0448 11.1258 18.0564 12.2872 17.7832C13.4486 17.5099 14.5268 16.9598 15.4297 16.1799L19.9997 20.6799L20.7097 19.9699L16.1697 15.4299C17.1092 14.3602 17.7193 13.0416 17.9264 11.6331C18.1334 10.2246 17.9287 8.78618 17.3368 7.49138C16.7448 6.19658 15.7911 5.10062 14.5904 4.33562C13.3897 3.57063 11.9933 3.16926 10.5697 3.17989ZM9.84441 10.9217C9.76981 11.1791 9.73135 11.5151 9.72902 11.9298V12.0228H10.8864V11.9298C10.8887 11.6772 10.9178 11.4651 10.9738 11.2935C11.0321 11.1195 11.1195 10.9682 11.236 10.8395C11.3526 10.7108 11.5099 10.5857 11.708 10.4641C12.046 10.2568 12.3036 10.0113 12.4808 9.72771C12.6603 9.44411 12.75 9.10569 12.75 8.71246C12.75 8.31685 12.6556 7.97128 12.4668 7.67576C12.278 7.38024 12.0134 7.15264 11.6731 6.99297C11.3328 6.83091 10.9411 6.74988 10.4983 6.74988C10.0833 6.74988 9.70804 6.82852 9.37238 6.98582C9.03671 7.14073 8.76865 7.3719 8.56818 7.67933C8.36772 7.98677 8.26165 8.35975 8.25 8.79826H9.48776C9.49942 8.58377 9.55303 8.40145 9.6486 8.25131C9.74417 8.10116 9.86538 7.98915 10.0122 7.91527C10.1614 7.84139 10.3211 7.80445 10.4913 7.80445C10.6707 7.80445 10.8339 7.84259 10.9808 7.91885C11.13 7.99511 11.2465 8.10355 11.3304 8.24416C11.4167 8.38477 11.4598 8.54802 11.4598 8.73391C11.4598 8.96985 11.3934 9.17719 11.2605 9.35593C11.13 9.53467 10.947 9.69912 10.7115 9.84926C10.4808 9.99702 10.2966 10.1484 10.1591 10.3033C10.0239 10.4582 9.919 10.6643 9.84441 10.9217ZM9.9493 14.1462C10.0682 14.2153 10.1976 14.2499 10.3374 14.2499C10.4726 14.2499 10.5985 14.2153 10.715 14.1462C10.8339 14.0747 10.9283 13.9794 10.9983 13.8602C11.0682 13.7387 11.1031 13.6076 11.1031 13.467C11.1031 13.3264 11.0682 13.1965 10.9983 13.0773C10.9283 12.9582 10.8339 12.864 10.715 12.7949C10.5985 12.7258 10.4726 12.6913 10.3374 12.6913C10.1976 12.6913 10.0682 12.7258 9.9493 12.7949C9.83275 12.864 9.73951 12.9582 9.66958 13.0773C9.60198 13.1965 9.56935 13.3264 9.57168 13.467C9.56935 13.6076 9.60198 13.7387 9.66958 13.8602C9.73951 13.9794 9.83275 14.0747 9.9493 14.1462Z" fill="#1D6CEB"/>
</g>
<defs>
<clipPath id="clip0_3352_154178">
<rect width="24" height="24" fill="white"/>
</clipPath>
</defs>
</svg>
