<svg width="40" height="42" viewBox="0 0 40 42" fill="none" xmlns="http://www.w3.org/2000/svg">
<rect x="6.70251" y="37.4146" width="6.07621" height="26.6145" rx="1.63636" transform="rotate(-135 6.70251 37.4146)" fill="#554435"/>
<rect x="12.3303" y="31.7729" width="6.05636" height="7.19202" transform="rotate(-135 12.3303 31.7729)" fill="#7C614A"/>
<rect x="22.2679" y="31.6722" width="19.9691" height="19.9691" rx="9.98456" transform="rotate(-135 22.2679 31.6722)" fill="white" stroke="#D1B69F" stroke-width="4.09091"/>
<path d="M21.117 19.7474C21.12 19.2351 21.1667 18.8207 21.2571 18.5043C21.3475 18.1879 21.4756 17.9348 21.6413 17.7449C21.8071 17.552 22.0316 17.3667 22.3148 17.1889C22.6283 16.99 22.8693 16.7851 23.0381 16.5741C23.2099 16.3632 23.2958 16.1191 23.2958 15.8418C23.2958 15.6369 23.246 15.4546 23.1466 15.2949C23.0471 15.1352 22.9115 15.0116 22.7398 14.9242C22.571 14.8368 22.3827 14.7931 22.1747 14.7931C21.9728 14.7931 21.7845 14.8383 21.6097 14.9287C21.4349 15.0161 21.2917 15.1472 21.1802 15.322C21.0687 15.4938 21.0085 15.6987 20.9994 15.9368H19.1823C19.1943 15.3582 19.3329 14.87 19.5981 14.4722C19.8663 14.0714 20.2249 13.773 20.674 13.5772C21.126 13.3783 21.6308 13.2788 22.1883 13.2788C22.785 13.2788 23.3123 13.3783 23.7704 13.5772C24.2315 13.776 24.5901 14.0653 24.8462 14.4451C25.1054 14.8218 25.235 15.2678 25.235 15.7831C25.235 16.2863 25.116 16.7173 24.8779 17.0759C24.6398 17.4315 24.2963 17.7434 23.8472 18.0116C23.5971 18.1623 23.3982 18.3145 23.2506 18.4682C23.1029 18.6188 22.9914 18.7966 22.9161 19.0016C22.8437 19.2065 22.8076 19.4551 22.8076 19.7474V19.8921H21.117V19.7474Z" fill="#554435"/>
<path d="M22.9161 22.663L21.0339 22.663L21.0339 21.0267H22.0007H22.9161L22.9161 22.663Z" fill="#554435"/>
</svg>
