<svg width="64" height="65" viewBox="0 0 64 65" fill="none" xmlns="http://www.w3.org/2000/svg">
<path d="M32 62.2695C48.5686 62.2695 62 48.8381 62 32.2695C62 15.701 48.5686 2.26953 32 2.26953C15.4315 2.26953 2 15.701 2 32.2695C2 48.8381 15.4315 62.2695 32 62.2695Z" fill="#FFD93B"/>
<path d="M15.4217 22.9996C14.9129 22.9996 14.4483 22.9701 14.0501 22.9111C13.4454 22.83 13.0176 22.2696 13.0987 21.6648C13.1799 21.0601 13.733 20.6324 14.3377 20.7135C14.6032 20.743 20.8421 21.4952 23.1577 16.3699C23.4085 15.8168 24.0648 15.566 24.6253 15.8168C25.1784 16.0675 25.4291 16.7238 25.1784 17.2769C23.1209 21.8345 18.4675 22.9923 15.4217 22.9923V22.9996Z" fill="#EFB33C"/>
<path d="M48.5708 23.2061C45.5251 23.2061 40.8717 22.0483 38.8142 17.4908C38.5635 16.9377 38.8142 16.2814 39.3673 16.0306C39.9278 15.7799 40.5767 16.0306 40.8348 16.5837C43.1652 21.7386 49.5885 20.9348 49.6549 20.9274C50.2596 20.8463 50.8201 21.2666 50.9012 21.8787C50.9823 22.4834 50.562 23.0439 49.9499 23.125C49.5517 23.1766 49.087 23.2135 48.5782 23.2135L48.5708 23.2061Z" fill="#EFB33C"/>
<path d="M22.6196 47.0336C22.2214 47.0336 21.8232 46.8713 21.5355 46.5542C20.9825 45.9569 21.0193 45.0277 21.6167 44.4746C21.7052 44.3934 30.9382 36.0601 42.2435 44.2828C42.8998 44.7622 43.0473 45.684 42.568 46.3403C42.0886 46.9967 41.1668 47.1442 40.5105 46.6648C31.1963 39.8949 23.9175 46.3625 23.6152 46.6353C23.3349 46.8934 22.9736 47.0188 22.6196 47.0188V47.0336Z" fill="#3E4347"/>
<path d="M23.3495 34.9465C25.4349 34.9465 27.1253 32.9654 27.1253 30.5217C27.1253 28.078 25.4349 26.0969 23.3495 26.0969C21.2642 26.0969 19.5737 28.078 19.5737 30.5217C19.5737 32.9654 21.2642 34.9465 23.3495 34.9465Z" fill="#3E4347"/>
<path d="M40.6435 34.9465C42.7288 34.9465 44.4193 32.9654 44.4193 30.5217C44.4193 28.078 42.7288 26.0969 40.6435 26.0969C38.5582 26.0969 36.8677 28.078 36.8677 30.5217C36.8677 32.9654 38.5582 34.9465 40.6435 34.9465Z" fill="#3E4347"/>
<path d="M13.9176 43.3978C13.9323 45.7577 15.9309 47.771 18.2907 47.771V34.3639C17.8188 34.5704 13.8954 39.1058 13.9176 43.3978Z" fill="#44CBE9"/>
<path d="M18.291 34.3639V47.771C20.6509 47.771 22.6568 45.7577 22.6642 43.3978C22.6863 39.1058 18.763 34.5704 18.291 34.3639Z" fill="#44CBE9"/>
</svg>
