<svg width="64" height="64" viewBox="0 0 64 64" fill="none" xmlns="http://www.w3.org/2000/svg">
<path d="M32 62C48.5685 62 62 48.5685 62 32C62 15.4315 48.5685 2 32 2C15.4315 2 2 15.4315 2 32C2 48.5685 15.4315 62 32 62Z" fill="#FFD93B"/>
<path d="M31.989 45.3144C25.8533 45.3144 20.4477 42.4825 18.5524 38.2643C18.2205 37.5194 18.5524 36.6492 19.2899 36.31C20.0347 35.9781 20.9049 36.31 21.2441 37.0474C22.6527 40.1743 27.0701 42.3572 31.9963 42.3572C36.9226 42.3572 41.3547 40.1669 42.7559 37.0327C43.0878 36.2879 43.958 35.956 44.7028 36.2879C45.4477 36.6197 45.7795 37.4899 45.4477 38.2348C43.5598 42.4678 38.1542 45.307 31.9963 45.307L31.989 45.3144Z" fill="#3E4347"/>
<path d="M23.5192 30.9897C25.6045 30.9897 27.295 29.0087 27.295 26.5649C27.295 24.1212 25.6045 22.1401 23.5192 22.1401C21.4339 22.1401 19.7434 24.1212 19.7434 26.5649C19.7434 29.0087 21.4339 30.9897 23.5192 30.9897Z" fill="#3E4347"/>
<path d="M40.8054 30.9897C42.8907 30.9897 44.5812 29.0087 44.5812 26.5649C44.5812 24.1212 42.8907 22.1401 40.8054 22.1401C38.72 22.1401 37.0295 24.1212 37.0295 26.5649C37.0295 29.0087 38.72 30.9897 40.8054 30.9897Z" fill="#3E4347"/>
</svg>
