<svg width="64" height="64" viewBox="0 0 64 64" fill="none" xmlns="http://www.w3.org/2000/svg">
<path d="M32 62C48.5685 62 62 48.5685 62 32C62 15.4315 48.5685 2 32 2C15.4315 2 2 15.4315 2 32C2 48.5685 15.4315 62 32 62Z" fill="#FFD93B"/>
<path d="M47.4478 36.6313C45.3977 43.2389 39.2546 48.0325 31.9906 48.0325C24.7266 48.0325 18.6056 43.2537 16.5481 36.6681L47.4478 36.6239V36.6313Z" fill="#3E4347"/>
<path d="M31.9906 48.77C24.557 48.77 18.0673 43.9986 15.8475 36.8894C15.7738 36.6682 15.818 36.4248 15.9581 36.2331C16.0983 36.0413 16.3195 35.9307 16.5555 35.9307L47.4552 35.8865C47.6912 35.8865 47.9124 35.9971 48.0452 36.1888C48.1853 36.3806 48.2222 36.6239 48.1558 36.8452C45.9434 43.9764 39.4463 48.77 31.998 48.77H31.9906ZM17.5879 37.4056C19.8815 43.3643 25.5452 47.295 31.9906 47.295C38.436 47.295 44.1292 43.3422 46.408 37.3688L17.5806 37.4056H17.5879Z" fill="#3E4347"/>
<path d="M23.5192 30.9897C25.6045 30.9897 27.295 29.0087 27.295 26.5649C27.295 24.1212 25.6045 22.1401 23.5192 22.1401C21.4339 22.1401 19.7434 24.1212 19.7434 26.5649C19.7434 29.0087 21.4339 30.9897 23.5192 30.9897Z" fill="#3E4347"/>
<path d="M40.8129 30.9897C42.8982 30.9897 44.5887 29.0087 44.5887 26.5649C44.5887 24.1212 42.8982 22.1401 40.8129 22.1401C38.7276 22.1401 37.0371 24.1212 37.0371 26.5649C37.0371 29.0087 38.7276 30.9897 40.8129 30.9897Z" fill="#3E4347"/>
<path d="M31.8449 35.9086L17.8921 35.9233C17.8921 35.9233 18.7844 38.6741 21.2844 38.8732C23.4083 39.0428 29.9054 39.0281 31.8449 39.0207C33.777 39.0207 40.2815 39.0354 42.4054 38.8732C44.9054 38.6741 45.8567 35.8865 45.8567 35.8865L31.8449 35.9086Z" fill="white"/>
<path d="M23.8804 46.7862C26.2919 48.0841 29.0279 48.8142 31.9187 48.8142C34.8096 48.8142 37.5529 48.0841 39.9644 46.7862C39.1754 43.5635 35.8789 42.3171 31.9261 42.3171C27.9733 42.3171 24.6695 43.5708 23.8877 46.7935L23.8804 46.7862Z" fill="#E55C5C"/>
</svg>
