<svg width="20" height="20" viewBox="0 0 20 20" fill="none" xmlns="http://www.w3.org/2000/svg">
<g clip-path="url(#clip0_1819_136404)">
<path d="M2.72499 8.20019C2.42517 9.38146 2.42517 10.6189 2.72499 11.8002C2.7488 11.8905 2.80169 11.9705 2.8755 12.0277C2.94931 12.085 3.03992 12.1163 3.13332 12.1169H4.56666C4.76639 12.659 5.04738 13.1676 5.39999 13.6252L4.67499 14.8752C4.62785 14.9552 4.60881 15.0487 4.62089 15.1408C4.63296 15.2329 4.67547 15.3183 4.74166 15.3835C5.17766 15.8052 5.66151 16.1743 6.18332 16.4835C6.70891 16.7847 7.26838 17.0225 7.84999 17.1919H7.96666C8.03944 17.1964 8.11207 17.1809 8.1767 17.1471C8.24132 17.1133 8.29548 17.0625 8.33332 17.0002L9.05832 15.7585C9.65976 15.8585 10.2736 15.8585 10.875 15.7585L11.6667 17.0002C11.7132 17.0805 11.7852 17.1429 11.8712 17.1776C11.9573 17.2124 12.0524 17.2174 12.1417 17.1919C12.7233 17.0225 13.2827 16.7847 13.8083 16.4835C14.3301 16.1743 14.814 15.8052 15.25 15.3835C15.3162 15.3183 15.3587 15.2329 15.3708 15.1408C15.3828 15.0487 15.3638 14.9552 15.3167 14.8752L14.5917 13.6252C14.9619 13.1723 15.2573 12.6631 15.4667 12.1169H16.9C16.9934 12.1163 17.084 12.085 17.1578 12.0277C17.2316 11.9705 17.2845 11.8905 17.3083 11.8002C17.6081 10.6189 17.6081 9.38146 17.3083 8.20019C17.2845 8.10987 17.2316 8.02991 17.1578 7.97267C17.084 7.91543 16.9934 7.8841 16.9 7.88353H15.4333C15.224 7.33729 14.9286 6.82808 14.5583 6.37519L15.2833 5.12519C15.3305 5.04515 15.3495 4.95166 15.3374 4.85956C15.3253 4.76746 15.2828 4.68204 15.2167 4.61686C14.7807 4.19522 14.2968 3.82604 13.775 3.51686C13.2494 3.21566 12.6899 2.97789 12.1083 2.80853C12.0239 2.78955 11.9356 2.79789 11.8562 2.83234C11.7769 2.86679 11.7105 2.92557 11.6667 3.00019L10.9417 4.24186C10.3402 4.14193 9.72642 4.14193 9.12499 4.24186L8.33332 3.00019C8.28679 2.91992 8.2148 2.85747 8.12875 2.82275C8.04271 2.78803 7.94754 2.78303 7.85832 2.80853C7.27671 2.97789 6.71724 3.21566 6.19166 3.51686C5.68149 3.82818 5.20893 4.19728 4.78332 4.61686C4.71714 4.68204 4.67463 4.76746 4.66255 4.85956C4.65047 4.95166 4.66952 5.04515 4.71666 5.12519L5.44166 6.37519C5.08612 6.83091 4.80487 7.33997 4.60832 7.88353H3.13332C3.03992 7.8841 2.94931 7.91543 2.8755 7.97267C2.80169 8.02991 2.7488 8.10987 2.72499 8.20019ZM3.46666 8.71686H4.85832C4.94609 8.71672 5.03167 8.6894 5.10329 8.63867C5.17491 8.58794 5.22907 8.51628 5.25832 8.43353C5.46734 7.78245 5.80769 7.18117 6.25832 6.66686C6.31617 6.60165 6.3521 6.51994 6.36107 6.43324C6.37004 6.34653 6.35159 6.2592 6.30832 6.18353L5.59999 5.00019C6.24344 4.42349 6.99768 3.98399 7.81666 3.70853L8.51666 4.90853C8.56068 4.98535 8.62804 5.04616 8.70895 5.08212C8.78986 5.11808 8.88013 5.12733 8.96666 5.10853C9.64825 4.96678 10.3517 4.96678 11.0333 5.10853C11.1199 5.1287 11.2107 5.12009 11.2919 5.08399C11.3731 5.0479 11.4403 4.98629 11.4833 4.90853L12.1833 3.70853C13.0023 3.98399 13.7565 4.42349 14.4 5.00019L13.6917 6.20853C13.6484 6.2842 13.6299 6.37153 13.6389 6.45824C13.6479 6.54494 13.6838 6.62665 13.7417 6.69186C14.1907 7.19928 14.5335 7.79148 14.75 8.43353C14.7766 8.5163 14.8289 8.58842 14.8994 8.63938C14.9698 8.69034 15.0547 8.71748 15.1417 8.71686H16.5333C16.7111 9.56318 16.7111 10.4372 16.5333 11.2835H15.1417C15.0539 11.2837 14.9683 11.311 14.8967 11.3617C14.8251 11.4124 14.7709 11.4841 14.7417 11.5669C14.5326 12.2179 14.1923 12.8192 13.7417 13.3335C13.6838 13.3987 13.6479 13.4804 13.6389 13.5671C13.6299 13.6539 13.6484 13.7412 13.6917 13.8169L14.4 15.0002C13.7565 15.5769 13.0023 16.0164 12.1833 16.2919L11.4833 15.0919C11.4403 15.0141 11.3731 14.9525 11.2919 14.9164C11.2107 14.8803 11.1199 14.8717 11.0333 14.8919C10.3517 15.0336 9.64825 15.0336 8.96666 14.8919C8.88013 14.8731 8.78986 14.8823 8.70895 14.9183C8.62804 14.9542 8.56068 15.015 8.51666 15.0919L7.81666 16.2919C6.99768 16.0164 6.24344 15.5769 5.59999 15.0002L6.30832 13.7919C6.34602 13.719 6.36139 13.6367 6.35249 13.5551C6.3436 13.4736 6.31084 13.3965 6.25832 13.3335C5.81063 12.8266 5.47043 12.2341 5.25832 11.5919C5.22907 11.5091 5.17491 11.4374 5.10329 11.3867C5.03167 11.336 4.94609 11.3087 4.85832 11.3085H3.46666C3.28885 10.4622 3.28885 9.58818 3.46666 8.74186V8.71686Z" fill="#666666"/>
<path d="M9.99994 12.0749C10.4127 12.0765 10.8166 11.9555 11.1605 11.7272C11.5044 11.4989 11.7727 11.1737 11.9314 10.7926C12.0901 10.4116 12.1321 9.99204 12.052 9.58714C11.9718 9.18224 11.7733 8.81026 11.4814 8.5184C11.1895 8.22654 10.8176 8.02795 10.4127 7.94783C10.0078 7.86771 9.58818 7.90967 9.20716 8.06838C8.82614 8.2271 8.50086 8.49541 8.27257 8.83929C8.04429 9.18317 7.9233 9.5871 7.92494 9.99985C7.92714 10.5495 8.14646 11.076 8.53512 11.4647C8.92378 11.8533 9.45029 12.0727 9.99994 12.0749ZM9.99994 8.74152C10.2472 8.74152 10.4888 8.81483 10.6944 8.95218C10.9 9.08954 11.0602 9.28476 11.1548 9.51317C11.2494 9.74157 11.2742 9.99291 11.2259 10.2354C11.1777 10.4779 11.0586 10.7006 10.8838 10.8754C10.709 11.0502 10.4863 11.1693 10.2438 11.2175C10.0013 11.2657 9.75 11.241 9.52159 11.1464C9.29318 11.0518 9.09796 10.8915 8.96061 10.686C8.82325 10.4804 8.74994 10.2387 8.74994 9.99152C8.74994 9.66 8.88164 9.34206 9.11606 9.10764C9.35048 8.87322 9.66842 8.74152 9.99994 8.74152Z" fill="#666666"/>
</g>
<defs>
<clipPath id="clip0_1819_136404">
<rect width="20" height="20" fill="white"/>
</clipPath>
</defs>
</svg>
