<svg width="22" height="23" viewBox="0 0 22 23" fill="none" xmlns="http://www.w3.org/2000/svg">
<path d="M14.9732 19.2823C15.1 19.2951 15.228 19.281 15.349 19.2411C15.47 19.2011 15.5813 19.1362 15.6756 19.0505C15.7699 18.9648 15.8451 18.8602 15.8964 18.7435C15.9476 18.6268 15.9738 18.5007 15.9732 18.3732V4.73688C15.9673 4.61148 15.9368 4.48847 15.8834 4.37487C15.8299 4.26128 15.7546 4.15934 15.6617 4.0749C15.5688 3.99046 15.4602 3.92516 15.3421 3.88276C15.2239 3.84036 15.0985 3.82168 14.9732 3.82779H6.97316C6.84777 3.82168 6.72241 3.84036 6.60425 3.88276C6.4861 3.92516 6.37746 3.99046 6.28458 4.0749C6.19169 4.15934 6.11637 4.26128 6.06293 4.37487C6.00949 4.48847 5.97898 4.61148 5.97316 4.73688V18.3732C5.97252 18.5007 5.99868 18.6268 6.04994 18.7435C6.1012 18.8602 6.17642 18.9648 6.27071 19.0505C6.36501 19.1362 6.47627 19.2011 6.59729 19.2411C6.7183 19.281 6.84636 19.2951 6.97316 19.2823H14.9732ZM12.2004 17.8005H9.74588V16.8914H12.2004V17.8005ZM7.36407 5.73688H14.5822V15.446H7.36407V5.73688Z" fill="#1D6CEB"/>
</svg>
