<svg width="65" height="65" viewBox="0 0 65 65" fill="none" xmlns="http://www.w3.org/2000/svg">
<path d="M32.252 62.1143C48.8205 62.1143 62.252 48.6828 62.252 32.1143C62.252 15.5457 48.8205 2.11426 32.252 2.11426C15.6834 2.11426 2.25195 15.5457 2.25195 32.1143C2.25195 48.6828 15.6834 62.1143 32.252 62.1143Z" fill="#F2F2F2"/>
<path d="M27.8291 21.0258C27.5524 21.0258 27.2758 20.9135 27.0811 20.6992C26.5585 20.138 25.4416 19.1788 23.8329 18.9951C22.4394 18.8421 21.343 19.3727 20.8205 19.6992C20.3389 19.9951 19.7036 19.8523 19.4064 19.3727C19.1093 18.8931 19.2527 18.2604 19.7343 17.9645C21.0356 17.1584 22.5726 16.8012 24.0584 16.9645C26.3228 17.2196 27.8598 18.5359 28.5771 19.3013C28.9664 19.7094 28.9357 20.3625 28.5258 20.7401C28.3312 20.9237 28.075 21.0156 27.8291 21.0156V21.0258Z" fill="#CCCCCC"/>
<path d="M37.4102 16.9143C37.1435 16.9143 36.8871 16.8136 36.6819 16.6124C36.2818 16.2199 36.2818 15.576 36.6819 15.1936C37.8 14.1068 39.2259 13.3924 40.6929 13.1811C42.9599 12.8591 44.7038 13.7748 45.545 14.3483C46.0066 14.6703 46.1194 15.2942 45.8014 15.747C45.4732 16.1998 44.8372 16.3105 44.3755 15.9986C43.7806 15.5961 42.5598 14.9521 40.9801 15.1735C39.585 15.3646 38.5899 16.1596 38.118 16.6224C37.9129 16.8136 37.6564 16.9143 37.4 16.9143H37.4102Z" fill="#CCCCCC"/>
<path d="M24.052 31.1143C26.1506 31.1143 27.852 29.3234 27.852 27.1143C27.852 24.9051 26.1506 23.1143 24.052 23.1143C21.9533 23.1143 20.252 24.9051 20.252 27.1143C20.252 29.3234 21.9533 31.1143 24.052 31.1143Z" fill="#666666"/>
<path d="M41.1674 30.7912C43.2528 30.7912 44.9432 28.8102 44.9432 26.3664C44.9432 23.9227 43.2528 21.9417 41.1674 21.9417C39.0821 21.9417 37.3916 23.9227 37.3916 26.3664C37.3916 28.8102 39.0821 30.7912 41.1674 30.7912Z" fill="#666666"/>
<path d="M37.7144 43.3145C37.4239 43.2833 37.1442 43.1532 36.9351 42.9309C36.2699 42.2398 34.8414 41.017 32.661 40.6626C29.9742 40.2138 27.907 41.3505 27.1433 41.8579C26.5648 42.2453 25.7811 42.0911 25.3967 41.5202C25.0124 40.9492 25.1564 40.1753 25.7339 39.7978C26.7492 39.1175 29.504 37.6152 33.0768 38.2092C35.9829 38.6916 37.896 40.3063 38.7692 41.2296C39.2422 41.7301 39.2183 42.517 38.7225 42.9832C38.4413 43.2428 38.0749 43.3533 37.7244 43.3156L37.7144 43.3145Z" fill="#666666"/>
<path d="M14.005 43.8629C14.0283 46.3673 14.0148 47.177 13.5165 51.9253C13.2735 54.2112 13.2793 56.0916 14.0632 58.1992C14.6779 59.8478 16.1223 60.8679 17.6496 61.3868C18.1864 61.5727 18.8279 61.6206 20.1012 61.735C21.7836 61.8841 21.5621 61.7687 25.5266 61.8257C26.7736 61.8466 27.4809 61.8584 28.0943 61.3567C28.5758 60.9551 28.8078 60.4377 28.9372 59.9372C29.1163 59.2514 29.1653 57.9862 29.1865 57.2791C29.2452 55.437 29.2666 55.2698 29.3189 53.8092C29.4415 53.1597 29.757 52.1038 30.6112 51.6806C31.0149 51.4732 32.0034 51.3687 32.357 51.3746C33.1204 51.3688 33.1763 51.3697 35.2355 51.2459C36.0276 51.194 36.6557 50.9345 37.0935 50.3554C37.1886 50.236 37.6456 49.6293 37.4246 48.9274C37.2568 48.3847 36.7422 47.9852 36.1109 47.8815L25.4352 47.8054C23.6483 47.7848 22.1322 47.713 20.9515 47.6281C19.436 47.5189 18.7301 47.4234 18.3019 46.867C17.9193 46.3672 17.8756 45.6404 17.826 44.7087C17.826 44.7087 17.9063 43.8072 17.85 43.2756C17.624 41.2053 16.7195 40.1849 15.5379 40.1465C14.9796 40.1372 14.5642 40.4839 14.5074 40.5389C13.7136 41.2517 14.003 43.4254 14.005 43.8629Z" fill="#C7C7C7"/>
</svg>
