<svg width="115" height="100" viewBox="0 0 115 100" fill="none" xmlns="http://www.w3.org/2000/svg">
<g id="&#236;&#157;&#188;&#235;&#159;&#172;&#236;&#138;&#164;&#237;&#138;&#184; 02">
<g id="Clip path group">
<mask id="mask0_2789_53534" style="mask-type:luminance" maskUnits="userSpaceOnUse" x="0" y="0" width="115" height="100">
<g id="clippath">
<path id="Vector" d="M114.93 0H0V100H114.93V0Z" fill="white"/>
</g>
</mask>
<g mask="url(#mask0_2789_53534)">
<g id="Group">
<path id="Vector_2" d="M50.6105 65.58L19.7305 74.95L45.9605 84.7H50.6105H55.2605L81.4905 74.95L50.6105 65.58Z" fill="#FFE4E1"/>
<path id="Vector_3" d="M92.9304 85.2999C92.5203 84.1099 89.4103 77.3199 81.4903 74.9499L66.6204 70.4399C63.2704 75.7699 57.3604 79.3199 50.6104 79.3199C43.8604 79.3199 37.9404 75.7699 34.6004 70.4399L19.7304 74.9499C11.8104 77.3199 8.70035 84.1099 8.29035 85.2999L-7.88965 131.97L16.5604 145.9L19.6504 165.98H81.5704L84.6604 145.9L109.11 131.97L92.9304 85.2999Z" fill="#5B5B5B"/>
<path id="Vector_4" d="M85.4104 76.6599L0.530352 107.69L-7.88965 131.97L16.5604 145.9L19.6504 165.98H81.5704L84.6604 145.9L109.11 131.97L92.9304 85.2999C92.6003 84.3299 90.4704 79.6499 85.4104 76.6599Z" fill="#464647"/>
<path id="Vector_5" d="M34.6006 70.4399L38.6006 99.9999H62.6206L66.6206 70.4399H34.6006Z" fill="#CCCCCC"/>
<path id="Vector_6" d="M61.26 56.74H39.96V75.8H61.26V56.74Z" fill="#FFE4E1"/>
<path id="Vector_7" d="M61.26 56.74H39.96V81.73H61.26V56.74Z" fill="#FFE4E1"/>
<path id="Vector_8" d="M39.96 56.74V65.68L61.26 68.81V56.74H39.96Z" fill="#F5C6BB"/>
<g id="Group_2">
<path id="Vector_9" d="M27.4307 42.7C27.4307 45.47 29.6707 47.7 32.4307 47.7C35.1907 47.7 37.4307 45.46 37.4307 42.7C37.4307 39.94 35.1907 37.7 32.4307 37.7C29.6707 37.7 27.4307 39.94 27.4307 42.7Z" fill="#FFE4E1"/>
<path id="Vector_10" d="M63.791 42.7C63.791 45.47 66.031 47.7 68.791 47.7C71.551 47.7 73.791 45.46 73.791 42.7C73.791 39.94 71.551 37.7 68.791 37.7C66.031 37.7 63.791 39.94 63.791 42.7Z" fill="#F5C6BB"/>
<path id="Vector_11" d="M50.4906 63.8999C40.9306 63.8999 33.1006 56.0699 33.1006 46.5099V33.2099C33.1006 23.6499 40.9306 15.8199 50.4906 15.8199C60.0506 15.8199 67.8806 23.6499 67.8806 33.2099V46.5099C67.8806 56.0799 60.0506 63.8999 50.4906 63.8999Z" fill="#FFE4E1"/>
<path id="Vector_12" d="M63.621 39.9299H62.401C61.711 38.5399 60.291 37.6599 58.731 37.6599H55.371C54.081 37.6599 52.871 38.2799 52.111 39.3199C51.621 39.0099 51.061 38.8699 50.501 38.8699C49.941 38.8699 49.381 39.0199 48.891 39.3199C48.141 38.2799 46.921 37.6599 45.631 37.6599H42.251C40.691 37.6599 39.281 38.5399 38.591 39.9299H37.361C36.911 39.9299 36.541 40.2999 36.541 40.7499C36.541 41.1999 36.911 41.5699 37.361 41.5699H38.161C38.151 41.8499 38.161 42.1299 38.211 42.3999L38.471 43.9899C38.881 46.4199 41.271 47.7199 43.691 47.7199C44.411 47.7199 45.121 47.6099 45.791 47.3699C48.291 46.3199 49.821 43.7699 49.591 41.0799C49.591 40.6799 50.031 40.4899 50.481 40.4899C50.931 40.4899 51.381 40.6899 51.381 41.0799C51.151 43.7799 52.681 46.3199 55.181 47.3699C55.861 47.5999 56.561 47.7199 57.271 47.7199C57.411 47.7299 57.551 47.7299 57.681 47.7299C59.931 47.7299 61.931 46.1899 62.481 43.9799L62.741 42.3899C62.781 42.1099 62.801 41.8399 62.791 41.5499H63.601C64.051 41.5499 64.421 41.1799 64.421 40.7299C64.421 40.2899 64.061 39.9199 63.611 39.9199L63.621 39.9299ZM48.231 41.2199C48.411 43.3299 47.221 45.3099 45.351 46.0999C44.851 46.2799 44.281 46.3699 43.701 46.3699C42.041 46.3699 40.131 45.5599 39.831 43.7799L39.571 42.1799C39.571 42.1799 39.501 41.2299 39.851 40.4799C40.321 39.5799 41.231 39.0299 42.251 39.0299H45.631C46.481 39.0299 47.281 39.4399 47.781 40.1199C47.781 40.1199 48.231 40.7499 48.231 41.0899V41.1999V41.2199ZM61.401 42.1899L61.141 43.7299C60.731 45.2999 59.311 46.3999 57.691 46.3999C57.591 46.3999 57.491 46.3999 57.391 46.3899H57.331H57.271C56.711 46.3899 56.151 46.2999 55.711 46.1499C53.761 45.3299 52.571 43.3499 52.751 41.2399V41.1799V41.1199C52.751 40.7999 53.211 40.1499 53.211 40.1499C53.711 39.4599 54.511 39.0599 55.371 39.0599H58.721C59.761 39.0599 60.701 39.6399 61.151 40.5699L61.401 41.0799L61.431 41.6599C61.431 41.8399 61.431 42.0299 61.391 42.2099L61.401 42.1899Z" fill="#004B9B"/>
<path id="Vector_13" d="M50.4904 47.62C50.1804 47.62 49.9404 47.37 49.9404 47.07V45.43C49.9404 45.12 50.1904 44.88 50.4904 44.88C50.7904 44.88 51.0404 45.13 51.0404 45.43V47.07C51.0404 47.38 50.7904 47.62 50.4904 47.62Z" fill="#EA8784"/>
<path id="Vector_14" d="M50.4908 53.77C47.0108 53.77 43.9108 52.25 42.6108 49.89C42.4608 49.62 42.5608 49.28 42.8308 49.12C43.1008 48.97 43.4408 49.07 43.5908 49.34C44.6908 51.32 47.4608 52.65 50.4908 52.65C53.5208 52.65 56.3008 51.32 57.3908 49.34C57.5408 49.07 57.8808 48.97 58.1508 49.12C58.4208 49.27 58.5208 49.61 58.3708 49.89C57.0609 52.25 53.9608 53.77 50.4908 53.77Z" fill="#EA8784"/>
<path id="Vector_15" d="M56.1309 42.6899C56.8009 42.6899 57.3409 42.1499 57.3409 41.4799C57.3409 40.8099 56.8009 40.2699 56.1309 40.2699C55.4609 40.2699 54.9209 40.8099 54.9209 41.4799C54.9209 42.1499 55.4609 42.6899 56.1309 42.6899Z" fill="#3F2119"/>
<path id="Vector_16" d="M44.7608 42.6899C45.4308 42.6899 45.9708 42.1499 45.9708 41.4799C45.9708 40.8099 45.4308 40.2699 44.7608 40.2699C44.0908 40.2699 43.5508 40.8099 43.5508 41.4799C43.5508 42.1499 44.0908 42.6899 44.7608 42.6899Z" fill="#3F2119"/>
<path id="Vector_17" d="M46.7605 34.8199C46.7605 34.8199 46.7005 34.8199 46.6705 34.8199H42.9205C42.5905 34.8199 42.3105 35.0999 42.3105 35.4399C42.3105 35.7799 42.5905 36.0499 42.9205 36.0499H46.6705C47.0005 36.0499 47.2805 35.7699 47.2805 35.4299C47.2805 35.1199 47.0505 34.8699 46.7505 34.8299L46.7605 34.8199Z" fill="#3F2119"/>
<path id="Vector_18" d="M58.1307 34.8199C58.1307 34.8199 58.0707 34.8199 58.0407 34.8199H54.2907C53.9607 34.8199 53.6807 35.0999 53.6807 35.4399C53.6807 35.7799 53.9607 36.0499 54.2907 36.0499H58.0407C58.3707 36.0499 58.6507 35.7699 58.6507 35.4299C58.6507 35.1199 58.4207 34.8699 58.1207 34.8299L58.1307 34.8199Z" fill="#3F2119"/>
</g>
<path id="Vector_19" d="M50.6107 13.8199C39.9207 13.8199 31.2207 22.5199 31.2207 33.2099V37.8099H34.8407V32.8399H66.3707V37.8099H69.9907V33.2099C69.9907 22.5199 61.2907 13.8199 50.6007 13.8199H50.6107Z" fill="#3F2119"/>
<g id="Group_3">
<path id="Vector_20" d="M65.8701 111.47L78.4201 70.4399H108.35L93.6301 111.47H65.8701Z" fill="#CCCCCC"/>
<path id="Vector_21" d="M72.4502 108.01L85.0002 66.98H114.93L100.2 108.01H72.4502Z" fill="white"/>
<g id="Group_4">
<path id="Vector_22" d="M106.58 95.46L97.9404 83.82C97.2104 82.77 95.6704 82.44 94.5004 83.08C93.3304 83.73 92.9704 85.11 93.7104 86.16L102.47 98.51C103.2 99.56 104.62 99.18 105.79 98.55C106.96 97.9 107.32 96.53 106.58 95.47V95.46Z" fill="#FFE4E1"/>
<path id="Vector_23" d="M101.58 101.66C102.8 101.07 103.25 99.7199 102.59 98.6299L94.54 86.7699C93.88 85.7199 92.41 85.3199 91.21 85.8699C89.98 86.4299 89.5 87.7899 90.14 88.8799L98.19 100.74C98.84 101.83 100.36 102.24 101.58 101.66Z" fill="#FFE4E1"/>
<path id="Vector_24" d="M98.7909 105.79C100.041 105.23 100.571 103.89 99.9809 102.79L92.2309 91.05C91.6409 89.94 90.1409 89.51 88.9009 90.06C87.6509 90.61 87.1209 91.96 87.7209 93.07L95.4709 104.8C96.0609 105.9 97.5509 106.35 98.7909 105.79Z" fill="#FFE4E1"/>
<path id="Vector_25" d="M96.3504 108.21C97.4104 107.73 97.8604 106.58 97.3504 105.64L90.6704 95.69C90.1504 94.75 88.8804 94.38 87.8204 94.87C86.7604 95.35 86.3204 96.4999 86.8304 97.4399L93.5104 107.38C94.0204 108.32 95.3004 108.69 96.3504 108.21Z" fill="#FFE4E1"/>
<path id="Vector_26" d="M102.021 97.9299C102.301 97.7899 102.401 97.4799 102.241 97.2299L95.0707 86.9199C94.9107 86.6699 94.5607 86.5699 94.2807 86.7099C94.0007 86.8499 93.9007 87.1599 94.0607 87.4099L101.231 97.7199C101.261 97.7699 101.301 97.8099 101.341 97.8499C101.521 97.9999 101.801 98.0399 102.021 97.9299Z" fill="#F5C6BB"/>
<path id="Vector_27" d="M98.3706 101.04C98.6506 100.91 98.7606 100.59 98.6106 100.34L91.8206 90.57C91.6706 90.32 91.3206 90.22 91.0406 90.36C90.7606 90.49 90.6506 90.81 90.8006 91.06L97.5906 100.83C97.6206 100.88 97.6606 100.93 97.7106 100.97C97.8906 101.11 98.1406 101.14 98.3706 101.04Z" fill="#F5C6BB"/>
<path id="Vector_28" d="M95.4002 103.94C95.6902 103.82 95.8102 103.51 95.6802 103.25L90.5602 95.6499C90.4302 95.3899 90.0902 95.2799 89.7902 95.3999C89.5002 95.5199 89.3802 95.8299 89.5102 96.0899L94.6302 103.69C94.6602 103.76 94.7202 103.81 94.7802 103.86C94.9502 103.99 95.1902 104.02 95.4002 103.94Z" fill="#F5C6BB"/>
</g>
</g>
<path id="Vector_29" d="M50.6104 13.8199H70.0004V37.8099L64.4304 25.8199L50.6104 13.8199Z" fill="#3F2119"/>
<path id="Vector_30" d="M50.6104 79.3099L43.9004 82.6699L47.2604 89.8199H50.6104H53.9604L57.3204 82.6699L50.6104 79.3099Z" fill="#1E1D23"/>
<path id="Vector_31" d="M50.6104 106.6L44.1104 101.11L47.3703 89.3999H50.6104H53.8504L57.1104 101.11L50.6104 106.6Z" fill="#1E1D23"/>
<g id="Group_5">
<g id="Group_6">
<path id="Vector_32" d="M50.6205 114.08L37.8905 69.4399L35.9805 70.0199L48.8605 114.08H50.6205Z" fill="#1D6CEB"/>
<path id="Vector_33" d="M52.3606 114.08L65.2406 70.0199L63.3306 69.4399L50.6006 114.08H52.3606Z" fill="#004B9B"/>
</g>
<path id="Vector_34" d="M58.0306 114.08H43.1906C42.6106 114.08 42.1406 113.61 42.1406 113.03V90.6999C42.1406 90.1199 42.6106 89.6499 43.1906 89.6499H58.0306C58.6106 89.6499 59.0806 90.1199 59.0806 90.6999V113.03C59.0806 113.61 58.6106 114.08 58.0306 114.08ZM48.2306 92.0499C47.7006 92.0499 47.2706 92.4799 47.2706 93.0099C47.2706 93.5399 47.7006 93.9699 48.2306 93.9699H53.0206C53.5506 93.9699 53.9806 93.5399 53.9806 93.0099C53.9806 92.4799 53.5506 92.0499 53.0206 92.0499H48.2306Z" fill="white"/>
<path id="Vector_35" d="M44.79 96.3099H56.42V111.47H44.79V96.3099Z" fill="#BCBCBC"/>
</g>
<g id="Group_7">
<path id="Vector_36" d="M39.9606 68.8099L50.6106 79.3099L39.3106 87.4999L34.6006 70.4399L39.9606 68.8099Z" fill="white"/>
<path id="Vector_37" d="M61.2604 68.8099L50.6104 79.3099L61.9104 87.4999L66.6204 70.4399L61.2604 68.8099Z" fill="white"/>
</g>
<path id="Vector_38" d="M20.8799 81.1499L28.3899 104.92" stroke="#464647" stroke-width="1.2" stroke-linecap="round" stroke-linejoin="round"/>
</g>
</g>
</g>
</g>
</svg>
