<svg width="100" height="100" viewBox="0 0 100 100" fill="none" xmlns="http://www.w3.org/2000/svg">
<g id="&#236;&#157;&#188;&#235;&#159;&#172;&#236;&#138;&#164;&#237;&#138;&#184; 3" clip-path="url(#clip0_2789_53614)">
<g id="Clip path group">
<mask id="mask0_2789_53614" style="mask-type:luminance" maskUnits="userSpaceOnUse" x="0" y="0" width="100" height="100">
<g id="clippath">
<path id="Vector" d="M100 0H0V100H100V0Z" fill="white"/>
</g>
</mask>
<g mask="url(#mask0_2789_53614)">
<g id="Group">
<g id="Group_2">
<path id="Vector_2" d="M30.1201 95.0699C41.1658 95.0699 50.1201 86.1156 50.1201 75.0699C50.1201 64.0243 41.1658 55.0699 30.1201 55.0699C19.0744 55.0699 10.1201 64.0243 10.1201 75.0699C10.1201 86.1156 19.0744 95.0699 30.1201 95.0699Z" fill="#B3B3B3"/>
<path id="Vector_3" d="M37.9998 71.98C47.9354 71.98 55.9898 63.9256 55.9898 53.99C55.9898 44.0544 47.9354 36 37.9998 36C28.0642 36 20.0098 44.0544 20.0098 53.99C20.0098 63.9256 28.0642 71.98 37.9998 71.98Z" fill="#B3B3B3"/>
<path id="Vector_4" d="M68.7998 95.0699C79.8455 95.0699 88.7998 86.1156 88.7998 75.0699C88.7998 64.0243 79.8455 55.0699 68.7998 55.0699C57.7541 55.0699 48.7998 64.0243 48.7998 75.0699C48.7998 86.1156 57.7541 95.0699 68.7998 95.0699Z" fill="#B3B3B3"/>
<path id="Vector_5" d="M60.9197 71.98C70.8553 71.98 78.9097 63.9256 78.9097 53.99C78.9097 44.0544 70.8553 36 60.9197 36C50.9841 36 42.9297 44.0544 42.9297 53.99C42.9297 63.9256 50.9841 71.98 60.9197 71.98Z" fill="#B3B3B3"/>
<path id="Vector_6" d="M49.46 59C62.1625 59 72.46 48.7025 72.46 36C72.46 23.2975 62.1625 13 49.46 13C36.7574 13 26.46 23.2975 26.46 36C26.46 48.7025 36.7574 59 49.46 59Z" fill="#B3B3B3"/>
</g>
<path id="Vector_7" d="M49.46 59C62.1625 59 72.46 48.7025 72.46 36C72.46 23.2975 62.1625 13 49.46 13C36.7574 13 26.46 23.2975 26.46 36C26.46 48.7025 36.7574 59 49.46 59Z" fill="#B3B3B3"/>
<path id="Vector_8" d="M57.46 52.8101H41.46V67.1301H57.46V52.8101Z" fill="#E8E8E8"/>
<path id="Vector_9" d="M85.25 79.33C84.9 78.33 82.27 72.59 75.58 70.58L62.91 66.74L62.73 64.39C62.6 62.84 61.61 61.83 59.8 61.83H39.16C37.35 61.83 36.36 62.85 36.23 64.39L36.05 66.74L23.38 70.58C16.68 72.59 14.05 78.33 13.71 79.33L0 118.79L20.68 130.57L23.29 147.54H75.64L78.25 130.57L98.93 118.79L85.25 79.33Z" fill="#D6D6D6"/>
<path id="Vector_10" d="M78.25 130.57L98.93 118.79L85.25 79.33C85 78.61 83.58 75.48 80.34 73.01L6.51 100L0 118.79L20.68 130.57L23.29 147.54H75.64L78.25 130.57Z" fill="#D1D1D1"/>
<g id="Group_3">
<path id="Vector_11" d="M49.47 114.08L35.97 66.73L34.04 67.32L47.71 114.08H49.47Z" fill="#CCCCCC"/>
<path id="Vector_12" d="M51.2102 114.08L64.8902 67.32L62.9602 66.73L49.4502 114.08H51.2102Z" fill="#C1C1C1"/>
</g>
<path id="Vector_13" d="M56.8802 114.08H42.0402C41.4602 114.08 40.9902 113.61 40.9902 113.03V90.7C40.9902 90.12 41.4602 89.65 42.0402 89.65H56.8802C57.4602 89.65 57.9302 90.12 57.9302 90.7V113.03C57.9302 113.61 57.4602 114.08 56.8802 114.08ZM47.0802 92.05C46.5502 92.05 46.1202 92.48 46.1202 93.01C46.1202 93.54 46.5502 93.97 47.0802 93.97H51.8702C52.4002 93.97 52.8302 93.54 52.8302 93.01C52.8302 92.48 52.4002 92.05 51.8702 92.05H47.0802Z" fill="#F6F6F6"/>
<path id="Vector_14" d="M43.6504 96.3101H55.2804V111.47H43.6504V96.3101Z" fill="#E2E2E2"/>
<g id="Group_4">
<path id="Vector_15" d="M38.2601 39.96C38.7401 37.47 37.1101 35.0601 34.6201 34.5801C32.1301 34.1001 29.7201 35.7301 29.2401 38.2201C28.7601 40.7101 30.3901 43.12 32.8801 43.6C35.3701 44.08 37.7801 42.45 38.2601 39.96Z" fill="#F0F0F0"/>
<path id="Vector_16" d="M66.0805 43.61C68.5705 43.12 70.1905 40.7 69.6905 38.21C69.2005 35.72 66.7805 34.1 64.2905 34.6C61.8005 35.09 60.1805 37.51 60.6805 40C61.1805 42.49 63.5905 44.11 66.0805 43.61Z" fill="#E8E8E8"/>
<path id="Vector_17" d="M49.46 58.0701C40.68 58.0701 33.5 50.8201 33.5 41.9601V31.0401C33.5 22.1801 40.68 14.9301 49.46 14.9301C58.24 14.9301 65.42 22.1801 65.42 31.0401V41.9601C65.42 50.8201 58.24 58.0701 49.46 58.0701Z" fill="#F0F0F0"/>
</g>
<g id="Group_5">
<path id="Vector_18" d="M49.4607 42.3101C49.1707 42.3101 48.9307 42.0701 48.9307 41.7801V40.2101C48.9307 39.9201 49.1707 39.6801 49.4607 39.6801C49.7507 39.6801 49.9907 39.9201 49.9907 40.2101V41.7801C49.9907 42.0801 49.7507 42.3101 49.4607 42.3101Z" fill="#DBDBDB"/>
<path id="Vector_19" d="M54.5006 39.09C55.1406 39.09 55.6506 38.57 55.6506 37.94C55.6506 37.31 55.1306 36.79 54.5006 36.79C53.8706 36.79 53.3506 37.31 53.3506 37.94C53.3506 38.57 53.8706 39.09 54.5006 39.09Z" fill="#B8B8B8"/>
<path id="Vector_20" d="M44.4303 39.09C45.0703 39.09 45.5803 38.57 45.5803 37.94C45.5803 37.31 45.0603 36.79 44.4303 36.79C43.8003 36.79 43.2803 37.31 43.2803 37.94C43.2803 38.57 43.8003 39.09 44.4303 39.09Z" fill="#B8B8B8"/>
<path id="Vector_21" d="M44.0898 44.6001C44.9398 46.8101 47.0498 48.3701 49.4998 48.3701C51.9498 48.3701 54.0598 46.8101 54.9098 44.6001H44.0898Z" fill="#DBDBDB"/>
</g>
<path id="Vector_22" d="M66.4002 28.73C65.7602 19.94 58.4202 13 49.4702 13C40.5202 13 33.1802 18.94 32.5402 27.73L32.4902 28.73V34.55H51.2302C54.1902 34.55 56.6802 32.52 57.3702 29.76C58.4102 32.32 60.5902 34.55 63.1202 34.55H66.4702V27.73L66.4202 28.73H66.4002Z" fill="#B3B3B3"/>
</g>
</g>
</g>
</g>
<defs>
<clipPath id="clip0_2789_53614">
<rect width="100" height="100" fill="white"/>
</clipPath>
</defs>
</svg>
