<svg width="26" height="26" viewBox="0 0 26 26" fill="none" xmlns="http://www.w3.org/2000/svg">
<g clip-path="url(#clip0_647_20659)">
<path d="M13 26C20.1797 26 26 20.1797 26 13C26 5.8203 20.1797 0 13 0C5.8203 0 0 5.8203 0 13C0 20.1797 5.8203 26 13 26Z" fill="#008A3B"/>
<path d="M12.9727 18.1367C10.7988 18.1367 9.24023 16.9404 9.19922 15.2109H11.2773C11.3115 15.9492 12.0293 16.4346 12.9863 16.4414C13.9707 16.4346 14.6748 15.8877 14.668 15.0879C14.6748 14.2812 13.957 13.7139 12.7949 13.707H11.8789V12.1895H12.7949C13.7725 12.1895 14.4561 11.6562 14.4492 10.877C14.4561 10.1182 13.875 9.59863 13 9.60547C12.125 9.59863 11.4072 10.0908 11.373 10.8496H9.4043C9.43848 9.14746 10.9697 7.96484 13 7.96484C15.0645 7.96484 16.4385 9.18848 16.4316 10.7539C16.4385 11.8613 15.666 12.6475 14.5586 12.8457V12.9277C16.0146 13.1055 16.8145 13.9873 16.8008 15.2246C16.8145 16.9199 15.208 18.1367 12.9727 18.1367Z" fill="white"/>
</g>
<defs>
<clipPath id="clip0_647_20659">
<rect width="26" height="26" fill="white"/>
</clipPath>
</defs>
</svg>
