<svg width="26" height="26" viewBox="0 0 26 26" fill="none" xmlns="http://www.w3.org/2000/svg">
<g clip-path="url(#clip0_647_20667)">
<path d="M13 26C20.1797 26 26 20.1797 26 13C26 5.8203 20.1797 0 13 0C5.8203 0 0 5.8203 0 13C0 20.1797 5.8203 26 13 26Z" fill="black" fill-opacity="0.1"/>
<path d="M13.0273 18.1367C10.9629 18.1367 9.45215 16.9199 9.41797 15.2109H11.4141C11.4619 15.9834 12.166 16.5166 13.0273 16.5098C14.0527 16.5166 14.7842 15.792 14.7773 14.7598C14.7842 13.707 14.0391 12.9756 13 12.9688C12.2549 12.9688 11.7354 13.249 11.4414 13.8027H9.58203L10.1152 8.10156H16.2129V9.7832H11.8105L11.5371 12.2852H11.6191C11.9814 11.7998 12.7334 11.4443 13.6016 11.4512C15.4199 11.4443 16.7734 12.8047 16.7734 14.7051C16.7734 16.708 15.2559 18.1367 13.0273 18.1367Z" fill="#636363"/>
</g>
<defs>
<clipPath id="clip0_647_20667">
<rect width="26" height="26" fill="white"/>
</clipPath>
</defs>
</svg>
