<svg width="24" height="24" viewBox="0 0 24 24" fill="none" xmlns="http://www.w3.org/2000/svg">
<path d="M19 15H16.6C16.1757 15 15.7687 15.1686 15.4686 15.4686C15.1686 15.7687 15 16.1757 15 16.6V19" stroke="white" stroke-width="1.4" stroke-linecap="square" stroke-linejoin="round"/>
<path d="M9 19V16.6C9 16.1757 8.83143 15.7687 8.53137 15.4686C8.23131 15.1686 7.82435 15 7.4 15H5" stroke="white" stroke-width="1.4" stroke-linecap="square" stroke-linejoin="round"/>
<path d="M15 5V7.4C15 7.82435 15.1686 8.23131 15.4686 8.53137C15.7687 8.83143 16.1757 9 16.6 9H19" stroke="white" stroke-width="1.4" stroke-linecap="square" stroke-linejoin="round"/>
<path d="M5 9H7.4C7.82435 9 8.23131 8.83143 8.53137 8.53137C8.83143 8.23131 9 7.82435 9 7.4V5" stroke="white" stroke-width="1.4" stroke-linecap="square" stroke-linejoin="round"/>
</svg>
