<svg width="20" height="20" viewBox="0 0 20 20" fill="none" xmlns="http://www.w3.org/2000/svg">
<g clip-path="url(#clip0_1910_11384)">
<path d="M4 10C4 11.1867 4.35189 12.3467 5.01118 13.3334C5.67047 14.3201 6.60754 15.0892 7.7039 15.5433C8.80026 15.9974 10.0067 16.1162 11.1705 15.8847C12.3344 15.6532 13.4035 15.0818 14.2426 14.2426C15.0818 13.4035 15.6532 12.3344 15.8847 11.1705C16.1162 10.0067 15.9974 8.80026 15.5433 7.7039C15.0892 6.60754 14.3201 5.67047 13.3334 5.01118C12.3467 4.35189 11.1867 4 10 4C8.32263 4.00631 6.71265 4.66082 5.50667 5.82667L4.41427 6.91906" stroke="#363636" stroke-linecap="square" stroke-linejoin="round"/>
<path d="M4 4V7.33333H7.33333" stroke="#363636" stroke-linecap="square" stroke-linejoin="round"/>
</g>
<defs>
<clipPath id="clip0_1910_11384">
<rect width="20" height="20" fill="white"/>
</clipPath>
</defs>
</svg>
