<svg width="24" height="24" viewBox="0 0 24 24" fill="none" xmlns="http://www.w3.org/2000/svg">
<path d="M9 5H6.6C6.17565 5 5.76869 5.16857 5.46863 5.46863C5.16857 5.76869 5 6.17565 5 6.6V9" stroke="white" stroke-width="1.4" stroke-linecap="square" stroke-linejoin="round"/>
<path d="M19 9V6.6C19 6.17565 18.8314 5.76869 18.5314 5.46863C18.2313 5.16857 17.8243 5 17.4 5H15" stroke="white" stroke-width="1.4" stroke-linecap="square" stroke-linejoin="round"/>
<path d="M5 15V17.4C5 17.8243 5.16857 18.2313 5.46863 18.5314C5.76869 18.8314 6.17565 19 6.6 19H9" stroke="white" stroke-width="1.4" stroke-linecap="square" stroke-linejoin="round"/>
<path d="M15 19H17.4C17.8243 19 18.2313 18.8314 18.5314 18.5314C18.8314 18.2313 19 17.8243 19 17.4V15" stroke="white" stroke-width="1.4" stroke-linecap="square" stroke-linejoin="round"/>
</svg>
