<svg width="20" height="20" viewBox="0 0 20 20" fill="none" xmlns="http://www.w3.org/2000/svg">
<g clip-path="url(#clip0_1910_3264)">
<path d="M12.0026 3.33398H8.0026C7.63441 3.33398 7.33594 3.63246 7.33594 4.00065V5.33398C7.33594 5.70217 7.63441 6.00065 8.0026 6.00065H12.0026C12.3708 6.00065 12.6693 5.70217 12.6693 5.33398V4.00065C12.6693 3.63246 12.3708 3.33398 12.0026 3.33398Z" stroke="#363636" stroke-linecap="square" stroke-linejoin="round"/>
<path d="M8.93073 10.4005C9.19595 10.1353 9.55566 9.98633 9.93073 9.98633C10.3058 9.98633 10.6655 10.1353 10.9307 10.4005C11.1959 10.6658 11.3449 11.0255 11.3449 11.4005C11.3449 11.7756 11.1959 12.1353 10.9307 12.4005L7.33073 16.0005L4.66406 16.6672L5.33073 14.0005L8.93073 10.4005Z" stroke="#363636" stroke-linecap="square" stroke-linejoin="round"/>
<path d="M12.6693 4.66602H14.0026C14.3562 4.66602 14.6954 4.80649 14.9454 5.05654C15.1955 5.30659 15.3359 5.64573 15.3359 5.99935V15.3327C15.3359 15.6863 15.1955 16.0254 14.9454 16.2755C14.6954 16.5255 14.3562 16.666 14.0026 16.666H10.3359" stroke="#363636" stroke-linecap="square" stroke-linejoin="round"/>
<path d="M4.66406 10.9993V5.99935C4.66406 5.64573 4.80454 5.30659 5.05459 5.05654C5.30464 4.80649 5.64377 4.66602 5.9974 4.66602H7.33073" stroke="#363636" stroke-linecap="square" stroke-linejoin="round"/>
</g>
<defs>
<clipPath id="clip0_1910_3264">
<rect width="20" height="20" fill="white"/>
</clipPath>
</defs>
</svg>
