<svg width="32" height="32" viewBox="0 0 32 32" fill="none" xmlns="http://www.w3.org/2000/svg">
<path fill-rule="evenodd" clip-rule="evenodd" d="M4.09961 4.84686V27.1503C4.09961 27.9905 4.78008 28.671 5.6203 28.671H18.0393L25.6427 21.0675V4.84686C25.6427 4.00664 24.9622 3.32617 24.122 3.32617H5.6203C4.78008 3.32617 4.09961 4.00664 4.09961 4.84686Z" fill="#C7C5C2"/>
<path fill-rule="evenodd" clip-rule="evenodd" d="M19.5588 21.0645H25.6415L18.0381 28.6679V22.5851C18.0381 21.7449 18.7186 21.0645 19.5588 21.0645Z" fill="#5F5E5C"/>
<path d="M20.7185 8.76562H9.03805C8.46367 8.76562 7.99805 9.23125 7.99805 9.80562C7.99805 10.38 8.46367 10.8456 9.03805 10.8456H20.7185C21.2929 10.8456 21.7585 10.38 21.7585 9.80562C21.7585 9.23125 21.2929 8.76562 20.7185 8.76562Z" fill="#5F5E5C"/>
<path d="M16.8784 13.0879H9.03805C8.46367 13.0879 7.99805 13.5535 7.99805 14.1279C7.99805 14.7023 8.46367 15.1679 9.03805 15.1679H16.8784C17.4528 15.1679 17.9184 14.7023 17.9184 14.1279C17.9184 13.5535 17.4528 13.0879 16.8784 13.0879Z" fill="#5F5E5C"/>
<path d="M13.0383 17.4043H9.03805C8.46367 17.4043 7.99805 17.8699 7.99805 18.4443C7.99805 19.0187 8.46367 19.4843 9.03805 19.4843H13.0383C13.6127 19.4843 14.0783 19.0187 14.0783 18.4443C14.0783 17.8699 13.6127 17.4043 13.0383 17.4043Z" fill="#5F5E5C"/>
<path d="M25.6445 5.57617H27.3557C27.7674 5.57617 28.1014 5.91026 28.1014 6.32192V10.2757C28.1014 10.6874 27.7674 11.0215 27.3557 11.0215H25.6445V5.57694V5.57617Z" fill="#50C346"/>
<path d="M27.3557 18.7043H25.6445V13.2598H27.3557C27.7674 13.2598 28.1014 13.5939 28.1014 14.0055V17.9593C28.1014 18.371 27.7674 18.7051 27.3557 18.7051V18.7043Z" fill="#0085FF"/>
</svg>
