<svg width="48" height="48" viewBox="0 0 48 48" fill="none" xmlns="http://www.w3.org/2000/svg">
<g id="ICON/Common/ic_pc_co_share_link">
<circle id="Ellipse 3620" cx="24" cy="24" r="24" fill="#F0F1F6"/>
<path id="Vector" d="M33 27V31C33 31.5304 32.7893 32.0391 32.4142 32.4142C32.0391 32.7893 31.5304 33 31 33H17C16.4696 33 15.9609 32.7893 15.5858 32.4142C15.2107 32.0391 15 31.5304 15 31V27" stroke="#525663" stroke-width="2.07408" stroke-linecap="round" stroke-linejoin="round"/>
<path id="Vector_2" d="M19 22L24 27L29 22" stroke="#525663" stroke-width="2.07408" stroke-linecap="round" stroke-linejoin="round"/>
<path id="Vector_3" d="M22.963 25V26.037H25.037V25H22.963ZM25.037 14C25.037 13.4273 24.5727 12.963 24 12.963C23.4273 12.963 22.963 13.4273 22.963 14H25.037ZM25.037 25V14H22.963V25H25.037Z" fill="#525663"/>
</g>
</svg>
