<svg width="20" height="20" viewBox="0 0 20 20" fill="none" xmlns="http://www.w3.org/2000/svg">
<g clip-path="url(#clip0_1198_15116)">
<path d="M17.8666 9.20806L10.2082 16.8664C9.27005 17.8046 7.99757 18.3317 6.67075 18.3317C5.34393 18.3317 4.07145 17.8046 3.13325 16.8664C2.19505 15.9282 1.66797 14.6557 1.66797 13.3289C1.66797 12.0021 2.19505 10.7296 3.13325 9.79139L10.2749 2.64972C10.9004 2.02315 11.7491 1.6707 12.6345 1.66992C13.5198 1.66914 14.3692 2.02009 14.9957 2.64556C15.6223 3.27103 15.9748 4.11978 15.9755 5.00511C15.9763 5.89044 15.6254 6.73982 14.9999 7.36639L7.84158 14.5081C7.52885 14.8208 7.10469 14.9965 6.66242 14.9965C6.22014 14.9965 5.79598 14.8208 5.48325 14.5081C5.17051 14.1953 4.99482 13.7712 4.99482 13.3289C4.99482 12.8866 5.17051 12.4625 5.48325 12.1497L12.5582 5.08306" stroke="#969696" stroke-width="1.75" stroke-linecap="square" stroke-linejoin="round"/>
</g>
<defs>
<clipPath id="clip0_1198_15116">
<rect width="20" height="20" fill="white"/>
</clipPath>
</defs>
</svg>
