<svg width="32" height="32" viewBox="0 0 32 32" fill="none" xmlns="http://www.w3.org/2000/svg">
<path fill-rule="evenodd" clip-rule="evenodd" d="M16.0048 1.58984C18.3012 1.58984 20.237 3.13342 20.8314 5.23962C21.3704 5.04166 21.9527 4.93359 22.5603 4.93359C25.3298 4.93359 27.5749 7.17869 27.5749 9.94816C27.5749 10.18 27.5592 10.4082 27.5287 10.6316C29.2094 11.2841 30.4009 12.9171 30.4009 14.8284C30.4009 16.734 29.2164 18.363 27.5436 19.0193C27.565 19.2075 27.576 19.3988 27.576 19.5927C27.576 22.3622 25.3309 24.6073 22.5614 24.6073C21.9533 24.6073 21.3704 24.499 20.831 24.3007C20.2362 26.4062 18.3007 27.9491 16.0048 27.9491C13.7233 27.9491 11.7977 26.4255 11.1899 24.3402C10.6821 24.5133 10.1376 24.6073 9.57121 24.6073C6.80174 24.6073 4.55664 22.3622 4.55664 19.5927C4.55664 19.4149 4.5659 19.2393 4.58395 19.0662C2.84536 18.4434 1.60156 16.7812 1.60156 14.8284C1.60156 12.8708 2.8515 11.2051 4.59682 10.5859C4.5703 10.3771 4.55664 10.1642 4.55664 9.94816C4.55664 7.17869 6.80174 4.93359 9.57121 4.93359C10.1374 4.93359 10.6817 5.02744 11.1894 5.20043C11.7966 3.11431 13.7227 1.58984 16.0048 1.58984Z" fill="#C7C5C2"/>
<circle cx="3.91402" cy="27.9531" r="2.31442" fill="#C7C5C2"/>
</svg>
