<svg width="32" height="32" viewBox="0 0 32 32" fill="none" xmlns="http://www.w3.org/2000/svg">
<g clip-path="url(#clip0_1304_6271)">
<path d="M19.9974 2.66602H11.9974C11.261 2.66602 10.6641 3.26297 10.6641 3.99935V6.66602C10.6641 7.4024 11.261 7.99935 11.9974 7.99935H19.9974C20.7338 7.99935 21.3307 7.4024 21.3307 6.66602V3.99935C21.3307 3.26297 20.7338 2.66602 19.9974 2.66602Z" stroke="black" stroke-width="2.4" stroke-linecap="round" stroke-linejoin="round"/>
<path d="M13.8693 16.7991C14.3997 16.2687 15.1191 15.9707 15.8693 15.9707C16.6194 15.9707 17.3388 16.2687 17.8693 16.7991C18.3997 17.3296 18.6977 18.049 18.6977 18.7991C18.6977 19.5493 18.3997 20.2687 17.8693 20.7991L10.6693 27.9991L5.33594 29.3325L6.66927 23.9991L13.8693 16.7991Z" stroke="black" stroke-width="2.4" stroke-linecap="round" stroke-linejoin="round"/>
<path d="M21.3307 5.33398H23.9974C24.7046 5.33398 25.3829 5.61494 25.883 6.11503C26.3831 6.61513 26.6641 7.29341 26.6641 8.00065V26.6673C26.6641 27.3746 26.3831 28.0528 25.883 28.5529C25.3829 29.053 24.7046 29.334 23.9974 29.334H16.6641" stroke="black" stroke-width="2.4" stroke-linecap="square" stroke-linejoin="round"/>
<path d="M5.33594 18.0007V8.00065C5.33594 7.29341 5.61689 6.61513 6.11699 6.11503C6.61708 5.61494 7.29536 5.33398 8.0026 5.33398H10.6693" stroke="black" stroke-width="2.4" stroke-linecap="square" stroke-linejoin="round"/>
</g>
<defs>
<clipPath id="clip0_1304_6271">
<rect width="32" height="32" fill="white"/>
</clipPath>
</defs>
</svg>
