<svg width="26" height="26" viewBox="0 0 26 26" fill="none" xmlns="http://www.w3.org/2000/svg">
<path d="M21.6667 4.33301H4.33332C3.13671 4.33301 2.16666 5.30306 2.16666 6.49967V19.4997C2.16666 20.6963 3.13671 21.6663 4.33332 21.6663H21.6667C22.8633 21.6663 23.8333 20.6963 23.8333 19.4997V6.49967C23.8333 5.30306 22.8633 4.33301 21.6667 4.33301Z" fill="#7D7A74"/>
<path d="M23.8333 7.58301L14.1158 13.758C13.7814 13.9676 13.3947 14.0787 13 14.0787C12.6053 14.0787 12.2186 13.9676 11.8842 13.758L2.16666 7.58301" fill="#7D7A74"/>
<path d="M23.8333 7.58301L14.1158 13.758C13.7814 13.9676 13.3947 14.0787 13 14.0787C12.6053 14.0787 12.2186 13.9676 11.8842 13.758L2.16666 7.58301M4.33332 4.33301H21.6667C22.8633 4.33301 23.8333 5.30306 23.8333 6.49967V19.4997C23.8333 20.6963 22.8633 21.6663 21.6667 21.6663H4.33332C3.13671 21.6663 2.16666 20.6963 2.16666 19.4997V6.49967C2.16666 5.30306 3.13671 4.33301 4.33332 4.33301Z" stroke="#F7F4F1" stroke-width="2" stroke-linecap="round" stroke-linejoin="round"/>
</svg>
