<svg width="32" height="32" viewBox="0 0 32 32" fill="none" xmlns="http://www.w3.org/2000/svg">
<path d="M25.1003 12.3205L16.6104 4.6581C16.2444 4.32751 15.7258 4.32751 15.3592 4.6581L6.87052 12.3205C6.39113 12.753 6.11133 13.4108 6.11133 14.1062V24.8499C6.11133 26.3618 7.19133 27.5877 8.52339 27.5877H13.9752V23.3065C13.9752 22.6768 14.4251 22.1655 14.9805 22.1655H16.9903C17.5451 22.1655 17.9955 22.6761 17.9955 23.3065V27.5877H23.4468C24.7788 27.5877 25.8588 26.3618 25.8588 24.8499V14.1062C25.8588 13.4108 25.5803 12.753 25.1003 12.3205Z" fill="#C7C5C2"/>
<path d="M13.8037 19.7988H18.1697C18.8391 19.7988 19.3819 20.3423 19.3819 21.011V27.5874H12.5908V21.011C12.5908 20.3416 13.135 19.7988 13.8037 19.7988Z" fill="#5F5E5C"/>
<path d="M26.9733 15.0021L15.9867 5.72656L5 15.0021" stroke="#5F5E5C" stroke-width="3.82023" stroke-linecap="round" stroke-linejoin="round"/>
</svg>
