<svg width="20" height="20" viewBox="0 0 20 20" fill="none" xmlns="http://www.w3.org/2000/svg">
<g clip-path="url(#clip0_82_704)">
<path fill-rule="evenodd" clip-rule="evenodd" d="M10.0005 18C10.0005 18 16.546 13.2 16.546 8.40001C16.546 6.70262 15.8564 5.07475 14.6289 3.87452C13.4014 2.67428 11.7365 2 10.0005 2C8.26458 2 6.59971 2.67428 5.3722 3.87452C4.14469 5.07475 3.45508 6.70262 3.45508 8.40001C3.45508 13.2 10.0005 18 10.0005 18ZM12.9113 8.54549C12.9113 10.1521 11.6088 11.4546 10.0022 11.4546C8.39552 11.4546 7.09307 10.1521 7.09307 8.54549C7.09307 6.93884 8.39552 5.6364 10.0022 5.6364C11.6088 5.6364 12.9113 6.93884 12.9113 8.54549Z" fill="black"/>
</g>
<defs>
<clipPath id="clip0_82_704">
<rect width="20" height="20" fill="white"/>
</clipPath>
</defs>
</svg>
