<svg width="20" height="20" viewBox="0 0 20 20" fill="none" xmlns="http://www.w3.org/2000/svg">
<g clip-path="url(#clip0_586_14225)">
<path fill-rule="evenodd" clip-rule="evenodd" d="M9.99859 18C9.99859 18 16.5441 13.2 16.5441 8.40001C16.5441 6.70262 15.8544 5.07475 14.6269 3.87452C13.3994 2.67428 11.7346 2 9.99859 2C8.26263 2 6.59776 2.67428 5.37025 3.87452C4.14273 5.07475 3.45312 6.70262 3.45312 8.40001C3.45312 13.2 9.99859 18 9.99859 18ZM12.909 8.54581C12.909 10.1525 11.6066 11.4549 9.99992 11.4549C8.39327 11.4549 7.09082 10.1525 7.09082 8.54581C7.09082 6.93917 8.39327 5.63672 9.99992 5.63672C11.6066 5.63672 12.909 6.93917 12.909 8.54581Z" fill="#CFCFCF"/>
</g>
<defs>
<clipPath id="clip0_586_14225">
<rect width="20" height="20" fill="white"/>
</clipPath>
</defs>
</svg>
