<svg width="120" height="120" viewBox="0 0 120 120" fill="none" xmlns="http://www.w3.org/2000/svg">
<path fill-rule="evenodd" clip-rule="evenodd" d="M120 60C120 93.1371 93.1371 120 60 120C26.8629 120 0 93.1371 0 60C0 26.8629 26.8629 0 60 0C93.1371 0 120 26.8629 120 60ZM54 37.2012C54 33.8875 56.6863 31.2012 60 31.2012C63.3137 31.2012 66 33.8875 66 37.2012V64.8012C66 68.1149 63.3137 70.8012 60 70.8012C56.6863 70.8012 54 68.1149 54 64.8012V37.2012ZM60 90C63.3137 90 66 87.3137 66 84C66 80.6863 63.3137 78 60 78C56.6863 78 54 80.6863 54 84C54 87.3137 56.6863 90 60 90Z" fill="#605D58" fill-opacity="0.1"/>
</svg>
