<svg width="26" height="26" viewBox="0 0 26 26" fill="none" xmlns="http://www.w3.org/2000/svg">
<path d="M3.7915 5.4165C3.7915 3.24984 5.24317 2.1665 7.0415 2.1665H15.7082C17.5065 2.1665 18.9582 3.24984 18.9582 5.4165V21.6665C18.9582 22.8631 17.9881 23.8332 16.7915 23.8332H5.95817C4.76156 23.8332 3.7915 22.8631 3.7915 21.6665V5.4165Z" fill="#B7B7B7"/>
<path d="M7.04114 14.895C6.59697 14.895 6.22864 14.5267 6.22864 14.0825C6.22864 13.6384 6.59697 13.27 7.04114 13.27H10.2911C10.7353 13.27 11.1036 13.6384 11.1036 14.0825C11.1036 14.5267 10.7353 14.895 10.2911 14.895H7.04114Z" fill="#464646"/>
</svg>
