<svg width="26" height="26" viewBox="0 0 26 26" fill="none" xmlns="http://www.w3.org/2000/svg">
<path d="M8.48137 10.8987C7.20304 10.8987 6.75888 10.0428 7.50638 9.00284L12.0239 2.67617C12.5547 1.91784 13.443 1.91784 13.9739 2.67617L18.4914 9.00284C19.2389 10.0428 18.7947 10.8987 17.5164 10.8987H8.48137Z" fill="#B7B7B7"/>
<path d="M6.94374 19.5011C5.23207 19.5011 4.64707 18.3636 5.65457 16.9769L9.97706 10.8994H16.0221L20.3446 16.9769C21.3521 18.3636 20.7671 19.5011 19.0554 19.5011H6.94374Z" fill="#464646"/>
<path d="M13.8116 23.8333C13.8116 24.2775 13.4433 24.6458 12.9991 24.6458C12.555 24.6458 12.1866 24.2775 12.1866 23.8333V19.5H13.8116V23.8333Z" fill="#464646"/>
</svg>
