<svg width="26" height="26" viewBox="0 0 26 26" fill="none" xmlns="http://www.w3.org/2000/svg">
<path d="M22.3167 22.3996H3.25L3.30282 9.86455C3.30282 9.18669 3.59859 8.54221 4.11619 8.11993L11.5105 2.07467C12.271 1.44125 13.3485 1.44125 14.109 2.07467L21.5033 8.11993C22.0209 8.54221 22.3167 9.1867 22.3167 9.87568V22.3996Z" fill="#B7B7B7"/>
<path d="M23.8337 23.6445H2.16699C1.72283 23.6445 1.35449 23.2762 1.35449 22.832C1.35449 22.377 1.72283 22.0195 2.16699 22.0195H23.8337C24.2778 22.0195 24.6462 22.377 24.6462 22.832C24.6462 23.2762 24.2778 23.6445 23.8337 23.6445Z" fill="#464646"/>
<path d="M11.376 7.9375C10.9318 7.9375 10.5635 7.56917 10.5635 7.125C10.5635 6.68083 10.9318 6.3125 11.376 6.3125H14.626C15.0701 6.3125 15.4385 6.68083 15.4385 7.125C15.4385 7.56917 15.0701 7.9375 14.626 7.9375H11.376Z" fill="#464646"/>
<path fill-rule="evenodd" clip-rule="evenodd" d="M9.20898 10.918C8.30982 10.918 7.58398 11.6438 7.58398 12.543V22.8346H18.4173V12.543C18.4173 11.6438 17.6915 10.918 16.7923 10.918H9.20898ZM10.834 19.043C10.3898 19.043 10.0215 18.6746 10.0215 18.2305V16.6055C10.0215 16.1613 10.3898 15.793 10.834 15.793C11.2782 15.793 11.6465 16.1613 11.6465 16.6055V18.2305C11.6465 18.6746 11.2782 19.043 10.834 19.043Z" fill="#464646"/>
</svg>
