<svg width="26" height="26" viewBox="0 0 26 26" fill="none" xmlns="http://www.w3.org/2000/svg">
<path opacity="0.6" d="M21.472 12.9996H4.36621V11.3421C4.36621 8.82875 6.41371 6.78125 8.92704 6.78125H16.9112C19.4245 6.78125 21.472 8.82875 21.472 11.3421V12.9996Z" fill="#464646"/>
<path d="M21.472 19.2725C21.472 21.7858 19.4245 23.8333 16.9112 23.8333H8.92704C6.41371 23.8333 4.36621 21.7858 4.36621 19.2725V13H21.472V19.2725Z" fill="#B7B7B7"/>
<path d="M7.3457 4.73568V2.83984C7.3457 2.39568 7.71404 2.02734 8.1582 2.02734C8.60237 2.02734 8.9707 2.39568 8.9707 2.83984V4.73568C8.9707 5.19068 8.60237 5.54818 8.1582 5.54818C7.71404 5.54818 7.3457 5.17984 7.3457 4.73568Z" fill="#464646"/>
<path d="M11.6787 4.73568V2.83984C11.6787 2.39568 12.047 2.02734 12.4912 2.02734C12.9354 2.02734 13.3037 2.39568 13.3037 2.83984V4.73568C13.3037 5.19068 12.9354 5.54818 12.4912 5.54818C12.047 5.54818 11.6787 5.17984 11.6787 4.73568Z" fill="#464646"/>
<path d="M16.0127 4.73568V2.83984C16.0127 2.39568 16.381 2.02734 16.8252 2.02734C17.2694 2.02734 17.6377 2.39568 17.6377 2.83984V4.73568C17.6377 5.19068 17.2694 5.54818 16.8252 5.54818C16.381 5.54818 16.0127 5.17984 16.0127 4.73568Z" fill="#464646"/>
</svg>
