<svg width="30" height="30" viewBox="0 0 30 30" fill="none" xmlns="http://www.w3.org/2000/svg">
<g id="Group 48098311">
<circle id="Ellipse 2034" cx="15" cy="15" r="15" fill="#EB008B"/>
<path id="!" d="M14.9969 17.5523C14.4312 17.5523 13.7706 17.1107 13.7384 16.5459L13.3547 9.80328L13.3052 8.41629C13.2748 7.5677 14.1478 6.86328 14.9969 6.86328C15.8461 6.86328 16.6546 7.5677 16.6243 8.41629L16.5748 9.80328L16.191 16.5459C16.1589 17.1107 15.5627 17.5523 14.9969 17.5523ZM14.9969 23.1383C14.4369 23.1383 13.9749 22.9423 13.6109 22.5503C13.2609 22.1583 13.0859 21.6823 13.0859 21.1223C13.0859 20.5343 13.2609 20.0513 13.6109 19.6733C13.9749 19.2953 14.4369 19.1063 14.9969 19.1063C15.5569 19.1063 16.0119 19.2953 16.3619 19.6733C16.7259 20.0513 16.9079 20.5343 16.9079 21.1223C16.9079 21.6823 16.7259 22.1583 16.3619 22.5503C16.0119 22.9423 15.5569 23.1383 14.9969 23.1383Z" fill="white"/>
</g>
</svg>
