<svg width="44" height="44" viewBox="0 0 44 44" fill="none" xmlns="http://www.w3.org/2000/svg">
<g id="Icon">
<rect id="Rectangle 10108" x="23.1992" y="7.33203" width="16.1333" height="29.3333" rx="3.66667" stroke="white" stroke-width="2.2"/>
<rect id="Rectangle 10110" x="26.1328" y="16.1328" width="10.2667" height="17.6" rx="1.83333" fill="white"/>
<path id="Rectangle 10109" d="M26.8672 6.5987C26.8672 7.00371 27.1955 7.33203 27.6005 7.33203H34.9339C35.3389 7.33203 35.6672 7.00371 35.6672 6.5987C35.6672 5.38367 34.6822 4.3987 33.4672 4.3987H29.0672C27.8522 4.3987 26.8672 5.38367 26.8672 6.5987Z" fill="white"/>
<g id="&#226;&#130;&#169;">
<path id="Ellipse 23" d="M15.5 41.4366C22.1827 41.4366 27.6 36.019 27.6 29.3362C27.6 22.6535 22.1827 17.2359 15.5 17.2359C8.81733 17.2359 3.4 22.6535 3.4 29.3362C3.4 36.019 8.81733 41.4366 15.5 41.4366Z" fill="white" stroke="black" stroke-width="2.2"/>
<path id="Vector 665" d="M10 24.7539L12.75 33.9206L15.5 26.0525L18.25 33.9206L21 24.7539" stroke="black" stroke-width="2.2" stroke-linecap="round" stroke-linejoin="round"/>
<path id="Vector 666" d="M8.89844 28.0391H22.0984" stroke="black" stroke-width="2.2" stroke-linecap="round" stroke-linejoin="round"/>
</g>
</g>
</svg>
