<svg width="44" height="44" viewBox="0 0 44 44" fill="none" xmlns="http://www.w3.org/2000/svg">
<g id="Icon">
<rect id="Rectangle 10108" x="16.8672" y="11" width="23.4667" height="22" rx="2.93333" stroke="white" stroke-width="2.2"/>
<rect id="Rectangle 10110" x="17.6016" y="11.7344" width="22" height="7.33333" fill="white"/>
<path id="Rectangle 10109" d="M21.2656 10.0833C21.2656 10.5896 21.676 11 22.1823 11H22.549C23.0552 11 23.4656 10.5896 23.4656 10.0833V8.43333C23.4656 7.82582 22.9731 7.33333 22.3656 7.33333C21.7581 7.33333 21.2656 7.82582 21.2656 8.43333V10.0833Z" fill="white"/>
<path id="Rectangle 10111" d="M33.7344 10.0833C33.7344 10.5896 34.1448 11 34.651 11H35.0177C35.524 11 35.9344 10.5896 35.9344 10.0833V8.43333C35.9344 7.82582 35.4419 7.33333 34.8344 7.33333C34.2269 7.33333 33.7344 7.82582 33.7344 8.43333V10.0833Z" fill="white"/>
<g id="&#226;&#130;&#169;">
<path id="Ellipse 23" d="M15 41.1006C21.6827 41.1006 27.1 35.6831 27.1 29.0003C27.1 22.3175 21.6827 16.9 15 16.9C8.31733 16.9 2.9 22.3175 2.9 29.0003C2.9 35.6831 8.31733 41.1006 15 41.1006Z" fill="white" stroke="black" stroke-width="2.2"/>
<path id="Vector 665" d="M9.5 24.418L12.25 33.5846L15 25.7166L17.75 33.5846L20.5 24.418" stroke="black" stroke-width="2.2" stroke-linecap="round" stroke-linejoin="round"/>
<path id="Vector 666" d="M8.39844 27.7031H21.5984" stroke="black" stroke-width="2.2" stroke-linecap="round" stroke-linejoin="round"/>
</g>
</g>
</svg>
