<svg width="32" height="32" viewBox="0 0 32 32" fill="none" xmlns="http://www.w3.org/2000/svg">
<path fill-rule="evenodd" clip-rule="evenodd" d="M31.0065 19.0004C31.0065 15.9858 28.9265 13.4684 26.1332 12.7511V11.8658C26.1332 6.27775 21.5878 1.73242 15.9998 1.73242C10.4132 1.73242 5.86783 6.27775 5.86783 11.8658V12.7511C3.07316 13.4684 0.993164 15.9858 0.993164 19.0004C0.994929 20.7169 1.67769 22.3626 2.89158 23.5763C4.10547 24.7899 5.75131 25.4723 7.46783 25.4738C7.89218 25.4738 8.29914 25.3052 8.5992 25.0051C8.89926 24.7051 9.06783 24.2981 9.06783 23.8738V11.8658C9.06783 8.04309 12.1772 4.93242 15.9998 4.93242C19.8225 4.93242 22.9332 8.04309 22.9332 11.8658V23.2111L19.5465 26.5978C19.3983 26.7465 19.222 26.8645 19.028 26.9448C18.8339 27.0252 18.6259 27.0663 18.4158 27.0658H15.8518C15.4275 27.0658 15.0205 27.2343 14.7205 27.5344C14.4204 27.8344 14.2518 28.2414 14.2518 28.6658C14.2518 29.0901 14.4204 29.4971 14.7205 29.7971C15.0205 30.0972 15.4275 30.2658 15.8518 30.2658H18.4158C19.6985 30.2658 20.9038 29.7671 21.8105 28.8604L25.2705 25.3991C28.4892 25.0284 31.0065 22.3178 31.0065 19.0004Z" fill="black"/>
</svg>
