<svg width="16" height="16" viewBox="0 0 16 16" fill="none" xmlns="http://www.w3.org/2000/svg">
<path fill-rule="evenodd" clip-rule="evenodd" d="M2.66634 2.66602H13.333C14.0694 2.66602 14.6663 3.26297 14.6663 3.99935V4.21577L8.36296 7.65971L8.36134 7.66058C8.25292 7.71862 8.12774 7.7494 8 7.7494C7.87226 7.7494 7.74708 7.71862 7.63866 7.66058L1.33301 4.21542V3.99935C1.33301 3.26297 1.92996 2.66602 2.66634 2.66602ZM1.33301 5.69716V11.9993C1.33301 12.7357 1.92996 13.3327 2.66634 13.3327H13.333C14.0694 13.3327 14.6663 12.7357 14.6663 11.9993V5.69751L9.13522 8.7195C8.79495 8.9028 8.40153 9 8 9C7.59847 9 7.20506 8.90279 6.86479 8.71949L6.86086 8.71737L1.33301 5.69716Z" fill="#8C8B9A"/>
</svg>
