<svg width="96" height="96" viewBox="0 0 96 96" fill="none" xmlns="http://www.w3.org/2000/svg">
<rect width="96" height="96" rx="20" fill="#E8EBF4"/>
<path fill-rule="evenodd" clip-rule="evenodd" d="M36.3569 58.5215C37.4464 58.5215 38.4913 58.1133 39.2617 57.3865C40.0321 56.6598 40.465 55.6742 40.465 54.6465C40.465 53.6188 40.0321 52.6332 39.2617 51.9065C38.4913 51.1797 37.4464 50.7715 36.3569 50.7715C35.2673 50.7715 34.2224 51.1797 33.452 51.9065C32.6816 52.6332 32.2488 53.6188 32.2488 54.6465C32.2488 55.6742 32.6816 56.6598 33.452 57.3865C34.2224 58.1133 35.2673 58.5215 36.3569 58.5215ZM36.3569 59.707C30.4419 59.707 28.1426 63.2571 28.1426 64.909C28.1426 66.5599 33.0385 66.9996 36.3569 66.9996C39.6752 66.9996 44.5711 66.5599 44.5711 64.9081C44.5711 63.2571 42.2718 59.707 36.3569 59.707Z" fill="#95C1F5"/>
<path fill-rule="evenodd" clip-rule="evenodd" d="M59.9282 58.5215C61.0177 58.5215 62.0626 58.1133 62.833 57.3865C63.6034 56.6598 64.0362 55.6742 64.0362 54.6465C64.0362 53.6188 63.6034 52.6332 62.833 51.9065C62.0626 51.1797 61.0177 50.7715 59.9282 50.7715C58.8386 50.7715 57.7937 51.1797 57.0233 51.9065C56.2529 52.6332 55.8201 53.6188 55.8201 54.6465C55.8201 55.6742 56.2529 56.6598 57.0233 57.3865C57.7937 58.1133 58.8386 58.5215 59.9282 58.5215ZM59.9282 59.707C54.0132 59.707 51.7139 63.2571 51.7139 64.909C51.7139 66.5599 56.6098 66.9996 59.9282 66.9996C63.2465 66.9996 68.1424 66.5599 68.1424 64.9081C68.1424 63.2571 65.8431 59.707 59.9282 59.707Z" fill="#2B7DDE"/>
<path d="M28.9644 30C27.3272 30 26 31.218 26 32.7204V42.2963C26 43.7987 27.3272 45.0167 28.9644 45.0167H34.4152C34.4227 45.0256 34.4308 45.0344 34.4392 45.0431L36.087 46.7267C36.2833 46.9273 36.6258 46.9273 36.8221 46.7267L38.4699 45.0431C38.4783 45.0344 38.4863 45.0256 38.4939 45.0167H48.1429V30H28.9644Z" fill="#A5CEFF"/>
<path d="M67.9294 30C69.6251 30 70.9997 31.218 70.9997 32.7204V42.2963C70.9997 43.7987 69.6251 45.0167 67.9294 45.0167H62.284C62.2762 45.0256 62.2679 45.0344 62.2591 45.0431L60.5525 46.7267C60.3492 46.9273 59.9944 46.9273 59.7911 46.7267L58.0845 45.0431C58.0758 45.0344 58.0675 45.0256 58.0596 45.0167H48.1426V30H67.9294Z" fill="#4094F9"/>
</svg>
