<svg width="100" height="100" viewBox="0 0 100 100" fill="none" xmlns="http://www.w3.org/2000/svg">
<path d="M44.4815 70H51V85H35C40.3291 80.6496 42.4379 77.3959 44.4815 70Z" fill="url(#paint0_linear_254_9851)"/>
<path d="M57.5185 70H51V85H67C61.6709 80.6496 59.5621 77.3959 57.5185 70Z" fill="url(#paint1_linear_254_9851)"/>
<rect x="28" y="84" width="45" height="4" rx="2" fill="url(#paint2_linear_254_9851)"/>
<rect x="11" y="12" width="78" height="61" rx="5" fill="url(#paint3_linear_254_9851)"/>
<path d="M11 17C11 14.2386 13.2386 12 16 12H84C86.7614 12 89 14.2386 89 17V59H11V17Z" fill="#95B3F9"/>
<rect x="15" y="16" width="70" height="39" rx="3" fill="url(#paint4_linear_254_9851)"/>
<circle cx="51" cy="66" r="3" fill="white"/>
<defs>
<linearGradient id="paint0_linear_254_9851" x1="51" y1="70" x2="51" y2="85" gradientUnits="userSpaceOnUse">
<stop stop-color="#5576CE"/>
<stop offset="1" stop-color="#7196F8"/>
</linearGradient>
<linearGradient id="paint1_linear_254_9851" x1="51" y1="70" x2="51" y2="85" gradientUnits="userSpaceOnUse">
<stop stop-color="#5576CE"/>
<stop offset="1" stop-color="#7196F8"/>
</linearGradient>
<linearGradient id="paint2_linear_254_9851" x1="50.5" y1="84" x2="50.5" y2="88" gradientUnits="userSpaceOnUse">
<stop stop-color="#93B0FF"/>
<stop offset="1" stop-color="#7196F8"/>
</linearGradient>
<linearGradient id="paint3_linear_254_9851" x1="50" y1="43" x2="50" y2="73" gradientUnits="userSpaceOnUse">
<stop stop-color="#E6EEFD"/>
<stop offset="1" stop-color="#D9E5FD"/>
</linearGradient>
<linearGradient id="paint4_linear_254_9851" x1="36.3126" y1="10.6735" x2="68.949" y2="59.226" gradientUnits="userSpaceOnUse">
<stop stop-color="#E3EBFD"/>
<stop offset="1" stop-color="#B9D0FF"/>
</linearGradient>
</defs>
</svg>
