<svg width="118" height="118" viewBox="0 0 118 118" fill="none" xmlns="http://www.w3.org/2000/svg">
<path fill-rule="evenodd" clip-rule="evenodd" d="M58.4486 16.6548C36.0423 16.6548 17.8784 34.8187 17.8784 57.225H10.2236C10.2236 30.5911 31.8147 9 58.4486 9C85.0825 9 106.674 30.5911 106.674 57.225C106.674 83.8589 85.0825 105.45 58.4486 105.45V97.7952C80.8549 97.7952 99.0188 79.6313 99.0188 57.225C99.0188 34.8187 80.8549 16.6548 58.4486 16.6548Z" fill="#9090BA"/>
<rect x="48.4971" y="97.7949" width="20.6678" height="11.4821" rx="5.74107" fill="#8686B0"/>
<path d="M0 55.318C0 44.9639 8.39362 36.5703 18.7477 36.5703V69.0046C18.7477 73.6269 15.0005 77.3741 10.3782 77.3741C4.64647 77.3741 0 72.7276 0 66.9959V55.318Z" fill="url(#paint0_linear_306_10305)"/>
<path d="M118 55.318C118 44.9639 109.606 36.5703 99.2523 36.5703V69.0046C99.2523 73.6269 102.999 77.3741 107.622 77.3741C113.354 77.3741 118 72.7276 118 66.9959V55.318Z" fill="url(#paint1_linear_306_10305)"/>
<path fill-rule="evenodd" clip-rule="evenodd" d="M58.4478 89.3742C76.2038 89.3742 90.5978 74.9801 90.5978 57.2242C90.5978 39.4683 76.2038 25.0742 58.4478 25.0742C40.6919 25.0742 26.2979 39.4683 26.2979 57.2242C26.2979 74.9801 40.6919 89.3742 58.4478 89.3742ZM43.9039 61.8146C46.4405 61.8146 48.4967 59.7583 48.4967 57.2218C48.4967 54.6852 46.4405 52.6289 43.9039 52.6289C41.3673 52.6289 39.311 54.6852 39.311 57.2218C39.311 59.7583 41.3673 61.8146 43.9039 61.8146ZM63.0407 57.2218C63.0407 59.7583 60.9844 61.8146 58.4478 61.8146C55.9113 61.8146 53.855 59.7583 53.855 57.2218C53.855 54.6852 55.9113 52.6289 58.4478 52.6289C60.9844 52.6289 63.0407 54.6852 63.0407 57.2218ZM72.9918 61.8146C75.5283 61.8146 77.5846 59.7583 77.5846 57.2218C77.5846 54.6852 75.5283 52.6289 72.9918 52.6289C70.4552 52.6289 68.3989 54.6852 68.3989 57.2218C68.3989 59.7583 70.4552 61.8146 72.9918 61.8146Z" fill="url(#paint2_linear_306_10305)"/>
<defs>
<linearGradient id="paint0_linear_306_10305" x1="11.028" y1="60.832" x2="1.67778e-07" y2="60.832" gradientUnits="userSpaceOnUse">
<stop stop-color="#9090BA"/>
<stop offset="1" stop-color="#6C6C97"/>
</linearGradient>
<linearGradient id="paint1_linear_306_10305" x1="106.972" y1="60.832" x2="118" y2="60.832" gradientUnits="userSpaceOnUse">
<stop stop-color="#9090BA"/>
<stop offset="1" stop-color="#6C6C97"/>
</linearGradient>
<linearGradient id="paint2_linear_306_10305" x1="58.4478" y1="47.6557" x2="58.4478" y2="89.3742" gradientUnits="userSpaceOnUse">
<stop stop-color="#C5C5DF"/>
<stop offset="1" stop-color="#696994"/>
</linearGradient>
</defs>
</svg>
