<svg width="100" height="100" viewBox="0 0 100 100" fill="none" xmlns="http://www.w3.org/2000/svg">
<circle cx="50" cy="50" r="50" fill="#F7F8FB"/>
<rect x="25.7695" y="35" width="48.4615" height="30" rx="4.61538" fill="#C9DBFC"/>
<mask id="mask0_334_10227" style="mask-type:alpha" maskUnits="userSpaceOnUse" x="25" y="35" width="50" height="30">
<rect x="25.7695" y="35" width="48.4615" height="30" rx="4.61538" fill="#DF9696"/>
</mask>
<g mask="url(#mask0_334_10227)">
<path d="M62.1157 66.7309C61.1926 66.2694 52.5003 58.0771 48.2695 54.0386L64.4234 37.8848H71.3465V66.7309C68.6541 66.9232 63.0388 67.1925 62.1157 66.7309Z" fill="#BECFEF"/>
<path d="M33.4167 30.3848L53.6717 51.7444L51.1599 54.1262C50.2351 55.0032 48.7745 54.9644 47.8975 54.0396L29.2305 34.3545L33.4167 30.3848Z" fill="#8AAAFA"/>
<path d="M68.1673 31.9375L48.845 48.4149L53.4612 51.9439L71.9108 36.3273L68.1673 31.9375Z" fill="#8AAAFA"/>
</g>
<path d="M25.7695 39.6154C25.7695 37.0664 27.8359 35 30.3849 35H31.5388V65H30.3849C27.8359 65 25.7695 62.9336 25.7695 60.3846V39.6154Z" fill="#8AAAFA"/>
<path d="M68.4609 35H69.6148C72.1638 35 74.2302 37.0664 74.2302 39.6154V60.3846C74.2302 62.9336 72.1638 65 69.6148 65H68.4609V35Z" fill="#8AAAFA"/>
</svg>
