<svg width="100" height="100" viewBox="0 0 100 100" fill="none" xmlns="http://www.w3.org/2000/svg">
<circle cx="50" cy="50" r="50" fill="#F7F8FB"/>
<path fill-rule="evenodd" clip-rule="evenodd" d="M68.5836 59.1505L61.3487 53.5505C60.9992 53.2809 60.5635 53.1479 60.1231 53.1763C59.6826 53.2047 59.2676 53.3927 58.9558 53.7051L55.1156 57.5469C54.8295 57.8358 54.4544 58.0197 54.0508 58.0689C53.6472 58.118 53.2389 58.0296 52.8918 57.8178C51.6554 57.0596 49.5862 55.5905 46.9969 52.9996C44.4077 50.4124 42.9385 48.3415 42.1803 47.1069C41.9682 46.7602 41.8797 46.3519 41.9293 45.9485C41.9788 45.5451 42.1634 45.1703 42.453 44.8851L46.2933 41.0433C46.6061 40.7317 46.7942 40.3165 46.8223 39.8759C46.8505 39.4352 46.7166 38.9995 46.446 38.6506L40.8475 31.4143C39.5747 29.7725 37.1746 29.5125 35.6108 30.8852C33.5507 32.6925 31.076 35.3997 30.356 38.4379C29.0523 43.9106 31.1124 50.7778 40.1675 59.8323C49.2225 68.885 56.0902 70.9468 61.5614 69.645C64.5998 68.9214 67.309 66.445 69.1164 64.3868C70.4874 62.8232 70.2274 60.4232 68.5836 59.1505Z" fill="#8AAAFA"/>
</svg>
