<svg width="130" height="130" viewBox="0 0 130 130" fill="none" xmlns="http://www.w3.org/2000/svg">
<circle cx="94.3643" cy="42.6357" r="30.6357" fill="#D9D9D9"/>
<circle cx="94.3643" cy="42.6357" r="30.6357" fill="url(#paint0_linear_250_8214)"/>
<mask id="mask0_250_8214" style="mask-type:alpha" maskUnits="userSpaceOnUse" x="63" y="12" width="62" height="62">
<circle cx="94.3643" cy="42.6357" r="30.6357" fill="#D9D9D9"/>
<circle cx="94.3643" cy="42.6357" r="30.6357" fill="url(#paint1_linear_250_8214)"/>
</mask>
<g mask="url(#mask0_250_8214)">
<path d="M115.145 41.7084C115.145 52.5248 112.695 62.2432 108.809 69.2045C104.897 76.2152 99.7286 80.1277 94.3645 80.1277C89.0005 80.1277 83.8325 76.2152 79.9196 69.2045C76.0342 62.2432 73.584 52.5248 73.584 41.7084C73.584 30.8919 76.0342 21.1735 79.9196 14.2122C83.8325 7.20151 89.0005 3.28906 94.3645 3.28906C99.7286 3.28906 104.897 7.20151 108.809 14.2122C112.695 21.1735 115.145 30.8919 115.145 41.7084Z" stroke="white" stroke-width="3"/>
<path d="M120.715 19.3492C120.715 20.5809 120.148 21.8741 118.877 23.1825C117.599 24.4979 115.678 25.7511 113.186 26.836C108.208 29.0038 101.227 30.382 93.4355 30.382C85.6445 30.382 78.6626 29.0038 73.6846 26.836C71.1933 25.7511 69.2717 24.4979 67.9941 23.1825C66.7234 21.8741 66.1565 20.5809 66.1565 19.3492C66.1565 18.1175 66.7234 16.8243 67.9941 15.516C69.2717 14.2006 71.1933 12.9474 73.6846 11.8624C78.6626 9.6946 85.6445 8.31641 93.4355 8.31641C101.227 8.31641 108.208 9.6946 113.186 11.8624C115.678 12.9474 117.599 14.2006 118.877 15.516C120.148 16.8243 120.715 18.1175 120.715 19.3492Z" stroke="white" stroke-width="3"/>
<path d="M120.715 67.9098C120.715 69.1414 120.148 70.4347 118.877 71.743C117.599 73.0584 115.678 74.3116 113.186 75.3965C108.208 77.5644 101.227 78.9426 93.4355 78.9426C85.6445 78.9426 78.6626 77.5644 73.6846 75.3965C71.1933 74.3116 69.2717 73.0584 67.9941 71.743C66.7234 70.4347 66.1565 69.1414 66.1565 67.9098C66.1565 66.6781 66.7234 65.3849 67.9941 64.0765C69.2717 62.7611 71.1933 61.5079 73.6846 60.423C78.6626 58.2551 85.6445 56.877 93.4355 56.877C101.227 56.877 108.208 58.2551 113.186 60.423C115.678 61.5079 117.599 62.7611 118.877 64.0765C120.148 65.3849 120.715 66.6781 120.715 67.9098Z" stroke="white" stroke-width="3"/>
<rect x="60.9434" y="40.7793" width="67.77" height="3.16922" fill="white"/>
<rect x="96.6853" y="8.74805" width="67.77" height="3.16922" transform="rotate(90 96.6853 8.74805)" fill="white"/>
</g>
<rect x="6" y="61.5801" width="99.4897" height="55.8113" rx="5" fill="#8FB8FF"/>
<rect x="12.0657" y="67.6465" width="87.3568" height="43.6784" rx="5" fill="#E6EDFD"/>
<rect x="39.1482" y="77.7598" width="5.82103" height="27.1648" rx="2.91051" transform="rotate(-16.7007 39.1482 77.7598)" fill="#7FA1F9"/>
<rect x="52.6318" y="77.7598" width="5.82103" height="27.1648" rx="2.91051" transform="rotate(-16.7007 52.6318 77.7598)" fill="#7FA1F9"/>
<rect width="5.82103" height="27.1648" rx="2.91051" transform="matrix(-0.957819 -0.287373 -0.287373 0.957819 59.2222 77.7598)" fill="#7FA1F9"/>
<rect width="5.82103" height="27.1648" rx="2.91051" transform="matrix(-0.957819 -0.287373 -0.287373 0.957819 72.7036 77.7598)" fill="#7FA1F9"/>
<rect x="36.1387" y="87.7285" width="11.6421" height="5.82103" rx="2.91051" fill="#7FA1F9"/>
<rect x="63.302" y="87.7285" width="11.6421" height="5.82103" rx="2.91051" fill="#7FA1F9"/>
<circle cx="13.2797" cy="68.8598" r="7.27973" fill="#8FB8FF"/>
<circle cx="13.2797" cy="110.112" r="7.27973" fill="#8FB8FF"/>
<circle cx="98.2094" cy="110.112" r="7.27973" fill="#8FB8FF"/>
<circle cx="98.2094" cy="68.8598" r="7.27973" fill="#8FB8FF"/>
<defs>
<linearGradient id="paint0_linear_250_8214" x1="99.7706" y1="75.4598" x2="94.4869" y2="12.367" gradientUnits="userSpaceOnUse">
<stop stop-color="#D0DFFC"/>
<stop offset="1" stop-color="#7196F8"/>
</linearGradient>
<linearGradient id="paint1_linear_250_8214" x1="99.7706" y1="75.4598" x2="94.4869" y2="12.367" gradientUnits="userSpaceOnUse">
<stop stop-color="#D0DFFC"/>
<stop offset="1" stop-color="#7196F8"/>
</linearGradient>
</defs>
</svg>
