<svg width="130" height="130" viewBox="0 0 130 130" fill="none" xmlns="http://www.w3.org/2000/svg">
<path d="M78.5 38.5L39.9598 38.5C31.1455 38.5 24 45.6455 24 54.4598V54.4598C24 63.2742 31.1455 70.4196 39.9598 70.4196L80.4598 70.4196C89.5947 70.4196 97 77.8249 97 86.9598V86.9598C97 96.0947 89.5947 103.5 80.4598 103.5L32.4375 103.5" stroke="black" stroke-width="6"/>
<path d="M78.5 38.5L39.9598 38.5C31.1455 38.5 24 45.6455 24 54.4598V54.4598C24 63.2742 31.1455 70.4196 39.9598 70.4196L80.4598 70.4196C89.5947 70.4196 97 77.8249 97 86.9598V86.9598C97 96.0947 89.5947 103.5 80.4598 103.5L32.4375 103.5" stroke="url(#paint0_linear_250_8216)" stroke-width="6"/>
<rect width="15.3415" height="8.12195" rx="4.06098" transform="matrix(1 5.56363e-08 5.56363e-08 -1 107.682 50.6816)" fill="#BCD0FC"/>
<rect width="15.3415" height="8.12195" rx="4.06098" transform="matrix(1 5.56363e-08 5.56363e-08 -1 107.682 34.4395)" fill="#BCD0FC"/>
<path d="M77.0002 45C77.0002 51.6274 82.3728 57 89.0002 57L109.195 57C110.852 57 112.195 55.6569 112.195 54L112.195 23C112.195 21.3431 110.852 20 109.195 20L89.0003 20C82.3728 20 77.0002 25.3726 77.0002 32L77.0002 45Z" fill="#6487E4"/>
<circle cx="43.5" cy="84.5" r="30" fill="url(#paint1_linear_250_8216)"/>
<circle cx="43.5" cy="84.5" r="30" stroke="#D5E0FE" stroke-width="5"/>
<circle cx="43.5" cy="84.5" r="30" stroke="url(#paint2_linear_250_8216)" stroke-width="5"/>
<rect x="26.1035" y="72.7246" width="6" height="28" rx="3" transform="rotate(-16.7007 26.1035 72.7246)" fill="white"/>
<rect x="39.9993" y="72.7246" width="6" height="28" rx="3" transform="rotate(-16.7007 39.9993 72.7246)" fill="white"/>
<rect width="6" height="28" rx="3" transform="matrix(-0.957819 -0.287373 -0.287373 0.957819 46.7922 72.7246)" fill="white"/>
<rect width="6" height="28" rx="3" transform="matrix(-0.957819 -0.287373 -0.287373 0.957819 60.6887 72.7246)" fill="white"/>
<rect x="22.999" y="83" width="12" height="6" rx="3" fill="white"/>
<rect x="50.9998" y="83" width="12" height="6" rx="3" fill="white"/>
<defs>
<linearGradient id="paint0_linear_250_8216" x1="86.3077" y1="93.5" x2="34.5788" y2="43.1348" gradientUnits="userSpaceOnUse">
<stop stop-color="#D0DFFC"/>
<stop offset="1" stop-color="#7196F8"/>
</linearGradient>
<linearGradient id="paint1_linear_250_8216" x1="49.2353" y1="119.321" x2="43.6302" y2="52.3893" gradientUnits="userSpaceOnUse">
<stop stop-color="#D0DFFC"/>
<stop offset="1" stop-color="#7196F8"/>
</linearGradient>
<linearGradient id="paint2_linear_250_8216" x1="21" y1="63" x2="64.0433" y2="114.01" gradientUnits="userSpaceOnUse">
<stop stop-color="#D0DFFC"/>
<stop offset="1" stop-color="#7196F8"/>
</linearGradient>
</defs>
</svg>
