<svg width="130" height="130" viewBox="0 0 130 130" fill="none" xmlns="http://www.w3.org/2000/svg">
<path d="M61.8268 16.6058C63.6712 15.0912 66.3288 15.0912 68.1732 16.6058L76.5669 23.4987C77.5401 24.2979 78.779 24.7004 80.036 24.6259L90.8783 23.9831C93.2606 23.8419 95.4107 25.404 96.0126 27.7134L98.7517 38.2236C99.0693 39.4422 99.8349 40.496 100.896 41.1746L110.045 47.0275C112.055 48.3136 112.877 50.8411 112.006 53.0632L108.044 63.1762C107.585 64.3487 107.585 65.6513 108.044 66.8238L112.006 76.9368C112.877 79.1589 112.055 81.6864 110.045 82.9725L100.896 88.8254C99.8349 89.504 99.0693 90.5578 98.7517 91.7764L96.0126 102.287C95.4107 104.596 93.2606 106.158 90.8783 106.017L80.036 105.374C78.779 105.3 77.5401 105.702 76.5669 106.501L68.1732 113.394C66.3288 114.909 63.6712 114.909 61.8268 113.394L53.4331 106.501C52.4599 105.702 51.221 105.3 49.964 105.374L39.1217 106.017C36.7394 106.158 34.5893 104.596 33.9875 102.287L31.2483 91.7764C30.9307 90.5578 30.1651 89.504 29.1043 88.8254L19.9549 82.9725C17.9445 81.6864 17.1233 79.1589 17.9938 76.9368L21.9555 66.8238C22.4149 65.6513 22.4149 64.3487 21.9555 63.1762L17.9938 53.0632C17.1233 50.8411 17.9445 48.3136 19.9549 47.0275L29.1043 41.1746C30.1651 40.496 30.9307 39.4422 31.2483 38.2236L33.9875 27.7134C34.5893 25.404 36.7394 23.8419 39.1217 23.9831L49.964 24.6259C51.221 24.7004 52.4599 24.2979 53.4331 23.4987L61.8268 16.6058Z" fill="#D9D9D9"/>
<path d="M61.8268 16.6058C63.6712 15.0912 66.3288 15.0912 68.1732 16.6058L76.5669 23.4987C77.5401 24.2979 78.779 24.7004 80.036 24.6259L90.8783 23.9831C93.2606 23.8419 95.4107 25.404 96.0126 27.7134L98.7517 38.2236C99.0693 39.4422 99.8349 40.496 100.896 41.1746L110.045 47.0275C112.055 48.3136 112.877 50.8411 112.006 53.0632L108.044 63.1762C107.585 64.3487 107.585 65.6513 108.044 66.8238L112.006 76.9368C112.877 79.1589 112.055 81.6864 110.045 82.9725L100.896 88.8254C99.8349 89.504 99.0693 90.5578 98.7517 91.7764L96.0126 102.287C95.4107 104.596 93.2606 106.158 90.8783 106.017L80.036 105.374C78.779 105.3 77.5401 105.702 76.5669 106.501L68.1732 113.394C66.3288 114.909 63.6712 114.909 61.8268 113.394L53.4331 106.501C52.4599 105.702 51.221 105.3 49.964 105.374L39.1217 106.017C36.7394 106.158 34.5893 104.596 33.9875 102.287L31.2483 91.7764C30.9307 90.5578 30.1651 89.504 29.1043 88.8254L19.9549 82.9725C17.9445 81.6864 17.1233 79.1589 17.9938 76.9368L21.9555 66.8238C22.4149 65.6513 22.4149 64.3487 21.9555 63.1762L17.9938 53.0632C17.1233 50.8411 17.9445 48.3136 19.9549 47.0275L29.1043 41.1746C30.1651 40.496 30.9307 39.4422 31.2483 38.2236L33.9875 27.7134C34.5893 25.404 36.7394 23.8419 39.1217 23.9831L49.964 24.6259C51.221 24.7004 52.4599 24.2979 53.4331 23.4987L61.8268 16.6058Z" fill="url(#paint0_linear_250_8212)"/>
<circle cx="49.3883" cy="53.5513" r="7.28571" fill="white"/>
<circle cx="80.6129" cy="76.4478" r="7.28571" fill="white"/>
<rect x="47.147" y="84.248" width="52.0408" height="8.32653" rx="4" transform="rotate(-55.2594 47.147 84.248)" fill="white"/>
<defs>
<linearGradient id="paint0_linear_250_8212" x1="74" y1="119.643" x2="65.2042" y2="14.611" gradientUnits="userSpaceOnUse">
<stop stop-color="#D0DFFC"/>
<stop offset="1" stop-color="#7196F8"/>
</linearGradient>
</defs>
</svg>
