<svg width="106" height="40" viewBox="0 0 106 40" fill="none" xmlns="http://www.w3.org/2000/svg">
<path d="M67.4912 10.2522V12.8373H71.1614V13.5009C71.1614 16.1647 70.0539 17.5737 67.0674 18.4959L68.1964 20.9621C70.2542 20.4914 72.2705 19.3169 73.0999 17.7119C73.9856 19.3169 75.9242 20.4319 77.7187 20.8432L79.1507 18.0252C76.5483 17.4757 74.6726 16.1052 74.6726 13.4832V12.8373H78.2832V10.2522H67.4912ZM84.2164 9.90039H80.8459V13.6214H77.679V16.3029H80.8459V23.0957H83.8108C84.0542 22.1751 84.2164 20.6295 84.2164 19.5113V9.90039ZM84.5575 25.5234H74.6312C74.3697 25.5234 74.2886 25.4655 74.2886 25.1908V21.3718H70.9197V26.5211C70.9197 27.6377 71.5057 28.1663 72.6563 28.1663H84.5575V25.5234ZM86.4745 10.233V12.7988H90.3069V14.0359C90.3069 17.307 89.6216 19.3619 86.1318 20.8513L87.443 23.1214C89.4411 22.3968 91.3151 21.0264 92.1826 19.2816C93.05 20.9284 94.8661 22.2796 96.6209 22.9447L98.1953 20.2825C94.8049 19.0486 93.6344 17.1287 93.6344 14.0182V12.7988H97.3642V10.233H86.4745ZM105.999 14.7589H102.65V9.90039H99.422V28.1663H102.248C102.509 27.0882 102.65 25.2374 102.65 23.7898V17.3809H105.999V14.7589Z" fill="#6B6C6C"/>
<path d="M39.5716 27.907H47.2729V24.4736H38.5783V10.2773H34.385V27.907H39.5716Z" fill="#6B6C6C"/>
<path d="M56.508 21.1863H59.9266V24.2678C59.2959 24.5008 58.0675 24.7337 56.8971 24.7337C53.1209 24.7337 51.8611 22.8732 51.8611 19.0896C51.8611 15.4827 53.0597 13.3587 56.8358 13.3587C58.9366 13.3587 60.1352 13.9981 61.1235 15.2224L63.7325 12.8928C62.1433 10.6836 59.3555 10.0137 56.7481 10.0137C50.8711 10.0137 47.7837 13.1257 47.7837 19.0607C47.7837 24.9667 50.5715 28.1687 56.7166 28.1687C59.5342 28.1687 62.2939 27.4698 63.7921 26.4496V17.8991H56.508V21.1863Z" fill="#6B6C6C"/>
<path d="M14.0517 32.7278C21.8125 32.7278 28.1033 26.6178 28.1033 19.0906C28.1033 11.5571 21.8125 5.45508 14.0517 5.45508C6.2908 5.45508 0 11.5571 0 19.0906C0 26.6178 6.2908 32.7278 14.0517 32.7278Z" fill="#A51B37"/>
<path d="M13.4946 13.1035V25.0585H17.4082V23.9933H14.6104V13.1035H13.4946Z" fill="white"/>
<path d="M9.56496 16.3652C10.4953 16.3652 11.2519 15.6326 11.2519 14.7329C11.2519 13.8283 10.4953 13.0957 9.56496 13.0957C8.6379 13.0957 7.88135 13.8283 7.88135 14.7329C7.88135 15.6326 8.6379 16.3652 9.56496 16.3652Z" fill="white"/>
<path d="M14.6102 7.68117C14.4695 7.67474 14.1897 7.66992 14.0523 7.66992C7.57116 7.66992 2.29517 12.7903 2.29517 19.0867C2.29517 22.1345 3.51194 25.0024 5.73193 27.1569C7.9602 29.313 10.9152 30.4987 14.0523 30.4987C17.1911 30.4987 20.1461 29.313 22.3711 27.1569C24.5911 25.0024 25.8112 22.1345 25.8112 19.0867V18.5662L25.341 18.5694H17.4163V19.6298H24.6954V19.7808C24.3212 25.1662 19.6892 29.4335 14.0523 29.4335C11.2066 29.4335 8.53134 28.357 6.51497 26.4034C4.50026 24.4481 3.39109 21.8517 3.39109 19.0867C3.39109 16.3233 4.50026 13.7221 6.51497 11.7685C8.53134 9.81318 11.2066 8.73673 14.0523 8.73673C14.1815 8.73673 14.4828 8.74155 14.6102 8.74316V7.68117Z" fill="white"/>
</svg>
