<svg width="145" height="56" viewBox="0 0 145 56" fill="none" xmlns="http://www.w3.org/2000/svg">
<path d="M115.405 29.2423L121.477 12.6556C121.519 12.5391 121.533 12.4142 121.516 12.2915C121.5 12.1688 121.454 12.0518 121.382 11.9505C121.31 11.8492 121.215 11.7666 121.105 11.7096C120.994 11.6526 120.871 11.6229 120.747 11.623H112.328L106.512 19.2469H112.148L92.6795 33.08L101.867 22.2345H96.9581L103.982 11.623H94.4034C94.2447 11.6233 94.0899 11.6719 93.9599 11.7624C93.8299 11.8529 93.731 11.9809 93.6764 12.129L87.4038 29.2423C85.7307 33.8063 87.1846 36.0883 91.7656 36.0883H106.028C110.609 36.0883 113.735 33.8063 115.405 29.2423Z" fill="white"/>
<path d="M139.963 21.0313H121.412C121.253 21.031 121.097 21.0799 120.966 21.171C120.835 21.2622 120.736 21.3913 120.682 21.5406L112.287 44.4673C112.245 44.5838 112.232 44.7087 112.248 44.8315C112.265 44.9542 112.311 45.0712 112.382 45.1725C112.454 45.2738 112.549 45.3564 112.66 45.4134C112.77 45.4704 112.893 45.5001 113.018 45.4999H121.876C122.036 45.5001 122.192 45.4513 122.322 45.3601C122.453 45.269 122.552 45.1399 122.606 44.9905L125.563 36.9089H134.137C138.718 36.9089 141.843 34.6303 143.512 30.0732L144.318 27.8669C145.996 23.3098 144.544 21.0313 139.963 21.0313ZM133.417 28.9718C132.76 30.773 131.285 31.6726 128.993 31.6703H127.484L129.454 26.2767H130.963C133.255 26.2767 134.073 27.1751 133.417 28.9718Z" fill="white"/>
<path d="M50.2258 31.969C48.0311 37.9694 42.6574 40.9685 34.1047 40.9662C25.552 40.9639 22.3731 37.9648 24.5678 31.969L25.1424 30.396C27.3371 24.4071 32.7097 21.4137 41.26 21.416C49.8104 21.4183 52.9905 24.4151 50.8004 30.4063L50.2258 31.969ZM38.9926 33.9481L41.0177 28.3997C41.7285 26.463 41.3108 25.4947 39.7646 25.4947C38.2184 25.4947 37.091 26.463 36.3825 28.3997L34.3505 33.9481C33.6397 35.8824 34.0586 36.8508 35.6071 36.8531C37.1556 36.8554 38.2841 35.887 38.9926 33.9481Z" fill="white"/>
<path d="M57.8144 40.7963H50.6729C50.5484 40.7965 50.4256 40.7668 50.315 40.7098C50.2044 40.6528 50.1093 40.5702 50.0377 40.4689C49.966 40.3676 49.9199 40.2506 49.9034 40.1279C49.8868 40.0052 49.9002 39.8803 49.9425 39.7638L58.3267 16.8336C58.3813 16.6846 58.4806 16.5557 58.6113 16.4646C58.7419 16.3735 58.8975 16.3245 59.0571 16.3242H66.1986C66.3231 16.3241 66.4459 16.3537 66.5565 16.4107C66.667 16.4677 66.7622 16.5504 66.8338 16.6517C66.9055 16.753 66.9515 16.8699 66.9681 16.9927C66.9847 17.1154 66.9713 17.2403 66.929 17.3568L58.5344 40.2835C58.4818 40.4321 58.3845 40.5611 58.2557 40.6528C58.1269 40.7446 57.9728 40.7947 57.8144 40.7963Z" fill="white"/>
<path d="M0.775698 40.7969H14.4701C14.5969 40.7952 14.7213 40.7629 14.8328 40.703C14.9444 40.6431 15.0396 40.5572 15.1106 40.4527L31.0343 17.526C31.1155 17.4101 31.1631 17.2743 31.1719 17.1334C31.1807 16.9924 31.1504 16.8518 31.0844 16.7268C31.0183 16.6017 30.9189 16.4972 30.7972 16.4245C30.6754 16.3518 30.5359 16.3137 30.3939 16.3145H21.3935C21.2604 16.3145 21.1296 16.3488 21.0138 16.4139C20.8979 16.479 20.801 16.5728 20.7323 16.6862L9.57531 34.8802L11.7112 17.199C11.7239 17.0907 11.7134 16.9808 11.6804 16.8768C11.6474 16.7727 11.5927 16.6767 11.5198 16.5952C11.4469 16.5136 11.3575 16.4483 11.2574 16.4035C11.1574 16.3586 11.049 16.3354 10.9392 16.3351H1.63766C1.43697 16.3358 1.24432 16.4136 1.09985 16.5521C0.955387 16.6906 0.870267 16.8792 0.86224 17.0786L0.000278199 40.0053C-0.00249683 40.1082 0.0155126 40.2107 0.0532367 40.3067C0.0909608 40.4026 0.147637 40.49 0.219919 40.5638C0.292202 40.6376 0.378621 40.6963 0.474079 40.7363C0.569537 40.7763 0.672097 40.7969 0.775698 40.7969Z" fill="white"/>
<path d="M83.7275 21.5839H80.5427L82.0901 17.3607C82.1323 17.2442 82.1458 17.1193 82.1292 16.9966C82.1126 16.8738 82.0666 16.7569 81.9949 16.6556C81.9233 16.5543 81.8281 16.4716 81.7176 16.4146C81.607 16.3576 81.4842 16.328 81.3597 16.3281H74.2182C74.0586 16.3284 73.903 16.3774 73.7724 16.4685C73.6417 16.5597 73.5424 16.6884 73.4878 16.8375L71.7569 21.5874H67.9976C67.8383 21.5874 67.683 21.6364 67.5529 21.7275C67.4228 21.8187 67.3242 21.9477 67.2706 22.0968L65.9171 25.7934C65.8749 25.9097 65.8615 26.0342 65.8779 26.1567C65.8943 26.2792 65.94 26.3959 66.0113 26.4972C66.0825 26.5984 66.1772 26.6811 66.2873 26.7383C66.3974 26.7955 66.5198 26.8256 66.644 26.826H69.8288L66.8067 35.0866C66.8067 35.0866 65.7163 38.4081 68.6968 39.9398C68.8282 40.0154 68.9634 40.0843 69.1018 40.1463L69.3303 40.2667L69.1018 40.1463C69.4323 40.3034 69.7811 40.4191 70.1403 40.4905C71.0659 40.7068 72.0144 40.8108 72.9651 40.8002C74.224 40.7898 75.4792 40.6619 76.7141 40.4182C77.0696 40.3511 77.4018 40.1943 77.6788 39.9629C77.9558 39.7314 78.1684 39.4331 78.2961 39.0965L79.6531 35.5134C79.6875 35.4217 79.6979 35.3228 79.6834 35.226C79.6689 35.1291 79.6298 35.0376 79.57 34.9598C79.5101 34.8821 79.4314 34.8207 79.3412 34.7815C79.251 34.7423 79.1522 34.7265 79.0542 34.7356L77.4168 34.8939C75.499 35.0763 76.2537 33.3175 76.2537 33.3175L78.7496 26.826H82.3878C82.5468 26.8255 82.7019 26.7768 82.8324 26.6864C82.9629 26.596 83.0626 26.4682 83.1182 26.32L84.4717 22.62C84.5151 22.5022 84.529 22.3757 84.512 22.2513C84.4951 22.127 84.4479 22.0087 84.3746 21.9066C84.3013 21.8046 84.204 21.7218 84.0912 21.6656C83.9785 21.6094 83.8536 21.5813 83.7275 21.5839Z" fill="white"/>
</svg>
