<svg width="94" height="28" viewBox="0 0 94 28" fill="none" xmlns="http://www.w3.org/2000/svg">
<path d="M13.8169 26.4692C16.321 26.4674 18.7684 25.723 20.8495 24.3303C22.9306 22.9376 24.552 20.9591 25.5086 18.6449C26.4653 16.3307 26.7143 13.7848 26.224 11.3291C25.7338 8.87347 24.5264 6.61834 22.7545 4.84886C20.9827 3.07938 18.7259 1.87502 16.2695 1.38813C13.8132 0.901237 11.2676 1.15365 8.95474 2.11346C6.64186 3.07327 4.66552 4.69737 3.27565 6.78037C1.88577 8.86337 1.14478 11.3117 1.14636 13.8158C1.14712 15.479 1.47545 17.1256 2.11263 18.6618C2.7498 20.198 3.68333 21.5937 4.85991 22.7691C6.03649 23.9445 7.43308 24.8767 8.96992 25.5123C10.5068 26.148 12.1538 26.4747 13.8169 26.4738" fill="#AF0030"/>
<path d="M13.3085 8.25311V19.3612H16.8392V18.3615H14.3264V8.25195L13.3085 8.25311Z" fill="white"/>
<path d="M9.77039 11.2858C10.071 11.2863 10.365 11.1975 10.6151 11.0308C10.8652 10.8641 11.0603 10.6269 11.1755 10.3493C11.2908 10.0716 11.321 9.76603 11.2625 9.47118C11.204 9.17632 11.0593 8.90549 10.8467 8.69293C10.6341 8.48037 10.3633 8.33565 10.0684 8.27712C9.77359 8.21858 9.468 8.24887 9.19037 8.36412C8.91273 8.47937 8.67553 8.67439 8.50881 8.92452C8.34208 9.17466 8.25333 9.46863 8.25379 9.76924C8.25409 10.1714 8.41397 10.557 8.69832 10.8413C8.98268 11.1257 9.36826 11.2855 9.77039 11.2858Z" fill="white"/>
<path d="M14.3235 3.21412C14.1905 3.20839 13.9394 3.19922 13.8191 3.19922C11.7215 3.19854 9.67092 3.8199 7.92654 4.98471C6.18216 6.14952 4.82237 7.80546 4.01916 9.74311C3.21595 11.6808 3.00538 13.8131 3.41409 15.8704C3.82279 17.9277 4.83242 19.8177 6.31527 21.3012C7.79813 22.7847 9.68762 23.7951 11.7448 24.2047C13.8019 24.6143 15.9343 24.4046 17.8723 23.6023C19.8103 22.7999 21.4668 21.4408 22.6324 19.6969C23.798 17.9531 24.4202 15.9027 24.4204 13.8052V13.334H16.8465V14.3096H23.4105C23.4105 14.3314 23.4105 14.4345 23.4105 14.462C23.2846 16.3029 22.6314 18.0686 21.529 19.5482C20.4266 21.0278 18.9216 22.1589 17.1937 22.8062C15.4658 23.4535 13.5881 23.5897 11.7849 23.1987C9.98169 22.8076 8.32916 21.9057 7.0247 20.6007C5.68063 19.2565 4.76537 17.5438 4.39467 15.6794C4.02398 13.815 4.2145 11.8825 4.94214 10.1263C5.66978 8.37016 6.90186 6.86923 8.48256 5.81333C10.0633 4.75743 11.9216 4.19398 13.8225 4.19426C13.9371 4.19426 14.2031 4.19427 14.3269 4.20115L14.3235 3.21412Z" fill="white"/>
<path d="M36.0188 5.42432H32.2129V21.9076H43.9056V18.6978H36.0188V5.42432ZM52.2807 15.6267H55.3759V18.5087C54.4879 18.7997 53.5591 18.9468 52.6246 18.9443C49.1982 18.9443 48.0576 17.203 48.0576 13.6711C48.0576 10.2986 49.1444 8.31193 52.5708 8.31193C53.3131 8.24975 54.0591 8.37689 54.7389 8.68143C55.4187 8.98596 56.0102 9.45794 56.458 10.0532L58.8241 7.87519C57.382 5.81178 54.8531 5.18359 52.4882 5.18359C47.1577 5.18359 44.3584 8.0953 44.3584 13.6424C44.3584 19.1632 46.8861 22.1552 52.4619 22.1552C54.7092 22.2262 56.9319 21.6705 58.8814 20.5503V12.5534H52.2807V15.6267Z" fill="white"/>
<path d="M88.9295 5.39423V1.24219H85.8653V5.39423H81.8164V8.32316H85.8653V12.427H88.9295V8.32316H93.0058V5.39423H88.9295Z" fill="white"/>
<path d="M75.6703 5.41211V14.9336C75.6703 17.5702 74.3634 18.8598 72.1533 18.8598C69.9431 18.8598 68.6363 17.5656 68.6363 14.9336V5.41211H64.9004V14.9921C64.9004 20.1896 67.6654 22.1407 72.0192 22.1407H72.2863C76.6424 22.1407 79.4062 20.1919 79.4062 14.9921V5.41323L75.6703 5.41211Z" fill="white"/>
</svg>
