<svg width="189" height="55" viewBox="0 0 189 55" fill="none" xmlns="http://www.w3.org/2000/svg">
<path fill-rule="evenodd" clip-rule="evenodd" d="M41.6821 48.6839C37.4908 51.4883 32.5618 52.9871 27.5185 52.9908V53C24.169 53.0018 20.8519 52.3439 17.7567 51.064C14.6615 49.784 11.8488 47.907 9.47911 45.5402C7.10947 43.1733 5.22934 40.363 3.94606 37.2696C2.66279 34.1762 2.00152 30.8604 2.00001 27.5115C1.99681 22.4691 3.48918 17.539 6.28839 13.3446C9.08761 9.1502 13.068 5.87984 17.7261 3.94714C22.3843 2.01444 27.511 1.50616 32.4581 2.48658C37.4052 3.46701 41.9504 5.89214 45.519 9.45524C49.0876 13.0183 51.5193 17.5594 52.5066 22.5042C53.4939 27.449 52.9925 32.5756 51.0658 37.2355C49.139 41.8954 45.8735 45.8795 41.6821 48.6839ZM26 38V16.0023L28.0182 16V36.0204H33V38H26ZM18.9955 22C19.5892 22.0009 20.1699 21.8256 20.6639 21.4963C21.1579 21.167 21.5431 20.6985 21.7708 20.1501C21.9984 19.6018 22.0582 18.9982 21.9426 18.4158C21.827 17.8335 21.5411 17.2985 21.1213 16.8787C20.7015 16.4589 20.1665 16.173 19.5842 16.0574C19.0018 15.9418 18.3982 16.0016 17.8499 16.2293C17.3015 16.4569 16.833 16.8421 16.5037 17.3361C16.1744 17.8302 15.9991 18.4108 16 19.0045C16.0006 19.7988 16.3164 20.5604 16.878 21.122C17.4396 21.6836 18.2012 21.9994 18.9955 22ZM27.507 6C27.751 6 28.26 6.01859 28.5296 6.03022L28.5365 8.03129C28.2855 8.01735 27.7464 8.01732 27.514 8.01732C23.6601 8.01675 19.8925 9.15909 16.6878 11.2998C13.4832 13.4405 10.9853 16.4835 9.51006 20.0439C8.03485 23.6043 7.6486 27.5222 8.40014 31.3021C9.15167 35.082 11.0073 38.5542 13.7322 41.2795C16.3769 43.9251 19.7272 45.7536 23.383 46.5465C27.0388 47.3394 30.8456 47.0631 34.3487 45.7508C37.8517 44.4384 40.903 42.1454 43.138 39.1456C45.373 36.1458 46.6972 32.5661 46.9525 28.834V28.5249H33.6448V26.5471H49V27.5023C48.9995 31.7548 47.738 35.9117 45.375 39.4472C43.0119 42.9827 39.6535 45.738 35.7245 47.3647C31.7954 48.9915 27.4722 49.4165 23.3016 48.5861C19.131 47.7557 15.3002 45.7071 12.2939 42.6995C9.2876 39.6919 7.24071 35.8603 6.41211 31.6893C5.5835 27.5183 6.0104 23.1953 7.63883 19.267C9.26725 15.3386 12.024 11.9814 15.5606 9.61987C19.0971 7.25837 23.2545 5.99862 27.507 6Z" fill="white"/>
<path d="M72.4574 10.8548H64.8076V43.8416H88.31V37.4181H72.4574V10.8548ZM105.144 31.2722H111.365V37.0396C109.581 37.6221 107.714 37.9164 105.835 37.9114C98.9483 37.9114 96.6557 34.4266 96.6557 27.3585C96.6557 20.6093 98.84 16.6336 105.727 16.6336C107.219 16.5091 108.719 16.7636 110.085 17.373C111.452 17.9825 112.64 18.927 113.541 20.1183L118.296 15.7596C115.398 11.6302 110.315 10.373 105.561 10.373C94.8469 10.373 89.2202 16.2 89.2202 27.3012C89.2202 38.3496 94.3009 44.3371 105.508 44.3371C110.025 44.4792 114.493 43.3672 118.412 41.1254V25.1218H105.144V31.2722Z" fill="white"/>
<path d="M178.809 10.7955V2.48633H172.65V10.7955H164.512V16.657H172.65V24.8698H178.809V16.657H187.003V10.7955H178.809Z" fill="white"/>
<path d="M152.157 10.8301V29.8848C152.157 35.1613 149.531 37.7421 145.088 37.7421C140.646 37.7421 138.019 35.1521 138.019 29.8848V10.8301H130.51V30.0018C130.51 40.4033 136.067 44.3078 144.819 44.3078H145.355C154.111 44.3078 159.667 40.4079 159.667 30.0018V10.8323L152.157 10.8301Z" fill="white"/>
</svg>
