<svg width="167" height="30" viewBox="0 0 167 30" fill="none" xmlns="http://www.w3.org/2000/svg">
<path d="M78.28 10.3332C74.698 10.3332 71.776 13.0572 71.776 16.8132C71.776 20.5422 74.698 23.2932 78.28 23.2932C81.862 23.2932 84.781 20.5422 84.781 16.8132C84.781 13.0572 81.862 10.3332 78.28 10.3332ZM78.28 20.7372C76.318 20.7372 74.62 19.1172 74.62 16.8102C74.62 14.4792 76.315 12.8832 78.28 12.8832C80.245 12.8832 81.934 14.4792 81.934 16.8102C81.934 19.1172 80.245 20.7372 78.28 20.7372ZM64.093 10.3332C60.508 10.3332 57.586 13.0572 57.586 16.8132C57.586 20.5422 60.508 23.2932 64.093 23.2932C67.678 23.2932 70.597 20.5422 70.597 16.8132C70.597 13.0572 67.675 10.3332 64.093 10.3332ZM64.093 20.7372C62.131 20.7372 60.433 19.1172 60.433 16.8102C60.433 14.4792 62.128 12.8832 64.093 12.8832C66.058 12.8832 67.75 14.4792 67.75 16.8102C67.75 19.1172 66.058 20.7372 64.093 20.7372ZM47.212 12.3192V15.0672H53.791C53.593 16.6152 53.08 17.7432 52.294 18.5292C51.337 19.4862 49.837 20.5392 47.212 20.5392C43.162 20.5392 39.997 17.2752 39.997 13.2252C39.997 9.17515 43.165 5.90815 47.212 5.90815C49.396 5.90815 50.995 6.76916 52.171 7.87316L54.109 5.93516C52.462 4.36616 50.281 3.16016 47.209 3.16016C41.662 3.16016 37 7.67815 37 13.2252C37 18.7722 41.665 23.2872 47.209 23.2872C50.203 23.2872 52.462 22.3062 54.229 20.4642C56.044 18.6492 56.611 16.0962 56.611 14.0322C56.611 13.3932 56.56 12.8052 56.464 12.3162H47.209L47.212 12.3192ZM116.242 14.4552C115.702 13.0062 114.058 10.3332 110.692 10.3332C107.356 10.3332 104.581 12.9582 104.581 16.8132C104.581 20.4432 107.329 23.2932 111.013 23.2932C113.983 23.2932 115.702 21.4782 116.413 20.4222L114.205 18.9492C113.473 20.0292 112.465 20.7402 111.016 20.7402C109.567 20.7402 108.538 20.0772 107.872 18.7782L116.539 15.1962L116.245 14.4582L116.242 14.4552ZM107.407 16.6152C107.332 14.1132 109.345 12.8352 110.794 12.8352C111.925 12.8352 112.879 13.3992 113.197 14.2092L107.407 16.6152ZM100.363 22.8972H103.21V3.85015H100.363V22.8972ZM95.695 11.7792H95.599C94.96 11.0172 93.736 10.3302 92.188 10.3302C88.948 10.3302 85.978 13.1742 85.978 16.8342C85.978 20.4672 88.948 23.2872 92.188 23.2872C93.736 23.2872 94.96 22.6002 95.599 21.8142H95.695V22.7472C95.695 25.2282 94.372 26.5542 92.236 26.5542C90.493 26.5542 89.413 25.3032 88.972 24.2472L86.494 25.2792C87.202 26.9982 89.095 29.1072 92.236 29.1072C95.575 29.1072 98.398 27.1452 98.398 22.3602V10.7262H95.698V11.7822L95.695 11.7792ZM92.431 20.7372C90.469 20.7372 88.825 19.0932 88.825 16.8372C88.825 14.5542 90.469 12.8862 92.431 12.8862C94.369 12.8862 95.89 14.5572 95.89 16.8372C95.89 19.0932 94.369 20.7372 92.431 20.7372ZM129.577 3.85316H122.767V22.9002H125.608V15.6852H129.577C132.73 15.6852 135.823 13.4022 135.823 9.76916C135.823 6.13616 132.73 3.85316 129.577 3.85316ZM129.649 13.0332H125.605V6.50516H129.649C131.773 6.50516 132.979 8.26316 132.979 9.76916C132.979 11.2452 131.773 13.0332 129.649 13.0332ZM147.217 10.2972C145.159 10.2972 143.029 11.2032 142.147 13.2132L144.67 14.2662C145.21 13.2132 146.212 12.8682 147.265 12.8682C148.735 12.8682 150.229 13.7502 150.256 15.3192V15.5142C149.74 15.2202 148.639 14.7792 147.292 14.7792C144.571 14.7792 141.805 16.2732 141.805 19.0662C141.805 21.6162 144.031 23.2572 146.533 23.2572C148.444 23.2572 149.497 22.3992 150.16 21.3942H150.256V22.8642H153.001V15.5622C153.001 12.1782 150.475 10.2942 147.217 10.2942V10.2972ZM146.875 20.7342C145.942 20.7342 144.646 20.2692 144.646 19.1172C144.646 17.6472 146.263 17.0832 147.658 17.0832C148.909 17.0832 149.497 17.3532 150.256 17.7192C150.037 19.4832 148.516 20.7312 146.875 20.7312V20.7342ZM162.997 10.7142L159.739 18.9702H159.64L156.259 10.7142H153.193L158.269 22.2552L155.374 28.6752H158.341L166.156 10.7142H162.994H162.997ZM137.392 22.9002H140.233V3.85316H137.392V22.9002Z" fill="white"/>
<path d="M0.522707 0.609994C0.192106 0.958465 0 1.49904 0 2.20268V27.2703C0 27.9717 0.192106 28.5145 0.522707 28.8629L0.605356 28.9456L14.6492 14.9018V14.5712L0.605356 0.527344L0.522707 0.609994Z" fill="#5BC8F3"/>
<path d="M19.3282 19.5875L14.6484 14.9032V14.5726L19.3305 9.89062L24.9819 13.1028C26.5657 14.003 26.5657 15.4751 24.9819 16.3753L19.4354 19.5272L19.3282 19.5897" fill="url(#paint0_linear_397_10712)"/>
<path d="M19.4347 19.5233L14.6499 14.7363L0.523438 28.8628C1.04391 29.4168 1.90839 29.4838 2.88008 28.932L19.4369 19.5233" fill="url(#paint1_linear_397_10712)"/>
<path d="M19.4352 9.94968L2.87618 0.540967C1.90671 -0.0107784 1.04224 0.0584688 0.519531 0.610214L14.646 14.7367L19.4308 9.94968" fill="url(#paint2_linear_397_10712)"/>
<defs>
<linearGradient id="paint0_linear_397_10712" x1="17.1749" y1="14.7379" x2="43.6922" y2="14.7379" gradientUnits="userSpaceOnUse">
<stop stop-color="#FDDF00"/>
<stop offset="0.399" stop-color="#FABC0D"/>
<stop offset="0.774" stop-color="#F8A317"/>
<stop offset="1" stop-color="#F89A1B"/>
</linearGradient>
<linearGradient id="paint1_linear_397_10712" x1="3.44523" y1="22.0252" x2="32.4309" y2="22.0252" gradientUnits="userSpaceOnUse">
<stop stop-color="#EE4447"/>
<stop offset="1" stop-color="#C6176D"/>
</linearGradient>
<linearGradient id="paint2_linear_397_10712" x1="0.521765" y1="7.44784" x2="19.4352" y2="7.44784" gradientUnits="userSpaceOnUse">
<stop stop-color="#259D6F"/>
<stop offset="0.06" stop-color="#2B9F6E"/>
<stop offset="0.471" stop-color="#52B16A"/>
<stop offset="0.799" stop-color="#6BBC68"/>
<stop offset="1" stop-color="#74C068"/>
</linearGradient>
</defs>
</svg>
