<svg width="66" height="20" viewBox="0 0 66 20" fill="none" xmlns="http://www.w3.org/2000/svg">
<path d="M9.701 19.2423C11.4592 19.241 13.1776 18.6999 14.6388 17.6875C16.1 16.6751 17.2384 15.2368 17.9101 13.5545C18.5818 11.8722 18.7566 10.0214 18.4124 8.23627C18.0682 6.45112 17.2205 4.81175 15.9764 3.52543C14.7323 2.2391 13.1477 1.36359 11.4231 1.00965C9.69841 0.655701 7.91111 0.839196 6.28717 1.53693C4.66323 2.23466 3.27559 3.4153 2.29972 4.92954C1.32385 6.44378 0.803575 8.22361 0.804689 10.044C0.805218 11.253 1.03575 12.45 1.48313 13.5668C1.93051 14.6835 2.58596 15.6981 3.41207 16.5526C4.23818 17.407 5.21877 18.0847 6.29783 18.5467C7.37689 19.0088 8.53329 19.2463 9.701 19.2457" fill="#AF0030"/>
<path d="M9.34375 6.00084V14.0758H11.8228V13.3492H10.0585V6L9.34375 6.00084Z" fill="white"/>
<path d="M6.85978 8.20442C7.07084 8.20475 7.27725 8.14023 7.45288 8.01903C7.6285 7.89783 7.76544 7.7254 7.84636 7.52357C7.92727 7.32175 7.94853 7.09959 7.90743 6.88525C7.86633 6.6709 7.76473 6.47402 7.61548 6.3195C7.46624 6.16498 7.27607 6.05978 7.06905 6.01723C6.86202 5.97467 6.64746 5.9967 6.45252 6.08047C6.25759 6.16425 6.09104 6.30602 5.97398 6.48786C5.85692 6.66969 5.7946 6.8834 5.79492 7.10192C5.79514 7.39426 5.90739 7.67455 6.10704 7.88126C6.3067 8.08798 6.57742 8.2042 6.85978 8.20442Z" fill="white"/>
<path d="M10.0564 2.33701C9.96303 2.33284 9.78676 2.32617 9.70225 2.32617C8.22952 2.32568 6.78972 2.77738 5.56494 3.62414C4.34017 4.47089 3.38543 5.67468 2.82147 7.08325C2.25751 8.49183 2.10966 10.0419 2.39663 11.5375C2.68359 13.0331 3.39248 14.4069 4.43363 15.4854C5.47479 16.5638 6.80145 17.2983 8.24583 17.5961C9.69021 17.8939 11.1874 17.7415 12.5482 17.1582C13.9089 16.5749 15.072 15.5869 15.8903 14.3192C16.7087 13.0515 17.1456 11.561 17.1458 10.0362V9.69368H11.8279V10.4029H16.4367C16.4367 10.4187 16.4367 10.4937 16.4367 10.5137C16.3482 11.8519 15.8896 13.1355 15.1156 14.2111C14.3416 15.2867 13.2849 16.1089 12.0717 16.5795C10.8585 17.05 9.54012 17.1491 8.27402 16.8648C7.00793 16.5805 5.84764 15.9248 4.93174 14.9762C3.98803 13.999 3.3454 12.754 3.08513 11.3986C2.82485 10.0433 2.95862 8.63846 3.46952 7.36183C3.98041 6.08519 4.84549 4.99409 5.95534 4.2265C7.06519 3.45892 8.36998 3.04931 9.70467 3.04952C9.78516 3.04952 9.97189 3.04953 10.0588 3.05453L10.0564 2.33701Z" fill="white"/>
<path d="M25.2894 3.94257H22.6172V15.9251H30.8269V13.5917H25.2894V3.94257ZM36.7074 11.3592H38.8806V13.4542C38.2571 13.6658 37.6049 13.7727 36.9488 13.7709C34.5431 13.7709 33.7422 12.5051 33.7422 9.93757C33.7422 7.4859 34.5052 6.04172 36.911 6.04172C37.4322 5.99652 37.956 6.08895 38.4333 6.31033C38.9106 6.53171 39.3259 6.87481 39.6404 7.30757L41.3016 5.72424C40.2891 4.22424 38.5135 3.76758 36.8531 3.76758C33.1104 3.76758 31.1449 5.88424 31.1449 9.91674C31.1449 13.9301 32.9196 16.1051 36.8346 16.1051C38.4124 16.1567 39.9731 15.7527 41.3419 14.9384V9.12507H36.7074V11.3592Z" fill="black"/>
<path d="M62.4396 3.92067V0.902344H60.2881V3.92067H57.4453V6.04986H60.2881V9.03318H62.4396V6.04986H65.3017V3.92067H62.4396Z" fill="black"/>
<path d="M53.1302 3.93359V10.8553C53.1302 12.7719 52.2126 13.7094 50.6608 13.7094C49.109 13.7094 48.1915 12.7686 48.1915 10.8553V3.93359H45.5684V10.8978C45.5684 14.6761 47.5097 16.0944 50.5666 16.0944H50.7542C53.8127 16.0944 55.7533 14.6778 55.7533 10.8978V3.93441L53.1302 3.93359Z" fill="black"/>
</svg>
